<svg xmlns="http://www.w3.org/2000/svg" viewBox="0 0 300 200">
<path d="M242.377 34.6557L241.592 34.9684L241.285 35.091L240.333 35.0387L239.442 35.4664L237.862 36.546L237.792 36.596L237.204 36.7494L236.657 36.5137L236.346 36.655L236.239 37.295L235.943 37.7547L235.579 38.0104L234.318 38.1394L233.255 38.6877L231.872 38.3174L231.229 38.569L229.862 39.7997L229.164 40.1304L228.92 40.1164L227.994 40.0687L227.603 40.1967L227.019 40.761L225.914 40.847L225.57 41.0854L225.031 42.172L224.446 42.7747L224.112 42.8454L223.75 42.7127L223.477 42.7607L223.354 43.456L223.09 43.7474L222.35 44.002L221.759 44.4944L221.24 44.7607L220.546 44.7434H220.386L219.694 45.1254L218.392 45.2394L217.851 45.7557L217.732 45.8657L217.479 46.0187L217.066 46.2654L216.964 46.3267L216.466 46.2377L215.883 46.4687L215.647 46.1054L215.243 46.348L214.708 46.371L214.042 46.0744L213.535 45.8487L213.164 45.902L213.035 46.5487L213.022 46.6177L212.632 47.1367L211.904 47.5777L211.805 47.7067L210.977 48.776L209.403 50.4314L208.072 51.1074L206.692 51.527L205.726 52.3204L203.193 53.576L199.195 55.565L198.378 55.827L197.204 56.0144L195.112 56.785L193.265 57.3417L193.163 57.3734L192.797 57.484L190.194 58.2717L188.982 58.1437L188.265 58.4044L186.396 58.197L185.097 58.2227L184.275 58.3937L182.729 59.135L180.12 60.389L179.258 61.1777L177.916 61.8777L176.344 62.3757L176.348 61.7154L176.339 61.6874L175.793 61.8597L175.4 61.984L174.125 62.1807H173.415L172.975 62.0527L172.907 62.0757L170.301 62.9344L167.394 63.215L165.94 63.6814L164.854 63.664L164.174 63.8664L162.843 64.029L162.367 63.902L162.259 63.8727L158.343 64.0427L156.552 63.8404L155.697 64.0347L154.265 63.553L152.175 63.3107L151.687 63.164L150.589 62.8384L150.092 63.1247L149.72 63.1644L148.831 62.842L148.511 62.8337L147.777 63.099L147.355 62.9907L146.962 62.678L146.042 62.541L145.481 62.0697L142.347 62.485L141.497 62.235L138.646 61.4044L138.192 61.4274L137.627 61.8507L136.777 62.1607L136.04 62.3524L135.036 62.3874L133.87 62.0814L132.668 61.4987L132.224 61.393L131.233 61.493L130.929 61.5207L129.107 60.5434L126.76 59.0754L125.167 58.31L124.569 58.213L124.489 58.4974L124.786 59.4324L124.887 60.357L124.856 61.2114L124.84 61.7404L124.989 62.2154L125.564 62.8527L125.803 63.4927L125.979 65.254L125.977 67.0414L125.697 69.8914L125.603 70.3257L125.269 71.8024L124.964 73.1587L123.782 76.7697L123.458 77.2174L122.661 77.7607L120.854 78.9904L119.524 79.757L119.103 79.9317L118.023 80.0134L117.351 79.9784L116.513 79.5247L115.691 79.313L114.614 78.5384L113.415 78.2904L112.102 77.531L111.76 77.12L111.044 77.0527L110.052 76.755L110.053 76.7534L109.689 76.6444L109.437 76.571L108.172 76.536L106.992 75.9914L106.37 75.8414L105.521 75.798L104.633 76.2114L104.632 76.21L104.182 76.4197L103.613 76.1937L103.201 76.2194L102.735 76.9244L102.665 77.0337L102.344 77.2037L101.944 77.198L101.631 77.1897L101.292 77.3377L100.836 77.5354V77.5364L100.434 77.712L100.237 77.797L100.234 77.7937L100.113 77.818L99.8977 77.8554L99.631 77.9064L99.161 77.6317L98.911 77.4844L98.492 77.399L98.2664 77.562L98.222 78.3287L98.016 78.7884L97.3624 79.3664L96.698 79.9514L96.2347 80.6337L95.0097 83.4304L94.242 84.5587L94.0037 84.8217L93.201 85.707L92.489 86.2594L90.8484 87.531L89.295 88.111L87.9577 88.3844L87.3074 88.3874L86.0754 88.2234L84.9677 87.8834L83.751 87.1227L82.4167 86.0504L80.4854 84.1424L80.212 83.978L80.155 83.94L79.5467 83.551L79.0954 83.5627L78.9187 83.854L78.822 84.275L78.7404 84.6484L78.519 86.7707L78.5354 86.8937L78.6517 87.7677L80.1184 89.8177L80.5714 90.9067L80.6457 91.031L80.9484 91.5394L81.1784 91.927L81.2017 91.9664L81.703 93.4624L81.3507 94.307L81.5287 94.8727L81.0834 95.2184L81.0017 95.7067L82.3184 97.3577L82.606 98.086L82.285 99.0957L81.773 99.6524L81.6297 99.805L81.702 100.232L82.308 100.777L83.3377 101.693L83.8867 103.055L84.3044 103.421L84.7897 103.317L85.0597 103.523L85.469 103.516L85.8717 103.919L86.1324 104.045L86.5444 104.251L86.87 104.675L86.942 105.978L87.5494 107.598L87.5587 108.477L87.562 108.601L87.94 109.251L88.0587 109.763L87.8574 111.12L88.339 111.555L88.8614 111.448L89.1987 111.502L89.7407 111.953L90.397 112.953L91.039 112.859L91.4464 113.056L93.4137 114.834L93.86 115.059L93.8847 115.073L94.2057 115.234L94.6047 115.637L95.2234 115.226L95.292 115.219L95.9647 115.16L96.26 115.359L96.828 115.742L97.5727 115.732L99.1874 116.227L99.8937 116.408L101.314 117.291L101.918 117.664L102.275 117.954L102.75 118.341L103.698 118.749L104.511 118.944L104.952 119.049L105.284 119.177L105.292 119.156L105.297 119.157L105.289 119.178L107.05 119.853L108.004 120.075L108.887 120.4L109.529 120.635L110 120.642L110.667 120.082L111.313 120.044L111.849 120.178L112.372 120.09L113.201 119.58L113.362 119.34L113.95 119.061L115.931 118.815L116.51 119.003L117.997 118.356L118.993 118.633L119.874 118.32L121.801 118.748L122.313 119.108L122.885 119.764L122.955 119.767L123.592 119.779L123.326 120.222L124.167 121.105L124.927 122.253L124.978 122.405L125.53 124.026L125.941 124.601L126.228 125.402L126.242 125.925L125.796 126.266L125.722 126.46L125.697 126.532L125.788 126.75L125.956 126.658L126.277 126.481L126.666 126.42L127.355 126.494L127.809 126.541L128.527 126.185L129.003 125.948L129.767 126.277L130.607 126.268L130.96 126.425L131.958 126.878L132.468 126.926L132.656 126.802L132.776 126.517L132.715 126.185L132.333 125.744L131.489 124.764L131.144 124.261L130.881 123.532L130.799 122.601L130.741 121.973L130.846 121.147L131.073 120.852L131.239 120.196H131.242L131.285 120.025L131.754 119.403L132.995 118.605L134.329 117.411L135.383 116.716L136.469 116.245L136.498 116.113L136.619 116.162L139.383 115.222L139.429 115.217L140.66 115.003L148.966 115.588L149.274 115.494L149.276 115.493L149.552 114.716L149.701 114.572L149.8 114.478L150.714 114.076L151.14 114.015L152.326 114.308L152.811 114.427L153.589 113.992L154.14 114.001L155.279 113.379L155.982 113.397L156.25 113.29L157.621 112.305L158.941 111.926L159.284 111.744L159.406 111.677L160.759 110.963L161.619 110.302L162.361 109.908L163.173 109.698L165.3 109.549L165.728 108.836L166.642 108.714L167.195 108.091L167.827 107.834L168.28 107.181L168.659 106.634L169.189 106.327L170.889 106.22L172.905 106.47L173.171 106.308L173.626 104.683L174.103 104.378L175.386 102.508L175.391 101.826L175.392 101.257L175.603 100.446L175.46 98.9824L175.63 97.5004L176.428 95.617L177.131 94.857L178.264 94.0904L178.841 93.8394L179.657 93.702V93.7L179.777 93.6797L179.985 93.644L182.796 93.6054C182.835 93.5764 183.819 93.5914 183.819 93.5914L184.756 93.5787L187.127 94.0007L187.296 94.03L188.098 94.2897L189.022 95.0087L190.001 95.9647L190.184 96.143L190.819 96.4097L191.01 96.4937L191.534 96.41L192.28 96.0217L192.842 95.546L193.609 95.127L193.628 95.1004L194.06 94.451L194.073 94.4377L194.082 94.44L194.083 94.4364L194.076 94.4347L194.246 94.1764L195.728 93.5987L197.472 93.4974L197.668 93.3914L197.777 93.333L198.237 92.792L198.669 92.7884L199.714 93.1664L200.449 93.0207L201.032 93.2537L201.485 93.2L202.34 93.0987L203.258 93.7447L203.793 93.813L205.679 94.9164L205.777 94.9324L205.828 94.9417L205.936 94.9594L206.159 94.8927L206.492 94.7967L206.536 94.7834L206.578 94.8417L206.793 95.144L207.087 95.186L207.435 94.7217L207.296 94.511L207.244 94.4344L206.57 94.2974L205.965 93.263L206.541 92.6427L205.638 91.534L205.488 91.3504L205.437 91.2724L205.124 90.798L203.542 88.3864L201.482 86.7414L201.481 86.7427L200.759 86.1654L200.755 86.162L200.502 85.9634L199.401 84.844L198.615 83.8007L198.512 83.576L198.35 83.222L197.879 82.196L197.058 81.564L196.39 80.8337L196.357 80.7904L194.977 78.9154L194.75 78.601L194.424 78.4127L193.736 78.408L193.671 78.3427L193.632 78.3024L193.655 78.2777L193.985 77.9494L194.354 77.8567L194.513 77.4934L193.81 75.459L193.805 75.388L193.753 74.738L194.326 71.7864L194.399 71.4264L195.375 69.4407L195.98 68.9454L196.64 67.648L197.205 66.8187L197.747 66.2914L197.841 66.2354L198.819 65.6434L199.641 65.5277L200.424 65.4174L201.79 65.8387L203.09 65.8134L203.344 65.7864L203.934 65.7187L204.904 65.413L205.362 65.1304L205.6 64.766L206.096 63.1037L206.255 62.5747L206.561 62L208.329 59.964L209.666 58.7274L212.673 56.523L214.144 55.643L214.896 55.1944L221.604 52.2124L223.348 50.445L224.256 49.526L225.863 48.4477L227.743 47.6774L229.361 46.3967L229.715 45.952L230.16 44.5177L230.531 44.4277L230.866 43.7034L230.961 43.4974L232.281 42.5667L232.431 42.4924L237.56 39.9224L238.306 40.0247L238.705 39.427L240.197 39.1767L240.472 39.13L240.84 38.9464L241.153 38.413V38.308L241.196 36.8837L241.514 36.4987L241.688 35.56L241.852 35.3434L242.023 35.118L242.445 34.821L242.372 34.644L242.377 34.6557Z" fill="#D57800" />
</svg>