<svg xmlns="http://www.w3.org/2000/svg" viewBox="0 0 300 200">
<path d="M154.368 168.913C154.324 168.895 154.284 168.867 154.252 168.832L154.21 168.793C154.025 168.62 153.849 168.437 153.683 168.245C153.239 167.741 152.643 167.003 152.12 166.35C151.081 165.056 150.223 163.941 150.062 163.731L149.797 163.387L147.208 162.589L145.318 161.707L146.328 160.572L149.797 162.057L152.386 162.589L157.174 166.11L157.17 166.113C157.16 166.121 156.474 166.692 155.792 167.313C155.487 167.589 155.104 167.945 154.833 168.24C154.708 168.376 154.598 168.511 154.523 168.62C154.489 168.67 154.461 168.722 154.439 168.777L154.736 168.592L155.058 168.843L154.402 168.904L154.372 168.911L154.368 168.913ZM136.588 163.573C134.329 163.573 132.097 162.949 129.956 161.718L129.954 161.717L129.955 161.714C129.955 161.714 130.235 161.18 130.914 160.682C131.561 160.207 132.728 159.639 134.614 159.632H134.653C136.886 159.632 139.62 160.391 142.777 161.889C142.671 161.96 140.192 163.574 136.589 163.574L136.592 163.577L136.588 163.573ZM126.798 161.403C126.38 161.403 126.004 161.246 125.741 160.959C125.524 160.724 125.37 160.411 125.267 160C125.099 159.327 125.145 158.658 125.15 158.594C125.315 158.523 125.491 158.483 125.671 158.476L125.708 158.476C126.545 158.476 127.205 159.202 127.487 159.921C127.647 160.33 127.679 160.674 127.579 160.944C127.479 161.214 127.165 161.4 126.799 161.4L126.798 161.403ZM144.024 159.407C138.238 158.581 135.785 156.489 134.747 154.879C133.639 153.163 133.866 151.575 133.869 151.559L133.87 151.555L133.874 151.553C133.876 151.553 134.227 151.458 134.76 151.456C136.299 151.456 140.237 152.23 144.026 159.403L144.028 159.408L144.022 159.404L144.024 159.407ZM132.164 158.26C129.692 158.26 127.81 157.833 126.57 156.992C125.858 156.509 125.509 155.978 125.342 155.617C125.185 155.279 125.149 154.999 125.144 154.943C125.209 154.913 126.221 154.464 127.732 154.393C127.86 154.387 127.988 154.383 128.123 154.383C130.034 154.383 132.939 155.006 136.005 157.976L136.008 157.979H136.005C134.605 158.163 133.311 158.259 132.161 158.259L132.164 158.26ZM120.194 157.8C117.588 157.8 114.007 157.004 111.773 154.771L111.771 154.769L111.778 154.767C111.801 154.761 114.225 154.146 116.952 154.08C117.115 154.076 117.278 154.073 117.444 154.073C119.888 154.073 121.758 154.547 123.004 155.482C123.439 155.808 123.677 156.112 123.73 156.409C123.775 156.658 123.644 156.926 123.378 157.126C122.817 157.549 121.814 157.776 120.397 157.798L120.197 157.805L120.194 157.8ZM111.748 153.467C111.59 153.467 111.434 153.432 111.291 153.365C111.148 153.298 111.021 153.2 110.921 153.078C110.753 152.873 110.635 152.606 110.552 152.237C110.413 151.621 110.455 151.019 110.455 151.013V151.007C110.582 150.948 110.721 150.917 110.861 150.915H110.862C111.248 150.915 111.542 151.125 111.725 151.301C111.977 151.548 112.17 151.85 112.288 152.183C112.409 152.526 112.429 152.813 112.348 153.061C112.281 153.258 112.054 153.464 111.748 153.464V153.467ZM131.258 153.027C130.84 153.027 130.464 152.869 130.201 152.583C129.984 152.347 129.83 152.034 129.727 151.623C129.559 150.951 129.605 150.282 129.61 150.218C129.775 150.147 129.951 150.107 130.131 150.1L130.168 150.099C131.005 150.099 131.665 150.825 131.947 151.545C132.107 151.954 132.139 152.298 132.039 152.567C131.939 152.84 131.622 153.024 131.259 153.024L131.258 153.027ZM121.754 152.633C116.509 152.449 113.786 150.958 112.426 149.739C111.661 149.053 111.235 148.373 111.013 147.924C110.804 147.499 110.724 147.174 110.71 147.111L110.717 147.108C110.718 147.108 111.214 146.931 112.012 146.915L112.135 146.914C113.904 146.914 117.505 147.657 121.752 152.631V152.635L121.754 152.633ZM127.451 152.103C123.231 151.461 120.84 149.649 119.577 148.242C118.253 146.767 117.857 145.393 117.839 145.329C117.847 145.327 118.363 145.193 119.139 145.173C119.259 145.169 119.379 145.169 119.498 145.173C121.621 145.219 125.476 146.181 127.45 152.101H127.453L127.451 152.103ZM105.784 150.077C104.401 150.077 103.06 149.917 101.797 149.601C99.5869 149.049 98.6392 148.205 98.2332 147.594C98.0026 147.248 97.9189 146.944 97.8896 146.75C97.8711 146.631 97.8676 146.511 97.8792 146.392L97.8892 146.388C97.8952 146.387 99.3559 145.977 101.378 145.946C102.417 145.927 103.455 146.019 104.474 146.22C107.986 146.923 109.807 149.574 109.825 149.6L109.827 149.603L109.822 149.604C109.802 149.608 108.129 150.078 105.782 150.078L105.784 150.077ZM115.581 146.517C115.158 146.517 114.783 146.363 114.524 146.082C114.31 145.852 114.156 145.535 114.05 145.113C113.882 144.441 113.929 143.779 113.933 143.718C114.098 143.647 114.275 143.607 114.454 143.6L114.491 143.599C115.327 143.599 115.987 144.326 116.271 145.045C116.427 145.441 116.454 145.781 116.352 146.057C116.249 146.337 115.945 146.517 115.582 146.517H115.581ZM108.214 145.507C108.183 145.499 106.222 144.995 104.225 143.765C102.377 142.628 100.117 140.615 99.8409 137.489V137.487L99.8456 137.486C99.8456 137.486 100.018 137.444 100.272 137.434C100.309 137.433 100.346 137.432 100.383 137.432C100.935 137.432 102.065 137.588 103.432 138.627C105.172 139.954 106.779 142.267 108.215 145.51L108.214 145.507ZM113.024 145.33C113.012 145.325 111.614 144.766 109.868 143.302C108.241 141.938 105.953 139.482 104.296 135.526C104.297 135.525 104.677 135.323 105.258 135.286C105.291 135.284 105.326 135.283 105.36 135.283C105.41 135.283 105.462 135.285 105.514 135.286C106.318 135.309 107.542 135.643 108.899 137.107C110.458 138.79 111.849 141.554 113.034 145.324L113.037 145.335L113.027 145.332L113.024 145.33ZM100.561 144.967C98.9539 144.967 98.4039 144.095 98.2419 143.72C97.9759 143.104 98.0566 142.491 98.0572 142.485L98.0582 142.478C98.3182 142.413 98.5932 142.377 98.8576 142.373L98.9126 142.373C100.179 142.373 101.179 143.016 101.607 143.653C101.692 143.78 101.953 144.218 101.737 144.56C101.564 144.83 101.171 144.967 100.561 144.967L100.561 144.967ZM97.0009 140.477C96.1036 140.477 94.7306 140.422 93.2872 140.16C91.8559 139.899 91.0446 138.682 90.6162 137.708C90.1496 136.646 90.0182 135.633 90.0169 135.623H90.0209C94.4482 135.753 96.5392 137.046 97.5136 138.109C98.5196 139.205 98.5792 140.344 98.5822 140.416H98.5789C98.5722 140.416 97.9489 140.476 96.9989 140.476L97.0009 140.477ZM101.611 135.87C101.251 135.417 100.914 134.947 100.6 134.461C100.076 133.646 99.5906 132.796 99.5906 132.1C99.5906 131.428 99.4326 130.011 99.3382 129.226C99.2189 128.232 99.0982 127.38 99.0882 127.308L99.0926 127.309C99.2049 127.35 101.862 128.347 101.862 130.839C101.862 133.336 101.616 135.844 101.614 135.869L101.613 135.872H101.61L101.611 135.87ZM98.1676 135.633C98.1396 135.633 98.1119 135.631 98.0842 135.627C97.2989 135.496 95.9189 134.895 94.3932 134.021C92.6992 133.049 91.3232 132.009 90.5199 131.09C89.7872 130.253 89.3522 128.938 89.2266 127.182C89.1376 125.935 89.2442 124.897 89.2556 124.794C89.3929 124.748 89.5389 124.726 89.6939 124.726C90.2819 124.736 90.9096 125 91.7569 125.584C92.4169 126.039 93.1452 126.657 93.9202 127.422C95.2576 128.741 96.3096 130.066 96.3199 130.079L96.3306 130.092C96.4189 130.251 97.1762 131.616 97.7662 132.945C98.1409 133.789 98.3552 134.397 98.4409 134.86C98.4899 135.124 98.5042 135.297 98.4396 135.454C98.4126 135.519 98.3612 135.579 98.3112 135.603C98.2646 135.623 98.2179 135.633 98.1646 135.633H98.1676Z" fill="#4E5B31" />
<path d="M145.632 168.913C145.676 168.895 145.716 168.867 145.748 168.832L145.79 168.793C145.975 168.62 146.151 168.437 146.317 168.245C146.761 167.741 147.357 167.003 147.88 166.35C148.919 165.056 149.777 163.941 149.938 163.731L150.203 163.387L152.792 162.589L154.682 161.707L153.672 160.572L150.203 162.057L147.614 162.589L142.826 166.11L142.83 166.113C142.84 166.121 143.526 166.692 144.208 167.313C144.513 167.589 144.896 167.945 145.167 168.24C145.292 168.376 145.402 168.511 145.477 168.62C145.511 168.67 145.539 168.722 145.561 168.777L145.264 168.592L144.942 168.843L145.598 168.904L145.628 168.911L145.632 168.913ZM163.412 163.573C165.671 163.573 167.903 162.949 170.044 161.718L170.046 161.717L170.045 161.714C170.045 161.714 169.765 161.18 169.086 160.682C168.439 160.207 167.272 159.639 165.386 159.632H165.347C163.114 159.632 160.38 160.391 157.223 161.889C157.329 161.96 159.808 163.574 163.411 163.574L163.408 163.577L163.412 163.573ZM173.202 161.403C173.62 161.403 173.996 161.246 174.259 160.959C174.476 160.724 174.63 160.411 174.733 160C174.901 159.327 174.855 158.658 174.85 158.594C174.685 158.523 174.509 158.483 174.329 158.476L174.292 158.476C173.455 158.476 172.795 159.202 172.513 159.921C172.353 160.33 172.321 160.674 172.421 160.944C172.521 161.214 172.835 161.4 173.201 161.4L173.202 161.403ZM155.976 159.407C161.762 158.581 164.215 156.489 165.253 154.879C166.361 153.163 166.134 151.575 166.131 151.559L166.13 151.555L166.126 151.553C166.124 151.553 165.773 151.458 165.24 151.456C163.701 151.456 159.763 152.23 155.974 159.403L155.972 159.408L155.978 159.404L155.976 159.407ZM167.836 158.26C170.308 158.26 172.19 157.833 173.43 156.992C174.142 156.509 174.491 155.978 174.658 155.617C174.815 155.279 174.851 154.999 174.856 154.943C174.791 154.913 173.779 154.464 172.268 154.393C172.14 154.387 172.012 154.383 171.877 154.383C169.966 154.383 167.061 155.006 163.995 157.976L163.992 157.979H163.995C165.395 158.163 166.689 158.259 167.839 158.259L167.836 158.26ZM179.806 157.8C182.412 157.8 185.993 157.004 188.227 154.771L188.229 154.769L188.222 154.767C188.199 154.761 185.775 154.146 183.048 154.08C182.885 154.076 182.722 154.073 182.556 154.073C180.112 154.073 178.242 154.547 176.996 155.482C176.561 155.808 176.323 156.112 176.27 156.409C176.225 156.658 176.356 156.926 176.622 157.126C177.183 157.549 178.186 157.776 179.603 157.798L179.803 157.805L179.806 157.8ZM188.252 153.467C188.41 153.467 188.566 153.432 188.709 153.365C188.852 153.298 188.979 153.2 189.079 153.078C189.247 152.873 189.365 152.606 189.448 152.237C189.587 151.621 189.545 151.019 189.545 151.013V151.007C189.418 150.948 189.279 150.917 189.139 150.915H189.138C188.752 150.915 188.458 151.125 188.275 151.301C188.023 151.548 187.83 151.85 187.712 152.183C187.591 152.526 187.571 152.813 187.652 153.061C187.719 153.258 187.946 153.464 188.252 153.464V153.467ZM168.742 153.027C169.16 153.027 169.536 152.869 169.799 152.583C170.016 152.347 170.17 152.034 170.273 151.623C170.441 150.951 170.395 150.282 170.39 150.218C170.225 150.147 170.049 150.107 169.869 150.1L169.832 150.099C168.995 150.099 168.335 150.825 168.053 151.545C167.893 151.954 167.861 152.298 167.961 152.567C168.061 152.84 168.378 153.024 168.741 153.024L168.742 153.027ZM178.246 152.633C183.491 152.449 186.214 150.958 187.574 149.739C188.339 149.053 188.765 148.373 188.987 147.924C189.196 147.499 189.276 147.174 189.29 147.111L189.283 147.108C189.282 147.108 188.786 146.931 187.988 146.915L187.865 146.914C186.096 146.914 182.495 147.657 178.248 152.631V152.635L178.246 152.633ZM172.549 152.103C176.769 151.461 179.16 149.649 180.423 148.242C181.747 146.767 182.143 145.393 182.161 145.329C182.153 145.327 181.637 145.193 180.861 145.173C180.741 145.169 180.621 145.169 180.502 145.173C178.379 145.219 174.524 146.181 172.55 152.101H172.547L172.549 152.103ZM194.216 150.077C195.599 150.077 196.94 149.917 198.203 149.601C200.413 149.049 201.361 148.205 201.767 147.594C201.997 147.248 202.081 146.944 202.11 146.75C202.129 146.631 202.132 146.511 202.121 146.392L202.111 146.388C202.105 146.387 200.644 145.977 198.622 145.946C197.583 145.927 196.545 146.019 195.526 146.22C192.014 146.923 190.193 149.574 190.175 149.6L190.173 149.603L190.178 149.604C190.198 149.608 191.871 150.078 194.218 150.078L194.216 150.077ZM184.419 146.517C184.842 146.517 185.217 146.363 185.476 146.082C185.69 145.852 185.844 145.535 185.95 145.113C186.118 144.441 186.071 143.779 186.067 143.718C185.902 143.647 185.725 143.607 185.546 143.6L185.509 143.599C184.673 143.599 184.013 144.326 183.729 145.045C183.573 145.441 183.546 145.781 183.648 146.057C183.751 146.337 184.055 146.517 184.418 146.517H184.419ZM191.786 145.507C191.817 145.499 193.778 144.995 195.775 143.765C197.623 142.628 199.883 140.615 200.159 137.489V137.487L200.154 137.486C200.154 137.486 199.982 137.444 199.728 137.434C199.691 137.433 199.654 137.432 199.617 137.432C199.065 137.432 197.935 137.588 196.568 138.627C194.828 139.954 193.221 142.267 191.785 145.51L191.786 145.507ZM186.976 145.33C186.988 145.325 188.386 144.766 190.132 143.302C191.759 141.938 194.047 139.482 195.704 135.526C195.703 135.525 195.323 135.323 194.742 135.286C194.709 135.284 194.674 135.283 194.64 135.283C194.59 135.283 194.538 135.285 194.486 135.286C193.682 135.309 192.458 135.643 191.101 137.107C189.542 138.79 188.151 141.554 186.966 145.324L186.963 145.335L186.973 145.332L186.976 145.33ZM199.439 144.967C201.046 144.967 201.596 144.095 201.758 143.72C202.024 143.104 201.943 142.491 201.943 142.485L201.942 142.478C201.682 142.413 201.407 142.377 201.142 142.373L201.087 142.373C199.821 142.373 198.821 143.016 198.393 143.653C198.308 143.78 198.047 144.218 198.263 144.56C198.436 144.83 198.829 144.967 199.439 144.967L199.439 144.967ZM202.999 140.477C203.896 140.477 205.269 140.422 206.713 140.16C208.144 139.899 208.955 138.682 209.384 137.708C209.85 136.646 209.982 135.633 209.983 135.623H209.979C205.552 135.753 203.461 137.046 202.486 138.109C201.48 139.205 201.421 140.344 201.418 140.416H201.421C201.428 140.416 202.051 140.476 203.001 140.476L202.999 140.477ZM198.389 135.87C198.749 135.417 199.086 134.947 199.4 134.461C199.924 133.646 200.409 132.796 200.409 132.1C200.409 131.428 200.567 130.011 200.662 129.226C200.781 128.232 200.902 127.38 200.912 127.308L200.907 127.309C200.795 127.35 198.138 128.347 198.138 130.839C198.138 133.336 198.384 135.844 198.386 135.869L198.387 135.872H198.39L198.389 135.87ZM201.832 135.633C201.86 135.633 201.888 135.631 201.916 135.627C202.701 135.496 204.081 134.895 205.607 134.021C207.301 133.049 208.677 132.009 209.48 131.09C210.213 130.253 210.648 128.938 210.773 127.182C210.862 125.935 210.756 124.897 210.744 124.794C210.607 124.748 210.461 124.726 210.306 124.726C209.718 124.736 209.09 125 208.243 125.584C207.583 126.039 206.855 126.657 206.08 127.422C204.742 128.741 203.69 130.066 203.68 130.079L203.669 130.092C203.581 130.251 202.824 131.616 202.234 132.945C201.859 133.789 201.645 134.397 201.559 134.86C201.51 135.124 201.496 135.297 201.56 135.454C201.587 135.519 201.639 135.579 201.689 135.603C201.735 135.623 201.782 135.633 201.835 135.633H201.832Z" fill="#4E5B31" />
</svg>