<svg xmlns="http://www.w3.org/2000/svg" viewBox="0 0 300 200">
    <path d="M187.5 160C220.637 160 247.5 133.137 247.5 100C247.5 66.8629 220.637 40 187.5 40C154.363 40 127.5 66.8629 127.5 100C127.5 133.137 154.363 160 187.5 160Z" fill="white"/>
    <path d="M239.378 127.475C262.081 107.295 264.125 72.5307 243.945 49.8278C223.764 27.1249 189 25.0803 166.297 45.2609C143.594 65.4416 141.55 100.206 161.73 122.908C181.911 145.611 216.675 147.656 239.378 127.475Z" fill="#01411C"/>
    <path d="M209.377 55.1025L234.652 83.535L197.492 75.39L232.342 60.14L213.112 92.9625L209.377 55.1025Z" fill="white"/>
</svg>