<svg width="350" height="200" viewBox="0 0 350 200" fill="none"
    xmlns="http://www.w3.org/2000/svg">
    <path d="M161.3 120.9C166.307 122.522 171.721 122.362 176.623 120.447C181.525 118.533 185.614 114.981 188.196 110.394C190.778 105.808 191.693 100.469 190.787 95.2848C189.881 90.1002 187.209 85.3888 183.225 81.95C185.818 85.7953 187.291 90.2863 187.478 94.9206C187.665 99.555 186.559 104.15 184.284 108.192C182.009 112.234 178.654 115.563 174.595 117.807C170.536 120.051 165.933 121.122 161.3 120.9Z" fill="#DA0000"/>
    <path d="M190.45 116.525C193.73 114.618 196.368 111.777 198.027 108.365C199.686 104.953 200.292 101.124 199.766 97.3665C199.24 93.6089 197.607 90.093 195.076 87.2672C192.544 84.4414 189.228 82.4336 185.55 81.5C188.172 83.4775 190.379 85.9522 192.045 88.7829C193.71 91.6135 194.802 94.7446 195.257 97.9973C195.712 101.25 195.522 104.56 194.697 107.739C193.872 110.919 192.429 113.904 190.45 116.525ZM175 125L173.75 100L175 80.325C175.759 81.3851 176.774 82.2364 177.95 82.8V97.5L176.95 122.325L175 125ZM174.5 78.75L175 79.225C175.499 79.9728 176.259 80.5071 177.131 80.7228C178.004 80.9386 178.925 80.8202 179.715 80.3909C180.504 79.9616 181.105 79.2526 181.398 78.4031C181.692 77.5535 181.657 76.625 181.3 75.8C181.175 76.4869 180.842 77.1187 180.346 77.6096C179.85 78.1006 179.215 78.427 178.527 78.5444C177.838 78.6618 177.131 78.5646 176.5 78.2659C175.869 77.9673 175.345 77.4817 175 76.875" fill="#DA0000"/>
    <path d="M188.7 120.9C183.693 122.522 178.279 122.362 173.377 120.447C168.475 118.533 164.386 114.981 161.804 110.394C159.222 105.808 158.307 100.469 159.213 95.2848C160.119 90.1002 162.791 85.3888 166.775 81.95C164.182 85.7953 162.709 90.2863 162.522 94.9206C162.335 99.555 163.441 104.15 165.716 108.192C167.991 112.234 171.346 115.563 175.405 117.807C179.464 120.051 184.067 121.122 188.7 120.9Z" fill="#DA0000"/>
    <path d="M159.55 116.525C156.27 114.618 153.632 111.777 151.973 108.365C150.314 104.953 149.708 101.124 150.234 97.3665C150.76 93.6089 152.393 90.093 154.924 87.2672C157.456 84.4414 160.772 82.4336 164.45 81.5C161.828 83.4775 159.621 85.9522 157.955 88.7829C156.29 91.6135 155.198 94.7446 154.743 97.9973C154.288 101.25 154.478 104.56 155.303 107.739C156.128 110.919 157.571 113.904 159.55 116.525ZM175 125L176.25 100L175 80.325C174.241 81.3851 173.226 82.2364 172.05 82.8V97.5L173.05 122.325L175 125ZM175.5 78.75L175 79.225C174.501 79.9728 173.741 80.5071 172.869 80.7228C171.996 80.9386 171.075 80.8202 170.285 80.3909C169.496 79.9616 168.895 79.2526 168.602 78.4031C168.308 77.5535 168.343 76.625 168.7 75.8C168.825 76.4869 169.158 77.1187 169.654 77.6096C170.15 78.1006 170.785 78.427 171.473 78.5444C172.162 78.6618 172.869 78.5646 173.5 78.2659C174.131 77.9673 174.655 77.4817 175 76.875" fill="#DA0000"/>
</svg>
