<svg xmlns="http://www.w3.org/2000/svg" width="350" height="200" viewBox="0 0 350 200" fill="none">
    <g clip-path="url(#clip0_62_756)">

        <path d="M4.66699 56.5556H24.8892M5.44477 63.5556V59.6667H11.667V62.7778H17.8892V59.6667H14.0003M7.7781 62.7778H9.33366M24.8892 62.7778H21.0003V59.6667H27.2225M27.2225 55.7778V62.7778H33.4448V55.7778M30.3337 55.7778V62.7778" stroke="white" stroke-width="0.9333333333333332" />
        <path d="M4.66699 66.6667H18.667M20.2225 66.6667H34.2225" stroke="white" stroke-width="1.8666666666666665" />
        <path d="M4.66699 133.333H18.667M20.2225 133.333H34.2225" stroke="white" stroke-width="1.8666666666666665" />
        <path d="M4.66699 137.222H24.8892M5.44477 144.222V140.333H11.667V143.445H17.8892V140.333H14.0003M7.7781 143.445H9.33366M24.8892 143.445H21.0003V140.333H27.2225M27.2225 136.445V143.445H33.4448V136.445M30.3337 136.445V143.445" stroke="white" stroke-width="0.9333333333333332" />
        <path d="M35.7783 56.5556H56.0005M36.5561 63.5556V59.6667H42.7783V62.7778H49.0005V59.6667H45.1117M38.8894 62.7778H40.445M56.0005 62.7778H52.1117V59.6667H58.3339M58.3339 55.7778V62.7778H64.5561V55.7778M61.445 55.7778V62.7778" stroke="white" stroke-width="0.9333333333333332" />
        <path d="M35.7783 66.6667H49.7783M51.3339 66.6667H65.3339" stroke="white" stroke-width="1.8666666666666665" />
        <path d="M35.7783 133.333H49.7783M51.3339 133.333H65.3339" stroke="white" stroke-width="1.8666666666666665" />
        <path d="M35.7783 137.222H56.0005M36.5561 144.222V140.333H42.7783V143.445H49.0005V140.333H45.1117M38.8894 143.445H40.445M56.0005 143.445H52.1117V140.333H58.3339M58.3339 136.445V143.445H64.5561V136.445M61.445 136.445V143.445" stroke="white" stroke-width="0.9333333333333332" />
        <path d="M66.8896 56.5556H87.1119M67.6674 63.5556V59.6667H73.8896V62.7778H80.1119V59.6667H76.223M70.0008 62.7778H71.5563M87.1119 62.7778H83.223V59.6667H89.4452M89.4452 55.7778V62.7778H95.6674V55.7778M92.5563 55.7778V62.7778" stroke="white" stroke-width="0.9333333333333332" />
        <path d="M66.8896 66.6667H80.8896M82.4452 66.6667H96.4452" stroke="white" stroke-width="1.8666666666666665" />
        <path d="M66.8896 133.333H80.8896M82.4452 133.333H96.4452" stroke="white" stroke-width="1.8666666666666665" />
        <path d="M66.8896 137.222H87.1119M67.6674 144.222V140.333H73.8896V143.445H80.1119V140.333H76.223M70.0008 143.445H71.5563M87.1119 143.445H83.223V140.333H89.4452M89.4452 136.445V143.445H95.6674V136.445M92.5563 136.445V143.445" stroke="white" stroke-width="0.9333333333333332" />
        <path d="M98.001 56.5556H118.223M98.7788 63.5556V59.6667H105.001V62.7778H111.223V59.6667H107.334M101.112 62.7778H102.668M118.223 62.7778H114.334V59.6667H120.557M120.557 55.7778V62.7778H126.779V55.7778M123.668 55.7778V62.7778" stroke="white" stroke-width="0.9333333333333332" />
        <path d="M98.001 66.6667H112.001M113.557 66.6667H127.557" stroke="white" stroke-width="1.8666666666666665" />
        <path d="M98.001 133.333H112.001M113.557 133.333H127.557" stroke="white" stroke-width="1.8666666666666665" />
        <path d="M98.001 137.222H118.223M98.7788 144.222V140.333H105.001V143.445H111.223V140.333H107.334M101.112 143.445H102.668M118.223 143.445H114.334V140.333H120.557M120.557 136.445V143.445H126.779V136.445M123.668 136.445V143.445" stroke="white" stroke-width="0.9333333333333332" />
        <path d="M129.111 56.5556H149.334M129.889 63.5556V59.6667H136.111V62.7778H142.334V59.6667H138.445M132.222 62.7778H133.778M149.334 62.7778H145.445V59.6667H151.667M151.667 55.7778V62.7778H157.889V55.7778M154.778 55.7778V62.7778" stroke="white" stroke-width="0.9333333333333332" />
        <path d="M129.111 66.6667H143.111M144.667 66.6667H158.667" stroke="white" stroke-width="1.8666666666666665" />
        <path d="M129.111 133.333H143.111M144.667 133.333H158.667" stroke="white" stroke-width="1.8666666666666665" />
        <path d="M129.111 137.222H149.334M129.889 144.222V140.333H136.111V143.445H142.334V140.333H138.445M132.222 143.445H133.778M149.334 143.445H145.445V140.333H151.667M151.667 136.445V143.445H157.889V136.445M154.778 136.445V143.445" stroke="white" stroke-width="0.9333333333333332" />
        <path d="M160.223 56.5556H180.445M161 63.5556V59.6667H167.223V62.7778H173.445V59.6667H169.556M163.334 62.7778H164.889M180.445 62.7778H176.556V59.6667H182.778M182.778 55.7778V62.7778H189V55.7778M185.889 55.7778V62.7778" stroke="white" stroke-width="0.9333333333333332" />
        <path d="M160.223 66.6667H174.223M175.778 66.6667H189.778" stroke="white" stroke-width="1.8666666666666665" />
        <path d="M160.223 133.333H174.223M175.778 133.333H189.778" stroke="white" stroke-width="1.8666666666666665" />
        <path d="M160.223 137.222H180.445M161 144.222V140.333H167.223V143.445H173.445V140.333H169.556M163.334 143.445H164.889M180.445 143.445H176.556V140.333H182.778M182.778 136.445V143.445H189V136.445M185.889 136.445V143.445" stroke="white" stroke-width="0.9333333333333332" />
        <path d="M191.334 56.5556H211.556M192.112 63.5556V59.6667H198.334V62.7778H204.556V59.6667H200.667M194.445 62.7778H196.001M211.556 62.7778H207.667V59.6667H213.89M213.89 55.7778V62.7778H220.112V55.7778M217.001 55.7778V62.7778" stroke="white" stroke-width="0.9333333333333332" />
        <path d="M191.334 66.6667H205.334M206.89 66.6667H220.89" stroke="white" stroke-width="1.8666666666666665" />
        <path d="M191.334 133.333H205.334M206.89 133.333H220.89" stroke="white" stroke-width="1.8666666666666665" />
        <path d="M191.334 137.222H211.556M192.112 144.222V140.333H198.334V143.445H204.556V140.333H200.667M194.445 143.445H196.001M211.556 143.445H207.667V140.333H213.89M213.89 136.445V143.445H220.112V136.445M217.001 136.445V143.445" stroke="white" stroke-width="0.9333333333333332" />
        <path d="M222.444 56.5556H242.667M223.222 63.5556V59.6667H229.444V62.7778H235.667V59.6667H231.778M225.555 62.7778H227.111M242.667 62.7778H238.778V59.6667H245M245 55.7778V62.7778H251.222V55.7778M248.111 55.7778V62.7778" stroke="white" stroke-width="0.9333333333333332" />
        <path d="M222.444 66.6667H236.444M238 66.6667H252" stroke="white" stroke-width="1.8666666666666665" />
        <path d="M222.444 133.333H236.444M238 133.333H252" stroke="white" stroke-width="1.8666666666666665" />
        <path d="M222.444 137.222H242.667M223.222 144.222V140.333H229.444V143.445H235.667V140.333H231.778M225.555 143.445H227.111M242.667 143.445H238.778V140.333H245M245 136.445V143.445H251.222V136.445M248.111 136.445V143.445" stroke="white" stroke-width="0.9333333333333332" />
        <path d="M253.556 56.5556H273.778M254.333 63.5556V59.6667H260.556V62.7778H266.778V59.6667H262.889M256.667 62.7778H258.222M273.778 62.7778H269.889V59.6667H276.111M276.111 55.7778V62.7778H282.333V55.7778M279.222 55.7778V62.7778" stroke="white" stroke-width="0.9333333333333332" />
        <path d="M253.556 66.6667H267.556M269.111 66.6667H283.111" stroke="white" stroke-width="1.8666666666666665" />
        <path d="M253.556 133.333H267.556M269.111 133.333H283.111" stroke="white" stroke-width="1.8666666666666665" />
        <path d="M253.556 137.222H273.778M254.333 144.222V140.333H260.556V143.445H266.778V140.333H262.889M256.667 143.445H258.222M273.778 143.445H269.889V140.333H276.111M276.111 136.445V143.445H282.333V136.445M279.222 136.445V143.445" stroke="white" stroke-width="0.9333333333333332" />
        <path d="M284.667 56.5556H304.889M285.445 63.5556V59.6667H291.667V62.7778H297.889V59.6667H294M287.778 62.7778H289.334M304.889 62.7778H301V59.6667H307.223M307.223 55.7778V62.7778H313.445V55.7778M310.334 55.7778V62.7778" stroke="white" stroke-width="0.9333333333333332" />
        <path d="M284.667 66.6667H298.667M300.223 66.6667H314.223" stroke="white" stroke-width="1.8666666666666665" />
        <path d="M284.667 133.333H298.667M300.223 133.333H314.223" stroke="white" stroke-width="1.8666666666666665" />
        <path d="M284.667 137.222H304.889M285.445 144.222V140.333H291.667V143.445H297.889V140.333H294M287.778 143.445H289.334M304.889 143.445H301V140.333H307.223M307.223 136.445V143.445H313.445V136.445M310.334 136.445V143.445" stroke="white" stroke-width="0.9333333333333332" />
        <path d="M315.778 56.5556H336.001M316.556 63.5556V59.6667H322.778V62.7778H329.001V59.6667H325.112M318.889 62.7778H320.445M336.001 62.7778H332.112V59.6667H338.334M338.334 55.7778V62.7778H344.556V55.7778M341.445 55.7778V62.7778" stroke="white" stroke-width="0.9333333333333332" />
        <path d="M315.778 66.6667H329.778M331.334 66.6667H345.334" stroke="white" stroke-width="1.8666666666666665" />
        <path d="M315.778 133.333H329.778M331.334 133.333H345.334" stroke="white" stroke-width="1.8666666666666665" />
        <path d="M315.778 137.222H336.001M316.556 144.222V140.333H322.778V143.445H329.001V140.333H325.112M318.889 143.445H320.445M336.001 143.445H332.112V140.333H338.334M338.334 136.445V143.445H344.556V136.445M341.445 136.445V143.445" stroke="white" stroke-width="0.9333333333333332" />
    </g>
    <defs>
        <clipPath id="clip0_62_756">
            <rect width="350" height="200" fill="white" />
        </clipPath>
    </defs>
</svg>