<svg width="400" height="200" viewBox="0 0 400 200" fill="none"
    xmlns="http://www.w3.org/2000/svg">
    <g clip-path="url(#clip0_5_6762)">

        <path d="M362.033 155.353C362.033 155.353 364.299 159.967 366.803 161.847C370.512 164.632 378.118 164.431 381.346 167.68C385.214 171.512 381.046 176.574 381.081 177.013L381.293 179.687C381.293 179.687 378.685 179.718 377.586 179.89C375.935 180.147 375.291 181.491 372.217 181.291C364.487 180.789 364.799 173.825 364.361 167.874C363.973 165.608 363.075 162.654 362.565 160.388C362.127 158.446 362.033 155.353 362.033 155.353Z" fill="#FFBE29" stroke="black" stroke-width="2.126"/>
        <path d="M166.3 155.353C166.3 155.353 164.034 159.967 161.53 161.847C157.821 164.632 150.215 164.431 146.987 167.68C143.119 171.512 147.287 176.574 147.252 177.013L147.04 179.687C147.04 179.687 149.648 179.718 150.747 179.89C152.398 180.147 153.042 181.491 156.116 181.291C163.846 180.789 163.534 173.825 163.972 167.874C164.36 165.608 165.258 162.654 165.768 160.388C166.206 158.446 166.3 155.353 166.3 155.353Z" fill="#FFBE29" stroke="black" stroke-width="2.126"/>
        <path d="M362.033 44.6467C362.033 44.6467 364.299 40.0331 366.803 38.1534C370.512 35.3681 378.118 35.5694 381.346 32.3201C385.214 28.4884 381.046 23.4261 381.081 22.9867L381.293 20.3134C381.293 20.3134 378.685 20.2817 377.586 20.1104C375.935 19.8531 375.291 18.5094 372.217 18.7091C364.487 19.2107 364.799 26.1747 364.361 32.1257C363.973 34.3917 363.075 37.3464 362.565 39.6117C362.127 41.5544 362.033 44.6467 362.033 44.6467Z" fill="#FFBE29" stroke="black" stroke-width="2.126"/>
        <path d="M166.3 44.6467C166.3 44.6467 164.034 40.0331 161.53 38.1534C157.821 35.3681 150.215 35.5694 146.987 32.3201C143.119 28.4884 147.287 23.4261 147.252 22.9867L147.04 20.3134C147.04 20.3134 149.648 20.2817 150.747 20.1104C152.398 19.8531 153.042 18.5094 156.116 18.7091C163.846 19.2107 163.534 26.1747 163.972 32.1257C164.36 34.3917 165.258 37.3464 165.768 39.6117C166.206 41.5544 166.3 44.6467 166.3 44.6467Z" fill="#FFBE29" stroke="black" stroke-width="2.126"/>
        <path d="M227.179 159.853L228.633 159.014L229.254 159.855C230.082 160.975 232.374 160.962 233.894 159.829L235.057 158.963L236.031 159.829C237.311 160.968 239.701 160.97 241.228 159.833C242.296 159.037 242.445 159.021 243.152 159.627C243.573 159.988 244.809 160.399 245.898 160.54C247.858 160.795 247.888 160.781 249.035 159.059C249.996 157.618 250.147 157.034 249.917 155.636C249.765 154.71 249.602 153.218 249.553 152.321C249.467 150.698 249.476 150.688 251.84 149.865C253.146 149.41 254.657 148.8 255.199 148.51C256.143 148.003 258.746 144.943 258.746 144.34C258.746 144.18 257.73 143.936 256.486 143.796C251.542 143.242 250.705 140.587 253.919 135.655C259.161 127.613 262.324 119.78 262.345 114.791C262.355 112.561 262.482 111.812 262.768 112.297C263.939 114.279 261.841 122.589 258.663 128.557L257.383 130.96L258.604 130.679C259.276 130.524 263.224 128.858 267.379 126.976C278.751 121.826 282.657 120.817 290.016 121.127C296.182 121.387 298.808 122.591 303.161 127.157C305.467 129.576 307.689 131.307 311.753 133.85C320.411 139.27 320.772 139.739 321.184 146.113C321.601 152.57 321.393 152.921 316.509 154C312.334 154.922 309.717 156.868 309.015 159.572C308.64 161.016 309.429 161.058 311.534 159.705L313.076 158.714L313.762 159.705C314.664 161.008 316.581 161.014 318.172 159.717L319.374 158.737L320.603 159.717C322.513 161.239 325.052 160.87 325.769 158.966C325.907 158.6 326.275 158.718 327.019 159.365C328.414 160.577 331.99 161.097 332.376 160.144C332.524 159.78 332.244 158.882 331.754 158.148C329.674 155.028 329.023 153.54 328.996 151.842C328.958 149.479 329.663 148.34 332.349 146.419C335.613 144.085 336.621 141.075 334.14 141.075C332.607 141.075 331.062 139.72 330.077 137.513C328.075 133.026 328.467 127.995 331.473 119.627C334.526 111.127 334.864 109.56 334.876 103.875C334.886 99.2783 334.771 98.4836 333.725 95.9636C333.085 94.4226 331.788 92.1286 330.842 90.8656L329.121 88.5689L331.33 86.7389C338.075 81.1509 336.695 72.0059 328.576 68.4823C326.092 67.4046 325.471 67.3093 321.119 67.3386C318.507 67.3563 314.525 67.6996 312.27 68.1019C309.97 68.5126 306.078 68.8423 303.408 68.8533C299.167 68.8699 298.447 68.7656 296.812 67.8956C295.108 66.9883 294.815 66.5576 294.482 64.4606C294.413 64.0296 294.112 63.5996 293.812 63.5049C293.232 63.3223 290.555 65.6459 290.159 66.6749C289.964 67.1829 289.805 67.1476 289.232 66.4706C288.852 66.0209 288.321 64.9876 288.052 64.1746C287.377 62.1293 288.207 60.5963 290.611 59.4476L292.476 58.5563L291.376 57.8736C289.106 56.4653 285.247 57.4289 283.852 59.7519C283.457 60.4093 283.026 60.9479 282.895 60.9496C282.763 60.9506 282.013 60.3239 281.227 59.5563C278.297 56.6929 279.305 52.4573 283.224 51.1639C285.314 50.4743 287.164 51.0006 287.548 52.3939C288.136 54.5216 289.962 51.7249 289.635 49.1993C289.417 47.5203 289.449 47.4619 290.611 47.4619C292.227 47.4619 295.666 49.5826 296.73 51.2353C297.965 53.1539 297.876 56.1759 296.516 58.4286L295.448 60.1969L296.845 59.9169C298.893 59.5069 300.882 58.2353 301.888 56.6933C302.953 55.0626 303.067 51.8879 302.123 50.1749C301.209 48.5146 301.314 48.2509 302.666 48.8119C304.965 49.7663 306.194 50.8186 307.116 52.6223C307.946 54.2466 307.992 54.6503 307.543 56.3409C307.265 57.3843 306.648 58.7563 306.172 59.3906C305.429 60.3779 305.404 60.5436 305.995 60.5436C307.097 60.5436 309.397 59.5009 310.215 58.6313C310.627 58.1916 311.229 57.1099 311.552 56.2269L312.139 54.6216L312.813 55.8449C313.767 57.5756 315.621 59.1326 317.881 60.1016C320.312 61.1439 321.325 61.2026 320.053 60.2279C319.196 59.5703 317.617 54.9353 318.095 54.4819C318.377 54.2153 321.677 56.7546 325.446 60.1379C329.011 63.3379 331.251 64.3866 334.525 64.3866C338.708 64.3866 341.143 60.7456 339.263 57.3029C338.167 55.2956 335.726 55.0169 334.298 56.7359C333.641 57.5263 333.461 58.1549 333.654 58.9843C333.889 59.9999 333.797 60.1353 332.872 60.1353C331.656 60.1353 329.26 58.5796 325.003 55.0283C318.513 49.6123 310.627 45.0216 304.932 43.3449C301.278 42.2686 293.471 41.8486 289.756 42.5283C285.735 43.2639 280.98 45.5649 278.389 48.0283C273.798 52.3926 273.725 58.2006 278.195 63.4896L279.475 65.0049L278.609 66.3513C277.348 68.3103 277.456 70.9463 278.877 72.8879C279.502 73.7433 280.133 74.4426 280.279 74.4419C280.425 74.4419 280.585 73.8919 280.634 73.2203C280.76 71.5213 281.489 70.3833 282.741 69.9326C283.868 69.5266 284.596 69.7183 289.757 71.7783C295.187 73.9456 304.117 74.0946 313.611 72.1763C318.266 71.2359 323.755 71.2913 326.169 72.3029C330.596 74.1573 331.622 78.9816 328.368 82.6436C326.959 84.2289 325.601 84.8743 321.04 86.1263C317.569 87.0786 316.747 87.1419 308.859 87.0629C302.12 86.9959 299.698 87.1253 296.947 87.6996C293.96 88.3229 292.123 88.3863 283.35 88.1649L273.207 87.9093L274.331 88.8409C274.95 89.3533 275.824 89.9833 276.274 90.2416C277.039 90.6806 277.013 90.7396 275.876 91.1616C275.208 91.4089 273.724 91.6116 272.58 91.6116H270.499L270.219 93.3803C270.065 94.3533 270.076 95.4889 270.245 95.9039C270.493 96.5166 270.4 96.6046 269.755 96.3699C269.317 96.2109 268.098 95.8979 267.046 95.6746C265.994 95.4513 264.577 94.9966 263.899 94.6643C262.757 94.1053 262.63 94.1203 262.21 94.8643C261.834 95.5289 258.309 98.1523 257.792 98.1523C257.708 98.1523 257.6 97.6466 257.552 97.0283C257.504 96.4099 256.995 94.8003 256.422 93.4513C255.849 92.1023 255.25 90.6306 255.092 90.1809C254.853 89.5026 254.745 89.4676 254.456 89.9766C254.265 90.3139 253.986 91.2333 253.837 92.0206C253.687 92.8073 253.156 94.0856 252.656 94.8613L251.748 96.2713L251.169 95.0656C250.547 93.7713 249.515 92.4289 249.142 92.4289C249.016 92.4289 248.801 92.8433 248.664 93.3489C248.379 94.4056 245.932 97.3346 245.334 97.3346C245.114 97.3346 244.934 96.5069 244.934 95.4953C244.934 94.4836 244.74 93.6556 244.502 93.6556C244.265 93.6556 244.071 93.9173 244.071 94.2373C244.071 95.0153 241.981 97.3346 241.28 97.3346C240.974 97.3346 240.482 97.6106 240.186 97.9479C239.415 98.8273 238.785 98.7039 239.109 97.7369C239.261 97.2836 239.162 96.2263 238.889 95.3866L238.245 93.4006C238.142 93.0826 237.393 93.1673 235.808 93.6753C233.246 94.4966 232.388 94.3513 233.705 93.3193C234.187 92.9423 234.919 91.6356 235.333 90.4159C235.747 89.1959 236.357 88.1139 236.69 88.0109C237.155 87.8666 237.13 88.0449 236.582 88.7866C236.19 89.3163 235.868 90.0306 235.867 90.3739C235.867 90.7173 235.57 91.5316 235.212 92.1833C234.853 92.8353 234.627 93.4329 234.71 93.5116C234.794 93.5903 235.768 93.2199 236.876 92.6889L238.891 91.7229L238.899 92.5869C238.904 93.0623 239.147 94.3163 239.439 95.3736L239.97 97.2956L241.341 96.6653C242.743 96.0209 244.071 93.7246 244.071 91.9439C244.071 91.0639 244.575 91.1989 244.781 92.1343C244.842 92.4089 245.158 93.4393 245.485 94.4243L246.078 96.2146L247.017 95.0843C247.533 94.4623 248.181 93.2426 248.455 92.3739C248.933 90.8653 249.682 90.2169 249.682 91.3123C249.682 92.1016 251.836 94.9326 252.252 94.6893C252.452 94.5716 252.852 93.5093 253.14 92.3283C253.739 89.8719 254.705 88.2016 255.319 88.5609C255.55 88.6959 255.64 88.9583 255.519 89.1436C255.398 89.3289 255.894 90.9259 256.621 92.6923C257.349 94.4586 258.079 96.2369 258.245 96.6443C258.51 97.2986 258.75 97.2036 260.309 95.8266C261.28 94.9699 262.161 94.0106 262.267 93.6949C262.427 93.2179 262.643 93.2353 263.551 93.7983C264.82 94.5859 269.086 95.8546 269.415 95.5426C269.538 95.4256 269.665 94.3053 269.696 93.0526L269.753 90.7753L270.98 91.0299C271.655 91.1699 273.073 91.1609 274.133 91.0106L276.059 90.7373L274.342 89.5596C273.398 88.9119 272.444 88.0736 272.221 87.6969C271.984 87.2956 271.144 86.9549 270.192 86.8739C267.62 86.6556 263.063 84.0993 263.063 82.8753C263.063 82.6456 263.694 83.0363 264.465 83.7436C266.177 85.3123 268.555 86.2969 270.632 86.2969H272.186L271.224 85.0186C270.672 84.2839 270.177 82.8906 270.061 81.7446C269.875 79.9176 269.682 79.6269 267.775 78.3009C266.629 77.5043 265.209 76.3103 264.621 75.6476L263.55 74.4426L263.004 75.8733C262.703 76.6599 262.336 77.3039 262.188 77.3039C262.039 77.3039 261.462 76.8439 260.904 76.2819C260.347 75.7199 259.779 75.2619 259.642 75.2646C259.505 75.2669 259.011 76.0246 258.544 76.9469L257.695 78.6249L257.039 77.6579C256.678 77.1259 255.826 76.1846 255.145 75.5666C254.464 74.9486 254.106 74.4423 254.349 74.4423C254.592 74.4423 255.433 75.0866 256.217 75.8736L257.642 77.3049L258.222 76.2563C258.567 75.6339 258.696 74.6783 258.54 73.9053C258.312 72.7786 258.344 72.7133 258.776 73.4203C259.051 73.8703 259.885 74.7323 260.63 75.3363L261.983 76.4343L262.918 74.7229C263.848 73.0196 263.854 73.0163 264.277 74.0336C264.843 75.3936 268.937 78.7499 272.423 80.7109C272.96 81.0133 272.734 79.9739 271.741 77.5843C271.479 76.9509 271.264 75.8099 271.264 75.0483C271.264 73.9183 270.938 73.4153 269.492 72.3156C267.406 70.7279 266.731 69.5989 266.338 67.0373C266.179 65.9996 265.814 64.8456 265.527 64.4726C265.101 63.9193 265.03 64.2293 265.144 66.1549C265.221 67.4529 265.052 69.0669 264.769 69.7413L264.254 70.9679L263.856 69.9456C263.638 69.3836 262.67 68.4059 261.705 67.7736C260.741 67.1409 260.064 66.5169 260.201 66.3869C260.338 66.2573 261.33 66.8336 262.406 67.6683C264.044 68.9396 264.405 69.0773 264.632 68.5173C264.898 67.8596 264.632 64.9966 264.116 62.9963C263.86 61.9976 263.882 62.0029 265.114 63.2349C266.023 64.1436 266.526 65.2276 266.915 67.1183C267.41 69.5206 267.659 69.9206 269.88 71.8709C271.214 73.0423 272.375 73.9346 272.46 73.8543C272.545 73.7743 272.713 70.7443 272.834 67.1213C273.066 60.1746 272.804 58.5213 271.131 56.3749L270.271 55.2723L271.623 53.8146C273.385 51.9129 274.195 50.3889 274.546 48.3096L274.832 46.6179L273.307 48.0623C272.058 49.2449 271.461 49.5066 270.015 49.5066C268.583 49.5066 268.023 49.2666 267.058 48.2383C265.9 47.0043 263.848 45.8169 261.875 45.2393C261.146 45.0259 260.904 45.1186 260.904 45.6119C260.904 45.9733 260.502 47.0163 260.009 47.9296L259.115 49.5906L257.24 47.7379C256.09 46.6013 254.726 45.7166 253.71 45.4496C251.117 44.7676 250.976 44.8353 250.976 46.7676C250.976 49.6986 249.725 50.2446 247.473 48.2966C245.756 46.8116 244.332 46.4886 241.076 46.8466L238.561 47.1229L239.014 48.2579C239.392 49.2063 239.306 49.6056 238.497 50.6823C237.184 52.4289 235.476 53.1856 232.847 53.1856C231.637 53.1856 230.122 53.4363 229.481 53.7423C228.84 54.0486 227.247 54.4013 225.941 54.5263C224.635 54.6513 223.244 54.8743 222.848 55.0219C222.23 55.2529 222.162 55.0626 222.361 53.6559C222.666 51.5033 221.162 49.9153 218.819 49.9153C215.778 49.9153 214.376 52.6349 215.567 56.2226C215.796 56.9129 216.096 58.0019 216.233 58.6423C216.376 59.3066 217.745 61.0699 219.423 62.7483C221.039 64.3663 222.568 66.0496 222.819 66.4893C223.07 66.9293 223.899 67.6346 224.662 68.0573L226.048 68.8259L225.866 67.3419C225.665 65.7109 226.02 65.4553 226.888 66.6059C227.198 67.0176 227.986 67.6826 228.639 68.0839C229.667 68.7159 229.826 68.7289 229.826 68.1799C229.826 67.8316 230.036 67.0286 230.292 66.3956L230.758 65.2449L231.566 66.8106C232.01 67.6716 233.456 69.6289 234.779 71.1599C237.345 74.1306 238.909 77.4499 238.102 78.2143C237.774 78.5243 236.89 78.5003 235.056 78.1316C233.634 77.8459 231.876 77.6949 231.148 77.7959C229.663 78.0026 229.546 77.8106 230.459 76.6666C231.424 75.4589 231.27 75.2599 229.376 75.2599C227.184 75.2599 221.742 74.2093 219.653 73.3826C217.622 72.5789 217.153 72.7793 216.556 74.7056C216.286 75.5723 215.794 77.1436 215.461 78.1969L214.855 80.1116L217.053 79.8999C218.261 79.7836 219.816 79.5189 220.507 79.3119C221.199 79.1049 221.827 78.9949 221.904 79.0673C221.981 79.1399 221.672 79.8883 221.219 80.7299L220.395 82.2609L221.765 81.9816C222.519 81.8279 223.652 81.4519 224.285 81.1463C225.385 80.6143 225.473 80.6529 226.34 82.0453C227.407 83.7579 228.261 83.6876 228.45 81.8713C228.646 79.9939 229.264 80.2713 230.425 82.7596C231.542 85.1519 232.705 85.9966 232.928 84.5783C233.002 84.1076 233.604 83.3409 234.265 82.8749C235.603 81.9326 236.612 82.2153 237.19 83.6949C237.788 85.2269 236.453 86.8059 232.572 89.1589C224.796 93.8723 220.277 100.319 218.986 108.535C217.822 115.946 221.457 123.604 228.75 129.104C232.239 131.736 237.783 134.514 237.431 133.454C235.935 128.953 235.984 120.363 237.514 118.914C237.744 118.697 237.665 119.593 237.338 120.906C236.123 125.797 236.651 129.694 239.766 138.827C242.583 147.088 242.193 150.618 238.206 152.952C236.926 153.701 236.101 153.825 232.658 153.783C228.923 153.737 228.516 153.813 227.316 154.768C226.154 155.695 224.646 158.737 224.646 160.157C224.646 160.926 225.5 160.824 227.178 159.855L227.179 159.853Z" fill="#FFBE29" stroke="black" stroke-width="5.56"/>
        <path d="M287.816 159.687L289.383 158.68L290.447 159.687C291.84 161.006 293.472 160.977 294.811 159.608C295.396 159.01 295.921 158.597 295.978 158.688C296.035 158.779 296.296 159.222 296.557 159.672C296.888 160.241 297.569 160.527 298.798 160.614C300.278 160.718 300.676 160.575 301.264 159.725L301.966 158.711L303.508 159.703C307.731 162.417 309.981 159.569 308.094 153.899C307.134 151.016 307.662 149.395 310.755 145.725C312.059 144.178 313.128 142.526 313.129 142.055C313.129 141.304 312.888 141.203 311.152 141.237C309.491 141.271 309.005 141.092 308.13 140.13C306.708 138.564 306.793 136.771 308.382 134.782L309.652 133.192L307.399 131.663C306.16 130.822 303.925 128.832 302.433 127.241C299.082 123.668 295.786 121.974 291.441 121.59L288.528 121.332L288.532 123.537C288.538 126.376 289.87 129.107 293.507 133.733C297.642 138.993 297.93 139.807 298.098 146.682L298.24 152.496L297.043 153.631C295.962 154.657 295.474 154.788 291.985 154.989C288.664 155.181 287.966 155.352 286.991 156.216C285.697 157.362 285.31 157.986 284.91 159.57C284.677 160.493 284.772 160.694 285.438 160.694C285.884 160.694 286.954 160.241 287.816 159.687H287.816ZM198.94 144.66C199.309 144.16 199.612 143.353 199.612 142.867C199.612 142.132 199.94 141.936 201.555 141.706L203.499 141.43L202.203 140.397C200.663 139.17 200.52 138.211 201.878 138.209C203.23 138.209 205.519 136.805 205.868 135.766C206.029 135.283 205.928 134.638 205.637 134.307C204.879 133.442 203.454 133.573 203.19 134.531C202.905 135.561 202.429 135.564 201.349 134.541C199.725 133.003 199.688 129.818 201.274 127.964C202.021 127.09 202.014 127.033 201.062 126.131C200.037 125.16 199.305 123.239 199.786 122.783C199.94 122.638 200.749 122.753 201.586 123.04C202.774 123.447 203.243 123.453 203.733 123.068C205.216 121.902 203.609 120.403 201.231 120.734C200.273 120.867 199.878 120.734 199.741 120.237C199.637 119.861 198.799 119.369 197.856 119.131C196.17 118.705 196.158 118.71 196.158 119.871C196.158 121.144 195.432 121.384 194.052 120.568C192.93 119.904 191.842 120.419 191.842 121.614C191.842 122.728 192.963 123.278 194.972 123.148C196.512 123.049 196.569 124.195 195.106 125.842L194.054 127.026L194.887 128.223C196.122 129.997 196.018 132.943 194.669 134.406L193.612 135.552L192.918 134.633C191.954 133.355 190.636 133.44 190.274 134.805C190.038 135.698 190.233 136.106 191.352 137.053C192.104 137.689 193.201 138.21 193.791 138.21C195.251 138.21 195.194 139.357 193.676 140.517L192.49 141.424L194.324 141.709C195.333 141.865 196.158 142.16 196.158 142.363C196.158 143.143 197.43 145.568 197.838 145.568C198.075 145.568 198.57 145.159 198.94 144.659V144.66Z" fill="#FFBE29" stroke="black" stroke-width="5.56"/>
        <path d="M222.827 134.307C224.493 133.65 228.1 130.595 228.1 129.841C228.1 129.603 227.105 128.508 225.888 127.407C223.327 125.09 220.541 121.188 219.82 118.907C219.443 117.717 217.625 115.681 212.503 110.713L205.687 104.103L203.722 104.6C202.642 104.874 201.324 105.104 200.793 105.113C199.878 105.126 199.895 105.179 201.111 106.12L202.394 107.113L204.192 106.115C205.936 105.147 205.998 105.141 206.213 105.92C206.339 106.376 206.067 107.166 205.585 107.746C205.118 108.309 204.852 108.947 204.994 109.164C205.136 109.382 204.687 109.836 203.996 110.174C202.716 110.801 201.828 112.865 202.838 112.865C203.747 112.865 205.75 110.392 205.519 109.556C205.401 109.128 205.458 108.688 205.646 108.577C206.427 108.121 206.378 110.062 205.585 111.016C205.118 111.579 204.852 112.217 204.994 112.435C205.136 112.652 204.687 113.107 203.996 113.445C202.724 114.068 201.827 116.135 202.828 116.135C203.81 116.135 205.781 113.773 205.537 112.889C205.409 112.426 205.458 111.958 205.647 111.848C206.172 111.54 206.456 113.072 206.012 113.823C205.774 114.225 205.776 114.774 206.018 115.21C206.454 115.999 206.011 117.513 205.207 117.984C204.862 118.186 205.096 118.582 205.932 119.214C207.142 120.128 207.166 120.224 207.166 124.257C207.166 127.628 207.302 128.498 207.921 129.084C208.616 129.743 208.677 129.745 208.677 129.114C208.677 128.424 209.887 127.581 210.878 127.581C211.17 127.581 212.995 129.128 214.933 131.018C216.883 132.92 218.924 134.539 219.502 134.642C220.077 134.744 220.698 134.853 220.884 134.884C221.07 134.914 221.944 134.654 222.827 134.307ZM201.987 118C201.987 116.913 199.745 115.753 197.064 115.453C194.9 115.21 194.864 115.224 194.864 116.305C194.864 117.2 195.205 117.552 196.699 118.203C199.1 119.248 201.987 119.137 201.987 118Z" fill="#FFBE29" stroke="black" stroke-width="5.56"/>
        <path d="M204.443 117.9C205.537 116.908 206.055 115.728 205.397 115.728C204.64 115.728 202.633 117.53 202.633 118.209C202.633 119.268 203.005 119.205 204.443 117.9ZM202.113 114.687C202.206 114.073 201.827 113.664 200.69 113.151C198.238 112.044 195.307 111.531 194.601 112.086C193.301 113.108 194.167 114.48 196.268 114.727C197.114 114.826 198.262 115.084 198.818 115.3C200.433 115.928 201.969 115.642 202.113 114.687ZM202.113 111.403C202.245 110.529 201.686 110.216 197.121 108.609C193.712 107.409 192.203 107.975 193.293 110.044C193.672 110.765 194.309 111.094 195.737 111.308C196.8 111.467 198.252 111.778 198.964 111.999C200.866 112.59 201.966 112.382 202.113 111.403ZM204.4 108.327C205.089 107.628 205.652 106.804 205.652 106.495C205.652 105.493 202.932 107.266 202.585 108.494C202.169 109.967 202.844 109.905 204.4 108.327ZM202.113 108.12C202.263 107.124 200.607 106.224 197.349 105.533C194.958 105.025 193.904 105.313 194.083 106.424C194.181 107.03 194.977 107.473 197.235 108.178C200.85 109.306 201.937 109.293 202.113 108.12ZM205.3 103.483C209.475 101.625 209.836 96.9383 205.899 95.708C204.265 95.197 203.221 95.4723 202.595 96.5796C202.116 97.4273 202.437 98.9686 203.092 98.9686C203.313 98.9686 203.495 99.254 203.495 99.6026C203.495 101.23 197.12 101.967 194.506 100.643C193.588 100.177 193.188 98.9686 193.952 98.9686C194.524 98.9686 194.918 97.7376 194.627 96.8666C194.229 95.6803 193.033 95.2693 191.299 95.723C187.386 96.7463 187.496 101.345 191.48 103.296C194.747 104.896 201.909 104.993 205.3 103.483Z" fill="#FFBE29" stroke="black" stroke-width="5.56"/>
        <path d="M202.704 99.88C202.945 99.651 202.84 99.2993 202.435 98.9806C201.547 98.2829 201.595 97.2453 202.568 96.0573C203.299 95.1656 203.391 93.8306 203.642 80.3663C204.076 57.1626 205.802 39.7096 208.076 35.5229C208.981 33.8559 208.854 33.8496 206.515 35.4413C203.501 37.4919 201.206 40.1623 199.173 43.9846C195.334 51.2019 194 60.9113 194 81.6379C194 93.4066 194.08 94.9463 194.75 96.0526C195.387 97.1033 195.421 97.4913 194.974 98.6136C194.684 99.3413 194.552 100.036 194.681 100.159C195.538 100.97 201.782 100.755 202.704 99.8819V99.88ZM237.78 77.7533C237.911 77.5529 237.622 76.5413 237.138 75.5049C236.384 73.8893 236.08 73.6209 235.005 73.6209C231.638 73.6209 226.225 72.1163 220.644 69.6289C217.421 68.1926 216.308 67.8623 215.922 68.2286C214.936 69.1623 216.575 71.3786 219.112 72.5439C221.364 73.5773 227.657 74.8473 230.528 74.8473C232.194 74.8473 232.233 74.9226 231.285 76.2926L230.588 77.3003L232.472 77.3486C233.509 77.3753 234.939 77.5373 235.652 77.7089C237.501 78.1546 237.518 78.1549 237.78 77.7533Z" fill="#FFBE29" stroke="black" stroke-width="5.56"/>
        <path d="M257.449 88.21C257.449 87.61 255.688 85.985 253.903 84.9377C252.502 84.1153 252.27 84.0903 252.267 84.761C252.262 85.7793 251.357 88.338 251.001 88.338C250.801 88.338 250.504 87.838 250.342 87.227C250.18 86.616 249.501 85.4117 248.832 84.5507L247.617 82.9857L246.67 84.4357C245.788 85.7877 244.26 87.1117 243.582 87.1117C243.42 87.1117 243.388 86.3997 243.511 85.5293C243.645 84.584 243.542 83.834 243.255 83.666C242.99 83.511 242.773 83.565 242.773 83.786C242.773 84.2953 240.651 86.7027 240.202 86.7027C240.017 86.7027 239.758 86.013 239.626 85.17C239.495 84.3267 239.271 82.9933 239.13 82.2063C238.988 81.4193 239.29 81.953 239.801 83.392L240.731 86.0087L241.75 84.414C242.31 83.537 242.77 82.5787 242.771 82.284C242.771 81.99 242.962 81.8597 243.193 81.9943C243.423 82.1293 243.744 83.1837 243.906 84.3373L244.199 86.4347L245.321 85.205C245.938 84.5287 246.661 83.6233 246.927 83.193C247.403 82.425 247.43 82.4257 248.376 83.2283C248.906 83.678 249.721 84.7533 250.187 85.6183C250.654 86.4833 251.097 87.127 251.174 87.049C251.25 86.971 251.42 86.0793 251.553 85.0677C251.686 84.056 251.804 83.1907 251.816 83.1447C251.882 82.894 255.194 85.0473 256.42 86.1373C257.208 86.838 257.956 87.3133 258.082 87.1933C258.209 87.0733 258.313 86.0397 258.313 84.896C258.313 83.1237 258.125 82.6487 257.041 81.68C255.794 80.5657 255.76 80.5597 255.299 81.3747C254.701 82.4323 253.996 82.4477 253.996 81.4027C253.996 80.6403 251.641 77.7093 251.028 77.7093C250.869 77.7093 250.374 78.3533 249.926 79.1403C249.479 79.927 248.997 80.5703 248.857 80.5693C248.252 80.5657 244.932 76.8637 244.933 76.1953C244.933 75.664 245.157 75.7997 245.739 76.6873C246.182 77.362 247.065 78.369 247.703 78.925C248.994 80.0513 249.463 79.7773 249.961 77.6073C250.103 76.989 250.35 76.483 250.51 76.483C251.062 76.483 253.952 79.553 254.359 80.571L254.767 81.593L255.076 80.4687C255.454 79.094 255.871 79.043 256.474 80.2973C256.727 80.8213 257.972 81.9107 259.242 82.7183L261.55 84.1867L262.014 82.71C262.269 81.8977 262.606 81.431 262.764 81.6727C262.999 82.033 262.399 84.4803 261.946 85.0067C261.879 85.0857 261.13 84.65 260.284 84.0383L258.745 82.9267L258.738 84.9167C258.734 86.0113 258.615 87.321 258.472 87.8267C258.192 88.816 257.449 89.0943 257.449 88.21ZM245.939 72.3433C243.196 70.0527 242.779 69.5283 242.84 68.4427L242.904 67.287L243.083 68.4033C243.188 69.055 243.919 70.0317 244.84 70.7507L246.417 71.982L247.386 70.861C247.919 70.2443 248.362 69.51 248.371 69.229C248.393 68.496 248.525 68.5577 250.382 70.1693C252.033 71.6013 252.059 71.6083 252.304 70.6803C252.441 70.163 252.392 69.1893 252.196 68.5163C251.657 66.6663 251.763 66.387 252.58 67.503C252.987 68.0587 253.642 68.8447 254.035 69.249C254.719 69.9533 254.76 69.9447 255.015 69.0447C255.161 68.5277 255.284 67.5813 255.287 66.9417L255.293 65.779L256.781 67.4657C258.171 69.0417 258.299 69.0997 258.723 68.349C258.973 67.907 259.181 66.8433 259.184 65.9857C259.189 64.8773 259.306 64.5977 259.588 65.0197C260.058 65.7243 259.731 67.643 258.862 69.278L258.239 70.4513L257.42 69.1757C256.372 67.5447 256.024 67.571 255.352 69.331C254.717 70.9943 254.304 71.121 253.685 69.842C253.284 69.0143 253.208 69.1157 252.924 70.8543L252.608 72.7867L250.715 71.3177L248.822 69.8487L247.971 70.8163C247.503 71.3483 247.114 72.0137 247.106 72.2947C247.089 72.9037 246.634 72.9227 245.939 72.3433ZM270.346 63.81C269.347 62.91 268.659 62.0517 268.817 61.9023C268.975 61.753 269.153 61.71 269.212 61.8073C269.271 61.9043 270.088 62.7627 271.026 63.715C273.187 65.907 272.743 65.969 270.346 63.81ZM237.836 60.45C236.928 59.2217 236.99 58.4077 238.096 57.0763C238.895 56.1143 239.26 55.9837 240.656 56.161C241.551 56.2743 243.477 57.0653 244.936 57.9183C246.621 58.9033 248.364 59.5633 249.714 59.7273C250.883 59.8693 251.84 59.923 251.84 59.8463C251.84 59.7697 251.354 58.9787 250.761 58.0883C249.351 55.9737 249.4 55.747 250.989 57.0137C252.621 58.314 254.573 58.6943 258.935 58.5617L261.066 58.497L259.829 57.275C258.1 55.566 258.632 55.4127 260.542 57.0697C262.333 58.624 262.22 58.7333 258.451 59.1097C256.85 59.2697 255.127 59.1537 253.696 58.7897C251.554 58.2447 251.471 58.253 251.876 58.971C252.11 59.385 252.489 59.7233 252.718 59.7233C252.947 59.7233 253.135 59.9333 253.135 60.1893C253.135 60.9777 248.508 60.2843 246.297 59.165C241.247 56.6083 240.611 56.3867 239.409 56.7653C238.741 56.9763 238.071 57.5933 237.84 58.2113C237.07 60.274 239.996 61.877 241.202 60.054C241.552 59.5253 241.47 59.164 240.855 58.521C240.014 57.6403 240.093 57.5147 241.229 57.9277C242.035 58.221 242.144 60.1577 241.394 60.868C240.535 61.6813 238.576 61.451 237.836 60.45H237.836Z" fill="black" stroke="black" stroke-width="5.56"/>
        <path d="M257.73 55.3566C257.098 54.7586 257.593 54.612 260.425 54.5593C263.928 54.494 266.055 53.9103 268.565 52.326C270.576 51.056 271.121 51.306 269.212 52.6226C267.471 53.8233 264.755 54.7463 262.133 55.0286C260.863 55.1653 259.416 55.3546 258.917 55.4496C258.418 55.5443 257.884 55.5023 257.73 55.3566Z" fill="black" stroke="black" stroke-width="5.56"/>
        <path d="M227.179 159.853L228.633 159.014L229.254 159.855C230.082 160.975 232.374 160.962 233.894 159.829L235.057 158.963L236.031 159.829C237.311 160.968 239.701 160.97 241.228 159.833C242.296 159.037 242.445 159.021 243.152 159.627C243.573 159.988 244.809 160.399 245.898 160.54C247.858 160.795 247.888 160.781 249.035 159.059C249.996 157.618 250.147 157.034 249.917 155.636C249.765 154.71 249.602 153.218 249.553 152.321C249.467 150.698 249.476 150.688 251.84 149.865C253.146 149.41 254.657 148.8 255.199 148.51C256.143 148.003 258.746 144.943 258.746 144.34C258.746 144.18 257.73 143.936 256.486 143.796C251.542 143.242 250.705 140.587 253.919 135.655C259.161 127.613 262.324 119.78 262.345 114.791C262.355 112.561 262.482 111.812 262.768 112.297C263.939 114.279 261.841 122.589 258.663 128.557L257.383 130.96L258.604 130.679C259.276 130.524 263.224 128.858 267.379 126.976C278.751 121.826 282.657 120.817 290.016 121.127C296.182 121.387 298.808 122.591 303.161 127.157C305.467 129.576 307.689 131.307 311.753 133.85C320.411 139.27 320.772 139.739 321.184 146.113C321.601 152.57 321.393 152.921 316.509 154C312.334 154.922 309.717 156.868 309.015 159.572C308.64 161.016 309.429 161.058 311.534 159.705L313.076 158.714L313.762 159.705C314.664 161.008 316.581 161.014 318.172 159.717L319.374 158.737L320.603 159.717C322.513 161.239 325.052 160.87 325.769 158.966C325.907 158.6 326.275 158.718 327.019 159.365C328.414 160.577 331.99 161.097 332.376 160.144C332.524 159.78 332.244 158.882 331.754 158.148C329.674 155.028 329.023 153.54 328.996 151.842C328.958 149.479 329.663 148.34 332.349 146.419C335.613 144.085 336.621 141.075 334.14 141.075C332.607 141.075 331.062 139.72 330.077 137.513C328.075 133.026 328.467 127.995 331.473 119.627C334.526 111.127 334.864 109.56 334.876 103.875C334.886 99.2783 334.771 98.4836 333.725 95.9636C333.085 94.4226 331.788 92.1286 330.842 90.8656L329.121 88.5689L331.33 86.7389C338.075 81.1509 336.695 72.0059 328.576 68.4823C326.092 67.4046 325.471 67.3093 321.119 67.3386C318.507 67.3563 314.525 67.6996 312.27 68.1019C309.97 68.5126 306.078 68.8423 303.408 68.8533C299.167 68.8699 298.447 68.7656 296.812 67.8956C295.108 66.9883 294.815 66.5576 294.482 64.4606C294.413 64.0296 294.112 63.5996 293.812 63.5049C293.232 63.3223 290.555 65.6459 290.159 66.6749C289.964 67.1829 289.805 67.1476 289.232 66.4706C288.852 66.0209 288.321 64.9876 288.052 64.1746C287.377 62.1293 288.207 60.5963 290.611 59.4476L292.476 58.5563L291.376 57.8736C289.106 56.4653 285.247 57.4289 283.852 59.7519C283.457 60.4093 283.026 60.9479 282.895 60.9496C282.763 60.9506 282.013 60.3239 281.227 59.5563C278.297 56.6929 279.305 52.4573 283.224 51.1639C285.314 50.4743 287.164 51.0006 287.548 52.3939C288.136 54.5216 289.962 51.7249 289.635 49.1993C289.417 47.5203 289.449 47.4619 290.611 47.4619C292.227 47.4619 295.666 49.5826 296.73 51.2353C297.965 53.1539 297.876 56.1759 296.516 58.4286L295.448 60.1969L296.845 59.9169C298.893 59.5069 300.882 58.2353 301.888 56.6933C302.953 55.0626 303.067 51.8879 302.123 50.1749C301.209 48.5146 301.314 48.2509 302.666 48.8119C304.965 49.7663 306.194 50.8186 307.116 52.6223C307.946 54.2466 307.992 54.6503 307.543 56.3409C307.265 57.3843 306.648 58.7563 306.172 59.3906C305.429 60.3779 305.404 60.5436 305.995 60.5436C307.097 60.5436 309.397 59.5009 310.215 58.6313C310.627 58.1916 311.229 57.1099 311.552 56.2269L312.139 54.6216L312.813 55.8449C313.767 57.5756 315.621 59.1326 317.881 60.1016C320.312 61.1439 321.325 61.2026 320.053 60.2279C319.196 59.5703 317.617 54.9353 318.095 54.4819C318.377 54.2153 321.677 56.7546 325.446 60.1379C329.011 63.3379 331.251 64.3866 334.525 64.3866C338.708 64.3866 341.143 60.7456 339.263 57.3029C338.167 55.2956 335.726 55.0169 334.298 56.7359C333.641 57.5263 333.461 58.1549 333.654 58.9843C333.889 59.9999 333.797 60.1353 332.872 60.1353C331.656 60.1353 329.26 58.5796 325.003 55.0283C318.513 49.6123 310.627 45.0216 304.932 43.3449C301.278 42.2686 293.471 41.8486 289.756 42.5283C285.735 43.2639 280.98 45.5649 278.389 48.0283C273.798 52.3926 273.725 58.2006 278.195 63.4896L279.475 65.0049L278.609 66.3513C277.348 68.3103 277.456 70.9463 278.877 72.8879C279.502 73.7433 280.133 74.4426 280.279 74.4419C280.425 74.4419 280.585 73.8919 280.634 73.2203C280.76 71.5213 281.489 70.3833 282.741 69.9326C283.868 69.5266 284.596 69.7183 289.757 71.7783C295.187 73.9456 304.117 74.0946 313.611 72.1763C318.266 71.2359 323.755 71.2913 326.169 72.3029C330.596 74.1573 331.622 78.9816 328.368 82.6436C326.959 84.2289 325.601 84.8743 321.04 86.1263C317.569 87.0786 316.747 87.1419 308.859 87.0629C302.12 86.9959 299.698 87.1253 296.947 87.6996C293.96 88.3229 292.123 88.3863 283.35 88.1649L273.207 87.9093L274.331 88.8409C274.95 89.3533 275.824 89.9833 276.274 90.2416C277.039 90.6806 277.013 90.7396 275.876 91.1616C275.208 91.4089 273.724 91.6116 272.58 91.6116H270.499L270.219 93.3803C270.065 94.3533 270.076 95.4889 270.245 95.9039C270.493 96.5166 270.4 96.6046 269.755 96.3699C269.317 96.2109 268.098 95.8979 267.046 95.6746C265.994 95.4513 264.577 94.9966 263.899 94.6643C262.757 94.1053 262.63 94.1203 262.21 94.8643C261.834 95.5289 258.309 98.1523 257.792 98.1523C257.708 98.1523 257.6 97.6466 257.552 97.0283C257.504 96.4099 256.995 94.8003 256.422 93.4513C255.849 92.1023 255.25 90.6306 255.092 90.1809C254.853 89.5026 254.745 89.4676 254.456 89.9766C254.265 90.3139 253.986 91.2333 253.837 92.0206C253.687 92.8073 253.156 94.0856 252.656 94.8613L251.748 96.2713L251.169 95.0656C250.547 93.7713 249.515 92.4289 249.142 92.4289C249.016 92.4289 248.801 92.8433 248.664 93.3489C248.379 94.4056 245.932 97.3346 245.334 97.3346C245.114 97.3346 244.934 96.5069 244.934 95.4953C244.934 94.4836 244.74 93.6556 244.502 93.6556C244.265 93.6556 244.071 93.9173 244.071 94.2373C244.071 95.0153 241.981 97.3346 241.28 97.3346C240.974 97.3346 240.482 97.6106 240.186 97.9479C239.415 98.8273 238.785 98.7039 239.109 97.7369C239.261 97.2836 239.162 96.2263 238.889 95.3866L238.245 93.4006C238.142 93.0826 237.393 93.1673 235.808 93.6753C233.246 94.4966 232.388 94.3513 233.705 93.3193C234.187 92.9423 234.919 91.6356 235.333 90.4159C235.747 89.1959 236.357 88.1139 236.69 88.0109C237.155 87.8666 237.13 88.0449 236.582 88.7866C236.19 89.3163 235.868 90.0306 235.867 90.3739C235.867 90.7173 235.57 91.5316 235.212 92.1833C234.853 92.8353 234.627 93.4329 234.71 93.5116C234.794 93.5903 235.768 93.2199 236.876 92.6889L238.891 91.7229L238.899 92.5869C238.904 93.0623 239.147 94.3163 239.439 95.3736L239.97 97.2956L241.341 96.6653C242.743 96.0209 244.071 93.7246 244.071 91.9439C244.071 91.0639 244.575 91.1989 244.781 92.1343C244.842 92.4089 245.158 93.4393 245.485 94.4243L246.078 96.2146L247.017 95.0843C247.533 94.4623 248.181 93.2426 248.455 92.3739C248.933 90.8653 249.682 90.2169 249.682 91.3123C249.682 92.1016 251.836 94.9326 252.252 94.6893C252.452 94.5716 252.852 93.5093 253.14 92.3283C253.739 89.8719 254.705 88.2016 255.319 88.5609C255.55 88.6959 255.64 88.9583 255.519 89.1436C255.398 89.3289 255.894 90.9259 256.621 92.6923C257.349 94.4586 258.079 96.2369 258.245 96.6443C258.51 97.2986 258.75 97.2036 260.309 95.8266C261.28 94.9699 262.161 94.0106 262.267 93.6949C262.427 93.2179 262.643 93.2353 263.551 93.7983C264.82 94.5859 269.086 95.8546 269.415 95.5426C269.538 95.4256 269.665 94.3053 269.696 93.0526L269.753 90.7753L270.98 91.0299C271.655 91.1699 273.073 91.1609 274.133 91.0106L276.059 90.7373L274.342 89.5596C273.398 88.9119 272.444 88.0736 272.221 87.6969C271.984 87.2956 271.144 86.9549 270.192 86.8739C267.62 86.6556 263.063 84.0993 263.063 82.8753C263.063 82.6456 263.694 83.0363 264.465 83.7436C266.177 85.3123 268.555 86.2969 270.632 86.2969H272.186L271.224 85.0186C270.672 84.2839 270.177 82.8906 270.061 81.7446C269.875 79.9176 269.682 79.6269 267.775 78.3009C266.629 77.5043 265.209 76.3103 264.621 75.6476L263.55 74.4426L263.004 75.8733C262.703 76.6599 262.336 77.3039 262.188 77.3039C262.039 77.3039 261.462 76.8439 260.904 76.2819C260.347 75.7199 259.779 75.2619 259.642 75.2646C259.505 75.2669 259.011 76.0246 258.544 76.9469L257.695 78.6249L257.039 77.6579C256.678 77.1259 255.826 76.1846 255.145 75.5666C254.464 74.9486 254.106 74.4423 254.349 74.4423C254.592 74.4423 255.433 75.0866 256.217 75.8736L257.642 77.3049L258.222 76.2563C258.567 75.6339 258.696 74.6783 258.54 73.9053C258.312 72.7786 258.344 72.7133 258.776 73.4203C259.051 73.8703 259.885 74.7323 260.63 75.3363L261.983 76.4343L262.918 74.7229C263.848 73.0196 263.854 73.0163 264.277 74.0336C264.843 75.3936 268.937 78.7499 272.423 80.7109C272.96 81.0133 272.734 79.9739 271.741 77.5843C271.479 76.9509 271.264 75.8099 271.264 75.0483C271.264 73.9183 270.938 73.4153 269.492 72.3156C267.406 70.7279 266.731 69.5989 266.338 67.0373C266.179 65.9996 265.814 64.8456 265.527 64.4726C265.101 63.9193 265.03 64.2293 265.144 66.1549C265.221 67.4529 265.052 69.0669 264.769 69.7413L264.254 70.9679L263.856 69.9456C263.638 69.3836 262.67 68.4059 261.705 67.7736C260.741 67.1409 260.064 66.5169 260.201 66.3869C260.338 66.2573 261.33 66.8336 262.406 67.6683C264.044 68.9396 264.405 69.0773 264.632 68.5173C264.898 67.8596 264.632 64.9966 264.116 62.9963C263.86 61.9976 263.882 62.0029 265.114 63.2349C266.023 64.1436 266.526 65.2276 266.915 67.1183C267.41 69.5206 267.659 69.9206 269.88 71.8709C271.214 73.0423 272.375 73.9346 272.46 73.8543C272.545 73.7743 272.713 70.7443 272.834 67.1213C273.066 60.1746 272.804 58.5213 271.131 56.3749L270.271 55.2723L271.623 53.8146C273.385 51.9129 274.195 50.3889 274.546 48.3096L274.832 46.6179L273.307 48.0623C272.058 49.2449 271.461 49.5066 270.015 49.5066C268.583 49.5066 268.023 49.2666 267.058 48.2383C265.9 47.0043 263.848 45.8169 261.875 45.2393C261.146 45.0259 260.904 45.1186 260.904 45.6119C260.904 45.9733 260.502 47.0163 260.009 47.9296L259.115 49.5906L257.24 47.7379C256.09 46.6013 254.726 45.7166 253.71 45.4496C251.117 44.7676 250.976 44.8353 250.976 46.7676C250.976 49.6986 249.725 50.2446 247.473 48.2966C245.756 46.8116 244.332 46.4886 241.076 46.8466L238.561 47.1229L239.014 48.2579C239.392 49.2063 239.306 49.6056 238.497 50.6823C237.184 52.4289 235.476 53.1856 232.847 53.1856C231.637 53.1856 230.122 53.4363 229.481 53.7423C228.84 54.0486 227.247 54.4013 225.941 54.5263C224.635 54.6513 223.244 54.8743 222.848 55.0219C222.23 55.2529 222.162 55.0626 222.361 53.6559C222.666 51.5033 221.162 49.9153 218.819 49.9153C215.778 49.9153 214.376 52.6349 215.567 56.2226C215.796 56.9129 216.096 58.0019 216.233 58.6423C216.376 59.3066 217.745 61.0699 219.423 62.7483C221.039 64.3663 222.568 66.0496 222.819 66.4893C223.07 66.9293 223.899 67.6346 224.662 68.0573L226.048 68.8259L225.866 67.3419C225.665 65.7109 226.02 65.4553 226.888 66.6059C227.198 67.0176 227.986 67.6826 228.639 68.0839C229.667 68.7159 229.826 68.7289 229.826 68.1799C229.826 67.8316 230.036 67.0286 230.292 66.3956L230.758 65.2449L231.566 66.8106C232.01 67.6716 233.456 69.6289 234.779 71.1599C237.345 74.1306 238.909 77.4499 238.102 78.2143C237.774 78.5243 236.89 78.5003 235.056 78.1316C233.634 77.8459 231.876 77.6949 231.148 77.7959C229.663 78.0026 229.546 77.8106 230.459 76.6666C231.424 75.4589 231.27 75.2599 229.376 75.2599C227.184 75.2599 221.742 74.2093 219.653 73.3826C217.622 72.5789 217.153 72.7793 216.556 74.7056C216.286 75.5723 215.794 77.1436 215.461 78.1969L214.855 80.1116L217.053 79.8999C218.261 79.7836 219.816 79.5189 220.507 79.3119C221.199 79.1049 221.827 78.9949 221.904 79.0673C221.981 79.1399 221.672 79.8883 221.219 80.7299L220.395 82.2609L221.765 81.9816C222.519 81.8279 223.652 81.4519 224.285 81.1463C225.385 80.6143 225.473 80.6529 226.34 82.0453C227.407 83.7579 228.261 83.6876 228.45 81.8713C228.646 79.9939 229.264 80.2713 230.425 82.7596C231.542 85.1519 232.705 85.9966 232.928 84.5783C233.002 84.1076 233.604 83.3409 234.265 82.8749C235.603 81.9326 236.612 82.2153 237.19 83.6949C237.788 85.2269 236.453 86.8059 232.572 89.1589C224.796 93.8723 220.277 100.319 218.986 108.535C217.822 115.946 221.457 123.604 228.75 129.104C232.239 131.736 237.783 134.514 237.431 133.454C235.935 128.953 235.984 120.363 237.514 118.914C237.744 118.697 237.665 119.593 237.338 120.906C236.123 125.797 236.651 129.694 239.766 138.827C242.583 147.088 242.193 150.618 238.206 152.952C236.926 153.701 236.101 153.825 232.658 153.783C228.923 153.737 228.516 153.813 227.316 154.768C226.154 155.695 224.646 158.737 224.646 160.157C224.646 160.926 225.5 160.824 227.178 159.855L227.179 159.853Z" fill="#FFBE29"/>
        <path d="M287.816 159.687L289.383 158.68L290.447 159.687C291.84 161.006 293.472 160.977 294.811 159.608C295.396 159.01 295.921 158.597 295.978 158.688C296.035 158.779 296.296 159.222 296.557 159.672C296.888 160.241 297.569 160.527 298.798 160.614C300.278 160.718 300.676 160.575 301.264 159.725L301.966 158.711L303.508 159.703C307.731 162.417 309.981 159.569 308.094 153.899C307.134 151.016 307.662 149.395 310.755 145.725C312.059 144.178 313.128 142.526 313.129 142.055C313.129 141.304 312.888 141.203 311.152 141.237C309.491 141.271 309.005 141.092 308.13 140.13C306.708 138.564 306.793 136.771 308.382 134.782L309.652 133.192L307.399 131.663C306.16 130.822 303.925 128.832 302.433 127.241C299.082 123.668 295.786 121.974 291.441 121.59L288.528 121.332L288.532 123.537C288.538 126.376 289.87 129.107 293.507 133.733C297.642 138.993 297.93 139.807 298.098 146.682L298.24 152.496L297.043 153.631C295.962 154.657 295.474 154.788 291.985 154.989C288.664 155.181 287.966 155.352 286.991 156.216C285.697 157.362 285.31 157.986 284.91 159.57C284.677 160.493 284.772 160.694 285.438 160.694C285.884 160.694 286.954 160.241 287.816 159.687H287.816ZM198.94 144.66C199.309 144.16 199.612 143.353 199.612 142.867C199.612 142.132 199.94 141.936 201.555 141.706L203.499 141.43L202.203 140.397C200.663 139.17 200.52 138.211 201.878 138.209C203.23 138.209 205.519 136.805 205.868 135.766C206.029 135.283 205.928 134.638 205.637 134.307C204.879 133.442 203.454 133.573 203.19 134.531C202.905 135.561 202.429 135.564 201.349 134.541C199.725 133.003 199.688 129.818 201.274 127.964C202.021 127.09 202.014 127.033 201.062 126.131C200.037 125.16 199.305 123.239 199.786 122.783C199.94 122.638 200.749 122.753 201.586 123.04C202.774 123.447 203.243 123.453 203.733 123.068C205.216 121.902 203.609 120.403 201.231 120.734C200.273 120.867 199.878 120.734 199.741 120.237C199.637 119.861 198.799 119.369 197.856 119.131C196.17 118.705 196.158 118.71 196.158 119.871C196.158 121.144 195.432 121.384 194.052 120.568C192.93 119.904 191.842 120.419 191.842 121.614C191.842 122.728 192.963 123.278 194.972 123.148C196.512 123.049 196.569 124.195 195.106 125.842L194.054 127.026L194.887 128.223C196.122 129.997 196.018 132.943 194.669 134.406L193.612 135.552L192.918 134.633C191.954 133.355 190.636 133.44 190.274 134.805C190.038 135.698 190.233 136.106 191.352 137.053C192.104 137.689 193.201 138.21 193.791 138.21C195.251 138.21 195.194 139.357 193.676 140.517L192.49 141.424L194.324 141.709C195.333 141.865 196.158 142.16 196.158 142.363C196.158 143.143 197.43 145.568 197.838 145.568C198.075 145.568 198.57 145.159 198.94 144.659V144.66Z" fill="#FFBE29"/>
        <path d="M222.827 134.307C224.493 133.65 228.1 130.595 228.1 129.841C228.1 129.603 227.105 128.508 225.888 127.407C223.327 125.09 220.541 121.188 219.82 118.907C219.443 117.717 217.625 115.681 212.503 110.713L205.687 104.103L203.722 104.6C202.642 104.874 201.324 105.104 200.793 105.113C199.878 105.126 199.895 105.179 201.111 106.12L202.394 107.113L204.192 106.115C205.936 105.147 205.998 105.141 206.213 105.92C206.339 106.376 206.067 107.166 205.585 107.746C205.118 108.309 204.852 108.947 204.994 109.164C205.136 109.382 204.687 109.836 203.996 110.174C202.716 110.801 201.828 112.865 202.838 112.865C203.747 112.865 205.75 110.392 205.519 109.556C205.401 109.128 205.458 108.688 205.646 108.577C206.427 108.121 206.378 110.062 205.585 111.016C205.118 111.579 204.852 112.217 204.994 112.435C205.136 112.652 204.687 113.107 203.996 113.445C202.724 114.068 201.827 116.135 202.828 116.135C203.81 116.135 205.781 113.773 205.537 112.889C205.409 112.426 205.458 111.958 205.647 111.848C206.172 111.54 206.456 113.072 206.012 113.823C205.774 114.225 205.776 114.774 206.018 115.21C206.454 115.999 206.011 117.513 205.207 117.984C204.862 118.186 205.096 118.582 205.932 119.214C207.142 120.128 207.166 120.224 207.166 124.257C207.166 127.628 207.302 128.498 207.921 129.084C208.616 129.743 208.677 129.745 208.677 129.114C208.677 128.424 209.887 127.581 210.878 127.581C211.17 127.581 212.995 129.128 214.933 131.018C216.883 132.92 218.924 134.539 219.502 134.642C220.077 134.744 220.698 134.853 220.884 134.884C221.07 134.914 221.944 134.654 222.827 134.307ZM201.987 118C201.987 116.913 199.745 115.753 197.064 115.453C194.9 115.21 194.864 115.224 194.864 116.305C194.864 117.2 195.205 117.552 196.699 118.203C199.1 119.248 201.987 119.137 201.987 118Z" fill="#FFBE29"/>
        <path d="M204.443 117.9C205.537 116.908 206.055 115.728 205.397 115.728C204.64 115.728 202.633 117.53 202.633 118.209C202.633 119.268 203.005 119.205 204.443 117.9ZM202.113 114.687C202.206 114.073 201.827 113.664 200.69 113.151C198.238 112.044 195.307 111.531 194.601 112.086C193.301 113.108 194.167 114.48 196.268 114.727C197.114 114.826 198.262 115.084 198.818 115.3C200.433 115.928 201.969 115.642 202.113 114.687ZM202.113 111.403C202.245 110.529 201.686 110.216 197.121 108.609C193.712 107.409 192.203 107.975 193.293 110.044C193.672 110.765 194.309 111.094 195.737 111.308C196.8 111.467 198.252 111.778 198.964 111.999C200.866 112.59 201.966 112.382 202.113 111.403ZM204.4 108.327C205.089 107.628 205.652 106.804 205.652 106.495C205.652 105.493 202.932 107.266 202.585 108.494C202.169 109.967 202.844 109.905 204.4 108.327ZM202.113 108.12C202.263 107.124 200.607 106.224 197.349 105.533C194.958 105.025 193.904 105.313 194.083 106.424C194.181 107.03 194.977 107.473 197.235 108.178C200.85 109.306 201.937 109.293 202.113 108.12ZM205.3 103.483C209.475 101.625 209.836 96.9383 205.899 95.708C204.265 95.197 203.221 95.4723 202.595 96.5796C202.116 97.4273 202.437 98.9686 203.092 98.9686C203.313 98.9686 203.495 99.254 203.495 99.6026C203.495 101.23 197.12 101.967 194.506 100.643C193.588 100.177 193.188 98.9686 193.952 98.9686C194.524 98.9686 194.918 97.7376 194.627 96.8666C194.229 95.6803 193.033 95.2693 191.299 95.723C187.386 96.7463 187.496 101.345 191.48 103.296C194.747 104.896 201.909 104.993 205.3 103.483Z" fill="#FFBE29"/>
        <path d="M202.704 99.88C202.945 99.651 202.84 99.2993 202.435 98.9806C201.547 98.2829 201.595 97.2453 202.568 96.0573C203.299 95.1656 203.391 93.8306 203.642 80.3663C204.076 57.1626 205.802 39.7096 208.076 35.5229C208.981 33.8559 208.854 33.8496 206.515 35.4413C203.501 37.4919 201.206 40.1623 199.173 43.9846C195.334 51.2019 194 60.9113 194 81.6379C194 93.4066 194.08 94.9463 194.75 96.0526C195.387 97.1033 195.421 97.4913 194.974 98.6136C194.684 99.3413 194.552 100.036 194.681 100.159C195.538 100.97 201.782 100.755 202.704 99.8819V99.88ZM237.78 77.7533C237.911 77.5529 237.622 76.5413 237.138 75.5049C236.384 73.8893 236.08 73.6209 235.005 73.6209C231.638 73.6209 226.225 72.1163 220.644 69.6289C217.421 68.1926 216.308 67.8623 215.922 68.2286C214.936 69.1623 216.575 71.3786 219.112 72.5439C221.364 73.5773 227.657 74.8473 230.528 74.8473C232.194 74.8473 232.233 74.9226 231.285 76.2926L230.588 77.3003L232.472 77.3486C233.509 77.3753 234.939 77.5373 235.652 77.7089C237.501 78.1546 237.518 78.1549 237.78 77.7533Z" fill="#FFBE29"/>
        <path d="M257.449 88.21C257.449 87.61 255.688 85.985 253.903 84.9377C252.502 84.1153 252.27 84.0903 252.267 84.761C252.262 85.7793 251.357 88.338 251.001 88.338C250.801 88.338 250.504 87.838 250.342 87.227C250.18 86.616 249.501 85.4117 248.832 84.5507L247.617 82.9857L246.67 84.4357C245.788 85.7877 244.26 87.1117 243.582 87.1117C243.42 87.1117 243.388 86.3997 243.511 85.5293C243.645 84.584 243.542 83.834 243.255 83.666C242.99 83.511 242.773 83.565 242.773 83.786C242.773 84.2953 240.651 86.7027 240.202 86.7027C240.017 86.7027 239.758 86.013 239.626 85.17C239.495 84.3267 239.271 82.9933 239.13 82.2063C238.988 81.4193 239.29 81.953 239.801 83.392L240.731 86.0087L241.75 84.414C242.31 83.537 242.77 82.5787 242.771 82.284C242.771 81.99 242.962 81.8597 243.193 81.9943C243.423 82.1293 243.744 83.1837 243.906 84.3373L244.199 86.4347L245.321 85.205C245.938 84.5287 246.661 83.6233 246.927 83.193C247.403 82.425 247.43 82.4257 248.376 83.2283C248.906 83.678 249.721 84.7533 250.187 85.6183C250.654 86.4833 251.097 87.127 251.174 87.049C251.25 86.971 251.42 86.0793 251.553 85.0677C251.686 84.056 251.804 83.1907 251.816 83.1447C251.882 82.894 255.194 85.0473 256.42 86.1373C257.208 86.838 257.956 87.3133 258.082 87.1933C258.209 87.0733 258.313 86.0397 258.313 84.896C258.313 83.1237 258.125 82.6487 257.041 81.68C255.794 80.5657 255.76 80.5597 255.299 81.3747C254.701 82.4323 253.996 82.4477 253.996 81.4027C253.996 80.6403 251.641 77.7093 251.028 77.7093C250.869 77.7093 250.374 78.3533 249.926 79.1403C249.479 79.927 248.997 80.5703 248.857 80.5693C248.252 80.5657 244.932 76.8637 244.933 76.1953C244.933 75.664 245.157 75.7997 245.739 76.6873C246.182 77.362 247.065 78.369 247.703 78.925C248.994 80.0513 249.463 79.7773 249.961 77.6073C250.103 76.989 250.35 76.483 250.51 76.483C251.062 76.483 253.952 79.553 254.359 80.571L254.767 81.593L255.076 80.4687C255.454 79.094 255.871 79.043 256.474 80.2973C256.727 80.8213 257.972 81.9107 259.242 82.7183L261.55 84.1867L262.014 82.71C262.269 81.8977 262.606 81.431 262.764 81.6727C262.999 82.033 262.399 84.4803 261.946 85.0067C261.879 85.0857 261.13 84.65 260.284 84.0383L258.745 82.9267L258.738 84.9167C258.734 86.0113 258.615 87.321 258.472 87.8267C258.192 88.816 257.449 89.0943 257.449 88.21ZM245.939 72.3433C243.196 70.0527 242.779 69.5283 242.84 68.4427L242.904 67.287L243.083 68.4033C243.188 69.055 243.919 70.0317 244.84 70.7507L246.417 71.982L247.386 70.861C247.919 70.2443 248.362 69.51 248.371 69.229C248.393 68.496 248.525 68.5577 250.382 70.1693C252.033 71.6013 252.059 71.6083 252.304 70.6803C252.441 70.163 252.392 69.1893 252.196 68.5163C251.657 66.6663 251.763 66.387 252.58 67.503C252.987 68.0587 253.642 68.8447 254.035 69.249C254.719 69.9533 254.76 69.9447 255.015 69.0447C255.161 68.5277 255.284 67.5813 255.287 66.9417L255.293 65.779L256.781 67.4657C258.171 69.0417 258.299 69.0997 258.723 68.349C258.973 67.907 259.181 66.8433 259.184 65.9857C259.189 64.8773 259.306 64.5977 259.588 65.0197C260.058 65.7243 259.731 67.643 258.862 69.278L258.239 70.4513L257.42 69.1757C256.372 67.5447 256.024 67.571 255.352 69.331C254.717 70.9943 254.304 71.121 253.685 69.842C253.284 69.0143 253.208 69.1157 252.924 70.8543L252.608 72.7867L250.715 71.3177L248.822 69.8487L247.971 70.8163C247.503 71.3483 247.114 72.0137 247.106 72.2947C247.089 72.9037 246.634 72.9227 245.939 72.3433ZM270.346 63.81C269.347 62.91 268.659 62.0517 268.817 61.9023C268.975 61.753 269.153 61.71 269.212 61.8073C269.271 61.9043 270.088 62.7627 271.026 63.715C273.187 65.907 272.743 65.969 270.346 63.81ZM237.836 60.45C236.928 59.2217 236.99 58.4077 238.096 57.0763C238.895 56.1143 239.26 55.9837 240.656 56.161C241.551 56.2743 243.477 57.0653 244.936 57.9183C246.621 58.9033 248.364 59.5633 249.714 59.7273C250.883 59.8693 251.84 59.923 251.84 59.8463C251.84 59.7697 251.354 58.9787 250.761 58.0883C249.351 55.9737 249.4 55.747 250.989 57.0137C252.621 58.314 254.573 58.6943 258.935 58.5617L261.066 58.497L259.829 57.275C258.1 55.566 258.632 55.4127 260.542 57.0697C262.333 58.624 262.22 58.7333 258.451 59.1097C256.85 59.2697 255.127 59.1537 253.696 58.7897C251.554 58.2447 251.471 58.253 251.876 58.971C252.11 59.385 252.489 59.7233 252.718 59.7233C252.947 59.7233 253.135 59.9333 253.135 60.1893C253.135 60.9777 248.508 60.2843 246.297 59.165C241.247 56.6083 240.611 56.3867 239.409 56.7653C238.741 56.9763 238.071 57.5933 237.84 58.2113C237.07 60.274 239.996 61.877 241.202 60.054C241.552 59.5253 241.47 59.164 240.855 58.521C240.014 57.6403 240.093 57.5147 241.229 57.9277C242.035 58.221 242.144 60.1577 241.394 60.868C240.535 61.6813 238.576 61.451 237.836 60.45H237.836Z" fill="black"/>
        <path d="M257.73 55.3566C257.098 54.7586 257.593 54.612 260.425 54.5593C263.928 54.494 266.055 53.9103 268.565 52.326C270.576 51.056 271.121 51.306 269.212 52.6226C267.471 53.8233 264.755 54.7463 262.133 55.0286C260.863 55.1653 259.416 55.3546 258.917 55.4496C258.418 55.5443 257.884 55.5023 257.73 55.3566Z" fill="black"/>
    </g>
    <defs>
        <clipPath id="clip0_5_6762">
            <rect width="400" height="200" fill="white"/>
        </clipPath>
    </defs>
</svg>
