<?xml version='1.0' encoding='us-ascii'?>
<svg xmlns="http://www.w3.org/2000/svg" viewBox="0 0 300 200"><g><path d="M68.1233 137.495L43.7386 119.642L19.3866 137.5L28.8306 108.792L4.32129 91.1507L34.5426 91.2613L43.747 62.5L52.9803 91.2767L83.1783 91.1423L58.6636 108.817L68.1233 137.495Z" fill="#FCE100" />
<path fill-rule="evenodd" clip-rule="evenodd" d="M22.5747 117.476H40.141C41.5544 119.061 44.7077 119.708 47.7114 117.457C53.2174 114.442 63.869 117.476 63.869 117.476L65.9664 115.247L60.8537 98.4674L59.0184 96.501C59.0184 96.501 55.086 94.1417 47.6134 94.928C40.141 95.7147 37.519 94.666 37.519 94.666C37.519 94.666 30.9647 95.4527 29.129 96.37C28.9277 96.5333 27.0317 98.4674 27.0317 98.4674L22.5747 117.476Z" fill="white" stroke="black" stroke-width="0.5248833333333334" stroke-linecap="round" stroke-linejoin="round" />
<path d="M26.1143 113.15C26.1143 113.15 42.8939 111.052 47.7443 117.476C45.0049 119.35 42.5933 119.505 40.0099 117.607C40.4213 116.922 46.0399 111.052 60.3293 113.019" stroke="black" stroke-width="0.5248833333333334" stroke-linecap="round" stroke-linejoin="round" />
<path d="M44.0735 96.3701L43.9425 114.854L44.0735 96.3701ZM59.0181 96.6321L62.1645 111.315L59.0181 96.6321ZM29.3022 96.4015L27.5562 103.973L29.3022 96.4015Z" fill="black" />
<path d="M44.0735 96.3701L43.9425 114.854M59.0181 96.6321L62.1645 111.315M29.3022 96.4015L27.5562 103.973" stroke="black" stroke-width="0.5248833333333334" stroke-linecap="round" stroke-linejoin="round" />
<path fill-rule="evenodd" clip-rule="evenodd" d="M11.1655 119.488L15.2965 124.332C15.7819 124.621 16.2125 124.603 16.6435 124.332L22.7659 116.985L25.3375 113.802C25.7355 113.33 25.8625 112.804 25.8272 112.332L30.7432 107.964C31.1452 107.992 31.3849 108.037 31.7869 108.064C31.3119 107.941 30.9635 107.71 31.3372 107.189L32.4392 106.332L33.2962 107.434C33.2962 107.434 32.0722 109.026 31.9495 109.026H30.6029L28.0312 111.353L29.1552 112.346L30.8475 116.985L32.9292 115.516L31.5825 110.741L34.5212 107.557L33.4189 105.842L34.1539 104.863C34.1539 104.863 44.3249 111.266 48.2432 109.552C48.3492 109.59 48.4799 104.985 48.4799 104.985C48.4799 104.985 37.9499 103.883 37.7045 101.802C37.4599 99.72 40.0312 99.475 40.0312 99.475L38.9289 97.8833L39.1742 97.026L41.0109 99.3527L45.1742 95.8013L69.6635 123.72C71.0005 123.178 71.2862 122.851 71.3782 121.516C71.3435 121.482 47.3782 93.9647 47.3782 93.9647L49.2149 92.006C49.5769 91.5977 49.7042 91.4243 49.7049 90.781L52.5209 88.3323C53.3679 88.6234 53.9079 89.131 54.3575 89.8013L62.1002 83.2397C62.3042 83.4437 62.9242 83.6477 63.3449 83.4183L76.1455 71.1313L62.1942 80.9853L61.7045 80.618C61.7045 80.2097 62.2105 80.109 61.7045 79.3937C61.1625 78.743 60.3579 80.0057 60.2355 80.0057C60.1129 80.0057 58.2162 79.3357 57.8005 78.4863L57.6639 80.7403L54.1129 84.0467L51.4192 83.924L47.5005 87.72L47.0109 89.1893L47.6232 90.414C47.6232 90.414 45.5412 92.2507 45.5412 92.128C45.5412 92.006 45.1205 91.587 45.1025 91.5327L46.8882 89.924L47.1332 88.822L46.5372 87.8917C46.3565 88.023 44.0719 90.414 43.9492 90.169C43.7452 89.9403 37.3375 82.6997 37.3375 82.6997L37.7045 81.353L33.5415 76.822C32.0239 76.298 29.6232 76.21 29.1332 79.516C28.7519 80.2927 25.5822 79.6383 25.5822 79.6383L23.8679 80.0057L14.1945 93.72L19.5822 100.21L30.6025 86.2507L30.9299 82.296L33.2422 84.8817C34.0132 84.9807 34.7475 84.9893 35.4462 84.6367L41.9755 91.9244L40.8882 92.9853C41.2555 93.3933 41.5082 93.654 41.8759 94.062C42.2432 93.8173 42.5939 93.5237 42.9612 93.2783C43.0839 93.442 43.2879 93.7523 43.4105 93.9157C42.8635 94.2134 42.4795 94.6097 41.9325 94.9077C41.0572 94.337 40.2119 93.6263 40.2759 92.4957L36.6025 95.5567L36.4802 96.169L25.5822 105.23L24.6025 105.353L24.3579 108.169L31.4599 102.292V101.434L32.1945 102.046L37.7045 97.6387C37.7045 97.6387 38.0719 98.1283 37.9499 98.1283C37.8272 98.1283 33.0515 102.536 33.0515 102.536L32.9292 103.026L32.0722 103.761L31.5822 103.393L24.9699 109.271H23.9905L20.3172 112.945C19.3695 113.027 18.5485 113.127 17.7455 113.679L11.1655 119.488Z" fill="black" stroke="black" stroke-width="0.5248833333333334" stroke-linecap="round" stroke-linejoin="round" />
</g></svg>