<svg xmlns="http://www.w3.org/2000/svg" viewBox="0 0 300 200">
    <path fill-rule="evenodd" clip-rule="evenodd" d="M130.286 68.599H142.501L146.205 57.0867L150.008 68.599H162.221L152.41 75.9077L156.213 87.6193L146.205 80.5113L136.294 87.6193L140.098 75.9077L130.286 68.599Z" fill="#FFCB00" />
    <path fill-rule="evenodd" clip-rule="evenodd" d="M174.933 131.569L165.324 124.059C175.033 116.151 181.342 104.037 181.342 90.5238C181.342 69.9018 166.627 52.5824 147.205 48.4781L148.706 41.4698C151.409 42.0708 154.581 43.2088 157.183 44.1084L159.687 39.9058C162.387 41.2058 165.393 42.5068 167.894 44.1084L165.993 48.6144C168.496 50.2171 171.518 52.6981 173.198 54.6518L176.957 51.7154C178.96 53.9168 181.363 56.2178 183.065 58.6224L179.661 62.1264C181.859 65.3531 182.709 66.8381 184.329 70.5554L189.105 69.4354C190.007 72.2381 191.376 75.6694 191.878 78.5714L187.356 80.3488C187.896 82.6041 188.595 86.5434 188.55 89.8571C188.547 90.0564 188.532 90.2824 188.532 90.4831L193.254 91.1568C193.054 94.0608 192.955 97.3651 192.353 100.268H187.448C186.748 103.269 185.845 106.941 184.745 109.743L188.847 112.147C187.547 114.749 186.247 117.853 184.545 120.356L180.04 118.455C178.337 120.956 176.437 123.358 174.334 125.562L177.236 129.365C176.437 130.065 175.735 130.767 174.933 131.568M153.813 130.667L161.07 135.04C160.393 135.659 158.366 136.709 157.829 136.922L159.015 141.477C156.213 142.38 153.209 143.68 150.107 144.281L148.306 139.777C145.402 140.377 142.5 140.777 139.497 140.777L138.894 145.481C136.092 145.282 132.689 145.481 129.585 144.781V140.077C126.781 139.575 124.079 138.875 121.477 137.973L119.174 142.081C116.771 141.077 113.568 139.876 110.964 138.275L112.667 133.771C110.564 132.668 108.662 131.268 106.86 129.864L111.365 124.158C118.774 130.065 128.083 133.567 138.294 133.567C143.701 133.567 149.005 132.668 153.813 130.667" fill="#FFCB00" />
    <path fill-rule="evenodd" clip-rule="evenodd" d="M184.064 142.27L136.154 105.81L135.717 106.432L183.504 142.956L180.667 146.505L134.083 116.625C121.47 108.717 121.971 102.511 124.574 95.8034L126.776 90.3977C127.978 97.4054 135.184 102.712 142.692 108.617L184.997 141.116L184.064 142.27ZM196.092 153.137C195.994 153.137 195.897 153.118 195.806 153.08C195.716 153.043 195.634 152.988 195.565 152.918C195.496 152.849 195.441 152.767 195.404 152.676C195.367 152.586 195.348 152.489 195.348 152.391C195.348 152.293 195.367 152.197 195.405 152.106C195.442 152.016 195.497 151.934 195.566 151.865C195.635 151.796 195.717 151.741 195.807 151.704C195.897 151.666 195.994 151.647 196.092 151.647C196.504 151.647 196.838 151.98 196.838 152.391C196.838 152.489 196.819 152.586 196.781 152.677C196.744 152.767 196.689 152.85 196.62 152.919C196.55 152.988 196.468 153.043 196.377 153.081C196.287 153.118 196.19 153.137 196.092 153.137ZM193.228 151.035C193.031 151.034 192.841 150.956 192.701 150.816C192.562 150.677 192.483 150.487 192.483 150.29C192.482 150.142 192.526 149.998 192.608 149.876C192.69 149.753 192.806 149.657 192.942 149.601C193.079 149.544 193.228 149.53 193.373 149.558C193.518 149.587 193.65 149.658 193.755 149.762C193.859 149.866 193.93 149.999 193.959 150.144C193.988 150.288 193.973 150.438 193.917 150.574C193.86 150.711 193.765 150.827 193.642 150.909C193.52 150.991 193.376 151.035 193.228 151.035ZM190.298 148.699C189.888 148.699 189.553 148.366 189.553 147.956C189.559 147.762 189.64 147.578 189.779 147.443C189.918 147.308 190.104 147.233 190.298 147.233C190.492 147.233 190.678 147.308 190.817 147.443C190.956 147.578 191.037 147.762 191.043 147.956C191.043 148.366 190.71 148.699 190.298 148.699ZM200.15 152.833L185.795 141.711L181.623 147.087L194.093 155.832C195.095 156.532 195.193 159.738 198.896 160.239C200.4 160.438 201.398 159.336 201.398 159.336C203.012 157.372 202.572 154.668 200.15 152.833Z" fill="#FFCB00" />
</svg>