<svg xmlns="http://www.w3.org/2000/svg" viewBox="0 0 300 200">
<path d="M60.0001 21.1367L65.1667 35.1367L76.6667 25.6034L74.1334 40.3367L88.8667 37.8034L79.3334 49.3034L93.3334 54.4701L79.3334 59.6367L88.8667 71.1367L74.1334 68.6034L76.6667 83.3367L65.1667 73.8034L60.0001 87.8034L54.8334 73.8034L43.3334 83.3367L45.8667 68.6034L31.1334 71.1367L40.6667 59.6367L26.6667 54.4701L40.6667 49.3034L31.1334 37.8034L45.8667 40.3367L43.3334 25.6034L54.8334 35.1367L60.0001 21.1367Z" fill="#FFCE00"/>
<path d="M60.0001 72.8034C70.1253 72.8034 78.3334 64.5953 78.3334 54.4701C78.3334 44.3448 70.1253 36.1367 60.0001 36.1367C49.8749 36.1367 41.6667 44.3448 41.6667 54.4701C41.6667 64.5953 49.8749 72.8034 60.0001 72.8034Z" fill="#FFCE00" stroke="#003580" stroke-width="3.33"/>
</svg>