<svg xmlns="http://www.w3.org/2000/svg" viewBox="0 0 334 200"><g><path d="M72.1254 40.7627L71.5127 61.5961H50.3727C47.772 56.5397 45.624 52.2454 45.624 46.4304C45.624 41.5637 49.4517 37.6987 54.9684 37.6987C60.8084 37.6987 67.225 39.6667 72.1254 40.7627Z" fill="#FFD83D" />
<path d="M48.1514 41.7198V53.7451V41.7198ZM49.8494 40.4931V56.5041V40.4931ZM51.547 39.6505V58.7255V39.6505ZM53.2447 39.2565V54.2171V39.2565ZM54.9427 39.1825V54.2915V39.1825ZM56.6404 38.6548V54.2831V38.6548ZM58.3384 38.6548V54.2831V38.6548ZM60.036 38.8078V54.4361V38.8078ZM61.734 38.9611V54.5895V38.9611ZM63.4317 39.9565V55.5851V39.9565ZM65.1294 40.1098V57.7298V40.1098ZM66.8274 40.1098V55.7385V40.1098ZM68.525 40.1098V55.7385V40.1098Z" fill="#FFD83D" />
<path d="M48.1514 41.7198V53.7451M49.8494 40.4931V56.5041M51.547 39.6505V58.7255M53.2447 39.2565V54.2171M54.9427 39.1825V54.2915M56.6404 38.6548V54.2831M58.3384 38.6548V54.2831M60.036 38.8078V54.4361M61.734 38.9611V54.5895M63.4317 39.9565V55.5851M65.1294 40.1098V57.7298M66.8274 40.1098V55.7385M68.525 40.1098V55.7385" stroke="black" stroke-width="0.5" stroke-linecap="round" stroke-linejoin="round" />
<path d="M58.7975 39.3074C62.3855 39.899 70.2665 43.5864 69.3675 48.575C68.0938 55.645 63.9648 52.8077 58.4911 51.7917L54.3551 53.1707C52.8751 54.6814 50.6958 56.065 49.2235 54.243H46.7725V63.817H73.8865V40.6864L58.7975 39.3074Z" fill="black" stroke="black" stroke-width="0.5" stroke-linecap="round" stroke-linejoin="round" />
<path d="M70.9377 39.3075C71.8471 39.3075 72.5844 38.5703 72.5844 37.6608C72.5844 36.7514 71.8471 36.0142 70.9377 36.0142C70.0283 36.0142 69.291 36.7514 69.291 37.6608C69.291 38.5703 70.0283 39.3075 70.9377 39.3075Z" fill="#FFD83D" stroke="black" stroke-width="0.6666666666666666" stroke-linecap="round" stroke-linejoin="round" />
<path d="M67.2375 38.4169C68.1469 38.4169 68.8842 37.6796 68.8842 36.7702C68.8842 35.8608 68.1469 35.1235 67.2375 35.1235C66.3281 35.1235 65.5908 35.8608 65.5908 36.7702C65.5908 37.6796 66.3281 38.4169 67.2375 38.4169Z" fill="#FFD83D" stroke="black" stroke-width="0.6666666666666666" stroke-linecap="round" stroke-linejoin="round" />
<path d="M63.4826 37.4738C64.392 37.4738 65.1293 36.7365 65.1293 35.8271C65.1293 34.9177 64.392 34.1804 63.4826 34.1804C62.5732 34.1804 61.8359 34.9177 61.8359 35.8271C61.8359 36.7365 62.5732 37.4738 63.4826 37.4738Z" fill="#FFD83D" stroke="black" stroke-width="0.6666666666666666" stroke-linecap="round" stroke-linejoin="round" />
<path d="M59.7141 36.8451C60.6235 36.8451 61.3607 36.1079 61.3607 35.1984C61.3607 34.289 60.6235 33.5518 59.7141 33.5518C58.8046 33.5518 58.0674 34.289 58.0674 35.1984C58.0674 36.1079 58.8046 36.8451 59.7141 36.8451Z" fill="#FFD83D" stroke="black" stroke-width="0.6666666666666666" stroke-linecap="round" stroke-linejoin="round" />
<path d="M55.9445 36.4735C56.8539 36.4735 57.5912 35.7363 57.5912 34.8268C57.5912 33.9174 56.8539 33.1802 55.9445 33.1802C55.0351 33.1802 54.2979 33.9174 54.2979 34.8268C54.2979 35.7363 55.0351 36.4735 55.9445 36.4735Z" fill="#FFD83D" stroke="black" stroke-width="0.6666666666666666" stroke-linecap="round" stroke-linejoin="round" />
<path d="M52.2492 36.6842C53.1586 36.6842 53.8959 35.947 53.8959 35.0375C53.8959 34.1281 53.1586 33.3909 52.2492 33.3909C51.3398 33.3909 50.6025 34.1281 50.6025 35.0375C50.6025 35.947 51.3398 36.6842 52.2492 36.6842Z" fill="#FFD83D" stroke="black" stroke-width="0.6666666666666666" stroke-linecap="round" stroke-linejoin="round" />
<path d="M48.7258 37.8905C49.6352 37.8905 50.3724 37.1533 50.3724 36.2438C50.3724 35.3344 49.6352 34.5972 48.7258 34.5972C47.8163 34.5972 47.0791 35.3344 47.0791 36.2438C47.0791 37.1533 47.8163 37.8905 48.7258 37.8905Z" fill="#FFD83D" stroke="black" stroke-width="0.6666666666666666" stroke-linecap="round" stroke-linejoin="round" />
<path d="M45.758 40.0731C46.6674 40.0731 47.4047 39.3359 47.4047 38.4265C47.4047 37.517 46.6674 36.7798 45.758 36.7798C44.8486 36.7798 44.1113 37.517 44.1113 38.4265C44.1113 39.3359 44.8486 40.0731 45.758 40.0731Z" fill="#FFD83D" stroke="black" stroke-width="0.6666666666666666" stroke-linecap="round" stroke-linejoin="round" />
<path d="M43.6516 43.1178C44.561 43.1178 45.2982 42.3806 45.2982 41.4711C45.2982 40.5617 44.561 39.8245 43.6516 39.8245C42.7421 39.8245 42.0049 40.5617 42.0049 41.4711C42.0049 42.3806 42.7421 43.1178 43.6516 43.1178Z" fill="#FFD83D" stroke="black" stroke-width="0.6666666666666666" stroke-linecap="round" stroke-linejoin="round" />
<path d="M42.6369 46.6986C43.5463 46.6986 44.2836 45.9614 44.2836 45.0519C44.2836 44.1425 43.5463 43.4053 42.6369 43.4053C41.7275 43.4053 40.9902 44.1425 40.9902 45.0519C40.9902 45.9614 41.7275 46.6986 42.6369 46.6986Z" fill="#FFD83D" stroke="black" stroke-width="0.6666666666666666" stroke-linecap="round" stroke-linejoin="round" />
<path d="M42.675 50.4135C43.5844 50.4135 44.3217 49.6762 44.3217 48.7668C44.3217 47.8574 43.5844 47.1201 42.675 47.1201C41.7656 47.1201 41.0283 47.8574 41.0283 48.7668C41.0283 49.6762 41.7656 50.4135 42.675 50.4135Z" fill="#FFD83D" stroke="black" stroke-width="0.6666666666666666" stroke-linecap="round" stroke-linejoin="round" />
<path d="M43.384 54.0514C44.2934 54.0514 45.0306 53.3142 45.0306 52.4047C45.0306 51.4953 44.2934 50.7581 43.384 50.7581C42.4745 50.7581 41.7373 51.4953 41.7373 52.4047C41.7373 53.3142 42.4745 54.0514 43.384 54.0514Z" fill="#FFD83D" stroke="black" stroke-width="0.6666666666666666" stroke-linecap="round" stroke-linejoin="round" />
<path d="M71.6658 39.8435L71.5124 41.9881C67.4158 41.3605 61.6078 39.0775 56.1941 39.0775C51.1921 39.0775 47.3094 41.0785 47.3094 46.1241C47.3094 51.0971 49.4151 55.6191 52.2111 60.2175L49.3008 61.5961C46.6998 56.5398 44.5518 52.2455 44.5518 46.4305C44.5518 41.5638 48.3798 36.7798 54.9684 36.7798C60.8084 36.7798 66.7651 38.7478 71.6658 39.8435Z" fill="#FFD83D" stroke="black" stroke-width="0.6666666666666666" stroke-linecap="round" stroke-linejoin="round" />
<path d="M75.8532 40.7627L76.4658 61.5961H97.6058C100.206 56.5397 102.354 52.2454 102.354 46.4304C102.354 41.5637 98.5268 37.6987 93.0102 37.6987C87.1702 37.6987 80.7535 39.6667 75.8532 40.7627Z" fill="#FFD83D" />
<path d="M99.8271 41.7198V53.7451V41.7198ZM98.1291 40.4931V56.5041V40.4931ZM96.4315 39.6505V58.7255V39.6505ZM94.7338 39.2565V54.2171V39.2565ZM93.0358 39.1825V54.2915V39.1825ZM91.3381 38.6548V54.2831V38.6548ZM89.6401 38.6548V54.2831V38.6548ZM87.9425 38.8078V54.4361V38.8078ZM86.2445 38.9611V54.5895V38.9611ZM84.5468 39.9565V55.5851V39.9565ZM82.8491 40.1098V57.7298V40.1098ZM81.1511 40.1098V55.7385V40.1098ZM79.4535 40.1098V55.7385V40.1098Z" fill="#FFD83D" />
<path d="M99.8271 41.7198V53.7451M98.1291 40.4931V56.5041M96.4315 39.6505V58.7255M94.7338 39.2565V54.2171M93.0358 39.1825V54.2915M91.3381 38.6548V54.2831M89.6401 38.6548V54.2831M87.9425 38.8078V54.4361M86.2445 38.9611V54.5895M84.5468 39.9565V55.5851M82.8491 40.1098V57.7298M81.1511 40.1098V55.7385M79.4535 40.1098V55.7385" stroke="black" stroke-width="0.5" stroke-linecap="round" stroke-linejoin="round" />
<path d="M89.1811 39.3074C85.5931 39.899 77.7121 43.5864 78.6111 48.575C79.8847 55.645 84.0137 52.8077 89.4874 51.7917L93.6234 53.1707C95.1034 54.6814 97.2827 56.065 98.7551 54.243H101.206V63.817H74.0921V40.6864L89.1811 39.3074Z" fill="black" stroke="black" stroke-width="0.5" stroke-linecap="round" stroke-linejoin="round" />
<path d="M77.0408 39.3075C76.1314 39.3075 75.3942 38.5703 75.3942 37.6608C75.3942 36.7514 76.1314 36.0142 77.0408 36.0142C77.9503 36.0142 78.6875 36.7514 78.6875 37.6608C78.6875 38.5703 77.9503 39.3075 77.0408 39.3075Z" fill="#FFD83D" stroke="black" stroke-width="0.6666666666666666" stroke-linecap="round" stroke-linejoin="round" />
<path d="M80.741 38.4169C79.8316 38.4169 79.0944 37.6796 79.0944 36.7702C79.0944 35.8608 79.8316 35.1235 80.741 35.1235C81.6505 35.1235 82.3877 35.8608 82.3877 36.7702C82.3877 37.6796 81.6505 38.4169 80.741 38.4169Z" fill="#FFD83D" stroke="black" stroke-width="0.6666666666666666" stroke-linecap="round" stroke-linejoin="round" />
<path d="M84.4959 37.4738C83.5865 37.4738 82.8492 36.7365 82.8492 35.8271C82.8492 34.9177 83.5865 34.1804 84.4959 34.1804C85.4053 34.1804 86.1426 34.9177 86.1426 35.8271C86.1426 36.7365 85.4053 37.4738 84.4959 37.4738Z" fill="#FFD83D" stroke="black" stroke-width="0.6666666666666666" stroke-linecap="round" stroke-linejoin="round" />
<path d="M88.2645 36.8451C87.355 36.8451 86.6178 36.1079 86.6178 35.1984C86.6178 34.289 87.355 33.5518 88.2645 33.5518C89.1739 33.5518 89.9111 34.289 89.9111 35.1984C89.9111 36.1079 89.1739 36.8451 88.2645 36.8451Z" fill="#FFD83D" stroke="black" stroke-width="0.6666666666666666" stroke-linecap="round" stroke-linejoin="round" />
<path d="M92.034 36.4735C91.1246 36.4735 90.3873 35.7363 90.3873 34.8268C90.3873 33.9174 91.1246 33.1802 92.034 33.1802C92.9434 33.1802 93.6807 33.9174 93.6807 34.8268C93.6807 35.7363 92.9434 36.4735 92.034 36.4735Z" fill="#FFD83D" stroke="black" stroke-width="0.6666666666666666" stroke-linecap="round" stroke-linejoin="round" />
<path d="M95.7293 36.6842C94.8199 36.6842 94.0826 35.947 94.0826 35.0375C94.0826 34.1281 94.8199 33.3909 95.7293 33.3909C96.6387 33.3909 97.376 34.1281 97.376 35.0375C97.376 35.947 96.6387 36.6842 95.7293 36.6842Z" fill="#FFD83D" stroke="black" stroke-width="0.6666666666666666" stroke-linecap="round" stroke-linejoin="round" />
<path d="M99.2527 37.8905C98.3433 37.8905 97.6061 37.1533 97.6061 36.2438C97.6061 35.3344 98.3433 34.5972 99.2527 34.5972C100.162 34.5972 100.899 35.3344 100.899 36.2438C100.899 37.1533 100.162 37.8905 99.2527 37.8905Z" fill="#FFD83D" stroke="black" stroke-width="0.6666666666666666" stroke-linecap="round" stroke-linejoin="round" />
<path d="M102.221 40.0731C101.311 40.0731 100.574 39.3359 100.574 38.4265C100.574 37.517 101.311 36.7798 102.221 36.7798C103.13 36.7798 103.867 37.517 103.867 38.4265C103.867 39.3359 103.13 40.0731 102.221 40.0731Z" fill="#FFD83D" stroke="black" stroke-width="0.6666666666666666" stroke-linecap="round" stroke-linejoin="round" />
<path d="M104.327 43.1178C103.418 43.1178 102.68 42.3806 102.68 41.4711C102.68 40.5617 103.418 39.8245 104.327 39.8245C105.236 39.8245 105.974 40.5617 105.974 41.4711C105.974 42.3806 105.236 43.1178 104.327 43.1178Z" fill="#FFD83D" stroke="black" stroke-width="0.6666666666666666" stroke-linecap="round" stroke-linejoin="round" />
<path d="M105.342 46.6986C104.432 46.6986 103.695 45.9614 103.695 45.0519C103.695 44.1425 104.432 43.4053 105.342 43.4053C106.251 43.4053 106.988 44.1425 106.988 45.0519C106.988 45.9614 106.251 46.6986 105.342 46.6986Z" fill="#FFD83D" stroke="black" stroke-width="0.6666666666666666" stroke-linecap="round" stroke-linejoin="round" />
<path d="M105.304 50.4135C104.394 50.4135 103.657 49.6762 103.657 48.7668C103.657 47.8574 104.394 47.1201 105.304 47.1201C106.213 47.1201 106.95 47.8574 106.95 48.7668C106.95 49.6762 106.213 50.4135 105.304 50.4135Z" fill="#FFD83D" stroke="black" stroke-width="0.6666666666666666" stroke-linecap="round" stroke-linejoin="round" />
<path d="M104.595 54.0514C103.685 54.0514 102.948 53.3142 102.948 52.4047C102.948 51.4953 103.685 50.7581 104.595 50.7581C105.504 50.7581 106.241 51.4953 106.241 52.4047C106.241 53.3142 105.504 54.0514 104.595 54.0514Z" fill="#FFD83D" stroke="black" stroke-width="0.6666666666666666" stroke-linecap="round" stroke-linejoin="round" />
<path d="M76.3128 39.8435L76.4661 41.9881C80.5628 41.3605 86.3708 39.0775 91.7844 39.0775C96.7864 39.0775 100.669 41.0785 100.669 46.1241C100.669 51.0971 98.5634 55.6191 95.7674 60.2175L98.6778 61.5961C101.279 56.5398 103.427 52.2455 103.427 46.4305C103.427 41.5638 99.5988 36.7798 93.0101 36.7798C87.1701 36.7798 81.2134 38.7478 76.3128 39.8435Z" fill="#FFD83D" stroke="black" stroke-width="0.6666666666666666" stroke-linecap="round" stroke-linejoin="round" />
<path d="M73.9896 17.7083L72.271 20.9269L73.9896 24.1353L75.7083 20.9269L73.9896 17.7083ZM73.9896 25.8333L72.271 29.0416L73.9896 32.2603L75.7083 29.0416L73.9896 25.8333ZM67.8623 24.9843L70.573 26.7029L73.2746 24.9843L70.573 23.2656L67.8623 24.9843ZM74.7043 24.9843L77.4063 26.7029L80.1166 24.9843L77.4063 23.2656L74.7043 24.9843Z" fill="#FFD83D" stroke="black" stroke-width="0.6666666666666666" stroke-linecap="round" stroke-linejoin="round" />
<path d="M73.9895 26.3249C74.7086 26.3249 75.2915 25.742 75.2915 25.0229C75.2915 24.3039 74.7086 23.7209 73.9895 23.7209C73.2704 23.7209 72.6875 24.3039 72.6875 25.0229C72.6875 25.742 73.2704 26.3249 73.9895 26.3249Z" fill="#FFD83D" stroke="black" stroke-width="0.6666666666666666" stroke-linecap="round" stroke-linejoin="round" />
<path d="M73.9899 36.8181C75.9146 36.8181 77.4749 35.2579 77.4749 33.3331C77.4749 31.4084 75.9146 29.8481 73.9899 29.8481C72.0652 29.8481 70.5049 31.4084 70.5049 33.3331C70.5049 35.2579 72.0652 36.8181 73.9899 36.8181Z" fill="#FFD83D" stroke="black" stroke-width="0.6666666666666666" stroke-linecap="round" stroke-linejoin="round" />
<path d="M73.1143 29.9583C73.1143 30.9963 73.1069 31.5996 73.1039 32.1666C72.2639 32.2039 71.4353 32.2923 70.6246 32.4269M77.3539 32.4269C76.5335 32.2904 75.7055 32.2035 74.8746 32.1666V29.9583M70.6143 34.1876C71.7296 34.0007 72.8584 33.9066 73.9893 33.9063C75.1393 33.9063 76.2659 34.0039 77.3643 34.1876" stroke="black" stroke-width="0.5" stroke-linecap="round" stroke-linejoin="round" />
<path d="M70.5829 39.2292C70.2523 44.9232 69.5799 50.7222 67.3643 54.9372L70.9683 53.4789C72.2273 48.7029 72.4916 42.5316 72.8746 39.6146L70.5829 39.2292ZM77.3956 39.2292L75.1039 39.6146C75.4866 42.5312 75.7513 48.7029 77.0099 53.4792L80.6143 54.9376C78.3983 50.7222 77.7259 44.9232 77.3956 39.2292Z" fill="#FFD83D" stroke="black" stroke-width="0.6666666666666666" stroke-linecap="round" stroke-linejoin="round" />
<path d="M73.9844 51.5626C69.68 51.5626 66.518 53.5913 66.328 58.7603C65.276 56.9086 60.8247 51.0853 56.672 51.8646C54.202 52.3279 52.0197 55.7533 52.3907 59.6769C50.3457 53.8003 44.355 52.8373 39.9844 56.3123C43.865 59.5033 45.5914 68.9239 48.8594 73.0103H99.1094C102.377 68.9239 104.114 59.5033 107.995 56.3123C103.624 52.8373 97.6337 53.8003 95.5887 59.6769C95.9597 55.7533 93.7667 52.3279 91.297 51.8646C87.144 51.0853 82.7034 56.9086 81.651 58.7603C81.461 53.5913 78.289 51.5623 73.9844 51.5623V51.5626Z" fill="#FFD83D" stroke="black" stroke-width="0.6666666666666666" stroke-linecap="round" stroke-linejoin="round" />
<path d="M99.0354 73.0086C99.0354 74.8686 87.8147 76.9146 73.9894 76.9146C60.164 76.9146 48.9434 74.8689 48.9434 73.0086C48.9434 71.1482 60.164 70.1746 73.9894 70.1746C87.8147 70.1746 99.0354 71.1479 99.0354 73.0086Z" fill="black" stroke="black" stroke-width="0.5" stroke-linecap="round" stroke-linejoin="round" />
<path d="M73.9893 39.3162C74.6344 39.3162 75.1573 38.7933 75.1573 38.1482C75.1573 37.5032 74.6344 36.9802 73.9893 36.9802C73.3442 36.9802 72.8213 37.5032 72.8213 38.1482C72.8213 38.7933 73.3442 39.3162 73.9893 39.3162Z" fill="#FFD83D" stroke="black" stroke-width="0.5" stroke-linecap="round" stroke-linejoin="round" />
<path d="M73.9888 41.9202C74.6762 41.9202 75.2335 41.363 75.2335 40.6756C75.2335 39.9882 74.6762 39.4309 73.9888 39.4309C73.3014 39.4309 72.7441 39.9882 72.7441 40.6756C72.7441 41.363 73.3014 41.9202 73.9888 41.9202Z" fill="#FFD83D" stroke="black" stroke-width="0.5" stroke-linecap="round" stroke-linejoin="round" />
<path d="M73.9895 44.7542C74.7405 44.7542 75.3492 44.1455 75.3492 43.3946C75.3492 42.6437 74.7405 42.0349 73.9895 42.0349C73.2386 42.0349 72.6299 42.6437 72.6299 43.3946C72.6299 44.1455 73.2386 44.7542 73.9895 44.7542Z" fill="#FFD83D" stroke="black" stroke-width="0.5" stroke-linecap="round" stroke-linejoin="round" />
<path d="M73.9895 47.9711C74.8461 47.9711 75.5405 47.2767 75.5405 46.4201C75.5405 45.5635 74.8461 44.8691 73.9895 44.8691C73.1329 44.8691 72.4385 45.5635 72.4385 46.4201C72.4385 47.2767 73.1329 47.9711 73.9895 47.9711Z" fill="#FFD83D" stroke="black" stroke-width="0.5" stroke-linecap="round" stroke-linejoin="round" />
<path d="M73.9895 51.4946C74.9308 51.4946 75.6938 50.7316 75.6938 49.7903C75.6938 48.849 74.9308 48.0859 73.9895 48.0859C73.0482 48.0859 72.2852 48.849 72.2852 49.7903C72.2852 50.7316 73.0482 51.4946 73.9895 51.4946Z" fill="#FFD83D" stroke="black" stroke-width="0.5" stroke-linecap="round" stroke-linejoin="round" />
<path d="M73.3122 53.0686C73.1279 53.0663 72.9536 53.2216 72.9996 53.5166C73.0539 53.8643 73.1219 54.515 73.1872 54.954C73.2606 55.4516 73.5506 55.3306 73.6246 54.9436C73.6982 54.5566 73.6686 54.3083 73.6872 53.5893C73.6962 53.23 73.4962 53.071 73.3122 53.0686ZM74.6662 53.0686C74.4819 53.071 74.2819 53.23 74.2912 53.5893C74.3096 54.3083 74.2799 54.5566 74.3539 54.9436C74.4272 55.3306 74.7176 55.4516 74.7912 54.954C74.8562 54.515 74.9246 53.8643 74.9789 53.5166C75.0249 53.2216 74.8506 53.0663 74.6662 53.0686ZM72.1039 53.256C71.9352 53.2793 71.7606 53.4493 71.7706 53.631C71.7889 53.963 71.8806 54.361 71.9162 54.8603C71.9529 55.3763 72.3169 55.176 72.3539 54.881C72.3906 54.5863 72.4322 54.1503 72.3956 53.579C72.3816 53.3646 72.2879 53.2706 72.1766 53.256C72.1524 53.2528 72.128 53.2528 72.1039 53.256ZM75.8016 53.256C75.6902 53.2703 75.5966 53.3646 75.5829 53.5793C75.5462 54.1503 75.5879 54.586 75.6246 54.881C75.6612 55.176 76.0252 55.3763 76.0622 54.8603C76.0979 54.3606 76.1896 53.963 76.2079 53.631C76.2179 53.4496 76.0432 53.2796 75.8746 53.256C75.8503 53.2528 75.8258 53.2528 75.8016 53.256ZM70.6559 53.8393C70.5016 53.8793 70.3596 54.065 70.4059 54.277C70.4979 54.701 70.5829 55.1696 70.5829 55.6C70.5829 55.9686 70.8979 55.837 70.9162 55.579C70.9478 55.1456 70.9651 54.7114 70.9682 54.277C70.9682 53.9053 70.8102 53.7996 70.6559 53.8393ZM77.2182 53.8393C77.1086 53.8696 77.0099 53.9983 77.0099 54.277C77.0099 54.7746 77.0439 55.321 77.0622 55.579C77.0806 55.837 77.3956 55.9686 77.3956 55.6C77.3956 55.1696 77.4802 54.701 77.5722 54.2766C77.6189 54.065 77.4769 53.8793 77.3222 53.8393C77.2883 53.8293 77.2522 53.8293 77.2182 53.8393ZM57.5206 53.8963C57.3356 53.8903 57.2062 54.141 57.3329 54.4173C57.5356 54.8596 57.7509 55.139 57.9579 55.6153C58.1422 56.039 58.4249 55.7746 58.3329 55.4796C58.2406 55.185 58.1406 54.8563 57.8642 54.2296C57.7606 53.9946 57.6312 53.9 57.5206 53.8963ZM90.4579 53.8963C90.3472 53.9 90.2179 53.9946 90.1142 54.2296C89.8376 54.8563 89.7375 55.185 89.6455 55.4796C89.5532 55.7746 89.8359 56.039 90.0205 55.6153C90.2272 55.1386 90.4426 54.8596 90.6455 54.4173C90.7722 54.1406 90.6426 53.8903 90.4579 53.8963ZM58.8539 53.9173C58.7179 53.9586 58.6352 54.1313 58.7182 54.334C58.8842 54.7393 59.1239 55.155 59.2912 55.5943C59.4386 55.9813 59.7666 55.8716 59.6559 55.5213C59.5452 55.1713 59.5126 54.9663 59.2912 54.3026C59.1806 53.971 58.9896 53.876 58.8539 53.9173ZM89.0205 53.9173C88.9039 53.942 88.7699 54.054 88.6872 54.3026C88.4659 54.966 88.4329 55.1713 88.3226 55.5213C88.2119 55.8713 88.5396 55.9813 88.6872 55.5946C88.8545 55.155 89.0939 54.7393 89.2599 54.334C89.3432 54.1313 89.2606 53.9586 89.1246 53.9173C89.0905 53.908 89.0546 53.908 89.0205 53.9173ZM60.5206 54.2403C60.3489 54.2726 60.2162 54.5343 60.3329 54.8546C60.4806 55.2603 60.6902 55.644 60.8746 56.1046C61.0589 56.5656 61.3649 56.4726 61.2912 56.178C61.2176 55.8826 61.1272 55.394 60.9059 54.657C60.8092 54.3343 60.6536 54.2146 60.5206 54.2403ZM87.4579 54.2403C87.3246 54.2146 87.1692 54.3343 87.0726 54.657C86.8512 55.394 86.7609 55.8826 86.6872 56.1776C86.6132 56.4726 86.9192 56.5656 87.1039 56.1046C87.2882 55.644 87.4979 55.2603 87.6455 54.8546C87.7622 54.5343 87.6292 54.2726 87.4579 54.2403ZM56.3956 54.4693C56.2099 54.4883 56.0406 54.791 56.1556 55.0213C56.3402 55.39 56.4569 55.5156 56.6349 55.907C56.8192 56.3123 57.0212 55.9983 56.9476 55.7403C56.8736 55.482 56.7792 55.1816 56.6872 54.813C56.6196 54.543 56.5069 54.4576 56.3956 54.4693ZM91.5829 54.4693C91.4716 54.458 91.3589 54.543 91.2912 54.813C91.1992 55.1816 91.1046 55.482 91.0309 55.7403C90.9569 55.9983 91.1589 56.3123 91.3432 55.907C91.5212 55.5156 91.6379 55.3903 91.8226 55.0213C91.9376 54.7913 91.7686 54.4883 91.5829 54.4693ZM69.2392 55.402C69.0446 55.402 68.8366 55.66 68.9059 55.902C69.0162 56.289 69.1872 56.632 69.3122 57.131C69.4226 57.5733 69.7369 57.353 69.7182 57.0583C69.6999 56.7633 69.6492 56.362 69.5206 55.735C69.4719 55.5003 69.3559 55.4023 69.2392 55.402ZM78.7392 55.402C78.6226 55.402 78.5062 55.5003 78.4579 55.7353C78.3289 56.362 78.2786 56.7633 78.2599 57.0583C78.2416 57.353 78.5556 57.5733 78.6662 57.131C78.7909 56.6323 78.9619 56.289 79.0726 55.902C79.1416 55.66 78.9339 55.402 78.7392 55.402ZM73.9892 55.7976C73.7492 55.7976 73.7162 56.1196 73.7079 56.381C73.6802 57.2383 73.3246 58.0706 73.0206 58.4853C72.7162 58.9 72.2686 58.7896 71.8539 58.5686C71.4389 58.3473 71.1919 58.182 70.7496 57.85C70.3072 57.518 69.9716 57.712 70.4996 58.4643C72.0386 60.6576 73.7079 62.5326 73.7079 66.1103C73.7079 66.573 73.7886 66.7143 73.9892 66.7143C74.1896 66.7143 74.2809 66.573 74.2809 66.1103C74.2809 62.5326 75.9396 60.658 77.4789 58.4643C78.0066 57.712 77.6712 57.518 77.2289 57.85C76.7866 58.1816 76.5392 58.3473 76.1246 58.5686C75.7099 58.7896 75.2619 58.9 74.9579 58.4853C74.6536 58.0706 74.2979 57.2383 74.2706 56.381C74.2619 56.1196 74.2289 55.7976 73.9892 55.7976ZM62.2289 55.261C62.2076 55.2611 62.1864 55.2645 62.1662 55.2713C62.0766 55.2996 62.0169 55.408 62.0516 55.5946C62.1136 55.9283 62.3449 56.5833 62.4372 56.8963C62.5292 57.2096 62.9146 57.143 62.8226 56.7196C62.7302 56.2953 62.7352 56.1673 62.6246 55.688C62.5642 55.426 62.3756 55.2646 62.2289 55.261ZM85.7496 55.261C85.6029 55.265 85.4142 55.426 85.3539 55.688C85.2432 56.1673 85.2479 56.2953 85.1559 56.7193C85.0636 57.1433 85.4492 57.21 85.5412 56.8963C85.6332 56.583 85.8646 55.9283 85.9266 55.5943C85.9612 55.4076 85.9016 55.2996 85.8122 55.2713C85.792 55.2646 85.7708 55.2609 85.7496 55.261ZM55.2392 55.3963C55.0462 55.4116 54.9079 55.654 55.1039 56.011C55.3149 56.3966 55.6772 56.8803 55.8432 57.157C56.0092 57.4333 56.2962 57.247 56.0932 56.8963C55.8906 56.5463 55.8226 56.144 55.5829 55.6463C55.4929 55.4596 55.3549 55.3873 55.2392 55.3963ZM92.7392 55.3963C92.6232 55.3873 92.4852 55.4596 92.3955 55.6463C92.1555 56.144 92.0876 56.5463 91.8849 56.8963C91.6822 57.2466 91.9692 57.433 92.1349 57.157C92.3009 56.8803 92.6632 56.3966 92.8746 56.011C93.0706 55.654 92.9322 55.4116 92.7392 55.3963ZM44.6766 56.5063C44.4539 56.4943 44.3842 56.8963 44.5932 57.1623C44.8976 57.5493 45.1092 57.7546 45.4579 58.0686C45.7346 58.3173 45.8146 57.9946 45.6766 57.7456C45.5386 57.497 45.3386 57.244 45.0622 56.829C44.9106 56.6016 44.7779 56.512 44.6766 56.5063ZM103.302 56.5063C103.201 56.5116 103.068 56.6016 102.916 56.829C102.64 57.244 102.44 57.497 102.302 57.7456C102.164 57.9946 102.244 58.3173 102.521 58.0686C102.869 57.7546 103.081 57.5493 103.385 57.1623C103.594 56.8963 103.524 56.4946 103.302 56.5063ZM46.3539 56.8396C46.1762 56.8416 46.0592 56.973 46.1972 57.277C46.3956 57.7123 46.6566 58.2056 46.8226 58.5373C46.9882 58.869 47.4939 58.9806 47.2912 58.4643C47.0886 57.9483 47.0486 57.6833 46.8642 57.2043C46.7719 56.9643 46.5309 56.8373 46.3539 56.8396ZM101.625 56.8396C101.447 56.837 101.206 56.9643 101.114 57.204C100.93 57.6833 100.89 57.9483 100.687 58.4643C100.484 58.9806 100.99 58.869 101.156 58.5376C101.322 58.2056 101.583 57.7123 101.781 57.277C101.919 56.9726 101.802 56.842 101.625 56.8396ZM43.1039 56.954C42.8459 56.9566 42.8239 57.2153 43.0516 57.381C43.3559 57.6023 43.7182 57.8476 44.0726 58.131C44.4872 58.463 44.6479 58.1576 44.4266 57.881C44.2056 57.6046 43.9899 57.3243 43.4372 57.0476C43.2989 56.9786 43.1896 56.953 43.1039 56.9543V56.954ZM104.875 56.954C104.789 56.9533 104.68 56.9786 104.541 57.0476C103.988 57.3243 103.773 57.6046 103.552 57.881C103.331 58.1576 103.491 58.463 103.906 58.131C104.26 57.8476 104.623 57.6023 104.927 57.381C105.155 57.2153 105.133 56.9566 104.875 56.9543V56.954ZM68.3226 57.1936C68.1782 57.2136 68.0536 57.3776 68.1142 57.5893C68.2246 57.9763 68.3502 58.3866 68.4266 58.7873C68.5006 59.1746 68.9482 59.1793 68.8746 58.829C68.8012 58.479 68.7639 58.0406 68.6349 57.506C68.5866 57.3056 68.4856 57.2093 68.3849 57.1936C68.3642 57.1906 68.3432 57.1906 68.3226 57.1936ZM79.5932 57.1936C79.4929 57.2093 79.3916 57.3056 79.3432 57.506C79.2146 58.0406 79.1772 58.479 79.1039 58.8293C79.0299 59.1793 79.4779 59.1746 79.5516 58.7873C79.6282 58.3866 79.7536 57.9763 79.8642 57.5893C79.9246 57.3776 79.8002 57.2136 79.6559 57.1936C79.6351 57.1905 79.614 57.1905 79.5932 57.1936ZM58.2912 56.532C58.1779 56.5633 58.1126 56.78 58.1976 57.084C58.6676 58.7706 58.8116 59.6586 58.7289 60.0736C58.6456 60.4883 58.4182 60.545 58.1142 60.407C57.787 60.257 57.4733 60.0793 57.1766 59.8756C56.9002 59.682 56.6126 59.9136 57.0099 60.2403C59.0282 61.899 60.4272 63.795 60.9682 66.0943C61.0789 66.5643 61.3742 66.6196 61.2912 66.0943C60.8339 63.1976 60.7459 60.8166 61.4372 59.3236C61.6969 58.7623 61.4352 58.2236 61.0206 59.136C60.7439 59.7443 60.2966 59.9843 59.9372 59.459C59.5776 58.9336 58.8352 57.5323 58.6139 56.8963C58.5312 56.658 58.4289 56.5476 58.3432 56.532C58.3261 56.5281 58.3083 56.5281 58.2912 56.532ZM89.6349 56.532C89.5496 56.5476 89.4472 56.658 89.3642 56.8963C89.1429 57.5323 88.4009 58.9336 88.0412 59.459C87.6816 59.9843 87.2346 59.7443 86.9579 59.136C86.5432 58.2236 86.2812 58.7626 86.5412 59.3236C87.2326 60.8166 87.1446 63.1976 86.6872 66.0943C86.6039 66.6196 86.8996 66.5643 87.0099 66.0943C87.5509 63.795 88.9499 61.899 90.9682 60.2403C91.3656 59.9136 91.0782 59.682 90.8016 59.8756C90.5252 60.069 90.1682 60.2686 89.8642 60.407C89.5602 60.545 89.3326 60.4883 89.2496 60.0736C89.1666 59.6586 89.3109 58.7703 89.7809 57.0836C89.8656 56.78 89.8002 56.5633 89.6872 56.532C89.67 56.528 89.6521 56.528 89.6349 56.532ZM48.1456 57.3393C47.9632 57.3416 47.8122 57.4693 47.8956 57.746C48.0282 58.1886 48.3032 58.6673 48.3956 58.9436C48.4876 59.2203 48.7839 59.091 48.7289 58.704C48.6736 58.3173 48.6462 58.0863 48.5722 57.6623C48.5356 57.4503 48.3276 57.337 48.1456 57.3393ZM99.8329 57.3393C99.6509 57.337 99.4429 57.4503 99.4059 57.6626C99.3319 58.0863 99.3049 58.317 99.2496 58.704C99.1942 59.091 99.4906 59.22 99.5829 58.9436C99.6749 58.667 99.9499 58.1886 100.083 57.7456C100.166 57.469 100.015 57.3416 99.8329 57.3393ZM54.4059 56.761C54.1942 56.723 54.1636 57.269 54.3432 57.4903C54.5832 57.7853 54.9159 58.1416 55.2496 58.5423C55.5262 58.874 55.6969 58.579 55.5309 58.3026C55.3649 58.026 55.1189 57.7323 54.6766 57.032C54.5659 56.8566 54.4766 56.7736 54.4059 56.761ZM93.5726 56.761C93.5019 56.7736 93.4126 56.8566 93.3016 57.032C92.8592 57.732 92.6132 58.026 92.4476 58.3026C92.2816 58.5793 92.4522 58.874 92.7289 58.5423C93.0622 58.1416 93.3956 57.7853 93.6349 57.4903C93.8149 57.269 93.7842 56.723 93.5726 56.761ZM49.5726 58.079C49.4412 58.0696 49.3296 58.1763 49.3849 58.4436C49.4622 58.8156 49.5739 59.1246 49.6662 59.475C49.7582 59.825 49.9996 59.765 49.9996 59.4333C49.9996 59.1013 49.9402 58.7313 49.8849 58.381C49.8572 58.206 49.7039 58.0883 49.5726 58.079ZM98.4059 58.079C98.2746 58.0883 98.1209 58.206 98.0932 58.381C98.0379 58.7313 97.9785 59.1013 97.9789 59.4333C97.9789 59.765 98.2199 59.825 98.3122 59.475C98.4042 59.1246 98.5162 58.8156 98.5932 58.4436C98.6486 58.1763 98.5372 58.0696 98.4059 58.079ZM53.9372 58.5526C53.7306 58.584 53.5492 58.7833 53.7912 59.0943C54.1782 59.592 54.6019 59.941 54.7496 60.1256C54.8969 60.31 55.2706 60.242 55.0309 59.8546C54.7859 59.4593 54.4156 58.983 54.2496 58.688C54.1872 58.5776 54.0609 58.534 53.9372 58.5526ZM93.9579 58.5526C93.8672 58.5623 93.7752 58.6053 93.7289 58.688C93.5629 58.983 93.1922 59.4593 92.9476 59.8546C92.7076 60.242 93.0812 60.31 93.2289 60.1256C93.3762 59.9413 93.7999 59.592 94.1872 59.0943C94.4289 58.7833 94.2472 58.584 94.0412 58.5526C94.0136 58.5487 93.9855 58.5487 93.9579 58.5526ZM47.0516 59.9436C46.8889 59.929 46.8326 60.0603 47.0516 60.3603C47.5492 61.0423 48.0982 62.0743 48.1349 62.5166C48.1719 62.959 47.9532 62.954 47.7496 62.954C47.1412 62.954 46.8442 62.51 46.2912 62.381C45.7382 62.252 45.6579 62.543 46.0516 62.829C48.0792 64.3036 50.1112 65.949 50.9266 67.4436C51.2582 68.052 51.7066 68.2743 51.4579 67.6936C50.6956 65.9146 50.5109 64.408 50.6766 63.4956C50.8426 62.5833 51.0689 61.969 51.0412 61.4436C51.0136 60.9183 50.7156 60.9543 50.5932 61.4436C50.5102 61.7753 50.3499 62.215 50.2392 62.381C50.1286 62.547 49.6839 62.64 49.2599 62.0686C48.8359 61.4973 47.7666 60.397 47.4162 60.1206C47.2849 60.0173 47.1496 59.9523 47.0516 59.9436ZM100.927 59.9436C100.829 59.9523 100.693 60.017 100.562 60.1206C100.212 60.3973 99.1422 61.4973 98.7182 62.0686C98.2942 62.64 97.8496 62.547 97.7392 62.381C97.6286 62.215 97.4679 61.7753 97.3849 61.4436C97.2626 60.9543 96.9649 60.9183 96.9372 61.4436C96.9095 61.969 97.1356 62.5833 97.3016 63.4956C97.4676 64.408 97.2829 65.9146 96.5205 67.6936C96.2715 68.2743 96.7199 68.052 97.0516 67.4436C97.8672 65.9486 99.8992 64.3036 101.927 62.829C102.32 62.543 102.24 62.2523 101.687 62.381C101.134 62.51 100.837 62.9543 100.229 62.9543C100.025 62.9543 99.8062 62.959 99.8432 62.5166C99.8799 62.0743 100.429 61.0423 100.927 60.36C101.146 60.06 101.09 59.9293 100.927 59.9436Z" fill="black" />
<path d="M50.042 70.8835L50.692 72.9415L50.042 70.8835ZM51.3787 70.4935L51.9547 72.5735L51.3787 70.4935ZM52.823 70.2558L53.2187 72.3775L52.823 70.2558ZM54.163 69.9878L54.5863 72.1042L54.163 69.9878ZM55.8817 69.8182L56.2257 71.9488L55.8817 69.8182ZM57.7097 69.8205L58.0803 71.9465L57.7097 69.8205ZM59.4943 69.2168L59.762 71.3585L59.4943 69.2168ZM61.1733 69.3252L61.441 71.4668L61.1733 69.3252ZM62.798 69.1088L63.066 71.2502L62.798 69.1088ZM64.429 68.9402L64.5763 71.0935L64.429 68.9402ZM66.1717 68.9398L66.2997 71.0942L66.1717 68.9398ZM67.752 68.8308L67.8607 70.9865L67.752 68.8308ZM69.494 68.7222L69.5847 70.8788L69.494 68.7222ZM71.498 68.6682L71.5887 70.8245L71.498 68.6682ZM97.9367 70.8835L97.2867 72.9415L97.9367 70.8835ZM96.6 70.4935L96.0237 72.5735L96.6 70.4935ZM95.1557 70.2558L94.76 72.3775L95.1557 70.2558ZM93.8157 69.9878L93.3923 72.1042L93.8157 69.9878ZM92.097 69.8182L91.7527 71.9488L92.097 69.8182ZM90.2687 69.8205L89.898 71.9465L90.2687 69.8205ZM88.4843 69.2168L88.2163 71.3585L88.4843 69.2168ZM86.8053 69.3252L86.5373 71.4668L86.8053 69.3252ZM85.1807 69.1088L84.9127 71.2502L85.1807 69.1088ZM83.5493 68.9402L83.4023 71.0935L83.5493 68.9402ZM81.8067 68.9398L81.679 71.0942L81.8067 68.9398ZM80.2267 68.8308L80.1177 70.9865L80.2267 68.8308ZM78.4843 68.7222L78.394 70.8788L78.4843 68.7222ZM76.4807 68.6682L76.39 70.8245L76.4807 68.6682ZM73.9893 68.5278V70.9022V68.5278Z" fill="#FFD83D" />
<path d="M50.042 70.8835L50.692 72.9415M51.3787 70.4935L51.9547 72.5735M52.823 70.2558L53.2187 72.3775M54.163 69.9878L54.5863 72.1042M55.8817 69.8182L56.2257 71.9488M57.7097 69.8205L58.0803 71.9465M59.4943 69.2168L59.762 71.3585M61.1733 69.3252L61.441 71.4668M62.798 69.1088L63.066 71.2502M64.429 68.9402L64.5763 71.0935M66.1717 68.9398L66.2997 71.0942M67.752 68.8308L67.8607 70.9865M69.494 68.7222L69.5847 70.8788M71.498 68.6682L71.5887 70.8245M97.9367 70.8835L97.2867 72.9415M96.6 70.4935L96.0237 72.5735M95.1557 70.2558L94.76 72.3775M93.8157 69.9878L93.3923 72.1042M92.097 69.8182L91.7527 71.9488M90.2687 69.8205L89.898 71.9465M88.4843 69.2168L88.2163 71.3585M86.8053 69.3252L86.5373 71.4668M85.1807 69.1088L84.9127 71.2502M83.5493 68.9402L83.4023 71.0935M81.8067 68.9398L81.679 71.0942M80.2267 68.8308L80.1177 70.9865M78.4843 68.7222L78.394 70.8788M76.4807 68.6682L76.39 70.8245M73.9893 68.5278V70.9022" stroke="black" stroke-width="0.5" stroke-linecap="round" stroke-linejoin="round" />
</g></svg>