<svg width="300" height="200" viewBox="0 0 300 200" fill="none"
    xmlns="http://www.w3.org/2000/svg">
    <g clip-path="url(#clip0_78_1729)">
        <path d="M84.7822 77.7608L150 65.2782V90.2435L84.7822 77.7608Z" fill="#FCD116"/>
        <path d="M89.7466 52.8032L154.776 66.2284L145.223 89.2933L89.7466 52.8032Z" fill="#FCD116"/>
        <path d="M103.884 31.6452L158.826 68.9343L141.173 86.5874L103.884 31.6452Z" fill="#FCD116"/>
        <path d="M125.042 17.5078L161.532 72.984L138.467 82.5377L125.042 17.5078Z" fill="#FCD116"/>
        <path d="M150 12.5435L162.482 77.7608H137.517L150 12.5435Z" fill="#FCD116"/>
        <path d="M174.957 17.5078L161.532 82.5377L138.467 72.984L174.957 17.5078Z" fill="#FCD116"/>
        <path d="M196.115 31.6452L158.826 86.5874L141.173 68.9343L196.115 31.6452Z" fill="#FCD116"/>
        <path d="M210.253 52.8032L154.777 89.2933L145.223 66.2284L210.253 52.8032Z" fill="#FCD116"/>
        <path d="M215.217 77.7608L150 90.2435V65.2782L215.217 77.7608Z" fill="#FCD116"/>
    </g>
    <defs>
        <clipPath id="clip0_78_1729">
            <rect width="300" height="78" fill="white"/>
        </clipPath>
    </defs>
</svg>
