<svg width="300" height="200" viewBox="0 0 300 200" fill="none"
    xmlns="http://www.w3.org/2000/svg">
    <path fill-rule="evenodd" clip-rule="evenodd" d="M187.42 137.5C187.417 137.501 187.411 137.509 187.408 137.511C184.993 138.034 185.068 140.147 186.618 141.078C161.116 141.078 121.98 140.713 113.587 140.713C108.891 140.713 94.036 140.24 93.75 140.24C96.936 144.173 101.551 144.974 107.59 145.054L186.337 144.936C185.276 146.527 186.434 149.091 187.267 149.557C187.284 149.567 187.313 149.582 187.33 149.589C187.362 149.604 187.397 149.615 187.432 149.621C187.442 149.623 187.461 149.62 187.47 149.621C188.459 149.818 188.894 149.214 189.227 148.772C190.832 148.891 199.86 149.001 200.686 148.762C200.689 148.761 200.696 148.752 200.699 148.751C201.258 149.445 201.812 150.101 202.876 149.987C204.738 149.65 206.204 149.479 206.25 146.29C206.25 146.29 206.06 140.857 201.832 141.197C200.832 141.325 198.025 141.563 198.025 141.563C194.777 141.236 192.394 141.203 188.743 141.09C189.08 140.729 189.675 139.266 188.947 138.736C188.757 138.603 188.474 138.529 188.081 138.554H188.069C188.063 138.554 188.048 138.554 188.043 138.554C188.04 138.553 188.033 138.544 188.031 138.543C188.021 138.54 188.002 138.537 187.993 138.532C187.969 138.517 187.948 138.499 187.929 138.479C187.925 138.474 187.908 138.462 187.904 138.457C187.719 138.231 187.618 137.674 187.496 137.533L187.484 137.523C187.482 137.522 187.472 137.513 187.471 137.512C187.463 137.508 187.454 137.504 187.446 137.501H187.42L187.42 137.5ZM189.152 145.27C189.156 145.268 189.16 145.271 189.164 145.27C192.885 145.423 196.38 145.299 200.101 145.452C200.691 145.875 200.396 146.844 200.012 147.021C199.991 147.03 199.97 147.037 199.949 147.043C199.935 147.046 199.915 147.042 199.898 147.043C199.881 147.043 199.864 147.046 199.847 147.043L196.727 146.968C196.727 146.917 196.718 146.866 196.702 146.817C196.415 146.1 194.339 146.148 193.85 146.71C193.841 146.72 193.833 146.731 193.825 146.742C193.815 146.755 193.806 146.77 193.799 146.785C193.79 146.802 193.781 146.82 193.774 146.838C193.766 146.86 193.764 146.891 193.761 146.914C193.758 146.942 193.746 146.972 193.748 147C192.119 147.165 190.645 146.954 189.012 146.903C188.537 146.4 188.589 145.489 189.152 145.27H189.152Z" fill="white"/>
</svg>