
<svg width="300" height="200" viewBox="0 0 300 200" fill="none" xmlns="http://www.w3.org/2000/svg">
<path d="M200.72 86.2135C201.235 86.4661 202.588 84.9335 202.54 83.0085C202.689 82.0212 202.158 78.3742 200.808 77.7558C200.65 77.704 200.483 77.687 200.318 77.7058C199.612 77.8001 198.945 78.4002 199.251 79.3828C199.058 79.9592 200.209 81.9785 200.507 83.0505C200.775 83.8135 200.161 85.9705 200.72 86.1972L200.72 86.2135ZM94.1752 55.2481C95.8275 55.9735 98.9262 55.6688 98.7952 53.2121C98.7952 52.9995 98.7432 52.2648 98.7195 52.0665C98.5515 51.7051 98.2392 51.5681 97.9412 51.6151L97.9445 51.6158C97.6432 51.6658 97.3585 51.8945 97.2538 52.2631C97.1875 52.5088 97.3672 52.9151 97.1285 53.0378C96.9915 53.1798 96.4665 53.0878 96.4882 52.4025C96.4882 52.1901 96.3155 51.9605 96.2118 51.8238C96.1082 51.7531 96.0372 51.7295 95.8478 51.7295C95.6188 51.7355 95.6235 51.7998 95.4965 51.9725C95.4398 52.1381 95.3688 52.3318 95.3688 52.5391C95.3408 52.7798 95.2365 52.8632 95.0422 52.8982C94.8275 52.8982 94.8748 52.9168 94.7035 52.8038C94.6042 52.6855 94.4792 52.6618 94.4792 52.4798C94.4792 52.3145 94.4272 51.9981 94.3658 51.8775C94.2735 51.7595 94.1318 51.7118 93.9642 51.6648C93.0618 51.6681 92.9958 52.6215 93.0475 52.9831C92.9818 53.0538 92.9462 54.7405 94.1778 55.2155L94.1752 55.2481ZM80.9312 55.1538C81.1845 55.7352 80.6802 57.6072 81.2075 57.7802C81.6922 57.9688 82.3598 56.4831 82.6135 55.1075C82.7532 54.3538 82.6468 51.7752 80.7435 51.2428C80.6442 51.2242 80.5448 51.1928 80.4418 51.1928C79.7138 51.1741 78.9105 51.5895 79.2238 52.3952C79.0418 52.8345 80.6488 54.3182 80.9312 55.1378V55.1538ZM139.283 55.8462C140.232 53.4828 140.236 52.4755 140.3 51.4728C140.153 50.7102 139.792 50.3415 139.384 50.3722C138.975 50.4222 138.523 50.8422 138.154 51.6905C137.837 52.3378 137.45 55.7051 137.513 55.7051C137.26 56.7091 138.65 57.1318 139.283 55.8472V55.8462ZM127.494 55.1871C127.963 55.8058 128.425 55.7421 129.364 55.3051C129.904 54.9388 130.086 54.7025 130.268 54.0885C130.492 53.0585 129.091 54.5751 128.912 53.4271C128.599 52.3618 129.493 51.9248 130.343 50.8931C130.362 50.4088 130.371 50.0122 130.03 50.0002C129.874 49.9962 129.641 50.0708 129.314 50.2528C128.58 50.7042 127.124 52.1048 127.079 53.7121C127.034 54.6191 126.85 54.6145 127.493 55.1935L127.494 55.1871ZM79.3135 71.4588C84.1365 71.8862 81.4722 63.9452 83.2182 62.5035C83.5482 61.7925 84.1598 61.7781 84.2098 62.6691V69.4145C84.1648 71.6065 85.7315 72.2591 86.9465 72.7121C88.2112 72.6178 89.0498 72.6415 89.5455 73.7872L90.1482 85.4612C90.1482 85.4612 93.0715 86.2335 93.2115 78.9008C93.3505 74.5942 92.2805 70.9801 92.9102 70.1425C92.9318 69.3205 94.0775 69.2778 94.8685 69.6791C96.1292 70.4991 96.6885 71.5075 98.6472 71.1015C101.628 70.3455 103.424 69.0108 103.468 66.9015C103.296 64.8958 103.042 62.8898 102.1 60.8848C102.23 60.5212 101.529 59.5738 101.66 59.2075C102.196 59.9825 103.006 59.9162 103.192 59.2075C102.685 57.6675 101.895 56.1901 100.619 55.5515C99.5638 54.6941 98.0198 54.8735 97.4548 56.6618C97.1925 58.7195 98.2642 61.1591 99.8902 63.1525C100.236 63.9295 100.719 65.2265 100.505 66.3925C99.6395 66.8478 98.7818 66.6565 98.0568 65.9528C98.0568 65.9528 95.6845 64.3161 95.6845 63.9521C96.3135 60.2365 95.8188 59.8115 95.4718 58.7798C95.2282 57.3578 94.4962 56.9065 93.9029 55.9338C93.3092 55.3552 92.5042 55.3552 92.1202 55.9338C91.0715 57.6085 91.5635 61.2095 92.3212 62.8182C92.8685 64.2992 93.7078 65.2248 93.3128 65.2248C92.9872 66.0608 92.3088 65.8672 91.8188 64.9008C91.1198 62.9025 90.9775 59.9258 90.9775 58.5835C90.7699 56.9205 90.5342 53.3651 89.3455 52.4631C89.0288 52.0638 88.6542 51.9268 88.2912 51.9648C87.8245 52.0148 87.3848 52.3645 87.1738 52.8318C87.0962 54.4832 87.0865 56.1348 87.2872 57.6568C88.1025 60.3261 88.3605 62.6745 88.7562 65.4082C88.8649 69.0705 86.4615 66.9908 86.5715 65.1722C87.1268 62.8145 86.9732 59.1015 86.4842 58.1605C86.0932 57.2205 85.6408 56.9865 84.6888 57.1425C83.9332 57.0925 81.9828 59.0605 81.4375 62.3028C81.4375 62.3028 80.9832 63.9681 80.7845 65.4501C80.5178 67.1248 79.3132 68.3115 78.4745 65.2135C77.7495 62.9672 77.3035 57.4272 76.0892 58.7235C75.7412 63.0478 75.3285 70.6578 79.3155 71.4388L79.3135 71.4588ZM110.386 64.1205C110.388 64.1215 110.396 64.1198 110.399 64.1205C110.401 64.1215 110.409 64.1328 110.411 64.1328C110.413 64.1338 110.42 64.1328 110.424 64.1328L110.436 64.1455C110.75 64.3341 114.616 64.3342 115.044 64.1578C115.047 64.1558 115.054 64.1455 115.056 64.1455C115.058 64.1435 115.067 64.1461 115.069 64.1455C115.07 64.1448 115.068 64.1328 115.069 64.1328C116.397 63.6815 122.701 57.0405 122.701 57.0405C122.375 56.7828 122.074 56.5915 121.747 56.3338C121.397 56.0528 121.433 55.7815 121.747 55.5005C123.309 54.6638 122.814 52.8201 121.998 51.9825C121.322 51.7038 120.686 51.6095 120.115 51.6352C119.591 51.6511 119.077 51.7816 118.609 52.0175C117.514 52.9838 117.257 54.5335 118.119 55.5002C118.959 55.8642 119.793 56.6435 119.236 57.0735C116.86 59.4098 110.685 63.3145 110.373 64.0268C110.37 64.0338 110.366 64.0403 110.361 64.0458C110.36 64.0512 110.361 64.0645 110.361 64.0708V64.0832C110.364 64.0898 110.368 64.0958 110.373 64.1081L110.386 64.1208V64.1205ZM119.74 53.7105C119.767 53.7052 119.79 53.6982 119.816 53.6982C120.202 53.6482 120.667 53.9888 120.896 54.4492C121.139 54.9405 121.016 55.4108 120.619 55.5028C120.222 55.5972 119.708 55.2665 119.465 54.7752C119.221 54.2842 119.344 53.7995 119.741 53.7098L119.74 53.7105ZM128.46 68.0181C130.389 68.7528 131.613 65.3705 132.402 61.6665C132.942 60.6248 133.355 60.5091 133.632 61.0405C133.562 65.9671 134.016 67.0662 135.39 68.5612C138.456 70.7412 140.992 68.8371 141.19 68.6555L143.576 66.4562C144.107 65.9412 144.809 65.9105 145.559 66.3618C146.288 66.9712 146.195 68.0272 147.756 68.7572C149.07 69.2415 151.876 68.8752 152.527 67.8312C153.403 66.4468 153.615 65.9722 154.021 65.4475C154.646 64.6798 155.716 65.0225 155.716 65.2825C155.617 65.7098 154.988 66.1305 155.415 66.9028C156.158 67.4155 156.331 67.0685 156.771 66.9735C158.326 66.2885 159.495 63.1785 159.495 63.1785C159.563 62.0185 158.847 62.1085 158.39 62.3445C157.793 62.6818 157.757 62.7958 157.16 63.1311C156.399 63.2491 154.926 63.6978 154.197 62.6561C153.452 61.4065 153.448 59.6635 152.879 58.3985C152.879 58.3041 151.884 56.4142 152.803 56.2938C153.267 56.3882 154.265 56.6101 154.422 55.8425C154.909 55.0938 153.372 52.9692 152.326 51.8972C151.417 50.9782 150.163 50.8671 148.949 51.8028C148.099 52.5231 148.224 53.3312 148.057 54.0942C147.842 54.9708 147.883 56.0571 148.848 57.2181C149.697 58.7581 151.24 60.7408 150.732 63.5348C150.732 63.5348 149.835 64.8628 148.258 64.6925C147.602 64.5508 146.531 64.2981 145.961 60.4235C145.53 57.4905 146.068 53.3808 144.718 51.4568C144.417 50.7318 144.151 50.0255 143.714 50.0798C143.451 50.0985 143.13 50.4172 142.684 51.1688C142.365 51.9482 140.987 53.1295 141.981 55.5655C142.795 57.1082 143.129 59.6195 142.76 62.4148C142.196 63.2081 142.067 63.4848 141.329 64.2761C140.291 65.3061 139.166 65.0415 138.303 64.6585C137.497 64.1581 136.864 63.9005 136.495 62.3105C136.562 59.7745 136.72 55.6245 136.219 54.7438C135.478 53.3805 134.256 53.8695 133.734 54.2805C131.224 56.3945 129.984 59.9661 129.226 62.8071C128.53 64.8741 127.789 64.2788 127.268 63.4428C126 62.3465 125.911 53.7858 124.38 55.1935C121.929 61.6505 125.787 68.7238 128.46 68.0361V68.0181ZM118.359 63.4168C116.898 64.1445 116.332 66.3068 117.242 67.5705C118.092 68.6808 119.436 68.2772 119.615 68.2772C121.046 68.4425 121.9 65.8012 121.9 65.8012C121.9 65.8012 121.942 65.0568 120.242 66.4601C119.527 66.6018 119.43 66.3418 119.251 65.9758C119.102 65.2885 119.135 64.5915 119.475 63.9065C119.633 63.4952 119.476 63.2332 119.136 63.1998C118.935 63.1815 118.665 63.2498 118.358 63.4125L118.359 63.4168ZM212.8 96.3845C212.487 96.0538 211.781 96.2425 211.306 96.2188C211.082 96.2188 210.336 96.1008 210.692 95.5125C210.986 95.1368 211.095 94.9125 211.294 94.4472C211.516 93.9938 211.32 93.6888 210.516 93.4408C210.106 93.3702 209.822 93.3465 209.524 93.3465C209.226 93.3592 208.912 93.3965 208.457 93.4408C207.965 93.5352 207.793 93.7358 207.704 94.2842C207.739 95.1182 208.293 95.0755 208.859 95.4061C209.187 95.7911 209.4 96.1385 208.833 96.7695L207.376 97.9268C207.123 98.3235 206.965 98.9378 207.74 99.1292C209.172 99.4998 212.485 97.5158 212.485 97.4732C213.022 97.1025 212.844 96.3985 212.8 96.3985L212.8 96.3845ZM223.083 61.5298C222.975 60.7928 222.621 59.1008 222.757 58.8798C222.974 58.3621 224.082 58.9298 224.477 58.3365C225.055 57.7911 221.614 53.7325 220.409 51.9965C220.168 51.5618 220.02 51.2025 219.806 51.2215C219.641 51.2338 219.438 51.4838 219.128 52.0881C218.383 53.2148 218.124 55.2272 218.425 57.0058C220.219 68.1882 221.552 79.0165 221.827 88.9278C221.674 89.8678 221.629 90.3685 221.149 91.5538C220.091 92.8031 218.924 94.3728 217.823 95.1288C216.723 95.8848 214.383 96.6055 213.617 97.1652C211.189 98.4595 211.173 99.9458 213.14 99.9998C216.523 99.6385 220.526 99.3831 223.284 95.5455C224.022 94.4708 224.89 91.5555 224.929 89.7721C225.187 79.3138 224.784 69.0881 223.083 61.5298H223.083ZM76.6338 82.0365L89.1878 76.4831C88.5015 75.5385 89.1455 74.6882 86.5645 74.6198C82.5972 74.6902 76.7872 79.4122 76.6338 82.0358V82.0365ZM78.8702 94.0211C77.8265 95.9745 77.3922 94.6375 77.3012 93.5462C77.1428 91.4768 77.3578 89.5712 77.6025 88.0622C77.7325 87.2875 77.7278 87.0182 77.6288 87.0205C77.5295 87.0238 77.3288 87.2992 77.0638 87.6062C74.7038 91.0718 74.4938 96.2442 75.7958 97.7878C76.4882 98.5178 77.6288 98.8365 78.4698 98.6098C79.9528 98.0165 80.6042 95.2491 80.2522 94.2365C79.7575 93.5208 79.3652 93.4098 78.8712 94.0242L78.8702 94.0211ZM108.464 88.8132C110.183 83.5385 108.429 79.5595 109.004 79.0715C109.009 79.0675 109.024 79.0652 109.031 79.0588C109.036 79.0555 109.05 79.0528 109.057 79.0465C109.063 79.0438 109.076 79.0338 109.083 79.0338C109.108 79.0265 109.133 79.0224 109.159 79.0215C111.28 81.1262 114.256 79.2882 114.908 78.5582C115.188 78.1948 115.888 77.9582 116.377 78.4165C118.032 79.5125 120.931 78.9952 121.537 77.0632C121.887 75.1732 122.182 73.2272 122.252 71.2088C121.174 71.5182 120.305 71.7495 119.955 72.0875C119.872 72.1818 119.811 72.2532 119.792 72.3665L119.516 74.0435C119.507 74.0935 119.49 74.1378 119.466 74.1855C119.417 74.2562 119.346 74.3272 119.266 74.3512C118.885 74.5398 118.22 74.4455 118.186 73.9235C117.674 71.7761 115.564 71.4958 114.282 74.8258C113.419 75.4708 111.846 75.5958 111.683 74.6372C111.891 72.4025 110.913 72.1035 108.959 73.1561L107.076 60.0825C107.892 60.0638 108.64 60.6045 109.386 59.7445C108.582 57.4295 106.871 52.7235 105.908 52.2815C105.901 52.2785 105.891 52.2755 105.882 52.2691C105.839 52.2195 105.793 52.1721 105.745 52.1272C105.722 52.1141 105.701 52.0972 105.684 52.0771C105.666 52.0648 105.639 52.0585 105.623 52.0272C105.583 52.0085 105.54 51.9772 105.497 51.9772C105.412 51.9585 105.323 51.9585 105.234 51.9585H105.234C104.995 51.9772 104.73 52.1005 104.418 52.1712C103.393 52.4735 102.433 53.2885 102.736 54.8785L105.95 73.6335C106.137 74.4268 105.413 75.4758 104.481 75.3695C102.897 74.3821 102.506 72.3771 99.7988 72.4658C97.8408 72.4845 95.6082 74.4498 95.3295 76.3415C95.0029 77.8438 94.8869 79.4738 95.3295 80.7845C96.7019 82.3078 98.3535 82.1475 99.7988 81.8025C100.987 81.3512 101.965 80.2718 102.385 80.5292C102.386 80.5305 102.396 80.5282 102.398 80.5292C102.399 80.5312 102.396 80.5418 102.398 80.5418C102.657 80.9598 102.374 84.4895 96.7979 87.2175C93.3719 88.6348 90.6445 88.9725 89.1775 86.3955C88.2685 84.7845 89.2435 78.6515 87.0058 80.0665C80.3872 95.7895 102.512 97.9845 104.983 80.7135C105.144 80.2272 105.631 79.7378 105.975 79.8585C106.124 79.9292 106.264 80.1065 106.314 80.4585C105.801 96.0955 89.1982 97.1672 86.3785 92.2485C85.6795 91.0885 85.4688 88.5078 85.3992 86.9612C85.2718 86.0258 85.0165 85.4845 84.7212 85.2722C84.0518 84.8088 83.1478 86.0235 82.9512 88.1298C82.6712 89.8262 82.7505 90.2888 82.7505 91.9252C83.6358 104.275 105.002 98.9688 108.474 88.7665L108.464 88.8132ZM100.211 78.1265C100.209 78.1285 100.212 78.1388 100.211 78.1388C100.208 78.1445 100.202 78.1575 100.198 78.1575C100.033 78.3465 99.4468 78.2758 99.0308 78.2758C98.5268 78.2568 98.2788 78.1815 97.9762 77.8008C97.8322 77.3802 98.2718 76.9668 98.4662 76.6552C98.4682 76.6518 98.4768 76.6485 98.4788 76.6425C98.5048 76.6238 98.5332 76.5718 98.5662 76.5482C98.7172 76.4062 98.9772 76.3025 99.2565 76.2695C99.3108 76.2632 99.3632 76.2568 99.4198 76.2568C99.8085 76.2608 100.219 76.4225 100.436 76.9395C100.597 77.3415 100.512 77.7925 100.212 78.1208L100.211 78.1265ZM170.858 66.3328C172.511 67.0578 175.622 66.7391 175.491 64.2848C175.491 64.0721 175.427 63.3375 175.403 63.1392C175.236 62.7755 174.923 62.6408 174.625 62.6878C174.327 62.7378 174.039 62.9735 173.935 63.3492C173.868 63.5948 174.062 63.9891 173.821 64.1125C173.684 64.2541 173.147 64.1625 173.168 63.4862C173.168 63.2738 172.998 63.0328 172.892 62.8955C172.788 62.8251 172.717 62.8012 172.528 62.8012C172.299 62.8078 172.304 62.8718 172.177 63.0445C172.122 63.2102 172.051 63.4055 172.051 63.6112C172.023 63.8518 171.931 63.9352 171.738 63.9705C171.523 63.9705 171.561 63.9895 171.386 63.8761C171.287 63.7581 171.162 63.7345 171.162 63.5528C171.162 63.3868 171.11 63.0728 171.048 62.9501C170.959 62.8318 170.815 62.8081 170.647 62.7611C169.744 62.7645 169.691 63.7085 169.743 64.0678C169.677 64.1378 169.63 65.8415 170.86 66.3115L170.858 66.3328ZM197.5 72.6622C197.528 71.2285 197.679 69.3235 197.763 68.1378C197.799 67.6892 197.912 67.1978 198.378 67.0845C198.843 66.9662 199.649 67.5145 199.659 67.0345C199.574 66.1225 199.376 64.7785 198.817 64.1422C198.531 63.7502 198.062 63.5395 197.575 63.5161C196.763 63.4661 195.9 63.9648 195.679 64.9855C195.682 65.5878 195.974 65.9188 195.917 66.4642C195.832 66.7762 195.483 66.9818 194.649 66.6062C194.781 66.4878 194.109 65.6212 194.109 65.6212C193.459 65.2575 192.59 65.6398 192.025 65.9798C191.714 66.4998 191.484 67.3948 191.838 68.3041C192.772 69.8941 195.974 72.6052 197.501 72.6315L197.5 72.6622ZM187.204 92.4435C188.355 92.4501 189.686 90.0168 190.254 87.6078C190.566 84.2892 190.047 82.2695 189.953 80.3188C189.859 78.3678 187.557 62.5422 187.091 61.0662C186.529 58.2758 189.33 60.6971 189.024 59.0771C188.056 57.0311 185.638 54.0482 184.882 52.2738C184.597 51.7972 184.562 51.3575 184.329 51.3955C184.19 51.4205 183.983 51.6078 183.601 52.0782C182.656 54.9255 182.324 57.2515 182.684 59.0198C185.112 70.6948 187.599 81.3312 187.204 92.4452V92.4435ZM178.567 90.0608C175.91 92.6175 172.079 95.7688 167.909 97.2228C167.46 97.6862 169.024 99.6658 171.048 99.6638C174.431 99.3028 177.404 97.5522 180.162 92.9422C180.9 91.8672 182.195 89.5655 182.234 87.7815C182.492 77.3235 181.665 69.1922 179.962 61.6335C179.853 60.8965 179.926 60.0295 180.061 59.8052C180.278 59.5638 181.023 59.8108 181.417 59.2145C181.995 58.6711 179.873 54.1588 178.667 52.4225C178.426 51.9875 178.278 51.6408 178.064 51.6595C177.899 51.6722 177.696 51.9102 177.386 52.5172C176.641 53.6438 176.135 55.6008 176.193 57.4345C177.807 67.7325 178.302 76.7442 179.357 87.0422C179.442 88.0388 179.283 89.4848 178.566 90.0622L178.567 90.0608ZM185.514 85.8408C185.554 85.6992 185.547 85.6992 185.514 85.8408ZM171.974 56.8082C172.564 58.3295 171.524 59.7801 172.137 59.9901C172.702 60.2261 173.487 58.4168 173.782 56.7502C174.122 55.4015 173.078 52.6355 171.597 52.0648C171.484 52.0398 171.364 52.0398 171.246 52.0148C170.399 51.9898 169.463 52.4848 169.827 53.4605C169.615 53.9942 171.646 55.8062 171.974 56.7925V56.8082ZM201.809 72.6008C201.763 72.5942 201.716 72.5986 201.673 72.6135L193.826 77.8082C193.067 78.4318 193.447 80.6178 193.826 80.3655C194.375 80.5542 202.084 75.7455 201.936 75.1818C202.272 75.2005 202.434 72.7052 201.811 72.6018L201.809 72.6008ZM196.419 58.5535C198.747 61.1936 201.024 63.8782 203.249 66.6058C203.733 72.3508 203.862 77.6165 204.353 83.3705C204.285 85.8318 203.462 89.1001 202.684 89.4105C202.684 89.4105 201.495 90.0385 200.701 89.3398C200.123 89.1271 197.813 85.7875 197.813 85.7875C196.631 84.7882 195.843 85.0742 195.001 85.7875C192.681 87.8522 191.632 91.7202 190.055 94.3842C189.649 94.9792 188.504 95.4825 187.231 94.3341C184.612 91.0331 185.355 86.6078 185.518 85.8365L185.485 85.9785C182.605 88.9695 183.88 93.9255 184.531 94.9918C185.48 96.7418 186.248 97.8628 188.096 98.7285C189.779 99.8695 191.089 99.1585 191.812 98.3598C193.505 96.7415 193.528 92.6065 194.323 91.7881C194.88 90.2835 196.278 90.5432 196.959 91.2095C197.619 92.0835 198.399 92.6552 199.369 93.1298C200.949 94.4125 202.834 94.6465 204.693 93.4775C205.962 92.8208 206.786 91.9655 207.53 90.2838C208.328 88.3185 207.933 78.0138 207.754 72.2811L211.294 77.0131C211.808 82.0421 212.041 87.0008 211.872 91.7532C211.751 92.6978 215.45 88.9318 215.425 87.1482V82.8555C217.219 85.4955 218.956 88.1795 220.597 90.8968C221.614 90.4032 221.266 85.0921 220.623 84.3601C218.904 81.7021 216.703 78.8302 214.999 76.6082C214.662 73.8001 214.203 70.4948 213.995 69.4805C213.67 67.9005 213.344 65.5255 212.852 63.6495C212.717 62.9172 212.31 60.5771 212.438 60.3525C212.639 59.8305 213.396 60.3711 213.769 59.7618C214.327 59.1991 211.834 53.2465 210.567 51.5468C210.112 50.7838 209.289 51.0488 208.27 52.2885C207.325 53.1035 207.667 54.9632 208.031 56.7315C208.969 61.2385 209.805 65.8292 210.467 70.4075L206.274 64.7381L206.087 63.8451C206.087 63.7508 205.886 60.1585 205.71 59.2985C205.677 58.9495 205.59 58.8498 205.987 58.8952C206.408 59.2205 206.465 59.2375 206.728 59.3462C207.153 59.4168 207.524 58.7555 207.267 58.1438L203.326 51.4332C203.168 51.2915 202.99 51.1382 202.786 51.1098C202.583 51.0845 202.358 51.1798 202.108 51.5131C201.628 51.9008 201.113 52.6022 201.128 53.5022C201.244 55.0895 201.552 56.7155 201.668 58.3038L201.794 58.9395C201.656 58.7734 201.509 58.6149 201.354 58.4645C197.996 55.2125 202.894 57.9332 200.714 55.4212C198.867 53.5528 198.327 52.9581 196.747 51.8345C195.954 51.3621 195.475 50.4598 195.215 51.9765C195.116 53.3251 195.005 54.8885 195.104 56.0265C195.098 56.6568 195.809 57.8475 196.422 58.5485L196.419 58.5535ZM215.892 61.1618C216.161 61.9251 215.484 64.3832 216.041 64.6098C216.556 64.8622 217.279 62.9111 217.548 61.1038C217.696 60.1165 216.902 56.6431 215.551 56.0248C215.445 56.0061 215.337 55.9748 215.225 55.9748C214.453 55.9562 213.612 56.4898 213.945 57.5482C213.751 58.1245 215.592 60.0862 215.891 61.1578L215.892 61.1618ZM157.36 96.7545C157.36 96.8252 158.007 97.3242 158.766 96.8965C160.369 96.3322 161.367 95.7838 163.612 95.3352C164.201 95.3225 164.167 93.8705 163.235 93.8208C162.02 93.8915 160.897 93.9391 159.682 94.8155C158.934 94.9571 158.806 94.5555 158.64 94.1798C158.451 93.2468 159.067 92.5878 158.941 91.8885C158.974 91.9135 158.564 91.5792 158.037 91.5532C157.846 91.5465 157.655 91.5782 157.485 91.6712C157.452 91.6712 155.795 92.7012 155.263 93.4168C154.938 93.6532 154.975 93.8418 155.076 94.2388C155.33 94.7752 155.775 94.6075 156.282 94.3568C156.953 94.2625 157.278 94.6782 157.223 95.4222C156.913 96.3482 157.36 96.6955 157.36 96.7545ZM164.937 82.0105L164.95 81.9978C164.951 81.9968 164.961 81.9855 164.962 81.9855C164.963 81.9842 164.972 81.9792 164.975 81.9728V81.9478C164.976 81.9081 164.972 81.8684 164.962 81.8298L164.234 81.4355L149.885 81.3648C149.707 81.2942 149.575 81.2228 149.496 81.1992C149.486 81.191 149.478 81.1827 149.469 81.1741L149.457 81.1618L149.444 81.1492L149.432 81.1305L149.419 81.1178V81.1055L149.407 81.0928V80.9805L149.419 80.9678L149.432 80.9492C149.498 80.8548 149.671 80.7835 149.884 80.7058C153.31 80.2758 159.397 79.3572 159.802 73.9612C159.736 71.1535 158.497 69.3105 154.755 68.8002C152.006 68.9888 150.045 71.4475 150.361 74.1461C150.231 74.8711 150.628 76.3005 149.821 76.4585C144.547 76.9032 138.791 79.9448 138.598 82.1278H138.585L138.572 82.1402L138.546 82.1528H138.52C138.507 82.1568 138.494 82.1588 138.482 82.1652H138.407C138.39 82.1618 138.374 82.1588 138.358 82.1528C138.015 82.0585 137.573 81.5435 137.642 80.8112C137.442 77.0432 136.111 72.7792 134.027 69.4955C133.283 68.8105 132.955 68.5342 132.746 68.5012C132.739 68.5005 132.728 68.5012 132.72 68.5012H132.642C132.629 68.505 132.617 68.5114 132.606 68.5199C132.596 68.5285 132.587 68.5391 132.581 68.5512C132.567 68.5575 132.555 68.5635 132.543 68.5698C132.383 68.6878 132.191 68.9385 131.765 69.2171C131.046 69.9705 130.917 70.4952 130.961 72.0055C131.001 72.1472 132.326 75.5535 133.447 77.9405C134.203 80.4182 134.902 83.2562 134.389 85.9355C132.619 89.4782 129.061 92.6555 125.626 94.3815C123.876 94.8965 122.366 94.7215 121.961 94.3688L121.949 94.3565C120.944 93.7325 120.921 92.6298 120.983 92.4358V92.4235L120.995 92.4108C123.894 90.5495 127.204 89.0482 129.795 84.0228C130.561 82.1022 130.795 80.9512 130.034 77.9832C129.738 76.8778 129.371 75.9682 128.553 75.1832L128.565 75.1708C129.058 74.9582 130.338 75.8228 130.536 75.2888C130.233 73.8715 129.192 71.9698 128.013 70.9965C126.98 70.1318 125.857 70.0325 124.912 70.8308C123.847 71.3765 123.621 73.3375 124.133 75.0538C124.702 76.3458 126.24 76.5705 127.335 79.1725V79.1852C127.357 79.3272 127.71 81.1292 127.16 81.8462C126.712 83.1312 120.967 87.3072 120.556 87.5615C120.552 87.5662 120.523 87.5802 120.518 87.5865L120.506 87.5992C120.501 87.6025 120.497 87.6051 120.493 87.6115C120.489 87.6155 120.485 87.6178 120.481 87.6241H120.454C120.45 87.6201 120.446 87.6175 120.442 87.6115V87.5992C120.436 87.5915 120.432 87.583 120.429 87.5741C120.412 87.4558 120.443 87.2051 120.429 86.7755C120.391 85.9938 120.743 84.2215 120.718 83.9175V83.9052L120.705 83.8925V83.8802H120.693C118.793 85.0092 118.165 88.4775 117.818 89.5035C113.007 92.5671 107.541 94.8462 104.398 97.9495C102.759 100.307 115.688 95.2415 117.191 94.6288C117.204 94.6351 117.217 94.6538 117.228 94.6788C117.514 94.9668 117.538 95.9781 118.396 96.8875C119.739 98.5645 122.596 99.5982 125.376 98.9568C130.037 97.4048 132.723 94.4762 135.457 91.2282C135.848 90.7038 136.46 90.2925 137.026 90.6968C138.905 94.5735 144.322 97.3315 151.325 97.6158C152.945 95.7991 152.171 94.9071 151.512 94.5265C151.311 94.3845 148.029 93.2225 147.52 92.0505C147.199 90.9592 147.978 89.9905 149.541 89.2621C154.037 88.7615 158.457 88.2038 162.735 86.9375C162.778 85.6125 163.625 83.6325 164.192 82.7722C164.585 82.1748 164.838 82.1155 164.932 82.0305L164.937 82.0105ZM153.102 73.7065C153.112 73.6565 153.128 73.6358 153.152 73.5882C153.16 73.5758 153.167 73.5695 153.178 73.5382L153.19 73.5258C153.209 73.5008 153.23 73.4758 153.252 73.4552C153.341 73.3845 153.471 73.3372 153.616 73.3132C153.928 73.2882 154.338 73.3838 154.733 73.5921C155.304 73.8971 155.657 74.3575 155.612 74.6928C155.61 74.6991 155.614 74.7115 155.612 74.7428C155.61 74.7492 155.59 74.7615 155.585 74.7928L155.573 74.8428C155.571 74.8482 155.563 74.8615 155.56 74.8615C155.556 74.8678 155.552 74.8742 155.548 74.8865C155.527 74.9115 155.5 74.9571 155.472 74.9808C155.198 75.2175 154.564 75.1698 153.966 74.8628C153.4 74.5602 153.05 74.0975 153.087 73.7645C153.089 73.7578 153.098 73.7455 153.1 73.7145L153.102 73.7065ZM147.366 86.9518C145.826 87.4385 144.347 87.8185 144.34 89.8675C144.541 90.8832 144.499 91.4145 144.328 91.6601C144.313 91.6791 144.297 91.7101 144.279 91.7308L144.266 91.7435L144.254 91.7558C144.25 91.7598 144.245 91.7625 144.241 91.7685L144.229 91.7808C144.22 91.7845 144.211 91.7875 144.202 91.7935C144.179 91.8122 144.153 91.8122 144.127 91.8435C144.105 91.8498 144.075 91.8498 144.051 91.8558C143.685 91.9058 143.154 91.5841 142.758 91.3928C141.809 90.7645 139.145 89.2431 138.766 85.9778C138.711 85.2411 139.31 84.6055 140.272 84.5441C140.32 84.5408 140.359 84.5441 140.409 84.5441H140.435C142.034 84.9435 144.39 84.9858 146.437 85.1795C148.103 85.2738 148.926 86.4788 147.366 86.9842V86.9518ZM113.697 82.4398C113.659 83.0278 115.458 83.7435 115.567 85.1008C115.824 85.6608 115.182 87.4558 115.718 87.6228C116.21 87.8115 116.892 86.3828 117.149 85.0545C117.291 84.3268 116.532 81.7832 115.241 81.3292C115.04 81.2792 114.832 81.2585 114.626 81.2792C114.003 81.3292 113.446 81.6265 113.697 82.4365L113.697 82.4398ZM142.616 74.1538C144.268 74.8792 148.207 74.4538 147.248 72.1081C147.248 71.8955 147.185 71.1608 147.161 70.9625C146.993 70.6012 146.681 70.4641 146.383 70.5111C146.084 70.5611 145.797 70.7898 145.692 71.1585C145.626 71.4042 145.82 71.8105 145.581 71.9355C145.444 72.0775 144.907 71.9855 144.928 71.3095C144.928 71.0972 144.756 70.8562 144.652 70.7192C144.548 70.6485 144.491 70.6245 144.301 70.6245C144.071 70.6311 144.067 70.6952 143.937 70.8678C143.882 71.0335 143.811 71.2292 143.811 71.4345C143.783 71.6752 143.691 71.7585 143.498 71.7935C143.283 71.7935 143.33 71.8185 143.158 71.6992C143.059 71.5808 142.92 71.5572 142.92 71.3752C142.92 71.2095 142.88 70.8958 142.821 70.7752C142.731 70.6572 142.572 70.6335 142.407 70.5865C141.504 70.5898 141.451 71.5338 141.503 71.8928C141.437 71.9635 141.39 73.6668 142.62 74.1368L142.616 74.1538ZM156.608 57.3838C159.378 60.8158 162.043 64.2642 164.618 67.8318C165.019 70.4808 165.319 73.0718 165.509 75.6532C165.926 81.3115 166.052 88.3558 165.672 94.3152C166.822 94.3652 168.665 92.6025 169.313 90.0345C169.734 86.4812 169.164 79.2305 169.126 77.1338C169.1 76.2645 169.041 75.2252 168.975 74.1372C172.105 78.8491 175.025 83.6979 177.725 88.6691C178.765 88.2155 178.534 82.8202 177.926 82.0625C175.643 77.5358 172.49 73.0672 171.485 71.3482C171.122 70.7315 169.887 68.9955 168.422 66.9981C168.153 64.1481 167.86 61.7342 167.669 61.0048C167.198 57.9918 169.012 61.3425 168.761 59.5921C168.172 56.5835 166.37 54.5388 164.242 51.7828C163.556 50.8875 163.572 50.7031 162.509 51.9951C161.876 53.3205 161.885 54.4212 162.07 55.4548C161.719 54.9832 161.346 54.5282 160.953 54.0915L157.475 51.3731C156.994 51.0585 156.078 50.5698 155.379 50.6315C154.959 50.6815 154.625 50.8938 154.5 51.4648C154.332 52.8092 154.42 53.5392 154.663 54.6582C154.85 55.4048 156.029 56.6522 156.609 57.3778L156.608 57.3838ZM162.473 57.1951C162.539 57.4858 162.615 57.7765 162.662 58.0738C162.82 58.7138 162.956 59.3495 163.101 59.9825C162.492 59.2078 161.988 58.5842 161.771 58.3622C160.392 56.8502 161.801 57.3722 162.474 57.1955L162.473 57.1951Z" fill="white"/>
</svg>
