<svg xmlns="http://www.w3.org/2000/svg" viewBox="0 0 300 200">
<path d="M150.151 63.3727L149.833 63.3793C149.143 63.394 148.533 63.76 148.085 64.1C147.816 64.3037 147.565 64.5313 147.337 64.78L147.268 64.8587C144.917 65.272 142.773 66.2873 141.064 67.9467C138.801 70.1433 137.36 73.38 136.906 77.5013C136.441 81.7273 137.599 86.4393 138.81 90.1847C140.021 93.9313 141.345 96.7214 141.345 96.7214L141.58 97.2167L126.329 117.753L123.263 116.693L117.741 128.471L117.991 128.629C117.991 128.629 131.107 136.842 150.121 136.617C170.969 136.369 182.355 128.241 182.355 128.241L182.585 128.077L176.874 116.441L174.156 117.624L158.329 96.6887L158.452 96.7367C158.452 96.7367 159.841 93.8833 161.083 90.0627C162.325 86.242 163.492 81.44 162.881 77.142C162.305 73.08 161.027 69.8927 158.757 67.7267C157.097 66.142 154.965 65.2067 152.482 64.834V64.768L152.388 64.672C152.388 64.672 152.074 64.3453 151.611 64.0253C151.177 63.7232 150.679 63.5247 150.156 63.4453L150.151 63.3727ZM152.475 68.1987C154.152 68.5133 155.433 69.1613 156.456 70.138C157.99 71.602 159.066 73.9867 159.581 77.6107C160.052 80.9287 159.081 85.4413 157.913 89.0327C157.196 91.2367 156.566 92.766 156.124 93.7727L153.727 90.6013L153.699 83.082H157.653L152.453 78.198L152.475 68.1987ZM147.279 68.248L147.352 78.3553L142.649 83.282H146.541L146.513 90.574L143.885 94.1133C143.545 93.376 142.863 91.888 141.982 89.16C140.841 85.6294 139.854 81.1794 140.219 77.866C140.61 74.3107 141.785 71.8927 143.385 70.3387C144.463 69.292 145.761 68.5987 147.279 68.248ZM174.373 120.56L175.219 121.79L172.837 125.324L170.377 122.174L174.373 120.56ZM125.193 121.713L126.192 124.787L123.272 125.402C123.272 125.402 124.963 122.021 125.193 121.713ZM128.267 121.787L132.569 123.093L133.569 125.245L129.803 126.32L128.267 121.787ZM167.611 123.17L168.84 124.477L165.229 127.319L163 124.553L167.611 123.17ZM175.987 123.633L177.447 126.553L174.527 127.552L174.296 126.169L175.987 123.633ZM136.18 124.093L140.483 125.015L141.713 126.859L137.947 128.319L136.18 124.093ZM159.542 124.865L160.694 126.556L156.391 128.63L154.547 125.48L159.542 124.865ZM144.247 125.327L151.24 125.634L151.854 127.094L146.399 129.092L144.247 125.327ZM169.607 126.013L171.835 129.011L167.071 130.239L166.149 128.626L169.607 126.013ZM126.88 126.093L127.495 128.552L123.807 127.092L126.88 126.093ZM134.181 126.787L136.179 131.013L131.184 129.785L130.647 127.94L134.181 126.787ZM161.613 127.86L164.226 130.933L158.463 131.856L157.309 130.012L161.613 127.86ZM152.779 128.475L155.315 132.241L148.553 132.471L147.399 130.473L152.779 128.475ZM142.636 128.477L145.095 132.319L139.255 131.474L138.64 129.86L142.636 128.477Z" fill="black" />
</svg>