<svg xmlns="http://www.w3.org/2000/svg" viewBox="0 0 408 200"><g><path d="M204 88.8881L200.567 99.4554L205.85 101.172L204 88.8881Z" fill="#00BCE4" />
<path d="M204 88.8881L207.434 99.4554L202.15 101.172L204 88.8881Z" fill="#00BCE4" />
<path d="M214.568 96.5661H203.457V102.122L214.568 96.5661Z" fill="#00BCE4" />
<path d="M214.568 96.5661L205.579 103.097L202.313 98.6024L214.568 96.5661Z" fill="#00BCE4" />
<path d="M193.433 96.566L202.422 103.097L205.687 98.6024L193.433 96.566Z" fill="#00BCE4" />
<path d="M193.433 96.566L204.544 96.5661V102.122L193.433 96.566Z" fill="#00BCE4" />
<path d="M210.531 108.989L207.098 98.4218L201.814 100.139L210.531 108.989Z" fill="#00BCE4" />
<path d="M210.531 108.989L201.542 102.458L204.808 97.9636L210.531 108.989Z" fill="#00BCE4" />
<path d="M197.469 108.989L206.458 102.458L203.193 97.9636L197.469 108.989Z" fill="#00BCE4" />
<path d="M197.469 108.989L200.903 98.4218L206.186 100.139L197.469 108.989Z" fill="#00BCE4" />
<path d="M259.556 71.1104L256.122 81.6776L261.406 83.3944L259.556 71.1104Z" fill="#00BCE4" />
<path d="M259.556 71.1104L262.989 81.6776L257.706 83.3944L259.556 71.1104Z" fill="#00BCE4" />
<path d="M270.123 78.7883H259.012V84.3439L270.123 78.7883Z" fill="#00BCE4" />
<path d="M270.123 78.7883L261.134 85.3191L257.869 80.8246L270.123 78.7883Z" fill="#00BCE4" />
<path d="M248.988 78.7882L257.977 85.3191L261.243 80.8246L248.988 78.7882Z" fill="#00BCE4" />
<path d="M248.988 78.7882L260.099 78.7883V84.3439L248.988 78.7882Z" fill="#00BCE4" />
<path d="M266.087 91.2114L262.653 80.6441L257.37 82.3608L266.087 91.2114Z" fill="#00BCE4" />
<path d="M266.087 91.2114L257.098 84.6803L260.363 80.1858L266.087 91.2114Z" fill="#00BCE4" />
<path d="M253.024 91.2113L262.014 84.6803L258.748 80.1858L253.024 91.2113Z" fill="#00BCE4" />
<path d="M253.024 91.2113L256.458 80.6441L261.742 82.3608L253.024 91.2113Z" fill="#00BCE4" />
<path d="M259.556 104.444L256.122 115.011L261.406 116.728L259.556 104.444Z" fill="#00BCE4" />
<path d="M259.556 104.444L262.989 115.011L257.706 116.728L259.556 104.444Z" fill="#00BCE4" />
<path d="M270.123 112.122H259.012V117.677L270.123 112.122Z" fill="#00BCE4" />
<path d="M270.123 112.122L261.134 118.652L257.869 114.158L270.123 112.122Z" fill="#00BCE4" />
<path d="M248.988 112.122L257.977 118.652L261.243 114.158L248.988 112.122Z" fill="#00BCE4" />
<path d="M248.988 112.122L260.099 112.122V117.677L248.988 112.122Z" fill="#00BCE4" />
<path d="M266.087 124.545L262.653 113.977L257.37 115.694L266.087 124.545Z" fill="#00BCE4" />
<path d="M266.087 124.545L257.098 118.014L260.363 113.519L266.087 124.545Z" fill="#00BCE4" />
<path d="M253.025 124.545L262.014 118.014L258.748 113.519L253.025 124.545Z" fill="#00BCE4" />
<path d="M253.025 124.545L256.458 113.977L261.742 115.694L253.025 124.545Z" fill="#00BCE4" />
<path d="M148.445 71.1104L145.011 81.6776L150.295 83.3944L148.445 71.1104Z" fill="#00BCE4" />
<path d="M148.445 71.1104L151.878 81.6776L146.594 83.3944L148.445 71.1104Z" fill="#00BCE4" />
<path d="M159.012 78.7883H147.901V84.3439L159.012 78.7883Z" fill="#00BCE4" />
<path d="M159.012 78.7883L150.023 85.3191L146.758 80.8246L159.012 78.7883Z" fill="#00BCE4" />
<path d="M137.877 78.7882L146.866 85.3191L150.132 80.8246L137.877 78.7882Z" fill="#00BCE4" />
<path d="M137.877 78.7882L148.988 78.7883V84.3439L137.877 78.7882Z" fill="#00BCE4" />
<path d="M154.976 91.2114L151.542 80.6441L146.259 82.3608L154.976 91.2114Z" fill="#00BCE4" />
<path d="M154.976 91.2114L145.987 84.6803L149.252 80.1858L154.976 91.2114Z" fill="#00BCE4" />
<path d="M141.913 91.2113L150.902 84.6803L147.637 80.1858L141.913 91.2113Z" fill="#00BCE4" />
<path d="M141.913 91.2113L145.347 80.6441L150.631 82.3608L141.913 91.2113Z" fill="#00BCE4" />
<path d="M148.445 104.444L145.011 115.011L150.295 116.728L148.445 104.444Z" fill="#00BCE4" />
<path d="M148.445 104.444L151.878 115.011L146.594 116.728L148.445 104.444Z" fill="#00BCE4" />
<path d="M159.012 112.122H147.901V117.677L159.012 112.122Z" fill="#00BCE4" />
<path d="M159.012 112.122L150.023 118.652L146.758 114.158L159.012 112.122Z" fill="#00BCE4" />
<path d="M137.877 112.122L146.866 118.652L150.132 114.158L137.877 112.122Z" fill="#00BCE4" />
<path d="M137.877 112.122L148.988 112.122V117.677L137.877 112.122Z" fill="#00BCE4" />
<path d="M154.976 124.545L151.542 113.977L146.259 115.694L154.976 124.545Z" fill="#00BCE4" />
<path d="M154.976 124.545L145.987 118.014L149.252 113.519L154.976 124.545Z" fill="#00BCE4" />
<path d="M141.913 124.545L150.902 118.014L147.637 113.519L141.913 124.545Z" fill="#00BCE4" />
<path d="M141.913 124.545L145.347 113.977L150.631 115.694L141.913 124.545Z" fill="#00BCE4" />
</g></svg>