<svg xmlns="http://www.w3.org/2000/svg" viewBox="0 0 300 200"><g><path d="M161.867 72.7048L157.955 80.0627L162.37 82.4101L161.867 72.7048Z" fill="white" />
<path d="M161.867 72.7048L163.027 80.9571L158.076 81.6529L161.867 72.7048Z" fill="white" />
<path d="M168.673 79.7518L160.466 78.3047L159.598 83.2288L168.673 79.7518Z" fill="white" />
<path d="M168.673 79.7518L161.183 83.4049L158.991 78.9109L168.673 79.7518Z" fill="white" />
<path d="M153.062 76.9993L158.851 82.9938L162.448 79.5205L153.062 76.9993Z" fill="white" />
<path d="M153.062 76.9993L161.269 78.4464L160.401 83.3704L153.062 76.9993Z" fill="white" />
<path d="M164.073 88.4015L162.914 80.1493L157.962 80.8451L164.073 88.4015Z" fill="white" />
<path d="M164.073 88.4015L158.285 82.407L161.881 78.9337L164.073 88.4015Z" fill="white" />
<path d="M154.426 86.7004L161.916 83.0473L159.724 78.5533L154.426 86.7004Z" fill="white" />
<path d="M154.426 86.7004L158.338 79.3425L162.753 81.6898L154.426 86.7004Z" fill="white" />
<path d="M184.168 80.8216L177.975 86.3977L181.321 90.1134L184.168 80.8216Z" fill="white" />
<path d="M184.168 80.8216L182.435 88.9729L177.545 87.9333L184.168 80.8216Z" fill="white" />
<path d="M188.153 89.7711L180.936 85.6044L178.436 89.9346L188.153 89.7711Z" fill="white" />
<path d="M188.153 89.7711L179.865 90.6422L179.342 85.6696L188.153 89.7711Z" fill="white" />
<path d="M174.425 81.8456L177.815 89.4585L182.382 87.4248L174.425 81.8456Z" fill="white" />
<path d="M174.425 81.8456L181.642 86.0123L179.142 90.3424L174.425 81.8456Z" fill="white" />
<path d="M180.872 96.3262L182.605 88.175L177.714 87.1354L180.872 96.3262Z" fill="white" />
<path d="M180.872 96.3262L177.483 88.7133L182.051 86.6796L180.872 96.3262Z" fill="white" />
<path d="M172.389 91.428L180.676 90.5569L180.154 85.5843L172.389 91.428Z" fill="white" />
<path d="M172.389 91.428L178.581 85.8519L181.927 89.5676L172.389 91.428Z" fill="white" />
<path d="M202.348 96.0762L194.621 99.1979L196.494 103.834L202.348 96.0762Z" fill="white" />
<path d="M202.348 96.0762L197.932 103.143L193.692 100.494L202.348 96.0762Z" fill="white" />
<path d="M203.031 105.849L197.675 99.4651L193.844 102.679L203.031 105.849Z" fill="white" />
<path d="M203.031 105.849L194.945 103.833L196.155 98.9813L203.031 105.849Z" fill="white" />
<path d="M192.842 93.7062L193.424 102.019L198.411 101.67L192.842 93.7062Z" fill="white" />
<path d="M192.842 93.7062L198.199 100.09L194.369 103.304L192.842 93.7062Z" fill="white" />
<path d="M193.948 109.519L198.364 102.451L194.124 99.8019L193.948 109.519Z" fill="white" />
<path d="M193.948 109.519L193.367 101.206L198.355 100.857L193.948 109.519Z" fill="white" />
<path d="M187.651 102.014L195.737 104.03L196.946 99.1786L187.651 102.014Z" fill="white" />
<path d="M187.651 102.014L195.378 98.8924L197.251 103.528L187.651 102.014Z" fill="white" />
<path d="M214.214 116.629L205.885 116.919L206.06 121.916L214.214 116.629Z" fill="white" />
<path d="M214.214 116.629L207.647 121.759L204.569 117.819L214.214 116.629Z" fill="white" />
<path d="M211.513 126.046L208.663 118.215L203.965 119.925L211.513 126.046Z" fill="white" />
<path d="M211.513 126.046L204.605 121.386L207.401 117.24L211.513 126.046Z" fill="white" />
<path d="M206.092 111.151L203.795 119.161L208.601 120.539L206.092 111.151Z" fill="white" />
<path d="M206.092 111.151L208.942 118.981L204.244 120.691L206.092 111.151Z" fill="white" />
<path d="M201.723 126.387L208.29 121.257L205.211 117.317L201.723 126.387Z" fill="white" />
<path d="M201.723 126.387L204.02 118.377L208.826 119.755L201.723 126.387Z" fill="white" />
<path d="M198.372 117.182L205.281 121.842L208.077 117.697L198.372 117.182Z" fill="white" />
<path d="M198.372 117.182L206.701 116.891L206.875 121.888L198.372 117.182Z" fill="white" />
<path d="M85.7891 116.629L92.3558 121.759L95.4341 117.819L85.7891 116.629Z" fill="white" />
<path d="M85.7891 116.629L94.1173 116.919L93.9428 121.916L85.7891 116.629Z" fill="white" />
<path d="M93.9107 111.151L91.0605 118.981L95.759 120.691L93.9107 111.151Z" fill="white" />
<path d="M93.9107 111.151L96.2076 119.161L91.4013 120.539L93.9107 111.151Z" fill="white" />
<path d="M88.4893 126.046L95.398 121.386L92.602 117.24L88.4893 126.046Z" fill="white" />
<path d="M88.4893 126.046L91.3395 118.215L96.038 119.925L88.4893 126.046Z" fill="white" />
<path d="M101.63 117.182L93.3021 116.891L93.1276 121.888L101.63 117.182Z" fill="white" />
<path d="M101.63 117.182L94.7217 121.842L91.9257 117.697L101.63 117.182Z" fill="white" />
<path d="M98.2798 126.387L95.9828 118.377L91.1765 119.755L98.2798 126.387Z" fill="white" />
<path d="M98.2798 126.387L91.713 121.257L94.7913 117.317L98.2798 126.387Z" fill="white" />
<path d="M97.655 96.0762L102.071 103.143L106.311 100.494L97.655 96.0762Z" fill="white" />
<path d="M97.655 96.0762L105.382 99.1979L103.509 103.834L97.655 96.0762Z" fill="white" />
<path d="M107.16 93.7062L101.804 100.09L105.634 103.304L107.16 93.7062Z" fill="white" />
<path d="M107.16 93.7062L106.579 102.019L101.591 101.67L107.16 93.7062Z" fill="white" />
<path d="M96.9717 105.849L105.057 103.833L103.848 98.9813L96.9717 105.849Z" fill="white" />
<path d="M96.9717 105.849L102.328 99.4651L106.158 102.679L96.9717 105.849Z" fill="white" />
<path d="M112.352 102.014L104.625 98.8924L102.752 103.528L112.352 102.014Z" fill="white" />
<path d="M112.352 102.014L104.266 104.03L103.056 99.1786L112.352 102.014Z" fill="white" />
<path d="M106.055 109.519L106.636 101.206L101.648 100.857L106.055 109.519Z" fill="white" />
<path d="M106.055 109.519L101.639 102.451L105.879 99.8019L106.055 109.519Z" fill="white" />
<path d="M115.835 80.8216L117.567 88.9729L122.458 87.9333L115.835 80.8216Z" fill="white" />
<path d="M115.835 80.8216L122.028 86.3977L118.682 90.1134L115.835 80.8216Z" fill="white" />
<path d="M125.577 81.8456L118.361 86.0123L120.861 90.3424L125.577 81.8456Z" fill="white" />
<path d="M125.577 81.8456L122.188 89.4585L117.62 87.4248L125.577 81.8456Z" fill="white" />
<path d="M111.85 89.7711L120.138 90.6422L120.66 85.6696L111.85 89.7711Z" fill="white" />
<path d="M111.85 89.7711L119.067 85.6044L121.567 89.9346L111.85 89.7711Z" fill="white" />
<path d="M127.614 91.428L121.421 85.8519L118.076 89.5676L127.614 91.428Z" fill="white" />
<path d="M127.614 91.428L119.327 90.5569L119.849 85.5843L127.614 91.428Z" fill="white" />
<path d="M119.13 96.3262L122.52 88.7133L117.952 86.6796L119.13 96.3262Z" fill="white" />
<path d="M119.13 96.3262L117.398 88.175L122.288 87.1354L119.13 96.3262Z" fill="white" />
<path d="M138.135 72.7048L136.976 80.9571L141.927 81.6529L138.135 72.7048Z" fill="white" />
<path d="M138.135 72.7048L142.048 80.0627L137.633 82.4101L138.135 72.7048Z" fill="white" />
<path d="M146.94 76.9993L138.734 78.4464L139.602 83.3704L146.94 76.9993Z" fill="white" />
<path d="M146.94 76.9993L141.152 82.9938L137.555 79.5205L146.94 76.9993Z" fill="white" />
<path d="M131.33 79.7518L138.82 83.4049L141.012 78.9109L131.33 79.7518Z" fill="white" />
<path d="M131.33 79.7518L139.537 78.3047L140.405 83.2288L131.33 79.7518Z" fill="white" />
<path d="M145.577 86.7004L141.665 79.3425L137.25 81.6899L145.577 86.7004Z" fill="white" />
<path d="M145.577 86.7004L138.087 83.0473L140.279 78.5533L145.577 86.7004Z" fill="white" />
<path d="M135.929 88.4015L141.718 82.407L138.122 78.9337L135.929 88.4015Z" fill="white" />
<path d="M135.929 88.4015L137.089 80.1493L142.041 80.8451L135.929 88.4015Z" fill="white" />
</g></svg>