<svg xmlns="http://www.w3.org/2000/svg" viewBox="0 0 300 200">
    <path d="M106.25 150C133.864 150 156.25 127.614 156.25 100C156.25 72.3858 133.864 50 106.25 50C78.6358 50 56.25 72.3858 56.25 100C56.25 127.614 78.6358 150 106.25 150Z" fill="white" />
    <path d="M118.75 140C140.841 140 158.75 122.091 158.75 100C158.75 77.9086 140.841 60 118.75 60C96.6586 60 78.75 77.9086 78.75 100C78.75 122.091 96.6586 140 118.75 140Z" fill="#E30A17" />
    <path d="M145.833 100L191.059 114.695L163.108 76.2236V123.777L191.059 85.3054L145.833 100Z" fill="white" />
</svg>