<?xml version='1.0' encoding='us-ascii'?>
<svg xmlns="http://www.w3.org/2000/svg" viewBox="0 0 300 200"><g><path d="M53.0393 66.4199L56.7174 71.9123C41.6035 82.8499 50.8308 89.3178 40.1201 92.8188C46.7817 86.3177 39.2396 85.315 44.8523 71.7648" fill="#FCD116" />
<path d="M53.0393 66.4199L56.7174 71.9123C41.6035 82.8499 50.8308 89.3178 40.1201 92.8188C46.7817 86.3177 39.2396 85.315 44.8523 71.7648" stroke="#7B3F00" stroke-width="0.721653125" stroke-miterlimit="20" stroke-linecap="square" />
<path d="M46.0936 61.4592L44.8108 67.9437C26.3896 64.9906 28.3407 76.0887 18.2915 70.9908C27.599 71.1043 23.1852 64.9797 36.7354 59.367" fill="#FCD116" />
<path d="M46.0936 61.4592L44.8108 67.9437C26.3896 64.9906 28.3407 76.0887 18.2915 70.9908C27.599 71.1043 23.1852 64.9797 36.7354 59.367" stroke="#7B3F00" stroke-width="0.721875" stroke-miterlimit="20" stroke-linecap="square" />
<path d="M46.0943 61.4604L43.1922 60.9374L43.222 61.0574C35.4791 62.9549 31.2749 66.1648 27.9819 68.6043C26.3346 69.8238 24.9134 70.8609 23.3721 71.4226C22.3513 71.801 21.2556 71.933 20.1741 71.808C28.1673 74.6474 27.638 65.1934 44.812 67.9461L46.0943 61.4604Z" fill="#7B3F00" stroke="#7B3F00" stroke-width="0.328453125" stroke-miterlimit="20" stroke-linecap="square" />
<path d="M43.1334 60.7009C27.5185 64.523 26.042 73.7336 18.2913 70.9908" stroke="#7B3F00" stroke-width="0.721875" stroke-miterlimit="20" />
<path d="M55.5551 55.5556L50.3697 50.3701L27.0352 84.0755L60.7406 60.741L55.5551 55.5556L27.0352 84.0755Z" fill="#FCD116" />
<path d="M55.5551 55.5556L50.3697 50.3701L27.0352 84.0755M55.5551 55.5556L60.7406 60.741L27.0352 84.0755M55.5551 55.5556L27.0352 84.0755" stroke="#7B3F00" stroke-width="0.721653125" stroke-miterlimit="20" />
<path d="M44.6901 53.04L39.1978 56.7181C28.2602 41.6042 21.7923 50.8314 18.2912 40.1208C24.7924 46.7824 25.8573 39.2527 39.4075 44.8654" fill="#FCD116" />
<path d="M44.6901 53.04L39.1978 56.7181C28.2602 41.6042 21.7923 50.8314 18.2912 40.1208C24.7924 46.7824 25.8573 39.2527 39.4075 44.8654" stroke="#7B3F00" stroke-width="0.721875" stroke-miterlimit="20" stroke-linecap="square" />
<path d="M44.6899 53.041L43.0075 50.619L42.9438 50.7249C36.127 46.5916 30.8844 45.8885 26.8309 45.2851C24.8039 44.9825 23.0656 44.711 21.5784 44.0183C20.5891 43.564 19.7209 42.8826 19.0447 42.0295C22.6889 49.6892 28.9996 42.63 39.1971 56.7203L44.6899 53.041Z" fill="#7B3F00" stroke="#7B3F00" stroke-width="0.328453125" stroke-miterlimit="20" stroke-linecap="square" />
<path d="M43.1332 50.4109C29.3893 42.0721 21.8323 47.5409 18.2911 40.1209" stroke="#7B3F00" stroke-width="0.721875" stroke-miterlimit="20" />
<path d="M55.5547 55.5555V48.2222L15.2214 55.5555L55.5547 62.8888V55.5555H15.2214Z" fill="#FCD116" />
<path d="M55.5547 55.5555V48.2222L15.2214 55.5555M55.5547 55.5555V62.8888L15.2214 55.5555M55.5547 55.5555H15.2214" stroke="#7B3F00" stroke-width="0.721875" stroke-miterlimit="20" />
<path d="M55.5547 55.5557H15.2214L55.5547 62.889" fill="#7B3F00" />
<path d="M49.6514 46.0947L43.1669 44.8119C46.12 26.3907 35.0218 28.3419 40.1198 18.2927C40.0063 27.6002 46.4453 23.9306 52.0579 37.4809" fill="#FCD116" />
<path d="M49.6514 46.0947L43.1669 44.8119C46.12 26.3907 35.0218 28.3419 40.1198 18.2927C40.0063 27.6002 46.4453 23.9306 52.0579 37.4809" stroke="#7B3F00" stroke-width="0.721875" stroke-miterlimit="20" stroke-linecap="square" />
<path d="M49.6499 46.0953L50.1729 43.1931L50.053 43.223C48.1555 35.4801 44.9456 31.2759 42.506 27.9829C41.2866 26.3356 40.2495 24.9144 39.6877 23.373C39.3093 22.3523 39.1773 21.2565 39.3024 20.1751C36.463 28.1682 45.9169 27.6389 43.1643 44.813L49.6499 46.0953Z" fill="#7B3F00" stroke="#7B3F00" stroke-width="0.328453125" stroke-miterlimit="20" stroke-linecap="square" />
<path d="M50.4099 43.1348C46.5879 27.52 37.3773 26.0434 40.12 18.2927" stroke="#7B3F00" stroke-width="0.721875" stroke-miterlimit="20" />
<path d="M55.5548 55.5556L60.7402 50.3701L27.0348 27.0356L50.3693 60.741L55.5548 55.5556L27.0348 27.0356Z" fill="#FCD116" />
<path d="M55.5548 55.5556L60.7402 50.3701L27.0348 27.0356M55.5548 55.5556L50.3693 60.741L27.0348 27.0356M55.5548 55.5556L27.0348 27.0356" stroke="#7B3F00" stroke-width="0.721875" stroke-miterlimit="20" />
<path d="M55.5547 55.5557L27.0347 27.0357L50.3692 60.7411" fill="#7B3F00" />
<path d="M58.0711 44.6914L54.3929 39.1991C69.5068 28.2615 60.2796 21.7936 70.9903 18.2926C64.3286 24.7937 71.8323 25.8658 66.2196 39.416" fill="#FCD116" />
<path d="M58.0711 44.6914L54.3929 39.1991C69.5068 28.2615 60.2796 21.7936 70.9903 18.2926C64.3286 24.7937 71.8323 25.8658 66.2196 39.416" stroke="#7B3F00" stroke-width="0.721875" stroke-miterlimit="20" stroke-linecap="square" />
<path d="M58.0699 44.6908L60.4918 43.0085L60.3859 42.9448C64.5192 36.128 65.2223 30.8854 65.8258 26.8319C66.1283 24.8048 66.3999 23.0665 67.0926 21.5794C67.5468 20.5901 68.2282 19.7219 69.0814 19.0456C61.4216 22.6899 68.4808 29.0006 54.3906 39.198L58.0699 44.6908Z" fill="#7B3F00" stroke="#7B3F00" stroke-width="0.328453125" stroke-miterlimit="20" stroke-linecap="square" />
<path d="M60.7 43.1347C69.0387 29.3907 63.5699 21.8338 70.9899 18.2926" stroke="#7B3F00" stroke-width="0.721875" stroke-miterlimit="20" />
<path d="M55.5553 55.5557H62.8887L55.5553 15.2223L48.222 55.5557H55.5553V15.2223Z" fill="#FCD116" />
<path d="M55.5553 55.5557H62.8887L55.5553 15.2223M55.5553 55.5557H48.222L55.5553 15.2223M55.5553 55.5557V15.2223" stroke="#7B3F00" stroke-width="0.721875" stroke-miterlimit="20" />
<path d="M55.5557 55.5557V15.2223L48.2223 55.5557" fill="#7B3F00" />
<path d="M65.0167 49.6526L66.2995 43.1681C84.7208 46.1212 82.7696 35.023 92.8188 40.121C83.5113 40.0075 87.6579 46.1628 74.1077 51.7755" fill="#FCD116" />
<path d="M65.0167 49.6526L66.2995 43.1681C84.7208 46.1212 82.7696 35.023 92.8188 40.121C83.5113 40.0075 87.6579 46.1628 74.1077 51.7755" stroke="#7B3F00" stroke-width="0.721875" stroke-miterlimit="20" stroke-linecap="square" />
<path d="M65.016 49.6514L67.9182 50.1744L67.8884 50.0544C75.6313 48.1569 79.8355 44.947 83.1285 42.5075C84.7757 41.2881 86.1969 40.2509 87.7383 39.6892C88.7591 39.3108 89.8548 39.1788 90.9362 39.3038C82.9431 36.4644 83.4724 45.9184 66.2984 43.1658L65.016 49.6514Z" fill="#7B3F00" stroke="#7B3F00" stroke-width="0.328453125" stroke-miterlimit="20" stroke-linecap="square" />
<path d="M67.977 50.4109C83.5919 46.5889 85.0684 37.3783 92.8191 40.121" stroke="#7B3F00" stroke-width="0.721875" stroke-miterlimit="20" />
<path d="M55.5558 55.5558L60.7412 60.7412L84.0757 27.0358L50.3703 50.3703L55.5558 55.5558L84.0757 27.0358Z" fill="#FCD116" />
<path d="M55.5558 55.5558L60.7412 60.7412L84.0757 27.0358M55.5558 55.5558L50.3703 50.3703L84.0757 27.0358M55.5558 55.5558L84.0757 27.0358" stroke="#7B3F00" stroke-width="0.721875" stroke-miterlimit="20" />
<path d="M55.5557 55.5557L84.0756 27.0357L50.3702 50.3702" fill="#7B3F00" />
<path d="M66.4192 58.0711L71.9116 54.3929C82.8492 69.5068 89.3171 60.2796 92.8181 70.9903C86.317 64.3286 85.0967 71.7829 71.5464 66.1702" fill="#FCD116" />
<path d="M66.4192 58.0711L71.9116 54.3929C82.8492 69.5068 89.3171 60.2796 92.8181 70.9903C86.317 64.3286 85.0967 71.7829 71.5464 66.1702" stroke="#7B3F00" stroke-width="0.721875" stroke-miterlimit="20" stroke-linecap="square" />
<path d="M66.4195 58.0699L68.1019 60.4918L68.1656 60.3859C74.9824 64.5192 80.2249 65.2223 84.2784 65.8258C86.3055 66.1283 88.0438 66.3999 89.5309 67.0926C90.5203 67.5468 91.3884 68.2282 92.0647 69.0814C88.4205 61.4216 82.1098 68.4808 71.9123 54.3906L66.4195 58.0699Z" fill="#7B3F00" stroke="#7B3F00" stroke-width="0.328453125" stroke-miterlimit="20" stroke-linecap="square" />
<path d="M67.9761 60.7004C81.7201 69.0392 89.2771 63.5704 92.8182 70.9904" stroke="#7B3F00" stroke-width="0.721875" stroke-miterlimit="20" />
<path d="M55.5547 55.5553V62.8887L95.888 55.5553L55.5547 48.222V55.5553H95.888Z" fill="#FCD116" />
<path d="M55.5547 55.5553V62.8887L95.888 55.5553M55.5547 55.5553V48.222L95.888 55.5553M55.5547 55.5553H95.888" stroke="#7B3F00" stroke-width="0.721875" stroke-miterlimit="20" />
<path d="M55.5547 55.5557H95.888L55.5547 48.2223" fill="#7B3F00" />
<path d="M61.4584 65.0165L67.9429 66.2993C64.9898 84.7205 76.0879 82.7694 70.99 92.8186C71.1035 83.5111 64.9754 87.8218 59.3627 74.2715" fill="#FCD116" />
<path d="M61.4584 65.0165L67.9429 66.2993C64.9898 84.7205 76.0879 82.7694 70.99 92.8186C71.1035 83.5111 64.9754 87.8218 59.3627 74.2715" stroke="#7B3F00" stroke-width="0.721875" stroke-miterlimit="20" stroke-linecap="square" />
<path d="M61.4594 65.016L60.9365 67.9182L61.0564 67.8884C62.9539 75.6313 66.1638 79.8355 68.6033 83.1285C69.8228 84.7757 70.8599 86.1969 71.4216 87.7383C71.8 88.7591 71.9321 89.8548 71.807 90.9362C74.6464 82.9431 65.1924 83.4724 67.9451 66.2984L61.4594 65.016Z" fill="#7B3F00" stroke="#7B3F00" stroke-width="0.328453125" stroke-miterlimit="20" stroke-linecap="square" />
<path d="M60.7004 67.9765C64.5225 83.5914 73.7331 85.0679 70.9904 92.8186" stroke="#7B3F00" stroke-width="0.721875" stroke-miterlimit="20" />
<path d="M55.5546 55.5558L50.3691 60.7412L84.0746 84.0757L60.74 50.3703L55.5546 55.5558L84.0746 84.0757Z" fill="#FCD116" />
<path d="M55.5546 55.5558L50.3691 60.7412L84.0746 84.0757M55.5546 55.5558L60.74 50.3703L84.0746 84.0757M55.5546 55.5558L84.0746 84.0757" stroke="#7B3F00" stroke-width="0.721875" stroke-miterlimit="20" />
<path d="M55.5547 55.5557L84.0747 84.0756L60.7401 50.3702" fill="#7B3F00" />
<path d="M53.0408 66.4204L50.6189 68.1027L50.7248 68.1665C46.5915 74.9833 45.8884 80.2258 45.2849 84.2793C44.9824 86.3064 44.7108 88.0447 44.0181 89.5318C43.5639 90.5212 42.8824 91.3893 42.0293 92.0656C49.6891 88.4214 42.6298 82.1106 56.7201 71.9132L53.0408 66.4204Z" fill="#7B3F00" stroke="#7B3F00" stroke-width="0.32834687500000004" stroke-miterlimit="20" stroke-linecap="square" />
<path d="M50.41 67.9766C42.0713 81.7205 47.5401 89.2775 40.1201 92.8187" stroke="#7B3F00" stroke-width="0.721653125" stroke-miterlimit="20" />
<path d="M55.555 55.5557H48.2217L55.555 95.889L62.8883 55.5557H55.555V95.889Z" fill="#FCD116" />
<path d="M55.555 55.5557H48.2217L55.555 95.889M55.555 55.5557H62.8883L55.555 95.889M55.555 55.5557V95.889" stroke="#7B3F00" stroke-width="0.721653125" stroke-miterlimit="20" />
<path d="M55.5547 55.5557V95.889L62.888 55.5557" fill="#7B3F00" />
<path d="M55.5551 55.5557L27.0352 84.0756L60.7406 60.7411" fill="#7B3F00" />
<path d="M55.5547 68.9995C62.9798 68.9995 68.999 62.9802 68.999 55.5551C68.999 48.1301 62.9798 42.1108 55.5547 42.1108C48.1296 42.1108 42.1104 48.1301 42.1104 55.5551C42.1104 62.9802 48.1296 68.9995 55.5547 68.9995Z" fill="#FCD116" stroke="#7B3F00" stroke-width="0.721653125" stroke-miterlimit="20" />
<path d="M65.4556 50.1778C64.6001 51.1556 64.1112 49.4445 61.0556 49.4445C58.0001 49.4445 57.5112 51.2778 57.0223 50.9112C56.5334 50.5445 59.589 48.3445 60.5668 48.2223C61.5445 48.1 64.3556 49.0778 65.4556 50.1778ZM61.9112 51.2778C62.7668 52.0112 62.0334 53.6001 61.1779 53.6001C60.3223 53.6001 58.7334 52.1334 59.4668 51.1556" fill="#7B3F00" />
<path d="M57.8779 52.3776C58.0002 50.911 59.2224 50.6665 61.1779 50.6665C63.1335 50.6665 63.989 52.1332 64.7224 52.4998C63.8668 52.4998 63.1335 51.2776 61.1779 51.2776C59.2224 51.2776 59.2224 51.2776 57.8779 52.4998M58.2446 52.7443C58.7335 52.0109 59.3446 53.4776 60.689 53.4776C62.0335 53.4776 62.7668 53.1109 63.6224 52.4998C64.4779 51.8887 62.4002 53.9665 61.0557 53.9665C59.7113 53.9665 57.8779 53.2332 58.2446 52.7443Z" fill="#7B3F00" />
<path d="M48.711 51.1558C48.0999 51.4002 47.1222 52.6222 48.711 53.4778C47.4888 52.6222 48.4666 51.4002 48.711 51.1558Z" fill="#7B3F00" />
<path d="M62.3994 51.1558C62.6439 51.4002 63.6216 52.6222 62.3994 53.4778C63.9883 52.6222 63.0105 51.4002 62.3994 51.1558Z" fill="#7B3F00" />
<path d="M53.5994 56.4111C52.4994 56.6556 52.8659 58.2445 51.8881 58.3667C50.9103 58.489 50.4216 59.5889 50.5439 59.4667C51.155 58.9778 52.4995 58.611 53.4773 58.611C54.455 58.611 54.6995 59.2224 55.555 59.2224C56.4106 59.2224 56.655 58.611 57.6328 58.611C58.6105 58.611 59.9551 58.9778 60.5662 59.4667C60.6884 59.5889 60.1997 58.489 59.2219 58.3667C58.2442 58.2445 58.6106 56.6556 57.5106 56.4111C57.5106 56.9 57.877 56.7778 57.9992 57.5111C57.9992 58.1222 56.8994 58.1222 56.655 57.5111C56.8994 58.4889 56.1661 58.4889 55.555 58.4889C54.9439 58.4889 54.2106 58.4889 54.4551 57.5111C54.2106 58.1222 53.1108 58.1222 53.1108 57.5111C53.233 56.7778 53.5994 56.9 53.5994 56.4111Z" fill="#7B3F00" />
<path d="M49.811 60.5669C48.8333 61.3002 48.589 61.6669 48.4668 62.5225C48.7599 62.0095 48.9039 61.7987 49.1265 61.497C49.0676 61.4716 49.017 61.4484 48.956 61.4226C49.0272 61.431 49.0909 61.4421 49.1594 61.4517C49.3072 61.2521 49.4385 61.0791 49.811 60.5669Z" fill="#7B3F00" />
<path d="M49.159 61.4517C49.1556 61.4565 49.147 61.4681 49.1436 61.4728C49.2964 61.5083 49.4584 61.5248 49.6284 61.5254C49.4791 61.499 49.3222 61.4745 49.159 61.4517Z" fill="#7B3F00" />
<path d="M49.6279 61.5255C50.3901 61.66 50.9885 61.8354 51.537 62.0128C52.2211 61.9622 53.1648 61.789 55.5549 61.789C57.945 61.789 58.8886 61.9622 59.5727 62.0128C60.1213 61.8354 60.7197 61.66 61.4818 61.5255C60.135 61.5303 58.3399 60.5669 57.5105 60.5669C56.5327 60.5669 56.2882 60.8112 55.5549 60.8112C54.8216 60.8112 54.5771 60.5669 53.5993 60.5669C52.7698 60.5669 50.9747 61.5303 49.6279 61.5255Z" fill="#7B3F00" />
<path d="M61.4824 61.5254C61.6524 61.5248 61.8145 61.5083 61.9673 61.4728C61.9638 61.468 61.9553 61.4565 61.9518 61.4517C61.7887 61.4745 61.6317 61.499 61.4824 61.5254Z" fill="#7B3F00" />
<path d="M61.9515 61.4517C62.02 61.4421 62.0837 61.4314 62.1548 61.4226C62.0939 61.4484 62.0432 61.4716 61.9843 61.497C62.2069 61.7987 62.3509 62.0095 62.6441 62.5225C62.5218 61.6669 62.2776 61.3002 61.2998 60.5669C61.6723 61.0791 61.8037 61.2521 61.9515 61.4517Z" fill="#7B3F00" />
<path d="M61.9844 61.4967C61.9831 61.4943 61.9796 61.4895 61.9782 61.4883C60.7026 61.9797 60.2535 62.0632 59.5731 62.0128C58.4142 62.3877 57.459 62.7668 55.5552 62.7668C53.6514 62.7668 52.6962 62.3877 51.5373 62.0128C50.8569 62.0632 50.4078 61.9797 49.1322 61.4883C49.1309 61.4907 49.1274 61.4955 49.126 61.4967C52.9656 63.1493 52.5458 63.7443 55.5552 63.7443C58.5645 63.7443 58.1449 63.1493 61.9844 61.4967Z" fill="#7B3F00" />
<path d="M49.1328 61.4881C49.1353 61.4845 49.1414 61.476 49.1439 61.4726C49.0802 61.4579 49.0161 61.4443 48.9561 61.4224C49.0258 61.4497 49.0677 61.463 49.1328 61.4881Z" fill="#7B3F00" />
<path d="M61.978 61.4881C62.0431 61.463 62.0849 61.4497 62.1547 61.4224C62.0946 61.4442 62.0305 61.4578 61.9668 61.4725C61.9693 61.4761 61.9754 61.4847 61.978 61.4881Z" fill="#7B3F00" />
<path d="M45.6557 50.1778C46.5112 51.1556 47.0001 49.4445 50.0557 49.4445C53.1112 49.4445 53.6001 51.2778 54.089 50.9112C54.5779 50.5445 51.5223 48.3445 50.5446 48.2223C49.5668 48.1001 46.7557 49.0778 45.6557 50.1778ZM49.2001 51.2778C48.3446 52.0112 49.0779 53.6001 49.9335 53.6001C50.789 53.6001 52.3779 52.1334 51.6446 51.1556" fill="#7B3F00" />
<path d="M53.2334 52.3776C53.1112 50.9109 51.889 50.6665 49.9334 50.6665C47.9778 50.6665 47.1223 52.1332 46.389 52.4998C47.2445 52.4998 47.9778 51.2776 49.9334 51.2776C51.889 51.2776 51.889 51.2776 53.2334 52.4998M52.8667 52.7443C52.3778 52.0109 51.7667 53.4776 50.4223 53.4776C49.0778 53.4776 48.3445 53.1109 47.489 52.4998C46.6334 51.8887 48.7112 53.9665 50.0556 53.9665C51.4001 53.9665 53.2334 53.2332 52.8667 52.7443Z" fill="#7B3F00" />
<path d="M55.555 64.8442C54.9439 64.8442 53.355 65.2109 55.555 65.2109C57.755 65.2109 56.1661 64.8442 55.555 64.8442Z" fill="#7B3F00" />
</g></svg>