<svg xmlns="http://www.w3.org/2000/svg" viewBox="0 0 408 200"><g><path d="M204 150C231.614 150 254 127.614 254 100C254 72.3858 231.614 50 204 50C176.386 50 154 72.3858 154 100C154 127.614 176.386 150 204 150Z" fill="#D41C30" />
<path d="M202.397 60.5304L204 55.957L205.457 60.457L210.34 60.5304L206.477 63.4804L208.227 68.497L204 65.4004L199.847 68.3504L201.45 63.4804L197.66 60.6037L202.397 60.5304Z" fill="#006B3F" stroke="black" />
<path d="M205.603 139.471L204 144.044L202.543 139.544L197.66 139.471L201.523 136.521L199.773 131.504L204 134.601L208.153 131.651L206.55 136.521L210.34 139.397L205.603 139.471Z" fill="#006B3F" stroke="black" />
<path d="M225.903 67.1256L229.888 64.3682L228.421 68.8649L232.329 71.7946L227.47 71.9104L225.937 76.9976L224.337 72.008L219.243 71.9533L223.403 68.9558L222.028 64.4008L225.903 67.1256Z" fill="#006B3F" stroke="black" />
<path d="M182.097 132.874L178.112 135.632L179.579 131.135L175.671 128.205L180.53 128.09L182.063 123.002L183.663 127.992L188.757 128.047L184.597 131.044L185.972 135.599L182.097 132.874Z" fill="#006B3F" stroke="black" />
<path d="M241.043 86.2784L245.888 86.3901L242.058 89.166L243.498 93.833L239.498 91.0703L235.268 94.2849L236.907 89.3082L232.818 86.2697L237.945 86.2897L239.509 81.7963L241.043 86.2784Z" fill="#006B3F" stroke="black" />
<path d="M166.957 113.722L162.112 113.61L165.942 110.834L164.502 106.167L168.502 108.93L172.732 105.715L171.093 110.692L175.182 113.73L170.055 113.71L168.491 118.204L166.957 113.722Z" fill="#006B3F" stroke="black" />
<path d="M242.033 110.672L245.888 113.61L241.158 113.605L239.579 118.226L237.967 113.64L232.655 113.755L236.906 110.692L235.384 105.83L239.52 108.86L243.427 106.144L242.033 110.672Z" fill="#006B3F" stroke="black" />
<path d="M165.967 89.3273L162.112 86.3892L166.842 86.3945L168.421 81.7728L170.033 86.3586L175.345 86.2445L171.094 89.3074L172.616 94.1691L168.48 91.1393L164.573 93.8548L165.967 89.3273Z" fill="#006B3F" stroke="black" />
<path d="M228.497 130.99L229.888 135.632L226.065 132.847L222.071 135.658L223.463 131.001L219.098 127.971L224.338 127.992L225.964 123.164L227.529 128.046L232.286 128.146L228.497 130.99Z" fill="#006B3F" stroke="black" />
<path d="M179.504 69.0105L178.113 64.3682L181.936 67.1525L185.93 64.3415L184.538 68.9989L188.903 72.0289L183.663 72.008L182.037 76.8359L180.472 71.9535L175.715 71.854L179.504 69.0105Z" fill="#006B3F" stroke="black" />
<path d="M211.904 127.923C213.546 127.752 214.407 121.033 213.827 112.917C213.247 104.801 211.446 98.3598 209.804 98.5309C208.162 98.7021 207.301 105.42 207.881 113.537C208.46 121.653 210.262 128.094 211.904 127.923Z" fill="#006B3F" stroke="black" stroke-width="0.650901" />
<path d="M214.847 127.89C216.584 127.709 217.519 120.983 216.935 112.868C216.352 104.752 214.471 98.3187 212.735 98.4992C210.998 98.6798 210.063 105.405 210.646 113.521C211.229 121.637 213.11 128.07 214.847 127.89Z" fill="#006B3F" stroke="black" stroke-width="0.669406" />
<path d="M213.532 130.224C214.921 130.077 215.541 122.685 214.915 113.713C214.29 104.74 212.656 97.5862 211.267 97.7331C209.877 97.88 209.258 105.272 209.884 114.244C210.509 123.217 212.142 130.371 213.532 130.224Z" fill="#006B3F" stroke="black" stroke-width="0.629523" />
<path d="M189.263 120.855C191.815 120.749 190.707 119.383 191.996 118.656C193.284 117.931 195.118 118.411 195.668 119.318C196.218 120.226 195.777 121.117 196.484 121.129C197.193 121.142 216.46 120.334 217.154 121.094C217.849 121.854 217.964 123.353 217.244 123.936C216.524 124.526 192.166 124.798 191.327 124.182C190.488 123.574 189.26 121.005 189.263 120.855Z" fill="#9C4A00" stroke="black" stroke-width="0.657" />
<path d="M202.875 122.731C202.829 124.656 205.677 124.111 205.716 125.719C205.63 127.424 200.941 125.823 200.896 122.705C201.091 119.59 205.68 118.051 205.737 119.83C205.779 121.309 202.922 120.806 202.875 122.731Z" fill="#FCD116" stroke="black" stroke-width="0.633" />
<path d="M204.556 122.753C204.509 124.678 207.357 124.133 207.396 125.741C207.31 127.445 202.621 125.845 202.576 122.727C202.771 119.612 207.361 118.073 207.418 119.852C207.46 121.33 204.602 120.828 204.556 122.753Z" fill="#FCD116" stroke="black" stroke-width="0.633" />
<path d="M206.357 122.685C206.311 124.61 209.159 124.065 209.198 125.673C209.112 127.378 204.423 125.777 204.378 122.659C204.573 119.544 209.163 118.005 209.219 119.784C209.262 121.263 206.404 120.76 206.357 122.685Z" fill="#FCD116" stroke="black" stroke-width="0.633" />
<path d="M208.038 122.708C207.992 124.633 210.84 124.088 210.879 125.696C210.793 127.4 206.104 125.8 206.059 122.682C206.254 119.567 210.844 118.028 210.9 119.807C210.942 121.285 208.085 120.783 208.038 122.708Z" fill="#FCD116" stroke="black" stroke-width="0.633" />
<path d="M216.018 124.112C216.916 124.126 217.659 123.398 217.678 122.487C217.697 121.576 216.985 120.826 216.087 120.813C215.19 120.799 214.446 121.527 214.427 122.438C214.408 123.349 215.12 124.099 216.018 124.112Z" fill="#9C4A00" stroke="black" stroke-width="0.565354" />
<path d="M206.627 120.119C207.422 119.999 207.914 118.478 207.726 116.721C207.538 114.965 206.742 113.638 205.947 113.758C205.152 113.878 204.66 115.399 204.848 117.156C205.036 118.912 205.832 120.239 206.627 120.119Z" fill="#006B3F" stroke="black" stroke-width="0.721806" />
<path d="M204.174 119.925C204.969 119.805 205.461 118.284 205.273 116.528C205.085 114.772 204.289 113.445 203.494 113.565C202.699 113.685 202.207 115.206 202.395 116.962C202.583 118.719 203.379 120.045 204.174 119.925Z" fill="#006B3F" stroke="black" stroke-width="0.721806" />
<path d="M202.418 116.788C203.213 116.668 203.705 115.147 203.517 113.39C203.329 111.634 202.533 110.307 201.738 110.427C200.943 110.547 200.451 112.068 200.639 113.825C200.827 115.581 201.623 116.907 202.418 116.788Z" fill="#006B3F" stroke="black" stroke-width="0.721806" />
<path d="M204.937 116.979C205.701 116.858 206.154 115.189 205.948 113.251C205.742 111.314 204.955 109.841 204.191 109.962C203.427 110.083 202.975 111.751 203.18 113.689C203.386 115.627 204.173 117.099 204.937 116.979Z" fill="#006B3F" stroke="black" stroke-width="0.74378" />
<path d="M208.344 116.791C209.108 116.673 209.571 115.104 209.378 113.287C209.184 111.471 208.407 110.094 207.643 110.212C206.878 110.33 206.416 111.899 206.609 113.715C206.803 115.532 207.58 116.909 208.344 116.791Z" fill="#006B3F" stroke="black" stroke-width="0.720154" />
<path d="M206.459 115.655C207.224 115.537 207.686 113.968 207.493 112.152C207.299 110.335 206.523 108.958 205.758 109.076C204.994 109.194 204.531 110.763 204.725 112.58C204.918 114.396 205.695 115.773 206.459 115.655Z" fill="#006B3F" stroke="black" stroke-width="0.720154" />
<path d="M204.082 114.017C204.847 113.899 205.31 112.331 205.116 110.514C204.922 108.697 204.146 107.32 203.381 107.438C202.617 107.557 202.154 109.125 202.348 110.942C202.541 112.759 203.318 114.136 204.082 114.017Z" fill="#006B3F" stroke="black" stroke-width="0.720154" />
<path d="M201.88 113.024C202.645 112.906 203.107 111.338 202.914 109.521C202.72 107.704 201.943 106.327 201.179 106.445C200.415 106.563 199.952 108.132 200.145 109.949C200.339 111.765 201.116 113.142 201.88 113.024Z" fill="#006B3F" stroke="black" stroke-width="0.720154" />
<path d="M199.089 82.4375C199.089 82.4375 194.204 86.6775 194.752 98.1522C195.367 109.692 205.549 115.117 205.549 115.117C205.549 115.117 208.145 111.841 207.843 102.569C207.116 89.0128 202.307 83.0232 202.307 83.0232L199.089 82.4375Z" fill="#9461C9" stroke="black" stroke-width="0.575" />
<path d="M209.86 120.499C210.663 120.522 211.418 119.113 211.547 117.352C211.675 115.59 211.127 114.143 210.324 114.119C209.52 114.095 208.765 115.504 208.637 117.266C208.509 119.028 209.056 120.475 209.86 120.499Z" fill="#006B3F" stroke="black" stroke-width="0.721805" />
<path d="M207.481 119.871C208.284 119.894 209.039 118.485 209.168 116.724C209.296 114.962 208.748 113.515 207.945 113.491C207.142 113.467 206.386 114.876 206.258 116.638C206.13 118.4 206.677 119.847 207.481 119.871Z" fill="#006B3F" stroke="black" stroke-width="0.721805" />
<path d="M206.312 116.469C207.115 116.493 207.871 115.084 207.999 113.322C208.127 111.561 207.579 110.113 206.776 110.09C205.973 110.066 205.217 111.475 205.089 113.237C204.961 114.998 205.508 116.446 206.312 116.469Z" fill="#006B3F" stroke="black" stroke-width="0.721805" />
<path d="M208.758 117.106C209.531 117.123 210.274 115.562 210.417 113.618C210.559 111.675 210.048 110.086 209.275 110.068C208.501 110.051 207.758 111.612 207.616 113.556C207.473 115.499 207.984 117.088 208.758 117.106Z" fill="#006B3F" stroke="black" stroke-width="0.743778" />
<path d="M212.143 117.529C212.916 117.549 213.651 116.088 213.784 114.266C213.918 112.444 213.399 110.951 212.626 110.931C211.852 110.911 211.118 112.372 210.984 114.194C210.851 116.016 211.37 117.509 212.143 117.529Z" fill="#006B3F" stroke="black" stroke-width="0.72015" />
<path d="M210.491 116.077C211.264 116.097 211.999 114.636 212.132 112.814C212.265 110.992 211.747 109.498 210.973 109.479C210.2 109.459 209.465 110.92 209.332 112.742C209.199 114.564 209.718 116.057 210.491 116.077Z" fill="#006B3F" stroke="black" stroke-width="0.72015" />
<path d="M208.443 114.041C209.216 114.061 209.951 112.6 210.084 110.778C210.218 108.956 209.699 107.462 208.925 107.442C208.152 107.422 207.417 108.883 207.284 110.706C207.151 112.528 207.67 114.021 208.443 114.041Z" fill="#006B3F" stroke="black" stroke-width="0.72015" />
<path d="M206.454 112.672C207.227 112.692 207.962 111.231 208.095 109.409C208.228 107.587 207.709 106.093 206.936 106.073C206.163 106.053 205.428 107.514 205.295 109.336C205.162 111.159 205.68 112.652 206.454 112.672Z" fill="#006B3F" stroke="black" stroke-width="0.72015" />
<path d="M214.436 113.786C216.559 112.966 216.047 107.093 213.292 100.67C210.538 94.2465 206.584 89.704 204.461 90.524C202.338 91.344 202.85 97.2161 205.605 103.64C208.359 110.063 212.313 114.606 214.436 113.786Z" fill="#D41C30" stroke="black" stroke-width="0.277071" />
<path d="M206.251 91.8508C207.244 91.8685 208.061 91.1722 208.077 90.2957C208.092 89.4191 207.3 88.6942 206.307 88.6765C205.315 88.6589 204.497 89.3551 204.482 90.2317C204.466 91.1082 205.258 91.8331 206.251 91.8508Z" fill="#006B3F" stroke="black" stroke-width="0.627822" />
<path d="M207.602 89.6073C208.491 89.6231 209.225 88.9254 209.24 88.0488C209.256 87.1722 208.548 86.4488 207.658 86.433C206.769 86.4171 206.035 87.1149 206.02 87.9914C206.004 88.868 206.712 89.5914 207.602 89.6073Z" fill="#006B3F" stroke="black" stroke-width="0.627503" />
<path d="M205.429 89.5682C206.318 89.584 207.052 88.8863 207.067 88.0097C207.083 87.1332 206.375 86.4098 205.485 86.3939C204.596 86.3781 203.862 87.0758 203.847 87.9524C203.831 88.8289 204.539 89.5524 205.429 89.5682Z" fill="#006B3F" stroke="black" stroke-width="0.627503" />
<path d="M205.91 87.8273C206.84 87.8439 207.607 87.1903 207.621 86.3674C207.636 85.5445 206.893 84.864 205.963 84.8474C205.032 84.8308 204.265 85.4845 204.251 86.3074C204.236 87.1302 204.979 87.8108 205.91 87.8273Z" fill="#006B3F" stroke="black" stroke-width="0.627606" />
<path d="M205.718 85.9445C206.649 85.9611 207.415 85.3075 207.43 84.4846C207.445 83.6617 206.702 82.9812 205.771 82.9646C204.84 82.948 204.074 83.6017 204.059 84.4245C204.045 85.2474 204.787 85.9279 205.718 85.9445Z" fill="#006B3F" stroke="black" stroke-width="0.627606" />
<path d="M203.354 88.3006C204.243 88.3165 204.977 87.6187 204.992 86.7422C205.008 85.8656 204.3 85.1422 203.41 85.1263C202.521 85.1105 201.787 85.8082 201.772 86.6848C201.756 87.5614 202.464 88.2848 203.354 88.3006Z" fill="#006B3F" stroke="black" stroke-width="0.627503" />
<path d="M203.839 86.2358C204.729 86.2517 205.462 85.5684 205.477 84.7098C205.492 83.8511 204.784 83.1422 203.895 83.1263C203.005 83.1105 202.272 83.7937 202.256 84.6524C202.241 85.5111 202.95 86.22 203.839 86.2358Z" fill="#006B3F" stroke="black" stroke-width="0.627494" />
<path d="M201.18 86.3176C202.172 86.3353 202.99 85.639 203.005 84.7625C203.021 83.8859 202.229 83.161 201.236 83.1433C200.243 83.1257 199.426 83.8219 199.41 84.6985C199.395 85.575 200.187 86.2999 201.18 86.3176Z" fill="#006B3F" stroke="black" stroke-width="0.627822" />
<path d="M204.487 83.59C205.417 83.6066 206.184 82.953 206.199 82.1301C206.213 81.3072 205.471 80.6267 204.54 80.6101C203.609 80.5935 202.843 81.2472 202.828 82.07C202.813 82.8929 203.556 83.5735 204.487 83.59Z" fill="#006B3F" stroke="black" stroke-width="0.627606" />
<path d="M202.232 83.939C203.121 83.9548 203.854 83.2716 203.87 82.4129C203.885 81.5542 203.176 80.8453 202.287 80.8295C201.398 80.8136 200.664 81.4969 200.649 82.3555C200.634 83.2142 201.342 83.9231 202.232 83.939Z" fill="#006B3F" stroke="black" stroke-width="0.627494" />
<path d="M198.817 86.4051C199.706 86.421 200.44 85.7232 200.455 84.8467C200.471 83.9701 199.762 83.2467 198.873 83.2308C197.984 83.215 197.25 83.9127 197.234 84.7893C197.219 85.6658 197.927 86.3893 198.817 86.4051Z" fill="#006B3F" stroke="black" stroke-width="0.627503" />
<path d="M199.377 85.189C200.267 85.2048 201 84.5216 201.015 83.6629C201.031 82.8042 200.322 82.0953 199.433 82.0795C198.543 82.0636 197.81 82.7469 197.795 83.6055C197.779 84.4642 198.488 85.1731 199.377 85.189Z" fill="#006B3F" stroke="black" stroke-width="0.627494" />
<path d="M200.06 83.8804C200.949 83.8962 201.683 83.213 201.698 82.3543C201.713 81.4956 201.005 80.7867 200.115 80.7709C199.226 80.755 198.492 81.4383 198.477 82.2969C198.462 83.1556 199.17 83.8645 200.06 83.8804Z" fill="#006B3F" stroke="black" stroke-width="0.627494" />
<path d="M216.602 114.029C219.324 113.068 218.867 106.089 215.58 98.4409C212.293 90.7929 207.421 85.3724 204.698 86.3336C201.975 87.2949 202.432 94.2741 205.719 101.922C209.007 109.57 213.879 114.991 216.602 114.029Z" fill="#006B3F" stroke="black" stroke-width="0.57555" />
<path d="M216.235 105.485C216.739 105.245 216.571 103.76 215.86 102.168C215.149 100.576 214.163 99.4799 213.659 99.7198C213.154 99.9598 213.322 101.445 214.033 103.037C214.744 104.629 215.73 105.725 216.235 105.485Z" fill="#006B3F" stroke="black" stroke-width="0.574951" />
<path d="M214.488 102.6C218.758 107.799 218.219 111.101 217.773 113.894C216.432 110.673 215.699 108.645 211.428 103.445C207.157 98.2449 209.289 94.5955 209.582 92.6729C210.224 94.3372 210.217 97.3992 214.488 102.6Z" fill="#006B3F" stroke="black" stroke-width="0.575" />
<path d="M214.872 106.799C219.142 111.998 218.604 115.299 218.158 118.093C216.817 114.872 216.084 112.844 211.813 107.644C207.542 102.444 209.674 98.7951 209.967 96.8721C210.609 98.5364 210.601 101.598 214.872 106.799Z" fill="#006B3F" stroke="black" stroke-width="0.575" />
<path d="M215.001 110.182C219.374 115.29 218.901 118.602 218.511 121.404C217.106 118.212 216.333 116.201 211.959 111.092C207.585 105.984 209.643 102.291 209.898 100.362C210.573 102.012 210.626 105.073 215.001 110.182Z" fill="#006B3F" stroke="black" stroke-width="0.575" />
<path d="M214.238 102.834C215.238 102.58 215.033 100.074 213.779 97.2374C212.525 94.401 210.698 92.308 209.698 92.5625C208.698 92.8171 208.903 95.3228 210.157 98.1592C211.411 100.996 213.238 103.089 214.238 102.834Z" fill="#006B3F" stroke="black" stroke-width="0.579022" />
<path d="M212.038 104.839C212.937 104.685 212.877 102.656 211.902 100.307C210.927 97.9594 209.408 96.1813 208.508 96.336C207.608 96.4908 207.669 98.5197 208.644 100.868C209.618 103.216 211.138 104.994 212.038 104.839Z" fill="#006B3F" stroke="black" stroke-width="0.5822" />
<path d="M209.925 106.836C210.827 106.7 210.809 104.67 209.883 102.302C208.957 99.9343 207.475 98.1246 206.572 98.2602C205.669 98.3959 205.688 100.426 206.614 102.794C207.539 105.162 209.022 106.971 209.925 106.836Z" fill="#006B3F" stroke="black" stroke-width="0.582223" />
<path d="M211.44 98.6146C212.167 98.4814 212.078 96.9544 211.24 95.2039C210.403 93.4534 209.134 92.1423 208.407 92.2754C207.679 92.4086 207.769 93.9357 208.606 95.6862C209.444 97.4367 210.712 98.7478 211.44 98.6146Z" fill="#006B3F" stroke="black" stroke-width="0.585303" />
<path d="M209.523 100.007C210.258 99.9135 210.264 98.3845 209.537 96.5916C208.81 94.7986 207.625 93.4207 206.891 93.5139C206.156 93.6071 206.15 95.1361 206.877 96.929C207.604 98.722 208.789 100.1 209.523 100.007Z" fill="#006B3F" stroke="black" stroke-width="0.584824" />
<path d="M206.874 94.7441C208.136 97.8291 208.647 100.603 208.014 100.937C207.381 101.27 205.843 99.0368 204.58 95.9515" fill="#006B3F" />
<path d="M206.874 94.7441C208.136 97.8291 208.647 100.603 208.014 100.937C207.381 101.27 205.843 99.0368 204.58 95.9515" stroke="black" stroke-width="0.575" />
<path d="M209.315 96.3827C210.05 96.2895 210.056 94.7605 209.329 92.9675C208.602 91.1746 207.417 89.7967 206.683 89.8899C205.948 89.983 205.942 91.5121 206.669 93.305C207.396 95.0979 208.581 96.4759 209.315 96.3827Z" fill="#006B3F" stroke="black" stroke-width="0.584824" />
<path d="M207.129 97.4245C207.866 97.3458 207.906 95.8173 207.219 94.0106C206.532 92.204 205.379 90.8032 204.642 90.8819C203.906 90.9606 203.865 92.489 204.552 94.2957C205.239 96.1024 206.393 97.5032 207.129 97.4245Z" fill="#006B3F" stroke="black" stroke-width="0.58464" />
<path d="M204.675 90.5537C205.901 92.6384 206.561 94.585 206.148 94.8994C205.735 95.2134 204.406 93.7767 203.18 91.692" fill="#006B3F" />
<path d="M204.675 90.5537C205.901 92.6384 206.561 94.585 206.148 94.8994C205.735 95.2134 204.406 93.7767 203.18 91.692" stroke="black" stroke-width="0.575" />
<path d="M205.524 89.1719C206.75 91.2565 207.41 93.2032 206.997 93.5175C206.584 93.8315 205.254 92.3949 204.028 90.3102M209.338 89.4645C211.046 92.3122 211.965 94.9712 211.389 95.4012C210.813 95.8312 208.96 93.8685 207.251 91.0212" fill="#006B3F" />
<path d="M205.524 89.1719C206.75 91.2565 207.41 93.2032 206.997 93.5175C206.584 93.8315 205.254 92.3949 204.028 90.3102M209.338 89.4645C211.046 92.3122 211.965 94.9712 211.389 95.4012C210.813 95.8312 208.96 93.8685 207.251 91.0212" stroke="black" stroke-width="0.575" />
<path d="M206.817 87.9727C208.048 90.274 208.713 92.422 208.301 92.7677C207.888 93.113 206.555 91.5253 205.324 89.2237" fill="#006B3F" />
<path d="M206.817 87.9727C208.048 90.274 208.713 92.422 208.301 92.7677C207.888 93.113 206.555 91.5253 205.324 89.2237" stroke="black" stroke-width="0.575" />
<path d="M206.708 84.6373C205.886 85.4647 206.691 87.0117 207.443 87.5707C208.287 88.3357 213.024 93.333 216.366 89.1283C213.688 89.0797 208.691 82.7937 206.708 84.6373Z" fill="#9461C9" stroke="black" stroke-width="0.591" />
<path d="M206.123 82.1715C205.301 82.9992 206.106 84.5462 206.858 85.1055C207.702 85.8702 212.439 90.8675 215.781 86.6628C213.103 86.6142 208.106 80.3278 206.123 82.1715Z" fill="#9461C9" stroke="black" stroke-width="0.591" />
<path d="M205.374 79.8082C204.552 80.6356 205.357 82.1829 206.109 82.7419C206.953 83.5066 211.69 88.5039 215.032 84.2992C212.354 84.2506 207.357 77.9646 205.374 79.8082Z" fill="#9461C9" stroke="black" stroke-width="0.591" />
<path d="M203.747 77.1041C202.925 77.9318 203.73 79.4788 204.482 80.0378C205.326 80.8028 210.063 85.8001 213.405 81.5955C210.727 81.5465 205.73 75.2605 203.747 77.1041Z" fill="#9461C9" stroke="black" stroke-width="0.591" />
<path d="M197.91 74.5171C199.603 73.2571 202.714 72.8891 205.137 74.1228C207.155 75.1114 210.519 79.1471 213.048 80.1011C211.268 80.4184 210.185 80.1501 209.048 79.6038C206.801 81.2304 206.001 81.4741 203.712 81.7938C200.528 82.2531 197.885 81.4244 196.956 79.7638C196.01 78.1974 196.418 75.6844 197.91 74.5171Z" fill="#9461C9" stroke="black" stroke-width="0.628" />
<path d="M201.488 77.8759C202.293 77.8902 202.953 77.5231 202.961 77.056C202.97 76.5888 202.323 76.1985 201.518 76.1842C200.712 76.1698 200.053 76.5369 200.045 77.0041C200.036 77.4712 200.682 77.8615 201.488 77.8759Z" fill="#D41C30" stroke="black" stroke-width="0.572038" />
<path d="M197.485 81.6145C198.537 81.2231 199.197 80.3857 198.959 79.7441C198.721 79.1025 197.675 78.8998 196.623 79.2912C195.571 79.6827 194.911 80.5201 195.149 81.1617C195.387 81.8032 196.433 82.006 197.485 81.6145Z" fill="#FCD116" stroke="black" stroke-width="0.61911" />
<path d="M201.419 77.426C201.709 77.4312 201.947 77.2323 201.952 76.9819C201.956 76.7314 201.725 76.5242 201.435 76.5191C201.146 76.5139 200.908 76.7128 200.903 76.9632C200.899 77.2137 201.13 77.4209 201.419 77.426Z" fill="black" />
<path d="M198.291 78.1612C198.425 78.8112 197.943 79.6888 196.897 79.9995C195.832 80.4405 195.025 81.4402 194.559 83.0752C192.94 79.3472 193.969 77.7698 195.688 77.3865C197.167 76.9148 198.058 76.9745 198.291 78.1612Z" fill="#FCD116" stroke="black" stroke-width="0.732" />
</g></svg>