<svg width="400" height="200" viewBox="0 0 400 200" fill="none"
    xmlns="http://www.w3.org/2000/svg">
    <g clip-path="url(#clip0_39_13159)">
        <path d="M188.375 40.7197C187.659 40.7197 187.034 40.9024 186.669 41.1864C187.248 41.3553 187.67 41.8899 187.67 42.5402V44.1897H186.021C185.375 44.1897 184.84 43.7742 184.667 43.1999C184.383 43.5648 184.2 44.1904 184.2 44.9064C184.2 45.6226 184.383 46.2484 184.667 46.6128C184.836 46.0328 185.37 45.6115 186.021 45.6115H187.67V53.5406C187.67 54.1639 187.28 54.6811 186.737 54.8715C187.524 54.9786 188.201 56.0346 188.387 56.6122C188.573 56.0359 189.25 54.9786 190.036 54.8715C189.759 54.7769 189.519 54.5974 189.349 54.3585C189.18 54.1197 189.09 53.8335 189.092 53.5406V45.6111H190.742C191.388 45.6111 191.923 46.0266 192.096 46.6013C192.379 46.2364 192.562 45.6104 192.562 44.8946C192.562 44.1784 192.38 43.5528 192.096 43.1882C191.926 43.7679 191.392 44.1891 190.742 44.1891H189.092V42.5397C189.092 41.8935 189.507 41.3586 190.082 41.1857C189.717 40.9022 189.091 40.7197 188.375 40.7197Z" fill="black"/>
        <path d="M188.376 41.062C188.003 41.062 187.674 41.1318 187.398 41.2211C187.767 41.5427 188.012 42.0087 188.012 42.5409V44.1905C188.012 44.214 188.005 44.2365 188 44.2589V44.5205H187.739C187.716 44.5251 187.694 44.5318 187.67 44.532H186.021C185.495 44.532 185.034 44.2913 184.713 43.9291C184.62 44.2089 184.542 44.5285 184.542 44.9076C184.542 45.2805 184.612 45.6089 184.701 45.8858C185.023 45.516 185.488 45.2718 186.021 45.2718H188.012C188.009 45.306 188 45.3391 188 45.3738V45.5445C188.005 45.5667 188.011 45.5891 188.012 45.6127V53.5418C188.012 54.0567 187.746 54.4616 187.397 54.7818C187.643 54.935 187.862 55.1272 188.046 55.3509C188.209 55.5476 188.274 55.74 188.387 55.9422C188.5 55.7405 188.564 55.5476 188.728 55.3509C188.91 55.1324 189.125 54.9442 189.365 54.7933C189.013 54.474 188.751 54.0589 188.751 53.542V45.2825H189.024C189.046 45.278 189.069 45.2713 189.092 45.2713H190.742C191.268 45.2713 191.728 45.512 192.05 45.874C192.142 45.5945 192.221 45.2751 192.221 44.8958C192.221 44.5231 192.151 44.1945 192.061 43.9176C191.74 44.2873 191.274 44.5316 190.742 44.5316H189.092C189.069 44.5316 189.046 44.5247 189.024 44.52H188.762V44.2585C188.758 44.2365 188.751 44.2138 188.751 44.19V42.5407C188.751 42.0147 188.992 41.5545 189.354 41.2325C189.074 41.1405 188.755 41.062 188.376 41.062Z" fill="#F5D402"/>
        <path d="M209.024 69.7747C208.016 69.0589 207.189 68.2498 206.601 67.3058C205.185 65.034 204.587 62.2451 204.587 59.4109C204.587 58.2129 205.929 56.8643 205.929 55.8954C205.929 54.4309 205.793 53.5522 205.793 53.5522C206.269 53.6171 207.101 54.4622 207.101 54.4622C207.101 54.4622 207.073 52.0316 206.305 51.6069C206.305 51.6069 206.615 51.2874 207.738 51.2543C207.423 50.4551 205.861 49.4796 205.861 49.4796C205.939 49.3398 206.083 49.2189 206.271 49.1156C206.663 48.8987 207.214 48.7556 207.635 48.6718C207.186 48.5787 206.668 48.436 206.1 48.2507C204.802 47.8278 203.273 47.2069 201.845 46.5218C199.238 45.2711 197.252 45.1907 196.157 45.1907C195.363 45.1909 194.193 45.2127 193.507 45.6689C192.879 46.0856 192.93 46.6276 192.71 46.8178C192.193 47.2658 191.306 47.25 190.879 47.25C188.114 47.25 188.012 50.208 188.012 50.208C188.012 50.208 188.719 49.1385 189.968 49.1385C192.046 49.1385 193.62 50.2705 193.62 50.6969C193.62 50.8696 193.406 50.9016 193.393 50.9016C192.035 50.9016 189.987 50.1202 188.899 50.0825V50.6171C191.328 51.4623 193.791 52.6587 193.791 57.932C193.791 61.2527 193.393 64.6409 191.732 67.306C191.143 68.2498 190.305 69.0574 189.297 69.7749L199.161 71.5527L209.024 69.7747Z" fill="black"/>
        <path d="M199.16 67.5524L189.297 69.7749C188.849 69.6394 186.739 68.9836 185.259 68.1593C182.653 66.7078 181.302 65.2638 178.205 65.1218V62.7667C178.205 61.5084 178.661 60.3749 178.661 59.1718C177.356 58.8218 173.732 54.3918 170.39 52.4256C165.472 55.6109 161.665 60.84 161.665 63.2447C161.665 63.2447 161.812 114.914 161.665 132.914C161.665 133.951 161.039 135.416 161.039 135.416C162.834 134.657 166.125 130.154 166.818 128.443V129.262C169.53 128.026 171.515 124.777 172.404 123.096C172.42 123.339 172.461 123.949 172.461 123.949C174.883 121.826 177.967 109.274 177.967 109.274L183.105 114.324C183.105 114.324 181.247 118.096 180.523 118.772C180.523 118.772 181.008 118.833 181.558 118.829C181.22 119.315 178.637 123.034 177.827 124.437C177.069 125.75 176.534 125.165 175.37 125.165C174.404 125.165 172.214 126.704 171.854 127.327C171.476 127.981 171.195 128.776 171.195 129.432C171.195 130.152 171.957 131.138 171.957 131.138C172.039 130.793 172.184 130.672 172.184 130.672C172.184 130.672 174.187 133.167 174.482 133.493C174.712 133.747 175.737 133.912 176.098 133.584C177.001 132.762 177.876 132.188 178.68 131.002C179.094 130.39 179.126 129.69 179.602 129.033C181.193 126.838 184.361 122.633 185.085 121.673C185.134 121.94 185.175 122.163 185.221 122.435C186.042 120.778 189.988 117.612 189.988 117.612L194.116 119.512C194.116 119.512 186.408 137.23 179.566 139.955C179.566 139.955 182.543 141.22 186.198 143.118C186.747 143.405 187.293 143.697 187.837 143.994C188.326 143.403 188.8 142.8 189.259 142.185C191.444 139.26 193.582 135.871 193.582 135.871C193.731 136.751 192.577 139.47 190.624 142.822C190.24 143.481 189.84 144.17 189.396 144.87C189.892 145.152 190.385 145.44 190.874 145.734C194.496 147.913 197.896 150.418 199.156 152.719L200.045 150.495L199.156 148.271V70.5027L199.6 69.3916L199.16 67.5524Z" fill="black"/>
        <path d="M199.156 148.271C197.878 146.885 195.207 145.192 192.205 143.63C195.835 137.115 197.634 126.817 196.79 124.767C196.79 124.767 195.3 130.108 193.479 133.152C191.793 135.97 189.718 139.14 187.711 141.491C186.061 140.786 184.46 140.196 183.093 139.784C189.105 135.152 195.254 119.841 195.254 119.841L188.896 116.895C188.896 116.895 186.517 119.668 185.745 120.183C185.745 120.183 185.415 118.804 185.221 118.317C185.221 118.317 184.31 119.006 183.811 119.023C183.811 119.023 183.662 118.087 183.549 117.475C182.921 117.894 181.877 117.805 181.877 117.805C182.794 117.371 183.879 114.711 183.879 114.711L177.808 106.634C177.808 106.634 175.675 116.882 173.246 118.989V74.8602L175.169 76.646L178.081 73.9271V71.8567L175.498 74.2682V68.0227C175.797 67.5748 176.077 67.1157 176.34 66.6462C176.758 67.3749 178.109 69.6082 179.696 70.9807C179.957 69.9189 181.675 68.91 181.675 68.91C181.675 68.91 182.291 70.5784 183.234 70.9918C183.565 70.4078 185.543 69.1149 185.543 69.1149C185.543 69.1149 183.851 69.372 183.166 70.0138C182.577 69.882 182.426 67.5564 182.426 67.5564C182.426 67.5564 179.936 68.7696 179.503 69.6382C179.028 69.5098 178.288 67.6409 178.001 66.8738C178.616 66.8051 179.235 66.771 179.855 66.7716C180.565 66.7716 181.474 67.108 182.426 67.5564C183.472 68.0489 184.566 68.6722 185.543 69.1149C186.795 69.6816 188.688 69.7969 189.24 69.8204C188.608 70.2649 187.913 70.6707 187.159 71.0491C187.159 71.0491 190.139 71.0216 192.233 69.9796C192.979 69.4991 193.755 69.0204 194.417 68.4551C194.129 69.2536 193.682 70.1971 192.983 71.0033C196.058 70.7431 197.589 68.9873 198.023 68.3982C198.227 68.926 198.59 69.7731 199.16 70.5027H200.271V146.058L199.156 148.271ZM176.499 59.3991L176.556 60.8098V64.9624C175.441 64.5787 174.039 62.7462 173.359 61.7771V61.2082C173.359 60.6731 173.674 60.2822 173.905 60.0707L173.234 59.832C172.978 60.1238 172.7 60.5571 172.7 61.1173V61.4473L170.698 63.5976L168.73 60.6169V59.8889C168.73 59.3982 169.107 58.8511 169.424 58.4782L168.764 58.2393C168.431 58.6709 168.081 59.2524 168.081 59.7978V60.3891C167.618 60.8682 165.817 62.7216 165.817 62.7216L164.668 60.2529C166.047 58.3429 168.283 56.2042 170.39 54.6696C170.39 54.6696 174.96 58.8653 176.499 59.3991ZM164.917 63.4264V66.8511L163.324 68.3298V63.2447C163.324 62.7578 163.528 62.1711 163.87 61.5267L164.917 63.4264Z" fill="#B07F55"/>
        <path d="M169.877 64.746V66.862L168.046 68.58V61.9591L169.877 64.746ZM167.397 68.5687L165.565 66.8622V64.3824L167.397 62.4598V68.5687ZM175.758 65.9976C175.333 66.5987 174.219 68.0689 173.017 68.7167V62.9033C173.293 63.362 174.558 65.4087 175.758 65.9976ZM172.368 63.1989V68.5684L170.536 66.862V64.9622L172.368 63.1989ZM164.917 68.9211V74.2796L163.324 72.7891V70.4113L164.917 68.9211ZM167.396 70.6391V72.5616L165.563 74.2678V68.9324L167.396 70.6391ZM169.875 68.9329V74.2684L168.044 72.5504V70.6507L169.875 68.9329ZM172.367 70.6507V72.5504L170.535 74.2682V68.9327L172.367 70.6507ZM174.847 74.2796L173.015 72.5616V70.7758C173.646 70.3902 174.282 69.6816 174.846 68.9329L174.847 74.2796ZM170.205 76.6458L172.139 74.8482V118.988C172.139 118.988 172.274 121.178 172.367 122.606L168.272 126.747V74.8364L170.205 76.6458ZM167.167 125.097C167.167 126.516 164.576 129.825 163.322 130.581V74.8607L165.233 76.6464L167.167 74.8487V125.097Z" fill="#B07F55"/>
        <path d="M183.23 120.308L184.641 119.341C184.641 119.341 184.735 119.808 184.857 120.445C184.253 121.27 180.783 126.006 179.066 128.317C178.639 128.891 178.281 130.353 178.281 130.353C178.281 130.353 177.655 130.057 177.655 129.523C177.655 128.998 177.724 128.374 177.724 128.374C177.724 128.374 177.257 128.908 176.449 128.908C176.449 128.263 177.697 127.564 177.746 126.645C176.795 127.35 175.969 126.988 174.868 127.328C173.67 127.697 173.336 128.2 172.969 128.181C172.752 128.169 172.556 127.796 172.639 127.566C172.782 127.169 174.264 126.07 175.3 125.872C175.549 125.824 177.501 126.296 177.894 125.69C179.515 123.189 182.145 119.13 182.399 118.739C182.566 118.699 182.72 118.656 182.843 118.579C182.843 118.579 182.828 119.857 183.23 120.308Z" fill="#D10429"/>
        <path d="M174.16 128.1C174.238 128.191 174.231 128.324 174.148 128.396L173.511 128.953C173.428 129.025 173.294 129.01 173.216 128.919C173.137 128.828 173.144 128.695 173.227 128.623L173.864 128.066C173.884 128.048 173.908 128.035 173.933 128.027C173.959 128.019 173.986 128.017 174.012 128.02C174.065 128.026 174.12 128.054 174.16 128.1ZM175.127 128.771C175.317 128.991 175.305 129.302 175.104 129.477L173.557 130.83C173.355 131.005 173.031 130.97 172.84 130.751C172.649 130.531 172.661 130.209 172.863 130.034L174.41 128.692C174.487 128.627 174.582 128.587 174.683 128.578C174.841 128.565 175.007 128.634 175.127 128.771ZM176.013 129.818C176.204 130.037 176.192 130.348 175.991 130.523L174.432 131.877C174.231 132.052 173.918 132.017 173.727 131.797C173.536 131.578 173.548 131.256 173.75 131.081L175.297 129.738C175.37 129.674 175.461 129.634 175.559 129.624C175.717 129.612 175.894 129.68 176.013 129.818ZM176.547 130.648C176.631 130.641 176.714 130.654 176.791 130.686C176.868 130.717 176.937 130.767 176.991 130.83C177.182 131.05 177.17 131.372 176.969 131.547L175.421 132.89C175.22 133.064 174.907 133.029 174.716 132.81C174.525 132.59 174.526 132.279 174.727 132.104L176.286 130.751C176.361 130.685 176.452 130.656 176.547 130.648Z" fill="#D10429"/>
        <path d="M199.151 67.5524L209.014 69.7747C209.463 69.6391 211.572 68.9836 213.053 68.1593C215.658 66.7078 217.01 65.2638 220.106 65.1218V62.7667C220.106 61.5084 219.651 60.3749 219.651 59.1718C220.956 58.8218 224.579 54.3918 227.921 52.4256C232.839 55.6109 236.647 60.84 236.647 63.2447C236.647 63.2447 236.499 114.914 236.647 132.914C236.647 133.951 237.272 135.416 237.272 135.416C235.477 134.657 232.186 130.154 231.493 128.443V129.262C228.782 128.026 226.797 124.777 225.908 123.096C225.892 123.339 225.85 123.949 225.85 123.949C223.428 121.826 220.345 109.274 220.345 109.274L215.206 114.324C215.206 114.324 217.064 118.096 217.788 118.772C217.788 118.772 217.303 118.833 216.753 118.829C217.092 119.315 219.675 123.034 220.485 124.437C221.242 125.75 221.777 125.165 222.942 125.165C223.908 125.165 226.098 126.704 226.457 127.327C226.835 127.981 227.117 128.776 227.117 129.432C227.117 130.152 226.354 131.138 226.354 131.138C226.272 130.793 226.127 130.672 226.127 130.672C226.127 130.672 224.124 133.167 223.829 133.493C223.599 133.747 222.575 133.912 222.214 133.584C221.31 132.762 220.435 132.188 219.631 131.002C219.217 130.39 219.186 129.69 218.71 129.033C217.118 126.838 213.951 122.633 213.226 121.673C213.178 121.94 213.136 122.163 213.09 122.435C212.27 120.778 208.324 117.612 208.324 117.612L204.195 119.512C204.195 119.512 211.903 137.23 218.745 139.955C218.745 139.955 215.769 141.22 212.113 143.118C211.564 143.405 211.018 143.697 210.475 143.994C209.986 143.403 209.511 142.8 209.053 142.185C206.867 139.26 204.73 135.871 204.73 135.871C204.581 136.751 205.735 139.47 207.687 142.822C208.071 143.481 208.472 144.17 208.916 144.87C208.42 145.152 207.927 145.44 207.437 145.734C203.816 147.913 200.416 150.418 199.156 152.719L198.267 150.495L199.156 148.271V70.5027L198.711 69.3916L199.151 67.5524Z" fill="black"/>
        <path d="M199.156 148.271C200.434 146.885 203.104 145.192 206.106 143.63C202.476 137.115 200.678 126.817 201.522 124.767C201.522 124.767 203.012 130.108 204.832 133.152C206.518 135.97 208.594 139.14 210.6 141.491C212.251 140.786 213.851 140.196 215.219 139.784C209.206 135.152 203.058 119.841 203.058 119.841L209.416 116.895C209.416 116.895 211.794 119.668 212.567 120.183C212.567 120.183 212.897 118.804 213.09 118.317C213.09 118.317 214.002 119.006 214.5 119.023C214.5 119.023 214.65 118.087 214.762 117.475C215.39 117.894 216.434 117.805 216.434 117.805C215.517 117.371 214.432 114.711 214.432 114.711L220.504 106.634C220.504 106.634 222.636 116.882 225.066 118.989V74.8602L223.143 76.646L220.231 73.9271V71.8567L222.813 74.2682V68.0227C222.515 67.5748 222.234 67.1157 221.971 66.6462C221.553 67.3749 220.202 69.6082 218.616 70.9807C218.354 69.9189 216.636 68.91 216.636 68.91C216.636 68.91 216.02 70.5784 215.078 70.9918C214.746 70.4078 212.768 69.1149 212.768 69.1149C212.768 69.1149 214.46 69.372 215.146 70.0138C215.734 69.882 215.885 67.5564 215.885 67.5564C215.885 67.5564 218.376 68.7696 218.809 69.6382C219.284 69.5098 220.023 67.6409 220.311 66.8738C219.695 66.8051 219.076 66.771 218.456 66.7716C217.746 66.7716 216.837 67.108 215.885 67.5564C214.839 68.0489 213.745 68.6722 212.768 69.1149C211.516 69.6816 209.623 69.7969 209.071 69.8204C209.703 70.2649 210.398 70.6707 211.153 71.0491C211.153 71.0491 208.172 71.0216 206.079 69.9796C205.332 69.4991 204.557 69.0204 203.895 68.4551C204.182 69.2536 204.629 70.1971 205.328 71.0033C202.254 70.7431 200.723 68.9873 200.289 68.3982C200.085 68.926 199.721 69.7731 199.151 70.5027H198.04V146.058L199.156 148.271ZM221.812 59.3991L221.756 60.8098V64.9624C222.871 64.5787 224.272 62.7462 224.952 61.7771V61.2082C224.952 60.6731 224.637 60.2822 224.406 60.0707L225.077 59.832C225.333 60.1238 225.612 60.5571 225.612 61.1173V61.4473L227.614 63.5976L229.582 60.6169V59.8889C229.582 59.3982 229.204 58.8511 228.888 58.4782L229.548 58.2393C229.881 58.6709 230.23 59.2524 230.23 59.7978V60.3891C230.693 60.8682 232.494 62.7216 232.494 62.7216L233.643 60.2529C232.264 58.3429 230.028 56.2042 227.921 54.6696C227.921 54.6696 223.351 58.8653 221.812 59.3991ZM233.394 63.4264V66.8511L234.987 68.3298V63.2447C234.987 62.7578 234.783 62.1711 234.441 61.5267L233.394 63.4264Z" fill="#B07F55"/>
        <path d="M228.434 64.746V66.862L230.266 68.58V61.9591L228.434 64.746ZM230.915 68.5687L232.746 66.8622V64.3824L230.915 62.4598V68.5687ZM222.553 65.9976C222.978 66.5987 224.092 68.0689 225.295 68.7167V62.9033C225.019 63.362 223.754 65.4087 222.553 65.9976ZM225.944 63.1989V68.5684L227.775 66.862V64.9622L225.944 63.1989ZM233.395 68.9211V74.2796L234.987 72.7891V70.4113L233.395 68.9211ZM230.916 70.6391V72.5616L232.748 74.2678V68.9324L230.916 70.6391ZM228.436 68.9329V74.2684L230.268 72.5504V70.6507L228.436 68.9329ZM225.945 70.6507V72.5504L227.776 74.2682V68.9327L225.945 70.6507ZM223.465 74.2796L225.297 72.5616V70.7758C224.665 70.3902 224.03 69.6816 223.465 68.9329L223.465 74.2796ZM228.106 76.6458L226.172 74.8482V118.988C226.172 118.988 226.037 121.178 225.944 122.606L230.04 126.747V74.8364L228.106 76.6458ZM231.144 125.097C231.144 126.516 233.735 129.825 234.989 130.581V74.8607L233.078 76.6464L231.144 74.8487V125.097Z" fill="#B07F55"/>
        <path d="M215.082 120.308L213.671 119.341C213.671 119.341 213.577 119.808 213.455 120.445C214.059 121.27 217.528 126.006 219.245 128.317C219.672 128.891 220.031 130.353 220.031 130.353C220.031 130.353 220.656 130.057 220.656 129.523C220.656 128.998 220.588 128.374 220.588 128.374C220.588 128.374 221.054 128.908 221.862 128.908C221.862 128.263 220.614 127.564 220.565 126.645C221.516 127.35 222.343 126.988 223.443 127.328C224.642 127.697 224.975 128.2 225.343 128.181C225.559 128.169 225.755 127.796 225.673 127.566C225.53 127.169 224.047 126.07 223.011 125.872C222.763 125.824 220.81 126.296 220.417 125.69C218.797 123.189 216.166 119.13 215.912 118.739C215.745 118.699 215.591 118.656 215.469 118.579C215.469 118.579 215.484 119.857 215.082 120.308Z" fill="#D10429"/>
        <path d="M224.152 128.1C224.073 128.191 224.08 128.324 224.163 128.396L224.8 128.953C224.884 129.025 225.017 129.01 225.096 128.919C225.174 128.828 225.168 128.695 225.084 128.623L224.447 128.066C224.427 128.048 224.404 128.035 224.378 128.027C224.353 128.019 224.326 128.017 224.3 128.02C224.247 128.026 224.191 128.054 224.152 128.1ZM223.185 128.771C222.994 128.991 223.006 129.302 223.208 129.477L224.755 130.83C224.956 131.005 225.281 130.97 225.472 130.751C225.662 130.531 225.65 130.209 225.449 130.034L223.902 128.692C223.824 128.627 223.729 128.587 223.628 128.578C223.47 128.565 223.304 128.634 223.185 128.771ZM222.298 129.818C222.108 130.037 222.12 130.348 222.321 130.523L223.879 131.877C224.08 132.052 224.394 132.017 224.585 131.797C224.775 131.578 224.763 131.256 224.562 131.081L223.015 129.738C222.942 129.674 222.85 129.634 222.753 129.624C222.595 129.612 222.417 129.68 222.298 129.818ZM221.764 130.648C221.681 130.641 221.597 130.654 221.52 130.686C221.443 130.717 221.375 130.767 221.32 130.83C221.13 131.05 221.142 131.372 221.343 131.547L222.89 132.89C223.092 133.064 223.405 133.029 223.596 132.81C223.786 132.59 223.785 132.279 223.584 132.104L222.026 130.751C221.95 130.685 221.859 130.656 221.764 130.648Z" fill="#D10429"/>
        <path d="M196.874 45.9193C199.42 45.9193 201.211 47.0802 203.62 48.1488C204.252 48.4288 204.831 48.6557 205.349 48.8313C205.025 49.1186 204.772 49.4073 204.7 49.6506C204.7 49.6506 205.78 49.8506 206.27 50.7544C206.27 50.7544 205.244 50.8708 205.076 51.4708C205.651 51.5142 206.222 52.239 206.225 52.9386L204.769 52.4833C204.769 52.4833 205.121 54.1184 205.121 55.8962C205.121 56.8042 203.813 57.8726 203.813 59.4115C203.813 64.2413 205.03 66.0977 205.895 67.5908C206.234 68.175 206.509 68.8473 207.078 69.3542C204.586 68.0268 202.733 66.3677 202.733 64.8266V58.9906H202.084V64.8266C202.084 65.9442 202.357 66.4648 202.357 66.4648C202.748 67.7013 203.54 69.6097 204.03 70.3782C201.736 69.1386 200.571 67.5864 200.571 67.0108V58.9904H199.922V67.1244L200.048 67.6817C199.77 68.0995 199.408 68.5942 199.16 68.7624C198.913 68.5944 198.562 68.0988 198.284 67.6817L198.409 67.1244V58.9904H197.761V67.0108C197.761 67.5862 196.596 69.1386 194.302 70.3782C194.792 69.6095 195.583 67.7013 195.974 66.4648C195.974 66.4648 196.248 65.9444 196.248 64.8266V58.9906H195.599V64.8266C195.599 66.3659 193.753 68.0277 191.265 69.3542C191.828 68.8468 192.1 68.1717 192.436 67.5908C193.382 65.9579 194.552 63.8835 194.552 57.9779C194.552 55.7615 194.224 54.2546 193.654 53.1999C193.48 52.8519 193.246 51.9257 194.575 51.9257C195.263 51.9257 196.839 53.143 196.839 53.143C196.839 53.143 196.774 52.1717 195.974 51.6186C195.842 51.5268 195.622 51.2382 195.622 50.9699C195.622 50.769 195.966 50.2733 196.236 50.1508C196.421 50.0668 193.528 49.5628 193.528 48.251C193.528 47.9779 193.7 47.7959 194.302 47.7959C195.089 47.7959 196.371 48.7402 197.51 48.7402C198.352 48.7402 198.684 48.5353 199.546 48.5353C200.6 48.5353 202.798 50.5306 203.55 50.4577C202.71 49.9299 201.352 47.9322 199.296 47.9322C198.582 47.9322 197.937 48.0915 197.271 48.0915C196.417 48.0915 195.577 47.3064 194.654 47.3064C194.036 47.3064 193.346 47.3408 193.243 47.181C193.064 46.9022 193.226 46.7404 193.391 46.5099C193.704 46.075 194.584 45.9488 195.451 45.9186C195.705 45.9093 195.959 45.9056 196.214 45.9075C196.456 45.9099 196.68 45.9193 196.874 45.9193Z" fill="#B07F55"/>
        <path d="M188.607 49.042C188.607 49.042 189.144 48.024 190.503 48.024C191.071 48.024 192.946 47.9846 192.946 47.9846C193.196 48.6338 194.335 49.7184 194.335 50.8464C194.335 50.8464 193.179 48.7626 189.952 48.7626C189.141 48.7626 188.607 49.042 188.607 49.042Z" fill="#CC092F"/>
        <path d="M193.854 51.2441C193.854 51.2441 193.166 51.9681 193.017 52.3545C192.337 52.0967 191.15 50.8743 191.15 50.8743C191.15 50.8743 192.156 51.4614 193.854 51.2441Z" fill="#D10429"/>
        <path d="M192.765 49.3263C192.765 49.3263 191.972 49.0721 191.972 48.8058C191.972 48.4667 192.357 48.4667 192.587 48.731C192.745 48.913 192.765 49.3263 192.765 49.3263Z" fill="black"/>
        <path d="M196.177 50.2449C196.804 50.2449 197.313 49.8427 197.313 49.3465C197.313 48.8503 196.804 48.448 196.177 48.448C195.55 48.448 195.041 48.8503 195.041 49.3465C195.041 49.8427 195.55 50.2449 196.177 50.2449Z" fill="black"/>
        <path d="M196.178 50.1377C196.615 50.1377 196.969 49.7835 196.969 49.3466C196.969 48.9096 196.615 48.5554 196.178 48.5554C195.741 48.5554 195.387 48.9096 195.387 49.3466C195.387 49.7835 195.741 50.1377 196.178 50.1377Z" fill="#F5D402"/>
        <path d="M196.178 49.6821C196.363 49.6821 196.513 49.5317 196.513 49.3463C196.513 49.1609 196.363 49.0105 196.178 49.0105C195.992 49.0105 195.842 49.1609 195.842 49.3463C195.842 49.5317 195.992 49.6821 196.178 49.6821Z" fill="black"/>
        <path d="M178.084 131.544L181.684 133.508L180.811 137.515L177.21 135.55L178.084 131.544Z" fill="black"/>
        <path d="M161.311 93.0507L160.015 93.6425L174.667 125.736H176.226L161.311 93.0507ZM178.592 130.9L177.534 131.992L178.194 133.448L179.479 132.856L178.592 130.9Z" fill="black"/>
        <path d="M165.865 118.355C165.865 118.355 167.099 120.904 168.037 121.254C167.552 121.122 165.977 121.7 165.977 121.7C165.977 121.7 168.754 124.181 171.11 124.344C173.108 124.481 174.078 123.484 174.078 123.484L173.678 121.368C173.678 121.368 172.455 119.892 170.499 119.211C168.523 118.522 165.865 118.355 165.865 118.355ZM175.169 113.788C175.169 113.788 173.465 115.247 172.999 116.937C172.532 118.627 173.303 120.548 173.303 120.548L174.735 123.219C174.735 123.219 176.719 122.163 177.563 120.583C178.408 119.004 178.098 116.873 178.098 116.873C178.098 116.873 176.526 117.458 176.326 117.717C176.658 115.965 175.169 113.788 175.169 113.788ZM169.691 113.106C169.691 113.106 167.753 113.761 165.871 113.648C164.078 113.54 162.587 112.034 162.587 112.034C162.587 112.034 164.073 111.028 164.807 111.162C164 110.868 162.83 108.846 162.83 108.846C162.83 108.846 164.493 108.344 165.967 108.9C167.441 109.456 168.727 111.071 168.727 111.071L169.691 113.106ZM170.358 103.64C170.358 103.64 171.327 105.647 171.098 106.344C171.398 105.88 172.536 105.156 172.536 105.156C172.536 105.156 173.224 108.406 172.566 110.413C171.909 112.42 169.905 113.184 169.905 113.184L167.696 108.887C167.696 108.887 167.367 107.295 168.056 106.035C168.745 104.774 170.358 103.64 170.358 103.64ZM157.747 98.3263C157.747 98.3263 159.842 98.1063 161.758 98.9003C163.361 99.5654 163.852 100.774 163.852 100.774L164.641 102.89C164.641 102.89 162.361 103.745 160.559 103.091C158.757 102.437 157.433 100.273 157.433 100.273C157.433 100.273 158.693 99.7958 159.172 99.9749C158.474 99.666 157.747 98.3263 157.747 98.3263ZM164.336 94.3996C164.336 94.3996 165.255 95.5803 165.283 96.9383C165.528 96.2163 166.676 95.4183 166.676 95.4183C166.676 95.4183 167.856 98.2749 167.597 100.303C167.338 102.332 165.639 103.531 165.639 103.531L163.521 99.5109C163.521 99.5109 162.831 97.8632 163.035 96.5849C163.238 95.3072 164.336 94.3996 164.336 94.3996ZM157.08 86.7107C157.08 86.7107 156.701 88.9005 157.347 90.1618C157.924 91.2874 158.292 91.5343 158.292 91.5343C157.191 90.8078 155.526 90.7452 155.526 90.7452C155.526 90.7452 156.119 93.1276 157.535 94.2145C158.95 95.3014 161.133 95.0474 161.133 95.0474C161.133 95.0474 162.569 93.1363 162.469 91.0774C162.369 89.0185 160.734 86.8114 160.734 86.8114C160.734 86.8114 160.089 88.1492 160.032 89.1478C159.615 88.1183 157.08 86.7107 157.08 86.7107ZM174.191 123.393L174.25 124.179C175.556 124.191 175.75 124.061 176.085 124.473C176.308 124.747 176.838 124.986 177.371 124.743C177.904 124.499 178.143 123.859 177.9 123.326C177.657 122.793 177.161 122.677 176.683 122.771C176.39 122.829 176.197 123.063 175.949 123.191C175.476 123.436 174.191 123.393 174.191 123.393Z" fill="black"/>
        <path d="M174.078 122.793L174.713 123.258C174.032 124.373 173.819 124.469 173.991 124.971C174.105 125.305 174.028 125.881 173.539 126.205C173.05 126.528 172.38 126.392 172.057 125.903C171.734 125.414 171.898 124.933 172.231 124.577C172.435 124.359 172.735 124.32 172.976 124.177C173.434 123.905 174.078 122.793 174.078 122.793ZM169.656 113.46L169.715 114.246C171.02 114.258 171.215 114.128 171.549 114.539C171.772 114.813 172.302 115.053 172.835 114.809C173.369 114.566 173.608 113.926 173.364 113.392C173.121 112.859 172.625 112.744 172.147 112.838C171.854 112.896 171.661 113.13 171.413 113.258C170.94 113.503 169.656 113.46 169.656 113.46Z" fill="black"/>
        <path d="M169.92 113.737L170.476 114.297C169.629 115.291 169.404 115.353 169.496 115.875C169.557 116.224 169.391 116.781 168.857 117.024C168.324 117.268 167.684 117.029 167.44 116.496C167.197 115.962 167.434 115.512 167.818 115.213C168.054 115.03 168.357 115.037 168.617 114.934C169.111 114.736 169.92 113.737 169.92 113.737ZM165.26 104.16L165.319 104.946C166.625 104.958 166.819 104.828 167.154 105.24C167.377 105.513 167.907 105.753 168.44 105.509C168.973 105.266 169.212 104.626 168.969 104.092C168.725 103.559 168.23 103.443 167.752 103.538C167.459 103.596 167.266 103.829 167.017 103.958C166.545 104.203 165.26 104.16 165.26 104.16Z" fill="black"/>
        <path d="M165.623 103.995L166.178 104.554C165.331 105.549 165.106 105.611 165.198 106.133C165.259 106.481 165.093 107.038 164.559 107.282C164.026 107.525 163.386 107.286 163.142 106.753C162.899 106.22 163.136 105.77 163.52 105.471C163.756 105.287 164.059 105.294 164.319 105.191C164.814 104.994 165.623 103.995 165.623 103.995ZM160.578 94.3418L160.637 95.1276C161.943 95.1398 162.137 95.0098 162.471 95.4212C162.695 95.6954 163.225 95.9347 163.758 95.6916C164.291 95.4478 164.53 94.8078 164.287 94.2745C164.043 93.7412 163.547 93.6254 163.07 93.7198C162.777 93.7778 162.584 94.0118 162.335 94.14C161.862 94.3847 160.578 94.3418 160.578 94.3418Z" fill="black"/>
        <path d="M160.94 94.1774L161.495 94.7367C160.649 95.7312 160.424 95.7929 160.515 96.3156C160.577 96.6636 160.41 97.2209 159.877 97.4643C159.344 97.7076 158.704 97.4689 158.46 96.9356C158.217 96.4025 158.454 95.9518 158.838 95.6532C159.074 95.4698 159.377 95.4769 159.637 95.3732C160.131 95.1763 160.94 94.1774 160.94 94.1774Z" fill="black"/>
        <path d="M178.603 132.68L180.835 133.898L180.294 136.383L178.061 135.165L178.603 132.68ZM168.827 111.131C168.359 111.325 167.665 109.287 167.155 108.171C166.632 107.026 165.57 105.26 165.872 105.122C166.203 104.971 166.639 105.898 167.174 107.07C167.709 108.242 169.265 110.948 168.827 111.131ZM164.02 100.4C163.553 100.594 163.04 99.2603 162.531 98.1438C162.008 96.9985 161.499 96.1894 161.8 96.0516C162.131 95.9005 162.62 96.9043 163.048 97.8416C163.463 98.75 164.459 100.217 164.02 100.4ZM175.14 124.731C174.773 124.829 173.169 121.472 171.873 118.632C170.577 115.793 169.611 113.495 169.913 113.358C170.244 113.206 171.294 115.889 172.591 118.729C173.887 121.57 175.415 124.657 175.14 124.731Z" fill="#F5D402"/>
        <path d="M157.725 88.0418C157.725 88.0418 157.668 89.642 158.197 90.5496C158.727 91.4576 159.909 91.8196 159.909 91.8196C159.909 91.8196 159.966 90.2198 159.437 89.3123C158.907 88.4043 157.725 88.0418 157.725 88.0418ZM156.618 91.6618C156.618 91.6618 158.008 91.7436 158.811 92.3587C159.613 92.9738 159.924 94.2554 159.924 94.2554C159.924 94.2554 159.003 94.3489 158.201 93.7338C157.398 93.1185 156.618 91.6618 156.618 91.6618ZM160.98 88.4307C160.98 88.4307 160.518 89.4907 160.571 90.6334C160.625 91.7763 161.291 93.0638 161.291 93.0638C161.291 93.0638 161.894 91.6918 161.841 90.5487C161.788 89.4058 161.142 88.7543 160.98 88.4307ZM158.64 98.7329C158.64 98.7329 159.323 99.6858 160.373 100.205C161.424 100.725 162.99 100.744 162.99 100.744C162.99 100.744 162.208 99.7303 161.157 99.2107C160.107 98.6914 158.64 98.7329 158.64 98.7329ZM158.978 100.946C158.978 100.946 159.48 101.929 160.397 102.35C161.314 102.771 163.191 102.736 163.191 102.736C163.191 102.736 162.471 101.818 161.554 101.397C160.636 100.976 158.978 100.946 158.978 100.946ZM164.26 95.7063C164.26 95.7063 163.706 96.6225 163.76 97.632C163.815 98.642 164.477 99.7456 164.477 99.7456C164.477 99.7456 164.943 98.4805 164.889 97.4707C164.835 96.4607 164.26 95.7063 164.26 95.7063ZM166.303 97.0018C166.303 97.0018 165.354 98.2752 165.218 99.5843C165.081 100.893 165.757 102.238 165.757 102.238C165.757 102.238 166.903 101.087 167.039 99.7785C167.176 98.4692 166.303 97.0018 166.303 97.0018ZM163.687 109.091C163.687 109.091 163.801 109.561 164.197 110.061C164.594 110.561 165.272 111.09 165.272 111.09C165.272 111.09 165.927 110.88 166.742 111.056C167.557 111.233 168.64 111.958 168.64 111.958C168.64 111.958 167.474 110.218 166.263 109.541C165.053 108.865 163.687 109.091 163.687 109.091ZM163.567 112.082C163.567 112.082 165.077 111.437 166.32 111.603C167.563 111.77 168.684 112.752 168.684 112.752C168.684 112.752 167.004 113.334 165.761 113.168C164.517 113.001 163.567 112.082 163.567 112.082ZM169.947 105.064C169.947 105.064 168.612 106.478 168.5 107.706C168.388 108.933 169.583 110.076 169.583 110.076C169.583 110.076 169.524 109.289 169.729 108.771C169.935 108.253 170.372 107.7 170.372 107.7C170.372 107.7 170.559 107.068 170.487 106.561C170.386 105.853 169.947 105.064 169.947 105.064ZM171.863 106.702C171.863 106.702 170.604 107.975 170.272 109.338C169.939 110.702 170.532 112.155 170.532 112.155C170.532 112.155 171.676 111.252 172.009 109.889C172.341 108.526 171.863 106.702 171.863 106.702ZM175.014 114.92C175.014 114.92 175.584 116.11 175.728 117.105C175.873 118.1 175.739 118.444 175.739 118.444C175.739 118.444 175.149 119.023 174.885 119.364C174.546 119.802 174.496 120.603 174.496 120.603C174.496 120.603 173.313 118.844 173.495 117.558C173.677 116.272 175.014 114.92 175.014 114.92ZM177.507 117.673C177.507 117.673 175.992 118.674 175.391 119.7C174.789 120.726 175.101 121.778 175.101 121.778C175.101 121.778 176.181 121.683 176.782 120.656C177.384 119.63 177.507 117.673 177.507 117.673ZM167.551 121.9C167.551 121.9 169.735 121.84 171.07 122.168C172.404 122.496 172.89 123.212 172.89 123.212C172.89 123.212 171.389 123.914 170.055 123.586C168.72 123.258 167.551 121.9 167.551 121.9ZM167.183 119.308C167.183 119.308 168.168 120.836 169.441 121.39C171.196 122.153 173.229 121.783 173.229 121.783C173.229 121.783 172.125 120.43 170.605 119.833C169.086 119.236 167.183 119.308 167.183 119.308Z" fill="#097754"/>
        <path d="M241.943 89.3205L242.227 89.9232C242.227 89.9232 241.765 90.0818 241.556 90.4918C241.347 90.9023 241.692 91.4818 241.692 91.4818C241.692 91.4818 239.291 91.2723 238.917 91.516C238.577 91.736 239.06 93.3992 238.837 94.8038C238.525 96.7616 237.753 96.5972 237.722 96.9765C237.691 97.3452 238.018 97.9207 238.018 97.9207C238.018 97.9207 237.567 98.0625 237.471 98.2507C237.317 98.5534 237.579 99.1118 237.392 99.4792C236.347 101.529 234.805 104.554 233.786 106.555C233.643 106.835 233.261 106.941 233.069 107.318C232.892 107.665 233.035 108.171 233.035 108.171C233.035 108.171 232.359 108.211 232.125 108.671C231.875 109.16 232.022 109.82 232.022 109.82C232.022 109.82 231.595 109.875 231.385 110.287C231.161 110.727 231.54 110.958 231.442 111.151C230.071 113.841 228.457 117.011 227.472 118.944C227.109 119.655 225.841 119.798 225.105 121.242C224.391 122.644 225.412 123.677 225.412 123.677C225.412 123.677 224.352 123.773 224.07 124.325C223.783 124.889 224.01 125.744 224.775 126.134C225.541 126.524 226.377 126.208 226.664 125.645C226.946 125.092 226.38 124.177 226.38 124.177C226.38 124.177 227.816 124.384 228.53 122.983C229.266 121.538 228.645 120.44 229.007 119.729C229.993 117.796 231.607 114.626 232.978 111.936C233.077 111.743 233.482 111.91 233.706 111.47C233.916 111.058 233.706 110.685 233.706 110.685C233.706 110.685 234.333 110.412 234.582 109.923C234.817 109.462 234.457 108.888 234.457 108.888C234.457 108.888 234.951 108.712 235.128 108.364C235.32 107.988 235.179 107.62 235.321 107.34C236.341 105.339 237.884 102.314 238.928 100.264C239.115 99.8967 239.718 99.7709 239.872 99.4678C239.968 99.2798 239.815 98.8309 239.815 98.8309C239.815 98.8309 240.479 98.7652 240.759 98.5236C241.048 98.2752 240.462 97.7423 241.863 96.3394C242.868 95.3332 244.489 94.7412 244.468 94.3372C244.445 93.8905 242.864 92.0734 242.864 92.0734C242.864 92.0734 243.531 92.0172 243.74 91.6072C243.949 91.1969 243.808 90.7196 243.808 90.7196L244.468 90.6058V87.4774L241.943 89.3205ZM220.135 132.892C220.081 133 220.053 133.119 220.053 133.239C220.053 133.36 220.081 133.478 220.135 133.586C220.135 133.586 219.338 133.337 219.065 133.472C218.808 133.6 219.065 137.352 219.065 137.352C219.065 137.352 222.242 135.348 222.193 135.065C222.142 134.765 221.477 134.257 221.477 134.257C221.734 134.216 221.935 134.055 222.034 133.859C222.139 133.654 222.153 133.066 221.431 132.699C221.161 132.561 220.92 132.52 220.726 132.54C220.402 132.572 220.2 132.764 220.135 132.892Z" fill="black"/>
        <path d="M242.52 89.4463L244.022 90.2087L243.999 88.3998L242.52 89.4463ZM241.94 90.5385C241.747 90.9172 241.935 91.402 242.361 91.6192C242.788 91.8363 243.283 91.702 243.476 91.3236C243.669 90.9449 243.481 90.4603 243.055 90.2429C242.905 90.1649 242.735 90.1294 242.566 90.1403C242.298 90.1587 242.061 90.3018 241.94 90.5385ZM239.358 91.9152C239.2 92.0174 239.415 93.3696 239.369 94.52C239.326 95.6049 238.979 95.9105 238.789 96.2834C238.614 96.6276 237.982 97.0343 237.982 97.0343L238.505 97.5576C238.505 97.5576 238.845 97.0274 239.381 95.9758C240.013 94.736 239.992 92.4896 240.177 92.3698C240.339 92.2656 241.656 91.9374 241.656 91.9374C241.656 91.9374 240.447 91.872 239.779 91.8807C239.556 91.8836 239.395 91.8914 239.358 91.9152Z" fill="#F5D402"/>
        <path d="M239.496 98.1607C239.496 98.1607 239.671 97.6745 240.281 96.4769C241.017 95.0327 242.587 93.9852 242.624 93.7238C242.662 93.4545 242.078 92.1883 242.078 92.1883C242.078 92.1883 240.693 92.4538 240.497 92.6434C240.307 92.8263 240.391 94.7027 239.655 96.1472C239.045 97.3445 238.745 97.7854 238.745 97.7854L239.496 98.1607Z" fill="#F5D402"/>
        <path d="M243.034 93.8263C243.045 94.046 241.22 95.3509 240.588 96.5905C240.052 97.6418 239.825 98.2289 239.825 98.2289L240.554 98.3427C240.554 98.3427 240.503 97.5945 240.679 97.2505C240.869 96.8778 240.919 96.4214 241.771 95.7489C242.675 95.0358 243.897 94.4125 243.887 94.2243C243.878 94.0505 242.522 92.37 242.522 92.37C242.522 92.37 243.023 93.6349 243.034 93.8263ZM237.687 101.937C238.784 99.7845 239.119 99.6378 239.257 99.3665C239.406 99.0749 239.37 98.6825 238.882 98.4334C238.699 98.3403 238.541 98.3165 238.404 98.3314C238.174 98.356 238.007 98.5018 237.915 98.6838C237.777 98.9554 237.851 99.3183 236.754 101.471L234.263 106.352C234.263 106.352 234.001 106.831 234.49 107.08C234.979 107.328 235.195 106.829 235.195 106.829L237.687 101.937ZM233.285 107.535C233.149 107.802 233.382 108.193 233.808 108.411C234.235 108.628 234.696 108.587 234.832 108.32C234.968 108.053 234.724 107.661 234.297 107.444C234.084 107.335 233.867 107.291 233.683 107.307C233.499 107.323 233.353 107.402 233.285 107.535ZM232.363 108.922C232.187 109.268 232.461 109.763 232.977 110.026C233.493 110.289 234.053 110.223 234.228 109.878C234.404 109.533 234.13 109.038 233.614 108.774C233.42 108.676 233.229 108.624 233.045 108.615C232.74 108.601 232.473 108.707 232.363 108.922ZM231.783 110.47C231.647 110.736 231.88 111.128 232.306 111.346C232.732 111.563 233.194 111.522 233.33 111.255C233.466 110.988 233.233 110.596 232.807 110.379C232.593 110.27 232.365 110.226 232.181 110.242C231.997 110.258 231.851 110.336 231.783 110.47ZM231.407 111.949C231.407 111.949 228.641 117.393 227.665 119.309C227.353 119.921 226.04 120.302 225.526 121.312C225.008 122.327 225.373 123.277 226.049 123.621C226.724 123.965 227.716 123.715 228.233 122.7C228.747 121.691 228.286 120.399 228.597 119.787C229.573 117.871 232.34 112.427 232.34 112.427C232.34 112.427 232.613 111.948 232.124 111.699C232.026 111.647 231.915 111.627 231.805 111.642C231.536 111.676 231.407 111.949 231.407 111.949ZM224.409 124.588C224.202 124.994 224.439 125.536 224.944 125.793C225.449 126.051 226.033 125.927 226.241 125.52C226.448 125.114 226.199 124.572 225.695 124.314C225.505 124.218 225.312 124.173 225.126 124.178C224.815 124.187 224.539 124.334 224.409 124.588ZM220.724 132.904C220.566 132.909 220.436 132.959 220.383 133.063C220.277 133.271 220.496 133.599 220.872 133.791C221.248 133.983 221.642 133.965 221.748 133.757C221.854 133.549 221.635 133.22 221.259 133.029C221.071 132.933 220.882 132.898 220.724 132.904ZM219.427 133.927V136.612L221.612 135.042C221.612 135.042 221.315 134.519 220.667 134.189C220.019 133.859 219.427 133.927 219.427 133.927Z" fill="#F5D402"/>
        <path d="M220.81 74.1325C220.81 72.6601 222.744 71.2088 222.744 71.2088H175.578C175.578 71.2088 177.512 72.6599 177.512 74.1325V109.241C177.512 110.165 177.798 110.768 178.252 111.356C178.705 111.99 179.672 112.866 180.675 113.518C183.772 115.53 188.951 117.651 192.87 119.434C196.135 120.919 197.464 121.518 199.161 123.62C200.859 121.518 202.198 120.919 205.463 119.434C209.381 117.651 214.561 115.53 217.659 113.518C218.662 112.866 219.629 111.991 220.082 111.356C220.536 110.768 220.81 110.165 220.81 109.241V74.1325Z" fill="#F5D402"/>
        <path d="M178.627 93.9956V74.1323C178.627 73.0081 178.058 72.3236 178.058 72.3236H220.264C220.264 72.3236 219.695 73.0083 219.695 74.1323L219.707 93.9956L199.167 100.218L178.627 93.9956Z" fill="#D10429"/>
        <path d="M219.707 93.9956L206.989 93.7568H191.346L178.627 93.9956V109.24C178.627 110.007 179.422 111.801 184.008 114.086C191.588 117.864 197.415 119.627 199.161 121.777C200.907 119.627 206.734 117.863 214.314 114.086C218.9 111.801 219.695 110.007 219.695 109.24L219.707 93.9956Z" fill="#0B45BB"/>
        <path d="M206.681 93.2001C206.681 93.2001 214.019 91.3499 214.019 83.5074C214.019 77.3823 206.662 74.3436 206.453 72.8821C205.734 75.4112 208.911 78.9043 208.911 83.041C208.911 88.3934 204.963 88.6496 204.963 88.6496C204.039 88.6496 203.665 89.3092 203.302 89.3092C202.525 89.2281 202.159 88.2396 201.391 88.2396C200.669 88.2396 200.115 89.3545 199.161 89.3545C198.207 89.3545 197.664 88.2396 196.943 88.2396C196.175 88.2396 195.809 89.2281 195.031 89.3092C194.668 89.3092 194.294 88.6496 193.37 88.6496C193.37 88.6496 189.423 88.3934 189.423 83.041C189.423 78.9043 192.599 75.4108 191.88 72.8821C191.672 74.3436 184.315 77.3821 184.315 83.5074C184.315 91.3499 191.653 93.2001 191.653 93.2001L189.56 97.011C189.56 97.011 192.592 97.1628 194.201 98.5356C196.142 100.191 195.953 103.698 195.953 106.249C195.953 108.259 195.699 110.38 194.668 111.254C193.283 112.428 192.347 112.515 192.347 113.894C192.347 115.043 193.23 115.274 194.668 116.033C196.509 117.004 196.423 118.308 199.161 118.308C201.899 118.308 201.824 117.005 203.666 116.033C205.103 115.274 205.987 115.043 205.987 113.894C205.987 112.515 205.051 112.428 203.666 111.254C202.635 110.379 202.381 108.259 202.381 106.249C202.381 103.698 202.192 100.191 204.133 98.5356C205.742 97.163 208.774 97.011 208.774 97.011L206.681 93.2001Z" fill="black"/>
        <path d="M199.16 73.4265L197.886 77.0445L194.416 75.3948L196.066 78.8648L192.448 80.1501L196.066 81.4356L194.416 84.8941L197.886 83.2445L199.16 86.8621L200.446 83.2445L203.916 84.8941L202.266 81.4356L205.884 80.1501L202.266 78.8648L203.916 75.3948L200.446 77.0445L199.16 73.4265ZM191.345 93.7576C191.345 93.7576 186.814 92.6501 185.122 90.413C182.164 93.0743 178.626 93.9965 178.626 93.9965C178.626 93.9965 182.317 95.6628 185.122 97.785C186.415 95.9325 191.345 93.7576 191.345 93.7576ZM206.987 93.7576C206.987 93.7576 211.917 95.9323 213.21 97.785C216.015 95.6628 219.705 93.9965 219.705 93.9965C219.705 93.9965 216.168 93.0741 213.21 90.413C211.518 92.6499 206.987 93.7576 206.987 93.7576ZM193.2 98.5799L191.437 100.343L193.2 102.106L194.964 100.343L193.2 98.5799ZM205.134 98.5799L203.371 100.343L205.134 102.106L206.897 100.343L205.134 98.5799ZM192.757 108.875C192.757 111.103 192.541 112.277 192.541 112.277C192.541 112.277 195.026 111.545 195.521 109.023C195.753 107.841 196.012 103.486 194.816 102.744L191.574 102.107C191.924 102.973 192.757 105.657 192.757 108.875ZM203.518 102.744C202.322 103.486 202.581 107.841 202.813 109.024C203.307 111.545 205.793 112.277 205.793 112.277C205.793 112.277 205.577 111.103 205.577 108.876C205.577 105.657 206.41 102.973 206.76 102.107L203.518 102.744ZM185.113 102.87C183.995 103.15 183.319 104.289 183.6 105.407C183.643 105.578 183.713 105.736 183.793 105.885C183.627 105.829 183.455 105.794 183.281 105.782C183.209 105.778 183.137 105.778 183.065 105.782C182.007 105.818 181.125 106.649 181.051 107.728C180.973 108.877 181.847 109.867 182.997 109.946C183.164 109.959 183.332 109.951 183.497 109.923C183.396 110.06 183.312 110.209 183.247 110.367C182.817 111.436 183.338 112.667 184.408 113.097C185.477 113.527 186.696 112.995 187.126 111.926C187.188 111.768 187.231 111.604 187.252 111.436C187.353 111.576 187.471 111.702 187.604 111.812C188.488 112.551 189.811 112.434 190.551 111.55C190.726 111.34 190.859 111.098 190.941 110.837C191.023 110.576 191.053 110.301 191.029 110.028C191.004 109.756 190.927 109.49 190.8 109.248C190.673 109.005 190.499 108.79 190.289 108.615C190.155 108.503 190.007 108.415 189.857 108.342C190.02 108.29 190.177 108.217 190.323 108.126C191.299 107.514 191.595 106.213 190.983 105.236C190.562 104.565 189.822 104.22 189.083 104.269C188.735 104.293 188.399 104.402 188.104 104.588C187.959 104.677 187.825 104.784 187.706 104.907C187.708 104.734 187.689 104.562 187.649 104.395C187.404 103.416 186.505 102.771 185.533 102.813C185.392 102.818 185.251 102.837 185.113 102.87ZM207.295 108.944C207.521 111.075 209.252 112.86 211.39 113.37C211.025 112.773 210.782 112.107 210.707 111.402C210.44 108.875 212.394 106.828 215.065 106.828C215.485 106.828 215.893 106.88 216.293 106.976C215.351 105.433 213.579 104.36 211.651 104.36C208.981 104.36 207.026 106.418 207.295 108.944Z" fill="black"/>
        <path d="M188.354 83.0408C188.354 87.0692 190.502 89.4454 193.371 89.4454C193.918 89.4454 194.517 90.185 195.032 90.185C195.873 90.185 196.432 89.2521 196.943 89.2521C197.594 89.2521 198.032 90.2759 199.162 90.2759C200.291 90.2759 200.741 89.2521 201.391 89.2521C201.903 89.2521 202.462 90.185 203.303 90.185C203.818 90.185 204.416 89.4454 204.964 89.4454C207.832 89.4454 209.981 87.0692 209.981 83.0408C209.981 79.7554 207.222 75.7496 207.523 75.0999C207.523 75.0999 212.904 78.9596 212.904 83.507C212.904 90.8321 205.476 92.6423 205.476 92.6423L207.148 96.4076C207.148 96.4076 204.845 96.753 203.439 97.8868C201.564 99.399 201.539 103.485 201.539 106.248C201.539 109.503 201.66 110.883 202.836 111.766C204.076 112.697 205.009 112.898 205.009 113.848C205.009 114.675 204.043 115.013 202.791 115.565C201.365 116.194 201.223 117.283 199.162 117.283C197.1 117.283 196.969 116.194 195.544 115.565C194.291 115.013 193.325 114.675 193.325 113.848C193.325 112.898 194.258 112.697 195.498 111.766C196.674 110.883 196.795 109.503 196.795 106.248C196.795 103.485 196.771 99.399 194.895 97.8868C193.489 96.7525 191.187 96.4076 191.187 96.4076L192.859 92.6423C192.859 92.6423 185.43 90.8323 185.43 83.507C185.43 78.9596 190.811 75.0999 190.811 75.0999C191.113 75.7496 188.354 79.7554 188.354 83.0408ZM196.351 113.291C194.892 113.291 193.963 113.599 193.963 114.042C193.963 114.485 194.892 114.781 196.351 114.781C196.74 114.781 197.182 114.555 197.182 114.042C197.182 113.529 196.74 113.291 196.351 113.291ZM201.983 113.291C201.594 113.291 201.152 113.529 201.152 114.042C201.152 114.555 201.594 114.781 201.983 114.781C203.442 114.781 204.371 114.485 204.371 114.042C204.371 113.599 203.442 113.291 201.983 113.291Z" fill="#FFD200"/>
        <path d="M199.174 75.8621L199.993 78.1719L202.2 77.1139L201.153 79.3321L203.451 80.1514L201.153 80.9705L202.2 83.1774L199.993 82.1308L199.162 84.4288L198.343 82.1308L196.136 83.1774L197.183 80.9705L194.885 80.1514L197.183 79.3321L196.136 77.1139L198.343 78.1719L199.174 75.8621ZM188.922 93.895C188.921 93.895 185.122 96.7163 185.122 96.7163L185.076 96.773L184.997 96.7048L180.788 94.0654C180.788 94.0654 183.474 93.1394 185.054 91.5288C186.549 93.2405 188.922 93.895 188.922 93.895ZM217.544 94.0654C217.544 94.0654 214.742 95.461 213.335 96.7048L213.255 96.773L213.21 96.7163C211.88 95.1894 209.411 93.895 209.411 93.895C209.411 93.895 211.783 93.2405 213.278 91.5288C214.859 93.1394 217.544 94.0654 217.544 94.0654ZM193.2 99.4221L194.122 100.343L193.2 101.276L192.267 100.343L193.2 99.4221ZM205.134 99.4221L206.067 100.343L205.134 101.276L204.212 100.343L205.134 99.4221ZM194.452 103.449C195.096 104.337 194.987 105.773 194.987 107.772C194.987 109.787 193.474 110.559 193.474 110.559C193.474 105.716 192.974 104.551 192.711 103.084L194.452 103.449ZM205.623 103.084C205.359 104.551 204.861 105.716 204.861 110.559C204.861 110.559 203.347 109.787 203.347 107.772C203.347 105.773 203.238 104.337 203.882 103.449L205.623 103.084Z" fill="#FFD200"/>
        <path d="M187.296 104.917C187.342 105.099 187.347 105.277 187.33 105.452C187.317 105.597 187.278 105.729 187.228 105.861C186.976 105.769 186.704 105.725 186.42 105.725C185.718 105.725 185.09 106.034 184.657 106.521C184.543 106.422 184.444 106.307 184.361 106.18C184.268 106.036 184.189 105.878 184.145 105.702C183.927 104.833 184.459 103.952 185.328 103.734C185.437 103.707 185.551 103.693 185.658 103.689C186.031 103.674 186.397 103.788 186.696 104.011C186.994 104.235 187.206 104.555 187.296 104.917Z" fill="#FFD200"/>
        <path d="M189.722 107.952C189.563 108.051 189.395 108.111 189.224 108.15C189.081 108.182 188.944 108.186 188.803 108.179C188.812 107.911 188.771 107.638 188.683 107.369C188.466 106.701 187.978 106.199 187.38 105.938C187.44 105.799 187.518 105.669 187.614 105.551C187.722 105.418 187.848 105.294 188.001 105.198C188.761 104.722 189.763 104.955 190.239 105.715C190.299 105.81 190.347 105.914 190.384 106.015C190.513 106.364 190.518 106.748 190.398 107.101C190.277 107.454 190.038 107.755 189.722 107.952Z" fill="#FFD200"/>
        <path d="M187.585 111.197C187.441 111.077 187.333 110.935 187.243 110.784C187.168 110.659 187.122 110.529 187.085 110.393C187.343 110.319 187.589 110.195 187.819 110.029C188.387 109.616 188.714 108.997 188.777 108.348C188.928 108.361 189.076 108.396 189.217 108.45C189.377 108.512 189.534 108.593 189.673 108.709C190.36 109.285 190.448 110.31 189.872 110.997C189.801 111.083 189.717 111.161 189.632 111.228C189.339 111.459 188.976 111.582 188.603 111.577C188.23 111.571 187.87 111.437 187.585 111.197Z" fill="#FFD200"/>
        <path d="M183.839 110.167C183.908 109.994 184.009 109.847 184.125 109.714C184.222 109.605 184.331 109.521 184.449 109.443C184.598 109.666 184.793 109.862 185.022 110.029C185.59 110.441 186.28 110.561 186.917 110.421C186.95 110.568 186.963 110.719 186.955 110.87C186.946 111.042 186.917 111.216 186.849 111.384C186.515 112.216 185.567 112.616 184.735 112.281C184.631 112.24 184.531 112.184 184.442 112.124C184.131 111.917 183.902 111.609 183.792 111.253C183.682 110.896 183.698 110.513 183.839 110.167Z" fill="#FFD200"/>
        <path d="M183.66 106.286C183.847 106.299 184.018 106.349 184.18 106.419C184.314 106.477 184.427 106.554 184.537 106.643C184.372 106.854 184.245 107.099 184.158 107.369C183.941 108.036 184.04 108.729 184.37 109.292C184.241 109.37 184.101 109.429 183.954 109.468C183.788 109.512 183.614 109.538 183.433 109.526C182.539 109.464 181.866 108.686 181.927 107.792C181.934 107.68 181.957 107.568 181.986 107.464C182.087 107.105 182.308 106.792 182.613 106.577C182.918 106.362 183.288 106.26 183.66 106.286Z" fill="#FFD200"/>
        <path d="M186.42 109.674C187.287 109.674 187.99 108.971 187.99 108.104C187.99 107.237 187.287 106.534 186.42 106.534C185.553 106.534 184.85 107.237 184.85 108.104C184.85 108.971 185.553 109.674 186.42 109.674Z" fill="#FFD200"/>
        <path d="M213.984 105.987C211.377 106.491 209.501 108.793 209.774 111.482C208.944 110.794 208.336 109.867 208.227 108.843C208.016 106.847 209.465 105.304 211.652 105.304C212.487 105.304 213.291 105.56 213.984 105.987Z" fill="#FFD200"/>
    </g>
    <defs>
        <clipPath id="clip0_39_13159">
            <rect width="400" height="200" fill="white"/>
        </clipPath>
    </defs>
</svg>
