<svg xmlns="http://www.w3.org/2000/svg" viewBox="0 0 300 200">
    <path d="M150 150C177.614 150 200 127.614 200 100C200 72.3858 177.614 50 150 50C122.386 50 100 72.3858 100 100C100 127.614 122.386 150 150 150Z" fill="white" />
    <path d="M150 62.5C140.054 62.5 130.516 66.4509 123.483 73.4835C116.451 80.5161 112.5 90.0544 112.5 100C112.5 109.946 116.451 119.484 123.483 126.517C130.516 133.549 140.054 137.5 150 137.5C155.9 137.492 161.715 136.092 166.972 133.414C172.229 130.736 176.78 126.855 180.255 122.087C174.73 127.165 167.504 129.988 160 130C152.044 130 144.413 126.839 138.787 121.213C133.161 115.587 130 107.956 130 100C130 92.0435 133.161 84.4129 138.787 78.7868C144.413 73.1607 152.044 70 160 70C167.503 70.0136 174.729 72.8385 180.252 77.9175C176.778 73.149 172.228 69.2675 166.971 66.5886C161.715 63.9097 155.9 62.5088 150 62.5Z" fill="#E70013" />
    <path d="M137.5 100L178.203 86.7751L153.05 121.4V78.6001L178.2 113.225L137.5 100Z" fill="#E70013" />
</svg>