<svg xmlns="http://www.w3.org/2000/svg" viewBox="0 0 300 200">
<path d="M193.333 75C187.83 65.4679 179.335 58.0181 169.166 53.806C158.998 49.594 147.723 48.855 137.091 51.7037C126.46 54.5525 117.065 60.8297 110.365 69.5619C103.664 78.2942 100.032 88.9933 100.032 100C100.032 111.007 103.664 121.706 110.365 130.438C117.065 139.17 126.46 145.448 137.091 148.296C147.723 151.145 158.998 150.406 169.166 146.194C179.335 141.982 187.83 134.532 193.333 125C188.154 131.469 181.093 136.17 173.126 138.453C165.159 140.735 156.68 140.487 148.861 137.743C141.041 134.998 134.267 129.892 129.475 123.131C124.683 116.37 122.109 108.287 122.109 100C122.109 91.7127 124.683 83.63 129.475 76.8689C134.267 70.1078 141.041 65.0021 148.861 62.2575C156.68 59.5128 165.159 59.2646 173.126 61.5473C181.093 63.83 188.154 68.5308 193.333 75ZM195 100L150 85.3333L178 123.667V76.3333L150 114.667L195 100Z" fill="#D21034" />
</svg>