<svg width="400" height="200" viewBox="0 0 400 200" fill="none"
    xmlns="http://www.w3.org/2000/svg">
    <g clip-path="url(#clip0_5_4045)">

        <path d="M34.3478 68.6951L39.5604 103.305L56.0412 100.823L34.3478 68.6951Z" fill="white"/>
        <path d="M34.3478 68.6951L58.908 93.631L47.0337 105.326L34.3478 68.6951Z" fill="white"/>
        <path d="M74.9362 75.4399L43.6312 91.0923L51.0848 105.999L74.9362 75.4399Z" fill="white"/>
        <path d="M74.9362 75.4399L58.8102 106.504L44.018 98.8246L74.9362 75.4399Z" fill="white"/>
        <path d="M15.3906 105.213L49.9172 110.95L52.6493 94.5089L15.3906 105.213Z" fill="white"/>
        <path d="M15.3906 105.213L46.6956 89.5602L54.1491 104.467L15.3906 105.213Z" fill="white"/>
        <path d="M81.064 116.126L56.5039 91.1901L44.6296 102.885L81.064 116.126Z" fill="white"/>
        <path d="M81.064 116.126L46.5375 110.389L49.2696 93.9473L81.064 116.126Z" fill="white"/>
        <path d="M44.2628 134.527L60.3888 103.463L45.5965 95.7838L44.2628 134.527Z" fill="white"/>
        <path d="M44.2628 134.527L39.0502 99.9169L55.531 97.4347L44.2628 134.527Z" fill="white"/>

    </g>
    <defs>
        <clipPath id="clip0_5_4045">
            <rect width="400" height="200" fill="white"/>
        </clipPath>
    </defs>
</svg>
