<svg xmlns="http://www.w3.org/2000/svg" viewBox="0 0 300 200"><g><path d="M273.775 24.0477C273.775 24.0477 286.061 19.2325 287.251 18.2397C287.792 18.8354 282.326 24.8917 271.718 27.1254C281.351 25.0405 289.578 18.488 291.256 18.6865C291.743 18.7858 291.635 25.0903 269.553 30.5508C284.815 26.8773 293.691 20.1261 293.583 20.8708C293.691 21.0197 292.068 26.1823 278.7 30.2033C282.434 29.409 292.555 23.7498 292.447 24.842C292.771 25.2888 282.651 37.2025 264.357 33.3307C278.971 36.8055 288.442 28.4161 289.795 28.565C290.066 28.6147 287.089 35.912 268.687 36.3587C277.509 35.5148 274.965 36.309 274.965 36.309C274.965 36.309 269.77 40.032 263.491 37.5005C268.417 38.7417 268.958 38.7911 269.066 39.1883C268.741 39.6845 264.682 40.4293 260.785 38.4931C263.924 39.6845 266.739 39.8831 266.793 40.33C266.739 40.4788 264.736 41.5214 262.95 40.7768C261.164 40.032 244.711 30.7493 244.711 30.7493L272.746 23.7003L273.775 24.0477ZM240.816 49.1578C238.351 49.1578 238.282 51.17 238.282 51.17C238.282 51.17 238.079 51.3153 238.215 52.2905C238.622 51.6264 238.825 51.4191 238.825 51.4191C239.097 51.4605 240.228 51.7717 242.015 50.4855C240.386 52.0413 241.359 52.6223 241.359 52.6223C241.359 52.6223 240.974 53.8463 242.218 54.0953C241.834 53.5973 242.06 53.1617 242.06 53.1617C242.06 53.1617 243.801 52.9958 243.688 51.0458C243.756 52.8088 244.797 53.2445 244.797 53.2445C244.797 53.2445 244.797 54.2195 245.927 54.3027C245.317 53.8047 245.452 53.0371 245.452 53.0371C245.452 53.0371 246.923 52.0621 245.679 50.4024C246.425 50.0081 247.036 48.9088 247.036 48.9088C247.036 48.9088 246.018 48.5145 245.543 48.1828C245.317 47.747 245.52 45.3614 245.52 45.3614L244.91 42.2701L243.168 47.0834C243.236 46.3987 243.281 49.1578 240.816 49.1578Z" fill="#EF7D00" stroke="black" stroke-width="0.75" stroke-linecap="round" stroke-linejoin="round" />
<path d="M252.992 42.2163C253.046 42.266 254.832 44.1028 256.564 44.0034C257.213 43.5071 255.21 42.415 255.21 42.1667C255.914 42.7624 258.891 45.0954 260.785 44.2516C261.543 43.2587 259.432 43.4078 257.105 40.7271C258.728 41.72 262.788 43.9041 264.682 43.0603C265.494 42.266 260.46 39.7837 258.782 37.8478L254.453 35.8127L248.553 40.2308L252.992 42.2163ZM246.335 27.1256C246.335 27.1256 248.337 26.0334 256.347 26.5794C257.213 26.6787 261.813 25.1398 263.275 24.6931C265.602 24.296 273.017 22.8067 275.019 21.4167C276.427 21.2678 274.64 23.7996 272.855 24.3953C270.96 25.1896 264.087 27.3737 261.651 27.0758C264.574 27.1256 262.95 29.3097 258.079 28.2673C260.406 29.4587 259.54 29.6573 259.54 29.6573C259.54 29.6573 255.427 29.8558 254.345 29.0118C257.105 29.955 255.968 30.3026 255.968 30.3026C255.968 30.3026 253.154 30.5507 251.855 30.0047C253.857 30.5507 252.829 30.8983 252.829 30.8983C252.829 30.8983 251.206 31.1464 249.852 30.6997C248.5 30.2528 246.443 27.1256 246.335 27.1256ZM249.546 43.2451L249.841 48.0997C249.841 48.0997 249.682 48.3487 249.546 48.494C249.411 48.6391 245.792 47.9751 246.289 50.5061C246.289 51.5436 246.312 51.8131 247.081 52.394C246.877 51.7094 246.945 51.2324 246.945 51.2324C246.945 51.2324 247.963 51.7926 248.958 50.2574C248.28 51.7717 248.755 52.3111 248.913 52.3527C249.071 52.6226 248.642 53.8463 249.999 53.8256C249.479 53.3691 249.727 52.7051 249.727 52.7051C249.727 52.7051 251.152 52.498 250.655 50.1328C251.175 49.6557 251.378 50.1121 251.378 50.1121C251.378 50.1121 251.537 51.5227 252.781 51.2324C253.346 51.5227 252.69 52.2903 252.69 52.2903C252.69 52.2903 253.595 52.3111 253.866 51.6057C254.138 50.9004 254.455 49.6348 252.962 49.1163C252.781 48.6186 253.55 48.577 253.55 48.577C253.55 48.577 254.5 48.8673 254.771 49.303C255.043 49.7387 254.952 48.1621 253.776 47.996C252.328 47.9544 252.238 47.6848 252.238 47.6227C252.238 47.5603 251.989 44.096 251.876 43.1001L249.546 43.2451Z" fill="#EF7D00" stroke="black" stroke-width="0.75" stroke-linecap="round" stroke-linejoin="round" />
<path d="M254.581 47.3821C254.599 47.1596 252.112 44.088 252.743 43.691C253.373 43.81 254.408 45.2071 255.246 44.7536C254.992 44.2091 254.243 44.5157 253.393 43.1217C252.543 41.5457 252.419 39.1799 249.442 36.5991C251.369 39.33 255.741 40.9309 255.926 40.1346C256.111 39.3381 252.077 36.327 252.283 35.6013C253.086 37.0917 257.137 40.4124 260.122 40.1374C260.326 39.4981 257.677 38.2077 256.996 37.0029C255.089 35.828 249.987 31.794 249.884 30.8584C248.028 28.3746 246.869 27.6231 246.329 27.337C246.12 27.1117 246.068 26.8963 246.027 26.7593C244.874 24.267 246.401 23.4579 247.295 23.338C248.03 23.2631 248.244 23.364 248.773 23.129C248.146 22.9041 247.52 22.6939 246.893 22.469C247.71 23.0187 249.797 22.5347 249.345 24.1179C250.259 23.7986 252.206 21.6744 247.138 21.195C245.489 19.4597 238.709 18.4624 237.011 26.0361C237.147 26.1423 237.218 26.2296 237.649 26.525C235.508 25.5731 229.732 24.839 227.65 24.5306C222.027 23.0424 216.187 19.4563 215.625 19.8973C214.875 20.203 219.023 23.743 218.807 23.8213C215.21 21.8976 211.924 20.5347 208.867 19.2946C206.716 18.557 204.561 16.84 204.324 17.1666C203.532 18.6709 207.772 22.4517 208.561 22.8966C209.35 23.322 215.553 25.9613 215.462 25.9943C206.118 22.1044 204.552 21.3993 204.083 20.9507C203.259 20.7807 201.253 18.2963 200.694 18.456C200.388 18.7317 201.002 22.6574 205.461 24.4194C206.187 24.9051 215.018 27.8107 214.931 28.0384C214.91 28.0954 204.817 24.218 204.425 24.0793C202.479 23.3794 200.092 20.9264 199.645 21.2021C199.219 21.4526 200.746 24.1077 202.712 24.9404C203.743 25.3576 207.696 27.1536 211.258 28.2966C211.485 28.3719 204.856 25.9907 201.668 24.769C200.223 24.0333 199.543 23.1164 199.323 23.3137C198.997 23.5109 199.849 27.4333 210.091 29.6466C210.361 29.7519 213.697 28.9217 213.532 29.0319C213.49 29.0594 210.219 29.7126 209.901 29.6901C209.618 29.6504 207.826 29.8847 207.793 29.97C207.685 30.2353 208.442 31.6397 213.731 31.3469C214.407 31.3096 218.076 30.1213 217.768 30.3769C217.613 30.5049 212.772 31.9479 212.403 31.9763C212.083 32.0179 210.381 32.181 210.319 32.347C210.242 32.5733 211.578 33.5727 214.418 33.733C216.932 33.8554 221.711 32.3237 221.615 32.423C221.519 32.5223 217.008 33.9399 216.89 34.0263C216.727 34.111 215.075 34.1931 215.017 34.3094C214.883 34.5989 217.4 36.7577 224.844 34.4537C224.096 35.3803 220.488 36.0139 220.493 36.1809C220.476 36.3019 221.288 37.0211 222.55 37.2786C223.18 37.4071 224.044 37.381 224.833 37.2667C226.25 37.0066 227.743 36.4924 229.64 34.8841C229.867 35.3889 224.901 37.6939 225.134 37.9137C226.211 38.8294 229.788 37.7956 230.022 37.6756C230.256 37.5553 236.91 34.1141 236.887 33.7159C236.99 34.2263 228.309 38.5529 228.403 38.7303C228.96 39.546 231.926 38.6874 232.067 38.6124C232.209 38.5377 235.852 36.7324 235.952 36.6793C236.051 36.626 231.67 39.0313 232.06 39.3974C231.872 40.9593 238.903 38.3194 239.454 37.9907C239.73 37.8264 236.076 39.464 236.067 40.242C237.243 42.0663 241.01 41.4876 241.591 41.0863C241.882 40.8856 241.249 42.4414 241.453 42.3001C241.524 42.2709 242.272 41.4593 242.56 40.8719C242.468 41.3816 242.055 42.1846 241.814 43.1059C241.573 44.0271 241.504 45.0667 241.173 46.1713C241.097 46.6564 243.494 45.2227 243.146 41.7954C243.351 43.5781 242.389 46.9116 242.64 47.0849C243.144 47.4314 244.536 45.4247 244.677 44.0677C245.09 44.7531 245.958 46.1839 246.704 46.513C246.623 45.4761 246.719 45.5237 246.383 44.5046C246.577 43.1517 246.604 41.2791 246.65 39.1646C248.679 42.7286 249.488 44.2336 248.921 46.9629C249.524 47.1936 250.488 45.0579 250.41 43.9586C251.185 47.013 254.528 47.471 254.581 47.3821Z" fill="#EF7D00" stroke="black" stroke-width="0.75" stroke-linecap="round" stroke-linejoin="round" />
<path d="M220.796 24.7554C220.796 24.7554 219.415 25.7121 217.697 25.6558C218.127 27.2315 221.686 26.0215 221.686 26.0215C221.686 26.0215 219.967 27.7662 218.74 28.0477C219.477 28.6105 222.575 28.4134 223.097 28.1321C223.618 27.8507 224.539 26.7532 224.539 26.7532C224.539 26.7532 221.348 30.1299 220.888 30.1018C220.826 30.4958 224.232 30.3551 224.938 29.7642C225.643 29.1732 227.423 28.3009 227.423 28.3009C227.423 28.3009 222.759 31.2838 222.545 31.2838C224.293 31.7058 227.791 30.7772 230.031 29.5109C226.717 31.5369 226.411 31.9028 224.723 32.5781C226.226 32.8877 226.993 33.8164 232.086 31.7902C235.001 30.5239 236.657 28.2165 236.657 28.2165C234.847 30.4395 231.994 32.3251 228.834 34.1822C228.65 34.5198 232.209 35.8985 236.749 31.5651M245.462 34.1539C245.462 34.1539 245.769 35.4765 246.996 36.4897C248.224 37.5025 248.316 38.4874 248.316 38.4874M244.849 25.5432C244.849 25.5432 245.278 26.7251 246.536 27.4849C247.825 28.2447 249.758 30.6364 249.911 31.0587C250.06 31.5695 250.801 35.2515 250.74 35.6452" fill="#EF7D00" />
<path d="M220.796 24.7554C220.796 24.7554 219.415 25.7121 217.697 25.6558C218.127 27.2315 221.686 26.0215 221.686 26.0215C221.686 26.0215 219.967 27.7662 218.74 28.0477C219.477 28.6105 222.575 28.4134 223.097 28.1321C223.618 27.8507 224.539 26.7532 224.539 26.7532C224.539 26.7532 221.348 30.1299 220.888 30.1018C220.826 30.4958 224.232 30.3551 224.938 29.7642C225.643 29.1732 227.423 28.3009 227.423 28.3009C227.423 28.3009 222.759 31.2838 222.545 31.2838C224.293 31.7058 227.791 30.7772 230.031 29.5109C226.717 31.5369 226.411 31.9028 224.723 32.5781C226.226 32.8877 226.993 33.8164 232.086 31.7902C235.001 30.5239 236.657 28.2165 236.657 28.2165C234.847 30.4395 231.994 32.3251 228.834 34.1822C228.65 34.5198 232.209 35.8985 236.749 31.5651M245.462 34.1539C245.462 34.1539 245.769 35.4765 246.996 36.4897C248.224 37.5025 248.316 38.4874 248.316 38.4874M244.849 25.5432C244.849 25.5432 245.278 26.7251 246.536 27.4849C247.825 28.2447 249.758 30.6364 249.911 31.0587C250.06 31.5695 250.801 35.2515 250.74 35.6452" stroke="black" stroke-width="0.75" stroke-linecap="round" stroke-linejoin="round" />
<path d="M237.026 27.3723C237.118 27.8226 235.215 30.1019 237.823 32.7752C235.461 35.4202 235.461 35.758 235.461 35.758C235.461 35.758 236.78 36.4333 239.142 34.576C243.039 38.966 241.74 40.9749 241.74 40.9749" fill="#EF7D00" />
<path d="M237.026 27.3723C237.118 27.8226 235.215 30.1019 237.823 32.7752C235.461 35.4202 235.461 35.758 235.461 35.758C235.461 35.758 236.78 36.4333 239.142 34.576C243.039 38.966 241.74 40.9749 241.74 40.9749" stroke="black" stroke-width="0.75" stroke-linecap="round" stroke-linejoin="round" />
<path d="M241.431 37.8757C241.431 37.8757 241.072 37.4043 241.712 35.6434C242.288 36.28 242.929 36.4158 243.21 36.6735C243.49 36.9313 246.432 37.3218 246.619 39.125M244.889 21.3474C244.889 21.215 244.297 20.0491 242.087 21.5064C243.271 21.5727 244.441 22.1953 244.889 21.3474ZM265.982 26.6787C266.09 26.7284 272.584 28.019 274.749 27.3737C271.989 30.7494 266.469 28.4658 266.469 28.4658C269.175 29.2104 269.283 29.1608 270.149 29.8558C270.42 30.5011 265.17 30.2033 263.438 29.3097C268.255 30.6997 268.363 30.6004 268.525 31.1464C268.742 31.891 260.623 30.9478 259.92 29.955C262.085 31.4938 263.276 31.7917 264.466 32.4867C263.005 33.0824 260.299 33.678 255.319 30.4514C261.868 35.912 267.768 35.5643 268.688 36.5571C266.415 39.635 257.593 34.7206 253.533 32.2385C249.474 29.7564 262.409 38.2451 263.6 38.0961C263.005 38.94 258.729 38.1954 258.459 37.7983M267.659 32.3874C266.902 32.4867 264.629 32.4867 264.304 32.4371ZM218.895 23.8548C218.895 23.8548 223.834 26.2467 225.92 26.078C225.368 26.5563 224.539 26.7533 224.539 26.7533C225.061 26.9503 226.503 27.6537 228.682 27.2036C228.16 27.6818 227.485 28.2166 227.485 28.2166C227.485 28.2166 229.356 28.8637 231.473 27.8508C230.829 28.5823 230.461 29.117 230.461 29.117L231.934 29.2014" fill="#EF7D00" />
<path d="M241.431 37.8757C241.431 37.8757 241.072 37.4043 241.712 35.6434C242.288 36.28 242.929 36.4158 243.21 36.6735C243.49 36.9313 246.432 37.3218 246.619 39.125M265.982 26.6787C266.09 26.7284 272.584 28.019 274.749 27.3737C271.989 30.7494 266.469 28.4658 266.469 28.4658C269.175 29.2104 269.283 29.1608 270.149 29.8558C270.42 30.5011 265.17 30.2033 263.438 29.3097C268.255 30.6997 268.363 30.6004 268.525 31.1464C268.742 31.891 260.623 30.9478 259.92 29.955C262.085 31.4938 263.276 31.7917 264.466 32.4867C263.005 33.0824 260.299 33.678 255.319 30.4514C261.868 35.912 267.768 35.5643 268.688 36.5571C266.415 39.635 257.593 34.7206 253.533 32.2385C249.474 29.7564 262.409 38.2451 263.6 38.0961C263.005 38.94 258.729 38.1954 258.459 37.7983M267.659 32.3874C266.902 32.4867 264.629 32.4867 264.304 32.4371M218.895 23.8548C218.895 23.8548 223.834 26.2467 225.92 26.078C225.368 26.5563 224.539 26.7533 224.539 26.7533C225.061 26.9503 226.503 27.6537 228.682 27.2036C228.16 27.6818 227.485 28.2166 227.485 28.2166C227.485 28.2166 229.356 28.8637 231.473 27.8508C230.829 28.5823 230.461 29.117 230.461 29.117L231.934 29.2014M244.889 21.3474C244.889 21.215 244.297 20.0491 242.087 21.5064C243.271 21.5727 244.441 22.1953 244.889 21.3474Z" stroke="black" stroke-width="0.75" stroke-linecap="round" stroke-linejoin="round" />
</g></svg>