<svg xmlns="http://www.w3.org/2000/svg" viewBox="0 0 400 200">
<path d="M9.99986 17.3198L16.0199 22.5232L22.9899 18.6865L19.9032 26.0198L25.7065 31.4615L17.7782 30.7915L14.3949 37.9915L12.5815 30.2465L4.68652 29.2532L11.4949 25.1365L9.99986 17.3198ZM145.528 89.4332L145.69 97.3882L153.205 99.9998L145.688 102.611L145.528 110.566L140.72 104.226L133.103 106.531L137.65 99.9998L133.105 93.4682L140.722 95.7732L145.528 89.4332ZM14.3932 162.006L17.7765 169.206L25.7065 168.538L19.9032 173.981L22.9899 181.315L16.0199 177.476L9.99986 182.68L11.4949 174.863L4.68652 170.746L12.5815 169.753L14.3932 162.006ZM62.2215 57.7782L59.6249 60.3748L60.9132 80.0415C60.4749 80.0698 60.0415 80.1132 59.6132 80.1682L57.2465 62.2215L55.1299 64.3398L58.3199 80.3815C55.6949 80.9015 53.2549 81.9315 51.1099 83.3698L42.0249 69.7698H39.0249L50.0465 84.1348C49.6999 84.4015 49.3649 84.6782 49.0382 84.9665L36.0382 70.1432H32.3665V73.8165L47.1882 86.8165C46.8999 87.1432 46.6232 87.4798 46.3565 87.8265L31.9932 76.8032V79.8032L45.5932 88.8898C44.1309 91.0711 43.1152 93.5205 42.6049 96.0965L26.5632 92.9065L24.4432 95.0248L42.3915 97.3915C42.3349 97.8198 42.2915 98.2532 42.2649 98.6915L22.5965 97.4032L19.9999 99.9998L22.5965 102.596L42.2632 101.308C42.2932 101.746 42.3349 102.183 42.3915 102.611L24.4432 104.975L26.5632 107.093L42.6049 103.903C43.1232 106.526 44.1549 108.966 45.5915 111.111L31.9932 120.198V123.195L46.3565 112.175C46.6232 112.521 46.9015 112.856 47.1899 113.183L32.3665 126.183V129.856H36.0399L49.0382 115.033C49.3665 115.321 49.7032 115.6 50.0482 115.865L39.0265 130.228H42.0249L51.1132 116.628C53.2939 118.092 55.7434 119.109 58.3199 119.62L55.1282 135.66L57.2482 137.778L59.6115 119.831C60.0415 119.886 60.4749 119.93 60.9132 119.958L59.6249 139.625L62.2215 142.221L64.8182 139.625L63.5315 119.958C63.9682 119.93 64.4015 119.886 64.8315 119.831L67.1965 137.778L69.3149 135.66L66.1249 119.616C68.7019 119.107 71.1524 118.092 73.3349 116.63L82.4199 130.23H85.4182L74.3982 115.865C74.7432 115.598 75.0782 115.321 75.4065 115.033L88.4065 129.856H92.0782V126.183L77.2565 113.183C77.5432 112.856 77.8215 112.52 78.0865 112.173L92.4499 123.195V120.2L78.8499 111.111C80.3128 108.93 81.329 106.481 81.8399 103.905L97.8815 107.095L99.9999 104.975L82.0532 102.608C82.1099 102.18 82.1532 101.746 82.1799 101.308L101.847 102.596L104.447 99.9998L101.85 97.4032L82.1832 98.6915C82.1547 98.2569 82.1119 97.8233 82.0549 97.3915L99.9999 95.0232L97.8815 92.9048L81.8399 96.0948C81.3297 93.5182 80.314 91.0683 78.8515 88.8865L92.4515 79.7998V76.8015L78.0865 87.8215C77.8199 87.4765 77.5432 87.1415 77.2565 86.8148L92.0782 73.8148V70.1415H88.4049L75.4049 84.9648C75.0782 84.6765 74.7415 84.3982 74.3949 84.1332L85.4182 69.7698H82.4199L73.3332 83.3715C71.152 81.9086 68.7026 80.8924 66.1265 80.3815L69.3165 64.3398L67.1982 62.2215L64.8332 80.1682C64.4032 80.1132 63.9699 80.0698 63.5332 80.0415L64.8199 60.3748L62.2215 57.7782Z" fill="#FCD116" />
</svg>