<?xml version='1.0' encoding='us-ascii'?>
<svg xmlns="http://www.w3.org/2000/svg" width="313" height="200" viewBox="0 0 313 200" fill="none">
    <g clip-path="url(#clip0_5_6273)">
        <path d="M128.081 94.263H184.981V116.157H128.081V94.263Z" fill="white" stroke="black" stroke-width="0.32" stroke-linejoin="bevel" />
        <path d="M182.046 106.353H183.839V114.601H182.046V106.353ZM128.081 102.278H184.981V104.823H128.081V102.278ZM128.081 98.828H184.981V101.073H128.081V98.828Z" fill="white" stroke="black" stroke-width="0.32" stroke-linejoin="bevel" />
        <path d="M128.081 95.383H184.981V97.56H128.081V95.383Z" fill="white" stroke="black" stroke-width="0.315" stroke-linejoin="bevel" />
        <path d="M143.061 106.353H144.854V114.601H143.061V106.353ZM167.556 106.353H169.349V114.601H167.556V106.353ZM128.531 106.353H130.324V114.601H128.531V106.353ZM132.046 106.353H133.839V114.601H132.046V106.353ZM135.796 106.353H137.589V114.601H135.796V106.353ZM139.546 106.353H141.339V114.601H139.546V106.353ZM170.956 106.353H172.749V114.601H170.956V106.353ZM174.706 106.353H176.499V114.601H174.706V106.353ZM178.456 106.353H180.249V114.601H178.456V106.353Z" fill="white" stroke="black" stroke-width="0.32" stroke-linejoin="bevel" />
        <path d="M105.826 117.308C106.706 116.859 107.71 115.816 108.038 114.648H204.573C204.902 115.816 205.906 116.859 206.786 117.308H105.826Z" fill="white" stroke="black" stroke-width="0.32" />
        <path d="M155.071 60.933C155.071 60.933 154.999 58.877 156.196 58.8545C157.394 58.8765 157.321 60.933 157.321 60.933H155.071ZM148.826 88.203V85.435C148.786 84.051 147.446 83.951 147.407 82.942C147.407 82.942 147.234 81.4285 147.633 80.738C148.175 82.7615 149.161 82.39 149.161 81.558C149.161 80.8315 148.603 80.156 147.457 78.393C147.091 77.829 147.317 76.063 147.831 75.4315C148.029 76.9665 148.257 77.7015 148.916 77.7015C149.318 77.7015 149.647 77.4395 149.647 76.6705C149.647 75.692 148.984 75.198 148.658 74.308C148.278 73.269 148.54 72.21 149.171 71.618C149.442 73.133 149.361 73.7365 150.035 73.7365C151.391 73.3075 150.035 71.3435 149.745 70.848C149.412 70.2705 150.193 69.118 150.193 69.118C150.625 70.463 150.763 70.573 151.228 70.448C151.815 70.2905 151.74 69.42 151.023 68.7165C150.571 68.2715 150.619 67.6105 151.105 67.0795C151.592 68.032 152.216 67.9745 152.276 67.4085L151.884 65.2125H160.512L160.084 67.3375C159.961 67.945 160.782 68.0775 161.292 67.08C161.778 67.611 161.825 68.2725 161.373 68.717C160.657 69.4205 160.581 70.291 161.168 70.4485C161.633 70.5735 161.772 70.4635 162.203 69.1185C162.203 69.1185 162.905 69.9035 162.652 70.8485C162.362 71.3435 161.005 73.3085 162.362 73.737C163.035 73.737 162.954 73.133 163.225 71.6185C163.856 72.2105 164.118 73.2695 163.738 74.3085C163.413 75.1985 162.75 75.6925 162.75 76.671C162.75 77.44 163.078 77.702 163.48 77.702C164.14 77.702 164.367 76.967 164.566 75.432C165.079 76.0635 165.305 77.8295 164.939 78.393C163.794 80.156 163.235 80.8315 163.235 81.558C163.235 82.39 164.22 82.7615 164.763 80.738C165.162 81.428 164.988 82.942 164.988 82.942C164.949 83.951 163.609 84.051 163.57 85.435V88.203H148.826ZM152.436 65.193L152.238 63.6305H160.157L159.959 65.193H152.436ZM152.966 63.598L152.796 62.313H159.598L159.428 63.598H152.966ZM154.046 62.268L153.933 60.983H158.462L158.349 62.268H154.046ZM170.556 117.308C169.543 116.918 168.068 115.848 168.068 114.773V102.624L169.387 100.946H142.999L144.264 102.626V114.774C144.264 115.849 143.251 116.919 142.238 117.309L170.556 117.308Z" fill="white" stroke="black" stroke-width="0.32" />
        <path d="M147.691 106.353H149.484V114.601H147.691V106.353ZM162.851 106.353H164.644V114.601H162.851V106.353Z" fill="white" stroke="black" stroke-width="0.32" stroke-linejoin="bevel" />
        <path d="M142.526 87.118V100.946H169.538V97.9675L169.577 87.1175C168.473 87.5515 168.279 88.5525 168.279 88.5525V94.4415H143.904V88.553C143.904 88.553 143.631 87.552 142.526 87.118Z" fill="white" stroke="black" stroke-width="0.32" />
        <path d="M165.871 117.308C164.988 116.918 163.065 115.848 163.065 114.773V101.178C163.254 100.419 164.283 99.971 164.945 99.499H147.034C147.887 99.95 148.837 100.325 149.177 101.179V114.774C149.177 115.849 147.657 116.919 146.774 117.309L165.871 117.308Z" fill="white" stroke="black" stroke-width="0.32" />
        <path d="M168.276 99.643V89.8495H165.821V88.8945H146.401V89.8495H143.946V99.643H168.276ZM162.001 117.308C161.136 116.918 159.876 115.848 159.876 114.773V103.166L160.587 102.111H151.742L152.452 103.166V114.774C152.452 115.85 151.192 116.919 150.327 117.309L162.001 117.308Z" fill="white" stroke="black" stroke-width="0.32" />
        <path d="M153.927 102.113H158.41V117.301H153.927V102.113Z" fill="white" stroke="black" stroke-width="0.327" />
        <path d="M160.761 98.773C160.771 97.773 163.68 97.728 165.177 96.8755H147.201C148.698 97.7275 151.539 97.7975 151.539 98.773L152.147 100.714L159.589 101.013L160.761 98.773Z" fill="white" stroke="black" stroke-width="0.32" stroke-linejoin="bevel" />
        <path d="M164.276 88.203C164.276 85.753 164.379 84.81 165.131 84.81V92.6C163.286 93.27 161.969 95.625 161.969 95.625H150.364C150.364 95.625 149.046 93.27 147.201 92.6V84.81C148.128 84.81 148.134 85.796 148.134 88.203H164.276ZM165.131 87.198C165.131 84.389 167.556 84.073 167.556 84.073V86.573C166.634 86.533 166.188 87.362 166.188 88.595C166.188 89.828 166.932 89.848 166.932 89.848V96.943H165.132L165.131 87.198Z" fill="white" stroke="black" stroke-width="0.32" />
        <path d="M147.212 87.198C147.212 84.389 144.786 84.073 144.786 84.073V86.573C145.709 86.533 146.155 87.362 146.155 88.595C146.155 89.828 145.411 89.848 145.411 89.848V96.943H147.211L147.212 87.198Z" fill="white" stroke="black" stroke-width="0.32" />
        <path d="M151.991 67.843H160.555M150.976 70.518H161.436M149.961 73.763H162.413M148.901 77.728H163.669M148.561 82.248H163.774" stroke="black" stroke-width="0.26666666666666666" />
        <path d="M143.946 96.993H168.276M151.666 96.998H160.684V100.313H151.666V96.998Z" stroke="black" stroke-width="0.32" />
        <path d="M150.536 89.653C152.031 91.448 151.893 94.493 151.877 96.288H160.548C160.53 94.493 160.392 91.448 161.887 89.653H150.536ZM155.411 69.088L154.224 68.476V66.7275C154.709 66.8725 155.255 66.9325 155.308 67.7065C155.477 66.6015 155.782 66.6555 156.261 66.225C156.74 66.655 157.045 66.6015 157.214 67.7065C157.267 66.9325 157.812 66.873 158.299 66.7265V68.4755L157.11 69.0875L155.411 69.088Z" fill="white" stroke="black" stroke-width="0.32" />
        <path d="M155.332 71.958L153.359 70.6015V68.99C154.05 69.15 154.827 69.215 154.903 70.065C155.144 68.853 155.578 68.227 156.26 67.755C156.943 68.227 157.377 68.853 157.618 70.065C157.694 69.215 158.47 69.15 159.163 68.99V70.6015L157.189 71.958H155.332Z" fill="white" stroke="black" stroke-width="0.32" />
        <path d="M155.191 76.433L152.922 74.4405V72.0725C153.717 72.3075 154.611 72.4035 154.698 73.6505C154.975 71.8705 155.474 70.9505 156.258 70.257C157.043 70.9505 157.543 71.87 157.82 73.65C157.907 72.403 158.8 72.307 159.595 72.0715V74.439L157.327 76.4315L155.191 76.433ZM159.376 79.078L157.324 81.916H155.001L152.949 79.078H159.376ZM151.766 83.843C152.793 84.404 153.171 85.5215 153.281 87.6195H159.056C159.166 85.5215 159.545 84.4045 160.571 83.843H151.766Z" fill="white" stroke="black" stroke-width="0.32" />
        <path d="M160.657 79.078V76.227C159.682 76.4955 159.05 77.072 158.769 77.856C158.769 76.9095 157.524 74.7275 156.165 73.641C154.803 74.857 153.537 76.831 153.562 77.856C153.331 77.11 152.649 76.496 151.674 76.227V79.078H160.657Z" fill="white" stroke="black" stroke-width="0.32" stroke-linejoin="bevel" />
        <path d="M161.092 83.843V80.992C160.023 81.2605 159.331 81.837 159.022 82.621C159.022 81.6745 157.657 79.492 156.168 78.406C154.675 79.622 153.287 81.596 153.315 82.621C153.061 81.875 152.314 81.261 151.245 80.992V83.843H161.092Z" fill="white" stroke="black" stroke-width="0.32" stroke-linejoin="bevel" />
        <path d="M162.292 89.693V86.4045C160.962 86.748 160.135 87.731 159.716 88.3045C159.716 86.5245 157.707 83.8095 156.167 82.9205C154.587 83.833 152.617 86.638 152.617 88.3045C152.187 87.7345 151.372 86.748 150.042 86.4045V89.693H162.292Z" fill="white" stroke="black" stroke-width="0.32" stroke-linejoin="bevel" />
        <path d="M161.571 96.993V93.612C160.398 94.072 160.047 95.202 159.678 95.9705C159.823 92.5405 157.747 88.8555 156.166 87.9205C154.585 88.8555 152.47 92.6205 152.654 95.9705C152.275 95.207 151.934 94.072 150.761 93.612V96.993H161.571Z" fill="white" stroke="black" stroke-width="0.32" stroke-linejoin="bevel" />
        <path d="M160.751 102.113V98.732C159.522 99.0245 159.446 99.477 159.055 100.235C159.2 98.1865 157.75 95.85 156.169 94.915C154.587 95.85 153.137 98.187 153.282 100.235C152.892 99.4775 152.843 99.025 151.587 98.732V102.113H160.751Z" fill="white" stroke="black" stroke-width="0.32" />
        <path d="M108.039 114.648V104.428C107.704 103.126 106.599 101.976 105.769 101.745V92.748L107.639 93.76L109.775 103.165V114.648H108.039Z" fill="white" stroke="black" stroke-width="0.32" />
        <path d="M108.039 114.688V104.428C107.704 103.127 106.599 101.976 105.769 101.745V92.124C107.024 92.124 107.639 93.7605 107.639 93.7605L109.775 103.166V114.609L108.039 114.688Z" fill="white" stroke="black" stroke-width="0.32" />
        <path d="M106.709 117.308C107.574 116.918 108.834 115.848 108.834 114.773V101.999L108.24 100.946H130.002L129.153 101.999V114.773C129.153 115.848 130.018 116.918 130.883 117.308H106.709Z" fill="white" stroke="black" stroke-width="0.32" />
        <path d="M126.492 117.308C125.627 116.918 124.367 115.848 124.367 114.773V102.624L126.177 100.945L111.383 100.946L113.193 102.624V114.773C113.193 115.848 111.933 116.918 111.068 117.308H126.492Z" fill="white" stroke="black" stroke-width="0.32" />
        <path d="M124.417 117.308C123.552 116.918 122.292 115.848 122.292 114.773V103.791L123.477 102.111H114.078L115.263 103.791V114.773C115.263 115.848 114.003 116.918 113.138 117.308H124.417Z" fill="white" stroke="black" stroke-width="0.32" />
        <path d="M116.531 102.113H121.022V117.309H116.531V102.113Z" fill="white" stroke="black" stroke-width="0.32" />
        <path d="M110.421 106.353H112.214V114.601H110.421V106.353ZM125.796 106.353H127.589V114.601H125.796V106.353ZM108.891 92.443H111.051V100.898H108.891V92.443ZM108.891 90.853H111.039V92.423H108.891V90.853Z" fill="white" stroke="black" stroke-width="0.32" stroke-linejoin="bevel" />
        <path d="M126.656 94.263H129.736V100.79H126.656V94.263Z" fill="white" stroke="black" stroke-width="0.3446666666666667" stroke-linejoin="bevel" />
        <path d="M111.016 100.833V86.363C111.632 86.363 111.727 88.483 113.141 88.483C113.876 88.483 113.798 87.605 113.385 86.8895C113.019 86.2555 112.567 85.3805 113.182 83.7495C113.604 84.9975 114.738 85.3935 114.529 84.611C114.169 83.267 113.131 83.046 113.909 80.96C114.18 82.7 115.296 82.6235 115.025 81.612C114.72 80.472 114.088 80.005 114.867 78.398C115.303 80.223 115.893 80.1155 115.893 78.983C115.893 77.31 115.829 75.505 117.994 74.8355C117.994 74.8355 118.119 73.3015 118.9 73.3015C119.681 73.3015 119.807 74.8355 119.807 74.8355C121.972 75.5055 121.908 77.3105 121.908 78.9835C121.908 80.116 122.498 80.2235 122.934 78.3985C123.713 80.0055 123.081 80.4725 122.776 81.6125C122.504 82.624 123.621 82.701 123.891 80.9605C124.669 83.0465 123.632 83.2675 123.271 84.6115C123.062 85.394 124.196 84.998 124.618 83.7505C125.233 85.3805 124.781 86.2555 124.415 86.8905C124.002 87.6055 123.923 88.484 124.66 88.484C126.073 88.484 126.168 86.364 126.784 86.364V100.834L111.016 100.833ZM107.633 89.903V100.943H108.888V89.875C108.436 89.6465 108.011 89.6115 107.633 89.903Z" fill="white" stroke="black" stroke-width="0.32" />
        <path d="M107.673 97.048C109.229 97.843 110.77 98.7645 111.16 100.945H107.673V97.048ZM129.256 93.743V100.947H130.274V93.725C129.956 93.576 129.522 93.5525 129.256 93.743Z" fill="white" stroke="black" stroke-width="0.32" />
        <path d="M130.277 96.993C128.721 97.788 127.179 98.7095 126.789 100.89H130.277V96.993ZM119.987 80.168L120.894 79.4055V78.429C120.562 78.4615 120.381 78.5755 120.136 78.897C119.927 78.2495 119.469 77.7445 118.855 77.4305C118.24 77.7445 117.782 78.227 117.573 78.874C117.328 78.5525 117.147 78.4615 116.815 78.429V79.4055L117.723 80.168H119.987Z" fill="white" stroke="black" stroke-width="0.32" />
        <path d="M120.471 82.613L120.893 81.7005V80.4305C120.561 80.464 120.38 80.5795 120.135 80.9055C119.926 80.249 119.468 79.7365 118.854 79.4185C118.239 79.737 117.781 80.2265 117.572 80.8825C117.327 80.5575 117.146 80.4645 116.814 80.4315V81.7015L117.236 82.6135L120.471 82.613Z" fill="white" stroke="black" stroke-width="0.32" />
        <path d="M120.536 85.928L121.884 84.2845V82.663C121.391 82.718 121.122 82.9145 120.758 83.466C120.448 82.355 119.768 82.112 118.855 81.573C117.942 82.112 117.261 82.3155 116.952 83.4265C116.588 82.875 116.319 82.7185 115.827 82.663V84.2845L117.173 85.928H120.536Z" fill="white" stroke="black" stroke-width="0.32" />
        <path d="M120.931 89.183C120.931 89.183 122.501 87.813 122.595 87.061V85.3275C121.986 85.3985 121.411 85.5565 120.961 86.2685C120.579 84.8335 119.981 84.4335 118.855 83.7375C117.729 84.4335 117.132 84.8335 116.749 86.2685C116.299 85.556 115.724 85.3985 115.116 85.327V87.06C115.314 87.812 116.779 89.182 116.779 89.182L120.931 89.183Z" fill="white" stroke="black" stroke-width="0.32" />
        <path d="M121.601 95.193C121.601 95.193 123.751 92.813 123.801 91.885V89.182C122.996 89.2935 122.235 89.847 121.641 90.957C121.135 88.72 120.346 87.16 118.856 86.075C117.366 87.16 116.576 88.72 116.071 90.9575C115.476 89.8465 114.715 89.2925 113.91 89.1815V91.8845C114.064 92.812 116.11 95.1925 116.11 95.1925L121.601 95.193Z" fill="white" stroke="black" stroke-width="0.32" />
        <path d="M121.601 98.748C121.601 98.748 123.439 96.877 123.801 96.065V93.362C122.996 93.4735 122.235 94.027 121.641 95.137C121.135 92.9 120.346 91.619 118.856 90.534C117.366 91.619 116.576 92.9 116.071 95.1375C115.476 94.026 114.715 93.4725 113.91 93.3615V96.0645C114.377 96.8765 116.11 98.7475 116.11 98.7475L121.601 98.748Z" fill="white" stroke="black" stroke-width="0.32" />
        <path d="M122.341 100.813C121.805 98.479 121.343 96.748 118.76 94.993C116.176 96.748 115.715 98.479 115.178 100.813H122.341Z" fill="white" stroke="black" stroke-width="0.32" />
        <path d="M123.671 102.113V98.732C122.498 99.192 121.438 99.872 121.046 100.63C120.61 98.7525 119.768 97.9255 118.72 96.7895C117.672 97.9255 116.97 98.7525 116.533 100.63C116.142 99.872 115.082 99.192 113.908 98.732V102.113H123.671Z" fill="white" stroke="black" stroke-width="0.32" />
        <path d="M204.474 114.648V104.428C204.809 103.126 205.914 101.976 206.744 101.745V92.748L204.874 93.76L202.738 103.165V114.648H204.474Z" fill="white" stroke="black" stroke-width="0.32" />
        <path d="M204.474 114.688V104.428C204.809 103.127 205.914 101.976 206.744 101.745V92.124C205.489 92.124 204.874 93.7605 204.874 93.7605L202.738 103.166V114.609L204.474 114.688Z" fill="white" stroke="black" stroke-width="0.32" />
        <path d="M205.804 117.308C204.939 116.918 203.679 115.848 203.679 114.773V101.999L204.272 100.946H182.511L183.36 101.999V114.773C183.36 115.848 182.495 116.918 181.63 117.308H205.804Z" fill="white" stroke="black" stroke-width="0.32" />
        <path d="M186.022 117.308C186.887 116.918 188.147 115.848 188.147 114.773V102.624L186.337 100.945L201.131 100.946L199.321 102.624V114.773C199.321 115.848 200.581 116.918 201.446 117.308H186.022Z" fill="white" stroke="black" stroke-width="0.32" />
        <path d="M188.096 117.308C188.961 116.918 190.221 115.848 190.221 114.773V103.791L189.036 102.111H198.435L197.25 103.791V114.773C197.25 115.848 198.51 116.918 199.375 117.308H188.096Z" fill="white" stroke="black" stroke-width="0.32" />
        <path d="M195.982 102.113H191.491V117.309H195.982V102.113Z" fill="white" stroke="black" stroke-width="0.32" />
        <path d="M202.091 106.353H200.298V114.601H202.091V106.353ZM186.716 106.353H184.923V114.601H186.716V106.353ZM203.621 92.443H201.461V100.898H203.621V92.443ZM203.621 90.853H201.474V92.423H203.621V90.853Z" fill="white" stroke="black" stroke-width="0.32" stroke-linejoin="bevel" />
        <path d="M185.857 94.263H182.777V100.79H185.857V94.263Z" fill="white" stroke="black" stroke-width="0.3446666666666667" stroke-linejoin="bevel" />
        <path d="M201.497 100.833V86.363C200.881 86.363 200.786 88.483 199.372 88.483C198.637 88.483 198.715 87.605 199.128 86.8895C199.494 86.2555 199.946 85.3805 199.331 83.7495C198.909 84.9975 197.775 85.3935 197.984 84.611C198.344 83.267 199.382 83.046 198.604 80.96C198.333 82.7 197.217 82.6235 197.488 81.612C197.793 80.472 198.425 80.005 197.646 78.398C197.21 80.223 196.62 80.1155 196.62 78.983C196.62 77.31 196.684 75.505 194.519 74.8355C194.519 74.8355 194.394 73.3015 193.613 73.3015C192.832 73.3015 192.706 74.8355 192.706 74.8355C190.541 75.5055 190.605 77.3105 190.605 78.9835C190.605 80.116 190.015 80.2235 189.579 78.3985C188.8 80.0055 189.432 80.4725 189.737 81.6125C190.009 82.624 188.892 82.701 188.622 80.9605C187.844 83.0465 188.881 83.2675 189.242 84.6115C189.451 85.394 188.317 84.998 187.895 83.7505C187.28 85.3805 187.732 86.2555 188.098 86.8905C188.511 87.6055 188.59 88.484 187.853 88.484C186.44 88.484 186.345 86.364 185.729 86.364V100.834L201.497 100.833ZM204.88 89.903V100.943H203.625V89.875C204.077 89.6465 204.502 89.6115 204.88 89.903Z" fill="white" stroke="black" stroke-width="0.32" />
        <path d="M204.84 97.048C203.284 97.843 201.742 98.7645 201.352 100.945H204.84V97.048ZM183.256 93.743V100.947H182.239V93.725C182.556 93.576 182.99 93.5525 183.256 93.743Z" fill="white" stroke="black" stroke-width="0.32" />
        <path d="M182.236 96.993C183.792 97.788 185.334 98.7095 185.724 100.89H182.236V96.993ZM192.526 80.168L191.619 79.4055V78.429C191.951 78.4615 192.132 78.5755 192.377 78.897C192.586 78.2495 193.044 77.7445 193.658 77.4305C194.273 77.7445 194.731 78.227 194.94 78.874C195.185 78.5525 195.366 78.4615 195.698 78.429V79.4055L194.79 80.168H192.526Z" fill="white" stroke="black" stroke-width="0.32" />
        <path d="M192.041 82.613L191.62 81.7005V80.4305C191.952 80.464 192.133 80.5795 192.378 80.9055C192.586 80.249 193.045 79.7365 193.659 79.4185C194.274 79.737 194.732 80.2265 194.94 80.8825C195.185 80.5575 195.366 80.4645 195.698 80.4315V81.7015L195.276 82.6135L192.041 82.613Z" fill="white" stroke="black" stroke-width="0.32" />
        <path d="M191.977 85.928L190.629 84.2845V82.663C191.122 82.718 191.391 82.9145 191.755 83.466C192.065 82.355 192.745 82.112 193.658 81.573C194.571 82.112 195.252 82.3155 195.561 83.4265C195.925 82.875 196.194 82.7185 196.686 82.663V84.2845L195.34 85.928H191.977Z" fill="white" stroke="black" stroke-width="0.32" />
        <path d="M191.581 89.183C191.581 89.183 190.011 87.813 189.918 87.061V85.3275C190.526 85.3985 191.102 85.5565 191.551 86.2685C191.934 84.8335 192.531 84.4335 193.657 83.7375C194.784 84.4335 195.381 84.8335 195.763 86.2685C196.213 85.556 196.788 85.3985 197.397 85.327V87.06C197.199 87.812 195.734 89.182 195.734 89.182L191.581 89.183Z" fill="white" stroke="black" stroke-width="0.32" />
        <path d="M190.912 95.193C190.912 95.193 188.762 92.813 188.712 91.885V89.182C189.517 89.2935 190.278 89.847 190.872 90.957C191.378 88.72 192.167 87.16 193.657 86.075C195.147 87.16 195.937 88.72 196.442 90.9575C197.037 89.8465 197.798 89.2925 198.603 89.1815V91.8845C198.449 92.812 196.403 95.1925 196.403 95.1925L190.912 95.193Z" fill="white" stroke="black" stroke-width="0.32" />
        <path d="M190.912 98.748C190.912 98.748 189.074 96.877 188.712 96.065V93.362C189.517 93.4735 190.278 94.027 190.872 95.137C191.378 92.9 192.167 91.619 193.657 90.534C195.147 91.619 195.937 92.9 196.442 95.1375C197.037 94.026 197.798 93.4725 198.603 93.3615V96.0645C198.136 96.8765 196.403 98.7475 196.403 98.7475L190.912 98.748Z" fill="white" stroke="black" stroke-width="0.32" />
        <path d="M190.171 100.813C190.708 98.479 191.169 96.748 193.753 94.993C196.336 96.748 196.798 98.479 197.334 100.813H190.171Z" fill="white" stroke="black" stroke-width="0.32" />
        <path d="M188.841 102.113V98.732C190.014 99.192 191.075 99.872 191.466 100.63C191.902 98.7525 192.744 97.9255 193.792 96.7895C194.841 97.9255 195.542 98.7525 195.98 100.63C196.371 99.872 197.431 99.192 198.605 98.732V102.113H188.841Z" fill="white" stroke="black" stroke-width="0.32" />
        <path d="M103.277 117.173V120.26H209.222V117.173L103.277 117.173ZM101.359 120.288V124.313H211.139V120.288H101.359ZM211.139 124.313L101.359 124.343L98.1505 124.313V129.624H214.349V124.314L211.139 124.313ZM94.918 129.658L94.919 135.913H217.584L217.583 129.658H94.918ZM217.584 135.913V135.923H94.919V135.913H91.6855V142.168H220.815V135.913H217.584Z" fill="white" />
        <path d="M211.139 124.313H101.359V120.288H211.139V124.313ZM211.139 124.313L101.359 124.343L98.1505 124.313V129.624H214.349V124.314L211.139 124.313ZM94.919 135.913L94.918 129.658H217.583L217.584 135.913M94.919 135.913H217.584M94.919 135.913V135.923H217.584V135.913M94.919 135.913H91.6855V142.168H220.815V135.913H217.584M103.277 117.173V120.26H209.222V117.173L103.277 117.173Z" stroke="black" stroke-width="0.32" />
        <path d="M114.776 117.188H122.779V142.156H114.776V117.188Z" fill="white" stroke="black" stroke-width="0.34833333333333333" />
        <path d="M116.547 117.188H121.005V142.156H116.547V117.188Z" fill="white" stroke="black" stroke-width="0.3476666666666666" />
        <path d="M152.112 117.188H160.115V142.156H152.112V117.188Z" fill="white" stroke="black" stroke-width="0.34833333333333333" />
        <path d="M153.936 117.188H158.395V142.156H153.936V117.188Z" fill="white" stroke="black" stroke-width="0.3476666666666666" />
        <path d="M189.667 117.188H197.669V142.156H189.667V117.188Z" fill="white" stroke="black" stroke-width="0.34833333333333333" />
        <path d="M191.437 117.188H195.895V142.156H191.437V117.188Z" fill="white" stroke="black" stroke-width="0.3476666666666666" />
        <path d="M108.039 114.648H204.574M116.467 139.018H121.089M116.467 135.893H121.089M116.467 132.768H121.089M116.467 129.643H121.089M116.467 126.518H121.089M116.467 123.393H121.089M116.467 120.268H121.089M153.957 139.023H158.26M153.957 135.896H158.26M153.957 132.77H158.26M153.957 129.643H158.26M153.957 126.516H158.26M153.957 123.39H158.26M153.957 120.263H158.26M191.357 139.018H195.979M191.357 135.893H195.979M191.357 132.768H195.979M191.357 129.643H195.979M191.357 126.518H195.979M191.357 123.393H195.979M191.357 120.268H195.979" stroke="black" stroke-width="0.32" />
    </g>
    <defs>
        <clipPath id="clip0_5_6273">
            <rect width="312.5" height="200" fill="white" />
        </clipPath>
    </defs>
</svg>