<svg xmlns="http://www.w3.org/2000/svg" viewBox="0 0 400 200"><g><path d="M70.0003 39.9999L63.8203 59.0199L73.3403 62.1199L70.0003 39.9999Z" fill="white" />
<path d="M70.0003 39.9999L76.1803 59.0199L66.6603 62.1199L70.0003 39.9999Z" fill="white" />
<path d="M89.0214 53.8196L69.0226 53.8196L69.0162 63.8316L89.0214 53.8196Z" fill="white" />
<path d="M89.0214 53.8196L72.8421 65.5746L66.952 57.4785L89.0214 53.8196Z" fill="white" />
<path d="M50.9792 53.8196L67.1586 65.5746L73.0487 57.4785L50.9792 53.8196Z" fill="white" />
<path d="M50.9792 53.8196L70.978 53.8196L70.9844 63.8316L50.9792 53.8196Z" fill="white" />
<path d="M81.756 76.1803L75.5761 57.1602L66.0521 60.248L81.756 76.1803Z" fill="white" />
<path d="M81.756 76.1803L65.5766 64.4253L71.4563 56.3216L81.756 76.1803Z" fill="white" />
<path d="M58.2446 76.1803L74.424 64.4253L68.5443 56.3216L58.2446 76.1803Z" fill="white" />
<path d="M58.2446 76.1803L64.4246 57.1602L73.9485 60.248L58.2446 76.1803Z" fill="white" />
<path d="M109.482 6.15967L103.302 25.1797L112.822 28.2797L109.482 6.15967Z" fill="white" />
<path d="M109.482 6.15967L115.662 25.1797L106.142 28.2797L109.482 6.15967Z" fill="white" />
<path d="M128.504 19.9793L108.505 19.9793L108.498 29.9913L128.504 19.9793Z" fill="white" />
<path d="M128.504 19.9793L112.324 31.7344L106.434 23.6383L128.504 19.9793Z" fill="white" />
<path d="M90.4613 19.9793L106.641 31.7344L112.531 23.6383L90.4613 19.9793Z" fill="white" />
<path d="M90.4613 19.9793L110.46 19.9793L110.467 29.9913L90.4613 19.9793Z" fill="white" />
<path d="M121.238 42.34L115.058 23.32L105.534 26.4077L121.238 42.34Z" fill="white" />
<path d="M121.238 42.34L105.059 30.585L110.938 22.4813L121.238 42.34Z" fill="white" />
<path d="M97.7267 42.34L113.906 30.585L108.026 22.4813L97.7267 42.34Z" fill="white" />
<path d="M97.7267 42.34L103.907 23.32L113.431 26.4078L97.7267 42.34Z" fill="white" />
<path d="M109.482 73.8402L103.302 92.8602L112.822 95.9602L109.482 73.8402Z" fill="white" />
<path d="M109.482 73.8402L115.662 92.8602L106.142 95.9602L109.482 73.8402Z" fill="white" />
<path d="M128.504 87.6599L108.505 87.6598L108.498 97.6718L128.504 87.6599Z" fill="white" />
<path d="M128.504 87.6599L112.324 99.4149L106.434 91.3188L128.504 87.6599Z" fill="white" />
<path d="M90.4613 87.6599L106.641 99.4149L112.531 91.3188L90.4613 87.6599Z" fill="white" />
<path d="M90.4613 87.6599L110.46 87.6598L110.467 97.6718L90.4613 87.6599Z" fill="white" />
<path d="M121.238 110.021L115.058 91.0005L105.534 94.0883L121.238 110.021Z" fill="white" />
<path d="M121.238 110.021L105.059 98.2655L110.938 90.1619L121.238 110.021Z" fill="white" />
<path d="M97.7267 110.021L113.906 98.2655L108.026 90.1619L97.7267 110.021Z" fill="white" />
<path d="M97.7267 110.021L103.907 91.0005L113.431 94.0883L97.7267 110.021Z" fill="white" />
<path d="M30.5182 73.8402L24.3382 92.8602L33.8582 95.9602L30.5182 73.8402Z" fill="white" />
<path d="M30.5182 73.8402L36.6982 92.8602L27.1782 95.9602L30.5182 73.8402Z" fill="white" />
<path d="M49.5393 87.6599L29.5405 87.6598L29.5341 97.6718L49.5393 87.6599Z" fill="white" />
<path d="M49.5393 87.6599L33.36 99.4149L27.4698 91.3188L49.5393 87.6599Z" fill="white" />
<path d="M11.4971 87.6599L27.6764 99.4149L33.5666 91.3188L11.4971 87.6599Z" fill="white" />
<path d="M11.4971 87.6599L31.4959 87.6598L31.5023 97.6718L11.4971 87.6599Z" fill="white" />
<path d="M42.2739 110.021L36.094 91.0005L26.57 94.0883L42.2739 110.021Z" fill="white" />
<path d="M42.2739 110.021L26.0945 98.2655L31.9742 90.1619L42.2739 110.021Z" fill="white" />
<path d="M18.7625 110.021L34.9419 98.2655L29.0622 90.1619L18.7625 110.021Z" fill="white" />
<path d="M18.7625 110.021L24.9424 91.0005L34.4664 94.0883L18.7625 110.021Z" fill="white" />
<path d="M30.5182 6.15967L24.3382 25.1797L33.8582 28.2797L30.5182 6.15967Z" fill="white" />
<path d="M30.5182 6.15967L36.6982 25.1797L27.1782 28.2797L30.5182 6.15967Z" fill="white" />
<path d="M49.5393 19.9793L29.5405 19.9793L29.5341 29.9913L49.5393 19.9793Z" fill="white" />
<path d="M49.5393 19.9793L33.36 31.7344L27.4698 23.6383L49.5393 19.9793Z" fill="white" />
<path d="M11.4971 19.9793L27.6764 31.7344L33.5666 23.6383L11.4971 19.9793Z" fill="white" />
<path d="M11.4971 19.9793L31.4959 19.9793L31.5023 29.9913L11.4971 19.9793Z" fill="white" />
<path d="M42.2739 42.34L36.094 23.32L26.57 26.4078L42.2739 42.34Z" fill="white" />
<path d="M42.2739 42.34L26.0945 30.585L31.9742 22.4813L42.2739 42.34Z" fill="white" />
<path d="M18.7625 42.34L34.9419 30.585L29.0622 22.4813L18.7625 42.34Z" fill="white" />
<path d="M18.7625 42.34L24.9424 23.32L34.4664 26.4078L18.7625 42.34Z" fill="white" />
</g></svg>