<?xml version='1.0' encoding='us-ascii'?>
<svg xmlns="http://www.w3.org/2000/svg" viewBox="0 0 300 200"><g><path d="M134 79.8999H165.917V113.333C165.917 124.583 151.25 115.917 150 121.917C147.833 115.75 134.083 124.667 134.083 112.667C134.083 101 134 79.8999 134 79.8999Z" fill="white" stroke="black" stroke-width="0.5333333333333333" />
<path d="M152.25 116.583C152.25 116.583 151.833 117 151.083 116.667C150.333 116.333 150.25 95.2502 150.25 95.2502C151.917 93.4168 153.25 92.8335 153.25 92.8335L154.25 93.6668C150.5 95.5835 150.833 98.3335 151.167 103.083C151.25 104.833 151.25 107.083 151.667 109.25C152.25 112 153.417 114.333 153.5 116.083C153.583 117.167 152.25 116.583 152.25 116.583Z" fill="#73452B" stroke="black" stroke-width="0.11111099999999999" />
<path d="M149.667 92.3335H151.167C149.917 104.417 151.001 111.583 151.001 115.083C151.001 116.25 151.667 116.667 151.584 116.667C150.084 118.333 149.334 116.583 149.334 116.583L149.667 92.3335Z" fill="#73452B" stroke="black" stroke-width="0.11111099999999999" />
<path d="M147.334 116.583C145.917 117.25 145.751 115.917 145.834 115.75C148.917 109.5 150.251 95.7498 147.417 94.2498L147.584 92.9165C148.667 93.2498 149.667 94.6665 149.667 94.6665C150.084 110.083 149.667 116.417 149.417 116.667C147.917 118.25 147.334 116.417 147.251 116.25" fill="#A36629" />
<path d="M147.334 116.583C145.917 117.25 145.751 115.917 145.834 115.75C148.917 109.5 150.251 95.7498 147.417 94.2498L147.584 92.9165C148.667 93.2498 149.667 94.6665 149.667 94.6665C150.084 110.083 149.667 116.417 149.417 116.667C147.917 118.25 147.334 116.417 147.251 116.25" stroke="black" stroke-width="0.11111099999999999" />
<path d="M147.251 116.333C147.001 115 149.417 111.583 149.251 108M151.334 110.917C152.084 113 152.417 114.833 152.251 116.583" stroke="black" stroke-width="0.11111099999999999" />
<path d="M154.584 86.6667C155.084 86.0834 155.084 86.0834 156.001 86.0834C156.167 84.8334 158.251 84.8334 158.417 86.4167C160.084 86.0834 160.417 87.0834 159.751 88.0834C161.334 87.6667 162.751 88.0834 162.334 89.9167C165.167 90.6667 164.084 92.6667 162.834 93.0834C162.667 94.3334 161.501 94.75 159.917 94.25C157.917 95.6667 156.751 95.1667 155.834 93.75C153.584 94.0834 153.417 93.5834 152.417 92.3334C150.667 93.0834 150.334 93.0834 148.834 92.1667C148.751 93.3334 148.334 93 147.584 92.9167C147.667 94.4167 147.084 95.0834 145.751 94.5834C146.751 96.6667 144.167 97.5834 142.917 95.8334C141.751 95.9167 141.667 95.5834 141.084 95.1667C140.584 96.8334 138.751 96.5834 138.417 95.6667C136.084 95.3334 136.334 94.0834 138.251 94C138.417 92.6667 139.584 92.9167 140.334 93.0834C140.417 92.25 140.917 92.4167 141.334 92.5834C141.084 92 141.251 91.6667 142.001 91.5C140.917 90.0834 141.584 89.5834 142.667 89.0834C142.084 87.75 143.084 87.8334 143.834 87.75C143.751 86.3334 144.167 86.0834 145.667 85.9167C145.501 85.4167 145.751 85 146.584 85C146.084 83.5834 146.751 83.2584 148.251 83.5C148.501 81.4417 152.917 82.4167 152.584 85.25C153.834 85.4167 154.251 85.6667 154.584 86.6667Z" fill="#009A3B" stroke="black" stroke-width="0.11111099999999999" />
<path d="M145.667 85.9167C146 86.0833 146.417 85.9167 146.5 86.8333C147.167 85.6667 148 86.3333 148 87.6667M152.583 85.25C152.25 85.75 151 85.75 151.167 87.0833C150.75 86.5 149.917 86.3333 149.583 86.9167M154.583 86.6667C154.583 87 154.5 88 154.167 88.5M159.75 88.0833C159.833 88.1667 158.583 88.0833 158 88.5M162.833 93.0833C162.5 92.9167 161.833 92.5 161.333 93.1667C161.333 92.8333 161.333 91.9167 160.417 91.9167M159.917 94.25C159.917 93.4167 159.75 93.1667 159.583 92.9167M157.167 93.0833C156.5 92.5833 155.833 93.3333 155.833 93.75M152.333 92.3333C152.333 92 152.083 91.3333 152.667 91.0833M142.833 95.8333C143 95 143.583 95 143.5 94.5833M143.5 94.5833C143.417 93.9167 142.667 93.3333 141.75 94.25M143.5 94.5833C144 94.4167 144.5 94.5 144.667 94.75M142.083 91.5C142.417 91.1667 143.25 91.25 143.75 91.5M143.75 89.5C144.167 89.5 144.917 89.3333 145.167 90.0833C146.083 88.6667 146.75 88.8333 146.917 89.1667M148.583 89C149.25 88.75 150.417 89.4167 151.083 90.5833C151.417 89.6667 151.917 89.8333 152.417 89.75M155.583 90.5833C156.667 90.0833 157.333 91.0833 157.667 91.5C158.167 90.8333 158.583 90.8333 159.083 90.8333M145.5 92.5833C145.75 92.1667 146.333 92.0833 146.75 92.3333C146.667 91.5833 147.167 91.25 147.5 91.4167" stroke="black" stroke-width="0.11111099999999999" />
<path d="M148.917 75.2166L147.084 75.3L146.167 76.9416L145.167 75.375L143.334 75.45L144.167 73.8L143.167 72.2333L145.084 72.15L145.917 70.5083L146.917 72.075L148.751 72L147.917 73.65L148.917 75.2166ZM141.084 75.825L139.251 76.275L138.751 78.05L137.417 76.7166L135.667 77.15L136.167 75.375L134.917 74.025L136.667 73.5833L137.167 71.8L138.501 73.1333L140.334 72.7L139.751 74.4833L141.084 75.825ZM133.501 77.3833L131.834 78.2083L131.751 80.0583L130.167 79.0416L128.501 79.8583L128.667 78.0083L127.084 76.9833L128.751 76.15L128.917 74.3L130.417 75.3166L132.084 74.5L132.001 76.35L133.501 77.3833ZM151.334 75.2166L153.167 75.3L154.001 76.9416L155.001 75.375L156.834 75.45L156.001 73.8L157.001 72.2333L155.167 72.15L154.251 70.5083L153.251 72.075L151.417 72L152.251 73.65L151.334 75.2166ZM159.167 75.825L160.917 76.275L161.417 78.05L162.751 76.7166L164.501 77.15L164.001 75.375L165.334 74.025L163.501 73.5833L163.001 71.8L161.667 73.1333L159.917 72.7L160.417 74.4833L159.167 75.825ZM166.667 77.3833L168.334 78.2083L168.417 80.0583L170.001 79.0416L171.667 79.8583L171.584 78.0083L173.084 76.9833L171.417 76.15L171.334 74.3L169.751 75.3166L168.084 74.5L168.251 76.35L166.667 77.3833Z" fill="#FFD700" stroke="black" stroke-width="0.38889" />
<path d="M168.917 112.667L171.001 115.667L172.917 112.833L171.584 110.417L168.917 112.667ZM155.667 121.417L155.834 124.417C155.834 124.417 156.667 124.417 157.417 124.167C158.084 123.917 158.667 123.417 158.667 123.417L158.584 121.833L155.667 121.417ZM144.501 121.417L144.334 124.333C144.334 124.333 143.584 124.333 142.834 124.167C142.167 124 141.584 123.583 141.584 123.583L140.751 121.583L144.501 121.417ZM131.084 112.667L128.917 115.667L126.584 111.833L128.334 110L131.084 112.667Z" fill="white" stroke="black" stroke-width="0.38889" />
<path d="M141.5 127.417C141.5 130.25 158.667 130.25 158.667 127.417V123.417C158.667 125.5 141.5 125.084 141.5 123.417V127.417Z" fill="white" stroke="black" stroke-width="0.38889" />
<path d="M126.167 118.167C127.667 125.834 141.5 126 141.5 126V123.417C141.167 122.417 141.75 122.084 144 121.75C144.917 121.667 144.5 120.334 144.5 120.334C144.5 120.334 138.5 121.417 134.25 119.75C128.5 117.417 127.667 112.917 127.667 112.917C127.667 112.917 127.25 116.417 126.167 118.167ZM173.917 118.167C172.5 125.834 158.667 126 158.667 126V123.417C158.917 122.417 158.334 122.084 156.084 121.75C155.167 121.667 155.667 120.334 155.667 120.334C155.667 120.334 161.667 121.417 165.917 119.75C171.584 117.417 172.25 112.917 172.25 112.917C172.25 112.917 172.834 116.417 173.917 118.167Z" fill="white" stroke="black" stroke-width="0.38889" />
<path d="M127.25 115.25C123.417 113.167 126.417 111 126.75 104.833C127.334 108.583 131.584 110.167 131.084 112.583C129.334 112.667 128.5 110 127.667 112.917L127.25 115.25ZM172.834 115.25C176.667 113.083 173.5 111 173.167 104.833C172.584 108.583 168.417 110.167 168.917 112.583C170.584 112.667 171.417 110 172.25 112.917L172.834 115.167V115.25Z" fill="white" stroke="black" stroke-width="0.38889" />
<path d="M129.584 118.084L130.001 118.417L129.084 119.417C128.717 119.817 128.629 120.082 128.883 120.326C129.2 120.628 129.422 120.523 129.751 120.167L130.751 119.084L131.084 119.417L130.085 120.583C129.543 121.216 129.039 121.071 128.617 120.676C128.249 120.333 128.038 119.834 128.579 119.222L129.588 118.088L129.584 118.084ZM131.251 119.5L131.668 119.75L131.584 121.75L132.501 120.334L132.918 120.584L131.584 122.75L131.084 122.5L131.168 120.5L130.251 121.917L129.834 121.667L131.251 119.5ZM132.001 123L133.168 120.667L133.584 120.917L132.501 123.167L132.001 123ZM133.834 121L132.914 123.415L133.834 123.75C134.692 124.063 135.094 123.685 135.367 122.96C135.642 122.223 135.522 121.68 134.664 121.335L133.834 121ZM134.164 121.585C135.027 121.885 135.079 122.213 134.844 122.805C134.617 123.368 134.404 123.588 133.584 123.165L134.164 121.585ZM136.584 121.917L135.084 124.167L135.664 124.337L135.999 123.752L136.999 124.002L137.084 124.587L137.664 124.667L137.084 122.002L136.584 121.917ZM136.749 122.502L136.914 123.502L136.249 123.417L136.749 122.502ZM138.009 122.134L137.919 124.716L138.9 124.735C139.812 124.753 140.071 124.267 140.093 123.493C140.116 122.705 139.826 122.23 138.902 122.183L138.009 122.134ZM138.51 122.582C139.423 122.585 139.579 122.877 139.547 123.515C139.517 124.121 139.384 124.397 138.474 124.262L138.51 122.582ZM146.751 125.75V128.415H147.336V127.415C147.336 127.415 147.836 127.445 148.251 127.335C148.578 127.25 148.806 127.04 148.813 126.523C148.821 126.015 148.526 125.75 148.016 125.75H146.749H146.751ZM147.336 126.165L147.923 126.173C148.413 126.173 148.321 126.915 147.938 126.915H147.336V126.165ZM149.751 125.75L148.666 128.415H149.251L149.501 127.75H150.586L150.836 128.415H151.416L150.333 125.749H149.749L149.751 125.75ZM150.001 126.335L150.416 127.335H149.666L150.001 126.335ZM151.418 127.917L152.834 126.167H151.584V125.75H153.584V126.167L152.084 127.917H153.584V128.417H151.418V127.917ZM159.834 122.75L160.334 122.667L160.584 124.167C160.673 124.7 160.429 125.064 160.05 125.204C159.617 125.364 159.066 125.218 159.001 124.5L159.418 124.417C159.515 124.846 159.687 124.884 159.887 124.816C160.046 124.763 160.128 124.513 160.084 124.25L159.834 122.75ZM160.668 122.6L161.161 122.507L161.389 123.755C161.487 124.289 161.655 124.516 162.002 124.456C162.433 124.38 162.48 124.139 162.389 123.663L162.082 122.331L162.587 122.255L162.922 123.64C163.117 124.451 162.694 124.772 162.126 124.878C161.631 124.971 161.105 124.845 160.933 124.046L160.668 122.6ZM163.251 123.75L163.668 123.584C163.872 123.951 164.191 123.932 164.439 123.822C164.783 123.67 164.823 123.369 164.652 123.267C164.41 123.122 163.83 123.328 163.518 123.214C163.144 123.078 162.984 122.868 163.003 122.545C163.026 122.156 163.368 121.942 163.74 121.827C164.157 121.698 164.567 121.743 164.834 122.25L164.334 122.417C164.172 122.143 163.962 122.156 163.776 122.244C163.621 122.317 163.378 122.455 163.508 122.678C163.614 122.859 164.227 122.741 164.549 122.755C164.883 122.768 165.153 122.991 165.198 123.312C165.261 123.759 165.095 124.001 164.578 124.203C163.939 124.452 163.362 124.173 163.251 123.75ZM165.501 121.667L164.834 122L164.668 121.584L166.501 120.834L166.668 121.167L166.001 121.5L166.751 123.334L166.334 123.584L165.501 121.667ZM166.584 120.75L167.001 120.5L168.168 122.667L167.751 122.917L166.584 120.75ZM169.418 120.917L169.918 120.75C170.153 121.245 169.8 122.143 168.936 122.125C167.673 122.098 167.536 120.706 167.735 120.247C168.068 119.476 169.003 119.49 169.418 119.917L169.001 120.25C168.737 119.911 168.15 120.125 168.11 120.437C168.046 120.946 168.27 121.419 168.725 121.644C169.11 121.834 169.705 121.355 169.418 120.917ZM169.168 119.167L169.584 118.834L171.084 120.834L170.668 121.167L169.168 119.167ZM170.751 117.917L170.336 118.252L171.251 120.752L171.666 120.337L171.416 119.837L172.166 119.167L172.666 119.417L173.086 119.087L170.751 117.917ZM170.916 118.502L171.751 118.917L171.251 119.417L170.916 118.502Z" fill="black" />
</g></svg>