<svg xmlns="http://www.w3.org/2000/svg" viewBox="0 0 340 200"><g><path d="M127.5 65L124.41 74.5106L129.165 76.0557" fill="#F7D116" />
<path d="M127.5 65L130.59 74.5106L125.835 76.0557" fill="#F7D116" />
<path d="M137.012 71.9097H127.012V76.9097" fill="#F7D116" />
<path d="M137.012 71.9097L128.922 77.7875L125.983 73.7424" fill="#F7D116" />
<path d="M133.379 83.0898L130.289 73.5793L125.533 75.1244" fill="#F7D116" />
<path d="M133.379 83.0898L125.289 77.212L128.228 73.1669" fill="#F7D116" />
<path d="M121.623 83.0903L129.713 77.2125L126.774 73.1674" fill="#F7D116" />
<path d="M121.623 83.0903L124.713 73.5798L129.468 75.1249" fill="#F7D116" />
<path d="M117.99 71.9102L126.08 77.788L129.019 73.7429" fill="#F7D116" />
<path d="M117.99 71.9102H127.99V76.9102" fill="#F7D116" />
<path d="M127.5 165L124.41 174.511L129.165 176.056" fill="#F7D116" />
<path d="M127.5 165L130.59 174.511L125.835 176.056" fill="#F7D116" />
<path d="M137.012 171.91H127.012V176.91" fill="#F7D116" />
<path d="M137.012 171.91L128.922 177.788L125.983 173.742" fill="#F7D116" />
<path d="M133.379 183.09L130.289 173.579L125.533 175.124" fill="#F7D116" />
<path d="M133.379 183.09L125.289 177.212L128.228 173.167" fill="#F7D116" />
<path d="M121.623 183.09L129.713 177.212L126.774 173.167" fill="#F7D116" />
<path d="M121.623 183.09L124.713 173.58L129.468 175.125" fill="#F7D116" />
<path d="M117.99 171.91L126.08 177.788L129.019 173.743" fill="#F7D116" />
<path d="M117.99 171.91H127.99V176.91" fill="#F7D116" />
<path d="M184.564 106.458H174.564V111.458" fill="#F7D116" />
<path d="M184.564 106.458L176.474 112.336L173.535 108.291" fill="#F7D116" />
<path d="M180.932 117.639L177.841 108.129L173.086 109.674" fill="#F7D116" />
<path d="M180.932 117.639L172.841 111.761L175.78 107.716" fill="#F7D116" />
<path d="M169.176 117.639L177.266 111.761L174.327 107.716" fill="#F7D116" />
<path d="M169.176 117.639L172.266 108.129L177.021 109.674" fill="#F7D116" />
<path d="M165.543 106.459L173.633 112.337L176.572 108.292" fill="#F7D116" />
<path d="M165.543 106.459H175.543V111.459" fill="#F7D116" />
<path d="M175.053 99.5488L171.963 109.059L176.718 110.604" fill="#F7D116" />
<path d="M175.053 99.5488L178.143 109.059L173.388 110.604" fill="#F7D116" />
<path d="M89.459 137.36H79.459V142.36" fill="#F7D116" />
<path d="M89.459 137.36L81.3688 143.238L78.4299 139.193" fill="#F7D116" />
<path d="M85.8262 148.541L82.736 139.03L77.9807 140.576" fill="#F7D116" />
<path d="M85.8262 148.541L77.736 142.663L80.6749 138.618" fill="#F7D116" />
<path d="M74.0703 148.541L82.1605 142.663L79.2216 138.618" fill="#F7D116" />
<path d="M74.0703 148.541L77.1605 139.03L81.9158 140.576" fill="#F7D116" />
<path d="M70.4375 137.361L78.5277 143.239L81.4666 139.194" fill="#F7D116" />
<path d="M70.4375 137.361H80.4375V142.361" fill="#F7D116" />
<path d="M79.9473 130.451L76.8571 139.961L81.6124 141.506" fill="#F7D116" />
<path d="M79.9473 130.451L83.0374 139.961L78.2822 141.506" fill="#F7D116" />
<path d="M162.768 173.541L159.677 164.03L154.922 165.575" fill="#F7D116" />
<path d="M162.768 173.541L154.677 167.663L157.616 163.618" fill="#F7D116" />
<path d="M151.012 173.541L159.102 167.663L156.163 163.618" fill="#F7D116" />
<path d="M151.012 173.541L154.102 164.03L158.857 165.576" fill="#F7D116" />
<path d="M147.379 162.36L155.469 168.238L158.408 164.193" fill="#F7D116" />
<path d="M147.379 162.36H157.379V167.36" fill="#F7D116" />
<path d="M156.889 155.451L153.799 164.961L158.554 166.506" fill="#F7D116" />
<path d="M156.889 155.451L159.979 164.961L155.224 166.506" fill="#F7D116" />
<path d="M166.4 162.36H156.4V167.36" fill="#F7D116" />
<path d="M166.4 162.36L158.31 168.238L155.371 164.193" fill="#F7D116" />
<path d="M103.989 92.6387L100.899 83.1281L96.1438 84.6732" fill="#F7D116" />
<path d="M103.989 92.6387L95.8991 86.7608L98.838 82.7157" fill="#F7D116" />
<path d="M92.2334 92.6392L100.324 86.7613L97.3846 82.7162" fill="#F7D116" />
<path d="M92.2334 92.6392L95.3236 83.1286L100.079 84.6737" fill="#F7D116" />
<path d="M88.6006 81.4585L96.6908 87.3363L99.6297 83.2913" fill="#F7D116" />
<path d="M88.6006 81.4585H98.6006V86.4585" fill="#F7D116" />
<path d="M98.1104 74.5488L95.0202 84.0594L99.7755 85.6045" fill="#F7D116" />
<path d="M98.1104 74.5488L101.201 84.0594L96.4452 85.6045" fill="#F7D116" />
<path d="M107.622 81.4585H97.6221V86.4585" fill="#F7D116" />
<path d="M107.622 81.4585L99.5319 87.3363L96.593 83.2913" fill="#F7D116" />
<path d="M92.2334 173.542L100.324 167.664L97.3846 163.619" fill="#F7D116" />
<path d="M92.2334 173.542L95.3236 164.031L100.079 165.576" fill="#F7D116" />
<path d="M88.6006 162.361L96.6908 168.239L99.6297 164.194" fill="#F7D116" />
<path d="M88.6006 162.361H98.6006V167.361" fill="#F7D116" />
<path d="M98.1104 155.451L95.0202 164.962L99.7755 166.507" fill="#F7D116" />
<path d="M98.1104 155.451L101.201 164.962L96.4452 166.507" fill="#F7D116" />
<path d="M107.622 162.361H97.6221V167.361" fill="#F7D116" />
<path d="M107.622 162.361L99.5319 168.239L96.593 164.194" fill="#F7D116" />
<path d="M103.989 173.541L100.899 164.03L96.1438 165.576" fill="#F7D116" />
<path d="M103.989 173.541L95.8991 167.663L98.838 163.618" fill="#F7D116" />
<path d="M151.012 92.6396L159.102 86.7618L156.163 82.7167" fill="#F7D116" />
<path d="M151.012 92.6396L154.102 83.1291L158.857 84.6742" fill="#F7D116" />
<path d="M147.379 81.459L155.469 87.3368L158.408 83.2918" fill="#F7D116" />
<path d="M147.379 81.459H157.379V86.459" fill="#F7D116" />
<path d="M156.889 74.5493L153.799 84.0599L158.554 85.605" fill="#F7D116" />
<path d="M156.889 74.5493L159.979 84.0599L155.224 85.605" fill="#F7D116" />
<path d="M166.4 81.459H156.4V86.459" fill="#F7D116" />
<path d="M166.4 81.459L158.31 87.3368L155.371 83.2918" fill="#F7D116" />
<path d="M162.768 92.6392L159.677 83.1286L154.922 84.6737" fill="#F7D116" />
<path d="M162.768 92.6392L154.677 86.7613L157.616 82.7162" fill="#F7D116" />
<path d="M70.4375 106.459L78.5277 112.337L81.4666 108.292" fill="#F7D116" />
<path d="M70.4375 106.459H80.4375V111.459" fill="#F7D116" />
<path d="M79.9473 99.5488L76.8571 109.059L81.6124 110.604" fill="#F7D116" />
<path d="M79.9473 99.5488L83.0374 109.059L78.2822 110.604" fill="#F7D116" />
<path d="M89.458 106.458H79.458V111.458" fill="#F7D116" />
<path d="M89.458 106.458L81.3678 112.336L78.4289 108.291" fill="#F7D116" />
<path d="M85.8262 117.639L82.736 108.129L77.9807 109.674" fill="#F7D116" />
<path d="M85.8262 117.639L77.736 111.761L80.6749 107.716" fill="#F7D116" />
<path d="M74.0703 117.639L82.1605 111.761L79.2216 107.716" fill="#F7D116" />
<path d="M74.0703 117.639L77.1605 108.129L81.9158 109.674" fill="#F7D116" />
<path d="M165.543 137.361L173.633 143.239L176.572 139.194" fill="#F7D116" />
<path d="M165.543 137.361H175.543V142.361" fill="#F7D116" />
<path d="M175.053 130.451L171.963 139.961L176.718 141.506" fill="#F7D116" />
<path d="M175.053 130.451L178.143 139.961L173.388 141.506" fill="#F7D116" />
<path d="M184.563 137.36H174.563V142.36" fill="#F7D116" />
<path d="M184.563 137.36L176.473 143.238L173.534 139.193" fill="#F7D116" />
<path d="M180.932 148.541L177.841 139.03L173.086 140.575" fill="#F7D116" />
<path d="M180.932 148.541L172.841 142.663L175.78 138.618" fill="#F7D116" />
<path d="M169.176 148.541L177.266 142.663L174.327 138.618" fill="#F7D116" />
<path d="M169.176 148.541L172.266 139.03L177.021 140.576" fill="#F7D116" />
</g></svg>