<svg xmlns="http://www.w3.org/2000/svg" viewBox="0 0 300 200">
    <path d="M179.248 87.5245C178.841 87.3092 178.383 86.9639 178.23 86.7552C178.001 86.4355 178.134 86.4223 179.079 86.6793C180.771 87.1391 181.863 86.9588 182.946 86.042L183.901 85.2369L185.025 85.8092C185.644 86.1216 186.301 86.3384 186.491 86.288C186.978 86.1596 187.987 84.8647 187.954 84.4165C187.915 83.8617 188.383 84.0019 188.608 84.6092C189.057 85.799 188.404 87.1654 187.247 87.469C186.683 87.615 186.161 87.5617 185.305 87.2647C184.256 86.8982 184.076 86.9041 183.55 87.307C182.369 88.2121 180.725 88.296 179.248 87.526L179.248 87.5245ZM183.434 83.6982C183.023 83.1749 182.529 81.199 182.689 80.7143C182.829 80.2939 182.981 80.2033 183.356 80.3296C184.026 80.5391 184.181 81.0012 184.081 82.5661C184.003 83.8413 183.814 84.1763 183.434 83.6975L183.434 83.6982ZM134.152 82.2851C134.017 83.234 135.849 85.6194 136.676 86.0501C136.114 86.3019 135.415 86.1873 134.899 86.4705C132.018 89.3523 121.493 99.6136 119.571 102.066C125.264 102.179 131.577 101.989 136.914 101.745C136.909 97.8763 140.577 97.6778 143.031 96.269C144.294 98.2581 147.465 98.1055 147.862 101.099L147.869 113.979H99.2294C98.374 117.757 94.9637 120.64 90.2119 119.454C91.682 117.918 94.1572 117.39 95.044 115.268C95.7915 110.622 93.5506 107.753 92.1024 105.118C94.4995 104.246 94.863 104.027 97.2995 102.39C95.5886 107.587 101.752 107.016 106.316 106.897C106.462 105.133 106.389 103.051 105.027 102.792C106.776 102.157 107.067 101.94 109.859 99.572V106.574L143.538 106.501C143.538 104.31 144.118 100.79 142.385 100.79C140.728 100.79 142.307 105.296 141.02 105.296H115.013L114.996 100.825C116.091 99.7303 115.967 99.8179 123.498 92.2873C124.248 91.5355 129.532 86.7632 134.155 82.2778L134.152 82.2851ZM199.159 82.0924C200.975 83.0705 202.413 84.4282 204.635 84.9917C204.377 85.9114 203.558 86.2763 203.343 87.245V106.88C205.826 107.427 206.349 106.02 207.531 105.27C207.853 108.414 209.856 111.497 209.785 113.957H199.156L199.158 82.0778L199.159 82.0924ZM184.99 92.6121L188.856 89.2231V106.365L191.64 106.36L191.553 87.1355C192.683 86.0041 194.897 84.3617 195.45 83.2245V113.925L171.039 113.934C170.679 107.562 170.618 100.963 178.046 102.382V99.7814C177.827 99.3435 177.413 99.8887 177.318 99.3106C178.497 98.1303 178.897 97.8289 182.09 95.0391L182.148 106.353L184.964 106.356C184.964 106.357 184.99 93.0522 184.99 92.6121ZM175.828 106.19C176.351 106.975 178.13 106.961 178.047 105.639C177.755 104.549 175.407 104.965 175.828 106.19Z" fill="#007A3D"/>
    <path d="M105.161 119.081C105.985 119.081 106.652 118.414 106.652 117.591C106.652 116.768 105.985 116.1 105.161 116.1C104.338 116.1 103.671 116.768 103.671 117.591C103.671 118.414 104.338 119.081 105.161 119.081Z" fill="#007A3D"/>
    <path d="M151.164 82.1245C152.98 83.1026 154.417 84.4529 156.639 85.0223C156.382 85.942 155.562 86.307 155.349 87.2756V106.918C157.831 107.465 158.354 106.057 159.536 105.308C159.857 108.452 161.861 111.532 161.79 113.994H151.162L151.164 82.1157V82.1245Z" fill="#007A3D"/>
</svg>