<svg xmlns="http://www.w3.org/2000/svg" viewBox="0 0 400 200"><g><path d="M58.8248 13.125L69.9998 -21.25L81.1748 13.125L51.9248 -8.125H88.0748L58.8248 13.125Z" fill="white" />
<path d="M83.8248 38.125L94.9998 3.75L106.175 38.125L76.9248 16.875H113.075L83.8248 38.125Z" fill="white" />
<path d="M108.825 63.125L120 28.75L131.175 63.125L101.925 41.875H138.075L108.825 63.125Z" fill="white" />
<path d="M133.825 88.125L145 53.75L156.175 88.125L126.925 66.875H163.075L133.825 88.125Z" fill="white" />
<path d="M158.825 113.125L170 78.75L181.175 113.125L151.925 91.875H188.075L158.825 113.125Z" fill="white" />
<path d="M183.825 138.125L195 103.75L206.175 138.125L176.925 116.875H213.075L183.825 138.125Z" fill="white" />
<path d="M208.825 163.125L220 128.75L231.175 163.125L201.925 141.875H238.075L208.825 163.125Z" fill="white" />
<path d="M233.825 188.125L245 153.75L256.175 188.125L226.925 166.875H263.075L233.825 188.125Z" fill="white" />
<path d="M258.825 213.125L270 178.75L281.175 213.125L251.925 191.875H288.075L258.825 213.125Z" fill="white" />
</g></svg>