<svg xmlns="http://www.w3.org/2000/svg" viewBox="0 0 267 200">
<path d="M165.099 58.1091C163.13 60.6528 158.469 55.55 152.886 55.4334C147.302 55.317 143.347 60.784 141.719 62.6452C140.091 64.5066 134.856 74.2771 134.973 75.324C135.089 76.3709 138.23 72.4163 139.393 71.7184C139.509 73.1143 138.113 74.7427 138.462 75.208C138.811 75.6733 142.533 72.4163 143.813 72.3C144.162 73.2306 143.115 74.1611 143.464 75.557C143.929 76.0222 146.023 73.2306 147.419 72.649C147.651 73.6959 146.139 75.6733 146.954 76.9528C147.535 77.0688 151.024 72.9979 152.188 72.5327C153.351 72.067 151.606 76.3709 152.188 76.7202C153.235 76.0222 156.492 72.2997 157.539 71.8347C158.585 71.3695 157.423 76.6038 157.888 76.6038C159.167 75.6733 162.424 71.2531 162.773 70.5552C163.122 69.8573 162.424 77.3018 166.03 81.2566C169.636 85.2115 175.103 89.7479 175.684 89.7479C176.382 88.4684 175.452 85.7931 176.033 85.9094C177.662 87.6542 180.686 90.2132 181.384 90.2132C182.082 90.2132 180.919 87.4215 181.849 87.4215C183.71 89.1663 189.061 96.0292 199.53 99.1698C198.832 97.1924 197.319 95.4476 197.204 94.517C197.901 94.6334 200.344 95.7969 200.809 95.6802C201.275 95.5636 195.691 88.7011 196.04 87.7705C197.32 87.6542 197.901 88.4684 198.367 87.8865C197.785 86.9559 192.9 81.4893 192.9 80.2094C192.9 78.9299 194.412 80.442 194.877 80.2094C195.342 79.9768 193.016 75.0913 193.481 74.5101C193.947 73.9285 199.065 77.6507 200.344 77.6507C201.624 77.6507 200.693 73.1143 201.275 72.8813C201.856 72.6486 206.16 75.324 207.091 75.324C208.021 75.324 207.905 73.3465 208.254 73.5792C208.603 73.8118 218.723 83.932 215.233 95.7966C211.743 104.288 204.765 108.824 194.528 105.102C195.11 106.033 200.577 110.569 206.509 108.941C212.441 107.312 219.653 102.659 218.839 91.0275C218.025 79.3955 214.186 77.767 213.605 76.0222C213.023 74.2775 214.535 76.4875 215.815 76.9528C217.094 77.4184 215.582 74.5101 215.233 73.2306C214.884 71.9507 219.072 75.9059 220.118 76.2549C221.165 76.6038 217.676 66.7167 216.629 66.0188C215.582 65.3209 217.676 66.2514 218.374 66.484C219.072 66.7167 211.976 55.6663 210.464 55.6663C208.952 55.6663 211.743 55.0844 212.558 55.0844C213.372 55.0844 204.416 47.8726 202.903 47.8726C201.391 47.8726 206.16 46.0115 206.625 45.8952C207.44 46.0111 196.273 39.9629 186.269 46.0111C185.688 45.5465 190.981 41.8823 191.155 40.3122C191.213 39.9049 189.41 39.0323 189.294 38.5674C189.177 38.1021 192.085 36.7063 192.202 35.6594C191.504 34.7288 190.224 35.0778 189.526 34.8452C189.352 33.9729 191.969 31.8209 191.737 30.8903C191.562 30.367 189.643 30.1924 189.177 30.5417C188.712 30.8906 190.399 28.099 190.108 27.2847C189.875 26.9358 188.945 27.1684 188.014 27.4011C187.433 27.2847 191.039 22.283 190.341 21.5851C189.643 20.8872 179.872 26.7028 176.266 33.2167C172.66 39.7306 175.452 44.965 174.986 47.175C174.521 49.3851 173.939 51.5952 172.427 51.5952C170.915 51.5952 167.426 49.2688 166.263 48.1056C165.099 46.9424 164.867 46.1281 163.238 45.6629C161.61 45.1976 157.888 46.5934 156.492 46.7097C155.096 46.8261 149.629 45.6629 149.28 46.0118C148.931 46.3608 154.631 48.4545 155.91 49.1525C157.19 49.8504 157.306 50.7809 158.236 51.3625C159.167 51.9438 167.891 54.5031 165.099 58.1091ZM199.181 74.5101C201.973 77.3018 220.816 89.8643 220.816 105.218C220.816 120.573 207.091 120.107 203.136 119.642C207.556 123.364 224.306 122.666 224.306 105.218C224.306 89.8643 202.671 74.5101 199.879 73.1143C197.087 71.7184 196.389 71.7184 199.181 74.5101Z" fill="#FCD116" />
</svg>