<?xml version='1.0' encoding='us-ascii'?>
<svg xmlns="http://www.w3.org/2000/svg" width="300" height="200" viewBox="0 0 300 200" fill="none">
<g clip-path="url(#clip0_5_4107)">
<path d="M7.40723 27.6094V42.7617H22.5589C22.5589 45.2864 25.0842 47.8121 27.6096 47.8121V62.9634H42.7602V47.8121C45.2856 47.8121 47.8109 45.2864 47.8109 42.7617H62.9626V27.6094H47.8109C47.8109 25.0847 45.2856 22.559 42.7602 22.559V7.40771H27.6096V22.559C25.0842 22.559 22.5589 25.0847 22.5589 27.6094H7.40723Z" fill="#E60D2E" />
<path d="M8.41797 28.6191V41.7515H23.5686C23.5686 44.2761 26.094 46.8015 28.6193 46.8015V61.9528H41.75V46.8015C44.2753 46.8015 46.8006 44.2758 46.8006 41.7515H61.9513V28.6191H46.8006C46.8006 26.0945 44.2753 23.5688 41.75 23.5688V8.41748H28.6193V23.5688C26.094 23.5688 23.5686 26.0945 23.5686 28.6191H8.41797Z" fill="#96877D" />
<path d="M8.92285 29.1242V41.2455H24.0735C24.0735 43.7702 26.5989 46.2965 29.1242 46.2965V61.4478H41.2449V46.2965C43.7702 46.2965 46.2955 43.7699 46.2955 41.2455H61.4462V29.1242H46.2955C46.2955 26.5995 43.7702 24.0742 41.2449 24.0742V8.92285H29.1242V24.0742C26.5989 24.0742 24.0735 26.5999 24.0735 29.1242H8.92285Z" fill="#CCCCCC" />
<path d="M28.1787 23.8938C29.0664 24.7815 28.8264 26.4605 27.643 27.6438C26.4597 28.8271 24.7807 29.0671 23.893 28.1795C23.0057 27.2921 23.2457 25.6128 24.429 24.4295C25.6124 23.2461 27.2914 23.0061 28.1787 23.8938Z" fill="#96877D" />
<path d="M23.7148 26.5719L24.0718 26.2146L25.5005 26.9286L24.7862 25.5003L25.1432 25.1429L26.5718 27.9996L23.7148 26.5713V26.5719ZM25.8578 24.4293L26.2148 24.0723L28.3578 26.2149L28.0005 26.5719L25.8578 24.4293Z" fill="#D0D0D0" />
<path d="M46.4768 28.1792C45.5892 29.0669 43.9102 28.8269 42.7268 27.6435C41.5435 26.4602 41.3035 24.7812 42.1911 23.8935C43.0785 23.0062 44.7578 23.2462 45.9412 24.4295C47.1245 25.6129 47.3645 27.2919 46.4768 28.1792Z" fill="#96877D" />
<path d="M43.7992 23.7148L44.1565 24.0718L43.4425 25.5005L44.8708 24.7862L45.2282 25.1432L42.3715 26.5718L43.7998 23.7148H43.7992ZM45.9418 25.8578L46.2988 26.2148L44.1562 28.3578L43.7992 28.0005L45.9418 25.8578Z" fill="#D0D0D0" />
<path d="M42.1914 46.4778C41.3037 45.5901 41.5437 43.9111 42.7271 42.7278C43.9104 41.5445 45.5894 41.3045 46.4771 42.1921C47.3644 43.0795 47.1244 44.7588 45.9411 45.9421C44.7577 47.1255 43.0787 47.3655 42.1914 46.4778Z" fill="#96877D" />
<path d="M46.6553 43.7997L46.2983 44.157L44.8696 43.443L45.5839 44.8713L45.2269 45.2287L43.7983 42.372L46.6553 43.8003V43.7997ZM44.5123 45.9423L44.1553 46.2993L42.0123 44.1567L42.3696 43.7997L44.5123 45.9423Z" fill="#D0D0D0" />
<path d="M23.8933 42.1919C24.781 41.3042 26.46 41.5442 27.6433 42.7276C28.8266 43.9109 29.0666 45.5899 28.179 46.4776C27.2916 47.3649 25.6123 47.1249 24.429 45.9416C23.2456 44.7582 23.0056 43.0792 23.8933 42.1919Z" fill="#96877D" />
<path d="M26.571 46.6562L26.2136 46.2993L26.9276 44.8706L25.4993 45.5849L25.142 45.2279L27.9986 43.7993L26.5703 46.6562H26.571ZM24.4283 44.5132L24.0713 44.1563L26.214 42.0132L26.571 42.3706L24.4283 44.5132Z" fill="#D0D0D0" />
<path d="M35.1855 45.7928C41.0437 45.7928 45.7928 41.0437 45.7928 35.1855C45.7928 29.3272 41.0437 24.5781 35.1855 24.5781C29.3272 24.5781 24.5781 29.3272 24.5781 35.1855C24.5781 41.0437 29.3272 45.7928 35.1855 45.7928Z" stroke="#96877D" stroke-width="0.17133333333333334" />
<path d="M35.1852 43.2673C39.6486 43.2673 43.2669 39.6491 43.2669 35.1857C43.2669 30.7223 39.6486 27.104 35.1852 27.104C30.7218 27.104 27.1035 30.7223 27.1035 35.1857C27.1035 39.6491 30.7218 43.2673 35.1852 43.2673Z" stroke="#96877D" stroke-width="0.17133333333333334" />
<path d="M31.1446 44.2751C31.4236 44.2751 31.6496 44.049 31.6496 43.7701C31.6496 43.4912 31.4236 43.2651 31.1446 43.2651C30.8657 43.2651 30.6396 43.4912 30.6396 43.7701C30.6396 44.049 30.8657 44.2751 31.1446 44.2751Z" fill="black" />
<path d="M39.2247 44.2751C39.5036 44.2751 39.7297 44.049 39.7297 43.7701C39.7297 43.4912 39.5036 43.2651 39.2247 43.2651C38.9458 43.2651 38.7197 43.4912 38.7197 43.7701C38.7197 44.049 38.9458 44.2751 39.2247 44.2751Z" fill="black" />
<path d="M34.8499 43.77V44.2967H34.1765C33.5032 44.2967 33.5032 44.8233 34.1765 44.8233H34.8499V45.35C34.8522 45.8953 35.4375 45.9617 35.4805 45.3957L35.5232 44.8263H36.1965C36.8699 44.8263 36.8699 44.2997 36.1965 44.2997H35.5232V43.773C35.5232 43.2463 34.8499 43.2463 34.8499 43.773V43.77ZM25.3179 37.8L26.0125 37.6343L25.9359 37.3127C25.9182 37.2387 25.8892 37.1887 25.8482 37.162C25.8075 37.1353 25.7375 37.128 25.6382 37.1397L25.6269 37.0913L26.2249 36.949L26.2365 36.997C26.1679 37.0143 26.1199 37.0353 26.0915 37.06C26.0647 37.0828 26.0454 37.1133 26.0362 37.1473C26.0272 37.1813 26.0295 37.2277 26.0439 37.2867L26.1205 37.6087L26.6755 37.4763C26.7652 37.455 26.8229 37.4353 26.8489 37.417C26.8706 37.3999 26.8858 37.3759 26.8919 37.349C26.9036 37.3075 26.9045 37.2636 26.8945 37.2217L26.8792 37.158L26.9275 37.1463L27.1082 37.9047L27.0602 37.9163L27.0452 37.8537C27.0279 37.7807 26.9939 37.7327 26.9435 37.71C26.9105 37.6957 26.8412 37.7013 26.7352 37.7267L25.5939 37.9987C25.5042 38.02 25.4465 38.0397 25.4205 38.0577C25.399 38.0743 25.3837 38.0978 25.3772 38.1243C25.3652 38.1659 25.3643 38.2099 25.3745 38.252L25.3895 38.3143L25.3412 38.326L25.0279 37.0113L25.4122 36.9017L25.4229 36.9473C25.3459 36.9897 25.2915 37.0303 25.2599 37.0693C25.2291 37.1069 25.2091 37.1522 25.2022 37.2003C25.1955 37.2483 25.2029 37.3183 25.2249 37.4103L25.3179 37.8ZM24.8705 34.666C24.8839 34.4307 24.9845 34.2317 25.1732 34.0693C25.3615 33.9067 25.5899 33.833 25.8572 33.848C26.1325 33.8637 26.3565 33.9633 26.5285 34.1477C26.7005 34.3317 26.7799 34.5473 26.7659 34.7943C26.7519 35.044 26.6512 35.2487 26.4642 35.4087C26.2772 35.5687 26.0429 35.6403 25.7609 35.6243C25.4732 35.6083 25.2435 35.497 25.0729 35.2907C24.9264 35.1169 24.8537 34.8927 24.8705 34.666ZM24.9665 34.697C24.9575 34.8593 25.0105 34.9927 25.1252 35.0977C25.2682 35.2283 25.4842 35.3017 25.7729 35.3177C26.0689 35.3343 26.3002 35.2843 26.4672 35.1663C26.5282 35.1243 26.5785 35.0685 26.6138 35.0034C26.6491 34.9383 26.6686 34.8657 26.6705 34.7917C26.6766 34.7108 26.6639 34.6297 26.6335 34.5545C26.6031 34.4793 26.5558 34.4122 26.4952 34.3583C26.3685 34.24 26.1619 34.1727 25.8759 34.1563C25.5659 34.139 25.3309 34.187 25.1715 34.3007C25.0449 34.3917 24.9765 34.524 24.9665 34.697ZM27.5979 31.38L27.4255 31.8333L26.4129 32.1057C26.3971 32.1526 26.3801 32.1992 26.3619 32.2453C26.3565 32.2581 26.351 32.2707 26.3452 32.2833L26.8385 32.471C26.9452 32.5117 27.0162 32.5253 27.0509 32.5117C27.0999 32.494 27.1362 32.4533 27.1605 32.39L27.1855 32.3237L27.2322 32.3413L26.9552 33.0687L26.9085 33.051L26.9329 32.9873C26.9602 32.9153 26.9565 32.8553 26.9215 32.8067C26.9022 32.7793 26.8442 32.747 26.7475 32.71L25.6509 32.2927C25.5442 32.252 25.4732 32.2383 25.4385 32.252C25.3892 32.2707 25.3525 32.312 25.3282 32.3763L25.3039 32.44L25.2572 32.4223L25.4929 31.804C25.5615 31.624 25.6252 31.4957 25.6842 31.4203C25.7429 31.3447 25.8189 31.2903 25.9122 31.2577C26.0055 31.225 26.1009 31.227 26.1989 31.2643C26.3029 31.304 26.3805 31.3723 26.4315 31.4697C26.4822 31.567 26.4965 31.693 26.4739 31.8477L27.0942 31.6827C27.2365 31.645 27.3372 31.6043 27.3959 31.561C27.4545 31.5173 27.5065 31.451 27.5515 31.3623L27.5979 31.38ZM26.2665 32.2533C26.2752 32.2298 26.2845 32.2066 26.2945 32.1837C26.3559 32.0217 26.3675 31.8863 26.3285 31.7773C26.3112 31.7254 26.2823 31.6782 26.2441 31.6391C26.2058 31.6001 26.1591 31.5703 26.1075 31.552C26.0015 31.512 25.9029 31.512 25.8112 31.5533C25.7195 31.5943 25.6529 31.6697 25.6112 31.779C25.5929 31.8273 25.5759 31.8957 25.5602 31.9843L26.2665 32.2533ZM30.1319 26.2357L30.4829 26.6913L30.4435 26.717C30.3262 26.6227 30.2162 26.5657 30.1139 26.5457C29.9665 26.5167 29.8215 26.5483 29.6792 26.6407C29.4849 26.7663 29.3869 26.9387 29.3852 27.158C29.3845 27.3427 29.4422 27.5243 29.5585 27.7037C29.6525 27.849 29.7665 27.9637 29.9005 28.047C30.0342 28.1303 30.1649 28.1703 30.2922 28.1673C30.4195 28.1643 30.5309 28.1317 30.6269 28.0697C30.7377 27.9985 30.8275 27.8989 30.8869 27.7813L30.6015 27.3407C30.5522 27.264 30.5139 27.2177 30.4869 27.2017C30.4602 27.1857 30.4291 27.179 30.3982 27.1827C30.3659 27.186 30.3189 27.2077 30.2572 27.2477L30.2295 27.2047L30.8199 26.8223L30.8475 26.8653L30.8195 26.8833C30.7612 26.9213 30.7335 26.9667 30.7372 27.02C30.7402 27.0573 30.7679 27.1167 30.8209 27.1987L31.1232 27.6653C31.0712 27.7617 31.0077 27.8515 30.9342 27.9327C30.8642 28.009 30.7779 28.0803 30.6752 28.1467C30.3809 28.3373 30.0959 28.388 29.8205 28.298C29.6178 28.2335 29.4443 28.0994 29.3309 27.9193C29.2439 27.7847 29.1913 27.6307 29.1779 27.471C29.158 27.285 29.1915 27.0972 29.2745 26.9297C29.3439 26.7923 29.4545 26.6743 29.6069 26.5757C29.6622 26.5397 29.7155 26.5117 29.7669 26.4913C29.8179 26.4707 29.8949 26.449 29.9982 26.426C30.0327 26.4204 30.0663 26.4099 30.0979 26.395C30.105 26.3902 30.1109 26.3838 30.115 26.3762C30.1192 26.3687 30.1214 26.3603 30.1215 26.3517C30.1232 26.3317 30.1125 26.3023 30.0902 26.2627L30.1319 26.2357ZM33.0895 26.4403L32.4099 26.6213L32.3645 26.93C32.3532 27.006 32.3522 27.0607 32.3612 27.0943C32.3682 27.121 32.3872 27.141 32.4179 27.1547C32.4485 27.1683 32.5075 27.1667 32.5935 27.1503L32.6062 27.1983L32.0535 27.345L32.0409 27.2973C32.1109 27.265 32.1539 27.2353 32.1699 27.209C32.2029 27.1557 32.2292 27.059 32.2489 26.9177L32.4822 25.3087L32.5275 25.2967L33.5269 26.5943C33.6075 26.6987 33.6722 26.763 33.7219 26.7873C33.7712 26.8117 33.8322 26.8163 33.9052 26.8017L33.9179 26.8497L33.2252 27.0337L33.2125 26.9857C33.2815 26.9637 33.3259 26.9397 33.3449 26.913C33.3541 26.9016 33.3605 26.8882 33.3635 26.8739C33.3666 26.8596 33.3663 26.8448 33.3625 26.8307C33.3525 26.793 33.3192 26.7373 33.2629 26.6647L33.0895 26.4403ZM33.0279 26.3543L32.5412 25.724L32.4245 26.5147L33.0279 26.3543ZM36.2349 26.345L36.2785 26.356L36.1042 26.8427L34.6989 26.7877L34.7009 26.7383L34.7689 26.741C34.8455 26.744 34.9015 26.721 34.9365 26.6723C34.9565 26.6447 34.9682 26.579 34.9725 26.4757L35.0179 25.304C35.0222 25.1907 35.0125 25.1193 34.9889 25.09C34.9555 25.0493 34.9045 25.0277 34.8355 25.025L34.7675 25.0223L34.7695 24.9727L35.5915 25.0047L35.5895 25.0543C35.4929 25.0497 35.4252 25.056 35.3855 25.073C35.3513 25.0858 35.3223 25.1098 35.3032 25.141C35.2879 25.169 35.2779 25.237 35.2739 25.345L35.2295 26.4853C35.2262 26.5593 35.2319 26.6107 35.2449 26.6387C35.2549 26.658 35.2709 26.6723 35.2929 26.682C35.3149 26.692 35.3842 26.6993 35.5012 26.7037L35.6335 26.709C35.7729 26.7143 35.8709 26.708 35.9279 26.6897C35.9849 26.6713 36.0379 26.6367 36.0862 26.5863C36.1345 26.536 36.1842 26.4553 36.2349 26.345ZM38.6539 26.9923L38.6929 27.015L38.3905 27.4343L37.0552 26.9927L37.0709 26.9457L37.1355 26.967C37.2089 26.991 37.2685 26.9847 37.3155 26.9477C37.3422 26.9263 37.3722 26.8663 37.4045 26.768L37.7725 25.6553C37.8082 25.5477 37.8185 25.4763 37.8039 25.4413C37.7832 25.393 37.7402 25.358 37.6749 25.3367L37.6099 25.315L37.6255 25.268L38.4065 25.5263L38.3909 25.573C38.2995 25.5423 38.2325 25.5297 38.1899 25.535C38.1534 25.5378 38.1189 25.5527 38.0919 25.5773C38.0692 25.6 38.0412 25.6627 38.0072 25.7653L37.6489 26.8487C37.6255 26.9193 37.6162 26.97 37.6212 27.0007C37.6258 27.0224 37.6378 27.0418 37.6552 27.0557C37.6735 27.071 37.7385 27.0973 37.8495 27.134L37.9752 27.1757C38.1075 27.219 38.2035 27.2403 38.2635 27.2383C38.3235 27.2367 38.3835 27.2183 38.4442 27.183C38.5045 27.148 38.5742 27.0843 38.6539 26.9923ZM40.6035 28.0247L40.0295 27.6183L39.7632 27.781C39.6979 27.821 39.6549 27.8553 39.6349 27.8837C39.6189 27.9063 39.6155 27.9337 39.6249 27.9663C39.6342 27.9987 39.6729 28.0427 39.7405 28.0983L39.7119 28.1387L39.2452 27.8083L39.2739 27.7677C39.3435 27.801 39.3939 27.815 39.4242 27.8103C39.4862 27.8017 39.5775 27.7597 39.6985 27.6847L41.0839 26.8333L41.1222 26.8607L40.7655 28.4593C40.7369 28.5877 40.7289 28.6787 40.7419 28.7323C40.7549 28.7857 40.7902 28.8357 40.8485 28.8823L40.8195 28.9227L40.2345 28.5087L40.2632 28.4683C40.3245 28.507 40.3712 28.5253 40.4039 28.5233C40.4185 28.5231 40.4329 28.5195 40.4459 28.5127C40.4588 28.506 40.47 28.4962 40.4785 28.4843C40.5012 28.4523 40.5225 28.391 40.5422 28.3013L40.6035 28.0247ZM40.6302 27.922L40.8029 27.145L40.1205 27.5617L40.6302 27.922ZM42.7845 28.319L43.0779 28.715L42.6445 30.4183L43.4862 29.795C43.5762 29.7283 43.6245 29.6767 43.6319 29.64C43.6422 29.5913 43.6262 29.538 43.5839 29.4807L43.5462 29.43L43.5862 29.4007L43.9629 29.9087L43.9229 29.938L43.8845 29.8863C43.8389 29.8247 43.7879 29.7947 43.7312 29.7963C43.6965 29.798 43.6382 29.8287 43.5565 29.8897L42.3265 30.8013L42.2975 30.7623L42.7599 28.929L41.8612 29.5953C41.7712 29.662 41.7225 29.713 41.7145 29.7487C41.7045 29.7987 41.7209 29.8517 41.7629 29.9083L41.8012 29.96L41.7612 29.9893L41.3849 29.4813L41.4249 29.452L41.4622 29.5023C41.5085 29.565 41.5599 29.5953 41.6162 29.5933C41.6509 29.592 41.7092 29.5613 41.7909 29.5007L42.8059 28.7483C42.8239 28.6693 42.8325 28.613 42.8325 28.5793C42.8319 28.546 42.8225 28.5027 42.8052 28.4503C42.7898 28.4138 42.7694 28.3796 42.7445 28.3487L42.7845 28.319ZM45.0745 32.5397L44.6799 32.7007L44.6632 32.6527C44.7302 32.6183 44.7765 32.588 44.8012 32.5613C44.8387 32.5221 44.8634 32.4725 44.8722 32.419C44.8787 32.3567 44.8699 32.2938 44.8465 32.2357L44.7609 31.9943L43.4525 32.457C43.3475 32.4943 43.2859 32.529 43.2679 32.561C43.2435 32.6053 43.2435 32.661 43.2672 32.7277L43.2879 32.7867L43.2412 32.8033L42.9845 32.0773L43.0312 32.0607L43.0525 32.1213C43.0782 32.1937 43.1182 32.2373 43.1725 32.252C43.2062 32.261 43.2709 32.2487 43.3669 32.2147L44.6752 31.7517L44.6025 31.546C44.5742 31.466 44.5482 31.411 44.5245 31.3817C44.4902 31.3416 44.4439 31.3136 44.3925 31.3017C44.3359 31.2867 44.2682 31.29 44.1885 31.3117L44.1719 31.2637L44.5802 31.1417L45.0749 32.5397H45.0745ZM43.6369 35.7617L43.6119 35.2773L44.4279 34.6193C44.4233 34.57 44.42 34.5205 44.4179 34.471V34.4293L43.8912 34.4567C43.7769 34.4627 43.7065 34.4787 43.6802 34.5053C43.6425 34.541 43.6255 34.593 43.6292 34.6607L43.6329 34.7317L43.5835 34.7343L43.5429 33.957L43.5925 33.9543L43.5959 34.0227C43.6002 34.0993 43.6279 34.1527 43.6792 34.1833C43.7082 34.2007 43.7742 34.2067 43.8775 34.2013L45.0495 34.1403C45.1635 34.1343 45.2339 34.118 45.2602 34.0917C45.2979 34.055 45.3145 34.0023 45.3112 33.9333L45.3075 33.8653L45.3572 33.8627L45.3915 34.5233C45.4015 34.716 45.3949 34.859 45.3715 34.9517C45.3482 35.0447 45.3002 35.125 45.2282 35.1927C45.1562 35.2603 45.0682 35.2967 44.9639 35.3023C44.8569 35.3096 44.7511 35.276 44.6679 35.2083C44.5819 35.14 44.5179 35.0303 44.4762 34.8797L43.9752 35.2813C43.8602 35.373 43.7849 35.4507 43.7485 35.5143C43.7122 35.578 43.6919 35.6593 43.6862 35.759L43.6369 35.7617ZM44.5022 34.425C44.5032 34.4417 44.5035 34.4567 44.5039 34.469L44.5049 34.5C44.5139 34.673 44.5582 34.8013 44.6379 34.8853C44.7172 34.9693 44.8149 35.0083 44.9309 35.002C45.0442 34.9963 45.1342 34.956 45.2015 34.8817C45.2689 34.807 45.2992 34.7113 45.2932 34.5943C45.2874 34.5238 45.2752 34.454 45.2569 34.3857L44.5022 34.425ZM45.0005 38.1617L44.8395 38.7743L44.7915 38.762L44.8005 38.7283C44.8065 38.7057 44.8052 38.6703 44.7965 38.6217C44.7879 38.573 44.7699 38.5267 44.7419 38.4817C44.6987 38.4175 44.6495 38.3577 44.5949 38.303L44.0389 37.7043L43.5982 37.5887C43.4902 37.5603 43.4195 37.5547 43.3865 37.572C43.3415 37.5953 43.3099 37.642 43.2912 37.713L43.2762 37.77L43.2285 37.7577L43.4242 37.011L43.4722 37.0237L43.4555 37.086C43.4362 37.1603 43.4449 37.219 43.4819 37.2617C43.5045 37.2883 43.5652 37.314 43.6635 37.34L44.0792 37.449L44.9419 37.16C45.0432 37.1257 45.1072 37.1013 45.1342 37.0867C45.1609 37.072 45.1982 37.0367 45.2452 36.9807C45.2613 36.9595 45.2725 36.935 45.2779 36.909L45.3255 36.9217L45.1285 37.673L45.0805 37.6607L45.0905 37.6217C45.1013 37.5825 45.1017 37.5413 45.0919 37.502C45.0881 37.4841 45.0793 37.4677 45.0665 37.4547C45.0536 37.4417 45.0374 37.4327 45.0195 37.4287C44.9885 37.4203 44.9255 37.432 44.8305 37.4633L44.1679 37.6813L44.6192 38.168C44.6869 38.2413 44.7405 38.283 44.7802 38.2937C44.8036 38.3002 44.8284 38.2995 44.8514 38.2916C44.8744 38.2838 44.8944 38.2691 44.9089 38.2497C44.9301 38.2194 44.9448 38.1852 44.9522 38.149L45.0005 38.1617Z" fill="black" />
<path d="M40.9498 36.7299C41.1271 36.6849 41.4198 36.7212 41.4198 36.7212C41.4198 36.7212 41.4451 36.8429 41.3681 36.8835C41.4538 36.9329 41.7615 36.9179 41.7615 36.9179C41.7615 36.9179 41.6415 37.0095 41.5818 37.0459C41.6928 37.0565 41.8295 37.1995 41.8295 37.1995C41.8295 37.1995 41.5731 37.2422 41.4621 37.1825C41.5305 37.3192 41.5221 37.4389 41.5221 37.4389C41.5221 37.4389 41.1078 37.3362 40.9585 37.0629M40.2565 36.4965C40.1561 36.7442 39.4198 36.2832 39.4198 36.2832C39.4198 36.2832 39.7441 36.7975 40.2308 36.8552M31.0601 41.2199H39.6858L40.3518 40.6902L39.2418 40.0925L37.5335 39.5119L36.8501 39.1362L35.5865 39.2042L34.5275 39.7679L33.0755 39.9389L32.7338 40.3315L31.6578 40.4172L29.9668 40.3829L32.7851 40.8272L30.4621 40.7072L31.0601 41.2199Z" fill="#96877D" />
<path d="M40.9498 36.7299C41.1271 36.6849 41.4198 36.7212 41.4198 36.7212C41.4198 36.7212 41.4451 36.8429 41.3681 36.8835C41.4538 36.9329 41.7615 36.9179 41.7615 36.9179C41.7615 36.9179 41.6415 37.0095 41.5818 37.0459C41.6928 37.0565 41.8295 37.1995 41.8295 37.1995C41.8295 37.1995 41.5731 37.2422 41.4621 37.1825C41.5305 37.3192 41.5221 37.4389 41.5221 37.4389C41.5221 37.4389 41.1078 37.3362 40.9585 37.0629M40.2565 36.4965C40.1561 36.7442 39.4198 36.2832 39.4198 36.2832C39.4198 36.2832 39.7441 36.7975 40.2308 36.8552M31.0601 41.2199H39.6858L40.3518 40.6902L39.2418 40.0925L37.5335 39.5119L36.8501 39.1362L35.5865 39.2042L34.5275 39.7679L33.0755 39.9389L32.7338 40.3315L31.6578 40.4172L29.9668 40.3829L32.7851 40.8272L30.4621 40.7072L31.0601 41.2199Z" stroke="black" stroke-width="0.06766666666666667" />
<path d="M35.7064 38.7434C34.6261 38.1628 34.3101 39.5934 33.8447 39.9391C34.4724 40.0458 34.9464 39.4564 35.4844 39.1704C35.8924 40.2814 36.5347 39.5461 36.5347 39.5461C36.5347 39.5461 37.2051 40.6094 38.0977 40.1271C38.3411 40.3104 38.6101 40.1438 38.6101 40.1438C38.6101 40.1438 38.9347 40.2038 39.0031 40.0584C39.1737 40.1184 39.3617 39.9051 39.3617 39.9051C39.3617 39.9051 39.7331 39.9091 39.8057 39.7171C40.3567 39.8151 41.0867 38.5898 41.0867 38.5898L41.3087 38.1628L41.6334 38.0944C41.6334 38.0944 41.6547 37.8811 41.4797 37.8894C41.4754 37.7611 41.3644 37.6928 41.2064 37.7184C41.2364 37.6418 41.1211 37.5818 41.1211 37.5818C40.8134 37.6588 40.7964 38.4361 40.7964 38.4361C40.7964 38.4361 40.2584 38.8461 40.0621 38.9484C40.0534 38.5041 39.3104 37.9021 39.4641 37.6161C39.6177 37.3301 40.1004 38.0561 40.5231 37.9234C40.9457 37.7911 41.1534 37.2411 41.1721 36.8134C41.0527 36.5228 40.7621 36.0448 40.7621 36.0448L40.4887 36.0274L40.2497 35.4468C40.2497 35.4468 39.7461 35.7758 39.7544 36.0618C39.7631 36.3478 40.2841 36.5911 40.2841 36.5911C40.2841 36.5911 39.9837 36.7791 39.7034 36.6938C39.6777 36.9838 40.0447 36.9284 40.1814 36.9328C40.2497 37.1421 40.4547 37.2574 40.4547 37.2574C40.4547 37.2574 40.5831 37.5774 40.2497 37.5474C39.9167 37.5178 39.5237 36.7504 39.0541 37.1038C38.5547 37.4794 39.2764 38.1628 39.2764 38.1628C39.2764 38.1628 38.8364 38.3931 38.5761 38.9828C37.5127 38.0858 36.8894 38.5041 35.7064 38.7434Z" fill="#96877D" stroke="black" stroke-width="0.06766666666666667" />
<path d="M34.1535 37.2234C34.5975 37.6418 34.2879 38.3374 34.4609 38.4701C34.6445 38.6111 34.9052 38.4021 34.9052 38.4021C35.3705 38.5258 36.2032 38.2654 36.2032 38.2654C36.5699 38.4704 36.4249 38.1678 36.6472 38.1801C36.8439 38.6838 37.5012 38.5901 37.5012 38.5901C37.5012 38.5901 36.8992 37.9751 36.5279 37.8041C36.2415 37.9751 35.4089 38.0008 35.2639 37.9751C35.1019 37.9464 35.2039 37.7484 35.1272 37.6334C35.4332 37.3354 35.1912 36.5958 35.0245 36.3181C34.3459 35.8661 33.5352 36.6408 34.1535 37.2234ZM31.1999 35.9734C30.6412 36.1244 29.6722 35.2518 29.2192 35.5868C28.7662 35.9218 28.9775 36.7464 29.2792 37.1568C29.5745 37.5584 28.8479 37.7034 28.6515 37.9421C28.4669 38.1664 28.7115 38.4254 28.7115 38.4254L28.9172 38.5581L28.8809 38.8601L28.9895 39.2224C28.9895 39.2224 29.0895 39.3098 29.1225 39.1981C29.2159 39.2918 29.1325 39.5624 29.3642 39.5968C29.2809 39.4234 29.4242 38.9444 29.4242 38.9444C29.4242 38.9444 29.8292 38.9748 29.9319 38.7998C30.0342 38.6244 29.8352 38.2441 29.8352 38.2441H29.9559C29.8199 38.1508 29.7745 37.8698 29.7745 37.8698C29.7745 37.8698 30.3362 37.6914 30.3302 37.2658C30.3242 36.8401 29.4185 36.3871 29.7505 36.1668C30.1189 35.9221 30.7589 36.8008 31.3085 36.3961C31.8525 35.9958 31.5019 36.3841 31.5019 36.3841C31.5019 36.3841 31.7505 35.8248 31.1999 35.9734ZM34.0835 29.9904C33.3362 29.6788 31.8095 29.6594 30.9579 29.2388C30.5842 29.2621 30.4179 29.5571 30.4025 29.6744C30.0119 29.6551 29.7472 30.2701 29.8049 30.3918C29.0939 30.1038 28.7629 31.2288 28.9935 31.4594C28.3869 31.4851 28.4619 32.2601 28.4042 32.4758C28.2099 32.9474 28.4475 33.1064 28.8312 32.9368C28.8889 33.1418 28.8079 33.2568 28.6345 33.2954C29.6872 34.5001 30.2822 32.5544 31.2055 32.5611C32.3582 32.2238 32.8109 31.6558 32.8109 31.6558L33.2635 31.7158L34.0835 29.9904Z" fill="#96877D" stroke="black" stroke-width="0.06766666666666667" />
<path d="M35.0489 30.2297C35.6574 30.2297 36.1506 29.7365 36.1506 29.128C36.1506 28.5196 35.6574 28.0264 35.0489 28.0264C34.4405 28.0264 33.9473 28.5196 33.9473 29.128C33.9473 29.7365 34.4405 30.2297 35.0489 30.2297Z" fill="#96877D" stroke="black" stroke-width="0.06766666666666667" />
<path d="M33.1107 37.8032C32.4273 37.6792 31.296 36.9706 31.1807 36.0439C31.8167 33.5459 35.099 34.8506 35.382 32.9716C35.3097 31.7319 35.532 30.5049 36.2193 29.4679C36.5393 29.0622 36.9537 28.9556 36.9537 28.9556C36.9537 28.9556 37.028 29.2199 36.9197 29.3996C37.4617 29.3396 38.205 29.6429 38.713 29.6729C38.8623 29.9762 38.8497 30.0869 38.8153 30.2706C38.7813 30.4542 38.5763 30.4072 38.5763 30.4072C38.4437 30.5329 38.2843 30.6609 37.9273 30.5952C37.6583 30.8002 37.0903 30.8512 37.0903 30.8512C37.0903 30.8512 38.2773 32.1026 38.081 32.4912C38.3287 32.6062 38.696 33.1572 38.696 33.1572C38.696 33.1572 39.5073 32.7302 39.772 32.3372C40.242 32.3372 41.0103 32.8286 41.3947 32.8839C41.8647 33.2639 42.334 33.6526 42.334 33.6526C42.334 33.6526 41.7747 34.0199 41.5313 33.5329C41.2367 33.5586 40.6003 32.8539 39.7207 33.0719C39.695 33.8532 38.8327 34.4042 38.8327 34.4042C38.8327 34.4042 39.6377 34.2916 40.0793 34.5576C40.4504 34.8653 40.8262 35.1672 41.2067 35.4632L41.8047 36.4879C41.8047 36.4879 41.258 36.5819 41.053 35.8729C40.848 36.4452 40.8397 35.5186 40.0283 35.0872C39.7807 35.1172 39.6567 35.1342 39.4473 34.9679C38.8623 35.1259 38.1707 35.4672 37.3467 35.3779C36.7617 35.5612 36.3343 36.0479 35.741 36.3172C35.1477 36.5862 34.9723 36.4539 34.9723 36.4539L34.494 36.4706C34.425 36.7589 34.464 37.1969 34.204 37.2739C34.3703 37.4529 34.084 38.2172 33.794 38.3496C33.9307 38.8409 34.3307 38.9912 34.7503 39.2379C34.7503 39.2379 35.1217 39.0672 35.365 39.2892C35.6083 39.5112 35.8603 40.1432 35.8603 40.1432C35.8603 40.1432 35.3537 40.1776 35.1943 40.1089C35.0347 40.0406 35.0193 39.8742 34.8357 39.9212C33.6783 38.8919 33.0683 39.3012 32.9567 39.0672C32.8427 38.8272 33.23 38.2006 33.1107 37.8032Z" fill="#96877D" stroke="black" stroke-width="0.06766666666666667" />
<path d="M30.3302 33.2184C30.3906 33.1431 30.8136 33.3031 30.8136 33.3031L31.5862 33.7861L33.1562 34.8007L33.7119 35.6097L32.7096 35.2837L31.3206 34.0881L30.5719 33.6047C30.5719 33.6047 30.2699 33.2941 30.3302 33.2184ZM39.6169 35.7901C39.0746 35.6534 37.7379 37.2761 37.7379 37.2761L38.7459 38.3694C38.7459 38.3694 38.7759 36.5074 39.6169 35.7901Z" fill="#96877D" stroke="black" stroke-width="0.06766666666666667" />
<path d="M33.0081 31.2631C32.7125 31.6421 32.6858 32.4061 33.0708 32.7141C33.1068 33.1778 33.5011 34.1131 33.8108 34.2008C34.1495 34.2968 35.5018 34.6108 36.0315 34.5255C35.9301 35.3838 36.6035 36.0725 37.2271 36.5238C37.2225 36.6011 37.2215 36.6951 37.2935 36.7905C37.3635 36.8825 37.6908 36.8991 37.7051 36.8485C37.8505 37.0528 38.5545 37.1425 38.6051 37.0515C38.6551 36.9628 37.5701 36.2081 37.3295 35.9775C37.1251 35.5961 36.7378 34.7461 36.6461 34.0641C36.1138 33.4308 35.1995 33.4435 35.1995 33.4435L35.2285 32.2025L35.2798 30.8018L34.7845 30.5458C34.7845 30.5458 34.8845 30.5001 34.9381 30.4431C35.0585 30.4951 35.2848 30.2531 35.3141 30.1851C35.4278 30.2251 35.5308 30.2251 35.5508 30.1638C35.5688 30.1105 35.5891 29.8708 35.6308 29.7471C36.0041 29.4181 35.5761 28.7205 35.0048 28.7091C34.4391 28.6975 34.3125 29.3835 34.3235 29.4358C34.3765 29.6508 34.3651 29.7591 34.3235 29.8111C34.2808 29.8645 34.0841 29.9821 34.0841 29.9821C34.0841 29.9821 33.7681 29.8325 33.3841 29.9821C33.0001 30.1318 32.5681 30.3321 32.5468 30.5798C32.3718 30.6055 32.0858 30.8318 32.0345 31.0241C31.8808 30.9941 31.6801 31.1221 31.3511 31.6561C30.7621 31.9165 30.7278 33.1761 30.7278 33.1761C30.7278 33.1761 30.5688 33.4078 30.5611 33.5305C30.5538 33.6535 30.6168 33.7655 30.6938 33.7438C30.7021 33.8251 30.8091 33.8978 30.8558 33.8721C30.8731 33.9535 30.9901 33.9988 31.0608 33.9875C31.0675 34.0431 31.2948 34.0291 31.3128 33.9788C31.3328 33.9235 31.2905 33.6468 31.3171 33.6245C31.3418 33.6045 31.5305 33.7485 31.5818 33.7098C31.6331 33.6715 31.5718 33.5485 31.5435 33.5008C31.5178 33.4581 31.3555 33.4108 31.3171 33.2105C31.2788 33.0101 31.4195 32.7321 31.4195 32.7321C31.4195 32.7321 32.0601 32.2281 32.1328 31.7968C32.6151 31.8438 32.8705 31.4221 33.0081 31.2631Z" fill="#96877D" stroke="black" stroke-width="0.06766666666666667" />
<path d="M31.8936 29.4566C32.0399 29.0989 32.5682 29.1319 32.5682 29.1319C32.5682 29.1319 32.7572 28.6346 33.4692 28.9313C33.7372 28.7243 34.4426 29.0213 34.4426 29.0213C34.4426 29.0213 34.7072 28.6689 35.0536 28.7093C35.6952 28.7839 35.8019 29.3723 35.7622 29.4736C35.4112 29.5623 34.8026 29.1883 34.3402 29.2943C34.0702 29.4469 33.6326 29.6083 33.4692 29.8283C33.0412 29.8729 32.5842 29.4343 31.8936 29.4566ZM33.2302 30.0503C33.3902 29.9519 33.7832 29.7793 34.0502 29.9903C34.3299 30.2916 34.7589 30.5713 34.7589 30.5713L35.2456 30.7763L35.4679 30.9129L35.3226 33.1419C34.8719 32.6809 34.4496 32.5999 34.1269 32.0573C33.9539 31.8246 34.0862 31.2653 33.7852 30.8956C33.4842 30.5263 33.1639 30.2766 33.2302 30.0503Z" fill="#96877D" stroke="black" stroke-width="0.06766666666666667" />
<path d="M34.4004 30.6941C34.4004 30.6941 34.6554 30.6458 34.7264 30.7061C34.8157 30.7361 34.9017 30.7621 34.9257 30.8391C35.0224 30.8678 35.0891 30.9174 35.0891 30.9901C35.1794 31.0141 35.2157 31.1771 35.2157 31.1771L35.1311 31.3038C35.1311 31.3038 35.0344 31.2134 35.0224 31.1171C34.9614 31.0868 34.8261 31.0548 34.7931 30.9658C34.6874 30.9554 34.6194 30.9008 34.5997 30.8091C34.5014 30.8314 34.4004 30.6941 34.4004 30.6941Z" fill="#96877D" stroke="black" stroke-width="0.06766666666666667" />
<path d="M36.5607 29.239C36.4154 29.0766 36.1594 29.1963 36.1594 29.1963L35.476 30.375L35.177 30.6226L35.1514 31.545L35.399 32.4073L35.3137 33.0736C35.3137 33.0736 35.6577 32.7506 35.698 32.5696C35.7367 32.3966 35.57 31.8353 35.57 31.8353C35.57 31.8353 35.365 31.4853 35.6127 30.836C35.8604 30.187 36.424 29.6486 36.5607 29.239Z" fill="#96877D" stroke="black" stroke-width="0.06766666666666667" />
<path d="M38.2472 30.2896C38.2472 30.2896 37.1805 31.8139 35.4338 32.3562C34.9515 32.4716 35.1265 31.2289 35.1265 31.2289L35.0068 31.2632C35.0068 31.2632 34.7378 32.4799 35.3825 32.4932C37.1378 32.1472 38.4545 30.2996 38.4545 30.2996L38.2445 30.2902L38.2472 30.2896ZM38.9705 39.0536C38.9705 39.0536 38.8082 39.1732 38.5948 39.0536C38.4838 38.7972 38.1848 38.7802 38.1848 38.7802C38.1848 38.7802 37.9922 38.2269 37.6895 38.3876C37.6425 38.1012 37.3138 38.2509 37.3138 38.2509C37.3138 38.2509 37.3052 37.8366 36.9208 37.8922C37.0488 37.4179 36.3912 37.4479 36.3912 37.4479C36.3912 37.4479 36.3698 36.9142 35.4005 37.0212C37.4888 36.0859 39.1412 38.4899 39.1412 38.4899M39.9605 39.2569C39.9605 39.2569 40.4432 39.7992 40.6948 39.8036C40.9468 39.8079 40.9682 39.2739 40.9682 39.2739C40.9682 39.2739 41.0495 39.5046 41.1732 39.4449C41.1605 39.6069 41.3268 39.6499 41.3268 39.6499C41.3268 39.6499 40.8915 40.6619 39.6532 39.7009M36.1838 39.4636L36.0132 40.1636C36.0132 40.1636 35.7952 40.3602 35.8592 40.4029C35.9235 40.4456 36.2692 40.3346 36.2692 40.3346C36.2692 40.3346 36.8072 40.2706 36.9695 40.1126C37.0805 40.3646 37.3282 40.3859 37.3282 40.3859C37.3282 40.3859 37.3452 40.2792 37.3112 40.2152C37.4308 40.2366 37.5332 40.1979 37.5332 40.1979C37.5332 40.1979 37.6015 40.0016 37.4478 39.9246C37.4648 39.7796 37.5375 39.6512 37.2772 39.6686C37.0848 39.8736 36.6108 40.1086 36.4912 40.0272C36.3718 39.9462 36.9612 39.6856 36.7988 39.3439" fill="#96877D" />
<path d="M38.9705 39.0536C38.9705 39.0536 38.8082 39.1732 38.5948 39.0536C38.4838 38.7972 38.1848 38.7802 38.1848 38.7802C38.1848 38.7802 37.9922 38.2269 37.6895 38.3876C37.6425 38.1012 37.3138 38.2509 37.3138 38.2509C37.3138 38.2509 37.3052 37.8366 36.9208 37.8922C37.0488 37.4179 36.3912 37.4479 36.3912 37.4479C36.3912 37.4479 36.3698 36.9142 35.4005 37.0212C37.4888 36.0859 39.1412 38.4899 39.1412 38.4899M39.9605 39.2569C39.9605 39.2569 40.4432 39.7992 40.6948 39.8036C40.9468 39.8079 40.9682 39.2739 40.9682 39.2739C40.9682 39.2739 41.0495 39.5046 41.1732 39.4449C41.1605 39.6069 41.3268 39.6499 41.3268 39.6499C41.3268 39.6499 40.8915 40.6619 39.6532 39.7009M36.1838 39.4636L36.0132 40.1636C36.0132 40.1636 35.7952 40.3602 35.8592 40.4029C35.9235 40.4456 36.2692 40.3346 36.2692 40.3346C36.2692 40.3346 36.8072 40.2706 36.9695 40.1126C37.0805 40.3646 37.3282 40.3859 37.3282 40.3859C37.3282 40.3859 37.3452 40.2792 37.3112 40.2152C37.4308 40.2366 37.5332 40.1979 37.5332 40.1979C37.5332 40.1979 37.6015 40.0016 37.4478 39.9246C37.4648 39.7796 37.5375 39.6512 37.2772 39.6686C37.0848 39.8736 36.6108 40.1086 36.4912 40.0272C36.3718 39.9462 36.9612 39.6856 36.7988 39.3439M38.2472 30.2896C38.2472 30.2896 37.1805 31.8139 35.4338 32.3562C34.9515 32.4716 35.1265 31.2289 35.1265 31.2289L35.0068 31.2632C35.0068 31.2632 34.7378 32.4799 35.3825 32.4932C37.1378 32.1472 38.4545 30.2996 38.4545 30.2996L38.2445 30.2902L38.2472 30.2896Z" stroke="black" stroke-width="0.06766666666666667" />
</g>
<defs>
<clipPath id="clip0_5_4107">
<rect width="300" height="200" fill="white" />
</clipPath>
</defs>
</svg>