<svg xmlns="http://www.w3.org/2000/svg" viewBox="0 0 300 200"><g><path d="M150 131.167C167.213 131.167 181.166 117.213 181.166 100C181.166 82.7872 167.213 68.8334 150 68.8334C132.787 68.8334 118.833 82.7872 118.833 100C118.833 117.213 132.787 131.167 150 131.167Z" fill="white" />
<path d="M144.506 76.1299L142.484 72.4066C143.264 71.6266 144.577 71.0236 146.669 71.0236C146.669 71.1656 146.456 75.1019 146.456 75.1019L144.506 76.1299Z" fill="#D90000" stroke="black" />
<path d="M146.456 75.1373L146.74 71.0239C146.74 71.0239 150.924 70.7756 153.194 73.5059C153.229 73.4706 150.96 76.6973 150.96 76.6973L146.456 75.1373Z" fill="#FCDC04" stroke="black" />
<path d="M151.031 76.6619L153.088 73.4706C154.471 74.9246 155.038 75.9529 155.251 77.5132C155.287 77.5486 151.989 78.3286 151.989 78.2932C151.989 78.2576 151.067 76.6972 151.031 76.6619Z" fill="#D90000" stroke="black" />
<path d="M145.535 129.358C145.535 129.358 149.4 124.925 156.918 125.883C155.783 124.038 152.131 124.251 152.131 124.251C152.131 124.251 150.996 115.634 151.882 115.209C152.769 114.783 156.528 115.244 156.528 115.244C157.024 115.244 157.875 113.897 157.202 113.046C156.528 112.194 154.542 108.932 155.357 108.294C156.173 107.655 160.606 108.648 160.606 108.648L148.088 92.6196C148.088 92.6196 146.811 86.5913 149.365 83.6833C152.45 81.1299 152.131 78.3643 152.024 78.3996C151.599 75.5983 147.343 73.5766 144.471 76.1656C142.769 78.2223 143.903 79.7826 143.903 79.7826C143.903 79.7826 139.435 80.9883 139.258 81.7683C139.081 82.5486 144.294 81.6266 144.294 81.6266L143.797 85.2083C143.797 85.2083 133.655 94.4283 141.421 102.407C141.492 102.372 141.669 102.052 141.669 102.052C141.669 102.052 144.4 105.421 147.272 106.166C149.967 108.932 149.719 108.506 149.719 108.506C149.719 108.506 150.251 112.868 149.755 113.719C149.081 113.506 142.201 113.258 141.173 113.648C140.251 113.932 136.705 113.755 137.591 119.535C138.265 117.975 138.868 116.592 138.868 116.592C138.868 116.592 138.761 118.684 139.613 119.428C139.471 117.23 140.428 115.741 140.428 115.741C140.428 115.741 140.606 118.152 141.137 118.506C141.669 118.861 141.669 114.606 144.613 114.96C147.556 115.315 149.684 115.209 149.684 115.209C149.684 115.209 150.677 123.542 150.357 124.322C148.23 123.826 143.159 124.535 142.84 125.812C145.818 125.634 147.202 125.989 147.202 125.989C147.202 125.989 144.79 128.117 145.535 129.358Z" fill="black" stroke="black" />
<path d="M146.73 83.8866C146.73 83.8866 139.351 92.0209 142.535 98.2452C142.704 97.3772 142.63 96.8319 142.737 96.8672C142.559 96.7606 143.652 97.6162 143.569 97.4496C143.592 96.9996 143.236 96.0352 143.236 96.0352L144.234 96.2849L143.652 95.2032L145.066 95.3696C145.066 95.3696 144.567 94.0382 144.734 94.0382C144.9 94.0382 145.898 94.1216 145.898 94.1216C143.8 90.3549 145.78 87.2272 146.73 83.8866ZM149.294 76.9099C149.294 76.9099 149.684 79.7116 148.159 80.5272C147.911 80.7046 146.954 81.0239 147.095 81.5912C147.273 82.3712 147.698 82.2296 148.301 82.0876C149.897 81.8039 151.741 78.3996 149.294 76.9102V76.9099Z" fill="#9CA69C" stroke="#9CA69C" />
<path d="M145.999 79.9333C146.331 79.9333 146.599 79.6646 146.599 79.3333C146.599 79.0019 146.331 78.7333 145.999 78.7333C145.668 78.7333 145.399 79.0019 145.399 79.3333C145.399 79.6646 145.668 79.9333 145.999 79.9333Z" fill="white" />
<path d="M144.187 81.662C143.797 81.9813 141.74 84.109 143.761 84.889C145.854 84.3217 145.286 83.9317 145.747 83.4707C145.759 82.5133 144.707 82.265 144.187 81.662Z" fill="#D90000" stroke="black" />
<path d="M148.655 101.769C148.549 102.23 148.088 103.932 148.726 105.244C150.499 104.499 151.315 104.712 151.918 105.102C150.464 103.932 149.897 103.435 148.655 101.769V101.769Z" fill="#9CA69C" stroke="#9CA69C" />
<path d="M151.705 109.818L151.812 113.79C151.812 113.79 153.194 114.038 153.833 113.79C154.471 113.542 153.797 111.024 151.705 109.818Z" fill="white" stroke="white" />
<path d="M161.741 110.315C161.741 110.315 159.188 104.145 152.663 102.584C146.138 101.024 146.989 94.0736 147.521 93.6479C147.805 93.0449 148.017 92.1232 149.897 93.0099C151.776 93.8966 160.429 98.2579 161.67 98.4706C162.911 98.6836 161.847 110.457 161.741 110.315Z" fill="#9CA69C" stroke="black" />
<path d="M155.535 102.549C155.428 102.62 164.258 107.761 161.599 112.194C164.117 110.528 163.301 107.62 163.301 107.62C163.301 107.62 165.358 112.975 160.358 115.599C160.89 116.06 161.244 115.953 161.244 115.953L160.393 116.804C160.393 116.804 160.003 117.443 163.372 115.811C162.45 116.556 162.379 117.088 162.379 117.088C162.379 117.088 162.627 117.797 164.826 115.882C163.052 117.797 162.662 118.79 162.662 118.755C167.45 118.329 177.876 102.762 159.365 98.1512C160.358 99.1799 160.216 99.0379 160.216 99.0379L155.535 102.549Z" fill="#D90000" stroke="black" />
<path d="M155.925 101.024C157.131 101.875 157.556 102.159 157.698 102.584C156.599 102.336 155.606 102.407 155.606 102.407C155.606 102.407 153.23 100.138 152.805 99.9603C152.485 99.9603 150.641 98.7899 150.641 98.7899C149.72 98.3289 148.869 95.1376 152.273 96.0593C155.783 97.7259 156.28 97.8679 156.28 97.8679C157.675 98.3053 159.069 98.7429 160.464 99.1799L162.876 101.875C162.876 101.875 158.585 99.7473 158.053 99.7119C159.223 100.669 159.897 101.981 159.897 101.981C158.538 101.591 157.356 101.237 155.925 101.024Z" fill="white" stroke="black" />
<path d="M139.223 81.9812C139.223 81.9812 143.336 80.9882 143.833 81.1302Z" fill="black" />
<path d="M139.223 81.9812C139.223 81.9812 143.336 80.9882 143.833 81.1302" stroke="white" />
</g></svg>