<?xml version='1.0' encoding='us-ascii'?>
<svg xmlns="http://www.w3.org/2000/svg" viewBox="0 0 300 200"><g><path d="M246.425 77.1401L234.283 81.4256L246.425 85.7111L258.568 81.4256L246.425 77.1401Z" fill="white" stroke="black" stroke-width="0.504" />
<path d="M238.437 80H62.978C62.1203 80 61.425 80.6396 61.425 81.4285C61.425 82.2174 62.1203 82.857 62.978 82.857H238.437C239.295 82.857 239.99 82.2174 239.99 81.4285C239.99 80.6396 239.295 80 238.437 80Z" fill="#FFD900" stroke="black" stroke-width="0.504" />
<path d="M235.72 82.855C236.434 82.855 237.15 82.1405 237.15 81.4265C237.15 80.7125 236.434 79.998 235.721 79.998M234.29 82.855C235.004 82.855 235.72 82.1405 235.72 81.4265C235.72 80.7125 235.004 79.998 234.291 79.998M232.86 82.855C233.574 82.855 234.29 82.1405 234.29 81.4265C234.29 80.7125 233.574 79.998 232.861 79.998" fill="#FFD900" />
<path d="M235.72 82.855C236.434 82.855 237.15 82.1405 237.15 81.4265C237.15 80.7125 236.434 79.998 235.721 79.998M234.29 82.855C235.004 82.855 235.72 82.1405 235.72 81.4265C235.72 80.7125 235.004 79.998 234.291 79.998M232.86 82.855C233.574 82.855 234.29 82.1405 234.29 81.4265C234.29 80.7125 233.574 79.998 232.861 79.998" stroke="black" stroke-width="0.504" />
<path d="M234.79 85.7153L222.648 90.0008L234.79 94.2863L246.933 90.0008L234.79 85.7153Z" fill="white" stroke="black" stroke-width="0.504" />
<path d="M226.802 88.5752H51.343C50.4853 88.5752 49.79 89.2148 49.79 90.0037C49.79 90.7926 50.4853 91.4322 51.343 91.4322H226.802C227.66 91.4322 228.355 90.7926 228.355 90.0037C228.355 89.2148 227.66 88.5752 226.802 88.5752Z" fill="#FFD900" stroke="black" stroke-width="0.504" />
<path d="M224.085 91.4302C224.799 91.4302 225.515 90.7157 225.515 90.0017C225.515 89.2877 224.799 88.5732 224.086 88.5732M222.655 91.4302C223.369 91.4302 224.085 90.7157 224.085 90.0017C224.085 89.2877 223.369 88.5732 222.656 88.5732M221.225 91.4302C221.939 91.4302 222.655 90.7157 222.655 90.0017C222.655 89.2877 221.939 88.5732 221.226 88.5732" fill="#FFD900" />
<path d="M224.085 91.4302C224.799 91.4302 225.515 90.7157 225.515 90.0017C225.515 89.2877 224.799 88.5732 224.086 88.5732M222.655 91.4302C223.369 91.4302 224.085 90.7157 224.085 90.0017C224.085 89.2877 223.369 88.5732 222.656 88.5732M221.225 91.4302C221.939 91.4302 222.655 90.7157 222.655 90.0017C222.655 89.2877 221.939 88.5732 221.226 88.5732" stroke="black" stroke-width="0.504" />
<path d="M270.644 97.8604H32.018C30.8516 97.8604 29.906 98.8197 29.906 100.003C29.906 101.187 30.8516 102.146 32.018 102.146H270.644C271.81 102.146 272.756 101.187 272.756 100.003C272.756 98.8197 271.81 97.8604 270.644 97.8604Z" fill="#FFD900" stroke="black" stroke-width="0.54" />
<path d="M221.425 100C207.14 114.284 188.091 142.855 149.995 142.855C116.661 142.855 92.855 114.285 78.565 100C92.8507 85.7131 116.659 57.1421 149.995 57.1421C188.089 57.1421 207.135 85.7131 221.425 100Z" fill="white" stroke="black" stroke-width="0.504" />
<path d="M145.01 72.0498C148.811 76.3242 145.637 78.0478 149.66 78.3282C153.902 78.6398 151.497 82.8452 155.066 82.9915C157.561 83.1005 154.817 93.0668 157.218 96.3558C159.665 99.7845 161.714 97.3605 161.757 99.8372C161.799 102.399 155.098 102.141 154.981 110.032C154.784 114.58 149.326 114.871 149.065 117.798C148.741 120.55 159.819 122.095 159.671 124.559C159.519 127.016 147.71 126.631 147.196 129.433C146.933 131.949 163.419 134.012 164.745 141.289C162.285 142.094 155.285 142.851 149.995 142.855C116.667 142.879 92.8553 114.282 78.5703 99.9972C92.856 85.7105 116.664 57.1392 150 57.1392C150 57.1392 140.106 66.1802 145.015 72.0468L145.01 72.0498Z" fill="black" />
<path d="M106.966 96.1883V84.7598V96.1883ZM113.892 84.7598V96.1883V84.7598ZM120.822 84.7598V96.1883V84.7598Z" fill="black" />
<path d="M106.966 96.1883V84.7598M113.892 84.7598V96.1883M120.822 84.7598V96.1883" stroke="white" stroke-width="3.4635" />
<path d="M106.966 115.238V103.81V115.238ZM113.892 103.81V115.238V103.81ZM120.822 103.81V115.238V103.81Z" fill="black" />
<path d="M106.966 115.238V103.81M113.892 103.81V115.238M120.822 103.81V115.238" stroke="white" stroke-width="3.4635" />
<path d="M127.746 96.1883V84.7598V96.1883ZM134.671 84.7598V96.1883V84.7598ZM141.601 84.7598V96.1883V84.7598Z" fill="black" />
<path d="M127.746 96.1883V84.7598M134.671 84.7598V96.1883M141.601 84.7598V96.1883" stroke="white" stroke-width="3.4635" />
<path d="M127.746 115.238V103.81V115.238ZM134.671 103.81V115.238V103.81ZM141.601 103.81V115.238V103.81Z" fill="black" />
<path d="M127.746 115.238V103.81M134.671 103.81V115.238M141.601 103.81V115.238" stroke="white" stroke-width="3.4635" />
<path d="M159.346 96.1883V84.7598V96.1883ZM166.271 84.7598V96.1883V84.7598ZM173.201 84.7598V96.1883V84.7598Z" fill="black" />
<path d="M159.346 96.1883V84.7598M166.271 84.7598V96.1883M173.201 84.7598V96.1883" stroke="black" stroke-width="3.4635" />
<path d="M159.346 115.238V103.81V115.238ZM166.271 103.81V115.238V103.81ZM173.201 103.81V115.238V103.81Z" fill="black" />
<path d="M159.346 115.238V103.81M166.271 103.81V115.238M173.201 103.81V115.238" stroke="black" stroke-width="3.4635" />
<path d="M180.127 96.1883V84.7598V96.1883ZM187.052 84.7598V96.1883V84.7598ZM193.982 84.7598V96.1883V84.7598Z" fill="black" />
<path d="M180.127 96.1883V84.7598M187.052 84.7598V96.1883M193.982 84.7598V96.1883" stroke="black" stroke-width="3.4635" />
<path d="M180.127 115.238V103.81V115.238ZM187.052 103.81V115.238V103.81ZM193.982 103.81V115.238V103.81Z" fill="black" />
<path d="M180.127 115.238V103.81M187.052 103.81V115.238M193.982 103.81V115.238" stroke="black" stroke-width="3.4635" />
<path d="M255.675 98.2998C253.511 102.048 257.336 97.0531 266.668 103.328C268.397 104.493 269.908 107.572 269.908 109.707C269.469 109.414 269.143 108.76 268.66 108.336C267.983 109.014 269.306 112.124 269.5 113.594C268.041 112.778 268.181 112.391 267.696 111.388C267.793 112.601 267.446 115.941 268.026 117.228C266.876 116.899 266.953 115.974 266.353 115.788C266.761 117.244 265.997 118.828 266.199 120.465C265.528 119.8 264.812 119.279 264.499 119.011C264.447 119.79 263.207 121.839 263.179 122.576C262.609 122.231 262.454 121.694 262.359 121.333C261.65 122.223 259.132 125.512 258.971 126.515C257.03 124.801 252.059 120.627 251.412 118.412C250.84 119.669 250.012 120.094 248.375 121.012C247.729 117.501 245.311 113.554 246.604 110.545C245.687 111.088 244.933 111.632 244.017 112.3C244.885 107.215 249.31 101.253 255.677 98.2998H255.675Z" fill="#3D5DA7" stroke="black" stroke-width="0.42733333333333334" />
<path d="M247.605 116.86C248.503 115.064 249.331 114.495 249.912 113.338C250.937 111.305 251.083 109.688 251.977 109.925C252.87 110.162 252.869 110.995 251.712 112.993C250.554 114.992 250.004 115.419 247.605 116.86ZM253.68 121.14C253.564 119.772 253.961 119.201 253.889 118.321C253.766 116.771 253.132 115.708 253.956 115.632C254.78 115.557 255.165 116.086 255.167 117.647C255.17 119.209 254.928 119.619 253.681 121.14L253.68 121.14ZM258.29 123.82C257.93 121.911 258.2 121.064 257.969 119.834C257.568 117.67 256.775 116.246 257.538 116.048C258.301 115.85 258.763 116.55 259.051 118.745C259.341 120.939 259.188 121.542 258.29 123.82ZM263.085 110.445C261.959 109.59 261.302 109.533 260.576 108.984C259.297 108.021 258.65 106.989 258.238 107.501C257.827 108.013 258.119 108.573 259.459 109.462C260.799 110.351 261.253 110.421 263.085 110.445ZM262.29 116.78C261.697 115.548 261.072 115.235 260.688 114.442C260.01 113.049 260.009 111.843 259.273 112.152C258.537 112.461 258.478 113.092 259.265 114.441C260.051 115.79 260.464 116.034 262.29 116.78Z" fill="#A70000" />
<path d="M40.3913 101.91C40.2703 100.819 40.504 100.688 39.8323 99.865C40.81 100.274 40.847 101.361 42.0357 100.59C42.472 100.364 42.6623 100.356 42.132 99.144C43.3713 99.2017 47.43 100.593 48.08 100.625C49.7867 100.704 52.902 98.8327 55.0643 101.134C57.14 103.232 56.447 105.409 56.447 108.315C55.613 107.915 56.015 107.718 55.13 106.679C55.7933 109.219 55.0947 113.798 55.0947 116.491C54.754 115.842 54.804 116.123 54.471 115.451C53.586 117.909 52.5253 118.415 52.5253 121.321C52.206 120.182 52.5143 120.422 52.159 119.823C51.299 121.69 45.529 123.285 47.7523 125.166C45.7457 123.989 44.8657 124.113 43.9557 123.055C43.5633 123.308 43.252 123.787 42.8873 124.443C39.359 122.82 40.6207 119.318 37.8563 116.979C37.378 117.96 37.596 117.818 37.079 119.414C36.5193 117.197 36.3663 115.788 35.737 114.158C35.194 115.061 35.2423 114.715 34.2563 116.081C33.8483 113.38 33.1843 112.743 33.447 110.956C32.399 111.695 33.085 111.396 32.0373 112.306C33.03 105.386 37.3163 100.272 40.3923 101.91L40.3913 101.91Z" fill="#3D5DA7" stroke="black" stroke-width="0.5333333333333333" />
<path d="M36.0503 113.205C36.9597 110.977 37.779 110.278 38.3667 108.843C39.404 106.322 39.573 104.307 40.4443 104.614C41.316 104.922 41.302 105.96 40.136 108.437C38.97 110.914 38.4243 111.439 36.0503 113.205V113.205ZM39.4923 118.78C39.857 116.783 40.432 116.055 40.6683 114.769C41.088 112.507 40.854 110.822 41.664 110.911C42.474 111 42.657 111.854 42.118 114.104C41.579 116.354 41.2073 116.887 39.4923 118.78ZM43.6093 122.655C43.712 120.719 44.166 119.963 44.234 118.715C44.357 116.521 43.9347 114.951 44.707 114.942C45.4793 114.933 45.7547 115.722 45.518 117.918C45.2813 120.115 44.9957 120.663 43.6093 122.655ZM52.45 109.99C50.7597 108.306 49.7377 107.992 48.647 106.909C46.726 105.007 45.798 103.221 45.114 103.854C44.43 104.487 44.8417 105.436 46.864 107.246C48.8867 109.056 49.59 109.32 52.45 109.99ZM51.42 116.5C50.319 114.809 49.511 114.371 48.8 113.283C47.5467 111.371 47.1153 109.728 46.405 110.135C45.694 110.542 45.853 111.401 47.2117 113.254C48.57 115.107 49.1163 115.448 51.42 116.501V116.5Z" fill="#A70000" />
<path d="M126.9 64.75C124.921 68.5773 130.365 63.477 138.899 69.8847C140.481 71.075 142.748 75.778 142.748 77.958C140.931 77.5713 137.713 75.778 137.713 75.778C137.713 75.778 141.489 79.56 141.489 83.92C140.155 83.086 139.488 83.211 139.044 82.187C139.044 83.5983 140.231 84.498 140.231 86.678C139.419 86.026 138.551 85.447 137.637 84.948C138.896 87.128 135.344 91.357 137.122 92.7687C134.013 92.319 130.832 90.3327 129.573 88.1527C128.906 88.602 128.834 89.308 128.808 90.0603C128.906 90.142 124.075 86.475 124.519 85.0663C123.871 85.9753 123.78 86.475 123.632 87.4997C121.858 85.7497 120.231 83.9997 119.639 81.737C118.851 82.7613 118.801 82.7613 118.012 83.786C117.421 80.2003 117.421 80.3283 118.604 77.2553C117.766 77.8103 117.076 78.3653 116.238 79.0487C117.031 73.856 121.079 67.767 126.901 64.7513L126.9 64.75Z" fill="#3D5DA7" stroke="black" stroke-width="0.41300000000000003" />
<path d="M122.02 83.45C122.337 80.8127 123.026 79.819 123.232 78.1207C123.6 75.1337 123.163 72.95 124.222 73.0057C125.281 73.0607 125.585 74.1624 125.062 77.1437C124.539 80.124 124.098 80.8477 122.02 83.45ZM127.545 88.28C127.331 86.055 127.742 85.1077 127.605 83.674C127.37 81.152 126.591 79.4437 127.514 79.2867C128.436 79.1297 128.903 79.9757 129.002 82.522C129.102 85.0687 128.855 85.747 127.545 88.28H127.545ZM136.17 92.22C135.232 90.2944 134.426 89.7204 133.821 88.481C132.751 86.303 132.527 84.5244 131.703 84.8464C130.878 85.169 130.923 86.089 132.115 88.221C133.306 90.353 133.845 90.788 136.17 92.22ZM139.155 74.975C136.766 73.7174 135.539 73.7017 134 72.8934C131.289 71.4767 129.711 69.876 129.151 70.757C128.59 71.638 129.338 72.514 132.133 73.802C134.928 75.09 135.786 75.151 139.155 74.975H139.155ZM140.03 82.18C138.291 80.733 137.262 80.52 136.14 79.589C134.163 77.9557 133.18 76.351 132.52 77.0017C131.86 77.652 132.301 78.511 134.375 80.05C136.45 81.589 137.159 81.78 140.03 82.18Z" fill="#A70000" />
</g></svg>