<svg width="400" height="200" viewBox="0 0 400 200" fill="none"
    xmlns="http://www.w3.org/2000/svg">
    <g clip-path="url(#clip0_5_6823)">

        <path d="M200 125C213.807 125 225 113.807 225 100C225 86.1929 213.807 75 200 75C186.193 75 175 86.1929 175 100C175 113.807 186.193 125 200 125Z" fill="white"/>
        <path d="M205.055 121.722C217.051 121.722 226.776 111.997 226.776 100C226.776 88.0034 217.051 78.2783 205.055 78.2783C193.058 78.2783 183.333 88.0034 183.333 100C183.333 111.997 193.058 121.722 205.055 121.722Z" fill="black"/>
        <path d="M212.156 100L245.781 89.0746L225 117.678V82.3225L245.781 110.925L212.156 100Z" fill="white"/>
    </g>
    <defs>
        <clipPath id="clip0_5_6823">
            <rect width="400" height="200" fill="white"/>
        </clipPath>
    </defs>
</svg>
