<svg xmlns="http://www.w3.org/2000/svg" viewBox="0 0 334 200"><g><path d="M40.5197 119.131V130.526C50.4331 130.526 69.8882 122.93 69.8882 98.4715C69.8882 74.0133 49.1359 69.4736 42.9285 69.4736C36.7215 69.4736 17.5439 73.9206 17.5439 93.9319C17.5439 113.943 36.351 115.796 40.0566 115.796C43.7622 115.796 57.659 112.461 56.0843 97.4522C56.0843 101.714 51.2668 110.701 41.1682 110.701C31.0699 110.701 24.7703 103.196 24.7703 95.7849C24.7703 88.3729 30.8846 78.4599 41.5387 78.4599C52.1927 78.4599 59.9748 87.9094 59.9748 97.4522C59.9748 106.995 52.471 119.131 40.5197 119.131Z" fill="#FDCE12" />
            <path d="M31.8345 104.297L32.425 104.679C32.425 104.679 37.1152 93.9783 49.7264 86.3699C48.1282 87.2383 39.6861 91.4421 31.8345 104.297Z" fill="#FDCE12" />
            <path d="M33.0503 102.455C33.0503 102.455 31.5913 99.4674 32.8766 98.1474C34.1622 96.8271 33.5717 101.656 33.5717 101.656L34.1275 100.857C34.1275 100.857 33.2587 97.2092 34.2317 96.445C35.2043 95.6807 34.718 99.9537 34.718 99.9537L35.3085 99.1895C35.3085 99.1895 34.6832 95.646 35.6211 94.9857C36.5594 94.3257 35.9689 98.3211 35.9689 98.3211L36.6636 97.5218C36.6636 97.5218 36.1425 94.152 37.2889 93.353C38.4355 92.5537 37.4278 96.5492 37.4278 96.5492L38.192 95.7155C38.192 95.7155 37.8447 92.6232 38.8176 91.9285C39.7903 91.2337 38.9566 94.8467 38.9566 94.8467L39.6513 94.1172C39.6513 94.1172 39.4429 91.2337 40.3808 90.5737C41.319 89.9134 40.4503 93.3183 40.4503 93.3183L41.1801 92.6232C41.1801 92.6232 41.0064 89.7397 42.1875 89.1839C43.3685 88.6281 41.979 91.8937 41.979 91.8937L42.778 91.199C42.778 91.199 43.0211 87.8292 44.0289 87.5162C45.0362 87.2035 43.5773 90.5042 43.5773 90.5042L44.3068 89.9134C44.3068 89.9134 44.6889 87.0299 45.8004 86.6825C46.9124 86.3351 45.1057 89.3228 45.1057 89.3228L45.8352 88.767C45.8352 88.767 46.6345 85.8835 47.6766 85.5709C48.719 85.2583 46.5997 88.2807 46.5997 88.2807L47.2945 87.7944C47.2945 87.7944 48.4408 85.1885 49.379 85.0148C50.3169 84.8411 48.3366 87.1688 48.3366 87.1688L49.2054 86.6478C49.2054 86.6478 50.699 83.9379 51.2204 84.7716C51.7415 85.6056 49.1359 86.8214 49.1359 86.8214L48.2671 87.3078C48.2671 87.3078 51.4289 85.8141 51.811 86.5783C52.1931 87.3425 47.4682 87.8292 47.4682 87.8292L46.704 88.3502C46.704 88.3502 49.8654 87.4814 49.4832 88.2807C49.1011 89.0797 45.9745 88.906 45.9745 88.906L45.2447 89.4271C45.2447 89.4271 48.4061 88.6628 47.9892 89.3923C47.5724 90.1218 44.4804 90.0523 44.4804 90.0523L43.7162 90.6779C43.7162 90.6779 46.8082 89.8786 46.3566 90.8169C45.9047 91.7548 42.3959 91.72 42.3959 91.72L41.5275 92.519C41.5275 92.519 44.7931 91.4074 44.5152 92.2758C44.2373 93.1446 40.5197 93.5962 40.5197 93.5962L39.6861 94.4299C39.6861 94.4299 43.1948 93.2488 42.1527 94.3257C41.1106 95.4028 38.5745 95.6807 38.5745 95.6807L37.5668 96.8965C37.5668 96.8965 41.0411 94.812 40.5545 95.9934C40.0682 97.1744 36.6636 97.9737 36.6636 97.9737L35.9689 98.8074C35.9689 98.8074 39.0955 97.0007 38.7829 98.0085C38.4703 99.0158 35.1348 100.093 35.1348 100.093L34.579 100.857C34.579 100.857 38.2615 98.6685 37.9489 99.78C37.6362 100.892 34.1275 101.691 34.1275 101.691L33.6759 102.386C33.6759 102.386 37.0804 100.44 37.1152 101.378C37.1499 102.316 33.1197 103.254 33.1197 103.254L33.0503 102.455Z" fill="#FDCE12" />
            <path d="M51.8496 104.297L51.2591 104.679C51.2591 104.679 46.5689 93.9783 33.9577 86.3699C35.5559 87.2383 43.998 91.4421 51.8496 104.297Z" fill="#FDCE12" />
            <path d="M50.6338 102.455C50.6338 102.455 52.0928 99.4674 50.8075 98.1474C49.5219 96.8271 50.1124 101.656 50.1124 101.656L49.5566 100.857C49.5566 100.857 50.4254 97.2092 49.4524 96.445C48.4798 95.6807 48.9661 99.9537 48.9661 99.9537L48.3756 99.1895C48.3756 99.1895 49.0008 95.646 48.0629 94.9857C47.1247 94.3257 47.7152 98.3211 47.7152 98.3211L47.0205 97.5218C47.0205 97.5218 47.5415 94.152 46.3952 93.353C45.2486 92.5537 46.2563 96.5492 46.2563 96.5492L45.4921 95.7155C45.4921 95.7155 45.8394 92.6232 44.8665 91.9285C43.8938 91.2337 44.7275 94.8467 44.7275 94.8467L44.0328 94.1172C44.0328 94.1172 44.2412 91.2337 43.3033 90.5737C42.365 89.9134 43.2338 93.3183 43.2338 93.3183L42.504 92.6232C42.504 92.6232 42.6777 89.7397 41.4966 89.1839C40.3156 88.6281 41.705 91.8937 41.705 91.8937L40.9061 91.199C40.9061 91.199 40.6629 87.8292 39.6552 87.5162C38.6479 87.2035 40.1068 90.5042 40.1068 90.5042L39.3773 89.9134C39.3773 89.9134 38.9952 87.0299 37.8836 86.6825C36.7717 86.3351 38.5784 89.3228 38.5784 89.3228L37.8489 88.767C37.8489 88.767 37.0496 85.8835 36.0075 85.5709C34.965 85.2583 37.0843 88.2807 37.0843 88.2807L36.3896 87.7944C36.3896 87.7944 35.2433 85.1885 34.305 85.0148C33.3672 84.8411 35.3475 87.1688 35.3475 87.1688L34.4787 86.6478C34.4787 86.6478 32.985 83.9379 32.4636 84.7716C31.9426 85.6056 34.5482 86.8214 34.5482 86.8214L35.417 87.3078C35.417 87.3078 32.2552 85.8141 31.8731 86.5783C31.491 87.3425 36.2159 87.8292 36.2159 87.8292L36.9801 88.3502C36.9801 88.3502 33.8187 87.4814 34.2008 88.2807C34.5829 89.0797 37.7096 88.906 37.7096 88.906L38.4394 89.4271C38.4394 89.4271 35.278 88.6628 35.6949 89.3923C36.1117 90.1218 39.2036 90.0523 39.2036 90.0523L39.9679 90.6779C39.9679 90.6779 36.8759 89.8786 37.3275 90.8169C37.7794 91.7548 41.2882 91.72 41.2882 91.72L42.1566 92.519C42.1566 92.519 38.891 91.4074 39.1689 92.2758C39.4468 93.1446 43.1643 93.5962 43.1643 93.5962L43.998 94.4299C43.998 94.4299 40.4893 93.2488 41.5314 94.3256C42.5735 95.4028 45.1096 95.6807 45.1096 95.6807L46.1173 96.8965C46.1173 96.8965 42.6429 94.812 43.1296 95.9934C43.6159 97.1744 47.0205 97.9737 47.0205 97.9737L47.7152 98.8074C47.7152 98.8074 44.5886 97.0007 44.9012 98.0085C45.2138 99.0158 48.5493 100.093 48.5493 100.093L49.105 100.857C49.105 100.857 45.4226 98.6685 45.7352 99.78C46.0479 100.892 49.5566 101.691 49.5566 101.691L50.0082 102.386C50.0082 102.386 46.6036 100.44 46.5689 101.378C46.5342 102.316 50.5643 103.254 50.5643 103.254L50.6338 102.455Z" fill="#FDCE12" />
        </g></svg>