<svg xmlns="http://www.w3.org/2000/svg" viewBox="0 0 300 200"><g><path d="M278.5 52.2499L256.165 53.5552L277.402 60.5969L255.489 56.0769L274.18 68.3749L254.184 58.3374L269.054 75.0541L252.338 60.1836L262.375 80.1794L250.077 61.4888L254.597 83.4011L247.556 62.1644L246.25 84.4999L245.973 51.9722L278.5 52.2499Z" fill="#E5BE01" />
<path d="M278.5 52.2501L256.165 50.9448L277.402 43.9031L255.489 48.4231L274.18 36.1251L254.184 46.1626L269.054 29.4459L252.338 44.3164L262.375 24.3206L250.077 43.0112L254.597 21.0989L247.556 42.3356L246.25 20.0001L245.973 52.5278L278.5 52.2501Z" fill="#E5BE01" />
<path d="M214 52.2499L236.335 53.5552L215.098 60.5969L237.011 56.0769L218.32 68.3749L238.316 58.3374L223.446 75.0541L240.162 60.1836L230.125 80.1794L242.423 61.4888L237.903 83.4011L244.944 62.1644L246.25 84.4999L246.527 51.9722L214 52.2499Z" fill="#E5BE01" />
<path d="M214 52.2501L236.335 50.9448L215.098 43.9031L237.011 48.4231L218.32 36.1251L238.316 46.1626L223.446 29.4459L240.162 44.3164L230.125 24.3206L242.423 43.0112L237.903 21.0989L244.944 42.3356L246.25 20.0001L246.527 52.5278L214 52.2501Z" fill="#E5BE01" />
<path d="M246.25 61.7777C251.512 61.7777 255.778 57.512 255.778 52.2499C255.778 46.9879 251.512 42.7222 246.25 42.7222C240.988 42.7222 236.723 46.9879 236.723 52.2499C236.723 57.512 240.988 61.7777 246.25 61.7777Z" fill="#E5BE01" stroke="#00A1DE" stroke-width="3.4" />
</g></svg>