<svg width="400" height="200" viewBox="0 0 400 200" fill="none"
    xmlns="http://www.w3.org/2000/svg">
    <g clip-path="url(#clip0_5_3708)">
        <path d="M224.286 114.286L0 0H60L224.286 114.286ZM175.714 85.7143L340 200H400L175.714 85.7143ZM175.714 114.286L340 0H400L175.714 114.286ZM224.286 85.7143L0 200H60L224.286 85.7143ZM200 100L0 80V120L200 100ZM200 100L400 80V120L200 100ZM200 100L180 0H220L200 100ZM200 100L180 200H220L200 100Z" fill="#F9D616"/>
        <path d="M200 132.143C217.752 132.143 232.143 117.752 232.143 100C232.143 82.248 217.752 67.8572 200 67.8572C182.248 67.8572 167.857 82.248 167.857 100C167.857 117.752 182.248 132.143 200 132.143Z" fill="#F9D616" stroke="#CE2028" stroke-width="7.14"/>
    </g>
    <defs>
        <clipPath id="clip0_5_3708">
            <rect width="400" height="200" fill="white"/>
        </clipPath>
    </defs>
</svg>
