<svg width="286" height="200" viewBox="0 0 286 200" fill="none"
    xmlns="http://www.w3.org/2000/svg">
    <g clip-path="url(#clip0_5_9483)">
        <mask id="mask0_5_9483" style="mask-type:luminance" maskUnits="userSpaceOnUse" x="92" y="50" width="101" height="100">
            <path d="M142.857 150C170.471 150 192.857 127.614 192.857 100C192.857 72.3858 170.471 50 142.857 50C115.243 50 92.8572 72.3858 92.8572 100C92.8572 127.614 115.243 150 142.857 150Z" fill="white"/>
        </mask>
        <g mask="url(#mask0_5_9483)">
            <path d="M-7.14282 200C-7.14282 167.795 5.65051 136.909 28.4228 114.137C51.1951 91.3647 82.0809 78.5714 114.286 78.5714C146.491 78.5714 177.376 91.3647 200.149 114.137C222.921 136.909 235.714 167.795 235.714 200H228.571C228.571 169.69 216.531 140.621 195.098 119.188C173.665 97.755 144.596 85.7143 114.286 85.7143C83.9753 85.7143 54.9063 97.755 33.4735 119.188C12.0408 140.621 3.5122e-05 169.69 3.5122e-05 200H-7.14282Z" fill="white"/>
        </g>
        <path fill-rule="evenodd" clip-rule="evenodd" d="M100.213 85.3845C100.777 85.3153 101.287 84.9998 101.632 84.5077C101.976 84.0155 102.126 83.3869 102.049 82.7602C101.972 82.1334 101.675 81.5598 101.221 81.1656C100.768 80.7714 100.196 80.5888 99.6324 80.6581C99.0683 80.7274 98.5579 81.0428 98.2134 81.5349C97.869 82.0271 97.7187 82.6557 97.7957 83.2825C97.8726 83.9092 98.1705 84.4828 98.6238 84.877C99.0771 85.2712 99.6486 85.4538 100.213 85.3845M100.105 84.5068C100.436 84.4661 100.735 84.2706 100.935 83.9632C101.135 83.6559 101.22 83.2619 101.172 82.8679C101.123 82.474 100.945 82.1123 100.677 81.8625C100.408 81.6127 100.071 81.4952 99.7402 81.5359C99.4089 81.5765 99.1104 81.7721 98.9103 82.0794C98.7103 82.3867 98.625 82.7807 98.6734 83.1747C98.7218 83.5686 98.8998 83.9303 99.1682 84.1801C99.4367 84.4299 99.7736 84.5474 100.105 84.5068" fill="#009B3A"/>
        <path fill-rule="evenodd" clip-rule="evenodd" d="M104.093 84.9546L104.975 84.8929L104.852 83.1285L106.752 82.9956C107.148 82.9679 107.516 82.7841 107.777 82.4845C108.037 82.185 108.168 81.7942 108.14 81.3983C108.113 81.0023 107.929 80.6336 107.629 80.3732C107.33 80.1128 106.939 79.982 106.543 80.0097L103.829 80.1995L104.093 84.9546ZM104.79 82.2463L106.622 82.1182C106.784 82.1069 106.935 82.0316 107.042 81.9091C107.148 81.7865 107.202 81.6267 107.19 81.4647C107.179 81.3027 107.104 81.1519 106.981 81.0454C106.859 80.9388 106.699 80.8853 106.537 80.8967L104.705 81.0248L104.79 82.2463Z" fill="#009B3A"/>
        <path d="M108.131 84.6722C108.083 83.9936 107.979 82.5006 106.961 82.5718L105.672 82.662C107.164 82.5576 107.269 84.0505 107.316 84.7292" fill="#009B3A"/>
        <path fill-rule="evenodd" clip-rule="evenodd" d="M110.128 84.5787L112.372 84.5396C112.64 84.5349 112.905 84.4775 113.151 84.3706C113.396 84.2637 113.619 84.1095 113.805 83.9167C113.991 83.7239 114.137 83.4964 114.236 83.247C114.334 82.9977 114.382 82.7314 114.377 82.4634L114.365 81.7833C114.361 81.5153 114.303 81.2509 114.197 81.0051C114.09 80.7593 113.935 80.537 113.743 80.3509C113.55 80.1647 113.322 80.0183 113.073 79.9201C112.824 79.8219 112.557 79.7737 112.289 79.7784L110.045 79.8176L110.128 84.5787ZM110.997 83.6791L112.289 83.6565C112.632 83.6506 112.958 83.5087 113.196 83.2621C113.434 83.0155 113.565 82.6844 113.559 82.3417L113.552 81.9336C113.546 81.5908 113.404 81.2645 113.157 81.0264C112.911 80.7882 112.58 80.6578 112.237 80.6638L110.944 80.6864L110.997 83.6791Z" fill="#009B3A"/>
        <path d="M116.174 84.5194L120.457 84.6689L120.488 83.7851L117.021 83.6641L117.064 82.4403L119.783 82.5353L119.812 81.7194L117.092 81.6245L117.125 80.6727L120.389 80.7866L120.42 79.9028L116.34 79.7604L116.174 84.5194Z" fill="#009B3A"/>
        <path d="M122.215 84.7764L123.029 84.8476L123.313 81.5947L123.977 84.9306L124.723 84.9958L125.956 81.8259L125.672 85.0788L126.485 85.15L126.9 80.4062L125.714 80.3024L124.481 83.4723L123.816 80.1364L122.63 80.0327L122.215 84.7764Z" fill="#009B3A"/>
        <path d="M132.082 85.8893L135.601 86.4942L135.74 85.6896L133.024 85.223L133.209 84.1503L135.421 84.5305L135.559 83.726L133.347 83.3458L133.474 82.6083L136.105 83.0605L136.243 82.2559L132.807 81.6655L132.082 85.8893Z" fill="#009B3A"/>
        <path fill-rule="evenodd" clip-rule="evenodd" d="M141.124 87.6655L141.98 87.8869L142.423 86.1745L144.267 86.6514C144.651 86.7508 145.059 86.6935 145.401 86.492C145.743 86.2906 145.991 85.9615 146.091 85.5772C146.19 85.1929 146.133 84.7849 145.931 84.4429C145.73 84.1009 145.401 83.853 145.017 83.7536L142.382 83.0723L141.124 87.6655ZM142.644 85.3183L144.423 85.7782C144.58 85.8189 144.747 85.7954 144.887 85.713C145.027 85.6306 145.128 85.496 145.169 85.3388C145.209 85.1816 145.186 85.0146 145.104 84.8747C145.021 84.7348 144.886 84.6334 144.729 84.5927L142.951 84.1328L142.644 85.3183Z" fill="#009B3A"/>
        <path fill-rule="evenodd" clip-rule="evenodd" d="M146.966 89.224L147.81 89.4899L148.342 87.8031L150.158 88.3759C150.537 88.4952 150.947 88.4593 151.299 88.276C151.651 88.0928 151.916 87.7771 152.036 87.3986C152.155 87.02 152.119 86.6096 151.936 86.2575C151.753 85.9054 151.437 85.6406 151.058 85.5212L148.463 84.703L146.966 89.224ZM148.608 86.9597L150.359 87.512C150.514 87.5608 150.682 87.5461 150.826 87.4711C150.97 87.3962 151.079 87.267 151.127 87.1122C151.176 86.9573 151.161 86.7894 151.086 86.6454C151.012 86.5013 150.882 86.393 150.728 86.3442L148.976 85.7918L148.608 86.9597Z" fill="#009B3A"/>
        <path d="M150.827 90.4411C151.031 89.7923 151.481 88.365 150.508 88.0582L149.275 87.6695C150.703 88.1195 150.253 89.5469 150.048 90.1956" fill="#009B3A"/>
        <path fill-rule="evenodd" clip-rule="evenodd" d="M154.726 91.8366C155.259 92.0357 155.857 91.9916 156.39 91.7141C156.923 91.4366 157.346 90.9484 157.567 90.3569C157.788 89.7654 157.789 89.1191 157.569 88.5601C157.349 88.0012 156.926 87.5753 156.394 87.3763C155.862 87.1773 155.263 87.2214 154.731 87.4989C154.198 87.7764 153.774 88.2645 153.553 88.856C153.332 89.4475 153.331 90.0938 153.551 90.6528C153.771 91.2118 154.194 91.6376 154.726 91.8366M155.036 91.0083C155.349 91.1252 155.704 91.0896 156.023 90.9094C156.342 90.7291 156.6 90.419 156.739 90.0472C156.878 89.6754 156.887 89.2724 156.764 88.9269C156.642 88.5813 156.397 88.3215 156.084 88.2046C155.772 88.0878 155.417 88.1233 155.097 88.3036C154.778 88.4838 154.52 88.7939 154.381 89.1657C154.242 89.5375 154.233 89.9405 154.356 90.2861C154.479 90.6316 154.723 90.8914 155.036 91.0083" fill="#009B3A"/>
        <mask id="mask1_5_9483" style="mask-type:luminance" maskUnits="userSpaceOnUse" x="158" y="88" width="7" height="7">
            <path d="M158.367 93.2469L160.265 88.8799L164.196 90.5889L162.297 94.9558L158.367 93.2469ZM161.607 91.1693L161.281 91.9179L163.246 92.7723L163.572 92.0237L161.607 91.1693Z" fill="white"/>
        </mask>
        <g mask="url(#mask1_5_9483)">
            <path fill-rule="evenodd" clip-rule="evenodd" d="M160.332 94.1014C160.853 94.328 161.453 94.3153 161.999 94.066C162.546 93.8168 162.994 93.3514 163.246 92.7723C163.498 92.1933 163.532 91.5479 163.342 90.9781C163.152 90.4084 162.752 89.961 162.231 89.7344C161.709 89.5078 161.109 89.5205 160.563 89.7697C160.016 90.019 159.568 90.4843 159.316 91.0634C159.064 91.6425 159.03 92.2879 159.22 92.8576C159.411 93.4274 159.811 93.8747 160.332 94.1014M160.684 93.2904C160.99 93.4234 161.347 93.4065 161.675 93.2432C162.004 93.0799 162.277 92.7837 162.435 92.4197C162.594 92.0557 162.624 91.6537 162.519 91.3022C162.415 90.9507 162.184 90.6785 161.878 90.5454C161.572 90.4123 161.215 90.4293 160.887 90.5926C160.559 90.7558 160.285 91.0521 160.127 91.4161C159.969 91.7801 159.939 92.182 160.043 92.5335C160.148 92.885 160.378 93.1573 160.684 93.2904" fill="#009B3A"/>
        </g>
        <path d="M161.593 92.0535L163.246 92.7723L162.975 93.3962L161.322 92.6773L161.593 92.0535Z" fill="#009B3A"/>
        <path d="M162.622 92.5011L163.246 92.7724L162.297 94.9558L161.673 94.6846L162.622 92.5011Z" fill="#009B3A"/>
        <path fill-rule="evenodd" clip-rule="evenodd" d="M163.893 95.7002L164.685 96.0948L165.474 94.5119L167.178 95.3618C167.534 95.5389 167.945 95.5677 168.321 95.4417C168.698 95.3158 169.008 95.0455 169.186 94.6903C169.363 94.335 169.391 93.924 169.266 93.5476C169.14 93.1712 168.869 92.8602 168.514 92.6831L166.079 91.469L163.893 95.7002ZM165.868 93.7205L167.512 94.54C167.657 94.6125 167.826 94.6243 167.98 94.5727C168.134 94.5212 168.261 94.4106 168.333 94.2653C168.406 94.12 168.417 93.9518 168.366 93.7979C168.314 93.6439 168.204 93.5167 168.059 93.4442L166.415 92.6247L165.868 93.7205Z" fill="#009B3A"/>
        <path d="M167.516 97.5063C167.819 96.8975 168.487 95.5581 167.574 95.1028L166.417 94.5261C167.756 95.1939 167.089 96.5332 166.785 97.142" fill="#009B3A"/>
        <path d="M169.284 98.4394L173.014 100.55L173.449 99.7801L170.43 98.0717L171.033 97.006L173.401 98.3459L173.803 97.6354L171.435 96.2955L171.904 95.4666L174.746 97.0745L175.181 96.3048L171.629 94.2949L169.284 98.4394Z" fill="#009B3A"/>
        <path d="M176.232 100.77C175.976 101.172 176.235 101.62 176.809 101.985C177.383 102.351 177.773 102.337 177.938 102.08C178.459 101.262 175.448 100.07 176.376 98.6444C177.176 97.42 178.545 98.3729 179.062 98.7019C179.578 99.0308 180.407 99.8817 179.762 100.862L178.887 100.305C179.162 99.8745 178.861 99.4609 178.402 99.1685C177.957 98.8852 177.596 98.7559 177.331 99.1719C176.887 99.8369 179.838 101.092 178.933 102.512C178.266 103.559 177.106 103.102 176.331 102.608C175.671 102.188 174.685 101.197 175.328 100.195L176.232 100.77Z" fill="#009B3A"/>
        <path d="M181.34 104.148C181.063 104.536 181.299 104.997 181.853 105.392C182.407 105.787 182.798 105.794 182.976 105.545C183.539 104.756 180.594 103.408 181.596 102.033C182.459 100.852 183.776 101.875 184.275 102.231C184.773 102.586 185.556 103.479 184.861 104.425L184.017 103.822C184.313 103.407 184.034 102.978 183.591 102.662C183.162 102.356 182.808 102.208 182.521 102.61C182.043 103.25 184.925 104.658 183.947 106.029C183.226 107.04 182.091 106.522 181.343 105.989C180.706 105.535 179.774 104.493 180.468 103.526L181.34 104.148Z" fill="#009B3A"/>
        <path fill-rule="evenodd" clip-rule="evenodd" d="M186.171 109.627C186.616 109.981 187.199 110.124 187.791 110.025C188.384 109.926 188.937 109.592 189.331 109.098C189.724 108.604 189.924 107.989 189.887 107.39C189.851 106.79 189.581 106.254 189.136 105.901C188.691 105.547 188.108 105.404 187.516 105.503C186.923 105.602 186.37 105.936 185.977 106.43C185.583 106.924 185.383 107.539 185.42 108.138C185.456 108.738 185.727 109.274 186.171 109.627M186.722 108.935C186.983 109.143 187.332 109.219 187.691 109.146C188.051 109.073 188.391 108.858 188.638 108.547C188.886 108.237 189.019 107.856 189.009 107.49C188.999 107.123 188.846 106.801 188.585 106.593C188.324 106.385 187.975 106.309 187.616 106.382C187.256 106.455 186.916 106.67 186.669 106.981C186.422 107.291 186.288 107.672 186.298 108.038C186.308 108.405 186.461 108.727 186.722 108.935" fill="#009B3A"/>
        <path d="M102.041 88.8776L101.379 90.9155L102.398 91.2466" fill="white"/>
        <path d="M102.041 88.8776L102.703 90.9155L101.684 91.2466" fill="white"/>
        <path d="M104.079 90.3582H101.936V91.4297" fill="white"/>
        <path d="M104.079 90.3582L102.345 91.6178L101.715 90.751" fill="white"/>
        <path d="M100.003 90.3582L101.736 91.6178L102.366 90.751" fill="white"/>
        <path d="M100.003 90.3582H102.146V91.4297" fill="white"/>
        <path d="M103.3 92.754L102.638 90.7161L101.619 91.0471" fill="white"/>
        <path d="M103.3 92.754L101.567 91.4945L102.197 90.6277" fill="white"/>
        <path d="M100.781 92.754L102.515 91.4945L101.885 90.6277" fill="white"/>
        <path d="M100.781 92.754L101.443 90.7161L102.462 91.0471" fill="white"/>
        <path d="M106.463 109.898L105.8 111.936L106.819 112.267" fill="white"/>
        <path d="M106.463 109.898L107.125 111.936L106.106 112.267" fill="white"/>
        <path d="M108.501 111.379H106.358V112.45" fill="white"/>
        <path d="M108.501 111.379L106.767 112.638L106.137 111.771" fill="white"/>
        <path d="M104.425 111.379L106.158 112.638L106.788 111.771" fill="white"/>
        <path d="M104.425 111.379H106.568V112.45" fill="white"/>
        <path d="M107.722 113.774L107.06 111.736L106.041 112.068" fill="white"/>
        <path d="M107.722 113.774L105.989 112.515L106.618 111.648" fill="white"/>
        <path d="M105.203 113.774L106.937 112.515L106.307 111.648" fill="white"/>
        <path d="M105.203 113.774L105.865 111.736L106.884 112.068" fill="white"/>
        <path d="M100.34 114.745L99.7883 116.443L100.637 116.719" fill="white"/>
        <path d="M100.34 114.745L100.892 116.443L100.043 116.719" fill="white"/>
        <path d="M102.038 115.979H100.253V116.872" fill="white"/>
        <path d="M102.038 115.979L100.594 117.028L100.069 116.306" fill="white"/>
        <path d="M98.6418 115.979L100.086 117.028L100.611 116.306" fill="white"/>
        <path d="M98.6418 115.979H100.427V116.872" fill="white"/>
        <path d="M101.39 117.975L100.838 116.277L99.9887 116.553" fill="white"/>
        <path d="M101.39 117.975L99.945 116.926L100.47 116.203" fill="white"/>
        <path d="M99.2905 117.975L100.735 116.926L100.21 116.203" fill="white"/>
        <path d="M99.2905 117.975L99.8423 116.277L100.691 116.553" fill="white"/>
        <path d="M111.36 107.959L111.045 108.93L111.53 109.087" fill="white"/>
        <path d="M111.36 107.959L111.676 108.93L111.191 109.087" fill="white"/>
        <path d="M112.331 108.664H111.311V109.174" fill="white"/>
        <path d="M112.331 108.664L111.505 109.264L111.206 108.851" fill="white"/>
        <path d="M110.39 108.664L111.216 109.264L111.515 108.851" fill="white"/>
        <path d="M110.39 108.664H111.41V109.174" fill="white"/>
        <path d="M111.96 109.805L111.645 108.835L111.16 108.992" fill="white"/>
        <path d="M111.96 109.805L111.135 109.205L111.435 108.793" fill="white"/>
        <path d="M110.761 109.805L111.586 109.205L111.286 108.793" fill="white"/>
        <path d="M110.761 109.805L111.076 108.835L111.561 108.992" fill="white"/>
        <path d="M116.871 115.221L116.319 116.919L117.168 117.195" fill="white"/>
        <path d="M116.871 115.221L117.423 116.919L116.573 117.195" fill="white"/>
        <path d="M118.569 116.455H116.783V117.348" fill="white"/>
        <path d="M118.569 116.455L117.124 117.505L116.6 116.782" fill="white"/>
        <path d="M115.172 116.455L116.617 117.505L117.142 116.782" fill="white"/>
        <path d="M115.172 116.455H116.958V117.348" fill="white"/>
        <path d="M117.92 118.451L117.368 116.753L116.519 117.029" fill="white"/>
        <path d="M117.92 118.451L116.476 117.402L117 116.68" fill="white"/>
        <path d="M115.821 118.452L117.266 117.402L116.741 116.68" fill="white"/>
        <path d="M115.821 118.452L116.373 116.753L117.222 117.029" fill="white"/>
        <path d="M115.374 120.544L114.933 121.903L115.612 122.124" fill="white"/>
        <path d="M115.374 120.544L115.816 121.903L115.136 122.124" fill="white"/>
        <path d="M116.733 121.531H115.304V122.246" fill="white"/>
        <path d="M116.733 121.531L115.577 122.371L115.157 121.793" fill="white"/>
        <path d="M114.016 121.531L115.171 122.371L115.591 121.793" fill="white"/>
        <path d="M114.016 121.531H115.444V122.246" fill="white"/>
        <path d="M116.214 123.129L115.772 121.77L115.093 121.991" fill="white"/>
        <path d="M116.214 123.129L115.058 122.289L115.478 121.711" fill="white"/>
        <path d="M114.534 123.129L115.69 122.289L115.27 121.711" fill="white"/>
        <path d="M114.534 123.129L114.976 121.77L115.655 121.991" fill="white"/>
        <path d="M158.367 82.3469L157.705 84.3849L158.724 84.716" fill="white"/>
        <path d="M158.367 82.3469L159.03 84.3849L158.011 84.716" fill="white"/>
        <path d="M160.405 83.8276H158.263V84.899" fill="white"/>
        <path d="M160.405 83.8276L158.672 85.0871L158.042 84.2203" fill="white"/>
        <path d="M156.329 83.8276L158.063 85.0871L158.693 84.2203" fill="white"/>
        <path d="M156.329 83.8276H158.472V84.899" fill="white"/>
        <path d="M159.627 86.2234L158.965 84.1854L157.946 84.5165" fill="white"/>
        <path d="M159.627 86.2234L157.893 84.9638L158.523 84.097" fill="white"/>
        <path d="M157.108 86.2234L158.842 84.9638L158.212 84.097" fill="white"/>
        <path d="M157.108 86.2234L157.77 84.1854L158.789 84.5165" fill="white"/>
        <path d="M177.891 115.408L177.229 117.446L178.248 117.777" fill="white"/>
        <path d="M177.891 115.408L178.553 117.446L177.534 117.777" fill="white"/>
        <path d="M179.929 116.889H177.786V117.96" fill="white"/>
        <path d="M179.929 116.889L178.196 118.148L177.566 117.282" fill="white"/>
        <path d="M175.853 116.889L177.587 118.148L178.217 117.282" fill="white"/>
        <path d="M175.853 116.889H177.996V117.96" fill="white"/>
        <path d="M179.151 119.285L178.489 117.247L177.47 117.578" fill="white"/>
        <path d="M179.151 119.285L177.417 118.025L178.047 117.158" fill="white"/>
        <path d="M176.632 119.285L178.365 118.025L177.736 117.158" fill="white"/>
        <path d="M176.632 119.285L177.294 117.247L178.313 117.578" fill="white"/>
        <path d="M184.83 116.599L184.389 117.957L185.068 118.178" fill="white"/>
        <path d="M184.83 116.599L185.271 117.957L184.592 118.178" fill="white"/>
        <path d="M186.189 117.586H184.76V118.3" fill="white"/>
        <path d="M186.189 117.586L185.033 118.425L184.613 117.848" fill="white"/>
        <path d="M183.471 117.586L184.627 118.425L185.047 117.848" fill="white"/>
        <path d="M183.471 117.586H184.9V118.3" fill="white"/>
        <path d="M185.67 119.183L185.228 117.824L184.549 118.045" fill="white"/>
        <path d="M185.67 119.183L184.514 118.343L184.934 117.765" fill="white"/>
        <path d="M183.99 119.183L185.146 118.343L184.726 117.765" fill="white"/>
        <path d="M183.99 119.183L184.432 117.824L185.111 118.045" fill="white"/>
        <path d="M179.932 120.187L179.38 121.885L180.229 122.161" fill="white"/>
        <path d="M179.932 120.187L180.484 121.885L179.635 122.161" fill="white"/>
        <path d="M181.63 121.421H179.845V122.314" fill="white"/>
        <path d="M181.63 121.421L180.186 122.471L179.661 121.748" fill="white"/>
        <path d="M178.234 121.421L179.678 122.471L180.203 121.748" fill="white"/>
        <path d="M178.234 121.421H180.019V122.314" fill="white"/>
        <path d="M180.982 123.417L180.43 121.719L179.581 121.995" fill="white"/>
        <path d="M180.982 123.417L179.537 122.368L180.062 121.645" fill="white"/>
        <path d="M178.882 123.417L180.327 122.368L179.802 121.646" fill="white"/>
        <path d="M178.882 123.417L179.434 121.719L180.283 121.995" fill="white"/>
        <path d="M167.891 130.663L167.339 132.362L168.188 132.637" fill="white"/>
        <path d="M167.891 130.663L168.443 132.362L167.594 132.637" fill="white"/>
        <path d="M169.589 131.897H167.804V132.79" fill="white"/>
        <path d="M169.589 131.897L168.145 132.947L167.62 132.224" fill="white"/>
        <path d="M166.193 131.897L167.638 132.947L168.162 132.224" fill="white"/>
        <path d="M166.193 131.897H167.979V132.79" fill="white"/>
        <path d="M168.941 133.894L168.389 132.195L167.54 132.471" fill="white"/>
        <path d="M168.941 133.894L167.496 132.844L168.021 132.122" fill="white"/>
        <path d="M166.842 133.894L168.286 132.844L167.761 132.122" fill="white"/>
        <path d="M166.842 133.894L167.393 132.195L168.243 132.471" fill="white"/>
        <path d="M167.823 136.054L167.382 137.413L168.061 137.634" fill="white"/>
        <path d="M167.823 136.054L168.265 137.413L167.585 137.634" fill="white"/>
        <path d="M169.182 137.042H167.753V137.756" fill="white"/>
        <path d="M169.182 137.042L168.026 137.881L167.606 137.303" fill="white"/>
        <path d="M166.464 137.042L167.62 137.881L168.04 137.303" fill="white"/>
        <path d="M166.464 137.042H167.893V137.756" fill="white"/>
        <path d="M168.663 138.639L168.221 137.28L167.542 137.501" fill="white"/>
        <path d="M168.663 138.639L167.507 137.799L167.927 137.221" fill="white"/>
        <path d="M166.983 138.639L168.139 137.799L167.719 137.221" fill="white"/>
        <path d="M166.983 138.639L167.425 137.28L168.104 137.501" fill="white"/>
        <path d="M172.857 127.075L172.416 128.433L173.095 128.654" fill="white"/>
        <path d="M172.857 127.075L173.299 128.433L172.619 128.654" fill="white"/>
        <path d="M174.216 128.062H172.787V128.776" fill="white"/>
        <path d="M174.216 128.062L173.06 128.902L172.64 128.324" fill="white"/>
        <path d="M171.499 128.062L172.654 128.902L173.074 128.324" fill="white"/>
        <path d="M171.499 128.062H172.927V128.776" fill="white"/>
        <path d="M173.697 129.659L173.255 128.3L172.576 128.521" fill="white"/>
        <path d="M173.697 129.659L172.541 128.819L172.961 128.242" fill="white"/>
        <path d="M172.017 129.659L173.173 128.819L172.753 128.242" fill="white"/>
        <path d="M172.017 129.659L172.459 128.3L173.138 128.521" fill="white"/>
        <path d="M176.871 124.201L176.319 125.899L177.168 126.175" fill="white"/>
        <path d="M176.871 124.201L177.423 125.899L176.573 126.175" fill="white"/>
        <path d="M178.569 125.435H176.783V126.327" fill="white"/>
        <path d="M178.569 125.435L177.124 126.484L176.6 125.762" fill="white"/>
        <path d="M175.172 125.435L176.617 126.484L177.142 125.762" fill="white"/>
        <path d="M175.172 125.435H176.958V126.327" fill="white"/>
        <path d="M177.92 127.431L177.368 125.733L176.519 126.009" fill="white"/>
        <path d="M177.92 127.431L176.476 126.381L177 125.659" fill="white"/>
        <path d="M175.821 127.431L177.266 126.381L176.741 125.659" fill="white"/>
        <path d="M175.821 127.431L176.373 125.733L177.222 126.009" fill="white"/>
        <path d="M167.687 126.122L167.246 127.481L167.925 127.702" fill="white"/>
        <path d="M167.687 126.122L168.129 127.481L167.449 127.702" fill="white"/>
        <path d="M169.046 127.11H167.617V127.824" fill="white"/>
        <path d="M169.046 127.11L167.89 127.949L167.47 127.371" fill="white"/>
        <path d="M166.328 127.11L167.484 127.949L167.904 127.371" fill="white"/>
        <path d="M166.328 127.11H167.757V127.824" fill="white"/>
        <path d="M168.527 128.707L168.085 127.348L167.406 127.569" fill="white"/>
        <path d="M168.527 128.707L167.371 127.867L167.791 127.289" fill="white"/>
        <path d="M166.847 128.707L168.003 127.867L167.583 127.289" fill="white"/>
        <path d="M166.847 128.707L167.289 127.348L167.968 127.569" fill="white"/>
        <path d="M123.809 100.255L123.258 101.953L124.107 102.229" fill="white"/>
        <path d="M123.809 100.255L124.361 101.953L123.512 102.229" fill="white"/>
        <path d="M125.508 101.489H123.722V102.382" fill="white"/>
        <path d="M125.508 101.489L124.063 102.539L123.538 101.816" fill="white"/>
        <path d="M122.111 101.489L123.556 102.539L124.081 101.816" fill="white"/>
        <path d="M122.111 101.489H123.897V102.382" fill="white"/>
        <path d="M124.859 103.485L124.307 101.787L123.458 102.063" fill="white"/>
        <path d="M124.859 103.485L123.414 102.436L123.939 101.714" fill="white"/>
        <path d="M122.76 103.485L124.205 102.436L123.68 101.714" fill="white"/>
        <path d="M122.76 103.485L123.312 101.787L124.161 102.063" fill="white"/>
        <path d="M156.463 96.0544L156.021 97.4131L156.701 97.6338" fill="white"/>
        <path d="M156.463 96.0544L156.904 97.4131L156.225 97.6338" fill="white"/>
        <path d="M157.821 97.0415H156.393V97.7558" fill="white"/>
        <path d="M157.821 97.0415L156.666 97.8812L156.246 97.3034" fill="white"/>
        <path d="M155.104 97.0415L156.26 97.8812L156.68 97.3034" fill="white"/>
        <path d="M155.104 97.0415H156.533V97.7558" fill="white"/>
        <path d="M157.302 98.6387L156.861 97.2801L156.182 97.5008" fill="white"/>
        <path d="M157.302 98.6387L156.147 97.799L156.566 97.2212" fill="white"/>
        <path d="M155.623 98.6387L156.779 97.799L156.359 97.2212" fill="white"/>
        <path d="M155.623 98.6387L156.064 97.2801L156.744 97.5008" fill="white"/>
        <path d="M142.857 120.306L142.195 122.344L143.214 122.675" fill="white"/>
        <path d="M142.857 120.306L143.519 122.344L142.5 122.675" fill="white"/>
        <path d="M144.895 121.787H142.752V122.858" fill="white"/>
        <path d="M144.895 121.787L143.162 123.046L142.532 122.18" fill="white"/>
        <path d="M140.819 121.787L142.553 123.046L143.183 122.18" fill="white"/>
        <path d="M140.819 121.787H142.962V122.858" fill="white"/>
        <path d="M144.117 124.183L143.455 122.145L142.436 122.476" fill="white"/>
        <path d="M144.117 124.183L142.383 122.923L143.013 122.056" fill="white"/>
        <path d="M141.598 124.183L143.331 122.923L142.701 122.056" fill="white"/>
        <path d="M141.598 124.183L142.26 122.145L143.279 122.476" fill="white"/>
        <path d="M148.639 110.731L148.088 112.43L148.937 112.706" fill="white"/>
        <path d="M148.639 110.731L149.191 112.43L148.342 112.706" fill="white"/>
        <path d="M150.338 111.965H148.552V112.858" fill="white"/>
        <path d="M150.338 111.965L148.893 113.015L148.368 112.292" fill="white"/>
        <path d="M146.941 111.965L148.386 113.015L148.911 112.292" fill="white"/>
        <path d="M146.941 111.965H148.727V112.858" fill="white"/>
        <path d="M149.689 113.962L149.137 112.263L148.288 112.539" fill="white"/>
        <path d="M149.689 113.962L148.244 112.912L148.769 112.19" fill="white"/>
        <path d="M147.59 113.962L149.034 112.912L148.51 112.19" fill="white"/>
        <path d="M147.59 113.962L148.142 112.263L148.991 112.539" fill="white"/>
        <path d="M142.857 106.242L142.305 107.94L143.155 108.216" fill="white"/>
        <path d="M142.857 106.242L143.409 107.94L142.56 108.216" fill="white"/>
        <path d="M144.556 107.475H142.77V108.368" fill="white"/>
        <path d="M144.556 107.475L143.111 108.525L142.586 107.803" fill="white"/>
        <path d="M141.159 107.475L142.604 108.525L143.128 107.803" fill="white"/>
        <path d="M141.159 107.475H142.945V108.368" fill="white"/>
        <path d="M143.907 109.472L143.355 107.774L142.506 108.049" fill="white"/>
        <path d="M143.907 109.472L142.462 108.422L142.987 107.7" fill="white"/>
        <path d="M141.808 109.472L143.252 108.422L142.727 107.7" fill="white"/>
        <path d="M141.808 109.472L142.359 107.774L143.209 108.05" fill="white"/>
        <path d="M137.823 111.088L137.382 112.447L138.061 112.668" fill="white"/>
        <path d="M137.823 111.088L138.265 112.447L137.585 112.668" fill="white"/>
        <path d="M139.182 112.076H137.753V112.79" fill="white"/>
        <path d="M139.182 112.076L138.026 112.915L137.606 112.337" fill="white"/>
        <path d="M136.464 112.076L137.62 112.915L138.04 112.337" fill="white"/>
        <path d="M136.464 112.076H137.893V112.79" fill="white"/>
        <path d="M138.663 113.673L138.221 112.314L137.542 112.535" fill="white"/>
        <path d="M138.663 113.673L137.507 112.833L137.927 112.255" fill="white"/>
        <path d="M136.983 113.673L138.139 112.833L137.719 112.255" fill="white"/>
        <path d="M136.983 113.673L137.425 112.314L138.104 112.535" fill="white"/>
        <path d="M140.34 114.966L140.025 115.936L140.51 116.094" fill="white"/>
        <path d="M140.34 114.966L140.655 115.936L140.17 116.094" fill="white"/>
        <path d="M141.311 115.671H140.29V116.181" fill="white"/>
        <path d="M141.311 115.671L140.485 116.271L140.185 115.858" fill="white"/>
        <path d="M139.37 115.671L140.195 116.271L140.495 115.858" fill="white"/>
        <path d="M139.37 115.671H140.39V116.181" fill="white"/>
        <path d="M140.94 116.812L140.625 115.841L140.139 115.999" fill="white"/>
        <path d="M140.94 116.812L140.114 116.212L140.414 115.799" fill="white"/>
        <path d="M139.74 116.812L140.566 116.212L140.266 115.799" fill="white"/>
        <path d="M139.74 116.812L140.056 115.841L140.541 115.999" fill="white"/>
        <path d="M157.823 131.888L157.271 133.586L158.12 133.862" fill="white"/>
        <path d="M157.823 131.888L158.375 133.586L157.526 133.862" fill="white"/>
        <path d="M159.521 133.122H157.736V134.015" fill="white"/>
        <path d="M159.521 133.122L158.077 134.171L157.552 133.449" fill="white"/>
        <path d="M156.125 133.122L157.57 134.171L158.094 133.449" fill="white"/>
        <path d="M156.125 133.122H157.911V134.015" fill="white"/>
        <path d="M158.873 135.118L158.321 133.42L157.472 133.696" fill="white"/>
        <path d="M158.873 135.118L157.428 134.069L157.953 133.346" fill="white"/>
        <path d="M156.773 135.118L158.218 134.069L157.693 133.346" fill="white"/>
        <path d="M156.773 135.118L157.325 133.42L158.174 133.696" fill="white"/>
        <path d="M162.109 127.823L161.667 129.182L162.347 129.402" fill="white"/>
        <path d="M162.109 127.823L162.55 129.182L161.871 129.402" fill="white"/>
        <path d="M163.468 128.81H162.039V129.525" fill="white"/>
        <path d="M163.468 128.81L162.312 129.65L161.892 129.072" fill="white"/>
        <path d="M160.75 128.81L161.906 129.65L162.326 129.072" fill="white"/>
        <path d="M160.75 128.81H162.179V129.525" fill="white"/>
        <path d="M162.949 130.407L162.507 129.049L161.828 129.27" fill="white"/>
        <path d="M162.949 130.407L161.793 129.568L162.213 128.99" fill="white"/>
        <path d="M161.269 130.407L162.425 129.568L162.005 128.99" fill="white"/>
        <path d="M161.269 130.407L161.711 129.049L162.39 129.27" fill="white"/>
        <path d="M153.878 126.599L153.436 127.957L154.115 128.178" fill="white"/>
        <path d="M153.878 126.599L154.319 127.957L153.64 128.178" fill="white"/>
        <path d="M155.236 127.586H153.808V128.3" fill="white"/>
        <path d="M155.236 127.586L154.08 128.425L153.661 127.848" fill="white"/>
        <path d="M152.519 127.586L153.675 128.425L154.095 127.848" fill="white"/>
        <path d="M152.519 127.586H153.947V128.3" fill="white"/>
        <path d="M154.717 129.183L154.276 127.824L153.597 128.045" fill="white"/>
        <path d="M154.717 129.183L153.562 128.343L153.981 127.765" fill="white"/>
        <path d="M153.038 129.183L154.194 128.343L153.774 127.765" fill="white"/>
        <path d="M153.038 129.183L153.479 127.824L154.159 128.045" fill="white"/>
        <path d="M122.789 124.388L122.127 126.426L123.146 126.757" fill="white"/>
        <path d="M122.789 124.388L123.451 126.426L122.432 126.757" fill="white"/>
        <path d="M124.827 125.868H122.684V126.94" fill="white"/>
        <path d="M124.827 125.868L123.094 127.128L122.464 126.261" fill="white"/>
        <path d="M120.751 125.868L122.485 127.128L123.115 126.261" fill="white"/>
        <path d="M120.751 125.868H122.894V126.94" fill="white"/>
        <path d="M124.049 128.264L123.387 126.226L122.368 126.557" fill="white"/>
        <path d="M124.049 128.264L122.315 127.005L122.945 126.138" fill="white"/>
        <path d="M121.53 128.264L123.263 127.005L122.634 126.138" fill="white"/>
        <path d="M121.53 128.264L122.192 126.226L123.211 126.557" fill="white"/>
        <path d="M142.857 138.401L142.636 139.081L142.976 139.191" fill="white"/>
        <path d="M142.857 138.401L143.078 139.081L142.738 139.191" fill="white"/>
        <path d="M143.536 138.895H142.822V139.252" fill="white"/>
        <path d="M143.536 138.895L142.959 139.315L142.749 139.026" fill="white"/>
        <path d="M142.178 138.895L142.756 139.315L142.966 139.026" fill="white"/>
        <path d="M142.178 138.895H142.892V139.252" fill="white"/>
        <path d="M143.277 139.694L143.056 139.014L142.717 139.125" fill="white"/>
        <path d="M143.277 139.694L142.699 139.274L142.909 138.985" fill="white"/>
        <path d="M142.437 139.694L143.015 139.274L142.805 138.985" fill="white"/>
        <path d="M142.437 139.694L142.658 139.014L142.998 139.125" fill="white"/>
    </g>
    <defs>
        <clipPath id="clip0_5_9483">
            <rect width="285.714" height="200" fill="white"/>
        </clipPath>
    </defs>
</svg>
