<?xml version='1.0' encoding='us-ascii'?>
<svg xmlns="http://www.w3.org/2000/svg" width="300" height="200" viewBox="0 0 300 200" fill="none">
    <g clip-path="url(#clip0_12_12186)">
        <path fill-rule="evenodd" clip-rule="evenodd" d="M159.12 131.02C144.015 130.565 74.7504 87.3299 74.2754 80.4449L78.1004 74.0664C84.9704 84.0494 155.78 126.096 162.735 124.606L159.12 131.018" fill="#FFFF00" />
        <path d="M159.12 131.02C144.015 130.565 74.7504 87.3299 74.2754 80.4449L78.1004 74.0664C84.9704 84.0494 155.78 126.096 162.735 124.606L159.12 131.018" stroke="black" stroke-width="0.19099999999999998" stroke-linecap="round" stroke-linejoin="round" />
        <path fill-rule="evenodd" clip-rule="evenodd" d="M77.2947 73.1999C75.9397 76.8469 95.3692 88.8589 118.746 103.077C142.122 117.294 162.279 126.08 163.773 124.82C163.864 124.657 164.508 123.55 164.449 123.558C164.169 123.98 163.487 124.113 162.424 123.807C156.108 121.985 139.636 114.424 119.236 102.054C98.8372 89.6824 81.0892 78.2819 78.3312 73.4379C78.1392 73.1024 78.0022 72.4899 78.0302 72.0139L77.9632 72.0129L77.3757 73.0394L77.2952 73.2004H77.2947V73.1999ZM159.475 131.22C159.219 131.685 158.741 131.7 157.834 131.6C152.184 130.975 135.039 122.638 114.753 110.494C91.1477 96.3639 71.6527 83.4889 73.7677 80.1239L74.3432 79.1069L74.4567 79.1419C72.5547 84.8444 112.931 107.931 115.308 109.403C138.67 123.876 158.365 132.328 160.108 130.132L159.474 131.222V131.221L159.475 131.22Z" fill="#FFFF00" stroke="black" stroke-width="0.19099999999999998" stroke-linecap="round" stroke-linejoin="round" />
        <path fill-rule="evenodd" clip-rule="evenodd" d="M120.085 84.615C135.204 84.4955 153.86 82.549 164.597 78.27L162.283 74.5115C155.937 78.024 137.178 80.3335 119.957 80.679C99.5892 80.4915 85.2122 78.595 78.0087 73.7615L75.8252 77.764C89.0672 83.3675 102.637 84.5575 120.085 84.6155" fill="#FFFF00" />
        <path d="M120.085 84.615C135.204 84.4955 153.86 82.549 164.597 78.27L162.283 74.5115C155.937 78.024 137.178 80.3335 119.957 80.679C99.5892 80.4915 85.2122 78.595 78.0087 73.7615L75.8252 77.764C89.0672 83.3675 102.637 84.5575 120.085 84.6155" stroke="black" stroke-width="0.19099999999999998" stroke-linecap="round" stroke-linejoin="round" />
        <path fill-rule="evenodd" clip-rule="evenodd" d="M165.22 78.355C164.85 78.946 157.848 81.3605 147.533 83.1425C140.539 84.209 131.416 85.1205 120.031 85.1315C109.215 85.1415 100.379 84.3715 93.6894 83.465C82.8614 81.767 77.2729 79.405 75.2069 78.57C75.4044 78.1775 75.5319 77.9015 75.7219 77.535C81.6694 79.903 87.2839 81.3305 93.8619 82.3425C100.507 83.2425 109.237 84.0235 119.999 84.0135C131.331 84.002 140.354 83.0215 147.307 81.987C157.885 80.281 163.663 78.085 164.474 77.0655L165.221 78.355H165.22H165.22ZM163.19 74.5435C162.043 75.4645 156.331 77.4905 146.28 79.0955C139.573 80.0565 131.044 80.917 120.148 80.9275C109.796 80.9375 101.338 80.24 94.9054 79.303C84.6984 77.97 79.2654 75.5655 77.3074 74.8645C77.5024 74.5275 77.7004 74.193 77.9044 73.8575C79.4284 74.625 84.6709 76.753 95.0174 78.219C101.377 79.1205 109.847 79.7925 120.148 79.782C130.993 79.771 139.425 78.894 146.09 77.938C156.192 76.548 161.628 73.964 162.454 73.3175L163.19 74.5425V74.544L163.19 74.5435ZM70.4399 102.83C79.7389 107.832 100.392 110.352 119.937 110.526C137.732 110.554 160.916 107.775 169.585 103.181L169.347 98.1745C166.634 102.413 141.79 106.479 119.744 106.313C97.6974 106.146 77.2249 102.741 70.4004 98.333L70.4404 102.829" fill="#FFFF00" />
        <path d="M70.4399 102.83C79.7389 107.832 100.392 110.352 119.937 110.526C137.732 110.554 160.916 107.775 169.585 103.181L169.347 98.1745C166.634 102.413 141.79 106.479 119.744 106.313C97.6974 106.146 77.2249 102.741 70.4004 98.333L70.4404 102.829M165.22 78.355C164.85 78.946 157.848 81.3605 147.533 83.1425C140.539 84.209 131.416 85.1205 120.031 85.1315C109.215 85.1415 100.379 84.3715 93.6894 83.465C82.8614 81.767 77.2729 79.405 75.2069 78.57C75.4044 78.1775 75.5319 77.9015 75.7219 77.535C81.6694 79.903 87.2839 81.3305 93.8619 82.3425C100.507 83.2425 109.237 84.0235 119.999 84.0135C131.331 84.002 140.354 83.0215 147.307 81.987C157.885 80.281 163.663 78.085 164.474 77.0655L165.221 78.355H165.22H165.22ZM163.19 74.5435C162.043 75.4645 156.331 77.4905 146.28 79.0955C139.573 80.0565 131.044 80.917 120.148 80.9275C109.796 80.9375 101.338 80.24 94.9054 79.303C84.6984 77.97 79.2654 75.5655 77.3074 74.8645C77.5024 74.5275 77.7004 74.193 77.9044 73.8575C79.4284 74.625 84.6709 76.753 95.0174 78.219C101.377 79.1205 109.847 79.7925 120.148 79.782C130.993 79.771 139.425 78.894 146.09 77.938C156.192 76.548 161.628 73.964 162.454 73.3175L163.19 74.5425V74.544L163.19 74.5435Z" stroke="black" stroke-width="0.19099999999999998" stroke-linecap="round" stroke-linejoin="round" />
        <path fill-rule="evenodd" clip-rule="evenodd" d="M170.06 102.11V103.304C168.757 104.862 160.587 107.217 150.342 108.875C142.544 110.07 132.378 110.972 119.711 110.972C107.676 110.972 98.0794 110.114 90.6369 108.972C78.8719 107.258 71.3469 104.258 69.8369 103.363L69.8434 101.97C74.3809 104.987 86.6739 107.194 90.8019 107.869C98.1959 109.004 107.736 109.856 119.71 109.856C132.318 109.856 142.427 108.96 150.176 107.773C157.526 106.711 167.998 103.95 170.059 102.111L170.06 102.11ZM170.065 97.864V99.0575C168.762 100.615 160.592 102.97 150.347 104.628C142.549 105.823 132.383 106.725 119.716 106.725C107.681 106.725 98.0844 105.868 90.6419 104.724C78.8769 103.012 71.3519 100.012 69.8419 99.116L69.8484 97.7235C74.3859 100.74 86.6789 102.947 90.8069 103.622C98.2009 104.758 107.741 105.61 119.715 105.61C132.323 105.61 142.432 104.714 150.181 103.525C157.531 102.463 168.003 99.7015 170.064 97.863L170.065 97.864ZM119.895 130.16C98.5089 130.033 80.1844 124.331 76.3149 123.388L79.1364 127.805C85.9714 130.68 103.848 134.965 120.1 134.491C136.352 134.017 150.555 132.758 160.564 127.886L163.457 123.308C156.636 126.52 133.423 130.127 119.895 130.16Z" fill="#FFFF00" stroke="black" stroke-width="0.19099999999999998" stroke-linecap="round" stroke-linejoin="round" />
        <path fill-rule="evenodd" clip-rule="evenodd" d="M161.65 126.86C161.229 127.506 160.796 128.144 160.352 128.775C155.631 130.439 148.192 132.187 145.054 132.696C138.642 134.018 128.721 134.993 119.917 134.998C100.972 134.721 85.4645 131.012 78.169 127.848L77.58 126.836L77.6765 126.684L78.6745 127.071C91.6485 131.713 106.22 133.565 120.023 133.897C128.792 133.928 137.571 132.892 144.669 131.623C155.555 129.442 159.956 127.798 161.307 127.053L161.65 126.86ZM164.159 122.722L164.192 122.761C163.869 123.307 163.541 123.851 163.21 124.392C160.693 125.292 153.859 127.291 143.881 128.687C137.306 129.582 133.22 130.45 120.141 130.704C95.634 130.08 79.7665 125.288 75.997 124.106L75.4385 123.035C89.6415 126.742 104.149 129.331 120.142 129.595C132.107 129.34 137.198 128.459 143.718 127.57C155.353 125.761 161.216 123.845 162.976 123.292C162.952 123.258 162.926 123.225 162.899 123.192L164.16 122.721L164.159 122.722H164.159Z" fill="#FFFF00" stroke="black" stroke-width="0.18333333333333335" stroke-linecap="round" stroke-linejoin="round" />
        <path fill-rule="evenodd" clip-rule="evenodd" d="M164.415 98.88C164.485 112.948 157.285 125.573 151.486 131.142C143.282 139.022 132.405 144.09 119.702 144.324C105.517 144.584 92.1419 135.337 88.5544 131.274C81.5404 123.332 75.8299 113.246 75.6469 99.653C76.5159 84.2985 82.5434 73.603 91.2809 66.2685C100.018 58.934 111.652 55.362 121.341 55.6175C132.52 55.9125 145.579 61.3965 154.602 72.2835C160.513 79.4165 163.073 87.1575 164.415 98.88ZM119.822 50.709C147.065 50.709 169.47 72.878 169.47 100.06C169.47 127.242 147.065 149.412 119.822 149.412C92.5798 149.412 70.3604 127.243 70.3604 100.06C70.3604 72.878 92.5798 50.709 119.822 50.709Z" fill="#FFFF00" stroke="black" stroke-width="0.19099999999999998" stroke-linecap="round" stroke-linejoin="round" />
        <path fill-rule="evenodd" clip-rule="evenodd" d="M119.955 50.5399C147.222 50.5399 169.46 72.7814 169.46 100.051C169.46 127.32 147.221 149.561 119.955 149.561C92.6877 149.561 70.4492 127.32 70.4492 100.051C70.4492 72.7814 92.6882 50.5399 119.955 50.5399ZM71.5387 100.051C71.5387 126.681 93.4067 148.472 119.955 148.472C146.503 148.472 168.371 126.681 168.371 100.051C168.371 73.4199 146.503 51.6289 119.955 51.6289C93.4067 51.6289 71.5387 73.4209 71.5387 100.051Z" fill="#FFFF00" stroke="black" stroke-width="0.19099999999999998" stroke-linecap="round" stroke-linejoin="round" />
        <path fill-rule="evenodd" clip-rule="evenodd" d="M119.995 54.6549C144.86 54.6549 165.341 75.0654 165.341 100.007C165.341 124.949 144.86 145.358 119.995 145.358C95.1299 145.358 74.6484 124.949 74.6484 100.007C74.6484 75.0654 95.1304 54.6549 119.995 54.6549ZM75.7374 100.006C75.7374 124.349 95.7269 144.268 119.995 144.268C144.263 144.268 164.252 124.349 164.252 100.006C164.252 75.6634 144.263 55.7439 119.995 55.7439C95.7269 55.7439 75.7374 75.6639 75.7374 100.006Z" fill="#FFFF00" stroke="black" stroke-width="0.19099999999999998" stroke-linecap="round" stroke-linejoin="round" />
        <path fill-rule="evenodd" clip-rule="evenodd" d="M121.99 50.34H117.747L117.752 149.82H122.009L121.99 50.34Z" fill="#FFFF00" stroke="black" stroke-width="0.19099999999999998" stroke-linecap="round" stroke-linejoin="round" />
        <path fill-rule="evenodd" clip-rule="evenodd" d="M121.565 49.7729H122.645L122.654 150.398H121.573L121.565 49.7729ZM117.354 49.7739H118.442L118.444 150.399H117.355V49.7739H117.354Z" fill="#FFFF00" stroke="black" stroke-width="0.19099999999999998" stroke-linecap="round" stroke-linejoin="round" />
        <path fill-rule="evenodd" clip-rule="evenodd" d="M169.495 101.967V98.29L166.5 95.5L149.5 91L125 88.5L95.4998 90L74.4998 95L70.2598 98.14V101.818L80.9998 97L106.5 93H131L149 95L161.5 98L169.495 101.967Z" fill="#FFFF00" stroke="black" stroke-width="0.19099999999999998" stroke-linecap="round" stroke-linejoin="round" />
        <path fill-rule="evenodd" clip-rule="evenodd" d="M119.975 92.385C131.667 92.3635 143.01 93.4925 152.008 95.245C161.292 97.101 167.826 99.4225 170.06 102.03L170.058 103.321C167.364 100.076 158.571 97.6975 151.799 96.3375C142.87 94.6005 131.602 93.479 119.975 93.5005C107.706 93.5235 96.2815 94.6855 87.483 96.402C80.423 97.803 71.0075 100.586 69.832 103.331V101.986C70.4775 100.086 77.4885 97.247 87.324 95.278C96.1885 93.5495 107.634 92.4075 119.975 92.385ZM119.98 88.139C131.672 88.118 143.015 89.2475 152.013 90.999C161.297 92.8555 167.831 95.1765 170.065 97.784L170.063 99.0755C167.369 95.831 158.576 93.452 151.804 92.0925C142.875 90.3545 131.607 89.233 119.98 89.2555C107.711 89.2775 96.342 90.4405 87.5425 92.156C80.7295 93.448 70.9295 96.341 69.8365 99.086V97.741C70.482 95.861 77.635 92.92 87.329 91.0325C96.1935 89.3035 107.639 88.1625 119.98 88.139ZM119.74 66.48C138.165 66.388 154.235 69.056 161.588 72.8225L164.27 77.462C157.879 74.018 140.542 70.437 119.767 70.9725C102.84 71.0765 84.7535 72.836 75.679 77.6775L78.8805 72.323C86.328 68.461 103.892 66.5015 119.741 66.481" fill="#FFFF00" />
        <path d="M119.74 66.48C138.165 66.388 154.235 69.056 161.588 72.8225L164.27 77.462C157.879 74.018 140.542 70.437 119.767 70.9725C102.84 71.0765 84.7535 72.836 75.679 77.6775L78.8805 72.323C86.328 68.461 103.892 66.5015 119.741 66.481M119.975 92.385C131.667 92.3635 143.01 93.4925 152.008 95.245C161.292 97.101 167.826 99.4225 170.06 102.03L170.058 103.321C167.364 100.076 158.571 97.6975 151.799 96.3375C142.87 94.6005 131.602 93.479 119.975 93.5005C107.706 93.5235 96.2815 94.6855 87.483 96.402C80.423 97.803 71.0075 100.586 69.832 103.331V101.986C70.4775 100.086 77.4885 97.247 87.324 95.278C96.1885 93.5495 107.634 92.4075 119.975 92.385ZM119.98 88.139C131.672 88.118 143.015 89.2475 152.013 90.999C161.297 92.8555 167.831 95.1765 170.065 97.784L170.063 99.0755C167.369 95.831 158.576 93.452 151.804 92.0925C142.875 90.3545 131.607 89.233 119.98 89.2555C107.711 89.2775 96.342 90.4405 87.5425 92.156C80.7295 93.448 70.9295 96.341 69.8365 99.086V97.741C70.482 95.861 77.635 92.92 87.329 91.0325C96.1935 89.3035 107.639 88.1625 119.98 88.139Z" stroke="black" stroke-width="0.19099999999999998" stroke-linecap="round" stroke-linejoin="round" />
        <path fill-rule="evenodd" clip-rule="evenodd" d="M119.985 70.3099C130.494 70.2819 140.648 70.8749 148.723 72.3319C156.244 73.7314 163.416 75.8319 164.441 76.9619L165.236 78.3669C162.742 76.7384 156.536 74.9249 148.567 73.4139C140.564 71.9099 130.417 71.4114 119.967 71.4389C108.106 71.3984 98.8908 72.0244 90.9823 73.4034C82.6183 74.9684 76.8153 77.2039 75.3838 78.2664L76.1628 76.7814C78.9448 75.3624 83.3578 73.6514 90.7743 72.3164C98.9528 70.8224 108.265 70.3744 119.985 70.3099ZM119.981 66.0679C130.037 66.0414 139.967 66.6019 147.707 67.9929C153.811 69.1814 159.848 71.0369 162.059 72.6879L163.222 74.5354C161.245 72.3379 153.804 70.2554 147.235 69.0894C139.554 67.7644 130.037 67.2404 119.981 67.1564C109.427 67.1864 99.6733 67.8324 92.1048 69.2104C84.8843 70.5849 80.2248 72.2114 78.2533 73.4819L79.2758 71.9384C81.9963 70.5064 86.3918 69.1909 91.9273 68.1154C99.5518 66.7269 109.365 66.0974 119.981 66.0679H119.981ZM144.575 120.63C135.466 118.93 126.341 118.682 119.967 118.757C89.2633 119.117 79.3448 125.062 78.1343 126.862L75.8393 123.121C83.6568 117.455 100.376 114.278 120.133 114.603C130.392 114.771 139.245 115.452 146.693 116.894L144.575 120.631" fill="#FFFF00" />
        <path d="M144.575 120.63C135.466 118.93 126.341 118.682 119.967 118.757C89.2633 119.117 79.3448 125.062 78.1343 126.862L75.8393 123.121C83.6568 117.455 100.376 114.278 120.133 114.603C130.392 114.771 139.245 115.452 146.693 116.894L144.575 120.631M119.985 70.3099C130.494 70.2819 140.648 70.8749 148.723 72.3319C156.244 73.7314 163.416 75.8319 164.441 76.9619L165.236 78.3669C162.742 76.7384 156.536 74.9249 148.567 73.4139C140.564 71.9099 130.417 71.4114 119.967 71.4389C108.106 71.3984 98.8908 72.0244 90.9823 73.4034C82.6183 74.9684 76.8153 77.2039 75.3838 78.2664L76.1628 76.7814C78.9448 75.3624 83.3578 73.6514 90.7743 72.3164C98.9528 70.8224 108.265 70.3744 119.985 70.3099ZM119.981 66.0679C130.037 66.0414 139.967 66.6019 147.707 67.9929C153.811 69.1814 159.848 71.0369 162.059 72.6879L163.222 74.5354C161.245 72.3379 153.804 70.2554 147.235 69.0894C139.554 67.7644 130.037 67.2404 119.981 67.1564C109.427 67.1864 99.6733 67.8324 92.1048 69.2104C84.8843 70.5849 80.2248 72.2114 78.2533 73.4819L79.2758 71.9384C81.9963 70.5064 86.3918 69.1909 91.9273 68.1154C99.5518 66.7269 109.365 66.0974 119.981 66.0679H119.981Z" stroke="black" stroke-width="0.19099999999999998" stroke-linecap="round" stroke-linejoin="round" />
        <path fill-rule="evenodd" clip-rule="evenodd" d="M119.79 118.23C128.331 118.357 136.715 118.71 144.807 120.219L144.221 121.254C136.705 119.866 128.693 119.335 119.819 119.379C108.488 119.29 97.0268 120.348 87.0488 123.212C83.9003 124.088 78.6883 126.112 78.1568 127.785L77.5738 126.823C77.7418 125.835 80.8918 123.783 86.7808 122.128C98.2098 118.856 108.901 118.304 119.791 118.229L119.79 118.23ZM120.178 113.932C129.027 114.097 138.165 114.506 147.048 116.266L146.438 117.342C138.417 115.75 130.753 115.219 120.23 115.057C108.863 115.078 96.8048 115.889 85.8413 119.076C82.3013 120.107 76.1928 122.336 75.9893 124.101L75.4062 123.068C75.5387 121.465 80.8273 119.374 85.5853 117.99C96.6333 114.778 108.723 113.952 120.178 113.932H120.178Z" fill="#FFFF00" stroke="black" stroke-width="0.18333333333333335" stroke-linecap="round" stroke-linejoin="round" />
        <path fill-rule="evenodd" clip-rule="evenodd" d="M163.79 123.69L160.101 129.415L149.5 120L122 101.5L91.0003 84.5L74.9053 78.995L78.3353 72.635L79.5003 72L89.5003 74.5L122.5 91.5L141.5 103.5L157.5 115L164 122.5L163.79 123.69Z" fill="#FFFF00" stroke="black" stroke-width="0.19099999999999998" stroke-linecap="round" stroke-linejoin="round" />
        <path fill-rule="evenodd" clip-rule="evenodd" d="M74.3247 79.145C77.1477 77.23 97.8942 86.4725 119.602 99.562C141.253 112.689 161.941 127.522 160.073 130.298L159.459 131.264L159.177 131.487C159.237 131.443 159.549 131.063 159.147 130.034C158.224 126.999 143.549 115.289 119.2 100.587C95.4622 86.4315 75.6797 77.901 73.7012 80.3395L74.3247 79.145ZM164.545 123.608C166.33 120.082 147.087 105.587 123.229 91.4725C98.8222 77.6395 81.2317 69.497 78.0187 71.925L77.3047 73.225C77.2987 73.296 77.3307 73.136 77.4817 73.0195C78.0657 72.5095 79.0342 72.5445 79.4712 72.536C85.0037 72.619 100.805 79.891 122.974 92.6C132.688 98.2575 164.01 118.346 163.89 123.995C163.899 124.48 163.93 124.58 163.748 124.821L164.545 123.609V123.608Z" fill="#FFFF00" stroke="black" stroke-width="0.19099999999999998" stroke-linecap="round" stroke-linejoin="round" />
        <path d="M90.3 105.505C90.3 113.64 93.6315 120.998 99.0285 126.376C104.436 131.765 111.784 135.165 119.933 135.165C128.123 135.165 135.556 131.839 140.941 126.471C146.325 121.103 149.662 113.695 149.664 105.531H149.663V65.9365L90.293 65.866L90.299 105.505H90.3Z" fill="white" stroke="black" stroke-width="0.22333333333333336" />
        <path d="M91.4102 105.56V105.583C91.4102 113.361 94.6307 120.445 99.7977 125.587C104.975 130.74 112.105 133.943 119.905 133.943C127.745 133.943 134.861 130.763 140.016 125.63C145.17 120.498 148.364 113.414 148.365 105.608H148.364V67.195L91.4442 67.1855L91.4092 105.56M136.92 78.686L136.922 103.132L136.902 105.718C136.902 106.398 136.861 107.174 136.782 107.834C136.319 111.699 134.542 115.068 131.909 117.688C128.827 120.756 124.574 122.659 119.886 122.659C115.222 122.659 111.066 120.69 107.971 117.609C104.796 114.449 102.956 110.116 102.956 105.636L102.95 78.624L136.92 78.685L136.921 78.686H136.92Z" fill="#FF0000" />
        <path d="M91.4102 105.56V105.583C91.4102 113.361 94.6307 120.445 99.7977 125.587C104.975 130.74 112.105 133.943 119.905 133.943C127.745 133.943 134.861 130.763 140.016 125.63C145.17 120.498 148.364 113.414 148.365 105.608H148.364V67.195L91.4442 67.1855L91.4092 105.56M136.92 78.686L136.922 103.132L136.902 105.718C136.902 106.398 136.861 107.174 136.782 107.834C136.319 111.699 134.542 115.068 131.909 117.688C128.827 120.756 124.574 122.659 119.886 122.659C115.222 122.659 111.066 120.69 107.971 117.609C104.796 114.449 102.956 110.116 102.956 105.636L102.95 78.624L136.92 78.685L136.921 78.686H136.92Z" stroke="black" stroke-width="0.169" />
        <path d="M95.0947 77.215C95.1622 74.4545 97.1207 73.801 97.1347 73.7915C97.1492 73.782 99.2507 74.495 99.2437 77.2405L95.0947 77.215Z" fill="#FFFF00" />
        <path d="M93.4046 73.845L93.0636 77.0175L95.1336 77.022C95.1536 74.397 97.1211 73.9605 97.1686 73.9705C97.2136 73.968 99.1631 74.5505 99.2151 77.022H101.291L100.916 73.825L93.4046 73.844V73.845ZM92.9246 77.03H101.398C101.576 77.03 101.723 77.2065 101.723 77.422C101.723 77.637 101.576 77.8125 101.398 77.8125H92.9246C92.7461 77.8125 92.5996 77.6375 92.5996 77.422C92.5996 77.2065 92.7461 77.03 92.9246 77.03Z" fill="#FFFF00" stroke="black" stroke-width="0.16666666666666666" />
        <path d="M96.0045 77.015C96.0135 75.3585 97.1355 74.89 97.1415 74.891C97.1415 74.891 98.3125 75.374 98.3215 77.015H96.0045ZM93.1045 72.525H101.227C101.398 72.525 101.538 72.684 101.538 72.8775C101.538 73.071 101.398 73.2295 101.227 73.2295H93.1045C92.9335 73.2295 92.793 73.072 92.793 72.8775C92.793 72.684 92.933 72.525 93.1045 72.525ZM93.2745 73.235H101.043C101.207 73.235 101.341 73.3935 101.341 73.587C101.341 73.781 101.207 73.939 101.043 73.939H93.2745C93.111 73.939 92.977 73.781 92.977 73.587C92.977 73.3935 93.111 73.235 93.2745 73.235ZM95.7845 67.94L96.398 67.941V68.3765H96.8455V67.9315L97.474 67.9335V68.377H97.9225V67.932H98.5515L98.5505 68.937C98.5505 69.0955 98.4235 69.1975 98.276 69.1975H96.071C95.9225 69.1975 95.786 69.079 95.785 68.9345L95.7835 67.9405H95.784L95.7845 67.94ZM98.0945 69.285L98.233 72.5105L96.0815 72.503L96.224 69.2765L98.0945 69.285Z" fill="#FFFF00" stroke="black" stroke-width="0.16666666666666666" />
        <path d="M95.4697 70.78L95.5352 72.519L93.4727 72.5195L93.5307 70.78H95.4697Z" fill="#FFFF00" stroke="black" stroke-width="0.16666666666666666" />
        <path d="M100.774 70.78L100.84 72.519L98.7773 72.5195L98.8353 70.78H100.774Z" fill="#FFFF00" stroke="black" stroke-width="0.16666666666666666" />
        <path d="M93.1499 69.52L93.7499 69.5215V69.9575H94.1884V69.5115L94.8034 69.5135V69.958H95.2429V69.5115L95.8579 69.5125L95.8569 70.5185C95.8569 70.6755 95.7324 70.7775 95.5889 70.7775H93.4304C93.2854 70.7775 93.1509 70.66 93.1504 70.515L93.1494 69.5205L93.1499 69.52Z" fill="#FFFF00" stroke="black" stroke-width="0.16666666666666666" />
        <path d="M98.4536 69.52L99.0536 69.5215V69.9575H99.4921V69.5115L100.107 69.5135V69.958H100.547V69.5115L101.162 69.5125L101.161 70.5185C101.161 70.6755 101.036 70.7775 100.893 70.7775H98.7341C98.5891 70.7775 98.4546 70.66 98.4541 70.515L98.4531 69.5205L98.4536 69.52Z" fill="#FFFF00" stroke="black" stroke-width="0.16666666666666666" />
        <path d="M96.9495 70.305C96.9365 69.9915 97.388 69.988 97.3825 70.305V71.073H96.9495V70.305Z" fill="black" />
        <path d="M94.2842 71.4201C94.2827 71.1171 94.7027 71.1111 94.6972 71.4201V72.0136H94.2842V71.4201Z" fill="black" />
        <path d="M99.6055 71.4201C99.604 71.1171 100.024 71.1111 100.018 71.4201V72.0136H99.6055V71.4201Z" fill="black" />
        <path d="M95.0947 100.375C95.1622 97.6145 97.1207 96.961 97.1347 96.9515C97.1492 96.942 99.2507 97.655 99.2437 100.401L95.0947 100.375Z" fill="#FFFF00" />
        <path d="M93.4046 97.0051L93.0636 100.178L95.1336 100.182C95.1536 97.5571 97.1211 97.1206 97.1686 97.1306C97.2136 97.1281 99.1631 97.7106 99.2151 100.182H101.291L100.916 96.9851L93.4046 97.0041V97.0051ZM92.9246 100.19H101.398C101.576 100.19 101.723 100.367 101.723 100.582C101.723 100.797 101.576 100.973 101.398 100.973H92.9246C92.7461 100.973 92.5996 100.798 92.5996 100.582C92.5996 100.367 92.7461 100.19 92.9246 100.19Z" fill="#FFFF00" stroke="black" stroke-width="0.16666666666666666" />
        <path d="M96.0045 100.175C96.0135 98.5185 97.1355 98.05 97.1415 98.051C97.1415 98.051 98.3125 98.534 98.3215 100.175H96.0045ZM93.1045 95.6851H101.227C101.398 95.6851 101.538 95.8441 101.538 96.0376C101.538 96.2311 101.398 96.3895 101.227 96.3895H93.1045C92.9335 96.3895 92.793 96.2321 92.793 96.0376C92.793 95.8441 92.933 95.6851 93.1045 95.6851ZM93.2745 96.3951H101.043C101.207 96.3951 101.341 96.5535 101.341 96.747C101.341 96.941 101.207 97.0991 101.043 97.0991H93.2745C93.111 97.0991 92.977 96.941 92.977 96.747C92.977 96.5535 93.111 96.3951 93.2745 96.3951ZM95.7845 91.1001L96.398 91.1011V91.5366H96.8455V91.0916L97.474 91.0936V91.537H97.9225V91.092H98.5515L98.5505 92.097C98.5505 92.2555 98.4235 92.3576 98.276 92.3576H96.071C95.9225 92.3576 95.786 92.2391 95.785 92.0946L95.7835 91.1005H95.784L95.7845 91.1001ZM98.0945 92.4451L98.233 95.6705L96.0815 95.663L96.224 92.4365L98.0945 92.4451Z" fill="#FFFF00" stroke="black" stroke-width="0.16666666666666666" />
        <path d="M95.4697 93.9401L95.5352 95.6791L93.4727 95.6796L93.5307 93.9401H95.4697Z" fill="#FFFF00" stroke="black" stroke-width="0.16666666666666666" />
        <path d="M100.774 93.9401L100.84 95.6791L98.7773 95.6796L98.8353 93.9401H100.774Z" fill="#FFFF00" stroke="black" stroke-width="0.16666666666666666" />
        <path d="M93.1499 92.68L93.7499 92.6815V93.1175H94.1884V92.6715L94.8034 92.6735V93.118H95.2429V92.6715L95.8579 92.6725L95.8569 93.6785C95.8569 93.8355 95.7324 93.9375 95.5889 93.9375H93.4304C93.2854 93.9375 93.1509 93.82 93.1504 93.675L93.1494 92.6805L93.1499 92.68Z" fill="#FFFF00" stroke="black" stroke-width="0.16666666666666666" />
        <path d="M98.4536 92.68L99.0536 92.6815V93.1175H99.4921V92.6715L100.107 92.6735V93.118H100.547V92.6715L101.162 92.6725L101.161 93.6785C101.161 93.8355 101.036 93.9375 100.893 93.9375H98.7341C98.5891 93.9375 98.4546 93.82 98.4541 93.675L98.4531 92.6805L98.4536 92.68Z" fill="#FFFF00" stroke="black" stroke-width="0.16666666666666666" />
        <path d="M96.9495 93.4651C96.9365 93.1516 97.388 93.1481 97.3825 93.4651V94.2331H96.9495V93.4651Z" fill="black" />
        <path d="M94.2842 94.5801C94.2827 94.2771 94.7027 94.2711 94.6972 94.5801V95.1736H94.2842V94.5801Z" fill="black" />
        <path d="M99.6055 94.5801C99.604 94.2771 100.024 94.2711 100.018 94.5801V95.1736H99.6055V94.5801Z" fill="black" />
        <path d="M104.125 124.482C102.213 122.489 103.13 120.639 103.133 120.622C103.136 120.605 105.123 119.616 107.066 121.556L104.125 124.482Z" fill="#FFFF00" />
        <path d="M100.542 123.307L102.553 125.784L104.015 124.318C102.166 122.454 103.243 120.751 103.284 120.724C103.313 120.69 105.1 119.717 106.891 121.422L108.353 119.949L105.82 117.963L100.542 123.306L100.542 123.307ZM102.464 125.891L108.434 119.879C108.56 119.752 108.789 119.773 108.942 119.924C109.094 120.076 109.115 120.304 108.99 120.43L103.019 126.443C102.894 126.569 102.666 126.55 102.513 126.398C102.36 126.246 102.338 126.018 102.464 125.891Z" fill="#FFFF00" stroke="black" stroke-width="0.16666666666666666" />
        <path d="M104.624 123.695C103.455 122.522 103.913 121.395 103.918 121.392C103.918 121.392 105.086 120.901 106.257 122.051L104.624 123.695ZM99.395 122.589L105.118 116.826C105.239 116.704 105.451 116.717 105.588 116.853C105.725 116.989 105.739 117.2 105.618 117.322L99.8949 123.086C99.7744 123.207 99.5637 123.196 99.4257 123.059C99.2884 122.922 99.2742 122.711 99.395 122.589ZM100.019 122.969L105.493 117.456C105.608 117.34 105.815 117.357 105.952 117.493C106.09 117.63 106.107 117.836 105.992 117.952L100.518 123.465C100.403 123.581 100.196 123.565 100.059 123.428C99.9215 123.292 99.9034 123.085 100.019 122.969ZM98.0299 117.457L98.4629 117.022L98.7719 117.329L99.0872 117.012L98.7714 116.698L99.2157 116.254L99.5304 116.566L99.8464 116.248L99.5307 115.934L99.9739 115.488L100.686 116.197C100.799 116.308 100.782 116.47 100.678 116.575L99.1241 118.14C99.0194 118.245 98.8392 118.258 98.7359 118.157L98.0295 117.458L98.0299 117.458L98.0299 117.457ZM100.612 116.766L102.998 118.94L101.477 120.461L99.2879 118.087L100.612 116.766Z" fill="#FFFF00" stroke="black" stroke-width="0.16666666666666666" />
        <path d="M99.8231 119.682L101.103 120.86L99.6504 122.324L98.4569 121.057L99.8231 119.682Z" fill="#FFFF00" stroke="black" stroke-width="0.16666666666666666" />
        <path d="M103.56 115.918L104.841 117.096L103.388 118.56L102.194 117.293L103.56 115.918Z" fill="#FFFF00" stroke="black" stroke-width="0.16666666666666666" />
        <path d="M97.2945 120.44L97.7183 120.015L98.0277 120.323L98.3367 120.011L98.0202 119.697L98.4549 119.262L98.7703 119.575L99.08 119.264L98.7632 118.949L99.1972 118.513L99.9104 119.223C100.022 119.333 100.006 119.494 99.9053 119.595L98.3844 121.127C98.2823 121.23 98.1041 121.243 98.0009 121.141L97.2945 120.441L97.2945 120.44Z" fill="#FFFF00" stroke="black" stroke-width="0.16666666666666666" />
        <path d="M101.032 116.676L101.456 116.251L101.765 116.559L102.074 116.247L101.757 115.933L102.192 115.498L102.508 115.811L102.817 115.499L102.5 115.185L102.935 114.749L103.648 115.459C103.759 115.569 103.744 115.73 103.643 115.831L102.122 117.363C102.02 117.466 101.841 117.479 101.738 117.377L101.032 116.677L101.032 116.676Z" fill="#FFFF00" stroke="black" stroke-width="0.16666666666666666" />
        <path d="M100.528 118.297C100.297 118.085 100.612 117.762 100.833 117.989L101.378 118.531L101.073 118.838L100.528 118.297Z" fill="black" />
        <path d="M99.4422 120.973C99.2261 120.761 99.5178 120.459 99.7332 120.68L100.154 121.098L99.8633 121.392L99.4422 120.973Z" fill="black" />
        <path d="M103.191 117.198C102.975 116.986 103.267 116.683 103.482 116.905L103.903 117.323L103.612 117.616L103.191 117.198Z" fill="black" />
        <path d="M117.952 77.215C118.02 74.4545 119.978 73.801 119.992 73.7915C120.007 73.782 122.108 74.495 122.101 77.2405L117.952 77.215Z" fill="#FFFF00" />
        <path d="M116.262 73.845L115.921 77.0175L117.991 77.022C118.011 74.397 119.979 73.9605 120.026 73.9705C120.071 73.968 122.021 74.5505 122.073 77.022H124.148L123.773 73.825L116.262 73.844V73.845ZM115.782 77.03H124.255C124.434 77.03 124.58 77.2065 124.58 77.422C124.58 77.637 124.434 77.8125 124.255 77.8125H115.782C115.604 77.8125 115.457 77.6375 115.457 77.422C115.457 77.2065 115.604 77.03 115.782 77.03Z" fill="#FFFF00" stroke="black" stroke-width="0.16666666666666666" />
        <path d="M118.862 77.015C118.871 75.3585 119.993 74.89 119.999 74.891C119.999 74.891 121.17 75.374 121.179 77.015H118.862ZM115.962 72.525H124.084C124.255 72.525 124.396 72.684 124.396 72.8775C124.396 73.071 124.256 73.2295 124.084 73.2295H115.962C115.791 73.2295 115.65 73.072 115.65 72.8775C115.65 72.684 115.79 72.525 115.962 72.525ZM116.132 73.235H123.901C124.064 73.235 124.198 73.3935 124.198 73.587C124.198 73.781 124.064 73.939 123.901 73.939H116.132C115.968 73.939 115.834 73.781 115.834 73.587C115.834 73.3935 115.968 73.235 116.132 73.235ZM118.642 67.94L119.255 67.941V68.3765H119.703V67.9315L120.331 67.9335V68.377H120.78V67.932H121.409L121.408 68.937C121.408 69.0955 121.281 69.1975 121.133 69.1975H118.928C118.78 69.1975 118.643 69.079 118.642 68.9345L118.641 67.9405H118.641L118.642 67.94ZM120.952 69.285L121.09 72.5105L118.939 72.503L119.081 69.2765L120.952 69.285Z" fill="#FFFF00" stroke="black" stroke-width="0.16666666666666666" />
        <path d="M118.327 70.78L118.393 72.519L116.33 72.5195L116.388 70.78H118.327Z" fill="#FFFF00" stroke="black" stroke-width="0.16666666666666666" />
        <path d="M123.632 70.78L123.697 72.519L121.635 72.5195L121.693 70.78H123.632Z" fill="#FFFF00" stroke="black" stroke-width="0.16666666666666666" />
        <path d="M116.007 69.52L116.607 69.5215V69.9575H117.046V69.5115L117.661 69.5135V69.958H118.1V69.5115L118.715 69.5125L118.714 70.5185C118.714 70.6755 118.59 70.7775 118.446 70.7775H116.288C116.143 70.7775 116.008 70.66 116.008 70.515L116.007 69.5205L116.007 69.52Z" fill="#FFFF00" stroke="black" stroke-width="0.16666666666666666" />
        <path d="M121.311 69.52L121.911 69.5215V69.9575H122.35V69.5115L122.965 69.5135V69.958H123.404V69.5115L124.019 69.5125L124.018 70.5185C124.018 70.6755 123.894 70.7775 123.75 70.7775H121.592C121.447 70.7775 121.312 70.66 121.312 70.515L121.311 69.5205L121.311 69.52Z" fill="#FFFF00" stroke="black" stroke-width="0.16666666666666666" />
        <path d="M119.807 70.305C119.794 69.9915 120.245 69.988 120.24 70.305V71.073H119.807V70.305Z" fill="black" />
        <path d="M117.142 71.4201C117.14 71.1171 117.56 71.1111 117.555 71.4201V72.0136H117.142V71.4201Z" fill="black" />
        <path d="M122.463 71.4201C122.461 71.1171 122.881 71.1111 122.876 71.4201V72.0136H122.463V71.4201Z" fill="black" />
        <path d="M144.801 77.215C144.733 74.4545 142.775 73.801 142.761 73.7915C142.746 73.782 140.645 74.495 140.652 77.2405L144.801 77.215Z" fill="#FFFF00" />
        <path d="M146.491 73.845L146.832 77.0175L144.762 77.022C144.742 74.397 142.774 73.9605 142.727 73.9705C142.682 73.968 140.732 74.5505 140.68 77.022H138.605L138.98 73.825L146.491 73.844V73.845ZM146.971 77.03H138.498C138.319 77.03 138.173 77.2065 138.173 77.422C138.173 77.637 138.319 77.8125 138.498 77.8125H146.971C147.149 77.8125 147.296 77.6375 147.296 77.422C147.296 77.2065 147.149 77.03 146.971 77.03Z" fill="#FFFF00" stroke="black" stroke-width="0.16666666666666666" />
        <path d="M143.891 77.015C143.882 75.3585 142.76 74.89 142.754 74.891C142.754 74.891 141.583 75.374 141.574 77.015H143.891ZM146.791 72.525H138.669C138.498 72.525 138.357 72.684 138.357 72.8775C138.357 73.071 138.497 73.2295 138.669 73.2295H146.791C146.962 73.2295 147.103 73.072 147.103 72.8775C147.103 72.684 146.963 72.525 146.791 72.525ZM146.621 73.235H138.852C138.689 73.235 138.555 73.3935 138.555 73.587C138.555 73.781 138.689 73.939 138.852 73.939H146.621C146.785 73.939 146.919 73.781 146.919 73.587C146.919 73.3935 146.785 73.235 146.621 73.235ZM144.111 67.94L143.498 67.941V68.3765H143.05V67.9315L142.422 67.9335V68.377H141.973V67.932H141.344L141.345 68.937C141.345 69.0955 141.472 69.1975 141.62 69.1975H143.825C143.973 69.1975 144.11 69.079 144.111 68.9345L144.112 67.9405H144.112L144.111 67.94ZM141.801 69.285L141.663 72.5105L143.814 72.503L143.672 69.2765L141.801 69.285Z" fill="#FFFF00" stroke="black" stroke-width="0.16666666666666666" />
        <path d="M144.426 70.78L144.36 72.519L146.423 72.5195L146.365 70.78H144.426Z" fill="#FFFF00" stroke="black" stroke-width="0.16666666666666666" />
        <path d="M139.121 70.78L139.056 72.519L141.118 72.5195L141.06 70.78H139.121Z" fill="#FFFF00" stroke="black" stroke-width="0.16666666666666666" />
        <path d="M146.746 69.52L146.146 69.5215V69.9575H145.707V69.5115L145.092 69.5135V69.958H144.653V69.5115L144.038 69.5125L144.039 70.5185C144.039 70.6755 144.163 70.7775 144.307 70.7775H146.465C146.61 70.7775 146.745 70.66 146.745 70.515L146.746 69.5205L146.746 69.52Z" fill="#FFFF00" stroke="black" stroke-width="0.16666666666666666" />
        <path d="M141.442 69.52L140.842 69.5215V69.9575H140.403V69.5115L139.788 69.5135V69.958H139.349V69.5115L138.734 69.5125L138.735 70.5185C138.735 70.6755 138.859 70.7775 139.003 70.7775H141.161C141.306 70.7775 141.441 70.66 141.441 70.515L141.442 69.5205L141.442 69.52Z" fill="#FFFF00" stroke="black" stroke-width="0.16666666666666666" />
        <path d="M142.946 70.305C142.959 69.9915 142.508 69.988 142.513 70.305V71.073H142.946V70.305Z" fill="black" />
        <path d="M145.611 71.4201C145.613 71.1171 145.193 71.1111 145.198 71.4201V72.0136H145.611V71.4201Z" fill="black" />
        <path d="M140.29 71.4201C140.292 71.1171 139.872 71.1111 139.877 71.4201V72.0136H140.29V71.4201Z" fill="black" />
        <path d="M144.801 100.375C144.733 97.6145 142.775 96.961 142.761 96.9515C142.746 96.942 140.645 97.655 140.652 100.401L144.801 100.375Z" fill="#FFFF00" />
        <path d="M146.491 97.0051L146.832 100.178L144.762 100.182C144.742 97.5571 142.774 97.1206 142.727 97.1306C142.682 97.1281 140.732 97.7106 140.68 100.182H138.605L138.98 96.9851L146.491 97.0041V97.0051ZM146.971 100.19H138.498C138.319 100.19 138.173 100.367 138.173 100.582C138.173 100.797 138.319 100.973 138.498 100.973H146.971C147.149 100.973 147.296 100.798 147.296 100.582C147.296 100.367 147.149 100.19 146.971 100.19Z" fill="#FFFF00" stroke="black" stroke-width="0.16666666666666666" />
        <path d="M143.891 100.175C143.882 98.5185 142.76 98.05 142.754 98.051C142.754 98.051 141.583 98.534 141.574 100.175H143.891ZM146.791 95.6851H138.669C138.498 95.6851 138.357 95.8441 138.357 96.0376C138.357 96.2311 138.497 96.3895 138.669 96.3895H146.791C146.962 96.3895 147.103 96.2321 147.103 96.0376C147.103 95.8441 146.963 95.6851 146.791 95.6851ZM146.621 96.3951H138.852C138.689 96.3951 138.555 96.5535 138.555 96.747C138.555 96.941 138.689 97.0991 138.852 97.0991H146.621C146.785 97.0991 146.919 96.941 146.919 96.747C146.919 96.5535 146.785 96.3951 146.621 96.3951ZM144.111 91.1001L143.498 91.1011V91.5366H143.05V91.0916L142.422 91.0936V91.537H141.973V91.092H141.344L141.345 92.097C141.345 92.2555 141.472 92.3576 141.62 92.3576H143.825C143.973 92.3576 144.11 92.2391 144.111 92.0946L144.112 91.1005H144.112L144.111 91.1001ZM141.801 92.4451L141.663 95.6705L143.814 95.663L143.672 92.4365L141.801 92.4451Z" fill="#FFFF00" stroke="black" stroke-width="0.16666666666666666" />
        <path d="M144.426 93.9401L144.36 95.6791L146.423 95.6796L146.365 93.9401H144.426Z" fill="#FFFF00" stroke="black" stroke-width="0.16666666666666666" />
        <path d="M139.121 93.9401L139.056 95.6791L141.118 95.6796L141.06 93.9401H139.121Z" fill="#FFFF00" stroke="black" stroke-width="0.16666666666666666" />
        <path d="M146.746 92.68L146.146 92.6815V93.1175H145.707V92.6715L145.092 92.6735V93.118H144.653V92.6715L144.038 92.6725L144.039 93.6785C144.039 93.8355 144.163 93.9375 144.307 93.9375H146.465C146.61 93.9375 146.745 93.82 146.745 93.675L146.746 92.6805L146.746 92.68Z" fill="#FFFF00" stroke="black" stroke-width="0.16666666666666666" />
        <path d="M141.442 92.68L140.842 92.6815V93.1175H140.403V92.6715L139.788 92.6735V93.118H139.349V92.6715L138.734 92.6725L138.735 93.6785C138.735 93.8355 138.859 93.9375 139.003 93.9375H141.161C141.306 93.9375 141.441 93.82 141.441 93.675L141.442 92.6805L141.442 92.68Z" fill="#FFFF00" stroke="black" stroke-width="0.16666666666666666" />
        <path d="M142.946 93.4651C142.959 93.1516 142.508 93.1481 142.513 93.4651V94.2331H142.946V93.4651Z" fill="black" />
        <path d="M145.611 94.5801C145.613 94.2771 145.193 94.2711 145.198 94.5801V95.1736H145.611V94.5801Z" fill="black" />
        <path d="M140.29 94.5801C140.292 94.2771 139.872 94.2711 139.877 94.5801V95.1736H140.29V94.5801Z" fill="black" />
        <path d="M135.771 124.482C137.682 122.489 136.766 120.639 136.763 120.622C136.759 120.605 134.773 119.616 132.829 121.556L135.771 124.482Z" fill="#FFFF00" />
        <path d="M139.353 123.307L137.342 125.784L135.881 124.318C137.729 122.454 136.653 120.751 136.612 120.724C136.582 120.69 134.795 119.717 133.005 121.422L131.542 119.949L134.075 117.963L139.354 123.306L139.353 123.307ZM137.431 125.891L131.461 119.879C131.335 119.752 131.107 119.773 130.954 119.924C130.801 120.076 130.78 120.304 130.906 120.43L136.876 126.443C137.002 126.569 137.229 126.55 137.382 126.398C137.535 126.246 137.557 126.018 137.431 125.891Z" fill="#FFFF00" stroke="black" stroke-width="0.16666666666666666" />
        <path d="M135.271 123.695C136.44 122.522 135.982 121.395 135.977 121.392C135.977 121.392 134.809 120.901 133.638 122.051L135.271 123.695ZM140.5 122.589L134.777 116.826C134.657 116.704 134.445 116.717 134.308 116.853C134.17 116.989 134.157 117.2 134.277 117.322L140.001 123.086C140.121 123.207 140.332 123.196 140.47 123.059C140.607 122.922 140.621 122.711 140.5 122.589ZM139.877 122.969L134.403 117.456C134.288 117.34 134.081 117.357 133.943 117.493C133.806 117.63 133.788 117.836 133.903 117.952L139.377 123.465C139.493 123.581 139.699 123.565 139.837 123.428C139.974 123.292 139.992 123.085 139.877 122.969ZM141.866 117.457L141.433 117.022L141.124 117.329L140.808 117.012L141.124 116.698L140.68 116.254L140.365 116.566L140.049 116.248L140.365 115.934L139.922 115.488L139.209 116.197C139.097 116.308 139.114 116.47 139.218 116.575L140.771 118.14C140.876 118.245 141.056 118.258 141.16 118.157L141.866 117.458L141.866 117.458L141.866 117.457ZM139.284 116.766L136.897 118.94L138.418 120.461L140.608 118.087L139.284 116.766Z" fill="#FFFF00" stroke="black" stroke-width="0.16666666666666666" />
        <path d="M140.072 119.682L138.792 120.86L140.245 122.324L141.439 121.057L140.072 119.682Z" fill="#FFFF00" stroke="black" stroke-width="0.16666666666666666" />
        <path d="M136.335 115.918L135.055 117.096L136.508 118.56L137.701 117.293L136.335 115.918Z" fill="#FFFF00" stroke="black" stroke-width="0.16666666666666666" />
        <path d="M142.601 120.44L142.177 120.015L141.868 120.323L141.559 120.011L141.875 119.697L141.441 119.262L141.125 119.575L140.815 119.264L141.132 118.949L140.698 118.513L139.985 119.223C139.874 119.333 139.889 119.494 139.99 119.595L141.511 121.127C141.613 121.23 141.791 121.243 141.895 121.141L142.601 120.441L142.601 120.44Z" fill="#FFFF00" stroke="black" stroke-width="0.16666666666666666" />
        <path d="M138.864 116.676L138.44 116.251L138.131 116.559L137.822 116.247L138.138 115.933L137.703 115.498L137.388 115.811L137.078 115.499L137.395 115.185L136.961 114.749L136.248 115.459C136.136 115.569 136.152 115.73 136.253 115.831L137.774 117.363C137.876 117.466 138.054 117.479 138.157 117.377L138.864 116.677L138.864 116.676Z" fill="#FFFF00" stroke="black" stroke-width="0.16666666666666666" />
        <path d="M139.367 118.297C139.599 118.085 139.283 117.762 139.062 117.989L138.517 118.531L138.822 118.838L139.367 118.297Z" fill="black" />
        <path d="M140.453 120.973C140.669 120.761 140.378 120.459 140.162 120.68L139.741 121.098L140.032 121.392L140.453 120.973Z" fill="black" />
        <path d="M136.704 117.198C136.92 116.986 136.629 116.683 136.413 116.905L135.992 117.323L136.283 117.616L136.704 117.198Z" fill="black" />
        <path d="M116.318 101.203V101.205C116.318 102.311 116.743 103.319 117.424 104.05C118.106 104.783 119.046 105.239 120.075 105.239C121.108 105.239 122.047 104.786 122.726 104.056C123.405 103.327 123.827 102.32 123.827 101.21V95.826L116.331 95.8195L116.317 101.202" fill="#003399" />
        <path d="M118.037 98.6105C118.447 98.6105 118.78 98.2779 118.78 97.8675C118.78 97.4572 118.447 97.1245 118.037 97.1245C117.627 97.1245 117.294 97.4572 117.294 97.8675C117.294 98.2779 117.627 98.6105 118.037 98.6105Z" fill="white" />
        <path d="M122.196 98.6139C122.606 98.6139 122.939 98.2813 122.939 97.8709C122.939 97.4606 122.606 97.1279 122.196 97.1279C121.786 97.1279 121.453 97.4606 121.453 97.8709C121.453 98.2813 121.786 98.6139 122.196 98.6139Z" fill="white" />
        <path d="M120.112 100.611C120.522 100.611 120.855 100.278 120.855 99.8675C120.855 99.4572 120.522 99.1245 120.112 99.1245C119.702 99.1245 119.369 99.4572 119.369 99.8675C119.369 100.278 119.702 100.611 120.112 100.611Z" fill="white" />
        <path d="M118.037 102.701C118.447 102.701 118.78 102.368 118.78 101.958C118.78 101.548 118.447 101.215 118.037 101.215C117.627 101.215 117.294 101.548 117.294 101.958C117.294 102.368 117.627 102.701 118.037 102.701Z" fill="white" />
        <path d="M122.191 102.695C122.602 102.695 122.934 102.363 122.934 101.952C122.934 101.542 122.602 101.209 122.191 101.209C121.781 101.209 121.448 101.542 121.448 101.952C121.448 102.363 121.781 102.695 122.191 102.695Z" fill="white" />
        <path d="M116.318 88.195V88.1975C116.318 89.3035 116.743 90.311 117.424 91.0425C118.106 91.7755 119.046 92.231 120.075 92.231C121.108 92.231 122.047 91.7785 122.726 91.0485C123.405 90.319 123.827 89.3125 123.827 88.202V82.818L116.331 82.8115L116.317 88.1945" fill="#003399" />
        <path d="M118.037 85.6025C118.447 85.6025 118.78 85.2698 118.78 84.8595C118.78 84.4491 118.447 84.1165 118.037 84.1165C117.627 84.1165 117.294 84.4491 117.294 84.8595C117.294 85.2698 117.627 85.6025 118.037 85.6025Z" fill="white" />
        <path d="M122.196 85.606C122.606 85.606 122.939 85.2733 122.939 84.863C122.939 84.4527 122.606 84.12 122.196 84.12C121.786 84.12 121.453 84.4527 121.453 84.863C121.453 85.2733 121.786 85.606 122.196 85.606Z" fill="white" />
        <path d="M120.112 87.6025C120.522 87.6025 120.855 87.2698 120.855 86.8595C120.855 86.4491 120.522 86.1165 120.112 86.1165C119.702 86.1165 119.369 86.4491 119.369 86.8595C119.369 87.2698 119.702 87.6025 120.112 87.6025Z" fill="white" />
        <path d="M118.037 89.693C118.447 89.693 118.78 89.3604 118.78 88.95C118.78 88.5397 118.447 88.207 118.037 88.207C117.627 88.207 117.294 88.5397 117.294 88.95C117.294 89.3604 117.627 89.693 118.037 89.693Z" fill="white" />
        <path d="M122.191 89.6875C122.602 89.6875 122.934 89.3549 122.934 88.9445C122.934 88.5342 122.602 88.2015 122.191 88.2015C121.781 88.2015 121.448 88.5342 121.448 88.9445C121.448 89.3549 121.781 89.6875 122.191 89.6875Z" fill="white" />
        <path d="M105.918 101.203V101.205C105.918 102.311 106.343 103.319 107.024 104.05C107.707 104.783 108.647 105.239 109.675 105.239C110.709 105.239 111.647 104.786 112.327 104.056C113.006 103.327 113.428 102.32 113.428 101.21V95.826L105.932 95.8195L105.918 101.202" fill="#003399" />
        <path d="M107.638 98.6105C108.048 98.6105 108.381 98.2779 108.381 97.8675C108.381 97.4572 108.048 97.1245 107.638 97.1245C107.227 97.1245 106.895 97.4572 106.895 97.8675C106.895 98.2779 107.227 98.6105 107.638 98.6105Z" fill="white" />
        <path d="M111.797 98.6139C112.207 98.6139 112.54 98.2813 112.54 97.8709C112.54 97.4606 112.207 97.1279 111.797 97.1279C111.386 97.1279 111.054 97.4606 111.054 97.8709C111.054 98.2813 111.386 98.6139 111.797 98.6139Z" fill="white" />
        <path d="M109.713 100.611C110.123 100.611 110.456 100.278 110.456 99.8675C110.456 99.4572 110.123 99.1245 109.713 99.1245C109.302 99.1245 108.97 99.4572 108.97 99.8675C108.97 100.278 109.302 100.611 109.713 100.611Z" fill="white" />
        <path d="M107.638 102.701C108.048 102.701 108.381 102.368 108.381 101.958C108.381 101.548 108.048 101.215 107.638 101.215C107.227 101.215 106.895 101.548 106.895 101.958C106.895 102.368 107.227 102.701 107.638 102.701Z" fill="white" />
        <path d="M111.792 102.695C112.202 102.695 112.535 102.363 112.535 101.952C112.535 101.542 112.202 101.209 111.792 101.209C111.381 101.209 111.049 101.542 111.049 101.952C111.049 102.363 111.381 102.695 111.792 102.695Z" fill="white" />
        <path d="M126.691 101.203V101.205C126.691 102.311 127.116 103.319 127.797 104.05C128.479 104.783 129.419 105.239 130.448 105.239C131.481 105.239 132.42 104.786 133.099 104.056C133.778 103.327 134.2 102.32 134.2 101.21V95.826L126.704 95.8195L126.69 101.202" fill="#003399" />
        <path d="M128.41 98.6105C128.82 98.6105 129.153 98.2779 129.153 97.8675C129.153 97.4572 128.82 97.1245 128.41 97.1245C128 97.1245 127.667 97.4572 127.667 97.8675C127.667 98.2779 128 98.6105 128.41 98.6105Z" fill="white" />
        <path d="M132.569 98.6139C132.98 98.6139 133.312 98.2813 133.312 97.8709C133.312 97.4606 132.98 97.1279 132.569 97.1279C132.159 97.1279 131.826 97.4606 131.826 97.8709C131.826 98.2813 132.159 98.6139 132.569 98.6139Z" fill="white" />
        <path d="M130.485 100.611C130.896 100.611 131.228 100.278 131.228 99.8675C131.228 99.4572 130.896 99.1245 130.485 99.1245C130.075 99.1245 129.742 99.4572 129.742 99.8675C129.742 100.278 130.075 100.611 130.485 100.611Z" fill="white" />
        <path d="M128.41 102.701C128.82 102.701 129.153 102.368 129.153 101.958C129.153 101.548 128.82 101.215 128.41 101.215C128 101.215 127.667 101.548 127.667 101.958C127.667 102.368 128 102.701 128.41 102.701Z" fill="white" />
        <path d="M132.564 102.695C132.975 102.695 133.307 102.363 133.307 101.952C133.307 101.542 132.975 101.209 132.564 101.209C132.154 101.209 131.821 101.542 131.821 101.952C131.821 102.363 132.154 102.695 132.564 102.695Z" fill="white" />
        <path d="M116.318 114.095V114.098C116.318 115.204 116.743 116.211 117.424 116.943C118.106 117.676 119.046 118.131 120.075 118.131C121.108 118.131 122.047 117.679 122.726 116.949C123.405 116.219 123.827 115.213 123.827 114.102V108.718L116.331 108.712L116.317 114.095" fill="#003399" />
        <path d="M118.037 111.503C118.447 111.503 118.78 111.17 118.78 110.76C118.78 110.349 118.447 110.017 118.037 110.017C117.627 110.017 117.294 110.349 117.294 110.76C117.294 111.17 117.627 111.503 118.037 111.503Z" fill="white" />
        <path d="M122.196 111.506C122.606 111.506 122.939 111.173 122.939 110.763C122.939 110.353 122.606 110.02 122.196 110.02C121.786 110.02 121.453 110.353 121.453 110.763C121.453 111.173 121.786 111.506 122.196 111.506Z" fill="white" />
        <path d="M120.112 113.503C120.522 113.503 120.855 113.17 120.855 112.76C120.855 112.349 120.522 112.017 120.112 112.017C119.702 112.017 119.369 112.349 119.369 112.76C119.369 113.17 119.702 113.503 120.112 113.503Z" fill="white" />
        <path d="M118.037 115.593C118.447 115.593 118.78 115.26 118.78 114.85C118.78 114.44 118.447 114.107 118.037 114.107C117.627 114.107 117.294 114.44 117.294 114.85C117.294 115.26 117.627 115.593 118.037 115.593Z" fill="white" />
        <path d="M122.191 115.588C122.602 115.588 122.934 115.255 122.934 114.845C122.934 114.434 122.602 114.102 122.191 114.102C121.781 114.102 121.448 114.434 121.448 114.845C121.448 115.255 121.781 115.588 122.191 115.588Z" fill="white" />
    </g>
    <defs>
        <clipPath id="clip0_12_12186">
            <rect width="300" height="200" fill="white" />
        </clipPath>
    </defs>
</svg>