<svg xmlns="http://www.w3.org/2000/svg" viewBox="0 0 300 200"><g><path d="M150 119C173.748 119 193 99.7482 193 76C193 52.2518 173.748 33 150 33C126.252 33 107 52.2518 107 76C107 99.7482 126.252 119 150 119Z" fill="#CE1126" />
<path d="M150 8C148.555 8 148 10.1667 148 12.3333C148 17.5553 148.64 20.286 150 28C151.36 20.286 152 17.5553 152 12.3333C152 10.1667 151.445 8 150 8Z" fill="#CE1126" />
<path d="M155.927 8.25878C154.488 8.13287 153.746 10.2429 153.557 12.4013C153.102 17.6034 153.501 20.3795 154.184 28.1827C156.211 20.6166 157.087 17.9521 157.542 12.7499C157.731 10.5915 157.366 8.3847 155.927 8.25878Z" fill="#CE1126" />
<path d="M161.808 9.03284C160.386 8.78198 159.463 10.8193 159.086 12.953C158.18 18.0957 158.336 20.896 158.336 28.729C161.014 21.3684 162.119 18.7903 163.026 13.6476C163.402 11.5139 163.231 9.28371 161.808 9.03284Z" fill="#CE1126" />
<path d="M167.6 10.317C166.204 9.94305 165.107 11.8922 164.546 13.985C163.195 19.0291 163.106 21.8323 162.423 29.6355C165.734 22.5363 167.059 20.0643 168.41 15.0203C168.971 12.9274 168.995 10.6909 167.6 10.317Z" fill="#CE1126" />
<path d="M173.257 12.101C171.9 11.6069 170.637 13.453 169.896 15.489C168.11 20.3961 167.777 23.1809 166.417 30.8949C170.333 24.1112 171.869 21.7641 173.655 16.8571C174.396 14.8211 174.615 12.5951 173.257 12.101Z" fill="#CE1126" />
<path d="M178.738 14.3711C177.429 13.7606 176.01 15.4895 175.094 17.4532C172.888 22.186 172.314 24.9313 170.286 32.4973C174.779 26.0808 176.513 23.8764 178.72 19.1437C179.635 17.18 180.048 14.9817 178.738 14.3711Z" fill="#CE1126" />
<path d="M184 17.1104C182.749 16.388 181.184 17.9867 180.101 19.8631C177.49 24.3855 176.679 27.0703 174 34.4309C179.034 28.4303 180.954 26.3855 183.565 21.8631C184.648 19.9867 185.251 17.8327 184 17.1104Z" fill="#CE1126" />
<path d="M189.003 20.2975C187.819 19.4689 186.122 20.9252 184.879 22.7C181.884 26.9777 180.842 29.5816 177.531 36.6806C183.07 31.1417 185.16 29.272 188.155 24.9944C189.398 23.2195 190.186 21.1262 189.003 20.2975Z" fill="#CE1126" />
<path d="M193.71 23.9091C192.603 22.9805 190.785 24.2833 189.392 25.9431C186.036 29.9433 184.771 32.4465 180.854 39.23C186.854 34.1949 189.1 32.5145 192.456 28.5142C193.849 26.8544 194.817 24.8377 193.71 23.9091Z" fill="#CE1126" />
<path d="M198.083 27.9167C197.062 26.8951 195.137 28.0345 193.605 29.5666C189.912 33.2591 188.434 35.6425 183.941 42.0588C190.357 37.5658 192.741 36.0875 196.433 32.395C197.965 30.8629 199.105 28.9382 198.083 27.9167Z" fill="#CE1126" />
<path d="M202.091 32.2904C201.163 31.1837 199.146 32.151 197.486 33.5437C193.486 36.9004 191.805 39.1459 186.77 45.1461C193.554 41.2295 196.057 39.9645 200.057 36.6079C201.717 35.2152 203.02 33.3971 202.091 32.2904Z" fill="#CE1126" />
<path d="M205.703 36.9967C204.874 35.8133 202.781 36.6011 201.006 37.8439C196.728 40.8391 194.859 42.9296 189.32 48.4682C196.419 45.1577 199.023 44.1157 203.3 41.1205C205.075 39.8778 206.531 38.1801 205.703 36.9967Z" fill="#CE1126" />
<path d="M208.89 42.0001C208.167 40.749 206.013 41.3514 204.137 42.4347C199.614 45.0457 197.57 46.9653 191.569 52.0001C198.93 49.3209 201.614 48.5098 206.137 45.8988C208.013 44.8155 209.612 43.2512 208.89 42.0001Z" fill="#CE1126" />
<path d="M211.628 47.2618C211.018 45.9525 208.82 46.3649 206.856 47.2806C202.123 49.4875 199.919 51.2215 193.502 55.7142C201.068 53.6867 203.814 53.1127 208.546 50.9058C210.51 49.9901 212.239 48.5711 211.628 47.2618Z" fill="#CE1126" />
<path d="M213.899 52.7427C213.405 51.3851 211.179 51.6043 209.143 52.3454C204.236 54.1314 201.889 55.6667 195.105 59.5831C202.819 58.2227 205.604 57.8902 210.511 56.1041C212.547 55.3631 214.393 54.1002 213.899 52.7427Z" fill="#CE1126" />
<path d="M215.683 58.4001C215.309 57.0047 213.072 57.029 210.979 57.5898C205.935 58.9414 203.463 60.2663 196.364 63.5765C204.167 62.8936 206.971 62.8051 212.015 61.4535C214.107 60.8927 216.057 59.7956 215.683 58.4001Z" fill="#CE1126" />
<path d="M83.0328 64.192C82.782 65.6147 84.8193 66.5379 86.953 66.9141C92.0957 67.8209 94.896 67.6648 102.729 67.665C95.3684 64.9861 92.7903 63.8817 87.6476 62.9749C85.5139 62.5986 83.2837 62.7693 83.0328 64.192Z" fill="#CE1126" />
<path d="M84.3165 58.4002C83.9426 59.7956 85.8917 60.8928 87.9845 61.4536C93.0286 62.8051 95.8318 62.8937 103.635 63.5766C96.5358 60.2664 94.0638 58.9414 89.0198 57.5899C86.9269 57.0291 84.6904 57.0047 84.3165 58.4002Z" fill="#CE1126" />
<path d="M86.101 52.7427C85.6069 54.1002 87.453 55.3631 89.489 56.1042C94.3961 57.8902 97.1809 58.2227 104.895 59.5831C98.1112 55.6668 95.7641 54.1314 90.8571 52.3454C88.8211 51.6043 86.5951 51.3851 86.101 52.7427Z" fill="#CE1126" />
<path d="M88.3716 47.2621C87.7611 48.5714 89.49 49.9904 91.4537 50.9061C96.1864 53.113 98.9317 53.687 106.498 55.7145C100.081 51.2218 97.8769 49.4877 93.1442 47.2808C91.1805 46.3651 88.9821 45.9528 88.3716 47.2621Z" fill="#CE1126" />
<path d="M91.1104 41.9999C90.388 43.251 91.9867 44.8153 93.8631 45.8986C98.3855 48.5096 101.07 49.3207 108.431 51.9999C102.43 46.9651 100.386 45.0455 95.8631 42.4345C93.9867 41.3512 91.8327 40.7488 91.1104 41.9999Z" fill="#CE1126" />
<path d="M94.2975 36.9965C93.4689 38.1799 94.9252 39.8775 96.7 41.1203C100.978 44.1155 103.582 45.1575 110.681 48.468C105.142 42.9294 103.272 40.8389 98.9944 37.8437C97.2195 36.6009 95.1262 35.8131 94.2975 36.9965Z" fill="#CE1126" />
<path d="M97.9086 32.2902C96.98 33.3969 98.2828 35.215 99.9426 36.6077C103.943 39.9643 106.446 41.2293 113.23 45.1459C108.194 39.1456 106.514 36.9001 102.514 33.5435C100.854 32.1508 98.8372 31.1835 97.9086 32.2902Z" fill="#CE1126" />
<path d="M101.916 27.9164C100.895 28.9379 102.034 30.8626 103.566 32.3947C107.259 36.0872 109.642 37.5655 116.058 42.0585C111.565 35.6422 110.087 33.2588 106.395 29.5663C104.862 28.0342 102.938 26.8948 101.916 27.9164Z" fill="#CE1126" />
<path d="M106.29 23.9092C105.183 24.8379 106.151 26.8546 107.543 28.5144C110.9 32.5146 113.145 34.1951 119.146 39.2301C115.229 32.4467 113.964 29.9435 110.607 25.9432C109.215 24.2834 107.397 22.9806 106.29 23.9092Z" fill="#CE1126" />
<path d="M110.997 20.2982C109.813 21.1268 110.601 23.2201 111.844 24.995C114.839 29.2726 116.93 31.1423 122.468 36.6812C119.158 29.5822 118.116 26.9783 115.121 22.7007C113.878 20.9258 112.18 19.4695 110.997 20.2982Z" fill="#CE1126" />
<path d="M116 17.1104C114.749 17.8327 115.351 19.9867 116.434 21.8631C119.045 26.3855 120.965 28.4303 126 34.4309C123.32 27.0703 122.509 24.3855 119.898 19.8631C118.815 17.9867 117.251 16.388 116 17.1104Z" fill="#CE1126" />
<path d="M121.262 14.3711C119.953 14.9816 120.365 17.18 121.281 19.1436C123.487 23.8764 125.222 26.0807 129.714 32.4972C127.687 24.9312 127.113 22.1859 124.906 17.4532C123.99 15.4895 122.571 13.7605 121.262 14.3711Z" fill="#CE1126" />
<path d="M126.742 12.1011C125.384 12.5952 125.603 14.8212 126.344 16.8572C128.13 21.7642 129.666 24.1113 133.582 30.895C132.222 23.181 131.889 20.3962 130.103 15.4891C129.362 13.4531 128.099 11.607 126.742 12.1011Z" fill="#CE1126" />
<path d="M132.4 10.3173C131.004 10.6912 131.029 12.9278 131.589 15.0206C132.941 20.0647 134.266 22.5367 137.576 29.6358C136.893 21.8327 136.805 19.0294 135.453 13.9854C134.892 11.8925 133.795 9.94342 132.4 10.3173Z" fill="#CE1126" />
<path d="M138.191 9.03307C136.769 9.28394 136.598 11.5141 136.974 13.6479C137.881 18.7905 138.985 21.3686 141.664 28.7292C141.664 20.8963 141.82 18.0959 140.913 12.9533C140.537 10.8195 139.614 8.78221 138.191 9.03307Z" fill="#CE1126" />
<path d="M144.072 8.25879C142.633 8.38471 142.269 10.5915 142.458 12.7499C142.913 17.9521 143.788 20.6166 145.816 28.1827C146.498 20.3795 146.898 17.6035 146.443 12.4013C146.254 10.2429 145.512 8.13288 144.072 8.25879Z" fill="#CE1126" />
<path d="M0 62H300V67H0V62Z" fill="black" />
</g></svg>