<svg xmlns="http://www.w3.org/2000/svg" viewBox="0 0 300 200">
<path d="M148.636 50C146.489 54.52 142.447 57.679 138.584 60.6687C137.948 61.2237 136.368 62.2987 137.514 63.117C138.496 62.0193 141.192 63.473 139.625 64.6537C138.222 65.967 136.29 66.448 134.731 67.532C133.351 68.282 131.951 69.0647 130.857 70.2123C130.783 72.0057 133.082 71.013 134.015 71.76C135.23 73.0587 133.5 75.2487 131.905 74.7477C129.866 74.8103 128.458 76.6043 127.687 78.3157C126.092 80.7817 123.07 81.5123 120.664 82.9157C119.287 83.718 117.952 84.606 116.67 85.5423C115.018 86.6723 116.455 88.909 118.214 88.36C120.111 88.1707 121.819 86.6797 123.784 87.1093C125.565 87.7353 126.065 90.064 125.458 91.69C125.008 92.9917 123.918 93.9087 123.045 94.9253C121.628 96.3617 119.774 97.294 117.819 97.7387C115.93 98.373 114.231 99.5303 112.992 101.093C111.554 102.541 110.121 104.012 108.468 105.22C107.946 106.552 109.42 107.687 110.648 107.652C113.237 107.489 115.031 105.37 117.236 104.281C119.066 103.459 121.22 105.431 120.772 107.337C120.63 109.192 118.894 110.133 117.35 110.703C112.812 112.985 108.871 116.293 105.373 119.943C104.649 121.42 102.659 120.985 101.588 122.014C100.891 123.316 102.642 124.003 103.687 123.869C108.177 123.329 112.367 121.431 116.336 119.343C117.812 118.637 119.198 117.709 120.732 117.146C122.174 116.79 124.184 117.416 124.441 119.057C124.439 120.789 122.724 121.748 121.365 122.425C117.175 124.626 112.577 125.843 108.098 127.298C106.422 126.83 105.158 129.813 106.998 130.349C108.942 131.016 111.01 130.481 112.999 130.394C119.151 129.451 124.531 126.123 130.281 123.971C132.672 123.192 135.493 124.279 136.673 126.519C137.858 128.516 137.75 131.141 136.5 133.081C134.524 137.309 131.52 141.194 127.487 143.625C124.956 144.878 122.001 145.357 119.831 147.276C117.825 147.937 120.837 150.649 121.273 148.497C122.478 146.852 124.605 146.361 126.534 146.293C129.433 145.977 132.511 145.443 134.764 143.436C136.783 141.868 138.773 139.704 141.515 139.671C143.03 139.85 144.529 141.068 146.068 140.325C147.415 139.708 149.527 140.07 149.879 141.725C150.522 143.662 152.518 144.544 154.102 145.58C154.675 146.385 156.579 148.46 157.018 146.63C156.663 145.325 157.17 143.328 158.882 143.764C160.377 143.831 161.802 144.383 163.295 144.473C165.282 144.885 166.94 146.245 168.069 147.888C168.845 148.961 170.546 150.803 171.809 149.381C172.593 147.911 171.097 146.684 169.878 146.159C168.101 145.058 166.582 143.592 165.029 142.204C162.739 140.065 160.761 137.345 160.398 134.15C159.905 130.965 160.164 127.716 160.58 124.54C161.103 122.495 163.719 121.378 165.547 122.465C168.12 123.639 170.676 125.319 173.626 125.137C177.888 125.228 182.269 124.412 186.434 125.647C190.488 126.924 193.387 130.345 197.335 131.826C198.219 132.363 199.35 131.852 199.674 130.907C200.066 130.059 199.789 128.974 198.972 128.49C194.395 123.87 188.141 121.626 182.846 118.017C181.179 117.593 180.875 114.911 182.416 114.137C184.442 112.664 187.309 113.35 189.107 114.868C190.625 115.757 192.335 116.423 194.116 116.425C195.94 115.854 195.056 113.214 193.423 113.015C190.463 111.344 188.343 108.602 185.779 106.429C184.302 105.179 182.687 103.913 180.702 103.671C179.618 103.473 178.509 103.43 177.41 103.504C176.379 102.384 177.753 100.669 179.085 100.809C180.453 100.901 181.812 101.003 183.178 100.812C184.704 100.701 186.229 100.543 187.76 100.532C188.996 101.374 191.467 99.92 190.351 98.4683C189.132 97.4003 187.37 97.493 185.913 96.945C183.356 96.1089 180.752 95.4244 178.114 94.895C176.27 94.785 176.497 92.3577 178.118 92.0897C179.179 91.694 180.102 92.509 181.12 92.6353C182.859 93.0093 184.655 93.0043 186.393 93.3833C187.868 92.6557 186.728 90.5023 185.395 90.3767C182.249 89.2517 179.53 87.2213 176.871 85.246C173.937 83.039 171.274 80.4867 168.304 78.3303C167.226 77.6627 165.459 77.4703 165.176 75.99C165.076 74.628 166.678 74.008 167.815 74.3263C169.427 74.8023 170.929 75.6313 172.572 76.0383C173.861 76.2577 175.191 76.639 176.433 76.4767C178.01 75.4853 175.756 74.852 174.941 74.5083C172.838 73.374 170.969 71.863 169.077 70.4217C167.477 69.0567 170.433 68.4537 171.45 68.9793C173.15 69.6903 173.344 67.2133 172.073 66.59C170.576 65.9533 169.288 64.8967 167.931 63.9747C165.477 62.2287 162.699 60.8463 159.684 60.4623C156.303 60.1227 153.147 58.1787 151.354 55.2873C150.241 53.6397 149.425 51.8173 148.636 50ZM137.534 68.967C139.276 69.0187 139.008 72.1593 137.293 71.9497C135.627 71.8423 135.729 68.6297 137.534 68.967ZM153.97 70.6583C155.665 70.355 156.024 73.449 154.33 73.5943C152.565 73.9103 151.911 70.4623 153.97 70.6583ZM149.156 71.0617C150.875 71.3997 150.569 74.3943 148.834 74.4203C147.565 74.703 146.197 75.5693 144.913 74.9203C143.868 73.8157 145.378 72.1827 146.543 71.8237C147.437 71.6433 148.26 71.2373 149.156 71.0617ZM160.235 71.0747C161.892 71.6787 161.307 74.603 159.56 74.5657C157.908 74.7873 157.138 72.0307 158.679 71.377C159.178 71.2003 159.7 71.0513 160.235 71.0747ZM141.545 74.3917C142.763 75.551 142.044 77.7883 140.542 78.323C139.459 78.925 137.983 80.3497 136.804 79.1773C136.164 77.7457 137.77 76.6677 138.715 75.873C139.558 75.2177 140.488 74.6227 141.545 74.3917ZM155.456 80.8573C157.2 81.6807 156.315 84.8237 154.401 84.6283C152.829 84.23 153.034 81.5337 154.618 81.3187C154.917 81.204 155.191 81.0353 155.456 80.8573ZM149.923 81.1693C151.554 81.933 150.308 84.655 148.665 84.2627C146.962 84.0627 146.993 81.068 148.872 81.3383C149.226 81.321 149.591 81.3117 149.923 81.1693ZM161.851 82.7307C163.639 82.176 165.791 84.0173 165.211 85.8853C164.415 87.3333 162.445 87.5163 161.033 86.9753C159.413 86.8953 158.323 84.459 159.766 83.4273C160.364 82.9763 161.117 82.7907 161.851 82.7307ZM135.445 83.199C136.923 82.3947 138.493 84.8117 137.236 85.8777C136.403 87.102 134.265 87.602 133.322 86.241C132.539 84.911 133.805 82.6773 135.445 83.199ZM128.625 84.3437C130.302 84.573 131.394 86.096 132.014 87.5463C132.165 89.3133 129.558 90.283 128.42 88.9973C127.141 88.195 126.021 86.5447 126.692 85.013C127.105 84.4047 127.928 84.1537 128.625 84.3437H128.625ZM169.426 90.731C171.246 90.2517 172.567 93.1597 171.005 94.2117C169.576 95.5093 166.798 93.7903 167.543 91.9387C167.913 91.252 168.654 90.796 169.426 90.731ZM146.265 94.0483C147.791 94.2427 147.296 96.8873 145.885 96.7983C144.371 96.5177 144.718 93.8993 146.265 94.0483ZM138.525 95.4533C139.769 94.5727 141.374 96.722 140.339 97.7233C139.098 98.5973 137.489 96.4823 138.525 95.4533ZM150.831 95.7133C152.274 96.59 153.13 98.2243 153.309 99.8733C152.618 101.414 149.948 101.043 149.647 99.402C149.119 98.1043 149.606 96.4353 150.831 95.7137L150.831 95.7133ZM155.126 98.2633C156.985 97.7963 156.318 101.682 154.766 100.334C154.25 99.7217 154.526 98.7137 155.126 98.2633H155.126ZM128.153 100.969C129.384 100.609 131.179 100.988 131.518 102.4C131.662 103.728 130.202 104.419 129.132 104.748C127.417 105.277 125.74 106.146 123.896 106.029C122.514 105.239 122.018 103.622 121.525 102.212C122.859 100.962 124.823 101.329 126.477 101.016C127.035 100.988 127.594 100.972 128.153 100.969ZM169.993 107.057C171.563 106.287 173.252 108.78 171.937 109.944C170.293 111.837 167.127 112.188 165.161 110.598C164.925 108.924 166.597 107.707 168.084 107.467C168.709 107.29 169.33 107.026 169.993 107.057ZM178.818 108.97C180.603 108.663 182.008 111.208 180.734 112.525C179.528 114.343 176.652 114.82 175.008 113.33C174.367 111.822 175.668 110.252 177.052 109.768C177.646 109.515 178.21 109.19 178.818 108.97ZM134.442 111.676C136.094 111.512 137.608 113.152 137.391 114.781C138.587 115.958 136.469 118.151 135.278 116.932C134.228 115.659 134.233 113.933 133.826 112.41C133.808 112.072 134.059 111.634 134.442 111.676ZM147.126 112.625C148.834 111.887 151.044 113.93 150.114 115.66C149.45 117.069 146.86 116.597 146.946 114.965C146.942 114.184 146.879 113.383 147.126 112.625V112.625ZM140.955 113.731C142.668 113.338 144.239 115.559 143.288 117.04C141.58 117.192 140.694 115.165 140.955 113.731Z" fill="#00A651" />
</svg>