<svg width="400" height="200" viewBox="0 0 400 200" fill="none" xmlns="http://www.w3.org/2000/svg">
<path fill-rule="evenodd" clip-rule="evenodd" d="M201.875 148.625L203.75 184.583H196.25L198.125 148.625C198.152 148.033 198.047 147.444 197.816 146.898C197.585 146.353 197.234 145.867 196.791 145.475C196.347 145.083 195.821 144.796 195.251 144.635C194.682 144.473 194.083 144.441 193.5 144.542L157.708 150.833L162.542 137.5C162.738 136.969 162.763 136.391 162.613 135.845C162.464 135.3 162.147 134.815 161.708 134.458L122.5 102.708L131.333 98.5832C131.93 98.3013 132.403 97.8112 132.664 97.2051C132.925 96.599 132.955 95.9186 132.75 95.2915L125 71.4582L147.583 76.2498C148.195 76.3774 148.832 76.2894 149.387 76.0009C149.941 75.7123 150.379 75.2408 150.625 74.6665L155 64.3748L172.625 83.2915C173.028 83.7166 173.558 83.9995 174.135 84.098C174.713 84.1964 175.307 84.1049 175.828 83.8374C176.349 83.5698 176.769 83.1405 177.025 82.6139C177.282 82.0873 177.361 81.4917 177.25 80.9165L168.75 37.0832L182.375 44.9582C182.695 45.1457 183.05 45.2655 183.418 45.3102C183.786 45.3549 184.159 45.3235 184.515 45.218C184.87 45.1126 185.2 44.9352 185.484 44.697C185.769 44.4588 186.001 44.1648 186.167 43.8332L200 16.6665L213.833 43.8332C213.999 44.1648 214.231 44.4588 214.516 44.697C214.8 44.9352 215.13 45.1126 215.485 45.218C215.841 45.3235 216.214 45.3549 216.582 45.3102C216.95 45.2655 217.305 45.1457 217.625 44.9582L231.25 37.0832L222.75 80.9165C222.639 81.4917 222.718 82.0873 222.975 82.6139C223.231 83.1405 223.651 83.5698 224.172 83.8374C224.693 84.1049 225.287 84.1964 225.865 84.098C226.442 83.9995 226.972 83.7166 227.375 83.2915L245 64.3748L249.375 74.6665C249.621 75.2408 250.059 75.7123 250.613 76.0009C251.168 76.2894 251.805 76.3774 252.417 76.2498L275 71.4582L267.25 95.2915C267.045 95.9186 267.075 96.599 267.336 97.2051C267.597 97.8112 268.07 98.3013 268.667 98.5832L277.5 102.708L238.292 134.458C237.853 134.815 237.536 135.3 237.387 135.845C237.237 136.391 237.262 136.969 237.458 137.5L242.292 150.833L206.5 144.542C205.917 144.441 205.318 144.473 204.749 144.635C204.179 144.796 203.653 145.083 203.209 145.475C202.766 145.867 202.415 146.353 202.184 146.898C201.953 147.444 201.848 148.033 201.875 148.625Z" fill="#FF0000"/>
</svg>
