<?xml version='1.0' encoding='us-ascii'?>
<svg xmlns="http://www.w3.org/2000/svg" width="334" height="200" viewBox="0 0 334 200" fill="none">
<g clip-path="url(#clip0_5_4252)">
<path d="M136.667 99.7763L139.993 99.9987C140.004 99.8367 140.014 99.6747 140.026 99.5127L138.717 99.4253C138.75 98.891 138.795 98.357 138.819 97.822C139.281 97.4873 139.745 97.1533 140.206 96.8163L140.247 96.2003L138.784 97.2623C138.735 96.9163 138.544 96.56 138.196 96.4397C137.892 96.3297 137.519 96.3103 137.255 96.528C136.921 96.774 136.86 97.214 136.817 97.597C136.759 98.3227 136.718 99.0503 136.667 99.7763ZM137.173 99.3223C137.213 98.7763 137.238 98.229 137.29 97.6843C137.331 97.415 137.381 97.1037 137.617 96.932C137.83 96.7907 138.145 96.896 138.232 97.1367C138.406 97.5523 138.329 98.0107 138.306 98.4467L138.243 99.3937C137.886 99.3703 137.53 99.3463 137.173 99.3223ZM137.1 94.6687L140.346 95.4267L141.083 92.2673L140.622 92.1593L139.995 94.847L139.007 94.6163L139.572 92.1943L139.113 92.0873L138.548 94.5093L137.673 94.305L138.277 91.7183L137.814 91.61L137.1 94.6687ZM138.269 90.3097L141.417 91.4047L141.577 90.9447L140.339 90.514C140.501 90.0377 140.678 89.5667 140.826 89.086C140.933 88.6937 141.015 88.2353 140.784 87.8703C140.597 87.6007 140.264 87.428 139.934 87.4383C139.572 87.4537 139.276 87.7207 139.115 88.03C138.877 88.4773 138.744 88.9693 138.57 89.4433L138.269 90.3097ZM138.877 90.0057C139.046 89.5333 139.198 89.055 139.381 88.5877C139.494 88.338 139.632 88.042 139.92 87.9627C140.156 87.9083 140.403 88.09 140.424 88.332C140.482 88.7773 140.287 89.1977 140.15 89.611L139.89 90.358L138.877 90.0057ZM140.008 86.2777C140.601 86.622 141.19 86.9753 141.787 87.3133C142.124 87.4943 142.551 87.598 142.903 87.3953C143.383 87.1293 143.684 86.6383 143.92 86.1593C144.106 85.756 144.241 85.255 144.004 84.8427C143.749 84.431 143.285 84.2417 142.889 83.996L141.737 83.322L141.492 83.74C142.057 84.0727 142.626 84.3983 143.188 84.7353C143.457 84.899 143.679 85.1953 143.633 85.525C143.58 85.9177 143.355 86.262 143.132 86.5797C142.947 86.8363 142.638 87.044 142.309 86.9747C141.966 86.909 141.687 86.6847 141.386 86.5223L140.252 85.8593L140.008 86.2777ZM142.409 82.354L145.056 84.3797C145.467 83.843 145.876 83.3053 146.29 82.7717C146.527 82.431 146.746 81.9883 146.585 81.5703C146.439 81.2377 146.097 80.9803 145.729 80.9637C145.564 80.9403 145.348 81.066 145.258 81.1213C145.352 80.766 145.061 80.432 144.734 80.338C144.34 80.198 143.941 80.4507 143.68 80.7307C143.373 81.0643 143.117 81.4403 142.836 81.7957L142.409 82.354ZM143.08 82.2547C143.39 81.858 143.684 81.4477 144.008 81.0627C144.159 80.8947 144.401 80.7043 144.635 80.8277C144.849 80.92 144.901 81.1893 144.799 81.383C144.638 81.7297 144.371 82.0107 144.148 82.318L143.785 82.7933L143.08 82.2547ZM144.159 83.08C144.481 82.669 144.783 82.2423 145.122 81.8457C145.296 81.6643 145.513 81.436 145.788 81.4883C146.023 81.5423 146.194 81.797 146.113 82.0337C145.98 82.47 145.654 82.804 145.391 83.1657L144.978 83.7063L144.159 83.08ZM145.41 78.8183L147.699 81.2413L149.66 79.3887L149.335 79.0443L147.767 80.5263L147.727 80.5643L147.697 80.5337L145.762 78.4857L145.41 78.8183ZM148.345 76.2507L150.377 78.8933L150.773 78.5883L148.741 75.946L148.345 76.2507ZM151.33 74.2233C151.001 74.4283 150.736 74.6683 150.531 74.9487C150.327 75.2277 150.217 75.5187 150.201 75.8227C150.186 76.1267 150.267 76.4207 150.446 76.7083C150.607 76.9683 150.834 77.1805 151.104 77.323C151.378 77.4693 151.673 77.5233 151.996 77.4873C152.318 77.4513 152.681 77.309 153.086 77.0567C153.475 76.8147 153.75 76.536 153.92 76.2153C154.082 75.9073 154.128 75.5807 154.058 75.2327L153.597 75.4137C153.718 76.0797 153.288 76.3997 152.807 76.705C152.054 77.163 151.321 77.13 150.871 76.4417C150.405 75.666 150.915 75.025 151.555 74.6083C152.01 74.325 152.458 74.131 152.884 74.4023L153.245 74.081C152.997 73.9097 152.714 73.8303 152.393 73.8477C152.056 73.8663 151.704 73.9907 151.33 74.2233ZM155.269 72.2577L154.92 75.993L155.439 75.7837L155.544 74.6257L155.546 74.6247L157.232 73.9447L158.111 74.706L158.63 74.497L155.788 72.0483L155.269 72.2577H155.269ZM155.725 72.6407L156.834 73.5997L155.593 74.1003L155.725 72.6407ZM162.575 70.197L162.783 73.5237C163.385 73.4833 163.987 73.455 164.588 73.4053C165.061 73.351 165.568 73.2283 165.891 72.852C166.308 72.3897 166.367 71.6983 166.184 71.1227C166.031 70.616 165.575 70.2323 165.059 70.135C164.551 70.0373 164.033 70.1147 163.521 70.1377L162.575 70.197ZM163.089 70.6393C163.567 70.6143 164.045 70.5673 164.525 70.5647C164.798 70.5553 165.067 70.6375 165.288 70.7983C165.621 71.0263 165.817 71.437 165.773 71.84C165.749 72.3033 165.409 72.7297 164.958 72.8467C164.701 72.9133 164.433 72.9323 164.169 72.9613L163.237 73.0197L163.088 70.6397L163.089 70.6393ZM167.221 70L167.031 73.328L170.27 73.513L170.297 73.0403C169.379 72.9877 168.46 72.935 167.542 72.883C167.561 72.5453 167.581 72.2077 167.6 71.8697L170.083 72.0117L170.109 71.5413C169.282 71.494 168.454 71.4463 167.626 71.3993L167.678 70.503C168.562 70.553 169.446 70.604 170.33 70.6543L170.357 70.1793L167.221 70ZM175.925 71.3887L174.719 74.4963L175.148 74.663L176.104 72.1987L176.153 72.0707L176.207 72.213L177.356 75.519L177.917 75.7367L179.123 72.629L178.693 72.4623L177.738 74.9253L177.689 75.051L177.636 74.9103L176.485 71.606L175.925 71.3887ZM180.403 73.3123L178.887 76.2813L178.442 76.054L179.957 73.085L180.403 73.3123ZM182.917 74.7853C182.593 74.572 182.264 74.4303 181.924 74.3617C181.586 74.2927 181.275 74.3143 180.993 74.4267C180.71 74.539 180.476 74.7353 180.289 75.0183C180.12 75.273 180.022 75.5681 180.006 75.8733C179.987 76.1827 180.061 76.4733 180.229 76.7523C180.395 77.0297 180.677 77.3007 181.074 77.563C181.457 77.8153 181.825 77.949 182.187 77.9697C182.535 77.989 182.851 77.8943 183.138 77.6857L182.781 77.3423C182.226 77.73 181.756 77.473 181.278 77.163C180.548 76.6697 180.271 75.9893 180.709 75.2937C181.22 74.5463 182.015 74.742 182.661 75.1503C183.108 75.4453 183.471 75.7713 183.403 76.2723L183.845 76.466C183.897 76.1687 183.852 75.8793 183.702 75.5947C183.544 75.296 183.284 75.0277 182.917 74.7853ZM186.091 77.1793L182.606 78.5693L183.029 78.936L184.108 78.5023L184.109 78.504L185.482 79.6957L185.205 80.8247L185.627 81.1917L186.513 77.5463L186.091 77.1797V77.1793ZM185.957 77.7597L185.608 79.183L184.597 78.306L185.957 77.7597ZM188.608 79.4953L186.036 81.6163L186.346 81.992L187.358 81.1577C187.7 81.569 188.034 81.9883 188.384 82.3933C188.277 82.9543 188.17 83.5153 188.065 84.0767L188.458 84.5533L188.793 82.7767C189.081 83.0127 189.502 83.1313 189.847 82.9443C190.143 82.8043 190.403 82.535 190.419 82.192C190.455 81.7323 190.127 81.36 189.865 81.019C189.446 80.511 189.027 80.0033 188.608 79.4953ZM188.552 80.1733C188.912 80.618 189.29 81.0487 189.634 81.506C189.792 81.742 189.99 82.0733 189.808 82.3487C189.658 82.5843 189.33 82.5637 189.128 82.411C188.72 82.1363 188.45 81.7153 188.132 81.3497L187.724 80.8553L188.552 80.1733ZM192.508 84.8003L188.76 84.972L189.039 85.4573L190.201 85.4007L190.202 85.4027L191.108 86.9783L190.476 87.9543L190.755 88.4393L192.787 85.2853L192.508 84.8003ZM192.192 85.305L191.395 86.5353L190.728 85.3753L192.192 85.3053V85.305ZM194.646 89.2127C194.438 88.647 194.109 88.068 193.553 87.7853C192.934 87.4743 192.11 87.6253 191.672 88.1703C191.289 88.6237 191.27 89.264 191.372 89.821C191.492 90.4603 191.786 91.069 192.226 91.5497L191.977 91.639L192.137 92.0827L193.698 91.5217L193.091 89.8353L192.73 89.9653L193.177 91.208L192.648 91.398C192.181 90.997 191.921 90.4047 191.786 89.8153C191.685 89.373 191.681 88.843 192.017 88.4953C192.402 88.0947 193.084 87.9703 193.546 88.312C194.001 88.6453 194.259 89.1857 194.389 89.723C194.477 90.0763 194.463 90.4963 194.195 90.772C194.12 90.828 194.239 90.9063 194.259 90.9737L194.386 91.1843C194.527 91.0733 194.641 90.9316 194.718 90.7701C194.796 90.6085 194.836 90.4313 194.834 90.252C194.844 89.8973 194.766 89.5453 194.646 89.2127ZM195.604 91.8157L193.739 92.1783C193.394 92.2457 193.134 92.355 192.961 92.501C192.789 92.6467 192.678 92.8517 192.625 93.1247C192.572 93.3947 192.58 93.7257 192.657 94.128C192.658 94.1312 192.659 94.1344 192.659 94.1377C192.738 94.54 192.855 94.8493 193.005 95.08C193.157 95.3133 193.336 95.462 193.551 95.532C193.766 95.6023 194.047 95.607 194.393 95.5397L196.257 95.177L196.165 94.7013L194.346 95.0553C193.529 95.214 193.254 94.7843 193.114 94.049L193.112 94.0397C192.966 93.3057 193.06 92.804 193.877 92.645L195.696 92.2913L195.604 91.8157ZM196.626 97.489L193.177 96.014L193.217 96.5723L194.288 97.0263V97.0287L194.419 98.842L193.426 99.4457L193.466 100.004L196.667 98.0473L196.626 97.489ZM196.122 97.806L194.87 98.5677L194.773 97.233L196.122 97.8063V97.806ZM139.251 106.112L138.767 106.239L139.302 108.27L139.785 108.143L139.251 106.112ZM194.094 106.112L194.578 106.239L194.043 108.27L193.56 108.142L194.094 106.112ZM144.406 114.663L140.679 115.092L140.991 115.557L142.145 115.42L142.147 115.422L143.16 116.932L142.596 117.949L142.908 118.414L144.718 115.128L144.406 114.663ZM144.125 115.188L143.415 116.47L142.669 115.359L144.125 115.188ZM145.832 116.699L143.457 118.921L143.774 119.26L145.776 117.388L144.726 120.278L145.089 120.667L147.96 119.796L145.994 121.634L146.311 121.973L148.687 119.752L148.205 119.237L145.288 120.108L146.38 117.285L145.832 116.699ZM149.293 120.23L147.287 122.892L149.879 124.844L150.164 124.466L147.959 122.806L148.57 121.995L150.556 123.491L150.84 123.115L148.853 121.619L149.393 120.901L151.515 122.499L151.802 122.119L149.293 120.23ZM152.554 122.617L150.984 125.558C151.127 125.634 151.271 125.71 151.413 125.787L152.031 124.63C152.504 124.88 152.973 125.14 153.451 125.382C153.566 125.941 153.68 126.501 153.797 127.06L154.342 127.35L153.975 125.58C154.332 125.689 154.766 125.638 155.013 125.334C155.223 125.099 155.366 124.769 155.265 124.454C155.148 124.019 154.72 123.792 154.359 123.581C153.758 123.258 153.155 122.939 152.554 122.617ZM152.76 123.265C153.262 123.539 153.776 123.793 154.268 124.085C154.496 124.239 154.786 124.45 154.757 124.761C154.732 125.033 154.438 125.179 154.189 125.121C153.703 125.04 153.293 124.75 152.859 124.534L152.255 124.211L152.76 123.265ZM156.319 124.585L155.059 127.672L155.523 127.86L156.782 124.774L156.319 124.585ZM159.325 125.624C158.957 125.501 158.603 125.45 158.256 125.472C157.912 125.494 157.617 125.595 157.373 125.777C157.129 125.959 156.955 126.209 156.848 126.531C156.751 126.821 156.733 127.131 156.796 127.43C156.858 127.734 157.005 127.996 157.239 128.221C157.473 128.446 157.814 128.635 158.267 128.785C158.701 128.929 159.092 128.963 159.447 128.888C159.787 128.817 160.068 128.643 160.291 128.367L159.858 128.128C159.422 128.647 158.902 128.521 158.359 128.345C157.526 128.059 157.083 127.473 157.325 126.688C157.624 125.834 158.443 125.816 159.172 126.043C159.681 126.211 160.116 126.432 160.18 126.934L160.658 127.006C160.631 126.705 160.512 126.437 160.293 126.202C160.063 125.954 159.743 125.762 159.325 125.624ZM162.676 126.374L160.496 129.427L161.05 129.507L161.723 128.559H161.726L163.525 128.82L163.902 129.92L164.456 130L163.23 126.454L162.676 126.374ZM162.878 126.934L163.353 128.321L162.029 128.129L162.878 126.934V126.934ZM170.49 126.398C170.109 126.471 169.775 126.6 169.484 126.788C169.194 126.976 168.987 127.208 168.863 127.486C168.74 127.764 168.71 128.068 168.774 128.401C168.831 128.701 168.967 128.981 169.169 129.211C169.372 129.445 169.628 129.602 169.943 129.684C170.256 129.765 170.646 129.762 171.114 129.672C171.564 129.585 171.92 129.424 172.194 129.185C172.456 128.956 172.616 128.667 172.675 128.317L172.18 128.321C172.054 128.986 171.539 129.131 170.98 129.244C170.113 129.402 169.44 129.108 169.267 128.304C169.109 127.413 169.815 126.997 170.562 126.838C171.088 126.736 171.576 126.715 171.877 127.122L172.329 126.951C172.158 126.702 171.923 126.526 171.617 126.428C171.295 126.325 170.922 126.314 170.49 126.398ZM172.716 126.003L173.664 129.199L176.774 128.276L176.64 127.822L173.994 128.607L173.705 127.634L176.09 126.927L175.956 126.475L173.571 127.183L173.316 126.322L175.863 125.566L175.727 125.11L172.716 126.003ZM176.322 124.87L177.721 127.895L178.139 127.702L176.972 125.179C178.051 125.668 179.123 126.172 180.2 126.667C180.271 126.729 180.343 126.688 180.415 126.649L180.835 126.455L179.435 123.43L179.017 123.623L180.183 126.143C179.075 125.641 177.973 125.125 176.867 124.618L176.322 124.87ZM179.982 123.151L180.243 123.547L181.434 122.764L181.479 122.734L181.502 122.768L183.051 125.122L183.455 124.855L181.906 122.502L181.884 122.468L181.93 122.438L183.127 121.65L182.865 121.253L179.982 123.151ZM183.336 120.854L185.595 123.306L185.954 122.976L185.065 122.012C185.457 121.647 185.857 121.291 186.242 120.919C186.808 120.995 187.374 121.071 187.941 121.145L188.395 120.726L186.603 120.489C186.823 120.188 186.918 119.761 186.712 119.428C186.556 119.14 186.273 118.895 185.929 118.898C185.469 118.888 185.115 119.235 184.789 119.516C184.305 119.962 183.82 120.409 183.336 120.854ZM184.016 120.873C184.441 120.49 184.85 120.088 185.288 119.72C185.514 119.549 185.834 119.333 186.12 119.499C186.363 119.636 186.361 119.965 186.219 120.175C185.967 120.598 185.561 120.89 185.213 121.229L184.743 121.662L184.016 120.873ZM187.214 116.973L188.705 120.415L189.06 119.982L188.595 118.916L188.596 118.914L189.747 117.507L190.884 117.752L191.238 117.319L187.568 116.54L187.214 116.973V116.973ZM187.798 117.089L189.232 117.397L188.384 118.432L187.798 117.089ZM188.666 115.084L191.463 116.898L192.93 114.634L192.533 114.377L191.359 116.187L191.329 116.234L191.294 116.211L188.93 114.678L188.666 115.084Z" fill="#C8A400" />
<mask id="mask0_5_4252" style="mask-type:luminance" maskUnits="userSpaceOnUse" x="145" y="75" width="43" height="38">
<path d="M166.667 75.4585L145.433 112.236H187.9L166.667 75.4585Z" fill="white" />
</mask>
<g mask="url(#mask0_5_4252)">
<path d="M166.667 75.4692L156.174 93.6476L151.034 102.548H182.3L177.395 94.0536L166.667 75.4692H166.667Z" fill="white" />
<path opacity="0.62" d="M166.667 75.4692L165.881 76.8299L166.667 95.1556L167.453 76.8299L166.667 75.4692Z" fill="#17C0EB" stroke="#17C0EB" stroke-width="0.0403125" />
<path d="M166.667 92.4917L166.622 92.4927L166.667 93.5297L166.712 92.4927L166.667 92.4917Z" fill="white" />
<path opacity="0.62" d="M185.39 89.0724L183.853 88.7457L166.667 95.1558L184.338 90.2401L185.39 89.0724Z" fill="#17C0EB" stroke="#17C0EB" stroke-width="0.0403125" />
<path d="M169.201 94.3325L169.186 94.2903L168.213 94.6533L169.213 94.3753L169.201 94.3325Z" fill="white" />
<path opacity="0.62" d="M178.238 111.082L178.074 109.519L166.667 95.1553L176.803 110.443L178.238 111.082Z" fill="#17C0EB" stroke="#17C0EB" stroke-width="0.0403125" />
<path d="M168.233 97.3104L168.268 97.2834L167.623 96.4707L168.196 97.3359L168.233 97.3104Z" fill="white" />
<path opacity="0.62" d="M155.096 111.082L156.531 110.443L166.667 95.1556L155.26 109.52L155.096 111.082Z" fill="#17C0EB" stroke="#17C0EB" stroke-width="0.0403125" />
<path d="M165.101 97.3107L165.138 97.3361L165.711 96.4709L165.066 97.2836L165.101 97.3107Z" fill="white" />
<path opacity="0.62" d="M147.944 89.0721L148.995 90.2398L166.667 95.1555L149.481 88.7454L147.944 89.0721Z" fill="#17C0EB" stroke="#17C0EB" stroke-width="0.0403125" />
<path d="M164.133 94.3325L164.121 94.3753L165.121 94.6533L164.148 94.2903L164.133 94.3325Z" fill="white" />
<path opacity="0.62" d="M169.407 75.6611L168.439 76.8992L166.667 95.1558L169.995 77.1179L169.407 75.6611Z" fill="#17C0EB" stroke="#17C0EB" stroke-width="0.0403125" />
<path d="M167.038 92.5179L166.993 92.5127L166.893 93.5458L167.082 92.5251L167.038 92.5179Z" fill="white" />
<path opacity="0.62" d="M186.054 91.7371L184.578 91.1997L166.667 95.1556L184.851 92.7471L186.054 91.7371Z" fill="#17C0EB" stroke="#17C0EB" stroke-width="0.0403125" />
<path d="M169.29 94.6929L169.282 94.6491L168.268 94.8732L169.297 94.7371L169.29 94.6929Z" fill="white" />
<path opacity="0.62" d="M175.909 112.538L175.964 110.968L166.667 95.1558L174.577 111.705L175.909 112.538Z" fill="#17C0EB" stroke="#17C0EB" stroke-width="0.0403125" />
<path d="M167.918 97.5078L167.957 97.4859L167.43 96.5913L167.878 97.5279L167.918 97.5078Z" fill="white" />
<path opacity="0.62" d="M152.992 109.317L154.502 108.884L166.667 95.1559L153.372 107.792L152.992 109.317Z" fill="#17C0EB" stroke="#17C0EB" stroke-width="0.0403125" />
<path d="M164.817 97.072L164.849 97.1023L165.538 96.3253L164.785 97.0403L164.817 97.072Z" fill="white" />
<path opacity="0.62" d="M148.973 86.5258L149.852 87.8284L166.667 95.1557L150.54 86.4161L148.973 86.5258Z" fill="#17C0EB" stroke="#17C0EB" stroke-width="0.0403125" />
<path d="M164.273 93.9877L164.254 94.0283L165.206 94.4427L164.293 93.948L164.273 93.9877Z" fill="white" />
<path opacity="0.62" d="M172.093 76.2322L170.963 77.3236L166.667 95.1559L172.473 77.7567L172.093 76.2322Z" fill="#17C0EB" stroke="#17C0EB" stroke-width="0.0403125" />
<path d="M167.401 92.5953L167.358 92.584L167.115 93.5931L167.444 92.6086L167.401 92.5953Z" fill="white" />
<path opacity="0.62" d="M186.341 94.4688L184.954 93.7311L166.667 95.1558L185.009 95.3015L186.341 94.4688Z" fill="#17C0EB" stroke="#17C0EB" stroke-width="0.0403125" />
<path d="M169.329 95.0627L169.327 95.0181L168.292 95.0989L169.33 95.1074L169.329 95.0627Z" fill="white" />
<path opacity="0.62" d="M173.4 113.655L173.673 112.108L166.667 95.1558L172.196 112.645L173.4 113.655Z" fill="#17C0EB" stroke="#17C0EB" stroke-width="0.0403125" />
<path d="M167.578 97.6593L167.62 97.6431L167.223 96.6839L167.536 97.6737L167.578 97.6593Z" fill="white" />
<path opacity="0.62" d="M151.154 107.276L152.71 107.057L166.667 95.1558L151.743 105.819L151.154 107.276Z" fill="#17C0EB" stroke="#17C0EB" stroke-width="0.0403125" />
<path d="M164.568 96.7959L164.596 96.8304L165.386 96.1568L164.541 96.76L164.568 96.7959Z" fill="white" />
<path opacity="0.62" d="M150.346 84.1475L151.035 85.5597L166.667 95.1559L151.914 84.257L150.346 84.1475Z" fill="#17C0EB" stroke="#17C0EB" stroke-width="0.0403125" />
<path d="M164.459 93.6661L164.434 93.7037L165.319 94.2465L164.484 93.6296L164.459 93.6661Z" fill="white" />
<path opacity="0.62" d="M174.674 77.1716L173.403 78.0951L166.667 95.156L174.838 78.7342L174.674 77.1716Z" fill="#17C0EB" stroke="#17C0EB" stroke-width="0.0403125" />
<path d="M167.751 92.7223L167.709 92.705L167.328 93.6705L167.791 92.7413L167.751 92.7223Z" fill="white" />
<path opacity="0.62" d="M186.246 97.2135L184.974 96.2899L166.667 95.1557L184.81 97.8526L186.246 97.2135Z" fill="#17C0EB" stroke="#17C0EB" stroke-width="0.0403125" />
<path d="M169.316 95.4341L169.32 95.3895L168.284 95.3256L169.311 95.4784L169.316 95.4341Z" fill="white" />
<path opacity="0.62" d="M170.76 114.412L171.245 112.918L166.667 95.1557L169.708 113.244L170.76 114.412Z" fill="#17C0EB" stroke="#17C0EB" stroke-width="0.0403125" />
<path d="M167.221 97.7617L167.264 97.7515L167.005 96.7464L167.177 97.77L167.221 97.7617Z" fill="white" />
<path opacity="0.62" d="M149.618 104.999L151.189 104.999L166.667 95.1561L150.404 103.639L149.618 104.999Z" fill="#17C0EB" stroke="#17C0EB" stroke-width="0.0403125" />
<path d="M164.36 96.4882L164.383 96.5264L165.259 95.9692L164.339 96.449L164.36 96.4882Z" fill="white" />
<path opacity="0.62" d="M152.037 81.983L152.523 83.4774L166.667 95.1558L153.574 82.3096L152.037 81.983Z" fill="#17C0EB" stroke="#17C0EB" stroke-width="0.0403125" />
<path d="M164.687 93.3731L164.658 93.4069L165.459 94.0676L164.718 93.3405L164.687 93.3731Z" fill="white" />
<path opacity="0.62" d="M177.099 78.4608L175.712 79.1983L166.667 95.1557L177.044 80.031L177.099 78.4608Z" fill="#17C0EB" stroke="#17C0EB" stroke-width="0.0403125" />
<path d="M168.079 92.8967L168.04 92.8739L167.529 93.777L168.116 92.9212L168.079 92.8967Z" fill="white" />
<path opacity="0.62" d="M185.768 99.9186L184.638 98.8271L166.667 95.156L184.258 100.352L185.768 99.9186Z" fill="#17C0EB" stroke="#17C0EB" stroke-width="0.0403125" />
<path d="M169.252 95.8007L169.261 95.7571L168.244 95.5496L169.24 95.8438L169.252 95.8007Z" fill="white" />
<path opacity="0.62" d="M168.04 114.794L168.729 113.382L166.667 95.1557L167.162 113.492L168.04 114.794Z" fill="#17C0EB" stroke="#17C0EB" stroke-width="0.0403125" />
<path d="M166.853 97.8132L166.897 97.8091L166.78 96.7777L166.808 97.8153L166.853 97.8132Z" fill="white" />
<path opacity="0.62" d="M148.414 102.53L149.97 102.749L166.667 95.1557L149.381 101.292L148.414 102.53Z" fill="#17C0EB" stroke="#17C0EB" stroke-width="0.0403125" />
<path d="M164.197 96.1539L164.215 96.1949L165.16 95.7651L164.181 96.1121L164.197 96.1539Z" fill="white" />
<path opacity="0.62" d="M154.013 80.0751L154.286 81.6224L166.667 95.1557L155.489 80.6124L154.013 80.0751Z" fill="#17C0EB" stroke="#17C0EB" stroke-width="0.0403125" />
<path d="M164.954 93.1148L164.921 93.1443L165.622 93.91L164.989 93.0869L164.954 93.1148Z" fill="white" />
<path opacity="0.62" d="M179.321 80.0753L177.845 80.6126L166.667 95.1559L179.048 81.6227L179.321 80.0753Z" fill="#17C0EB" stroke="#17C0EB" stroke-width="0.0403125" />
<path d="M168.379 93.1151L168.345 93.0872L167.712 93.9103L168.413 93.1446L168.379 93.1151Z" fill="white" />
<path opacity="0.62" d="M184.92 102.53L183.953 101.292L166.667 95.1556L183.364 102.749L184.92 102.53Z" fill="#17C0EB" stroke="#17C0EB" stroke-width="0.0403125" />
<path d="M169.137 96.1537L169.153 96.1119L168.175 95.7649L169.12 96.1948L169.137 96.1537Z" fill="white" />
<path opacity="0.62" d="M165.294 114.794L166.173 113.492L166.667 95.1559L164.605 113.382L165.294 114.794Z" fill="#17C0EB" stroke="#17C0EB" stroke-width="0.0403125" />
<path d="M166.481 97.8133L166.526 97.8154L166.554 96.7778L166.437 97.8092L166.481 97.8133Z" fill="white" />
<path opacity="0.62" d="M147.566 99.9183L149.076 100.351L166.667 95.1558L148.696 98.8268L147.566 99.9183Z" fill="#17C0EB" stroke="#17C0EB" stroke-width="0.0403125" />
<path d="M164.082 95.8004L164.094 95.8435L165.089 95.5493L164.072 95.7568L164.082 95.8004Z" fill="white" />
<path opacity="0.62" d="M156.235 78.4606L156.29 80.0309L166.667 95.1556L157.622 79.1982L156.235 78.4606Z" fill="#17C0EB" stroke="#17C0EB" stroke-width="0.0403125" />
<path d="M165.255 92.8963L165.218 92.9208L165.805 93.7765L165.294 92.8734L165.255 92.8963Z" fill="white" />
<path opacity="0.62" d="M181.297 81.9828L179.76 82.3094L166.667 95.1555L180.811 83.4771L181.297 81.9828Z" fill="#17C0EB" stroke="#17C0EB" stroke-width="0.0403125" />
<path d="M168.647 93.373L168.616 93.3405L167.875 94.0676L168.676 93.4069L168.647 93.373Z" fill="white" />
<path opacity="0.62" d="M183.716 104.999L182.931 103.638L166.667 95.1556L182.145 104.999L183.716 104.999Z" fill="#17C0EB" stroke="#17C0EB" stroke-width="0.0403125" />
<path d="M168.974 96.4874L168.996 96.4482L168.075 95.9684L168.951 96.5256L168.974 96.4874Z" fill="white" />
<path opacity="0.62" d="M162.574 114.412L163.625 113.244L166.667 95.1557L162.088 112.918L162.574 114.412Z" fill="#17C0EB" stroke="#17C0EB" stroke-width="0.0403125" />
<path d="M166.113 97.7617L166.157 97.77L166.329 96.7464L166.07 97.7514L166.113 97.7617Z" fill="white" />
<path opacity="0.62" d="M147.089 97.2133L148.524 97.8524L166.667 95.1555L148.36 96.2897L147.089 97.2133Z" fill="#17C0EB" stroke="#17C0EB" stroke-width="0.0403125" />
<path d="M164.018 95.4341L164.023 95.4784L165.05 95.3256L164.014 95.3896L164.018 95.4341Z" fill="white" />
<path opacity="0.62" d="M158.66 77.1712L158.496 78.7338L166.667 95.1555L159.931 78.0946L158.66 77.1712Z" fill="#17C0EB" stroke="#17C0EB" stroke-width="0.0403125" />
<path d="M165.584 92.7221L165.543 92.7411L166.006 93.6703L165.625 92.7048L165.584 92.7221Z" fill="white" />
<path opacity="0.62" d="M182.988 84.147L181.42 84.2565L166.667 95.1554L182.299 85.5592L182.988 84.147Z" fill="#17C0EB" stroke="#17C0EB" stroke-width="0.0403125" />
<path d="M168.876 93.6659L168.85 93.6295L168.015 94.2464L168.9 93.7035L168.876 93.6659Z" fill="white" />
<path opacity="0.62" d="M182.18 107.275L181.592 105.819L166.667 95.1552L180.624 107.057L182.18 107.275Z" fill="#17C0EB" stroke="#17C0EB" stroke-width="0.0403125" />
<path d="M168.766 96.7955L168.793 96.7596L167.948 96.1564L168.738 96.83L168.766 96.7955Z" fill="white" />
<path opacity="0.62" d="M159.934 113.655L161.137 112.645L166.667 95.1555L159.661 112.107L159.934 113.655Z" fill="#17C0EB" stroke="#17C0EB" stroke-width="0.0403125" />
<path d="M165.756 97.659L165.798 97.6734L166.111 96.6836L165.714 97.6428L165.756 97.659Z" fill="white" />
<path opacity="0.62" d="M146.993 94.4682L148.325 95.3009L166.667 95.1553L148.38 93.7305L146.993 94.4682Z" fill="#17C0EB" stroke="#17C0EB" stroke-width="0.0403125" />
<path d="M164.005 95.0623L164.004 95.107L165.042 95.0985L164.007 95.0177L164.005 95.0623Z" fill="white" />
<path opacity="0.62" d="M161.241 76.2317L160.861 77.7562L166.667 95.1554L162.371 77.3231L161.241 76.2317Z" fill="#17C0EB" stroke="#17C0EB" stroke-width="0.0403125" />
<path d="M165.933 92.5946L165.89 92.6079L166.219 93.5924L165.976 92.5833L165.933 92.5946Z" fill="white" />
<path opacity="0.62" d="M184.361 86.5255L182.793 86.4158L166.667 95.1554L183.482 87.8281L184.361 86.5255Z" fill="#17C0EB" stroke="#17C0EB" stroke-width="0.0403125" />
<path d="M169.061 93.9874L169.041 93.9477L168.128 94.4424L169.08 94.028L169.061 93.9874Z" fill="white" />
<path opacity="0.62" d="M180.342 109.317L179.962 107.792L166.667 95.1556L178.832 108.884L180.342 109.317Z" fill="#17C0EB" stroke="#17C0EB" stroke-width="0.0403125" />
<path d="M168.517 97.072L168.549 97.0403L167.796 96.3254L168.485 97.1024L168.517 97.072Z" fill="white" />
<path opacity="0.62" d="M157.425 112.537L158.757 111.705L166.667 95.1554L157.37 110.967L157.425 112.537Z" fill="#17C0EB" stroke="#17C0EB" stroke-width="0.0403125" />
<path d="M165.416 97.5074L165.456 97.5274L165.903 96.5909L165.377 97.4855L165.416 97.5074Z" fill="white" />
<path opacity="0.62" d="M147.28 91.737L148.483 92.747L166.667 95.1555L148.756 91.1996L147.28 91.737Z" fill="#17C0EB" stroke="#17C0EB" stroke-width="0.0403125" />
<path d="M164.043 94.6928L164.037 94.737L165.066 94.8731L164.052 94.649L164.043 94.6928Z" fill="white" />
<path opacity="0.62" d="M163.927 75.6607L163.339 77.1174L166.667 95.1554L164.895 76.8988L163.927 75.6607Z" fill="#17C0EB" stroke="#17C0EB" stroke-width="0.0403125" />
<path d="M166.296 92.5172L166.252 92.5244L166.441 93.5451L166.341 92.512L166.296 92.5172Z" fill="white" />
<path d="M166.667 88.6148C163.122 88.6097 159.694 89.8818 157.01 92.1981L152.125 100.667C151.957 101.574 151.873 102.494 151.875 103.417H153.552C153.552 96.1748 159.425 90.3021 166.667 90.3021C173.909 90.3021 179.781 96.1748 179.781 103.417H181.458C181.458 102.479 181.375 101.556 181.208 100.667L176.323 92.1981C173.639 89.8821 170.211 88.61 166.667 88.6148Z" fill="#FF0000" />
<path d="M166.667 88.8853C162.745 88.8853 159.187 90.4436 156.573 92.9686L152.563 99.9166C152.279 101.062 152.135 102.237 152.136 103.417H153.552C153.552 96.1746 159.425 90.3019 166.667 90.3019C173.909 90.3019 179.781 96.1746 179.781 103.417H181.198C181.198 102.208 181.049 101.029 180.771 99.9062L176.761 92.9686C174.147 90.4439 170.588 88.8853 166.667 88.8853Z" fill="#FF6600" />
<path d="M166.667 89.1566C162.433 89.1566 158.633 90.9973 156.021 93.9276L153.115 98.9586C152.643 100.398 152.404 101.903 152.406 103.417H153.552C153.552 96.1749 159.425 90.3023 166.667 90.3023C173.909 90.3023 179.781 96.1749 179.781 103.417H180.927C180.927 101.859 180.68 100.362 180.219 98.9586L177.312 93.9269C174.7 90.9976 170.9 89.1562 166.666 89.1562L166.667 89.1566Z" fill="#FFFF00" />
<path d="M166.667 89.4165C161.817 89.4165 157.543 91.8878 155.031 95.6352L154.094 97.2602C153.153 99.1761 152.664 101.282 152.666 103.417H153.552C153.552 96.1745 159.424 90.3018 166.666 90.3018C173.909 90.3018 179.781 96.1745 179.781 103.417H180.667C180.667 101.286 180.179 99.1835 179.24 97.2708L178.292 95.6252C175.78 91.8828 171.513 89.4168 166.667 89.4168V89.4165Z" fill="#00FF00" />
<path d="M166.667 89.6875C159.084 89.6875 152.937 95.8342 152.937 103.417H153.552C153.552 96.1745 159.425 90.3022 166.667 90.3022C173.909 90.3022 179.781 96.1745 179.781 103.417H180.396C180.396 95.8342 174.249 89.6875 166.667 89.6875Z" fill="#00CCFF" />
<path d="M166.667 89.9482C159.231 89.9482 153.208 95.9816 153.208 103.417H153.656C153.656 96.2302 159.48 90.4066 166.667 90.4066C173.853 90.4066 179.677 96.2306 179.677 103.417H180.135C180.135 95.9816 174.102 89.9482 166.667 89.9482Z" fill="#0000FF" />
<path d="M166.667 90.2192C159.379 90.2192 153.471 96.1276 153.471 103.416C153.471 103.497 153.472 103.579 153.473 103.66H153.74C153.738 103.578 153.738 103.497 153.738 103.416C153.738 96.2749 159.526 90.4862 166.667 90.4862C173.808 90.4862 179.596 96.2749 179.596 103.416C179.596 103.497 179.596 103.579 179.594 103.66H179.86C179.861 103.579 179.862 103.497 179.862 103.416C179.862 96.1276 173.955 90.2192 166.667 90.2192Z" fill="#800080" />
<path d="M166.798 96.0451C166.584 96.0038 166.39 95.8838 166.207 95.8418C165.955 96.0835 165.928 96.3275 165.963 96.5351C166.05 96.5818 166.066 96.6528 166.256 96.8218C166.445 96.9908 166.421 97.0795 166.41 97.4768C166.405 97.6445 166.433 98.0038 166.603 98.0375C166.785 98.0741 166.913 97.9221 166.966 97.6508C167.017 97.3875 167.105 97.2455 167.199 97.0835C167.301 96.4661 167.134 96.2475 166.798 96.0451Z" fill="#510000" />
<path d="M165.723 94.5083C165.524 94.5133 165.213 94.8456 165.075 94.6666C164.995 94.5639 164.982 94.3659 165.063 94.1999C165.249 93.8163 165.437 93.6279 165.785 93.4233C166.578 92.9563 167.082 93.1066 167.476 93.7776C167.842 94.3683 168.194 95.0209 168.225 95.5679C168.235 95.7349 168.319 96.0373 168.173 96.1879C167.724 96.6513 166.641 95.7096 166.007 95.8586C165.794 95.9086 165.548 96.0643 165.347 95.9313C165.191 95.8279 165.321 95.5989 165.438 95.4999C165.642 95.3266 165.938 94.7116 165.898 94.4449C165.876 94.2963 165.871 94.5046 165.723 94.5083Z" fill="#FF0000" />
<path d="M165.642 94.1831C165.281 94.3314 165.32 94.5417 165.139 94.7131C165.19 94.7324 165.394 94.8164 165.594 94.6127C165.68 94.5414 165.776 94.5151 165.819 94.4921C165.718 94.5657 165.645 94.6767 165.591 94.7201C165.457 94.8297 165.247 95.0811 165.145 95.3354C165.042 95.5901 165.001 95.8931 165.019 95.9294C165.038 95.9661 165.161 96.1894 165.541 96.3401C166.218 96.6091 166.347 97.1531 167.034 97.1531C167.572 97.1531 167.485 96.8011 167.916 96.8757C168.289 96.9404 168.487 96.6437 168.128 96.4651C167.671 96.3091 166.764 96.4011 166.337 96.4761C166.199 95.1151 166.318 95.5927 166.286 95.0077C166.254 94.4227 166.079 94.3877 166.31 93.9141C166.118 94.2047 165.885 94.1587 165.642 94.1831Z" fill="url(#paint0_linear_5_4252)" />
<path d="M166.979 93.2651C166.966 93.3395 166.954 93.4371 166.961 93.4651C166.99 93.5781 167.019 93.6961 167.053 93.7965C167.092 93.9085 167.107 93.9898 167.133 94.1058C167.161 94.2258 167.267 94.2725 167.365 94.3465C167.488 94.4398 167.393 94.6921 167.47 94.7028C167.531 94.7111 167.632 94.3455 167.633 94.2871C167.635 94.215 167.631 94.1429 167.621 94.0715C167.577 93.9731 167.529 93.8762 167.479 93.7808C167.478 93.7795 167.476 93.7788 167.476 93.7775C167.456 93.74 167.435 93.7037 167.411 93.6685C167.338 93.5609 167.249 93.464 167.149 93.3808L167.13 93.3651C167.102 93.3438 167.074 93.3218 167.044 93.3028C167.023 93.2895 167.001 93.2775 166.979 93.2651Z" fill="#FF2A2A" />
<path d="M167.083 95.7995C166.844 95.7368 166.608 95.6185 166.404 95.5578C166.004 95.4381 165.577 95.1798 165.282 95.2865C165.176 95.3331 165.186 95.4385 165.152 95.5898C165.138 95.7675 164.953 96.0298 165.107 95.9438C165.335 95.8161 165.937 96.1881 166.138 96.3125C166.234 96.3715 166.436 96.4872 166.499 96.6532C166.562 96.8192 166.53 97.2385 166.513 97.4185C166.495 97.6071 166.552 98.0301 166.741 98.0808C166.945 98.1351 167.101 97.9731 167.18 97.6708C167.257 97.3771 167.315 97.2085 167.432 97.0325C167.55 96.8565 167.684 96.7805 167.872 96.7448C168.06 96.7095 168.333 96.8988 168.333 96.6771C168.333 96.5315 168.205 96.3921 168.26 96.1925C168.302 96.0351 168.126 96.0665 167.979 96.0018C167.634 95.8955 167.322 95.8618 167.083 95.7995Z" fill="url(#paint1_linear_5_4252)" />
<path d="M166.121 96.3009C166.012 96.2416 165.349 95.8083 165.107 95.9439C165.03 95.9866 165.001 95.9386 165 95.8583C164.999 95.7779 165.036 95.6603 165.061 95.5696C165.086 95.4786 165.126 95.3056 165.233 95.2156C165.462 95.0223 165.99 95.4073 166.269 95.5109C166.245 95.6563 166.113 96.2963 166.121 96.3009Z" fill="#910000" />
<path d="M167.254 97.1208C167.56 96.5864 167.757 96.6551 168.125 96.6628C168.248 96.6654 168.284 96.5531 168.256 96.4404C168.164 96.6484 167.702 96.4171 167.451 96.5281C166.927 96.7588 167.025 97.7848 166.776 97.8848C167.034 98.1018 167.15 97.3028 167.254 97.1208Z" fill="#FF3A3A" />
<path d="M151.034 102.548L147.716 108.294H185.619L182.3 102.548H151.034Z" fill="white" />
<path d="M149.902 107.121C149.349 107.121 148.836 107.177 148.332 107.239L148.17 107.521C148.981 107.449 149.735 107.304 150.55 107.284C151.647 107.311 152.644 107.561 153.812 107.561C154.318 107.566 154.821 107.551 155.32 107.561C156.487 107.561 157.483 107.311 158.581 107.284C159.68 107.311 160.683 107.561 161.849 107.561C162.355 107.562 162.908 107.553 163.359 107.561C164.526 107.561 165.517 107.311 166.614 107.284C167.712 107.311 168.704 107.561 169.87 107.561C170.38 107.566 170.881 107.551 171.385 107.561C172.551 107.561 173.548 107.311 174.647 107.284C175.746 107.311 176.74 107.561 177.908 107.561C178.413 107.566 178.918 107.551 179.418 107.561C180.584 107.561 181.576 107.311 182.673 107.284C183.523 107.305 184.313 107.457 185.168 107.526L184.996 107.228C184.529 107.172 184.051 107.121 183.54 107.121C183.031 107.114 182.528 107.131 182.025 107.121C180.858 107.121 179.867 107.37 178.77 107.397C177.671 107.371 176.675 107.121 175.508 107.121C175.003 107.114 174.498 107.131 173.999 107.121C172.832 107.121 171.835 107.371 170.737 107.397C169.639 107.371 168.642 107.121 167.476 107.121C166.969 107.114 166.462 107.131 165.96 107.121C164.794 107.121 163.802 107.371 162.705 107.397C161.607 107.371 160.615 107.121 159.449 107.121C158.942 107.114 158.44 107.131 157.94 107.121C156.773 107.121 155.777 107.371 154.678 107.397C153.58 107.371 152.584 107.121 151.417 107.121C150.911 107.114 150.403 107.131 149.902 107.121Z" fill="url(#paint2_linear_5_4252)" />
<path d="M149.902 106.75C149.349 106.75 148.836 106.806 148.332 106.868L148.17 107.15C148.981 107.078 149.735 106.934 150.55 106.914C151.647 106.94 152.644 107.19 153.812 107.19C154.318 107.195 154.821 107.18 155.32 107.19C156.487 107.19 157.483 106.94 158.581 106.914C159.68 106.94 160.683 107.19 161.849 107.19C162.355 107.192 162.908 107.182 163.359 107.19C164.526 107.19 165.517 106.94 166.614 106.914C167.712 106.94 168.704 107.19 169.87 107.19C170.38 107.195 170.881 107.18 171.385 107.19C172.551 107.19 173.548 106.94 174.647 106.914C175.746 106.94 176.74 107.19 177.908 107.19C178.413 107.195 178.918 107.18 179.418 107.19C180.584 107.19 181.576 106.94 182.673 106.914C183.523 106.934 184.313 107.086 185.168 107.155L184.996 106.857C184.529 106.801 184.051 106.75 183.54 106.75C183.031 106.744 182.528 106.76 182.025 106.75C180.858 106.75 179.867 107 178.77 107.027C177.671 107 176.675 106.75 175.508 106.75C175.003 106.744 174.498 106.761 173.999 106.75C172.832 106.75 171.835 107 170.737 107.027C169.639 107 168.642 106.75 167.476 106.75C166.969 106.744 166.462 106.76 165.96 106.75C164.794 106.75 163.802 107 162.705 107.027C161.607 107 160.615 106.75 159.449 106.75C158.942 106.743 158.44 106.761 157.94 106.75C156.773 106.75 155.777 107 154.678 107.027C153.58 107 152.584 106.75 151.417 106.75C150.911 106.744 150.403 106.761 149.902 106.75Z" fill="url(#paint3_linear_5_4252)" />
<path d="M149.902 106.378C149.349 106.378 148.836 106.433 148.332 106.495L148.17 106.777C148.981 106.705 149.735 106.561 150.55 106.541C151.647 106.568 152.644 106.818 153.812 106.818C154.318 106.822 154.821 106.808 155.32 106.818C156.487 106.818 157.483 106.568 158.581 106.541C159.68 106.568 160.683 106.818 161.849 106.818C162.355 106.819 162.908 106.81 163.359 106.818C164.526 106.818 165.517 106.568 166.614 106.541C167.712 106.568 168.704 106.818 169.87 106.818C170.38 106.822 170.881 106.808 171.385 106.818C172.551 106.818 173.548 106.568 174.647 106.541C175.746 106.568 176.74 106.818 177.908 106.818C178.413 106.822 178.918 106.808 179.418 106.818C180.584 106.818 181.576 106.568 182.673 106.541C183.523 106.562 184.313 106.714 185.168 106.782L184.996 106.485C184.529 106.429 184.051 106.378 183.54 106.378C183.031 106.371 182.528 106.388 182.025 106.378C180.858 106.378 179.867 106.627 178.77 106.654C177.671 106.627 176.675 106.378 175.508 106.378C175.003 106.371 174.498 106.388 173.999 106.378C172.832 106.378 171.835 106.627 170.737 106.654C169.639 106.627 168.642 106.378 167.476 106.378C166.969 106.371 166.462 106.388 165.96 106.378C164.794 106.378 163.802 106.627 162.705 106.654C161.607 106.627 160.615 106.378 159.449 106.378C158.942 106.371 158.44 106.388 157.94 106.378C156.773 106.378 155.777 106.627 154.678 106.654C153.58 106.627 152.584 106.378 151.417 106.378C150.911 106.371 150.403 106.388 149.902 106.378Z" fill="url(#paint4_linear_5_4252)" />
<path d="M149.902 106.006C149.349 106.006 148.836 106.062 148.332 106.124L148.17 106.406C148.981 106.334 149.735 106.189 150.55 106.169C151.647 106.196 152.644 106.446 153.812 106.446C154.318 106.451 154.821 106.436 155.32 106.446C156.487 106.446 157.483 106.196 158.581 106.169C159.68 106.196 160.683 106.446 161.849 106.446C162.355 106.447 162.908 106.438 163.359 106.446C164.526 106.446 165.517 106.196 166.614 106.169C167.712 106.196 168.704 106.446 169.87 106.446C170.38 106.451 170.881 106.436 171.385 106.446C172.551 106.446 173.548 106.196 174.647 106.169C175.746 106.196 176.74 106.446 177.908 106.446C178.413 106.451 178.918 106.436 179.418 106.446C180.584 106.446 181.576 106.196 182.673 106.169C183.523 106.19 184.313 106.342 185.168 106.411L184.996 106.113C184.529 106.057 184.051 106.006 183.54 106.006C183.031 105.999 182.528 106.016 182.025 106.006C180.858 106.006 179.867 106.255 178.77 106.282C177.671 106.256 176.675 106.006 175.508 106.006C175.003 105.999 174.498 106.016 173.999 106.006C172.832 106.006 171.835 106.256 170.737 106.282C169.639 106.256 168.642 106.006 167.476 106.006C166.969 105.999 166.462 106.016 165.96 106.006C164.794 106.006 163.802 106.256 162.705 106.282C161.607 106.256 160.615 106.006 159.449 106.006C158.942 105.999 158.44 106.016 157.94 106.006C156.773 106.006 155.777 106.256 154.678 106.282C153.58 106.256 152.584 106.006 151.417 106.006C150.911 105.999 150.403 106.016 149.902 106.006Z" fill="url(#paint5_linear_5_4252)" />
<path d="M149.902 105.636C149.349 105.636 148.836 105.691 148.332 105.753L148.17 106.035C148.981 105.963 149.735 105.819 150.55 105.799C151.647 105.826 152.644 106.075 153.812 106.075C154.318 106.08 154.821 106.065 155.32 106.075C156.487 106.075 157.483 105.826 158.581 105.799C159.68 105.826 160.683 106.075 161.849 106.075C162.355 106.077 162.908 106.067 163.359 106.075C164.526 106.075 165.517 105.826 166.614 105.799C167.712 105.826 168.704 106.075 169.87 106.075C170.38 106.08 170.881 106.065 171.385 106.075C172.551 106.075 173.548 105.826 174.647 105.799C175.746 105.826 176.74 106.075 177.908 106.075C178.413 106.08 178.918 106.065 179.418 106.075C180.584 106.075 181.576 105.826 182.673 105.799C183.523 105.82 184.313 105.972 185.168 106.04L184.996 105.743C184.529 105.687 184.051 105.636 183.54 105.636C183.031 105.629 182.528 105.646 182.025 105.636C180.858 105.636 179.867 105.885 178.77 105.912C177.671 105.885 176.675 105.636 175.508 105.636C175.003 105.629 174.498 105.646 173.999 105.636C172.832 105.636 171.835 105.885 170.737 105.912C169.639 105.885 168.642 105.636 167.476 105.636C166.969 105.629 166.462 105.646 165.96 105.636C164.794 105.636 163.802 105.885 162.705 105.912C161.607 105.885 160.615 105.636 159.449 105.636C158.942 105.629 158.44 105.646 157.94 105.636C156.773 105.636 155.777 105.885 154.678 105.912C153.58 105.885 152.584 105.636 151.417 105.636C150.911 105.629 150.403 105.646 149.902 105.636Z" fill="url(#paint6_linear_5_4252)" />
<path d="M149.902 105.263C149.349 105.263 148.836 105.319 148.332 105.381L148.17 105.663C148.981 105.591 149.735 105.446 150.55 105.426C151.647 105.453 152.644 105.703 153.812 105.703C154.318 105.708 154.821 105.693 155.32 105.703C156.487 105.703 157.483 105.453 158.581 105.426C159.68 105.453 160.683 105.703 161.849 105.703C162.355 105.704 162.908 105.695 163.359 105.703C164.526 105.703 165.517 105.453 166.614 105.426C167.712 105.453 168.704 105.703 169.87 105.703C170.38 105.708 170.881 105.693 171.385 105.703C172.551 105.703 173.548 105.453 174.647 105.426C175.746 105.453 176.74 105.703 177.908 105.703C178.413 105.708 178.918 105.693 179.418 105.703C180.584 105.703 181.576 105.453 182.673 105.426C183.523 105.447 184.313 105.599 185.168 105.668L184.996 105.37C184.529 105.314 184.051 105.263 183.54 105.263C183.031 105.256 182.528 105.273 182.025 105.263C180.858 105.263 179.867 105.512 178.77 105.539C177.671 105.513 176.675 105.263 175.508 105.263C175.003 105.256 174.498 105.273 173.999 105.263C172.832 105.263 171.835 105.513 170.737 105.539C169.639 105.513 168.642 105.263 167.476 105.263C166.969 105.256 166.462 105.273 165.96 105.263C164.794 105.263 163.802 105.513 162.705 105.539C161.607 105.513 160.615 105.263 159.449 105.263C158.942 105.256 158.44 105.273 157.94 105.263C156.773 105.263 155.777 105.513 154.678 105.539C153.58 105.513 152.584 105.263 151.417 105.263C150.911 105.256 150.403 105.273 149.902 105.263Z" fill="url(#paint7_linear_5_4252)" />
<path d="M149.902 104.891C149.349 104.891 148.836 104.947 148.332 105.009L148.17 105.291C148.981 105.219 149.735 105.074 150.55 105.054C151.647 105.081 152.644 105.331 153.812 105.331C154.318 105.336 154.821 105.321 155.32 105.331C156.487 105.331 157.483 105.081 158.581 105.054C159.68 105.081 160.683 105.331 161.849 105.331C162.355 105.332 162.908 105.323 163.359 105.331C164.526 105.331 165.517 105.081 166.614 105.054C167.712 105.081 168.704 105.331 169.87 105.331C170.38 105.336 170.881 105.321 171.385 105.331C172.551 105.331 173.548 105.081 174.647 105.054C175.746 105.081 176.74 105.331 177.908 105.331C178.413 105.336 178.918 105.321 179.418 105.331C180.584 105.331 181.576 105.081 182.673 105.054C183.523 105.075 184.313 105.227 185.168 105.296L184.996 104.998C184.529 104.942 184.051 104.891 183.54 104.891C183.031 104.884 182.528 104.901 182.025 104.891C180.858 104.891 179.867 105.14 178.77 105.167C177.671 105.141 176.675 104.891 175.508 104.891C175.003 104.884 174.498 104.901 173.999 104.891C172.832 104.891 171.835 105.141 170.737 105.167C169.639 105.141 168.642 104.891 167.476 104.891C166.969 104.884 166.462 104.901 165.96 104.891C164.794 104.891 163.802 105.141 162.705 105.167C161.607 105.141 160.615 104.891 159.449 104.891C158.942 104.884 158.44 104.901 157.94 104.891C156.773 104.891 155.777 105.141 154.678 105.167C153.58 105.141 152.584 104.891 151.417 104.891C150.911 104.884 150.403 104.901 149.902 104.891Z" fill="url(#paint8_linear_5_4252)" />
<path d="M149.902 104.52C149.349 104.52 148.836 104.576 148.332 104.638L148.17 104.92C148.981 104.848 149.735 104.704 150.55 104.684C151.647 104.71 152.644 104.96 153.812 104.96C154.318 104.965 154.821 104.95 155.32 104.96C156.487 104.96 157.483 104.71 158.581 104.684C159.68 104.71 160.683 104.96 161.849 104.96C162.355 104.962 162.908 104.952 163.359 104.96C164.526 104.96 165.517 104.71 166.614 104.684C167.712 104.71 168.704 104.96 169.87 104.96C170.38 104.965 170.881 104.95 171.385 104.96C172.551 104.96 173.548 104.71 174.647 104.684C175.746 104.71 176.74 104.96 177.908 104.96C178.413 104.965 178.918 104.95 179.418 104.96C180.584 104.96 181.576 104.71 182.673 104.684C183.523 104.704 184.313 104.856 185.168 104.925L184.996 104.627C184.529 104.571 184.051 104.52 183.54 104.52C183.031 104.514 182.528 104.53 182.025 104.52C180.858 104.52 179.867 104.77 178.77 104.797C177.671 104.77 176.675 104.52 175.508 104.52C175.003 104.514 174.498 104.531 173.999 104.52C172.832 104.52 171.835 104.77 170.737 104.797C169.639 104.77 168.642 104.52 167.476 104.52C166.969 104.514 166.462 104.53 165.96 104.52C164.794 104.52 163.802 104.77 162.705 104.797C161.607 104.77 160.615 104.52 159.449 104.52C158.942 104.513 158.44 104.531 157.94 104.52C156.773 104.52 155.777 104.77 154.678 104.797C153.58 104.77 152.584 104.52 151.417 104.52C150.911 104.514 150.403 104.531 149.902 104.52Z" fill="url(#paint9_linear_5_4252)" />
<path d="M149.902 104.148C149.349 104.148 148.836 104.203 148.332 104.265L148.17 104.547C148.981 104.475 149.735 104.331 150.55 104.311C151.647 104.338 152.644 104.588 153.812 104.588C154.318 104.592 154.821 104.578 155.32 104.588C156.487 104.588 157.483 104.338 158.581 104.311C159.68 104.338 160.683 104.588 161.849 104.588C162.355 104.589 162.908 104.58 163.359 104.588C164.526 104.588 165.517 104.338 166.614 104.311C167.712 104.338 168.704 104.588 169.87 104.588C170.38 104.592 170.881 104.578 171.385 104.588C172.551 104.588 173.548 104.338 174.647 104.311C175.746 104.338 176.74 104.588 177.908 104.588C178.413 104.592 178.918 104.578 179.418 104.588C180.584 104.588 181.576 104.338 182.673 104.311C183.523 104.332 184.313 104.484 185.168 104.552L184.996 104.255C184.529 104.199 184.051 104.148 183.54 104.148C183.031 104.141 182.528 104.158 182.025 104.148C180.858 104.148 179.867 104.397 178.77 104.424C177.671 104.397 176.675 104.148 175.508 104.148C175.003 104.141 174.498 104.158 173.999 104.148C172.832 104.148 171.835 104.397 170.737 104.424C169.639 104.397 168.642 104.148 167.476 104.148C166.969 104.141 166.462 104.158 165.96 104.148C164.794 104.148 163.802 104.397 162.705 104.424C161.607 104.397 160.615 104.148 159.449 104.148C158.942 104.141 158.44 104.158 157.94 104.148C156.773 104.148 155.777 104.397 154.678 104.424C153.58 104.397 152.584 104.148 151.417 104.148C150.911 104.141 150.403 104.158 149.902 104.148Z" fill="url(#paint10_linear_5_4252)" />
<path d="M151.077 102.486L151.036 102.558H182.299L182.258 102.486H151.077ZM151.004 102.612L150.961 102.685H182.373L182.331 102.612H151.004H151.004ZM150.937 102.727L150.869 102.845H182.466L182.398 102.727H150.937H150.937ZM150.831 102.91L150.748 103.055H182.587L182.504 102.911H150.831V102.91ZM150.698 103.141L150.615 103.286H182.72L182.637 103.141H150.698ZM150.565 103.371L150.483 103.515H182.852L182.769 103.371H150.565ZM150.432 103.602L150.349 103.745H182.986L182.902 103.602H150.432ZM150.289 103.85L150.188 104.026H183.147L183.046 103.85H150.289ZM152.452 104.095C153.602 104.316 153.713 104.095 153.713 104.095H152.452ZM179.62 104.095C179.62 104.095 179.73 104.316 180.881 104.095H179.62Z" fill="url(#paint11_linear_5_4252)" />
<path d="M176.877 99.0142C176.307 99.0142 176.133 99.3015 176.133 99.3015C175.221 102.827 172.197 106.412 168.6 106.412H165.906V110.002C165.906 110.003 165.91 110.002 165.912 110.002H186.411L184.349 106.35C181.113 105.867 178.469 102.559 177.627 99.3015C177.627 99.3015 177.447 99.0142 176.877 99.0142Z" fill="url(#paint12_linear_5_4252)" />
<path d="M176.877 99.1548C176.616 99.1548 176.457 99.2148 176.364 99.2731C176.276 99.3281 176.259 99.3651 176.257 99.3691C176.257 99.3715 176.252 99.3725 176.251 99.3745C175.785 101.149 174.801 102.931 173.473 104.277C172.136 105.633 170.45 106.553 168.605 106.553H166.047V109.861H186.332L184.439 106.508C182.876 106.304 181.448 105.454 180.286 104.277C178.957 102.931 177.975 101.149 177.508 99.3745L177.502 99.3691C177.5 99.3651 177.479 99.3341 177.39 99.2788C177.295 99.2201 177.138 99.1548 176.877 99.1548Z" fill="#97C924" />
<path d="M176.877 99.1548C176.926 99.1548 176.97 99.1618 177.012 99.1661C177.02 100.172 177.012 101.869 177.012 102.766C177.002 103.546 176.735 104.174 176.341 104.913C176.159 105.431 176.013 105.234 175.558 105.866C174.948 106.084 174.496 106.169 173.845 106.271C173.006 106.404 171.138 106.521 170.216 106.316C171.43 105.96 172.537 105.226 173.473 104.276C173.724 104.022 173.961 103.755 174.183 103.476C174.557 103.006 174.893 102.507 175.187 101.983C175.304 101.774 175.415 101.567 175.519 101.352C175.675 101.03 175.813 100.702 175.936 100.372C175.977 100.262 176.017 100.15 176.054 100.039C176.128 99.8181 176.193 99.5961 176.252 99.3745C176.252 99.3725 176.257 99.3711 176.257 99.3688C176.259 99.3648 176.276 99.3281 176.364 99.2731C176.409 99.2448 176.475 99.2165 176.556 99.1941H176.561C176.645 99.1718 176.746 99.1548 176.877 99.1548Z" fill="#EDE71F" />
<path d="M176.646 99.6338C176.509 101.645 175.887 104.031 174.431 105.57C173.896 106.016 173.211 106.42 172.549 106.322C174.806 104.485 176.178 101.673 176.646 99.6338Z" fill="#C6CB24" />
<path d="M174.831 103.093C174.497 104 173.235 105.342 171.885 106.442C171.501 106.453 171.298 106.475 170.95 106.454C171.773 106.379 173.69 104.76 174.831 103.093Z" fill="#9ECB34" />
<path d="M171.763 99.0142C171.194 99.0142 171.019 99.3015 171.019 99.3015C170.107 102.827 167.084 106.412 163.486 106.412H160.793V110.002C160.793 110.003 160.796 110.002 160.798 110.002H181.297L179.235 106.35C175.999 105.867 173.355 102.559 172.513 99.3015C172.513 99.3015 172.333 99.0142 171.763 99.0142Z" fill="url(#paint13_linear_5_4252)" />
<path d="M171.763 99.1548C171.502 99.1548 171.343 99.2148 171.251 99.2731C171.163 99.3281 171.146 99.3651 171.144 99.3691C171.144 99.3715 171.139 99.3725 171.138 99.3745C170.671 101.149 169.687 102.931 168.36 104.277C167.022 105.633 165.336 106.553 163.491 106.553H160.933V109.861H181.218L179.325 106.508C177.763 106.304 176.334 105.454 175.172 104.277C173.844 102.931 172.862 101.149 172.394 99.3745L172.389 99.3691C172.386 99.3651 172.365 99.3341 172.276 99.2788C172.182 99.2201 172.025 99.1548 171.763 99.1548Z" fill="#97C924" />
<path d="M171.763 99.1548C171.812 99.1548 171.856 99.1618 171.898 99.1661C171.906 100.172 171.898 101.869 171.898 102.766C171.889 103.546 171.622 104.174 171.228 104.913C171.045 105.431 170.899 105.234 170.444 105.866C169.834 106.084 169.382 106.169 168.732 106.271C167.893 106.404 166.025 106.521 165.103 106.316C166.316 105.96 167.423 105.226 168.36 104.276C168.61 104.022 168.847 103.755 169.07 103.476C169.444 103.006 169.779 102.507 170.073 101.983C170.19 101.774 170.302 101.567 170.405 101.352C170.561 101.03 170.7 100.702 170.822 100.372C170.863 100.262 170.904 100.15 170.941 100.039C171.015 99.8181 171.08 99.5961 171.138 99.3745C171.139 99.3725 171.143 99.3711 171.143 99.3688C171.145 99.3648 171.163 99.3281 171.25 99.2731C171.296 99.2448 171.361 99.2165 171.442 99.1941H171.448C171.532 99.1718 171.632 99.1548 171.763 99.1548Z" fill="#EDE71F" />
<path d="M171.532 99.6338C171.395 101.645 170.773 104.031 169.318 105.57C168.782 106.016 168.098 106.42 167.436 106.322C169.692 104.485 171.064 101.673 171.532 99.6338Z" fill="#C6CB24" />
<path d="M169.718 103.093C169.384 104 168.122 105.342 166.771 106.442C166.388 106.453 166.184 106.475 165.836 106.454C166.659 106.379 168.577 104.76 169.718 103.093Z" fill="#9ECB34" />
<path d="M167.406 99.3033C168.318 102.828 171.336 106.414 174.934 106.414H177.63V110.004C177.63 110.005 177.625 110.004 177.624 110.004H155.693C155.691 110.004 155.687 110.005 155.687 110.004V106.414H158.378C161.975 106.414 164.999 102.828 165.911 99.3033C165.911 99.3033 166.089 99.0146 166.659 99.0146C167.228 99.0146 167.406 99.3033 167.406 99.3033H167.406Z" fill="url(#paint14_linear_5_4252)" />
<path d="M166.658 99.1548C166.92 99.1548 167.077 99.2201 167.171 99.2788C167.261 99.3341 167.282 99.3651 167.284 99.3688L167.29 99.3745C167.757 101.149 168.739 102.931 170.067 104.277C171.406 105.633 173.096 106.553 174.942 106.553H177.488V109.861H155.828V106.553H158.387C160.232 106.553 161.918 105.633 163.255 104.276C164.582 102.931 165.566 101.149 166.033 99.3745C166.034 99.3721 166.038 99.3711 166.039 99.3691C166.041 99.3651 166.058 99.3281 166.145 99.2731C166.239 99.2151 166.397 99.1548 166.658 99.1548Z" fill="#97C924" />
<path d="M166.421 99.1763C166.394 99.1814 166.367 99.1875 166.34 99.1946H166.334C166.267 99.2116 166.203 99.2381 166.144 99.2733C166.056 99.3283 166.039 99.3646 166.037 99.3686C166.036 99.3706 166.031 99.3719 166.031 99.3743C165.973 99.5963 165.908 99.8186 165.833 100.04C165.796 100.151 165.756 100.262 165.715 100.372C165.591 100.705 165.452 101.032 165.298 101.352C165.194 101.566 165.083 101.777 164.966 101.984C164.672 102.507 164.336 103.006 163.962 103.476C163.74 103.755 163.503 104.022 163.252 104.277C162.316 105.227 161.21 105.96 159.996 106.316C160.918 106.521 161.34 106.297 162.179 106.165C162.83 106.062 163.582 105.977 164.193 105.759C164.648 105.128 164.493 105.326 164.675 104.808C165.069 104.068 165.644 103.4 165.787 102.581C166.326 101.573 166.421 99.7093 166.421 99.1763Z" fill="#EDE71F" />
<path d="M166.425 99.6338C166.288 101.645 165.666 104.031 164.21 105.57C163.675 106.016 162.99 106.42 162.328 106.322C164.585 104.485 165.957 101.673 166.425 99.6338Z" fill="#C6CB24" />
<path d="M164.611 103.093C164.277 104 163.015 105.342 161.664 106.442C161.281 106.453 161.077 106.475 160.729 106.454C161.552 106.379 163.47 104.76 164.611 103.093Z" fill="#9ECB34" />
<path d="M166.984 99.1943H166.99C167.07 99.2167 167.135 99.2447 167.18 99.273C167.268 99.328 167.285 99.3643 167.287 99.3683C167.288 99.3703 167.292 99.372 167.293 99.3743C167.351 99.596 167.416 99.8187 167.49 100.04C167.527 100.15 167.568 100.261 167.609 100.371C167.732 100.701 167.87 101.03 168.026 101.352C168.129 101.567 168.241 101.775 168.358 101.984C168.652 102.507 168.988 103.006 169.362 103.476C169.584 103.755 169.821 104.022 170.072 104.277C171.008 105.227 172.114 106.092 173.328 106.447C170.913 106.457 169.865 106.237 168.987 105.109C168.109 103.98 167.785 103.486 167.607 102.796C167.429 102.107 166.932 100.606 166.984 99.1943Z" fill="#EDE71F" />
<path d="M167.159 99.6338C167.296 101.645 167.899 103.636 169.354 105.175C169.89 105.621 170.574 106.025 171.236 105.927C168.791 104.26 167.627 101.673 167.159 99.6338Z" fill="#C6CB24" />
<path d="M161.583 99.0142C161.013 99.0142 160.834 99.3015 160.834 99.3015C159.993 102.55 156.892 106.741 153.668 107.238L152.071 110.002H168.41V106.219C165.468 105.429 163.113 102.342 162.327 99.3015C162.327 99.3015 162.153 99.0142 161.583 99.0142Z" fill="url(#paint15_linear_5_4252)" />
<path d="M161.583 99.1548C161.322 99.1548 161.165 99.2201 161.07 99.2788C160.981 99.3341 160.96 99.3651 160.958 99.3688L160.952 99.3745C160.485 101.149 159.393 102.943 158.259 104.371C157.125 105.799 155.019 107.243 153.578 107.396L152.151 109.861H168.171V106.296C166.986 105.933 165.904 105.207 164.987 104.276C163.659 102.931 162.675 101.149 162.209 99.3745C162.208 99.3721 162.204 99.3711 162.203 99.3691C162.201 99.3651 162.184 99.3281 162.096 99.2731C162.003 99.2151 161.844 99.1548 161.583 99.1548Z" fill="#97C924" />
<path d="M161.148 99.6343C160.943 102.649 159.264 106.452 157.368 107.108C156.75 107.321 155.669 107.396 155.293 107.444C158.609 105.867 160.569 102.159 161.148 99.6343Z" fill="#93BC30" />
<path d="M161.582 99.1548C161.533 99.1548 161.489 99.1618 161.447 99.1662C161.439 100.172 161.447 101.869 161.447 102.766C161.457 103.546 161.724 104.174 162.117 104.913C162.14 104.978 162.163 105.031 162.185 105.077C162.322 105.439 162.423 105.564 162.946 105.961C164.608 107.224 166.669 107.412 167.882 107.308C167.502 107.009 167.096 106.736 166.738 106.486C167.308 106.467 167.855 106.402 168.242 106.316C167.029 105.961 165.922 105.226 164.986 104.276C164.824 104.109 164.668 103.936 164.518 103.758C164.453 103.667 164.388 103.577 164.321 103.488C163.948 103.021 163.566 102.505 163.272 101.983C163.155 101.777 163.044 101.566 162.94 101.352C162.734 100.926 162.555 100.488 162.405 100.039C162.331 99.82 162.266 99.5983 162.207 99.3745C162.207 99.3725 162.202 99.3712 162.202 99.3688C162.2 99.3648 162.183 99.3282 162.095 99.2732C162.035 99.2379 161.97 99.2113 161.903 99.1942H161.897C161.794 99.1672 161.688 99.154 161.582 99.1548Z" fill="#EDE71F" />
<path d="M161.815 99.6338C161.953 101.645 162.574 104.031 164.03 105.57C164.565 106.016 165.25 106.42 165.912 106.322C163.655 104.485 162.283 101.673 161.815 99.6338Z" fill="#CCD11E" />
<path d="M163.204 102.416C163.994 104.361 165.994 106.179 168.052 107.4C168.435 107.412 168.549 107.401 168.898 107.38C167.425 106.59 165.051 105.462 163.204 102.416Z" fill="#9ECB34" />
<path d="M156.44 99.0142C155.87 99.0142 155.69 99.3015 155.69 99.3015C154.849 102.55 151.749 106.741 148.525 107.238L146.928 110.002H163.266V106.219C160.325 105.429 157.97 102.342 157.184 99.3015C157.184 99.3015 157.009 99.0142 156.44 99.0142Z" fill="url(#paint16_linear_5_4252)" />
<path d="M156.44 99.1548C156.178 99.1548 156.021 99.2201 155.927 99.2788C155.837 99.3341 155.816 99.3651 155.814 99.3688L155.809 99.3745C155.341 101.149 154.249 102.943 153.115 104.371C151.981 105.799 149.875 107.243 148.435 107.396L147.007 109.861H163.027V106.296C161.843 105.933 160.761 105.207 159.843 104.276C158.516 102.931 157.532 101.149 157.065 99.3745C157.065 99.3721 157.06 99.3711 157.06 99.3691C157.058 99.3651 157.04 99.3281 156.953 99.2731C156.859 99.2151 156.701 99.1548 156.44 99.1548Z" fill="#97C924" />
<path d="M156.005 99.6343C155.799 102.649 154.121 106.452 152.225 107.108C151.607 107.321 150.525 107.396 150.149 107.444C153.465 105.867 155.425 102.159 156.005 99.6343Z" fill="#93BC30" />
<path d="M156.439 99.1548C156.39 99.1548 156.345 99.1618 156.303 99.1662C156.296 100.172 156.303 101.869 156.303 102.766C156.313 103.546 156.58 104.174 156.974 104.913C156.997 104.978 157.019 105.031 157.042 105.077C157.178 105.439 157.279 105.564 157.802 105.961C159.465 107.224 161.526 107.412 162.738 107.308C162.358 107.009 161.952 106.736 161.595 106.486C162.165 106.467 162.711 106.402 163.099 106.316C161.886 105.961 160.779 105.226 159.842 104.276C159.68 104.109 159.524 103.936 159.375 103.758C159.31 103.667 159.244 103.577 159.177 103.488C158.805 103.021 158.423 102.505 158.129 101.983C158.012 101.777 157.901 101.566 157.797 101.352C157.591 100.926 157.412 100.488 157.261 100.039C157.188 99.82 157.122 99.5983 157.064 99.3745C157.063 99.3725 157.059 99.3712 157.058 99.3688C157.056 99.3648 157.039 99.3282 156.951 99.2732C156.891 99.2379 156.827 99.2113 156.76 99.1942H156.754C156.651 99.1672 156.545 99.154 156.439 99.1548Z" fill="#EDE71F" />
<path d="M156.672 99.6338C156.809 101.645 157.431 104.031 158.887 105.57C159.422 106.016 160.107 106.42 160.769 106.322C158.512 104.485 157.14 101.673 156.672 99.6338Z" fill="#C6CB24" />
<path d="M158.061 102.416C158.851 104.361 160.851 106.179 162.909 107.4C163.292 107.412 163.406 107.401 163.754 107.38C162.281 106.59 159.908 105.462 158.061 102.416Z" fill="#9ECB34" />
<path d="M185.5 108.231C185.309 108.299 184.026 108.168 183.356 108.216L182.929 108.328C182.555 108.326 182.183 108.336 181.819 108.328C180.618 108.328 179.603 108.644 178.461 108.644C177.316 108.644 176.304 108.328 175.102 108.328C174.729 108.326 174.358 108.337 173.992 108.328C172.792 108.328 171.777 108.644 170.634 108.644C169.49 108.644 168.476 108.328 167.275 108.328C166.898 108.326 166.528 108.336 166.159 108.328C164.959 108.328 163.949 108.644 162.807 108.644C161.664 108.644 160.655 108.328 159.454 108.328C159.365 108.328 159.282 108.331 159.195 108.334C159.136 108.333 159.07 108.328 159.01 108.328C158.97 108.328 158.936 108.327 158.896 108.328C158.858 108.327 158.818 108.328 158.778 108.328C158.718 108.328 158.663 108.333 158.604 108.334C158.517 108.331 158.433 108.328 158.344 108.328C157.142 108.328 156.13 108.645 154.985 108.644C153.842 108.644 152.828 108.328 151.627 108.328C151.54 108.328 151.453 108.332 151.368 108.334C151.308 108.333 151.255 108.328 151.194 108.328C151.153 108.328 151.11 108.327 151.07 108.328C151.031 108.327 150.991 108.328 150.951 108.328C150.891 108.328 150.83 108.333 150.771 108.334C150.684 108.331 150.601 108.328 150.512 108.328C149.552 108.328 148.44 108.531 147.534 108.612L145.443 112.231L166.433 112.229L187.892 112.231L185.5 108.231Z" fill="white" />
<path d="M182.664 107.704C182.598 107.704 182.532 107.704 182.466 107.706C181.386 107.738 180.611 108.078 178.732 108.078C176.853 108.078 176.659 107.738 174.538 107.785C172.555 107.828 171.723 108.205 170.648 108.19C169.572 108.176 167.823 107.958 166.478 108.099C165.132 108.24 163.535 108.527 162.487 108.529C161.184 108.523 159.88 108.286 158.518 108.421C157.156 108.556 156.519 108.921 154.83 108.916C153.378 108.912 151.803 108.683 150.582 108.684C149.437 108.685 148.159 109.003 147.22 109.165L146.939 109.653C147.688 109.567 149.789 109.247 150.539 109.228C151.321 109.207 154.112 109.389 155.651 109.336C157.19 109.283 157.37 108.945 159.19 108.945C160.457 108.945 161.412 109.078 162.712 109.078C163.524 109.078 164.26 108.664 165.493 108.664C165.805 108.655 166.115 108.644 166.425 108.634C167.464 108.462 169.219 108.649 170.441 108.711C171.546 108.769 172.26 108.506 173.412 108.468C173.911 108.445 174.411 108.446 174.903 108.419C176.057 108.38 177.044 108.632 178.13 108.627C179.213 108.56 180.264 108.319 181.417 108.281C181.92 108.257 182.416 108.257 182.913 108.232C183.676 108.206 184.859 108.258 185.671 108.399L185.391 107.915C184.598 107.89 183.621 107.704 182.664 107.704Z" fill="url(#paint17_linear_5_4252)" />
<path d="M150.104 111.583C148.952 111.583 147.97 111.867 146.887 111.898C146.483 111.887 146.098 111.837 145.708 111.783L145.545 112.066C145.707 112.077 145.87 112.087 146.041 112.087C146.542 112.093 147.038 112.075 147.532 112.087C148.685 112.087 149.66 111.803 150.744 111.772C151.828 111.803 152.812 112.087 153.966 112.087C154.466 112.093 154.963 112.075 155.457 112.087C156.609 112.087 157.594 111.803 158.679 111.772C159.764 111.803 160.756 112.087 161.908 112.087C162.406 112.093 162.906 112.075 163.398 112.087C164.55 112.087 165.532 111.803 166.615 111.772C167.7 111.803 168.679 112.087 169.832 112.087C170.336 112.093 170.831 112.075 171.328 112.087C172.481 112.087 173.465 111.803 174.551 111.772C175.636 111.803 176.621 112.087 177.774 112.087C178.272 112.093 178.771 112.075 179.264 112.087C180.416 112.087 181.397 111.803 182.481 111.772C183.565 111.803 184.551 112.087 185.703 112.087C186.203 112.093 186.702 112.075 187.194 112.087C187.396 112.087 187.593 112.076 187.787 112.061L187.633 111.796C187.278 111.844 186.922 111.888 186.554 111.898C185.47 111.867 184.489 111.583 183.337 111.583C182.834 111.576 182.338 111.593 181.84 111.583C180.688 111.583 179.708 111.867 178.624 111.898C177.538 111.867 176.555 111.583 175.402 111.583C174.903 111.576 174.404 111.593 173.911 111.583C172.758 111.583 171.773 111.867 170.689 111.898C169.604 111.867 168.619 111.583 167.467 111.583C166.966 111.576 166.466 111.593 165.97 111.583C164.817 111.583 163.837 111.867 162.753 111.898C161.669 111.867 160.689 111.583 159.536 111.583C159.034 111.576 158.54 111.593 158.045 111.583C156.892 111.583 155.909 111.867 154.823 111.898C153.738 111.867 152.754 111.583 151.601 111.583C151.1 111.576 150.599 111.593 150.104 111.583Z" fill="url(#paint18_linear_5_4252)" />
<path d="M150.104 111.153C148.952 111.153 147.97 111.437 146.887 111.468C146.483 111.457 146.098 111.407 145.708 111.353L145.545 111.636C145.707 111.647 145.87 111.657 146.041 111.657C146.542 111.663 147.038 111.645 147.532 111.657C148.685 111.657 149.66 111.373 150.744 111.342C151.828 111.373 152.812 111.657 153.966 111.657C154.466 111.664 154.963 111.645 155.457 111.657C156.609 111.657 157.594 111.373 158.679 111.342C159.764 111.373 160.756 111.657 161.908 111.657C162.406 111.663 162.906 111.645 163.398 111.657C164.55 111.657 165.532 111.373 166.615 111.342C167.7 111.373 168.679 111.657 169.832 111.657C170.336 111.664 170.831 111.645 171.328 111.657C172.481 111.657 173.465 111.373 174.551 111.342C175.636 111.373 176.621 111.657 177.774 111.657C178.272 111.663 178.771 111.645 179.264 111.657C180.416 111.657 181.397 111.373 182.481 111.342C183.565 111.373 184.551 111.657 185.703 111.657C186.203 111.663 186.702 111.645 187.194 111.657C187.396 111.657 187.593 111.646 187.787 111.632L187.633 111.366C187.278 111.414 186.922 111.458 186.554 111.468C185.47 111.437 184.489 111.153 183.337 111.153C182.834 111.146 182.338 111.163 181.84 111.153C180.688 111.153 179.708 111.437 178.624 111.468C177.538 111.438 176.555 111.153 175.402 111.153C174.903 111.146 174.404 111.163 173.911 111.153C172.758 111.153 171.773 111.437 170.689 111.468C169.604 111.437 168.619 111.153 167.467 111.153C166.966 111.146 166.466 111.163 165.97 111.153C164.817 111.153 163.837 111.437 162.753 111.468C161.669 111.437 160.689 111.153 159.536 111.153C159.034 111.146 158.54 111.163 158.045 111.153C156.892 111.153 155.909 111.438 154.823 111.468C153.738 111.437 152.754 111.153 151.601 111.153C151.1 111.146 150.599 111.163 150.104 111.153Z" fill="url(#paint19_linear_5_4252)" />
<path d="M150.104 110.724C148.952 110.724 147.97 111.009 146.887 111.039C146.483 111.028 146.098 110.978 145.708 110.924L145.545 111.208C145.707 111.218 145.87 111.229 146.041 111.229C146.542 111.235 147.038 111.217 147.532 111.229C148.685 111.229 149.66 110.945 150.744 110.914C151.828 110.944 152.812 111.229 153.966 111.229C154.466 111.235 154.963 111.217 155.457 111.229C156.609 111.229 157.594 110.944 158.679 110.914C159.764 110.944 160.756 111.229 161.908 111.229C162.406 111.235 162.906 111.217 163.398 111.229C164.55 111.229 165.532 110.944 166.615 110.914C167.7 110.944 168.679 111.229 169.832 111.229C170.336 111.235 170.831 111.217 171.328 111.229C172.481 111.229 173.465 110.944 174.551 110.914C175.636 110.944 176.621 111.229 177.774 111.229C178.272 111.235 178.771 111.217 179.264 111.229C180.416 111.229 181.397 110.944 182.481 110.914C183.565 110.944 184.551 111.229 185.703 111.229C186.203 111.235 186.702 111.217 187.194 111.229C187.396 111.229 187.593 111.217 187.787 111.203L187.633 110.937C187.278 110.985 186.922 111.029 186.554 111.039C185.47 111.009 184.489 110.724 183.337 110.724C182.834 110.718 182.338 110.734 181.84 110.724C180.688 110.724 179.708 111.009 178.624 111.039C177.538 111.009 176.555 110.724 175.402 110.724C174.903 110.718 174.404 110.734 173.911 110.724C172.758 110.724 171.773 111.009 170.689 111.039C169.604 111.009 168.619 110.724 167.467 110.724C166.966 110.718 166.466 110.734 165.97 110.724C164.817 110.724 163.837 111.009 162.753 111.039C161.669 111.009 160.689 110.724 159.536 110.724C159.034 110.718 158.54 110.734 158.045 110.724C156.892 110.724 155.909 111.009 154.823 111.039C153.738 111.009 152.754 110.724 151.601 110.724C151.1 110.718 150.599 110.734 150.104 110.724Z" fill="url(#paint20_linear_5_4252)" />
<path d="M150.104 110.294C148.952 110.294 147.97 110.578 146.887 110.609C146.483 110.598 146.098 110.548 145.708 110.494L145.545 110.777C145.707 110.788 145.87 110.798 146.041 110.798C146.542 110.804 147.038 110.786 147.532 110.798C148.685 110.798 149.66 110.514 150.744 110.483C151.828 110.514 152.812 110.798 153.966 110.798C154.466 110.804 154.963 110.786 155.457 110.798C156.609 110.798 157.594 110.514 158.679 110.483C159.764 110.514 160.756 110.798 161.908 110.798C162.406 110.804 162.906 110.786 163.398 110.798C164.55 110.798 165.532 110.514 166.615 110.483C167.7 110.514 168.679 110.798 169.832 110.798C170.336 110.804 170.831 110.786 171.328 110.798C172.481 110.798 173.465 110.514 174.551 110.483C175.636 110.514 176.621 110.798 177.774 110.798C178.272 110.804 178.771 110.786 179.264 110.798C180.416 110.798 181.397 110.514 182.481 110.483C183.565 110.514 184.551 110.798 185.703 110.798C186.203 110.804 186.702 110.786 187.194 110.798C187.396 110.798 187.593 110.787 187.787 110.772L187.633 110.507C187.278 110.555 186.922 110.599 186.554 110.609C185.47 110.578 184.489 110.294 183.337 110.294C182.834 110.287 182.338 110.304 181.84 110.294C180.688 110.294 179.708 110.578 178.624 110.609C177.538 110.578 176.555 110.294 175.402 110.294C174.903 110.287 174.404 110.304 173.911 110.294C172.758 110.294 171.773 110.578 170.689 110.609C169.604 110.578 168.619 110.294 167.467 110.294C166.966 110.287 166.466 110.304 165.97 110.294C164.817 110.294 163.837 110.578 162.753 110.609C161.669 110.578 160.689 110.294 159.536 110.294C159.034 110.287 158.54 110.304 158.045 110.294C156.892 110.294 155.909 110.578 154.823 110.609C153.738 110.578 152.754 110.294 151.601 110.294C151.1 110.287 150.599 110.304 150.104 110.294Z" fill="url(#paint21_linear_5_4252)" />
<path d="M150.104 109.864C148.952 109.864 147.97 110.148 146.887 110.179C146.483 110.168 146.098 110.118 145.708 110.064L145.545 110.347C145.707 110.358 145.87 110.368 146.041 110.368C146.542 110.374 147.038 110.356 147.532 110.368C148.685 110.368 149.66 110.084 150.744 110.053C151.828 110.084 152.812 110.368 153.966 110.368C154.466 110.375 154.963 110.356 155.457 110.368C156.609 110.368 157.594 110.084 158.679 110.053C159.764 110.084 160.756 110.368 161.908 110.368C162.406 110.374 162.906 110.356 163.398 110.368C164.55 110.368 165.532 110.084 166.615 110.053C167.7 110.084 168.679 110.368 169.832 110.368C170.336 110.375 170.831 110.356 171.328 110.368C172.481 110.368 173.465 110.084 174.551 110.053C175.636 110.084 176.621 110.368 177.774 110.368C178.272 110.374 178.771 110.356 179.264 110.368C180.416 110.368 181.397 110.084 182.481 110.053C183.565 110.084 184.551 110.368 185.703 110.368C186.203 110.374 186.702 110.356 187.194 110.368C187.396 110.368 187.593 110.357 187.787 110.343L187.633 110.077C187.278 110.125 186.922 110.169 186.554 110.179C185.47 110.148 184.489 109.864 183.337 109.864C182.834 109.857 182.338 109.874 181.84 109.864C180.688 109.864 179.708 110.148 178.624 110.179C177.538 110.149 176.555 109.864 175.402 109.864C174.903 109.857 174.404 109.874 173.911 109.864C172.758 109.864 171.773 110.148 170.689 110.179C169.604 110.148 168.619 109.864 167.467 109.864C166.966 109.857 166.466 109.874 165.97 109.864C164.817 109.864 163.837 110.148 162.753 110.179C161.669 110.148 160.689 109.864 159.536 109.864C159.034 109.857 158.54 109.874 158.045 109.864C156.892 109.864 155.909 110.149 154.823 110.179C153.738 110.148 152.754 109.864 151.601 109.864C151.1 109.857 150.599 109.874 150.104 109.864Z" fill="url(#paint22_linear_5_4252)" />
<path d="M150.104 109.435C148.952 109.435 147.97 109.72 146.887 109.75C146.483 109.739 146.098 109.689 145.708 109.635L145.545 109.919C145.707 109.929 145.87 109.94 146.041 109.94C146.542 109.946 147.038 109.928 147.532 109.94C148.685 109.94 149.66 109.656 150.744 109.625C151.828 109.655 152.812 109.94 153.966 109.94C154.466 109.946 154.963 109.928 155.457 109.94C156.609 109.94 157.594 109.655 158.679 109.625C159.764 109.655 160.756 109.94 161.908 109.94C162.406 109.946 162.906 109.928 163.398 109.94C164.55 109.94 165.532 109.655 166.615 109.625C167.7 109.655 168.679 109.94 169.832 109.94C170.336 109.946 170.831 109.928 171.328 109.94C172.481 109.94 173.465 109.655 174.551 109.625C175.636 109.655 176.621 109.94 177.774 109.94C178.272 109.946 178.771 109.928 179.264 109.94C180.416 109.94 181.397 109.655 182.481 109.625C183.565 109.655 184.551 109.94 185.703 109.94C186.203 109.946 186.702 109.928 187.194 109.94C187.396 109.94 187.593 109.928 187.787 109.914L187.633 109.648C187.278 109.696 186.922 109.74 186.554 109.75C185.47 109.72 184.489 109.435 183.337 109.435C182.834 109.429 182.338 109.445 181.84 109.435C180.688 109.435 179.708 109.72 178.624 109.75C177.538 109.72 176.555 109.435 175.402 109.435C174.903 109.429 174.404 109.445 173.911 109.435C172.758 109.435 171.773 109.72 170.689 109.75C169.604 109.72 168.619 109.435 167.467 109.435C166.966 109.429 166.466 109.445 165.97 109.435C164.817 109.435 163.837 109.72 162.753 109.75C161.669 109.72 160.689 109.435 159.536 109.435C159.034 109.429 158.54 109.445 158.045 109.435C156.892 109.435 155.909 109.72 154.823 109.75C153.738 109.72 152.754 109.435 151.601 109.435C151.1 109.429 150.599 109.445 150.104 109.435Z" fill="url(#paint23_linear_5_4252)" />
<path d="M150.104 109.007C148.952 109.007 147.97 109.291 146.887 109.322C146.483 109.311 146.098 109.261 145.708 109.207L145.545 109.49C145.707 109.501 145.87 109.511 146.041 109.511C146.542 109.517 147.038 109.499 147.532 109.511C148.685 109.511 149.66 109.227 150.744 109.196C151.828 109.227 152.812 109.511 153.966 109.511C154.466 109.517 154.963 109.499 155.457 109.511C156.609 109.511 157.594 109.227 158.679 109.196C159.764 109.227 160.756 109.511 161.908 109.511C162.406 109.517 162.906 109.499 163.398 109.511C164.55 109.511 165.532 109.227 166.615 109.196C167.7 109.227 168.679 109.511 169.832 109.511C170.336 109.517 170.831 109.499 171.328 109.511C172.481 109.511 173.465 109.227 174.551 109.196C175.636 109.227 176.621 109.511 177.774 109.511C178.272 109.517 178.771 109.499 179.264 109.511C180.416 109.511 181.397 109.227 182.481 109.196C183.565 109.227 184.551 109.511 185.703 109.511C186.203 109.517 186.702 109.499 187.194 109.511C187.396 109.511 187.593 109.5 187.787 109.485L187.633 109.22C187.278 109.268 186.922 109.312 186.554 109.322C185.47 109.291 184.489 109.007 183.337 109.007C182.834 109 182.338 109.017 181.84 109.007C180.688 109.007 179.708 109.291 178.624 109.322C177.538 109.291 176.555 109.007 175.402 109.007C174.903 109 174.404 109.017 173.911 109.007C172.758 109.007 171.773 109.291 170.689 109.322C169.604 109.291 168.619 109.007 167.467 109.007C166.966 109 166.466 109.017 165.97 109.007C164.817 109.007 163.837 109.291 162.753 109.322C161.669 109.291 160.689 109.007 159.536 109.007C159.034 109 158.54 109.017 158.045 109.007C156.892 109.007 155.909 109.291 154.823 109.322C153.738 109.291 152.754 109.007 151.601 109.007C151.1 109 150.599 109.017 150.104 109.007Z" fill="url(#paint24_linear_5_4252)" />
<path d="M150.104 108.577C148.952 108.577 147.97 108.861 146.887 108.892C146.483 108.881 146.098 108.831 145.708 108.777L145.545 109.06C145.707 109.071 145.87 109.081 146.041 109.081C146.542 109.087 147.038 109.069 147.532 109.081C148.685 109.081 149.66 108.797 150.744 108.766C151.828 108.797 152.812 109.081 153.966 109.081C154.466 109.087 154.963 109.069 155.457 109.081C156.609 109.081 157.594 108.797 158.679 108.766C159.764 108.797 160.756 109.081 161.908 109.081C162.406 109.087 162.906 109.069 163.398 109.081C164.55 109.081 165.532 108.797 166.615 108.766C167.7 108.797 168.679 109.081 169.832 109.081C170.336 109.087 170.831 109.069 171.328 109.081C172.481 109.081 173.465 108.797 174.551 108.766C175.636 108.797 176.621 109.081 177.774 109.081C178.272 109.087 178.771 109.069 179.264 109.081C180.416 109.081 181.397 108.797 182.481 108.766C183.565 108.797 184.551 109.081 185.703 109.081C186.203 109.087 186.702 109.069 187.194 109.081C187.396 109.081 187.593 109.07 187.787 109.055L187.633 108.79C187.278 108.838 186.922 108.882 186.554 108.892C185.47 108.861 184.489 108.577 183.337 108.577C182.834 108.57 182.338 108.587 181.84 108.577C180.688 108.577 179.708 108.861 178.624 108.892C177.538 108.861 176.555 108.577 175.402 108.577C174.903 108.57 174.404 108.587 173.911 108.577C172.758 108.577 171.773 108.861 170.689 108.892C169.604 108.861 168.619 108.577 167.467 108.577C166.966 108.57 166.466 108.587 165.97 108.577C164.817 108.577 163.837 108.861 162.753 108.892C161.669 108.861 160.689 108.577 159.536 108.577C159.034 108.57 158.54 108.587 158.045 108.577C156.892 108.577 155.909 108.861 154.823 108.892C153.738 108.861 152.754 108.577 151.601 108.577C151.1 108.57 150.599 108.587 150.104 108.577Z" fill="url(#paint25_linear_5_4252)" />
<path d="M150.104 108.148C148.952 108.148 147.97 108.432 146.887 108.463C146.483 108.452 146.098 108.402 145.708 108.348L145.545 108.631C145.707 108.642 145.87 108.652 146.041 108.652C146.542 108.658 147.038 108.64 147.532 108.652C148.685 108.652 149.66 108.368 150.744 108.337C151.828 108.368 152.812 108.652 153.966 108.652C154.466 108.659 154.963 108.64 155.457 108.652C156.609 108.652 157.594 108.368 158.679 108.337C159.764 108.368 160.756 108.652 161.908 108.652C162.406 108.658 162.906 108.64 163.398 108.652C164.55 108.652 165.532 108.368 166.615 108.337C167.7 108.368 168.679 108.652 169.832 108.652C170.336 108.659 170.831 108.64 171.328 108.652C172.481 108.652 173.465 108.368 174.551 108.337C175.636 108.368 176.621 108.652 177.774 108.652C178.272 108.658 178.771 108.64 179.264 108.652C180.416 108.652 181.397 108.368 182.481 108.337C183.565 108.368 184.551 108.652 185.703 108.652C186.203 108.658 186.702 108.64 187.194 108.652C187.396 108.652 187.593 108.641 187.787 108.627L187.633 108.361C187.278 108.409 186.922 108.453 186.554 108.463C185.47 108.432 184.489 108.148 183.337 108.148C182.834 108.141 182.338 108.158 181.84 108.148C180.688 108.148 179.708 108.432 178.624 108.463C177.538 108.433 176.555 108.148 175.402 108.148C174.903 108.141 174.404 108.158 173.911 108.148C172.758 108.148 171.773 108.432 170.689 108.463C169.604 108.432 168.619 108.148 167.467 108.148C166.966 108.141 166.466 108.158 165.97 108.148C164.817 108.148 163.837 108.432 162.753 108.463C161.669 108.432 160.689 108.148 159.536 108.148C159.034 108.141 158.54 108.158 158.045 108.148C156.892 108.148 155.909 108.433 154.823 108.463C153.738 108.432 152.754 108.148 151.601 108.148C151.1 108.141 150.599 108.158 150.104 108.148Z" fill="url(#paint26_linear_5_4252)" />
<path d="M147.949 108.235L147.14 109.632C148.086 109.475 149.507 109.064 150.684 109.063C151.905 109.062 153.378 109.364 154.83 109.369C156.519 109.373 157.156 109.009 158.518 108.874C159.88 108.738 161.184 109.049 162.487 109.055C163.535 109.053 165.132 108.692 166.478 108.551C167.823 108.411 169.057 108.649 170.679 108.674C172.301 108.699 172.555 108.281 174.537 108.238C176.659 108.191 176.853 108.53 178.732 108.53C180.146 108.606 181.36 108.245 182.621 108.156C183.882 108.067 184.467 108.171 185.389 108.193L184.776 107.108C184.766 107.108 184.756 107.109 184.746 107.11L150.997 107.852L147.949 108.235Z" fill="#97C924" />
<path d="M183.356 108.216C183.356 108.216 184.259 108.266 184.638 108.308C184.966 108.342 185.294 108.37 185.623 108.393L185.5 108.231C185.309 108.299 184.026 108.168 183.356 108.216Z" fill="white" />
</g>
<path d="M166.667 74.958L155.953 93.52L145 112.486L166.433 112.484L188.333 112.486L177.616 93.9253L166.667 74.958ZM166.667 75.9587L177.183 94.176L187.467 111.985L166.433 111.984L145.866 111.985L156.386 93.7703L166.667 75.9587Z" fill="#C8A400" />
</g>
<defs>
<linearGradient id="paint0_linear_5_4252" x1="166.246" y1="96.3521" x2="166.875" y2="94.4737" gradientUnits="userSpaceOnUse">
<stop stop-color="#510000" />
<stop offset="0.3" stop-color="#8A0000" />
<stop offset="1" stop-color="#AA0000" />
</linearGradient>
<linearGradient id="paint1_linear_5_4252" x1="167.148" y1="97.1245" x2="167.642" y2="95.8165" gradientUnits="userSpaceOnUse">
<stop stop-color="#FF2A2A" />
<stop offset="1" stop-color="#FF0000" />
</linearGradient>
<linearGradient id="paint2_linear_5_4252" x1="148.17" y1="105.828" x2="211.47" y2="105.828" gradientUnits="userSpaceOnUse">
<stop stop-color="#002255" />
<stop offset="0.5" stop-color="#0044AA" />
<stop offset="1" stop-color="#002255" />
</linearGradient>
<linearGradient id="paint3_linear_5_4252" x1="148.17" y1="105.458" x2="211.47" y2="105.458" gradientUnits="userSpaceOnUse">
<stop stop-color="#002255" />
<stop offset="0.5" stop-color="#0044AA" />
<stop offset="1" stop-color="#002255" />
</linearGradient>
<linearGradient id="paint4_linear_5_4252" x1="148.17" y1="105.085" x2="211.47" y2="105.085" gradientUnits="userSpaceOnUse">
<stop stop-color="#002255" />
<stop offset="0.5" stop-color="#0044AA" />
<stop offset="1" stop-color="#002255" />
</linearGradient>
<linearGradient id="paint5_linear_5_4252" x1="148.17" y1="104.713" x2="211.47" y2="104.713" gradientUnits="userSpaceOnUse">
<stop stop-color="#002255" />
<stop offset="0.5" stop-color="#0044AA" />
<stop offset="1" stop-color="#002255" />
</linearGradient>
<linearGradient id="paint6_linear_5_4252" x1="148.17" y1="104.343" x2="211.47" y2="104.343" gradientUnits="userSpaceOnUse">
<stop stop-color="#002255" />
<stop offset="0.5" stop-color="#0044AA" />
<stop offset="1" stop-color="#002255" />
</linearGradient>
<linearGradient id="paint7_linear_5_4252" x1="148.17" y1="103.97" x2="211.47" y2="103.97" gradientUnits="userSpaceOnUse">
<stop stop-color="#002255" />
<stop offset="0.5" stop-color="#0044AA" />
<stop offset="1" stop-color="#002255" />
</linearGradient>
<linearGradient id="paint8_linear_5_4252" x1="148.17" y1="103.598" x2="211.47" y2="103.598" gradientUnits="userSpaceOnUse">
<stop stop-color="#002255" />
<stop offset="0.5" stop-color="#0044AA" />
<stop offset="1" stop-color="#002255" />
</linearGradient>
<linearGradient id="paint9_linear_5_4252" x1="148.17" y1="103.228" x2="211.47" y2="103.228" gradientUnits="userSpaceOnUse">
<stop stop-color="#002255" />
<stop offset="0.5" stop-color="#0044AA" />
<stop offset="1" stop-color="#002255" />
</linearGradient>
<linearGradient id="paint10_linear_5_4252" x1="148.17" y1="102.855" x2="211.47" y2="102.855" gradientUnits="userSpaceOnUse">
<stop stop-color="#002255" />
<stop offset="0.5" stop-color="#0044AA" />
<stop offset="1" stop-color="#002255" />
</linearGradient>
<linearGradient id="paint11_linear_5_4252" x1="148.17" y1="105.828" x2="211.47" y2="105.828" gradientUnits="userSpaceOnUse">
<stop stop-color="#002255" />
<stop offset="0.5" stop-color="#0044AA" />
<stop offset="1" stop-color="#002255" />
</linearGradient>
<linearGradient id="paint12_linear_5_4252" x1="161.588" y1="103.903" x2="161.588" y2="105.882" gradientUnits="userSpaceOnUse">
<stop stop-color="#F5F549" />
<stop offset="1" stop-color="#97C924" />
</linearGradient>
<linearGradient id="paint13_linear_5_4252" x1="156.474" y1="103.903" x2="156.474" y2="105.882" gradientUnits="userSpaceOnUse">
<stop stop-color="#F5F549" />
<stop offset="1" stop-color="#97C924" />
</linearGradient>
<linearGradient id="paint14_linear_5_4252" x1="161.588" y1="103.903" x2="161.588" y2="105.882" gradientUnits="userSpaceOnUse">
<stop stop-color="#F5F549" />
<stop offset="1" stop-color="#97C924" />
</linearGradient>
<linearGradient id="paint15_linear_5_4252" x1="161.588" y1="103.903" x2="161.588" y2="105.882" gradientUnits="userSpaceOnUse">
<stop stop-color="#F5F549" />
<stop offset="1" stop-color="#97C924" />
</linearGradient>
<linearGradient id="paint16_linear_5_4252" x1="156.445" y1="103.903" x2="156.445" y2="105.882" gradientUnits="userSpaceOnUse">
<stop stop-color="#F5F549" />
<stop offset="1" stop-color="#97C924" />
</linearGradient>
<linearGradient id="paint17_linear_5_4252" x1="146.939" y1="107.704" x2="185.671" y2="107.704" gradientUnits="userSpaceOnUse">
<stop stop-color="#002255" />
<stop offset="0.5" stop-color="#0044AA" />
<stop offset="1" stop-color="#002255" />
</linearGradient>
<linearGradient id="paint18_linear_5_4252" x1="145.545" y1="111.581" x2="187.787" y2="111.581" gradientUnits="userSpaceOnUse">
<stop stop-color="#002255" />
<stop offset="0.5" stop-color="#0044AA" />
<stop offset="1" stop-color="#002255" />
</linearGradient>
<linearGradient id="paint19_linear_5_4252" x1="145.545" y1="111.151" x2="187.787" y2="111.151" gradientUnits="userSpaceOnUse">
<stop stop-color="#002255" />
<stop offset="0.5" stop-color="#0044AA" />
<stop offset="1" stop-color="#002255" />
</linearGradient>
<linearGradient id="paint20_linear_5_4252" x1="145.545" y1="110.723" x2="187.787" y2="110.723" gradientUnits="userSpaceOnUse">
<stop stop-color="#002255" />
<stop offset="0.5" stop-color="#0044AA" />
<stop offset="1" stop-color="#002255" />
</linearGradient>
<linearGradient id="paint21_linear_5_4252" x1="145.545" y1="110.292" x2="187.787" y2="110.292" gradientUnits="userSpaceOnUse">
<stop stop-color="#002255" />
<stop offset="0.5" stop-color="#0044AA" />
<stop offset="1" stop-color="#002255" />
</linearGradient>
<linearGradient id="paint22_linear_5_4252" x1="145.545" y1="109.862" x2="187.787" y2="109.862" gradientUnits="userSpaceOnUse">
<stop stop-color="#002255" />
<stop offset="0.5" stop-color="#0044AA" />
<stop offset="1" stop-color="#002255" />
</linearGradient>
<linearGradient id="paint23_linear_5_4252" x1="145.545" y1="109.434" x2="187.787" y2="109.434" gradientUnits="userSpaceOnUse">
<stop stop-color="#002255" />
<stop offset="0.5" stop-color="#0044AA" />
<stop offset="1" stop-color="#002255" />
</linearGradient>
<linearGradient id="paint24_linear_5_4252" x1="145.545" y1="109.005" x2="187.787" y2="109.005" gradientUnits="userSpaceOnUse">
<stop stop-color="#002255" />
<stop offset="0.5" stop-color="#0044AA" />
<stop offset="1" stop-color="#002255" />
</linearGradient>
<linearGradient id="paint25_linear_5_4252" x1="145.545" y1="108.575" x2="187.787" y2="108.575" gradientUnits="userSpaceOnUse">
<stop stop-color="#002255" />
<stop offset="0.5" stop-color="#0044AA" />
<stop offset="1" stop-color="#002255" />
</linearGradient>
<linearGradient id="paint26_linear_5_4252" x1="145.545" y1="108.146" x2="187.787" y2="108.146" gradientUnits="userSpaceOnUse">
<stop stop-color="#002255" />
<stop offset="0.5" stop-color="#0044AA" />
<stop offset="1" stop-color="#002255" />
</linearGradient>
<clipPath id="clip0_5_4252">
<rect width="333.333" height="200" fill="white" />
</clipPath>
</defs>
</svg>