<svg xmlns="http://www.w3.org/2000/svg" viewBox="0 0 334 200">
<path d="M151.623 86.424C147.897 84.1097 143.946 82.1903 139.881 80.6097C136.381 85.803 134.349 92.0123 134.349 98.7297C134.349 102.06 134.857 105.278 135.817 108.326C137.51 104.431 139.656 100.649 142.252 97.0363C144.965 93.1567 148.109 89.5966 151.623 86.424ZM141.688 78.2387C146.091 79.763 150.324 81.7387 154.389 84.053C155.292 83.263 156.252 82.5853 157.155 81.908C152.865 79.537 148.292 77.618 143.607 76.15C142.93 76.8277 142.252 77.505 141.688 78.2387ZM145.639 74.231C150.72 75.5857 155.574 77.4483 160.147 79.8757C161.219 79.1983 162.292 78.5773 163.308 77.9567C158.453 75.4727 153.316 73.6667 148.01 72.368C147.172 72.9257 146.379 73.5486 145.639 74.231ZM150.437 70.844C156.026 71.973 161.445 73.7793 166.526 76.263C171.662 73.7793 177.082 71.973 182.614 70.844C177.928 68.078 172.396 66.4973 166.526 66.4973C160.655 66.4973 155.179 68.078 150.437 70.844ZM185.041 72.4247C179.743 73.666 174.609 75.5226 169.743 77.9567C170.809 78.5756 171.863 79.2154 172.904 79.8757C177.533 77.4483 182.388 75.5857 187.412 74.231C186.678 73.5533 185.888 72.9327 185.041 72.4243L185.041 72.4247ZM189.444 76.2067C184.759 77.618 180.243 79.537 175.896 81.908C176.861 82.5913 177.802 83.3067 178.719 84.053C182.726 81.7387 186.96 79.763 191.363 78.2387C190.799 77.505 190.178 76.8277 189.444 76.2067ZM193.17 80.666C189.094 82.1955 185.18 84.1243 181.485 86.424C184.928 89.5287 188.033 93.085 190.855 97.0363C193.354 100.586 195.509 104.367 197.29 108.326C198.194 105.222 198.702 102.06 198.702 98.7297C198.702 92.0123 196.669 85.8027 193.17 80.666ZM190.404 102.794C187.017 97.3187 182.952 92.464 178.436 88.3433C177.42 89.077 176.348 89.811 175.388 90.5447C183.009 97.6573 189.162 106.576 193.057 116.963C193.96 115.608 194.807 114.197 195.484 112.786C194.073 109.399 192.379 106.068 190.404 102.794ZM172.509 88.1177C173.525 87.3837 174.541 86.6497 175.614 85.9723C174.711 85.1823 173.751 84.4483 172.791 83.7143C171.719 84.3917 170.646 85.069 169.574 85.803H169.63C170.59 86.537 171.55 87.327 172.509 88.1173V88.1177ZM166.526 83.6013C167.598 82.924 168.727 82.2467 169.743 81.6257C168.671 80.9483 167.598 80.271 166.526 79.65C165.453 80.271 164.437 80.9483 163.364 81.6257C164.437 82.2467 165.453 82.924 166.526 83.6013ZM163.477 85.803C162.405 85.069 161.389 84.3917 160.316 83.7143L157.437 85.916C158.51 86.6497 159.526 87.327 160.542 88.061C161.496 87.2772 162.475 86.5241 163.477 85.803ZM166.526 88.061C165.566 88.7947 164.606 89.585 163.59 90.432C164.606 91.222 165.566 92.0687 166.526 92.9153C167.485 92.0687 168.445 91.222 169.461 90.432C168.501 89.6417 167.542 88.7947 166.526 88.061ZM166.526 98.617C162.114 103.374 158.373 108.711 155.405 114.479C153.316 118.431 151.679 122.552 150.437 126.672C155.179 129.326 160.655 130.906 166.526 130.906C172.397 130.906 177.872 129.325 182.614 126.672C181.372 122.552 179.735 118.431 177.646 114.479C174.598 108.552 170.872 103.246 166.526 98.617ZM147.897 120.011C151.566 110.641 156.986 102.456 163.647 95.6813C162.687 94.7783 161.727 93.9317 160.711 93.0287C152.978 100.536 146.768 109.85 142.986 120.632C144.05 121.809 145.201 122.903 146.429 123.906C146.881 122.608 147.389 121.31 147.897 120.011ZM169.404 95.6813C176.065 102.456 181.484 110.641 185.21 120.011C185.718 121.31 186.17 122.608 186.621 123.906C187.863 122.89 189.049 121.818 190.121 120.632C186.283 109.85 180.073 100.536 172.34 93.0287C171.324 93.932 170.364 94.7787 169.404 95.6817V95.6813ZM139.994 116.963C143.889 106.576 150.042 97.7137 157.719 90.6013C156.708 89.817 155.672 89.0639 154.615 88.3433C150.099 92.5203 146.035 97.375 142.647 102.851C140.699 106.025 139 109.347 137.567 112.786C138.244 114.253 139.091 115.608 139.994 116.963ZM166.695 63.9007C186.565 63.9007 202.766 80.1017 202.766 99.9717C202.766 119.842 186.565 136.043 166.695 136.043C146.825 136.043 130.624 119.842 130.624 99.9717C130.624 80.1017 146.825 63.9007 166.695 63.9007ZM182.614 55.9977C181.598 57.1833 180.469 58.7073 179.34 61.1343C179.057 60.5137 179.057 59.78 179.226 58.9897C179.509 56.393 180.243 54.8123 181.598 52.6107C182.049 51.8207 182.501 51.143 182.726 50.2963C183.573 47.7563 183.404 44.3693 181.541 41.7163C181.823 44.708 180.92 47.1917 179.904 48.7157C179.735 48.998 179.565 49.1673 179.34 49.3933C178.267 50.4657 177.082 51.5383 175.557 54.022C174.711 55.3767 173.864 57.0137 173.074 59.6103C172.735 59.046 172.622 58.3687 172.679 57.5783C172.565 54.925 173.017 53.2883 173.977 50.861C174.316 50.0143 174.654 49.2803 174.767 48.377C175.162 45.7803 174.485 42.45 172.227 40.1353C172.961 43.0143 172.509 45.611 171.719 47.3047C171.55 47.5867 171.437 47.8127 171.267 48.0383C170.364 49.2803 169.404 50.522 168.219 53.175C167.655 54.6993 167.034 56.4493 166.695 59.1023C166.243 58.5943 166.017 57.917 165.961 57.1267C165.453 54.53 165.622 52.8367 166.187 50.2967C166.413 49.4497 166.638 48.6593 166.582 47.756C166.582 45.103 165.397 41.942 162.8 39.966C163.985 42.732 163.929 45.3853 163.421 47.1917C163.308 47.4173 163.195 47.6997 163.082 47.9253C162.405 49.3367 161.614 50.6917 160.881 53.514C160.542 55.0947 160.203 56.9573 160.26 59.6107C159.808 59.159 159.47 58.538 159.244 57.804C158.34 55.264 158.227 53.627 158.453 50.974C158.51 50.0707 158.566 49.2803 158.453 48.4337C158.002 45.7803 156.308 42.845 153.486 41.321C155.066 43.861 155.405 46.5143 155.179 48.3207L155.01 49.1673C154.558 50.635 153.994 52.1027 153.712 55.038C153.598 56.6187 153.542 58.4813 154.05 61.1347C153.486 60.7393 153.09 60.175 152.752 59.4977C151.454 57.1267 151.115 55.4897 150.889 52.893C150.832 51.9897 150.776 51.1997 150.437 50.353C149.647 47.8127 147.502 45.1597 144.454 44.1433C146.43 46.345 147.22 48.885 147.22 50.748C147.22 51.0303 147.22 51.3123 147.163 51.5947C146.938 53.1187 146.655 54.6993 146.825 57.5783C146.994 59.159 147.22 61.0217 148.123 63.5617C147.502 63.2797 146.994 62.7717 146.542 62.1507C144.906 60.062 144.341 58.4817 143.72 55.9413C143.494 55.038 143.325 54.3043 142.873 53.4577C141.688 51.143 139.148 48.8287 135.987 48.2643C138.244 50.1833 139.43 52.611 139.769 54.417C139.825 54.6993 139.825 54.9817 139.825 55.2637C139.882 56.788 139.825 58.3687 140.446 61.2477C140.841 62.7717 141.349 64.578 142.647 66.8923C142.027 66.723 141.462 66.328 140.897 65.7633C138.922 63.957 138.075 62.4893 137.115 60.062C136.777 59.2153 136.438 58.4817 135.93 57.7477C134.349 55.659 131.527 53.7963 128.253 53.7397C130.85 55.264 132.374 57.409 132.995 59.159L133.164 60.0057C133.446 61.5297 133.616 63.1103 134.688 65.82C135.309 67.2877 136.156 68.981 137.793 71.07C137.115 71.0133 136.494 70.6747 135.874 70.223C133.672 68.7553 132.599 67.4007 131.188 65.199C130.737 64.409 130.342 63.7313 129.664 63.1103C127.801 61.2477 124.697 59.8363 121.479 60.288C124.245 61.417 126.108 63.336 127.011 64.9733C127.124 65.199 127.237 65.4813 127.35 65.7633C127.858 67.1747 128.253 68.699 129.721 71.239C130.567 72.594 131.64 74.118 133.616 75.9807C132.938 75.9807 132.261 75.755 131.583 75.4163C129.156 74.2873 127.914 73.1583 126.221 71.1827C125.6 70.5053 125.092 69.8843 124.358 69.3197C122.213 67.7957 118.939 66.8923 115.834 67.852C118.769 68.5293 120.914 70.11 121.987 71.5777C122.213 71.8037 122.326 72.0293 122.439 72.3117C123.172 73.6663 123.85 75.134 125.713 77.3357C126.729 78.5773 128.027 79.9323 130.229 81.4563C129.608 81.5693 128.93 81.4563 128.14 81.174C125.6 80.4967 124.189 79.5373 122.213 77.8437C121.535 77.279 120.914 76.771 120.124 76.3197C117.753 75.134 114.366 74.7953 111.431 76.2063C114.423 76.376 116.794 77.6743 118.148 78.9163C118.318 79.142 118.487 79.3113 118.656 79.5937C119.616 80.779 120.463 82.1337 122.664 84.053C123.85 85.069 125.374 86.198 127.801 87.3837C127.18 87.6093 126.447 87.6093 125.713 87.4403C123.059 87.1577 121.535 86.4237 119.277 85.069C118.487 84.6177 117.81 84.1657 116.963 83.94C114.423 83.0933 111.092 83.2627 108.439 85.1257C111.375 84.8433 113.915 85.7467 115.439 86.7623C115.665 86.932 115.89 87.1013 116.06 87.327C117.189 88.3997 118.261 89.585 120.689 91.1093C122.043 91.956 123.737 92.8593 126.277 93.593C125.713 93.9317 125.035 94.0447 124.245 94.0447C121.592 94.1013 119.955 93.6493 117.528 92.6897C116.681 92.351 115.947 92.0123 115.044 91.8997C112.447 91.5043 109.117 92.1817 106.802 94.4397C109.681 93.706 112.334 94.1573 113.971 94.9477C114.253 95.117 114.479 95.23 114.705 95.3993C115.947 96.3027 117.189 97.2623 119.898 98.4477C121.366 99.012 123.116 99.633 125.769 99.9717C125.261 100.423 124.584 100.649 123.85 100.706C121.197 101.27 119.56 101.044 116.963 100.48C116.116 100.254 115.326 100.085 114.423 100.085C111.77 100.085 108.609 101.27 106.689 103.867C109.399 102.681 112.052 102.738 113.858 103.246C114.141 103.359 114.366 103.472 114.648 103.585C116.003 104.262 117.415 105.052 120.237 105.786C121.761 106.125 123.624 106.463 126.277 106.407C125.826 106.859 125.205 107.197 124.471 107.423C121.987 108.326 120.294 108.439 117.697 108.213C116.794 108.157 116.004 108.1 115.1 108.213C112.504 108.665 109.568 110.358 108.044 113.237C110.528 111.6 113.181 111.262 115.044 111.487C115.326 111.544 115.552 111.6 115.834 111.657C117.302 112.165 118.769 112.673 121.705 112.955C123.285 113.068 125.148 113.124 127.801 112.616C127.406 113.181 126.842 113.576 126.164 113.915C123.85 115.213 122.156 115.552 119.56 115.778C118.656 115.89 117.866 115.947 117.02 116.229C114.479 117.019 111.883 119.165 110.81 122.213C113.068 120.237 115.608 119.503 117.471 119.447C117.753 119.447 118.036 119.447 118.318 119.503C119.785 119.729 121.366 120.011 124.301 119.842C125.882 119.729 127.745 119.447 130.229 118.544C130.003 119.165 129.495 119.673 128.817 120.124C126.729 121.761 125.148 122.326 122.608 122.947C121.761 123.172 120.971 123.342 120.181 123.793C117.81 124.979 115.552 127.519 114.987 130.68C116.85 128.422 119.277 127.237 121.084 126.898C121.366 126.842 121.648 126.842 121.931 126.842C123.455 126.785 125.092 126.842 127.914 126.221C129.438 125.826 131.245 125.317 133.616 124.019C133.446 124.64 132.995 125.261 132.43 125.769C130.624 127.745 129.156 128.592 126.729 129.551C125.939 129.946 125.205 130.229 124.471 130.737C122.326 132.317 120.463 135.14 120.406 138.414C121.931 135.817 124.132 134.293 125.882 133.672C126.164 133.615 126.39 133.559 126.672 133.503C128.196 133.22 129.777 133.051 132.487 131.979C133.954 131.358 135.648 130.511 137.793 128.93C137.68 129.551 137.398 130.172 136.889 130.793C135.422 132.995 134.124 134.067 131.866 135.478C131.132 135.93 130.454 136.325 129.777 137.003C127.914 138.865 126.559 141.97 127.011 145.188C128.084 142.422 130.003 140.559 131.64 139.656C131.922 139.543 132.148 139.43 132.43 139.317C133.898 138.865 135.422 138.414 137.906 136.946C139.261 136.099 140.785 135.027 142.647 133.051C142.704 133.728 142.478 134.406 142.083 135.083C140.954 137.511 139.825 138.752 137.849 140.446C137.172 141.067 136.551 141.575 136.043 142.309C134.519 144.454 133.616 147.728 134.575 150.833C135.196 147.897 136.777 145.752 138.301 144.68C138.527 144.51 138.752 144.341 138.978 144.228C140.333 143.494 141.801 142.817 144.059 140.954C145.244 139.938 146.599 138.64 148.123 136.438C148.236 137.059 148.123 137.793 147.897 138.527C147.163 141.067 146.26 142.478 144.51 144.454C143.946 145.131 143.438 145.752 143.043 146.599C141.857 148.97 141.462 152.3 142.873 155.236C143.099 152.244 144.341 149.873 145.639 148.575C145.809 148.349 146.034 148.18 146.26 148.01C147.502 147.051 148.8 146.204 150.72 144.002C151.736 142.817 152.865 141.293 154.05 138.866C154.276 139.486 154.276 140.22 154.163 140.954C153.824 143.607 153.147 145.131 151.792 147.389C151.284 148.179 150.889 148.857 150.607 149.704C149.817 152.244 149.986 155.631 151.849 158.284C151.566 155.292 152.413 152.752 153.486 151.228C153.655 151.002 153.824 150.776 153.994 150.607C155.066 149.478 156.252 148.405 157.832 145.978C158.622 144.623 159.526 142.93 160.26 140.39C160.598 140.954 160.711 141.631 160.711 142.422C160.824 145.075 160.373 146.712 159.356 149.139C159.018 149.986 158.736 150.72 158.566 151.623C158.171 154.22 158.848 157.55 161.106 159.865C160.373 156.986 160.824 154.332 161.671 152.695C161.784 152.413 161.897 152.187 162.066 151.962C162.969 150.72 163.985 149.478 165.114 146.768C165.735 145.301 166.356 143.551 166.695 140.898C167.09 141.406 167.316 142.083 167.429 142.817C167.937 145.47 167.767 147.107 167.146 149.703C166.921 150.55 166.751 151.341 166.751 152.244C166.751 154.897 167.993 158.058 170.59 159.977C169.404 157.268 169.404 154.615 169.969 152.808C170.026 152.526 170.138 152.3 170.251 152.018C170.929 150.663 171.719 149.252 172.453 146.43C172.791 144.905 173.13 143.043 173.074 140.39C173.582 140.841 173.864 141.462 174.09 142.196C175.05 144.68 175.106 146.373 174.936 149.026C174.824 149.873 174.767 150.663 174.936 151.566C175.332 154.22 177.025 157.155 179.904 158.679C178.323 156.139 177.928 153.486 178.211 151.679C178.211 151.397 178.267 151.115 178.38 150.833C178.831 149.365 179.396 147.897 179.678 144.962C179.735 143.381 179.791 141.519 179.34 138.865C179.848 139.261 180.299 139.825 180.638 140.502C181.936 142.817 182.275 144.51 182.501 147.107C182.557 148.01 182.614 148.8 182.896 149.647C183.743 152.187 185.831 154.784 188.936 155.857C186.96 153.599 186.17 151.058 186.113 149.196C186.113 148.913 186.113 148.631 186.17 148.349C186.396 146.881 186.734 145.301 186.509 142.365C186.396 140.785 186.113 138.922 185.267 136.438C185.831 136.72 186.339 137.172 186.791 137.849C188.428 139.938 189.049 141.518 189.67 144.059C189.839 144.905 190.065 145.696 190.46 146.486C191.702 148.857 194.186 151.115 197.403 151.679C195.089 149.817 193.903 147.389 193.565 145.583C193.508 145.301 193.508 145.018 193.508 144.736C193.508 143.212 193.565 141.631 192.944 138.753C192.549 137.228 191.984 135.422 190.686 133.051C191.363 133.22 191.928 133.672 192.436 134.237C194.412 136.043 195.258 137.511 196.274 139.938C196.613 140.728 196.895 141.462 197.46 142.196C199.04 144.341 201.863 146.204 205.08 146.26C202.54 144.736 201.016 142.535 200.395 140.785C200.282 140.502 200.226 140.277 200.169 139.995C199.944 138.47 199.718 136.89 198.645 134.18C198.024 132.712 197.234 131.019 195.597 128.93C196.274 128.987 196.895 129.269 197.516 129.777C199.718 131.245 200.79 132.543 202.145 134.801C202.597 135.535 203.048 136.269 203.669 136.89C205.532 138.752 208.637 140.107 211.854 139.656C209.088 138.583 207.226 136.664 206.379 135.027C206.209 134.745 206.097 134.519 206.04 134.237C205.532 132.769 205.08 131.245 203.613 128.761C202.766 127.406 201.693 125.882 199.774 124.019C200.395 124.019 201.073 124.189 201.806 124.584C204.177 125.713 205.476 126.842 207.169 128.817C207.734 129.495 208.242 130.116 208.976 130.624C211.121 132.204 214.395 133.051 217.499 132.148C214.62 131.471 212.475 129.89 211.346 128.366C211.177 128.14 211.008 127.914 210.895 127.688C210.161 126.334 209.54 124.866 207.677 122.608C206.605 121.423 205.306 120.068 203.105 118.544C203.782 118.431 204.459 118.544 205.193 118.769C207.733 119.503 209.145 120.463 211.177 122.156C211.854 122.721 212.475 123.229 213.266 123.624C215.636 124.809 218.967 125.205 221.902 123.793C218.911 123.568 216.596 122.326 215.241 121.027C215.016 120.858 214.846 120.632 214.677 120.406C213.773 119.165 212.87 117.866 210.725 115.947C209.483 114.931 207.959 113.802 205.589 112.616C206.209 112.391 206.887 112.391 207.677 112.504C210.274 112.842 211.854 113.52 214.056 114.931C214.846 115.382 215.524 115.778 216.37 116.06C218.91 116.85 222.297 116.681 224.95 114.818C221.959 115.1 219.475 114.253 217.951 113.181L217.273 112.673C216.201 111.6 215.128 110.415 212.645 108.834C211.29 108.044 209.653 107.141 207.056 106.407C207.621 106.068 208.354 105.955 209.088 105.955C211.798 105.843 213.435 106.294 215.806 107.31C216.652 107.649 217.386 107.931 218.29 108.1C220.886 108.496 224.217 107.818 226.531 105.56C223.652 106.294 221.056 105.843 219.362 104.996C219.136 104.883 218.854 104.77 218.628 104.601C217.386 103.697 216.145 102.738 213.492 101.552C212.024 100.988 210.217 100.367 207.564 99.9717C208.072 99.5767 208.75 99.351 209.54 99.238C212.137 98.73 213.83 98.8993 216.37 99.5203C217.217 99.746 218.007 99.9153 218.911 99.9153C221.564 99.9153 224.725 98.6733 226.701 96.1333C223.935 97.2623 221.281 97.2623 219.531 96.6977C219.249 96.641 218.967 96.5283 218.741 96.4153C217.33 95.738 215.975 94.9477 213.153 94.214C211.572 93.8753 209.766 93.5367 207.056 93.593C207.508 93.085 208.129 92.803 208.863 92.577C211.403 91.617 213.096 91.5607 215.693 91.7303C216.596 91.843 217.386 91.8997 218.289 91.7303C220.886 91.335 223.822 89.6417 225.346 86.7627C222.806 88.3433 220.209 88.7383 218.346 88.5127C218.064 88.456 217.782 88.3997 217.499 88.2867C216.032 87.8353 214.564 87.2707 211.685 86.9883C210.104 86.9317 208.185 86.8757 205.588 87.3837C205.927 86.819 206.492 86.3673 207.226 86.0287C209.54 84.7303 211.177 84.392 213.774 84.166C214.677 84.1093 215.467 84.053 216.314 83.7707C218.854 82.924 221.507 80.8353 222.523 77.7307C220.322 79.7063 217.782 80.4967 215.919 80.5533C215.636 80.5533 215.354 80.5533 215.072 80.4967C213.548 80.271 211.967 79.9323 209.088 80.158C207.508 80.271 205.645 80.5533 203.105 81.4563C203.387 80.8353 203.895 80.3273 204.516 79.8757C206.605 78.239 208.185 77.618 210.725 76.997C211.629 76.8277 212.362 76.6017 213.209 76.2067C215.524 74.9647 217.838 72.481 218.402 69.2633C216.483 71.5777 214.112 72.7633 212.249 73.102C211.967 73.1583 211.685 73.1583 211.403 73.1583C209.879 73.1583 208.298 73.1017 205.476 73.723C203.895 74.118 202.089 74.6823 199.774 75.9807C199.944 75.3033 200.339 74.739 200.903 74.2307C202.71 72.255 204.177 71.4083 206.605 70.3923C207.451 70.0537 208.185 69.7713 208.919 69.207C211.008 67.6263 212.87 64.8037 212.927 61.5863C211.403 64.1263 209.258 65.6507 207.508 66.2717C207.226 66.3843 206.943 66.441 206.661 66.4973C205.137 66.7797 203.556 66.949 200.847 68.0213C199.435 68.6423 197.742 69.4327 195.597 71.0697C195.653 70.4487 195.992 69.7713 196.444 69.1503C197.911 66.949 199.266 65.8763 201.468 64.5217C202.258 64.07 202.935 63.6183 203.556 62.9973C205.419 61.1347 206.83 58.03 206.379 54.8123C205.25 57.5783 203.331 59.441 201.693 60.3443C201.468 60.4573 201.185 60.57 200.96 60.6267C199.492 61.1347 197.968 61.5863 195.428 63.054C194.073 63.9007 192.549 64.9733 190.686 66.8923C190.686 66.2717 190.912 65.594 191.25 64.9167C192.379 62.4893 193.508 61.2477 195.484 59.4977C196.161 58.933 196.782 58.425 197.347 57.691C198.871 55.546 199.774 52.272 198.815 49.1677C198.137 52.0463 196.557 54.1913 195.089 55.3203C194.863 55.4897 194.637 55.659 194.355 55.772C193 56.5057 191.533 57.1267 189.331 58.9897C188.089 60.062 186.734 61.3603 185.267 63.562C185.097 62.941 185.21 62.2073 185.493 61.4733C186.226 58.9333 187.129 57.522 188.823 55.49C189.388 54.8123 189.952 54.2477 190.347 53.401C191.533 51.0303 191.871 47.6997 190.46 44.7643C190.291 47.756 189.049 50.0707 187.75 51.4253C187.525 51.651 187.355 51.8203 187.13 51.99C185.888 52.8933 184.533 53.7963 182.614 55.9977Z" fill="#FFFF00" />
</svg>