<svg width="400" height="200" viewBox="0 0 400 200" fill="none"
    xmlns="http://www.w3.org/2000/svg">
    <g clip-path="url(#clip0_5_3712)">
        <g>
            <path d="M30 90H46.6667V170H30V90ZM86.6667 90H103.333V170H86.6667V90ZM50 160L66.6667 170L83.3333 160H50ZM50 150H83.3333V156.667H50V150ZM50 90L66.6667 100L83.3333 90H50ZM50 103.333H83.3333V110H50V103.333ZM74.5832 115.351C75.8232 117.036 76.4937 119.073 76.4972 121.165C76.4997 126.597 72.0975 131.001 66.6665 131.002C64.5893 131.003 62.5973 131.828 61.1285 133.297C59.6597 134.765 58.8344 136.757 58.8342 138.835C58.8345 140.912 59.6598 142.904 61.1286 144.372C62.5974 145.841 64.5894 146.666 66.6665 146.667C75.8708 146.667 83.3332 139.205 83.3332 130C83.3332 123.881 79.9672 118.258 74.5832 115.351ZM66.6665 135.501C67.5506 135.501 68.3984 135.853 69.0235 136.478C69.6486 137.103 69.9998 137.951 69.9998 138.835C69.9998 139.719 69.6486 140.567 69.0235 141.192C68.3984 141.817 67.5506 142.168 66.6665 142.168C65.7824 142.168 64.9346 141.817 64.3095 141.192C63.6844 140.567 63.3332 139.719 63.3332 138.835C63.3332 137.951 63.6844 137.103 64.3095 136.478C64.9346 135.853 65.7824 135.501 66.6665 135.501Z" fill="#FFD900"/>
            <path d="M58.7498 144.649C57.5098 142.964 56.8393 140.927 56.8358 138.835C56.8333 133.404 61.2355 128.999 66.6665 128.998C68.7437 128.998 70.7357 128.173 72.2045 126.704C73.6733 125.235 74.4986 123.243 74.4988 121.166C74.4985 119.089 73.6732 117.097 72.2044 115.628C70.7356 114.159 68.7436 113.334 66.6665 113.334C57.4622 113.334 49.9998 120.796 49.9998 130C49.9998 136.119 53.3658 141.743 58.7498 144.649ZM66.6665 124.499C65.7825 124.499 64.9346 124.148 64.3095 123.523C63.6844 122.898 63.3332 122.05 63.3332 121.166C63.3332 120.282 63.6844 119.434 64.3095 118.809C64.9346 118.184 65.7825 117.832 66.6665 117.832C67.5506 117.832 68.3984 118.184 69.0235 118.809C69.6487 119.434 69.9998 120.282 69.9998 121.166C69.9998 122.05 69.6487 122.898 69.0235 123.523C68.3984 124.148 67.5506 124.499 66.6665 124.499ZM48.3663 67.9688C48.354 68.0903 48.3429 68.212 48.333 68.3338C48.333 73.1961 50.2646 77.8592 53.7027 81.2974C57.1409 84.7356 61.804 86.6671 66.6663 86.6671C71.5286 86.6671 76.1918 84.7356 79.63 81.2974C83.0681 77.8592 84.9997 73.1961 84.9997 68.3338C85.0007 68.2227 85.0007 68.1116 84.9997 68.0004C83.4435 71.5653 80.8817 74.599 77.6277 76.7301C74.3738 78.8613 70.569 79.9973 66.6793 79.9991C62.7871 79.9932 58.9812 78.8517 55.7282 76.7147C52.4752 74.5776 49.9165 71.5377 48.3657 67.9678L48.3663 67.9688Z" fill="#FFD900"/>
            <path d="M66.68 76.6667C74.0438 76.6667 80.0133 70.6971 80.0133 63.3333C80.0133 55.9695 74.0438 50 66.68 50C59.3162 50 53.3467 55.9695 53.3467 63.3333C53.3467 70.6971 59.3162 76.6667 66.68 76.6667Z" fill="#FFD900"/>
            <path d="M68.0673 20.0044C66.4107 20.7561 65.7917 22.1114 65.6583 23.4614C65.575 24.5981 66.0767 25.8784 66.1267 26.9901C66.1267 28.9031 64.1473 29.5331 64.1473 32.2634C64.1473 33.2017 65.014 34.2357 65.014 36.6711C64.864 37.9494 64.1507 38.2377 63.3473 38.3377C62.9053 38.3377 62.4814 38.1621 62.1688 37.8496C61.8563 37.537 61.6807 37.1131 61.6807 36.6711C61.6819 36.2438 61.8472 35.8333 62.1423 35.5244C62.195 35.4649 62.2518 35.4092 62.3123 35.3577C62.6923 34.9744 63.214 34.8261 63.2107 33.8144C63.2107 33.2944 62.874 32.8211 62.5523 31.9004C62.249 31.0071 62.469 29.5137 63.1907 28.6321C62.024 29.0821 61.305 30.2004 60.9383 31.2037C60.5517 32.4371 60.8883 33.1474 60.3583 34.1724C60.035 34.8357 59.65 35.1107 59.285 35.6641C58.8533 36.2674 58.3467 37.6784 58.3467 38.3334C58.3467 39.4277 58.5622 40.5114 58.981 41.5224C59.3998 42.5335 60.0136 43.4521 60.7875 44.226C61.5613 44.9998 62.4799 45.6136 63.491 46.0324C64.502 46.4512 65.5857 46.6667 66.68 46.6667C68.8902 46.6667 71.0098 45.7888 72.5726 44.226C74.1354 42.6631 75.0133 40.5435 75.0133 38.3334C75.0133 37.6784 74.5133 36.2674 74.0817 35.6641C73.7167 35.1107 73.325 34.8357 73.0017 34.1724C72.4783 33.1474 72.815 32.4371 72.4283 31.2037C72.0617 30.2004 71.3417 29.0824 70.1757 28.6321C70.8973 29.5137 71.1173 31.0071 70.814 31.9004C70.4907 32.8204 70.1507 33.2937 70.1507 33.8144C70.1507 34.8261 70.669 34.9744 71.049 35.3577C71.1096 35.4092 71.1664 35.4649 71.219 35.5244C71.5142 35.8333 71.6795 36.2438 71.6807 36.6711C71.6807 37.1131 71.5051 37.537 71.1925 37.8496C70.88 38.1621 70.456 38.3377 70.014 38.3377C69.0923 38.2211 68.4307 37.7911 68.3473 36.6711C68.3473 33.4624 69.7207 33.2577 69.7207 30.8834C69.7207 27.4931 66.6803 25.8881 66.6803 23.4094C66.6803 22.5694 66.877 21.1377 68.067 20.0044H68.0673Z" fill="#FFD900"/>
        </g>
    </g>
    <defs>
        <clipPath id="clip0_5_3712">
            <rect width="400" height="200" fill="white"/>
        </clipPath>
    </defs>
</svg>
