<svg width="400" height="200" viewBox="0 0 400 200" fill="none" xmlns="http://www.w3.org/2000/svg">
<g clip-path="url(#clip0_5_11952)">

<path d="M193.333 130C209.902 130 223.333 116.569 223.333 100C223.333 83.4315 209.902 70 193.333 70C176.764 70 163.333 83.4315 163.333 100C163.333 116.569 176.764 130 193.333 130Z" fill="white"/>
<path d="M200 125C213.807 125 225 113.807 225 100C225 86.1929 213.807 75 200 75C186.193 75 175 86.1929 175 100C175 113.807 186.193 125 200 125Z" fill="#ED2939"/>
<path d="M226.667 83.3334L229.856 92.301L238.452 88.215L234.366 96.811L243.333 100L234.366 103.189L238.452 111.785L229.856 107.699L226.667 116.667L223.478 107.699L214.882 111.785L218.968 103.189L210 100L218.968 96.811L214.882 88.215L223.478 92.301L226.667 83.3334Z" fill="white"/>
</g>
<defs>
<clipPath id="clip0_5_11952">
<rect width="400" height="200" fill="white"/>
</clipPath>
</defs>
</svg>