<svg xmlns="http://www.w3.org/2000/svg" viewBox="0 0 300 200">
    <path d="M57.9678 19.54C62.6357 20.1531 67.3638 20.1531 72.0318 19.54C69.3219 33.0454 69.3219 46.9546 72.0318 60.46C67.3638 59.8469 62.6357 59.8469 57.9678 60.46C60.6777 46.9546 60.6777 33.0454 57.9678 19.54Z" fill="#FF0000"/>
    <path d="M85.46 32.968C84.8469 37.636 84.8469 42.3641 85.46 47.032C71.9546 44.3221 58.0454 44.3221 44.54 47.032C45.1531 42.3641 45.1531 37.636 44.54 32.968C58.0454 35.6779 71.9546 35.6779 85.46 32.968Z" fill="#FF0000"/>
    <path d="M227.968 19.54C232.636 20.1531 237.364 20.1531 242.032 19.54C239.322 33.0454 239.322 46.9546 242.032 60.46C237.364 59.8469 232.636 59.8469 227.968 60.46C230.678 46.9546 230.678 33.0454 227.968 19.54Z" fill="#FF0000"/>
    <path d="M255.46 32.968C254.847 37.636 254.847 42.3641 255.46 47.032C241.955 44.3221 228.045 44.3221 214.54 47.032C215.153 42.3641 215.153 37.636 214.54 32.968C228.045 35.6779 241.955 35.6779 255.46 32.968Z" fill="#FF0000"/>
    <path d="M57.9678 139.54C62.6357 140.153 67.3638 140.153 72.0318 139.54C69.3219 153.045 69.3219 166.955 72.0318 180.46C67.3638 179.847 62.6357 179.847 57.9678 180.46C60.6777 166.955 60.6777 153.045 57.9678 139.54Z" fill="#FF0000"/>
    <path d="M85.46 152.968C84.8469 157.636 84.8469 162.364 85.46 167.032C71.9546 164.322 58.0454 164.322 44.54 167.032C45.1531 162.364 45.1531 157.636 44.54 152.968C58.0454 155.678 71.9546 155.678 85.46 152.968Z" fill="#FF0000"/>
    <path d="M227.968 139.54C232.636 140.153 237.364 140.153 242.032 139.54C239.322 153.045 239.322 166.955 242.032 180.46C237.364 179.847 232.636 179.847 227.968 180.46C230.678 166.955 230.678 153.045 227.968 139.54Z" fill="#FF0000"/>
    <path d="M255.46 152.968C254.847 157.636 254.847 162.364 255.46 167.032C241.955 164.322 228.045 164.322 214.54 167.032C215.153 162.364 215.153 157.636 214.54 152.968C228.045 155.678 241.955 155.678 255.46 152.968Z" fill="#FF0000"/>
</svg>