<svg xmlns="http://www.w3.org/2000/svg" viewBox="0 0 165 200"><path d="M40.3051 91.9102C55.4347 91.9102 67.6989 79.646 67.6989 64.5164C65.3168 70.5778 60.9861 75.6746 55.3889 79.0041L53.0507 77.262L57.6354 73.8234L52.0879 72.4021L55.0221 67.4277L49.2912 68.2529L50.1394 62.5679L45.1649 65.5479L43.7437 59.9316L40.3051 64.5164L36.8666 59.9316L35.4224 65.525L30.4708 62.5908L31.319 68.3217L25.5881 67.4735L28.5682 72.448L22.9748 73.8692L27.5595 77.3078L25.2672 79.0729C19.8343 75.8636 15.41 70.9121 12.9342 64.5852C12.9342 79.7148 25.1984 91.979 40.328 91.979L40.3051 91.9102ZM27.1011 132.256L14.814 130.743L22.2642 140.6L10.8711 145.46L22.2642 150.274L14.814 160.131L27.1011 158.618L25.5881 170.928L35.4453 163.478L40.3051 174.894L45.1191 163.478L55.0221 170.951L53.5092 158.664L65.7962 160.2L58.346 150.343L69.7391 145.529L58.346 140.669L65.7962 130.812L53.5092 132.302L55.0221 120.015L45.1649 127.465L40.3051 116.026L35.4911 127.419L25.5881 119.969L27.1011 132.256Z" fill="white" />
</svg>