<svg width="1000" height="600" viewBox="0 0 1000 600" fill="none" xmlns="http://www.w3.org/2000/svg">
<path d="M510.5 193.8H531.5L521 212L531.5 230.2H510.5L500 248.4L489.5 230.2H468.5L479 212L468.5 193.8H489.5L500 175.6L510.5 193.8Z" fill="#CE1126"/>
<path d="M434.3 325.8H455.3L444.8 344L455.3 362.2H434.3L423.8 380.4L413.3 362.2H392.3L402.8 344L392.3 325.8H413.3L423.8 307.6L434.3 325.8Z" fill="#CE1126"/>
<path d="M586.7 325.8H607.7L597.2 344L607.7 362.2H586.7L576.2 380.4L565.7 362.2H544.7L555.2 344L544.7 325.8H565.7L576.2 307.6L586.7 325.8Z" fill="#CE1126"/>
<path d="M510.5 193.8H531.5L521 212L531.5 230.2H510.5L500 248.4L489.5 230.2H468.5L479 212L468.5 193.8H489.5L500 175.6L510.5 193.8Z" stroke="#1EB53A" stroke-width="1.2"/>
<path d="M434.3 325.8H455.3L444.8 344L455.3 362.2H434.3L423.8 380.4L413.3 362.2H392.3L402.8 344L392.3 325.8H413.3L423.8 307.6L434.3 325.8Z" stroke="#1EB53A" stroke-width="1.2"/>
<path d="M586.7 325.8H607.7L597.2 344L607.7 362.2H586.7L576.2 380.4L565.7 362.2H544.7L555.2 344L544.7 325.8H565.7L576.2 307.6L586.7 325.8Z" stroke="#1EB53A" stroke-width="1.2"/>
</svg>
