<svg width="300" height="200" viewBox="0 0 300 200" fill="none"
    xmlns="http://www.w3.org/2000/svg">
    <g clip-path="url(#clip0_5_6249)">

        <path d="M114.276 159.375L116.441 160.625L174.832 59.4888C178.248 58.5737 180.123 55.3261 181.998 52.0785C183.248 49.9135 188.248 41.2532 190.414 30.0002C181.752 37.5032 176.752 46.1635 175.502 48.3285C173.627 51.5761 171.752 54.8237 172.667 58.2388L114.276 159.375Z" fill="black"/>
        <path d="M114.276 159.375L116.441 160.625L174.832 59.4888C178.248 58.5737 180.123 55.3261 181.998 52.0785C183.248 49.9135 188.248 41.2532 190.414 30.0002C181.752 37.5032 176.752 46.1635 175.502 48.3285C173.627 51.5761 171.752 54.8237 172.667 58.2388L114.276 159.375Z" fill="white"/>
        <path d="M185.724 159.375L183.559 160.625L125.167 59.4888C121.752 58.5737 119.877 55.3261 118.002 52.0785C116.752 49.9135 111.752 41.2532 109.586 30.0002C118.248 37.5032 123.248 46.1635 124.498 48.3285C126.373 51.5761 128.248 54.8237 127.332 58.2388L185.724 159.375Z" fill="black"/>
        <path d="M185.724 159.375L183.559 160.625L125.167 59.4888C121.752 58.5737 119.877 55.3261 118.002 52.0785C116.752 49.9135 111.752 41.2532 109.586 30.0002C118.248 37.5032 123.248 46.1635 124.498 48.3285C126.373 51.5761 128.248 54.8237 127.332 58.2388L185.724 159.375Z" fill="white"/>
        <path d="M126.25 130C130 140 142.5 160 150 160C157.5 160 170 140 173.75 130V70C170 60 157.5 40 150 40C142.5 40 130 60 126.25 70V130Z" fill="#BB0000"/>
        <path d="M173.75 130C177.5 120 180 110 180 100C180 90 177.5 80 173.75 70C170 80 167.5 90 167.5 100C167.5 110 170 120 173.75 130Z" fill="black"/>
        <path d="M126.25 130C122.5 120 120 110 120 100C120 90 122.5 80 126.25 70C130 80 132.5 90 132.5 100C132.5 110 130 120 126.25 130Z" fill="black"/>
        <path d="M150 107.5C152.761 107.5 155 104.142 155 100C155 95.8579 152.761 92.5 150 92.5C147.239 92.5 145 95.8579 145 100C145 104.142 147.239 107.5 150 107.5Z" fill="white"/>
        <path d="M151.25 107.312C151.25 107.312 156.25 117.312 156.25 133.562C156.25 149.812 151.25 159.812 151.25 159.812V107.312Z" fill="white"/>
        <path d="M148.75 92.6875C148.75 92.6875 143.75 82.6875 143.75 66.4375C143.75 50.1875 148.75 40.1875 148.75 40.1875V92.6875Z" fill="white"/>
        <path d="M148.75 107.312C148.75 107.312 143.75 117.312 143.75 133.562C143.75 149.812 148.75 159.812 148.75 159.812V107.312Z" fill="white"/>
        <path d="M151.25 92.6875C151.25 92.6875 156.25 82.6875 156.25 66.4375C156.25 50.1875 151.25 40.1875 151.25 40.1875V92.6875Z" fill="white"/>
    </g>
    <defs>
        <clipPath id="clip0_5_6249">
            <rect width="300" height="200" fill="white"/>
        </clipPath>
    </defs>
</svg>
