<svg xmlns="http://www.w3.org/2000/svg" viewBox="0 0 334 200"><g><path d="M166.667 124C179.922 124 190.667 113.255 190.667 100C190.667 86.7452 179.922 76 166.667 76C153.412 76 142.667 86.7452 142.667 100C142.667 113.255 153.412 124 166.667 124Z" fill="#CE1126" />
        <path d="M166.667 78L159.869 98.9232L170.33 102.322" fill="#FCD116" />
        <path d="M166.667 78L173.465 98.9232L163.004 102.322" fill="#FCD116" />
        <path d="M187.59 93.2017H165.59V104.202" fill="#FCD116" />
        <path d="M187.59 93.2017L169.791 106.133L163.326 97.2337" fill="#FCD116" />
        <path d="M179.598 117.799L172.799 96.8756L162.338 100.275" fill="#FCD116" />
        <path d="M179.598 117.799L161.799 104.868L168.265 95.9684" fill="#FCD116" />
        <path d="M153.735 117.798L171.534 104.867L165.068 95.9679" fill="#FCD116" />
        <path d="M153.735 117.798L160.534 96.8751L170.995 100.274" fill="#FCD116" />
        <path d="M145.743 93.2017L163.542 106.133L170.007 97.2337" fill="#FCD116" />
        <path d="M145.743 93.2017H167.743V104.202" fill="#FCD116" />
        <path d="M99.999 1L95.9818 13.3637L102.164 15.3723" fill="#FCD116" />
        <path d="M99.999 1L104.016 13.3637L97.8344 15.3723" fill="#FCD116" />
        <path d="M112.363 9.98291H99.3633V16.4829" fill="#FCD116" />
        <path d="M112.363 9.98291L101.846 17.6241L98.0255 12.3655" fill="#FCD116" />
        <path d="M107.641 24.5176L103.623 12.1538L97.4415 14.1625" fill="#FCD116" />
        <path d="M107.641 24.5176L97.1234 16.8764L100.944 11.6178" fill="#FCD116" />
        <path d="M92.3584 24.5171L102.876 16.8759L99.055 11.6173" fill="#FCD116" />
        <path d="M92.3584 24.5171L96.3756 12.1534L102.557 14.162" fill="#FCD116" />
        <path d="M87.6357 9.98291L98.153 17.6241L101.974 12.3655" fill="#FCD116" />
        <path d="M87.6357 9.98291H100.636V16.4829" fill="#FCD116" />
        <path d="M166.666 1L162.649 13.3637L168.831 15.3723" fill="#FCD116" />
        <path d="M166.666 1L170.683 13.3637L164.501 15.3723" fill="#FCD116" />
        <path d="M179.03 9.98291H166.03V16.4829" fill="#FCD116" />
        <path d="M179.03 9.98291L168.513 17.6241L164.692 12.3655" fill="#FCD116" />
        <path d="M174.308 24.5176L170.29 12.1538L164.109 14.1625" fill="#FCD116" />
        <path d="M174.308 24.5176L163.79 16.8764L167.611 11.6178" fill="#FCD116" />
        <path d="M159.025 24.5171L169.543 16.8759L165.722 11.6173" fill="#FCD116" />
        <path d="M159.025 24.5171L163.043 12.1534L169.224 14.162" fill="#FCD116" />
        <path d="M154.303 9.98291L164.82 17.6241L168.641 12.3655" fill="#FCD116" />
        <path d="M154.303 9.98291H167.303V16.4829" fill="#FCD116" />
        <path d="M233.333 1L229.316 13.3637L235.498 15.3723" fill="#FCD116" />
        <path d="M233.333 1L237.35 13.3637L231.168 15.3723" fill="#FCD116" />
        <path d="M245.697 9.98291H232.697V16.4829" fill="#FCD116" />
        <path d="M245.697 9.98291L235.18 17.6241L231.359 12.3655" fill="#FCD116" />
        <path d="M240.975 24.5176L236.957 12.1538L230.776 14.1625" fill="#FCD116" />
        <path d="M240.975 24.5176L230.457 16.8764L234.278 11.6178" fill="#FCD116" />
        <path d="M225.692 24.5171L236.21 16.8759L232.389 11.6173" fill="#FCD116" />
        <path d="M225.692 24.5171L229.71 12.1534L235.891 14.162" fill="#FCD116" />
        <path d="M220.97 9.98291L231.487 17.6241L235.308 12.3655" fill="#FCD116" />
        <path d="M220.97 9.98291H233.97V16.4829" fill="#FCD116" />
        <path d="M99.999 173L95.9818 185.364L102.164 187.372" fill="#FCD116" />
        <path d="M99.999 173L104.016 185.364L97.8344 187.372" fill="#FCD116" />
        <path d="M112.363 181.983H99.3633V188.483" fill="#FCD116" />
        <path d="M112.363 181.983L101.846 189.624L98.0255 184.366" fill="#FCD116" />
        <path d="M107.641 196.518L103.623 184.154L97.4415 186.162" fill="#FCD116" />
        <path d="M107.641 196.518L97.1234 188.876L100.944 183.618" fill="#FCD116" />
        <path d="M92.3584 196.517L102.876 188.876L99.055 183.617" fill="#FCD116" />
        <path d="M92.3584 196.517L96.3756 184.153L102.557 186.162" fill="#FCD116" />
        <path d="M87.6357 181.983L98.153 189.624L101.974 184.366" fill="#FCD116" />
        <path d="M87.6357 181.983H100.636V188.483" fill="#FCD116" />
        <path d="M166.666 173L162.649 185.364L168.831 187.372" fill="#FCD116" />
        <path d="M166.666 173L170.683 185.364L164.501 187.372" fill="#FCD116" />
        <path d="M179.03 181.983H166.03V188.483" fill="#FCD116" />
        <path d="M179.03 181.983L168.513 189.624L164.692 184.366" fill="#FCD116" />
        <path d="M174.308 196.518L170.29 184.154L164.109 186.162" fill="#FCD116" />
        <path d="M174.308 196.518L163.79 188.876L167.611 183.618" fill="#FCD116" />
        <path d="M159.025 196.517L169.543 188.876L165.722 183.617" fill="#FCD116" />
        <path d="M159.025 196.517L163.043 184.153L169.224 186.162" fill="#FCD116" />
        <path d="M154.303 181.983L164.82 189.624L168.641 184.366" fill="#FCD116" />
        <path d="M154.303 181.983H167.303V188.483" fill="#FCD116" />
        <path d="M233.333 173L229.316 185.364L235.498 187.372" fill="#FCD116" />
        <path d="M233.333 173L237.35 185.364L231.168 187.372" fill="#FCD116" />
        <path d="M245.697 181.983H232.697V188.483" fill="#FCD116" />
        <path d="M245.697 181.983L235.18 189.624L231.359 184.366" fill="#FCD116" />
        <path d="M240.975 196.518L236.957 184.154L230.776 186.162" fill="#FCD116" />
        <path d="M240.975 196.518L230.457 188.876L234.278 183.618" fill="#FCD116" />
        <path d="M225.692 196.517L236.21 188.876L232.389 183.617" fill="#FCD116" />
        <path d="M225.692 196.517L229.71 184.153L235.891 186.162" fill="#FCD116" />
        <path d="M220.97 181.983L231.487 189.624L235.308 184.366" fill="#FCD116" />
        <path d="M220.97 181.983H233.97V188.483" fill="#FCD116" />
        <path d="M45.166 100.273C48.1687 105.867 54.0093 111.953 59.11 114.093C59.192 108.413 57.1767 101.133 54.4207 95.3335L45.166 100.273Z" fill="#CE1126" />
        <path d="M40.0743 81.0864C44.427 90.1598 28.7856 111.806 54.845 116.88C51.6303 112.493 49.5576 105.253 50.3416 99.4398C55.809 101.52 61.5616 107.606 63.8863 112.26C70.7063 87.4931 46.393 88.9998 40.0743 81.0864Z" fill="#FCD116" />
    </g></svg>