<svg width="334" height="200" viewBox="0 0 334 200" fill="none"
    xmlns="http://www.w3.org/2000/svg">
    <g clip-path="url(#clip0_5_6395)">
        <g>
            <path d="M56.667 145C81.5198 145 101.667 124.853 101.667 100C101.667 75.1472 81.5198 55 56.667 55C31.8142 55 11.667 75.1472 11.667 100C11.667 124.853 31.8142 145 56.667 145Z" fill="white"/>
            <path d="M76.667 145C101.52 145 121.667 124.853 121.667 100C121.667 75.1472 101.52 55 76.667 55C51.8142 55 31.667 75.1472 31.667 100C31.667 124.853 51.8142 145 76.667 145Z" fill="#3D8E33"/>
            <path d="M66.6732 59.4667L71.5799 74.5253L58.7412 65.226H74.5919L61.7532 74.5253L66.6732 59.4667Z" fill="white"/>
            <path d="M66.6732 80.9387L71.5799 95.9973L58.7412 86.698H74.5919L61.7532 95.9973L66.6732 80.9387Z" fill="white"/>
            <path d="M66.6732 102.411L71.5799 117.47L58.7412 108.171H74.5919L61.7532 117.47L66.6732 102.411Z" fill="white"/>
            <path d="M66.6732 123.883L71.5799 138.942L58.7412 129.643H74.5919L61.7532 138.942L66.6732 123.883Z" fill="white"/>
        </g>
    </g>
    <defs>
        <clipPath id="clip0_5_6395">
            <rect width="333.333" height="200" fill="white"/>
        </clipPath>
    </defs>
</svg>
