<svg width="400" height="200" viewBox="0 0 400 200" fill="none"
    xmlns="http://www.w3.org/2000/svg">
    <g clip-path="url(#clip0_5_10048)">
        <path d="M2.22266 0H46.6671V200H2.22266V0Z" fill="white"/>
        <path d="M25.4221 0V7.24444H23.4666V0H25.4221ZM0.444336 12.6667H3.95545V9.77778H5.73322V6.26667H8.22211V3.2H10.2666V0H16.4443V3.2H18.4443V6.26667H20.9332V9.77778H22.711V12.6667H25.4221V17.1556H22.711V20.0444H20.9332V23.5556H18.4443V26.6222H16.4443V29.9111H15.0221V32.6667H11.6888V29.9111H10.2666V26.6222H8.22211V23.5556H5.73322V20.0444H3.95545V17.1556H0.444336M0.444336 1.51111H3.95545V5.51111H0.444336M14.2221 6.71111H12.3999V9.42222H10.6666V12.8444H8.97767V17.0667H10.6666V20.4889H12.3999V23.1556H14.2221V20.4889H15.9554V17.0667H17.6888V12.8444H15.9554V9.42222H14.2221V6.71111ZM14.3999 12.8889V16.8889H12.2221V12.8889H14.3999ZM0.444336 23.3778H3.95545V27.6889H0.444336M25.4221 23.7778V29.8667H23.4666V23.7778H25.4221ZM20.6221 30.5333V33.5556H22.7554V36.6667H25.4221V40.7556H22.7554V43.9111H20.6221V46.9333H18.1332V43.9111H15.9999V40.7556H14.2221V36.6667H15.9999V33.5556H18.1332V30.5333H20.6221ZM0.444336 36.6667H3.95545V33.5556H6.08878V30.5333H8.53323V33.5556H10.6666V36.6667H12.4443V40.7556H10.6666V43.9111H8.53323V46.9333H6.08878V43.9111H3.95545V40.7556H0.444336M20.311 36.7556H18.4888V40.6222H20.311V36.7556ZM8.26656 36.7556H6.44434V40.6222H8.26656V36.7556ZM8.97767 100.8V98.7111H7.46656V95.5556H5.46656V93.6444H3.95545V90.5778H0.444336V83.4667H3.95545V85.5111H5.46656V88.4889H7.46656V92.0444H10.311V88.8444H12.3999V86.4889H13.911V83.6889H15.911V80.7111H17.3777V77.6889H18.7999V74.5778H20.711V70.4H18.1777V66.6222H15.4221V64.3556H10.7999V67.6444H13.4666V70.6222H11.6888V74.2667H9.59989V77.4667H6.97767V74.2667H4.79989V70.6222H3.46656V67.6444H0.444336V62H3.95545V58.3556H5.28878V55.5556H6.53323V52.3556H8.311V49.2H10.0443V47.1111H12.1332V43.9556H14.6666V47.1111H16.7554V49.2H18.5332V52.3556H20.2666V55.5556H21.6888V58.3111H23.111V60.7111H25.4221V78.3556H22.7999V81.3333H22.0443V84.4444H20.0888V87.4667H18.8888V89.6889H17.6443V92.0444H15.511V94.3556H12.4443V100.8M25.4221 46.8889V52.9778H23.4666V46.8889H25.4221ZM0.444336 48.0444H3.95545V52.3556H0.444336M0.444336 73.9556H3.95545V78.2667H0.444336V73.9556ZM25.3332 84.8889V88.8H23.4666V84.8889H25.3332ZM22.7554 100.8V98.3556H21.5999V96.4445H19.911V90.7111H21.5999V93.0222H23.3777V96.4H25.3332V100.756M15.8221 100.756V97.9111H17.6888V100.756" fill="#CE1720"/>
        <path d="M23.4666 0V7.24444H25.4221V0H23.4666ZM48.4443 12.6667H44.9332V9.77778H43.1554V6.26667H40.6666V3.2H38.6221V0H32.4443V3.2H30.4443V6.26667H27.9554V9.77778H26.1777V12.6667H23.4666V17.1556H26.1777V20.0444H27.9554V23.5556H30.4443V26.6222H32.4443V29.9111H33.8666V32.6667H37.1999V29.9111H38.6221V26.6222H40.6666V23.5556H43.1554V20.0444H44.9332V17.1556H48.4443M48.4443 1.51111H44.9332V5.51111H48.4443M34.6666 6.71111H36.4888V9.42222H38.2221V12.8444H39.911V17.0667H38.2221V20.4889H36.4888V23.1556H34.6666V20.4889H32.9332V17.0667H31.1999V12.8444H32.9332V9.42222H34.6666V6.71111ZM34.4888 12.8889V16.8889H36.6666V12.8889H34.4888ZM48.4443 23.3778H44.9332V27.6889H48.4443M23.4666 23.7778V29.8667H25.4221V23.7778H23.4666ZM28.2666 30.5333V33.5556H26.1332V36.6667H23.4666V40.7556H26.1332V43.9111H28.2666V46.9333H30.7554V43.9111H32.8888V40.7556H34.6666V36.6667H32.8888V33.5556H30.7554V30.5333H28.2666ZM48.4443 36.6667H44.9332V33.5556H42.7999V30.5333H40.3554V33.5556H38.2221V36.6667H36.4443V40.7556H38.2221V43.9111H40.3554V46.9333H42.7999V43.9111H44.9332V40.7556H48.4443M28.5777 36.7556H30.3999V40.6222H28.5777V36.7556ZM40.6221 36.7556H42.4443V40.6222H40.6221V36.7556ZM39.911 100.8V98.7111H41.4221V95.5556H43.4221V93.6444H44.9332V90.5778H48.4443V83.4667H44.9332V85.5111H43.4221V88.4889H41.4221V92.0444H38.5777V88.8444H36.4888V86.4889H34.9777V83.6889H32.9777V80.7111H31.511V77.6889H30.0888V74.5778H28.1777V70.4H30.711V66.6222H33.4666V64.3556H38.0888V67.6444H35.4221V70.6222H37.1999V74.2667H39.2888V77.4667H41.911V74.2667H44.0888V70.6222H45.4221V67.6444H48.4443V62H44.9332V58.3556H43.5999V55.5556H42.3554V52.3556H40.5777V49.2H38.8443V47.1111H36.7554V43.9556H34.2221V47.1111H32.1332V49.2H30.3554V52.3556H28.6221V55.5556H27.1999V58.3111H25.7777V60.7111H23.4666V78.3556H26.0888V81.3333H26.8443V84.4444H28.7999V87.4667H29.9999V89.6889H31.2443V92.0444H33.3777V94.3556H36.4443V100.8M23.4666 46.8889V52.9778H25.4221V46.8889H23.4666ZM48.4443 48.0444H44.9332V52.3556H48.4443M48.4443 73.9556H44.9332V78.2667H48.4443V73.9556ZM23.5554 84.8889V88.8H25.4221V84.8889H23.5554ZM26.1332 100.8V98.3556H27.2888V96.4445H28.9777V90.7111H27.2888V93.0222H25.511V96.4H23.5554V100.756M33.0666 100.756V97.9111H31.1999V100.756" fill="#CE1720"/>
        <path d="M25.4221 200V192.756H23.4666V200H25.4221ZM0.444336 187.333H3.95545V190.222H5.73322V193.733H8.22211V196.8H10.2666V200H16.4443V196.8H18.4443V193.733H20.9332V190.222H22.711V187.333H25.4221V182.844H22.711V179.956H20.9332V176.444H18.4443V173.378H16.4443V170.089H15.0221V167.333H11.6888V170.089H10.2666V173.378H8.22211V176.444H5.73322V179.956H3.95545V182.844H0.444336M0.444336 198.489H3.95545V194.489H0.444336M14.2221 193.289H12.3999V190.578H10.6666V187.156H8.97767V182.933H10.6666V179.511H12.3999V176.844H14.2221V179.511H15.9554V182.933H17.6888V187.156H15.9554V190.578H14.2221V193.289ZM14.3999 187.111V183.111H12.2221V187.111H14.3999ZM0.444336 176.622H3.95545V172.311H0.444336M25.4221 176.222V170.133H23.4666V176.222H25.4221ZM20.6221 169.467V166.444H22.7554V163.333H25.4221V159.244H22.7554V156.089H20.6221V153.067H18.1332V156.089H15.9999V159.244H14.2221V163.333H15.9999V166.444H18.1332V169.467H20.6221ZM0.444336 163.333H3.95545V166.444H6.08878V169.467H8.53323V166.444H10.6666V163.333H12.4443V159.244H10.6666V156.089H8.53323V153.067H6.08878V156.089H3.95545V159.244H0.444336M20.311 163.244H18.4888V159.378H20.311V163.244ZM8.26656 163.244H6.44434V159.378H8.26656V163.244ZM8.97767 99.2V101.289H7.46656V104.444H5.46656V106.356H3.95545V109.422H0.444336V116.533H3.95545V114.489H5.46656V111.511H7.46656V107.956H10.311V111.156H12.3999V113.511H13.911V116.311H15.911V119.289H17.3777V122.311H18.7999V125.422H20.711V129.6H18.1777V133.378H15.4221V135.644H10.7999V132.356H13.4666V129.378H11.6888V125.733H9.59989V122.533H6.97767V125.733H4.79989V129.378H3.46656V132.356H0.444336V138H3.95545V141.644H5.28878V144.444H6.53323V147.644H8.311V150.8H10.0443V152.889H12.1332V156.044H14.6666V152.889H16.7554V150.8H18.5332V147.644H20.2666V144.444H21.6888V141.689H23.111V139.289H25.4221V121.644H22.7999V118.667H22.0443V115.556H20.0888V112.533H18.8888V110.311H17.6443V107.956H15.511V105.644H12.4443V99.2M25.4221 153.111V147.022H23.4666V153.111H25.4221ZM0.444336 151.956H3.95545V147.644H0.444336M0.444336 126.044H3.95545V121.733H0.444336V126.044ZM25.3332 115.111V111.2H23.4666V115.111H25.3332ZM22.7554 99.2V101.644H21.5999V103.556H19.911V109.289H21.5999V106.978H23.3777V103.6H25.3332V99.2444M15.8221 99.2444V102.089H17.6888V99.2444" fill="#CE1720"/>
        <path d="M23.4666 200V192.756H25.4221V200H23.4666ZM48.4443 187.333H44.9332V190.222H43.1554V193.733H40.6666V196.8H38.6221V200H32.4443V196.8H30.4443V193.733H27.9554V190.222H26.1777V187.333H23.4666V182.844H26.1777V179.956H27.9554V176.444H30.4443V173.378H32.4443V170.089H33.8666V167.333H37.1999V170.089H38.6221V173.378H40.6666V176.444H43.1554V179.956H44.9332V182.844H48.4443M48.4443 198.489H44.9332V194.489H48.4443M34.6666 193.289H36.4888V190.578H38.2221V187.156H39.911V182.933H38.2221V179.511H36.4888V176.844H34.6666V179.511H32.9332V182.933H31.1999V187.156H32.9332V190.578H34.6666V193.289ZM34.4888 187.111V183.111H36.6666V187.111H34.4888ZM48.4443 176.622H44.9332V172.311H48.4443M23.4666 176.222V170.133H25.4221V176.222H23.4666ZM28.2666 169.467V166.444H26.1332V163.333H23.4666V159.244H26.1332V156.089H28.2666V153.067H30.7554V156.089H32.8888V159.244H34.6666V163.333H32.8888V166.444H30.7554V169.467H28.2666ZM48.4443 163.333H44.9332V166.444H42.7999V169.467H40.3554V166.444H38.2221V163.333H36.4443V159.244H38.2221V156.089H40.3554V153.067H42.7999V156.089H44.9332V159.244H48.4443M28.5777 163.244H30.3999V159.378H28.5777V163.244ZM40.6221 163.244H42.4443V159.378H40.6221V163.244ZM39.911 99.2V101.289H41.4221V104.444H43.4221V106.356H44.9332V109.422H48.4443V116.533H44.9332V114.489H43.4221V111.511H41.4221V107.956H38.5777V111.156H36.4888V113.511H34.9777V116.311H32.9777V119.289H31.511V122.311H30.0888V125.422H28.1777V129.6H30.711V133.378H33.4666V135.644H38.0888V132.356H35.4221V129.378H37.1999V125.733H39.2888V122.533H41.911V125.733H44.0888V129.378H45.4221V132.356H48.4443V138H44.9332V141.644H43.5999V144.444H42.3554V147.644H40.5777V150.8H38.8443V152.889H36.7554V156.044H34.2221V152.889H32.1332V150.8H30.3554V147.644H28.6221V144.444H27.1999V141.689H25.7777V139.289H23.4666V121.644H26.0888V118.667H26.8443V115.556H28.7999V112.533H29.9999V110.311H31.2443V107.956H33.3777V105.644H36.4443V99.2M23.4666 153.111V147.022H25.4221V153.111H23.4666ZM48.4443 151.956H44.9332V147.644H48.4443M48.4443 126.044H44.9332V121.733H48.4443V126.044ZM23.5554 115.111V111.2H25.4221V115.111H23.5554ZM26.1332 99.2V101.644H27.2888V103.556H28.9777V109.289H27.2888V106.978H25.511V103.6H23.5554V99.2444M33.0666 99.2444V102.089H31.1999V99.2444" fill="#CE1720"/>
    </g>
    <defs>
        <clipPath id="clip0_5_10048">
            <rect width="400" height="200" fill="white"/>
        </clipPath>
    </defs>
</svg>
