<?xml version='1.0' encoding='us-ascii'?>
<svg xmlns="http://www.w3.org/2000/svg" width="300" height="200" viewBox="0 0 300 200" fill="none">
    <g clip-path="url(#clip0_5_7029)">
        <path d="M150.269 100.803L173.099 121.997L171.473 83.5056C171.235 77.6721 166.165 79.0105 162.483 81.1148C158.753 83.5056 154.497 83.5056 150.001 81.9271C145.505 83.5056 141.249 83.5056 137.519 81.1147C133.837 79.0106 128.768 77.672 128.529 83.5056L126.902 121.997L150.269 100.803Z" fill="white" stroke="#C09300" stroke-width="0.4234633333333333" stroke-linejoin="round" />
        <path d="M131.155 82.1658L129.577 119.607L126.898 121.996L128.525 83.5051C129.29 82.9791 130.629 82.1658 131.155 82.1658ZM134.362 84.8458L133.023 116.165L130.345 118.905L131.971 82.7408C132.497 83.2665 134.076 84.5575 134.362 84.8442V84.8458ZM137.278 87.2359L136.227 113.357L134.075 115.461L135.414 85.6579C135.939 86.1839 136.991 86.9492 137.278 87.2359ZM140.435 88.5759L139.383 110.839L137.279 112.546L138.331 87.7633C138.857 88.0023 139.909 88.5759 140.435 88.5759ZM143.352 88.5759L142.586 107.129L140.434 109.233L141.248 88.8153C141.773 88.8153 143.112 88.8153 143.352 88.5759Z" fill="#C09300" />
        <path d="M168.843 82.1658L170.421 119.607L173.1 121.996L171.473 83.5051C170.709 82.9791 169.369 82.1658 168.843 82.1658ZM165.636 84.8458L166.975 116.165L169.653 118.905L168.027 82.7408C167.501 83.2665 165.922 84.5575 165.636 84.8442V84.8458ZM162.72 87.2359L163.771 113.357L165.923 115.461L164.584 85.6579C164.059 86.1839 163.007 86.9492 162.72 87.2359ZM159.563 88.5759L160.615 110.839L162.719 112.546L161.667 87.7633C161.141 88.0023 160.089 88.5759 159.563 88.5759ZM156.646 88.5759L157.412 107.129L159.564 109.233L158.75 88.8153C158.225 88.8153 156.886 88.8153 156.646 88.5759Z" fill="#C09300" />
        <path d="M151.053 105.023L154.257 119.609L153.204 120.66L152.105 119.847L150.287 106.841L151.053 119.847L150 121.186L148.948 119.847L149.713 106.841L147.897 119.847L146.796 120.66L145.744 119.609L148.948 105.023L151.053 105.023Z" fill="#C09300" stroke="#C09300" stroke-width="0.3579633333333333" />
        <path d="M142.825 98.6163L136.465 121.185L145.217 122.525L148.946 105.549L142.825 98.6162L142.825 98.6163Z" fill="white" stroke="#C09300" stroke-width="0.3963466666666667" stroke-linejoin="round" />
        <path d="M140.722 106.316L141.487 108.181L145.622 104.231" stroke="#C09300" stroke-width="0.42330999999999996" stroke-linejoin="round" />
        <path d="M143.585 101.643L144.45 109.759L147.08 106.316M146.028 107.653L147.465 112.612M148.028 110.79L145.122 115.204M146.028 119.609L145.098 115.21L144.286 110.735L142.34 113.372L141.486 110.332L138.761 113.127L140.147 118.211L142.059 115.066L143.111 118.27L145.075 115.216" stroke="#C09300" stroke-width="0.42330999999999996" stroke-linejoin="round" />
        <path d="M138.328 120.66L140.095 118.179L141.246 121.998L142.824 119.321L143.876 122.525" stroke="#C09300" stroke-width="0.42330999999999996" stroke-linejoin="round" />
        <path d="M157.172 98.6163L163.532 121.185L154.78 122.525L151.051 105.549L157.172 98.6162L157.172 98.6163Z" fill="white" stroke="#C09300" stroke-width="0.3963466666666667" stroke-linejoin="round" />
        <path d="M159.275 106.316L158.51 108.181L154.375 104.231" stroke="#C09300" stroke-width="0.42330999999999996" stroke-linejoin="round" />
        <path d="M156.412 101.643L155.547 109.759L152.917 106.316M153.969 107.653L152.532 112.612M151.969 110.79L154.875 115.204M153.969 119.609L154.899 115.21L155.711 110.735L157.658 113.372L158.511 110.332L161.236 113.127L159.85 118.211L157.938 115.066L156.886 118.27L154.923 115.216" stroke="#C09300" stroke-width="0.42330999999999996" stroke-linejoin="round" />
        <path d="M161.669 120.66L159.902 118.179L158.751 121.998L157.173 119.321L156.121 122.525" stroke="#C09300" stroke-width="0.42330999999999996" stroke-linejoin="round" />
        <path d="M149.999 131.274C156.647 131.274 163.007 130.748 166.737 129.696C168.316 129.41 168.316 128.597 168.316 127.544C169.894 127.018 169.081 125.154 170.18 125.154C169.081 125.441 168.842 123.289 167.503 123.577C167.503 121.711 165.638 121.472 164.059 121.997C160.903 123.05 155.307 123.289 149.999 123.289C144.691 123.05 139.143 123.05 135.939 121.997C134.361 121.472 132.496 121.711 132.496 123.577C131.157 123.289 130.918 125.441 129.818 125.154C130.918 125.154 130.105 127.018 131.683 127.544C131.683 128.597 131.683 129.41 133.309 129.696C136.991 130.748 143.352 131.274 149.999 131.274H149.999Z" fill="white" stroke="#C09300" stroke-width="0.7926966666666666" stroke-linecap="round" stroke-linejoin="round" />
        <path d="M140.962 121.184C143.113 121.471 145.505 121.709 147.37 121.471C148.422 121.471 149.187 123.287 147.083 123.575C145.218 123.813 142.301 123.575 140.723 123.287C139.384 123.048 136.467 122.523 134.601 121.996C132.736 121.184 134.076 119.606 135.127 119.845C136.753 120.371 138.858 120.897 140.962 121.184L140.962 121.184ZM159.039 121.184C156.887 121.471 154.496 121.709 152.678 121.471C151.578 121.471 150.813 123.287 152.918 123.575C154.783 123.813 157.7 123.575 159.277 123.287C160.617 123.048 163.533 122.523 165.399 121.996C167.264 121.184 165.925 119.606 164.873 119.845C163.247 120.371 161.143 120.897 159.039 121.184L159.039 121.184Z" fill="white" stroke="#C09300" stroke-width="0.42330999999999996" stroke-linecap="round" stroke-linejoin="round" />
        <path d="M134.362 120.134C132.736 119.846 131.971 121.711 132.498 122.763C132.737 122.237 133.837 122.237 134.076 121.711C134.362 120.898 133.837 120.899 134.362 120.134ZM140.722 125.024C140.722 123.973 141.774 124.102 141.774 123.05C141.774 122.524 141.488 121.711 140.962 121.711C140.435 121.711 139.909 122.237 139.909 122.762C139.67 123.815 140.722 123.973 140.722 125.024ZM148.293 121.997C149.869 121.997 149.713 124.102 148.948 125.154C148.948 124.389 147.609 124.102 147.609 123.576C147.609 122.762 148.818 122.762 148.293 121.997H148.293ZM165.636 120.134C167.262 119.846 168.028 121.711 167.501 122.763C167.262 122.237 166.162 122.237 165.923 121.711C165.636 120.898 166.163 120.899 165.636 120.134ZM159.276 125.024C159.276 123.973 158.225 124.102 158.225 123.05C158.225 122.524 158.512 121.711 159.038 121.711C159.563 121.711 160.09 122.237 160.09 122.762C160.329 123.815 159.276 123.973 159.276 125.024ZM151.706 121.997C150.128 121.997 150.285 124.102 151.05 125.154C151.05 124.389 152.389 124.102 152.389 123.576C152.389 122.762 151.18 122.762 151.706 121.997Z" fill="white" stroke="#C09300" stroke-width="0.42330999999999996" stroke-linecap="round" stroke-linejoin="round" />
        <path d="M134.888 120.66C135.415 120.66 136.228 120.899 136.467 121.186L134.887 120.659L134.888 120.66ZM137.515 121.474C137.802 121.474 138.855 121.712 139.38 121.999L137.514 121.472L137.515 121.474ZM147.082 122.524C146.556 122.524 145.504 122.524 145.218 122.762L147.081 122.522L147.082 122.524ZM144.165 122.524C143.879 122.236 142.826 122.236 142.301 122.524H144.164H144.165ZM165.112 120.66C164.587 120.66 163.821 120.899 163.534 121.186L165.112 120.66ZM162.482 121.474C162.196 121.474 161.143 121.712 160.617 121.999L162.484 121.472L162.482 121.474ZM152.915 122.524C153.442 122.524 154.494 122.524 154.781 122.762L152.914 122.522L152.915 122.524ZM155.832 122.524C156.119 122.236 157.172 122.236 157.697 122.524H155.831H155.832Z" fill="white" stroke="#C09300" stroke-width="0.2969693333333333" stroke-linecap="round" stroke-linejoin="round" />
        <path d="M134.446 124.864C134.268 124.83 134.174 124.689 134.219 124.522C134.274 124.319 134.436 124.203 134.59 124.257C134.688 124.292 134.867 124.472 134.867 124.537C134.868 124.611 134.774 124.788 134.733 124.788C134.716 124.788 134.688 124.804 134.673 124.822C134.639 124.861 134.535 124.881 134.446 124.864ZM152.756 126.17C152.69 126.146 152.585 125.997 152.585 125.929C152.585 125.8 152.776 125.59 152.894 125.589C152.953 125.588 153.113 125.671 153.172 125.733C153.281 125.846 153.257 126.031 153.121 126.136C153.054 126.188 152.854 126.207 152.756 126.17L152.756 126.17ZM152.876 126.997C152.736 126.95 152.685 126.881 152.674 126.726C152.662 126.564 152.678 126.539 152.848 126.446L152.97 126.379L153.086 126.431C153.246 126.502 153.317 126.579 153.323 126.686C153.329 126.802 153.243 126.921 153.109 126.981C152.992 127.033 152.985 127.034 152.876 126.997Z" fill="#C09300" />
        <path d="M135.916 123.367C135.8 123.363 135.642 123.469 135.551 123.523C135.334 123.574 135.083 123.707 134.874 123.565C134.668 123.501 134.394 123.551 134.363 123.804C134.416 124.022 134.721 124.146 134.905 124.002C135.042 123.823 135.416 123.718 135.457 124.023C135.305 124.254 135.322 124.559 135.197 124.804C135.176 124.957 135.113 125.102 135.03 125.232C134.876 125.247 134.712 125.229 134.582 125.325C134.373 125.337 134.161 125.44 134.04 125.617C133.906 125.81 133.778 126.005 133.738 126.242C133.774 126.484 134.051 126.553 134.259 126.565C134.481 126.626 134.704 126.706 134.926 126.773C135.288 126.854 135.627 126.985 135.988 127.065C136.517 127.224 137.071 127.297 137.603 127.44C137.659 127.458 137.711 127.475 137.77 127.482C137.99 127.527 138.106 127.287 138.124 127.107C138.233 126.72 138.317 126.327 138.426 125.94C138.501 125.785 138.591 125.434 138.291 125.513C138.119 125.616 137.973 125.771 137.759 125.784C137.468 125.801 137.634 126.099 137.749 126.221C137.774 126.417 137.712 126.651 137.582 126.805C137.409 126.914 137.192 126.786 137.009 126.742C136.818 126.745 136.435 126.648 136.613 126.388C136.677 126.195 136.682 125.985 136.759 125.794C136.857 125.589 136.871 125.366 136.915 125.148C136.795 124.889 136.589 125.233 136.426 125.263C136.313 125.341 135.891 125.374 136.113 125.575C136.305 125.721 136.158 125.974 136.124 126.159C136.111 126.415 135.844 126.477 135.634 126.419C135.425 126.409 135.134 126.253 135.311 126.023C135.352 125.832 135.419 125.643 135.457 125.45C135.536 125.218 135.603 124.996 135.686 124.763C135.722 124.556 135.797 124.36 135.895 124.179C135.9 123.951 136.054 123.754 136.051 123.523C136.035 123.41 135.985 123.369 135.915 123.367H135.916ZM134.718 125.784C134.745 125.779 134.764 125.783 134.79 125.794C134.874 125.829 134.876 125.897 134.79 125.971C134.753 126.003 134.71 126.035 134.697 126.034C134.541 126.02 134.495 125.997 134.488 125.94C134.483 125.889 134.498 125.875 134.603 125.825C134.655 125.801 134.69 125.788 134.718 125.784ZM134.372 127.457C134.207 127.302 134.233 127.188 134.478 127.006C134.582 126.928 134.646 126.937 134.766 127.046C134.95 127.214 134.957 127.32 134.795 127.464C134.714 127.535 134.679 127.55 134.586 127.551C134.488 127.552 134.46 127.54 134.372 127.457ZM135.389 127.764C135.351 127.755 135.315 127.738 135.284 127.714C135.252 127.691 135.226 127.661 135.207 127.627C135.187 127.593 135.175 127.556 135.171 127.517C135.166 127.478 135.17 127.439 135.181 127.401C135.224 127.256 135.249 127.242 135.461 127.24C135.7 127.238 135.746 127.277 135.748 127.487C135.749 127.605 135.74 127.633 135.682 127.687C135.613 127.752 135.48 127.786 135.389 127.764ZM165.093 127.79C165.017 127.727 165.002 127.699 165.001 127.619C165 127.482 165.079 127.382 165.25 127.304C165.477 127.201 165.57 127.215 165.655 127.366C165.769 127.567 165.764 127.648 165.628 127.783C165.552 127.858 165.538 127.862 165.366 127.864C165.197 127.865 165.177 127.861 165.093 127.79H165.093ZM136.739 128.174C136.618 128.141 136.555 128.05 136.553 127.905C136.552 127.793 136.56 127.776 136.638 127.715C136.688 127.675 136.768 127.642 136.83 127.633C136.919 127.621 136.952 127.629 137.024 127.679C137.207 127.808 137.246 127.936 137.14 128.059C137.027 128.191 136.919 128.222 136.739 128.174ZM144.046 128.5C144.019 128.467 143.959 128.447 143.953 128.405C143.964 128.22 143.973 128.032 144.032 127.855C144.064 127.681 144.036 127.499 144.096 127.329C144.159 127.02 144.159 126.701 144.23 126.394C144.234 126.236 144.249 126.078 144.295 125.926C144.347 125.685 144.299 125.434 144.37 125.196C144.362 125.107 144.465 124.868 144.555 125.01C144.687 125.202 144.859 125.358 145.029 125.515C145.175 125.599 145.041 125.723 144.94 125.765C144.802 125.819 144.768 125.972 144.778 126.105C144.759 126.244 144.703 126.374 144.697 126.515C144.668 126.723 144.674 126.934 144.647 127.141C144.586 127.344 144.61 127.561 144.589 127.77C144.592 127.903 144.529 128.024 144.537 128.157C144.521 128.292 144.515 128.455 144.402 128.548C144.292 128.603 144.134 128.594 144.046 128.5H144.046ZM153.946 125.234C153.785 125.355 153.641 125.499 153.498 125.64C153.3 125.79 153.66 125.877 153.706 126.005C153.759 126.2 153.756 126.408 153.769 126.609C153.829 126.792 153.855 126.988 153.842 127.182C153.825 127.389 153.554 127.345 153.436 127.463C153.272 127.532 153.206 127.693 153.081 127.807C152.999 127.968 152.977 128.165 152.967 128.348C152.979 128.498 152.866 128.665 152.967 128.796C152.98 128.815 152.995 128.84 153.008 128.859C153.042 128.907 153.123 128.869 153.175 128.88C153.343 128.87 153.518 128.895 153.675 128.828C154.078 128.758 154.486 128.752 154.894 128.734C155.144 128.742 155.384 128.655 155.634 128.661C155.829 128.704 155.917 128.492 155.915 128.338C155.804 128.12 155.9 127.862 155.811 127.64C155.732 127.416 155.763 127.164 155.727 126.932C155.722 126.749 155.49 126.681 155.373 126.817C155.259 126.932 155.075 126.955 154.988 127.098C154.889 127.299 155.197 127.299 155.248 127.452C155.307 127.607 155.288 127.779 155.3 127.942C155.338 128.14 155.124 128.151 154.988 128.171C154.809 128.238 154.558 128.283 154.456 128.067C154.393 127.907 154.401 127.736 154.383 127.567C154.379 127.27 154.308 126.978 154.29 126.682C154.273 126.316 154.209 125.953 154.186 125.588C154.182 125.436 154.162 125.189 153.946 125.234V125.234ZM153.738 127.984L153.842 127.994L153.852 128.119L153.863 128.244L153.727 128.286C153.683 128.299 153.638 128.309 153.592 128.317C153.57 128.304 153.549 128.29 153.529 128.275C153.456 128.222 153.475 128.147 153.571 128.046C153.625 127.989 153.651 127.978 153.738 127.984H153.738ZM143.749 124.89C143.622 124.935 143.462 125.121 143.332 125.12C143.039 125.14 143.08 125.426 143.291 125.526C143.318 125.612 143.292 125.722 143.301 125.817C143.342 126.081 143.176 126.292 143.207 126.557C143.193 126.847 143.105 127.13 143.093 127.422C143.01 127.723 143.009 128.032 142.957 128.338C142.923 128.613 142.724 128.516 142.551 128.443C142.55 128.324 142.542 128.207 142.541 128.088C142.613 127.816 142.394 127.736 142.176 127.703C141.947 127.725 141.835 127.529 141.884 127.328C141.983 127.211 142.23 127.243 142.384 127.224C142.711 127.292 142.698 126.853 142.53 126.703C142.415 126.491 142.131 126.4 142.051 126.182C142.083 125.893 141.891 125.605 141.655 125.463C141.292 125.438 141.018 125.751 140.884 126.057C140.733 126.101 140.583 126.146 140.436 126.203C140.2 126.262 139.863 126.672 140.186 126.828C140.368 126.878 140.92 127.004 140.676 127.255C140.539 127.491 140.276 127.495 140.041 127.432C139.799 127.432 139.531 127.315 139.541 127.036C139.491 126.786 139.499 126.517 139.384 126.286C139.335 126.006 139.017 126.072 138.999 126.328C138.754 126.506 138.787 126.794 138.957 127.005C139.063 127.248 138.958 127.531 138.853 127.755C138.789 128.047 138.468 128.057 138.239 128.151C138.126 128.194 137.696 128.125 137.853 128.37C138.104 128.458 138.404 128.538 138.666 128.474C138.94 128.44 139.178 128.252 139.311 128.015C139.496 127.829 139.812 127.926 140.051 127.922C140.309 127.921 140.572 128.102 140.822 127.984C140.894 127.796 141.229 127.486 141.332 127.807C141.315 128.095 141.569 128.249 141.832 128.213C142.12 128.197 142.014 128.417 142.009 128.588C142.028 128.9 142.229 129.063 142.489 129.193C142.577 129.216 142.67 129.208 142.759 129.193C143.009 129.114 143.277 129.003 143.353 128.724C143.454 128.497 143.457 128.24 143.53 128.005C143.589 127.628 143.666 127.252 143.676 126.87C143.768 126.523 143.742 126.158 143.811 125.807C143.856 125.546 143.888 125.286 143.916 125.026C143.885 124.887 143.825 124.863 143.749 124.89ZM141.489 126.276C141.539 126.282 141.567 126.344 141.572 126.453C141.577 126.574 141.641 126.673 141.718 126.692C141.779 126.708 141.773 126.772 141.707 126.817C141.669 126.844 141.6 126.86 141.478 126.859C141.285 126.858 141.166 126.808 141.062 126.703L140.999 126.64L141.093 126.578C141.158 126.526 141.221 126.47 141.28 126.411C141.375 126.314 141.438 126.27 141.489 126.276ZM163.5 123.65C163.313 123.659 163.128 123.687 162.947 123.734C162.601 123.712 162.427 124.076 162.76 124.254C162.96 124.766 163.273 124.149 163.593 124.192C164.073 124.285 164.113 124.803 164.187 125.192C164.214 125.578 164.325 125.953 164.437 126.317C164.758 126.674 164.197 126.897 163.958 126.619C163.754 126.398 163.318 126.126 163.073 126.432C162.771 126.559 162.759 126.962 162.51 127.077C162.107 127.2 162.056 126.704 161.843 126.494C161.647 126.219 161.273 126.195 160.968 126.098C160.825 125.809 160.9 125.316 160.604 125.119C160.355 125.22 159.899 125.686 160.281 125.9C160.653 126.221 160.118 126.367 159.947 126.588C159.704 126.859 159.665 127.233 159.624 127.577C159.205 127.809 159.123 127.315 159.072 127.005C159.04 126.634 158.727 126.743 158.51 126.879C158.192 127.008 158.034 127.31 157.812 127.546C157.785 127.762 157.824 127.998 157.822 128.223C157.894 128.494 158.223 128.367 158.427 128.348C158.753 128.212 158.886 128.557 158.624 128.755C158.447 128.98 157.884 128.862 157.937 129.223C158.118 129.245 158.307 129.238 158.489 129.223C158.852 129.124 159.243 128.868 159.281 128.463C159.329 128.11 159.837 128.174 160.114 128.098C160.461 127.998 160.879 127.973 160.958 128.411C161.194 128.659 161.707 128.939 161.968 128.598C162.233 128.437 162.36 128.152 162.343 127.848C162.289 127.587 162.766 127.577 162.885 127.723C163.059 128.009 163.602 127.925 163.864 127.765C164.143 127.559 164.203 127.197 164.604 127.192C165.198 127.014 165.815 126.912 166.395 126.692C166.866 126.59 166.326 126.293 166.208 126.119C165.85 125.942 165.539 126.666 165.135 126.307C164.823 126.068 164.844 125.614 164.729 125.265C164.65 124.812 164.67 124.291 164.343 123.931C164.119 123.693 163.815 123.636 163.499 123.65H163.5ZM161.229 126.807C161.271 126.806 161.318 126.826 161.395 126.869C161.541 126.95 161.646 127.083 161.645 127.192C161.645 127.263 161.627 127.268 161.52 127.317C161.455 127.347 161.38 127.38 161.354 127.379C161.293 127.379 161.146 127.261 161.145 127.213C161.145 127.193 161.126 127.117 161.104 127.057C161.064 126.95 161.07 126.951 161.124 126.879C161.159 126.834 161.187 126.808 161.229 126.807ZM163.406 126.921C163.53 126.913 163.604 126.952 163.656 127.046C163.716 127.156 163.675 127.24 163.52 127.307C163.453 127.336 163.385 127.36 163.375 127.359C163.364 127.358 163.308 127.324 163.25 127.286C163.16 127.226 163.146 127.198 163.145 127.13C163.144 127.024 163.262 126.931 163.406 126.921H163.406ZM160.427 126.952C160.463 126.947 160.496 126.966 160.541 127.004C160.601 127.056 160.62 127.097 160.635 127.202C160.645 127.275 160.644 127.37 160.635 127.411C160.619 127.486 160.617 127.483 160.447 127.484C160.234 127.486 160.214 127.462 160.218 127.265C160.221 127.139 160.222 127.106 160.291 127.036C160.345 126.982 160.39 126.958 160.427 126.952ZM158.593 127.432C158.66 127.447 158.722 127.497 158.739 127.577C158.761 127.683 158.742 127.731 158.656 127.775C158.582 127.813 158.411 127.826 158.364 127.796C158.349 127.787 158.317 127.762 158.302 127.734C158.279 127.693 158.283 127.674 158.312 127.65C158.332 127.634 158.354 127.61 158.354 127.598C158.353 127.586 158.376 127.544 158.406 127.505C158.454 127.44 158.527 127.416 158.593 127.432ZM161.677 127.827C161.736 127.827 161.786 127.848 161.822 127.879C161.884 127.934 161.882 128.013 161.812 128.067C161.767 128.102 161.521 128.099 161.437 128.067C161.399 128.053 161.385 128.034 161.385 127.994C161.384 127.947 161.397 127.918 161.479 127.879C161.547 127.847 161.617 127.828 161.677 127.827H161.677ZM155.953 129.434C155.921 129.413 155.873 129.395 155.921 129.36C155.979 129.259 156.094 129.224 156.196 129.187C156.379 129.108 156.536 128.973 156.654 128.814C156.67 128.703 156.795 128.643 156.795 128.527C156.796 128.368 156.805 128.206 156.766 128.051C156.724 127.909 156.616 127.801 156.491 127.727C156.405 127.659 156.266 127.641 156.235 127.522C156.217 127.408 156.319 127.321 156.355 127.219C156.429 127.078 156.492 126.931 156.572 126.794C156.658 126.698 156.791 126.789 156.836 126.881C156.899 126.974 156.955 127.073 156.986 127.18C157.087 127.291 157.176 127.421 157.213 127.568C157.262 127.671 157.34 127.768 157.336 127.89C157.336 128.029 157.414 128.152 157.409 128.292C157.414 128.479 157.414 128.673 157.345 128.85C157.299 128.948 157.205 129.006 157.143 129.094C157.037 129.193 156.92 129.287 156.783 129.339C156.687 129.37 156.631 129.481 156.51 129.454C156.339 129.457 156.165 129.481 155.994 129.453C156.005 129.471 155.942 129.422 155.953 129.434V129.434ZM153.669 129.584C153.588 129.501 153.571 129.465 153.57 129.384C153.569 129.301 153.585 129.268 153.664 129.188C153.81 129.041 153.882 129.037 154.134 129.165C154.375 129.287 154.456 129.298 154.478 129.212C154.499 129.128 154.637 129.052 154.769 129.051C154.853 129.051 154.9 129.067 154.967 129.119C155.05 129.184 155.054 129.195 155.057 129.346C155.058 129.5 155.056 129.506 154.96 129.591C154.867 129.672 154.853 129.677 154.738 129.666C154.592 129.651 154.505 129.585 154.481 129.47C154.464 129.386 154.435 129.367 154.413 129.423C154.406 129.441 154.37 129.464 154.333 129.473C154.265 129.49 154.15 129.563 154.068 129.64C154.037 129.669 153.983 129.683 153.895 129.683C153.777 129.684 153.76 129.677 153.669 129.584H153.669ZM147.063 126.617C146.841 126.619 146.602 126.806 146.573 127.023C146.624 127.274 146.832 127.52 146.698 127.784C146.79 128.121 146.444 128.249 146.208 128.055C146.066 127.731 145.994 127.376 145.781 127.086C145.513 127.01 145.396 127.438 145.208 127.586C145.301 127.838 145.573 128.063 145.604 128.377C145.669 128.682 145.484 129.021 145.219 129.18C144.99 129.398 144.677 129.32 144.396 129.367C144.054 129.567 144.646 129.64 144.802 129.648C145.151 129.684 145.514 129.638 145.771 129.377C146.027 129.255 146.007 128.812 146.312 128.763C146.842 128.739 147.367 128.844 147.896 128.857C148.179 128.924 148.617 128.823 148.812 129.034C148.813 129.403 149.126 129.631 149.427 129.773C149.593 129.82 149.768 129.614 149.938 129.575C150.259 129.473 150.161 129.075 150.354 128.919C150.904 128.889 151.46 128.896 152.01 128.888C152.115 128.891 152.146 128.741 152.219 128.68C152.207 128.467 152.199 128.255 152.167 128.044C152.061 127.775 152.184 127.429 151.99 127.2C151.713 127.125 151.478 127.378 151.198 127.398C150.889 127.536 150.629 127.821 150.615 128.169C150.432 128.468 150.139 128.116 150.24 127.867C150.228 127.759 150.263 127.632 150.229 127.534C150.06 127.331 149.764 127.397 149.531 127.367C149.192 127.381 148.86 127.307 148.521 127.315C148.223 127.292 147.913 127.341 147.625 127.263C147.281 127.253 147.328 126.917 147.271 126.679C147.21 126.634 147.136 126.616 147.063 126.617ZM147.729 127.846C147.843 127.849 147.951 127.863 148.063 127.877C148.206 127.901 148.359 127.828 148.5 127.877C148.826 127.933 149.151 127.92 149.479 127.95C149.566 127.949 149.628 128.012 149.687 128.065C149.688 128.293 149.688 128.525 149.687 128.752C149.678 128.838 149.713 128.952 149.635 129.013C149.611 129.03 149.583 129.049 149.552 129.055C149.462 129.031 149.366 128.972 149.323 128.888C149.309 128.769 149.329 128.653 149.333 128.534C149.331 128.503 149.347 128.455 149.333 128.43C149.262 128.379 149.182 128.347 149.094 128.346C148.811 128.336 148.533 128.316 148.25 128.305C148.014 128.29 147.772 128.325 147.542 128.263C147.452 128.23 147.336 128.242 147.281 128.148C147.203 128.058 147.316 127.949 147.396 127.909C147.502 127.86 147.615 127.844 147.729 127.846L147.729 127.846ZM151.49 127.93C151.542 127.929 151.559 127.946 151.583 128.044C151.599 128.107 151.617 128.183 151.625 128.211C151.637 128.25 151.618 128.263 151.563 128.284C151.398 128.346 151.234 128.34 151.177 128.263C151.151 128.228 151.181 128.118 151.229 128.075C151.326 127.989 151.432 127.93 151.49 127.93Z" fill="#C09300" />
        <path d="M154.102 84.3658C154.324 84.3792 153.801 83.1765 153.801 83.1765C154.39 83.7778 156.611 83.9215 156.611 83.9215C155.278 83.3328 153.945 78.8894 154.102 75.3476C154.246 71.7928 153.593 70.3941 153.07 69.8715C152.403 69.2048 150.26 68.6168 148.848 68.5381C148.051 68.4991 148.182 69.1394 148.182 69.1394C146.705 68.7604 145.228 68.6168 144.561 69.0611C143.934 69.4794 143.803 71.5705 144.261 71.2045C145.371 70.3158 146.339 71.1262 147.005 72.0932C147.593 72.9429 147.554 75.3476 146.705 78.1573C145.816 81.1111 143.385 84.0648 143.385 84.0648C144.705 84.0648 146.561 82.8888 146.561 82.8888L146.117 84.7315C147.515 84.0648 148.626 83.0325 148.626 83.0325L149.959 84.4309C150.403 83.8428 151.292 83.0325 151.292 83.0325C151.292 83.0325 152.403 84.2088 154.102 84.3658Z" fill="white" stroke="#C09300" stroke-width="0.40601" />
        <path d="M148.705 75.8589C148.705 75.8589 147.96 81.3351 146.562 82.8904M149.882 75.7156C149.882 75.7156 149.594 81.2567 148.627 83.0344M150.925 75.9389C150.925 75.9389 150.925 82.0031 151.291 83.0354M152.245 76.2389C152.245 76.2389 152.546 81.3361 153.8 83.1788" stroke="#C09300" stroke-width="0.4233433333333333" />
        <path d="M147.358 73.2056C147.293 72.7222 147.175 72.3429 147.005 72.0945C146.338 71.1275 145.372 70.3171 144.261 71.2058C144.261 71.2058 144.64 70.0295 145.45 69.9905C146.077 69.9511 147.502 70.4608 148.757 72.6042C148.757 72.6042 147.829 72.3952 147.607 72.5912C147.188 72.9572 147.358 73.2056 147.358 73.2056Z" fill="#C09300" stroke="#C09300" stroke-width="0.11800333333333332" />
        <path d="M144.145 69.7554C144.237 69.4548 144.381 69.1804 144.564 69.0628C145.231 68.6184 146.707 68.7621 148.184 69.1411C148.184 69.1411 148.053 68.5007 148.851 68.5401C150.262 68.6184 152.405 69.2068 153.072 69.8731C153.228 70.0431 153.412 70.2915 153.568 70.6701H153.542C153.216 70.2128 152.288 70.2391 152.065 70.2651C151.712 70.3045 151.49 70.2911 151.02 70.4088C150.798 70.4611 150.458 70.5265 150.275 70.6701C150.131 70.7878 150.013 71.2191 149.791 71.2191C149.438 71.2191 149.465 71.1278 149.373 71.0231C149.255 70.8795 149.19 70.6701 149.072 70.6831C148.707 70.7488 148.118 70.4611 147.374 69.8731C146.629 69.2848 146.341 69.1411 145.374 69.2064C144.42 69.2848 144.119 69.8208 144.119 69.8208L144.145 69.7554Z" fill="#C09300" stroke="#C09300" stroke-width="0.11800333333333332" />
        <path d="M149.607 70.6181C149.823 70.6181 149.999 70.4426 149.999 70.2261C149.999 70.0096 149.823 69.8341 149.607 69.8341C149.39 69.8341 149.215 70.0096 149.215 70.2261C149.215 70.4426 149.39 70.6181 149.607 70.6181Z" fill="white" />
        <path d="M149.992 109.08C160.873 100.711 159.94 88.4515 159.94 88.4515C159.653 88.5089 159.38 88.5376 159.093 88.5376C156.81 88.5376 151.367 87.2319 150.097 85.5734C148.736 87.0745 143.173 88.5376 140.905 88.5376C140.618 88.5376 140.331 88.5089 140.058 88.4515C140.058 88.4515 139.111 100.711 149.992 109.08L149.992 109.08Z" fill="white" stroke="#C09300" stroke-width="0.3833466666666666" />
        <path d="M159.072 89.3492C158.978 89.3551 158.884 89.358 158.79 89.358C156.721 89.358 151.917 88.2968 150.065 86.7056C148.125 88.1754 143.241 89.358 141.206 89.358C141.11 89.358 141.016 89.3464 140.922 89.3293C140.918 89.7928 140.942 90.2733 140.971 90.7105C141.078 92.3441 141.365 93.9836 141.8 95.5613C143.169 100.526 145.972 104.746 149.991 107.947C154.013 104.743 156.819 100.52 158.191 95.5509C158.627 93.9736 158.915 92.3343 159.023 90.7008C159.049 90.2435 159.074 89.6835 159.072 89.3492Z" stroke="#C09300" stroke-width="0.305343" />
        <mask id="mask0_5_7029" style="mask-type:luminance" maskUnits="userSpaceOnUse" x="141" y="86" width="18" height="22">
            <path d="M158.977 89.4165C158.884 89.4225 158.791 89.4254 158.698 89.4252C156.651 89.4252 151.898 88.3757 150.066 86.8014C148.146 88.256 143.314 89.4252 141.301 89.4252C141.206 89.4244 141.113 89.4148 141.02 89.3965C141.015 89.8552 141.04 90.3314 141.069 90.7639C141.175 92.3793 141.458 94.0023 141.889 95.5628C143.244 100.474 146.016 104.65 149.992 107.816C153.972 104.647 156.748 100.469 158.107 95.5529C158.542 93.9851 158.818 92.3772 158.929 90.754C158.954 90.3015 158.979 89.7481 158.977 89.4165Z" fill="white" />
        </mask>
        <g mask="url(#mask0_5_7029)">
            <path fill-rule="evenodd" clip-rule="evenodd" d="M140.869 86.5895H146.956V108.026H140.869V86.5895Z" fill="#C09300" />
            <path fill-rule="evenodd" clip-rule="evenodd" d="M146.956 86.5895H153.043V108.026H146.956V86.5895Z" fill="white" />
            <path fill-rule="evenodd" clip-rule="evenodd" d="M153.042 86.5895H159.128V108.026H153.042V86.5895Z" fill="#C09300" />
        </g>
    </g>

</svg>