<svg xmlns="http://www.w3.org/2000/svg" viewBox="0 0 300 200">
    <path d="M102.894 50.0002C102.894 59.9734 98.9325 69.5382 91.8803 76.5903C84.8282 83.6425 75.2634 87.6043 65.2901 87.6043C55.3169 87.6043 45.7521 83.6425 38.7 76.5903C31.6478 69.5382 27.686 59.9734 27.686 50.0002C27.686 40.0269 31.6478 30.4622 38.7 23.41C45.7521 16.3579 55.3169 12.396 65.2901 12.396C75.2634 12.396 84.8282 16.3579 91.8803 23.41C98.9325 30.4622 102.894 40.0269 102.894 50.0002Z" fill="white"/>
    <path d="M114.711 50C114.711 59.4251 110.967 68.4641 104.302 75.1286C97.6377 81.7931 88.5987 85.5372 79.1736 85.5372C69.7486 85.5372 60.7096 81.7931 54.0451 75.1286C47.3806 68.4641 43.6365 59.4251 43.6365 50C43.6365 40.575 47.3806 31.536 54.0451 24.8715C60.7096 18.207 69.7486 14.4629 79.1736 14.4629C88.5987 14.4629 97.6377 18.207 104.302 24.8715C110.967 31.536 114.711 40.575 114.711 50Z" fill="#ED2939"/>
    <path d="M69.9442 50.9074L64.8359 46.9886L59.7288 50.9093L61.695 44.5902L56.5703 40.695L62.8939 40.7084L64.8338 34.3804L66.7757 40.7077L73.0993 40.692L67.9759 44.5891L69.9442 50.9074Z" fill="white"/>
    <path d="M110.027 50.9074L104.918 46.9886L99.8113 50.9093L101.777 44.5902L96.6528

 40.695L102.976 40.7084L104.916 34.3804L106.858 40.7077L113.182 40.692L108.058 44.5891L110.027 50.9074Z" fill="white"/>
    <path d="M90.0058 36.0314L84.8975 32.1127L79.7904 36.0333L81.7566 29.7143L76.632 25.819L82.9556 25.8324L84.8954 19.5044L86.8374 25.8317L93.161 25.816L88.0376 29.7131L90.0058 36.0314Z" fill="white"/>
    <path d="M77.4442 74.7091L72.3359 70.7904L67.2288 74.711L69.195 68.392L64.0703 64.4967L70.3939 64.5101L72.3338 58.1821L74.2757 64.5094L80.5993 64.4937L75.4759 68.3909L77.4442 74.7091Z" fill="white"/>
    <path d="M102.527 74.7091L97.4184 70.7904L92.3113 74.711L94.2775 68.392L89.1528 64.4967L95.4764 64.5101L97.4163 58.1821L99.3582 64.5094L105.682 64.4937L100.558 68.3909L102.527 74.7091Z" fill="white"/>
</svg>