<svg xmlns="http://www.w3.org/2000/svg" viewBox="0 0 400 200"><path d="M215.113 163.638L224.925 193.837L199.236 175.173H230.99L205.301 193.837L215.113 163.638ZM272.487 154.667L262.675 184.866L252.863 154.667L278.551 173.331H246.798L272.487 154.667ZM272.487 114.005L262.675 144.204L252.863 114.005L278.551 132.669L246.798 132.67L272.487 114.005ZM314.489 144.389L304.676 174.588L294.864 144.389L320.553 163.053L288.8 163.054L314.489 144.389ZM314.489 55.9183L304.676 86.1173L294.864 55.9183L320.553 74.5823H288.8L314.489 55.9183ZM332.147 113.322L341.959 143.521L316.27 124.857H348.024L322.335 143.521L332.147 113.322ZM349.788 43.8536L339.976 74.0526L330.163 43.8536L355.852 62.5176L324.099 62.5179L349.788 43.8536ZM367.612 90.4913L377.424 120.69L351.735 102.026H383.488L357.799 120.691L367.612 90.4913ZM367.612 12.4683L377.424 42.6673L351.735 24.0033H383.488L357.799 42.6676L367.612 12.4683Z" fill="#FEDD00" />
</svg>