<svg xmlns="http://www.w3.org/2000/svg" viewBox="0 0 380 200"><g><path d="M45.4546 18.1807L37.0269 44.1186L49.9958 48.3324L45.4546 18.1807Z" fill="white" />
<path d="M45.4541 18.1807L53.8818 44.1186L40.9129 48.3324L45.4541 18.1807Z" fill="white" />
<path d="M71.3936 37.0273H44.1208V50.6637L71.3936 37.0273Z" fill="white" />
<path d="M71.3936 37.0264L49.3295 53.0569L41.3142 42.0248L71.3936 37.0264Z" fill="white" />
<path d="M19.5156 37.0254L41.5797 53.0559L49.595 42.0238L19.5156 37.0254Z" fill="white" />
<path d="M19.5156 37.0264H46.7884V50.6627L19.5156 37.0264Z" fill="white" />
<path d="M61.4854 67.5195L53.0576 41.5816L40.0887 45.7955L61.4854 67.5195Z" fill="white" />
<path d="M61.4854 67.5195L39.4213 51.489L47.4365 40.457L61.4854 67.5195Z" fill="white" />
<path d="M29.4233 67.5195L51.4874 51.489L43.4722 40.457L29.4233 67.5195Z" fill="white" />
<path d="M29.4233 67.5195L37.8511 41.5816L50.82 45.7955L29.4233 67.5195Z" fill="white" />
</g></svg>