<svg xmlns="http://www.w3.org/2000/svg" viewBox="0 0 300 200">
    <path d="M150 51.55C146.75 60.4125 143.438 69.6375 136.35 76.7C138.55 75.975 142.4 75.325 144.875 75.3875V112.663L134.35 114.225C133.975 114.188 133.85 113.6 133.85 112.8C132.838 101.225 130.1 91.5 126.95 81.4375C126.725 80.0625 122.738 74.8125 125.813 75.7375C126.188 75.7875 130.3 77.4625 129.65 76.6625C124.05 70.8625 115.863 66.6875 107.913 65.45C107.213 65.275 106.8 65.625 107.425 66.4375C117.975 82.675 126.8 101.838 126.725 124.575C130.825 124.575 140.763 122.15 144.875 122.15V148.45H150.063L151.25 75L150 51.55Z" fill="black" />
    <path d="M150 51.55C153.25 60.4125 156.562 69.6375 163.65 76.7C161.45 75.975 157.6 75.325 155.125 75.3875V112.663L165.65 114.225C166.025 114.188 166.15 113.6 166.15 112.8C167.162 101.225 169.9 91.5 173.05 81.4375C173.275 80.0625 177.262 74.8125 174.187 75.7375C173.812 75.7875 169.7 77.4625 170.35 76.6625C175.95 70.8625 184.137 66.6875 192.087 65.45C192.787 65.275 193.2 65.625 192.575 66.4375C182.025 82.675 173.2 101.838 173.275 124.575C169.175 124.575 159.237 122.15 155.125 122.15V148.45H149.937L148.75 75L150 51.55Z" fill="black" />
</svg>