<svg width="400" height="200" viewBox="0 0 400 200" fill="none"
    xmlns="http://www.w3.org/2000/svg">
    <g clip-path="url(#clip0_5_6444)">
        <path d="M133.333 144.444C157.879 144.444 177.778 124.546 177.778 100C177.778 75.454 157.879 55.5555 133.333 55.5555C108.787 55.5555 88.8887 75.454 88.8887 100C88.8887 124.546 108.787 144.444 133.333 144.444Z" fill="white"/>
        <path d="M133.334 56.9428L120.029 97.8911L140.503 104.544L133.334 56.9428Z" fill="#ED1C27"/>
        <path d="M133.334 56.9428L146.639 97.8911L126.165 104.544L133.334 56.9428Z" fill="#ED1C27"/>
        <path d="M174.283 86.6948H131.228V108.223L174.283 86.6948Z" fill="#ED1C27"/>
        <path d="M174.283 86.6943L139.451 112.002L126.797 94.5854L174.283 86.6943Z" fill="#ED1C27"/>
        <path d="M92.3838 86.6944L127.216 112.002L139.87 94.5855L92.3838 86.6944Z" fill="#ED1C27"/>
        <path d="M92.3838 86.6949H135.439V108.223L92.3838 86.6949Z" fill="#ED1C27"/>
        <path d="M158.642 134.834L145.337 93.886L124.863 100.538L158.642 134.834Z" fill="#ED1C27"/>
        <path d="M158.643 134.834L123.81 109.526L136.464 92.1101L158.643 134.834Z" fill="#ED1C27"/>
        <path d="M108.024 134.834L142.857 109.526L130.203 92.1101L108.024 134.834Z" fill="#ED1C27"/>
        <path d="M108.025 134.834L121.33 93.886L141.804 100.538L108.025 134.834Z" fill="#ED1C27"/>
    </g>
    <defs>
        <clipPath id="clip0_5_6444">
            <rect width="400" height="200" fill="white"/>
        </clipPath>
    </defs>
</svg>
