<svg xmlns="http://www.w3.org/2000/svg" viewBox="0 0 280 200">
<path fill-rule="evenodd" clip-rule="evenodd" d="M147.574 151.127C145.817 149.603 143.687 146.518 143.717 143.544C143.874 141.327 145.395 140.039 146.378 142.746C147.767 145.733 150.746 150.674 154.852 147.776C156.646 146.459 156.618 144.521 154.158 144.743C151.121 144.535 149.255 142.864 147.896 138.561C147.649 136.195 148.633 136.254 150.007 137.776C151.773 139.802 155.286 142.864 159.163 141.223C161.317 140.32 161.925 138.457 158.671 137.999C155.589 138.044 153.074 136.046 150.571 132.999C149.198 131.314 151.223 129.612 152.438 131.047C153.523 131.978 155.041 133.694 156.343 133.931C157.847 134.226 159.713 134.079 161.78 132.985C164.008 131.12 163.284 129.775 160.58 129.465C158.483 129.569 157.341 130.366 154.637 128.562C149.776 125.276 145.911 120.886 145.307 115.606C144.911 112.133 146.778 111.081 148.331 111.481C152.554 112.567 155.316 120.458 158.238 124.794C159.195 126.043 160.073 126.063 160.695 125.678C161.867 124.673 162.803 123.847 163.975 122.724C163.975 122.724 172.571 124.268 177.252 125.794L172.04 127.646C170.066 126.557 167.685 127.732 167.685 129.622C165.817 130.914 165.967 132.428 166.773 133.889C167.019 132.871 167.229 131.55 168.704 131.374C170.809 132.245 173.262 131.002 173.262 129.358L179.411 126.941L185.622 130.458C185.622 132.835 187.874 133.588 190.218 132.946C191.322 133.632 192.032 134.822 192.406 136.094C193.097 134.259 192.953 132.964 191.87 132.064C192.492 129.691 189.167 127.41 186.594 128.929L182.125 126.364L189.774 126.149C190.662 127.721 193.87 127.807 194.806 126.149C195.606 125.93 196.282 125.791 197.842 126.95C197.351 125.074 196.394 124.272 194.959 124.272C193.869 122.34 189.923 122.349 189.353 124.524L181.387 124.746L186.114 121.38C187.878 122.422 190.354 121.264 190.85 119.372C191.553 118.536 192.421 118.143 194.128 118.71C193.248 117.152 192.008 116.686 189.769 117.744C187.726 116.196 185.033 118.074 185.442 119.632L179.153 123.911C174.589 122.549 166.322 120.428 166.322 120.428C167.306 119.393 168.305 118.431 169.287 117.381C169.642 116.766 169.1 116.05 168.346 115.901C160.97 114.379 156.747 111.405 154.188 103.848C153.118 100.683 155.432 99.737 156.227 101.673C157.327 104.366 158.541 107.308 161.853 109.587C162.995 110.386 166.395 109.734 164.384 107.826C162.301 106.11 161.405 105.372 160.379 101.2C160.379 99.0867 162.533 98.139 163.735 100.165C165.02 104.321 165.152 106.11 167.479 108.788C169.243 110.814 171.543 112.176 172.685 112.145C174.74 112.116 176.809 109.896 174.06 108.285C170.025 106.673 168.55 104.47 167.956 102.368C167.306 98.7016 168.016 96.9264 170.228 98.7302C173.365 102.295 179.353 108.935 182.491 112.027C186.006 114.719 190.04 114.807 193.251 112.072C195.088 109.956 194.436 107.68 191.559 108.167C185.066 108.715 180.149 105.49 174.754 96.7776C173.698 94.8107 173.408 91.9859 175.738 94.0873C178.427 97.7253 182.347 100.817 185.993 102.148C189.651 103.463 192.673 102.736 193.844 101.586C195.257 100.174 194.885 96.6164 192.441 97.4742C190.431 98.1839 187.597 98.361 184.647 97.2219C181.695 96.0682 178.63 93.5839 175.376 89.369C174.261 86.9884 174.624 84.9767 176.88 86.2033C182.217 90.7304 189.101 94.397 192.615 92.1939C195.204 90.5816 195.248 86.4402 191.965 86.707C185.355 87.6079 182.853 86.1447 176.504 80.5399C175.059 79.4596 175.159 76.7224 177.458 78.469C182.795 81.9156 190.084 83.2604 192.948 81.457C195.523 79.8447 195.146 74.9184 190.807 76.6633C187.336 78.7787 183.503 78.7196 175.824 73.233C173.887 71.621 175.332 69.5196 176.922 70.4224C183.099 73.9424 192.095 75.4504 194.437 68.2927C195.347 65.5573 193.699 63.9596 191.284 65.8527C185.976 70.7627 179.959 68.3516 176.591 65.8813C175.627 65.3127 173.857 62.435 176.966 62.969C185.008 64.8033 192.962 63.2056 194.409 57.511C195.248 55.6624 193.597 52.3933 190.662 55.1304C186.801 58.9459 182.708 59.0782 177.56 59.0496C174.941 58.5016 174.913 55.6176 177.111 55.1896C181.175 55.277 185.181 53.5019 188.392 51.6982C191.531 49.8944 194.134 47.365 194.959 43.8596C195.465 40.7247 192.442 37.3967 190.62 40.7247C187.929 45.5899 181.971 50.1756 175.346 51.0033C175.001 50.4262 174.132 48.9467 173.062 49.3624C171.117 50.1167 168.799 51.1259 166.413 52.2593C161.269 54.7019 159.125 55.879 159.743 60.0993C160.387 64.503 156.992 67.2859 154.188 66.5173C151.743 65.859 150.393 63.6499 150.832 59.8182C151.183 56.765 154.248 53.0719 157.702 51.1353C159.938 49.8839 163.314 49.1993 167.378 48.2964C169.851 47.8093 171.111 46.8473 171.254 45.8404C171.254 45.8404 169.564 47.0776 166.858 46.8919C165.578 46.8004 164.721 46.2376 164.398 45.6633C165.339 45.4719 167.045 45.6939 168.578 45.6939C170.616 45.6776 175.35 45.221 176.605 42.351C176.996 40.4579 175.752 40.1176 174.595 41.3302C173.351 42.6407 172.839 43.8187 170.343 44.2587C168.825 44.5259 167.306 44.8359 165.353 44.363C166.453 43.0564 168.201 41.7196 169.692 41.9659C170.182 42.0476 170.834 42.5002 171.356 43.3133C171.675 41.2424 171.109 38.9047 165.57 39.881C165.658 38.3139 162.359 37.633 160.379 37.6636C159.251 37.6922 156.951 38.3587 155.288 39.1556C152.656 39.9707 150.053 40.5619 146.985 40.7842C148.765 42.3064 149.098 42.3962 150.876 43.6822C148.187 44.687 146.104 46.7579 145.164 48.1193C145.164 48.1193 148.303 48.0316 149.098 48.3862C145.814 49.3462 144.339 49.923 142.603 51.6982C143.211 51.8022 144.121 51.9793 144.512 52.1282C144.919 52.275 144.813 52.5419 144.484 52.7927C143.777 53.3327 140.853 56.7282 140 57.5413C139.147 56.7282 136.224 53.3327 135.516 52.7927C135.187 52.5419 135.082 52.275 135.488 52.1282C135.879 51.9796 136.79 51.8022 137.397 51.6982C135.662 49.923 134.187 49.3462 130.902 48.3862C131.698 48.0316 134.837 48.1193 134.837 48.1193C133.896 46.7579 131.813 44.687 129.125 43.6822C130.902 42.3962 131.235 42.3064 133.015 40.7839C129.948 40.5619 127.345 39.9707 124.712 39.1553C123.05 38.3587 120.75 37.6922 119.622 37.6636C117.641 37.633 114.343 38.3139 114.431 39.8807C108.892 38.9047 108.326 41.2424 108.645 43.3133C109.167 42.5002 109.819 42.0476 110.309 41.9662C111.8 41.7196 113.547 43.0564 114.648 44.363C112.695 44.8359 111.176 44.5259 109.657 44.259C107.162 43.819 106.65 42.6407 105.406 41.3304C104.248 40.1176 103.005 40.4579 103.395 42.3513C104.651 45.221 109.384 45.6776 111.423 45.6939C112.955 45.6939 114.661 45.4716 115.602 45.6633C115.279 46.2382 114.422 46.8004 113.143 46.8919C110.437 47.0776 108.746 45.8404 108.746 45.8404C108.89 46.8473 110.149 47.809 112.623 48.2964C116.687 49.1993 120.063 49.8842 122.299 51.1356C125.753 53.0719 128.818 56.765 129.169 59.8182C129.607 63.6496 128.258 65.859 125.812 66.5173C123.008 67.2859 119.613 64.503 120.258 60.0993C120.876 55.879 118.732 54.7019 113.588 52.2593C111.202 51.1259 108.884 50.1164 106.939 49.3622C105.869 48.9467 105 50.4264 104.655 51.0033C98.03 50.1756 92.0711 45.5899 89.3805 40.7247C87.5588 37.3967 84.5357 40.7247 85.0417 43.8596C85.8668 47.3653 88.4697 49.8944 91.6085 51.6982C94.8194 53.5019 98.8254 55.277 102.889 55.1896C105.087 55.6176 105.059 58.5016 102.441 59.0496C97.2925 59.0782 93.1991 58.9459 89.3385 55.1304C86.4031 52.3933 84.7528 55.6624 85.592 57.511C87.0388 63.2053 94.9928 64.8033 103.035 62.969C106.143 62.4347 104.374 65.313 103.409 65.8816C100.041 68.3516 94.0242 70.7627 88.7168 65.853C86.3014 63.9596 84.6528 65.5573 85.564 68.2927C87.9057 75.4504 96.902 73.9424 103.078 70.4224C104.669 69.5196 106.114 71.621 104.177 73.233C96.4974 78.7196 92.6651 78.7787 89.1931 76.6633C84.8545 74.9184 84.4777 79.8447 87.0528 81.457C89.9165 83.2607 97.2051 81.9156 102.542 78.469C104.842 76.7224 104.942 79.4596 103.497 80.5399C97.1471 86.1447 94.646 87.6079 88.0354 86.707C84.7525 86.4402 84.7965 90.5813 87.3857 92.1939C90.8991 94.3967 97.7828 90.7304 103.12 86.2036C105.376 84.9767 105.739 86.9884 104.625 89.369C101.371 93.5839 98.3048 96.0682 95.3534 97.2219C92.404 98.361 89.57 98.1839 87.5591 97.4744C85.1154 96.6164 84.744 100.174 86.156 101.586C87.3282 102.736 90.3491 103.463 94.0082 102.148C97.6534 100.817 101.574 97.725 104.262 94.0873C106.592 91.9859 106.303 94.8107 105.247 96.7776C99.8517 105.49 94.9351 108.715 88.4417 108.167C85.564 107.68 84.9122 109.956 86.7497 112.072C89.9605 114.807 93.9942 114.719 97.5097 112.027C100.647 108.935 106.635 102.295 109.773 98.7302C111.985 96.9264 112.695 98.7016 112.045 102.368C111.451 104.47 109.976 106.673 105.94 108.285C103.192 109.897 105.26 112.116 107.315 112.145C108.457 112.176 110.757 110.814 112.521 108.788C114.849 106.11 114.981 104.321 116.266 100.165C117.468 98.139 119.622 99.0867 119.622 101.2C118.596 105.372 117.699 106.11 115.616 107.826C113.605 109.734 117.005 110.386 118.147 109.587C121.46 107.308 122.673 104.366 123.773 101.673C124.569 99.737 126.883 100.683 125.812 103.848C123.253 111.405 119.03 114.379 111.654 115.901C110.901 116.05 110.359 116.766 110.713 117.381C111.696 118.431 112.695 119.392 113.679 120.428C113.679 120.428 105.412 122.549 100.847 123.911L94.5585 119.632C94.9671 118.074 92.2748 116.196 90.2317 117.744C87.992 116.686 86.7522 117.152 85.8722 118.71C87.5797 118.143 88.4471 118.536 89.1505 119.372C89.6462 121.264 92.122 122.422 93.8862 121.38L98.6128 124.746L90.6471 124.524C90.0771 122.35 86.1314 122.34 85.0408 124.272C83.6065 124.272 82.6494 125.074 82.158 126.95C83.718 125.791 84.3942 125.93 85.194 126.149C86.13 127.807 89.3385 127.721 90.226 126.149L97.8748 126.364L93.4062 128.929C90.8328 127.41 87.5085 129.691 88.13 132.064C87.0471 132.964 86.9025 134.259 87.5942 136.094C87.968 134.822 88.6782 133.632 89.7828 132.946C92.1257 133.588 94.3782 132.835 94.3782 130.458L100.59 126.941L106.738 129.358C106.738 131.002 109.191 132.245 111.297 131.374C112.772 131.55 112.981 132.871 113.227 133.888C114.033 132.428 114.183 130.914 112.316 129.622C112.316 127.732 109.934 126.556 107.961 127.646L102.749 125.794C107.429 124.268 116.025 122.724 116.025 122.724C117.197 123.847 118.133 124.673 119.305 125.678C119.927 126.063 120.806 126.043 121.763 124.794C124.684 120.458 127.447 112.567 131.67 111.481C133.222 111.081 135.09 112.133 134.693 115.606C134.089 120.886 130.225 125.277 125.364 128.562C122.659 130.366 121.517 129.569 119.421 129.465C116.716 129.775 115.993 131.12 118.221 132.985C120.288 134.079 122.153 134.226 123.658 133.931C124.959 133.694 126.478 131.978 127.562 131.047C128.778 129.612 130.803 131.314 129.43 132.999C126.926 136.046 124.411 138.044 121.33 137.999C118.075 138.457 118.683 140.32 120.838 141.223C124.714 142.864 128.228 139.802 129.994 137.776C131.367 136.254 132.351 136.195 132.104 138.561C130.745 142.864 128.879 144.535 125.842 144.743C123.383 144.521 123.355 146.459 125.149 147.776C129.254 150.674 132.234 145.733 133.623 142.746C134.605 140.039 136.126 141.327 136.283 143.544C136.313 146.518 134.183 149.603 132.426 151.127C130.67 152.651 140 162.337 140 162.337C140 162.337 149.331 152.65 147.574 151.126L147.574 151.127ZM160.078 41.4296C158.626 41.4296 157.729 41.9382 157.729 42.5553C157.729 43.1822 158.626 43.693 160.078 43.693C161.522 43.693 162.439 43.1359 162.439 42.5082C162.439 41.891 161.521 41.4296 160.078 41.4296ZM119.923 41.4296C121.375 41.4296 122.272 41.9382 122.272 42.5553C122.272 43.1822 121.375 43.693 119.923 43.693C118.479 43.693 117.562 43.1359 117.562 42.5082C117.562 41.891 118.479 41.4296 119.923 41.4296Z" fill="black" />
</svg>