<svg width="400" height="200" viewBox="0 0 400 200" fill="none" xmlns="http://www.w3.org/2000/svg">
<g clip-path="url(#clip0_5_2031)">

<path fill-rule="evenodd" clip-rule="evenodd" d="M100.006 35.0708C99.5582 35.0708 99.1123 35.0806 98.6671 35.0932C90.0081 35.3172 81.879 37.5537 76.0907 40.2802L76.0914 40.2886C75.4586 40.5532 74.8384 40.8185 74.249 41.0838L76.2384 72.2471C77.6174 88.5319 88.2301 98.0141 100.022 101.737C111.814 98.0134 122.426 88.5319 123.804 72.2471L125.783 41.1825C125.176 40.8707 124.561 40.5727 123.941 40.2886V40.2809C117.858 37.4144 109.189 35.0869 100.036 35.0715L100.016 35.0708H100.006Z" fill="#005CE5"/>
<path fill-rule="evenodd" clip-rule="evenodd" d="M100.021 56.6348L94.2011 68.0007L90.4386 63.1126L80.6064 76.1053C80.7842 76.9124 80.9928 77.6908 81.221 78.4503C82.3186 80.3039 84.4291 82.4193 87.1353 82.4193C89.2829 82.4193 91.4305 80.7015 93.5781 80.7015C95.7257 80.7015 97.8734 82.42 100.021 82.42C102.169 82.42 104.316 80.7015 106.464 80.7015C108.612 80.7015 110.76 82.42 112.907 82.42C115.589 82.42 117.685 80.3431 118.791 78.5021C119.028 77.7216 119.239 76.918 119.423 76.0885L109.604 63.1126L105.841 68.0007L100.021 56.6348ZM93.5781 82.42C91.4305 82.42 89.2829 84.1378 87.1353 84.1378C85.4357 84.1378 83.9755 83.5358 82.8443 82.6818C83.2337 83.5191 83.6624 84.3376 84.1288 85.1346C85.0143 85.6855 86.0216 86.0579 87.1353 86.0579C89.2829 86.0579 91.4305 84.3394 93.5781 84.3394C95.7257 84.3394 97.8734 86.0579 100.021 86.0579C102.169 86.0579 104.316 84.3394 106.464 84.3394C108.612 84.3394 110.76 86.0579 112.907 86.0579C114.005 86.0579 114.998 85.6939 115.875 85.1556C116.341 84.3615 116.77 83.546 117.16 82.7119C116.033 83.5498 114.587 84.1378 112.907 84.1378C110.76 84.1378 108.612 82.42 106.464 82.42C104.316 82.42 102.169 84.1378 100.021 84.1378C97.8734 84.1378 95.7257 82.42 93.5781 82.42ZM93.5781 86.0579C91.4305 86.0579 89.2829 87.7757 87.1353 87.7757C86.6684 87.7757 86.2253 87.7211 85.7955 87.6385C89.5104 92.6022 94.5798 95.9251 100.017 97.8354C105.442 95.9279 110.504 92.6029 114.217 87.6469C113.797 87.726 113.363 87.7757 112.907 87.7757C110.76 87.7757 108.612 86.0579 106.464 86.0579C104.316 86.0579 102.169 87.7757 100.021 87.7757C97.8734 87.7757 95.7257 86.0579 93.5781 86.0579Z" fill="white"/>
<path fill-rule="evenodd" clip-rule="evenodd" d="M90.333 39.2412H95.205L92.769 43.4601" fill="#FFE500"/>
<path fill-rule="evenodd" clip-rule="evenodd" d="M90.333 42.0522H95.205L92.769 37.8333" fill="#FFE500"/>
<path fill-rule="evenodd" clip-rule="evenodd" d="M104.837 39.2412H109.709L107.273 43.4601" fill="#FFE500"/>
<path fill-rule="evenodd" clip-rule="evenodd" d="M104.837 42.0522H109.709L107.273 37.8333" fill="#FFE500"/>
<path fill-rule="evenodd" clip-rule="evenodd" d="M97.585 48.9536H102.457L100.021 53.1725" fill="#FFE500"/>
<path fill-rule="evenodd" clip-rule="evenodd" d="M97.585 51.7646H102.457L100.021 47.5457" fill="#FFE500"/>
<path fill-rule="evenodd" clip-rule="evenodd" d="M76.0667 40.2998C75.4523 40.5473 74.8411 40.8029 74.2334 41.0665L76.2334 72.2331C77.6001 88.5331 88.2334 97.9998 100 101.733C111.8 97.9998 122.4 88.5331 123.8 72.2331L125.767 41.1665C125.162 40.864 124.551 40.575 123.933 40.2998L122.067 71.1998C121.77 77.6637 119.494 83.8803 115.547 89.0078C111.6 94.1352 106.173 97.9259 100 99.8665C93.8272 97.9259 88.3999 94.1352 84.4529 89.0078C80.5059 83.8803 78.23 77.6637 77.9334 71.1998L76.0667 40.2998Z" fill="#FF0000"/>
</g>
<defs>
<clipPath id="clip0_5_2031">
<rect width="400" height="200" fill="white"/>
</clipPath>
</defs>
</svg>
