<svg width="300" height="200" viewBox="0 0 300 200" fill="none"
    xmlns="http://www.w3.org/2000/svg">
    <path d="M150 51.8501L135.121 97.6417L158.017 105.081L150 51.8501Z" fill="white"/>
    <path d="M149.999 51.8501L164.878 97.6417L141.982 105.081L149.999 51.8501Z" fill="white"/>
    <path d="M195.793 85.1211H147.645V109.195L195.793 85.1211Z" fill="white"/>
    <path d="M195.793 85.1206L156.84 113.421L142.69 93.945L195.793 85.1206Z" fill="white"/>
    <path d="M104.206 85.1206L143.159 113.421L157.309 93.945L104.206 85.1206Z" fill="white"/>
    <path d="M104.206 85.1211H152.354V109.195L104.206 85.1211Z" fill="white"/>
    <path d="M178.301 138.954L163.422 93.1625L140.526 100.602L178.301 138.954Z" fill="white"/>
    <path d="M178.301 138.954L139.348 110.653L153.498 91.177L178.301 138.954Z" fill="white"/>
    <path d="M121.697 138.954L160.65 110.653L146.5 91.177L121.697 138.954Z" fill="white"/>
    <path d="M121.697 138.954L136.576 93.1625L159.472 100.602L121.697 138.954Z" fill="white"/>
</svg>
