<svg xmlns="http://www.w3.org/2000/svg" viewBox="0 0 380 200"><g><path d="M190 20L183.82 39.0211L193.33 42.1113" fill="white" />
<path d="M190 20L196.18 39.0211L186.67 42.1113" fill="white" />
<path d="M209.021 33.8197H189.021V43.8197" fill="white" />
<path d="M209.021 33.8197L192.841 45.5754L186.963 37.4852" fill="white" />
<path d="M201.756 56.1803L195.575 37.1592L186.065 40.2494" fill="white" />
<path d="M201.756 56.1803L185.575 44.4246L191.453 36.3345" fill="white" />
<path d="M178.244 56.1803L194.425 44.4246L188.547 36.3345" fill="white" />
<path d="M178.244 56.1803L184.425 37.1592L193.935 40.2494" fill="white" />
<path d="M170.979 33.8197L187.159 45.5754L193.037 37.4852" fill="white" />
<path d="M170.979 33.8197H190.979V43.8197" fill="white" />
<path d="M270 100L250.979 93.8198L247.889 103.33" fill="white" />
<path d="M270 100L250.979 106.18L247.889 96.6699" fill="white" />
<path d="M256.18 119.021V99.0212H246.18" fill="white" />
<path d="M256.18 119.021L244.425 102.841L252.515 96.963" fill="white" />
<path d="M233.82 111.756L252.841 105.575L249.751 96.0649" fill="white" />
<path d="M233.82 111.756L245.575 95.5755L253.666 101.453" fill="white" />
<path d="M233.82 88.2444L245.575 104.425L253.666 98.5469" fill="white" />
<path d="M233.82 88.2444L252.841 94.4247L249.751 103.935" fill="white" />
<path d="M256.18 80.979L244.425 97.1593L252.515 103.037" fill="white" />
<path d="M256.18 80.979V100.979H246.18" fill="white" />
<path d="M190 180L196.18 160.979L186.67 157.889" fill="white" />
<path d="M190 180L183.82 160.979L193.33 157.889" fill="white" />
<path d="M170.979 166.18H190.979V156.18" fill="white" />
<path d="M170.979 166.18L187.159 154.425L193.037 162.515" fill="white" />
<path d="M178.244 143.82L184.425 162.841L193.935 159.751" fill="white" />
<path d="M178.244 143.82L194.425 155.575L188.547 163.666" fill="white" />
<path d="M201.756 143.82L185.575 155.575L191.453 163.666" fill="white" />
<path d="M201.756 143.82L195.575 162.841L186.065 159.751" fill="white" />
<path d="M209.021 166.18L192.841 154.425L186.963 162.515" fill="white" />
<path d="M209.021 166.18H189.021V156.18" fill="white" />
<path d="M110 99.9999L129.021 106.18L132.111 96.6697" fill="white" />
<path d="M110 99.9999L129.021 93.8196L132.111 103.33" fill="white" />
<path d="M123.82 80.9788V100.979H133.82" fill="white" />
<path d="M123.82 80.9788L135.575 97.1591L127.485 103.037" fill="white" />
<path d="M146.18 88.2442L127.159 94.4245L130.249 103.935" fill="white" />
<path d="M146.18 88.2442L134.425 104.425L126.334 98.5467" fill="white" />
<path d="M146.18 111.756L134.425 95.5753L126.334 101.453" fill="white" />
<path d="M146.18 111.756L127.159 105.575L130.249 96.0647" fill="white" />
<path d="M123.82 119.021L135.575 102.841L127.485 96.9628" fill="white" />
<path d="M123.82 119.021V99.021H133.82" fill="white" />
</g></svg>