<?xml version='1.0' encoding='us-ascii'?>
<svg xmlns="http://www.w3.org/2000/svg" width="300" height="200" viewBox="0 0 300 200" fill="none">
    <g clip-path="url(#clip0_5_9955)">
        <path d="M160.579 62.5299C158.917 61.9399 157.843 62.7982 157.897 64.9446C157.95 67.0912 159.078 68.3252 160.741 67.5202L160.579 62.5302V62.5299Z" fill="white" stroke="black" stroke-width="0.17366666666666666" />
        <path d="M162.039 58.5099C160.655 57.4166 159.363 57.8852 158.724 59.9352C158.085 61.9849 158.756 63.5159 160.589 63.2879L162.039 58.5102V58.5099Z" fill="white" stroke="black" stroke-width="0.17366666666666666" />
        <path d="M164.346 54.6199C163.153 53.3182 161.803 53.5739 160.843 55.4949C159.885 57.4159 160.302 59.0342 162.149 59.1032L164.346 54.6199ZM162.833 73.5299C160.794 74.2812 160.578 77.0716 161.867 78.7886C163.155 80.5056 165.516 80.8276 166.803 78.7886L162.833 73.5286L162.833 73.5299Z" fill="white" stroke="black" stroke-width="0.17366666666666666" />
        <path d="M160.473 67.6266C158.541 66.9826 156.801 69.5776 156.502 71.9193C156.127 74.8706 151.941 75.8363 154.249 80.2903C154.731 77.4463 156.61 75.8903 158.112 75.783C159.615 75.6756 161.869 75.3536 162.834 73.5293L160.473 67.6266ZM166.59 79.11C164.335 79.6466 164.013 82.6516 165.623 84.798C167.001 86.6356 171.311 86.193 171.204 84.3686L166.59 79.11ZM172.976 97.1933C173.083 95.2616 169.972 94.5103 168.469 94.886C166.967 95.2616 164.096 94.8326 163.425 93.2226C162.889 94.5103 163.667 95.9056 165.84 96.603C167.485 97.1313 167.45 98.3203 166.967 98.857C168.201 99.0716 171.85 99.0716 172.976 97.1936V97.1933Z" fill="white" stroke="black" stroke-width="0.17366666666666666" />
        <path d="M171.206 84.8532C169.006 83.8876 167.702 85.3586 166.86 86.7849C165.626 88.8776 161.816 86.1949 160.528 88.9849C162.273 88.2339 164.048 89.8359 164.874 90.3802C167.235 91.9362 171.797 91.4536 172.441 87.8046L171.206 84.8532Z" fill="white" stroke="black" stroke-width="0.17366666666666666" />
        <path d="M172.493 87.4265C170.293 89.0898 169.435 91.0752 169.489 92.4168C169.543 93.7585 171.421 96.7095 173.46 96.8705C174.641 94.4558 175.231 89.3582 172.494 87.4265H172.493ZM163.373 97.7832C163.373 96.9782 164.554 96.6565 165.358 96.9245C166.164 97.1928 167.397 97.9979 166.968 98.8565L163.373 97.7832ZM151.243 93.3832C151.029 92.4175 152.585 90.7538 154.678 91.6662C156.77 92.5782 157.039 94.3492 156.179 95.0468L151.243 93.3835V93.3832Z" fill="white" stroke="black" stroke-width="0.17366666666666666" />
        <path d="M156.34 95.1533C156.179 94.6166 157.685 93.5449 160.258 94.1873C162.833 94.8313 163.464 96.4896 163.37 97.7826L156.34 95.1533ZM150.976 93.3833C152.318 92.3639 151.81 90.4316 150.6 89.8416C148.4 88.7683 149.205 85.9783 147.81 85.4416C146.415 84.9049 145.074 83.9389 145.02 82.9733C144.322 84.3146 144.751 85.5489 145.718 86.4076C146.683 87.2663 144.967 90.7539 146.2 91.6663L150.976 93.3833ZM122.213 92.6333C121.086 90.8626 118.403 91.1846 117.276 92.4186C116.15 93.6529 116.311 95.4773 117.384 96.2819L122.213 92.6333ZM128.653 90.0033C128.224 87.6423 125.38 87.3739 123.824 87.9643C122.268 88.5543 121.194 90.9156 122.214 92.6326L128.653 90.0033H128.653Z" fill="white" stroke="black" stroke-width="0.17366666666666666" />
        <path d="M132.946 89.6799C133.965 87.6946 131.98 84.7432 129.726 84.3139C127.845 83.9559 125.621 83.9652 124.897 82.1139C124.441 83.7239 125.648 84.7432 127.043 85.6556C128.438 86.5679 126.775 88.9289 129.029 90.2702L132.946 89.6802L132.946 89.6799Z" fill="white" stroke="black" stroke-width="0.17366666666666666" />
        <path d="M132.733 89.7499C132.263 88.3276 133.216 86.4356 135.143 86.5683C137.072 86.7009 138.17 88.1016 137.32 89.8533L132.732 89.7499H132.733Z" fill="white" stroke="black" stroke-width="0.17366666666666666" />
        <path d="M137.023 89.8566C136.757 88.3826 137.966 86.6432 139.856 87.0449C141.747 87.4466 142.637 88.9882 141.551 90.6032L137.023 89.8566Z" fill="white" stroke="black" stroke-width="0.17366666666666666" />
        <path d="M141.286 90.5333C141.094 89.0476 142.389 87.3706 144.257 87.8663C146.125 88.3619 146.937 89.9463 145.771 91.5046L141.286 90.5333ZM108.906 115.117C105.311 115.117 104.433 115.973 103.916 119.678C103.272 124.292 109.55 124.829 108.906 115.117Z" fill="white" stroke="black" stroke-width="0.17366666666666666" />
        <path d="M110.516 110.287C104.989 108.194 101.985 116.94 96.5112 115.384C98.4696 118.497 103.217 115.39 104.989 115.706C107.994 116.243 114.487 115.116 110.516 110.287ZM106.92 122.253C104.183 121.019 101.232 125.205 101.768 127.029C102.45 129.346 108.69 127.458 106.92 122.253ZM94.1496 140.283C95.6522 140.711 97.4762 141.571 97.1546 144.468C96.8326 147.365 91.3596 153.268 86.4229 153.59C81.4862 153.913 79.7152 159.868 75.4762 158.204C79.4469 157.454 79.4469 152.946 82.5592 151.552C80.3052 150.746 79.1249 155.845 76.2276 155.845C73.3299 155.845 71.9349 160.459 68.3932 160.136C64.8516 159.815 64.4789 165.754 57.3932 165.825C51.9732 165.878 45.2662 172.21 42.8516 169.474C48.1102 168.723 50.2322 165.809 53.3689 162.605C58.4129 157.455 64.1009 159.761 66.0322 155.2C63.7249 156.756 61.0422 157.507 58.4129 157.455C55.1122 157.386 51.4909 162.713 47.7882 160.352C49.9346 160.084 51.3299 159.171 53.5836 156.81C55.8912 154.392 59.2779 155.955 61.9546 153.484C66.1399 149.62 69.7352 152.839 73.7596 148.01C72.6326 147.474 70.2179 147.849 67.9642 149.029C65.7102 150.21 62.8129 148.224 60.2372 149.62C60.5589 146.454 66.5689 148.266 70.3252 146.078C74.5646 143.61 78.0792 144.334 81.4329 144.629C76.7646 144.603 74.9402 140.175 68.5012 141.463C65.6929 142.025 63.4572 137.6 60.6669 139.853C60.7469 138.191 63.6719 136.849 66.6769 138.459C69.6816 140.068 70.8929 137.05 76.8722 140.82C79.3406 142.375 83.5796 139.853 86.2622 141.517C85.9136 140.498 84.3842 139.853 82.5869 139.988C83.7136 137.681 90.9846 137.975 94.1502 140.284L94.1496 140.283Z" fill="white" stroke="black" stroke-width="0.17366666666666666" />
        <path d="M98.9261 136.793C96.5651 134.969 93.2918 137.169 91.0381 136.31C91.0381 137.812 91.7894 140.067 94.2578 140.925C95.0091 140.389 98.3894 137.437 98.9261 136.793Z" fill="white" stroke="black" stroke-width="0.17366666666666666" />
        <path d="M102.63 131.59C98.9271 129.712 98.2834 134.38 95.3857 133.414C95.4931 134.756 96.5664 136.419 98.9274 136.795L102.63 131.59Z" fill="white" stroke="black" stroke-width="0.17366666666666666" />
        <path d="M104.83 127.35C99.3564 125.203 98.6588 130.462 95.4395 129.443C96.1908 131.267 100.805 132.233 103.166 131.589L104.83 127.35ZM112.34 104.33C110.891 102.291 107.832 103.954 107.349 106.369C106.866 108.784 108.047 112.164 110.086 111.413L112.34 104.33Z" fill="white" stroke="black" stroke-width="0.17366666666666666" />
        <path d="M116.042 97.8899C113.52 97.2999 110.623 97.5679 110.945 100.037C109.979 100.466 109.71 103.632 112.34 104.329L116.042 97.8896V97.8899Z" fill="white" stroke="black" stroke-width="0.17366666666666666" />
        <path d="M117.706 96.2265C115.237 93.3289 112.485 93.3965 110.945 94.6165C108.101 96.8705 105.337 95.5825 105.257 97.8365C106.974 96.5215 108.477 98.1045 109.872 97.6215C111.267 97.1389 112.286 99.8215 116.15 98.6949L117.706 96.2265ZM111.749 139.533C112.125 140.231 114.432 140.553 115.559 139.372C117.052 137.807 115.398 133.469 113.037 133.147C110.676 132.825 110.461 138.031 111.749 139.533Z" fill="white" stroke="black" stroke-width="0.17366666666666666" />
        <path d="M109.066 139.64C112.447 140.873 113.896 138.083 112.071 136.313C111.588 136.903 109.817 139.05 109.066 139.64Z" fill="white" stroke="black" stroke-width="0.17366666666666666" />
        <path d="M96.4028 144.253C95.7588 146.185 92.4318 146.508 88.6758 152.517C84.9194 158.527 81.3244 156.005 80.4121 160.137C84.9194 156.488 88.4594 158.912 91.1438 155.307C95.2221 149.834 98.5801 150.62 100.159 146.936C102.412 141.678 112.286 141.785 112.822 133.522C109.496 132.878 98.9781 141.785 96.4028 144.253V144.253ZM181.079 63.12C185.372 64.515 185.479 70.0956 190.415 71.92C195.353 73.7443 195.836 78.1443 199.86 77.0713C196.104 76.0516 196.372 71.7053 192.455 70.632C187.861 69.3733 186.123 62.3683 182.473 61.2953M200.773 92.2566C201.524 93.9736 201.417 97.0323 198.734 97.8373C200.182 98.7496 202.328 97.8906 203.509 95.9056C201.738 99.8226 202.919 103.364 205.709 104.062C204.367 101.325 207.373 100.037 206.407 98.2666C208.178 99.018 209.734 101.433 209.68 102.935C211.988 100.359 207.963 96.925 208.714 94.5106L200.773 92.257V92.2566ZM172.976 119.837C170.347 117.529 169.225 120.44 167.932 119.434C166.725 118.495 165.115 118.361 164.498 119.3C166.752 119.381 165.651 121.124 170.025 121.554C165.651 121.849 166.457 126.732 163.532 126.49C166.644 129.442 168.254 123.861 170.776 124.774C170.025 124.988 171.957 126.759 170.615 129.12C172.788 129.066 173.673 126.061 173.943 124.505L172.976 119.837ZM115.076 144.897C114.11 144.092 111.32 143.716 110.247 144.361C109.173 145.004 109.549 145.165 110.837 145.273C112.125 145.38 113.788 147.463 110.998 147.58C109.71 147.633 110.139 150.745 107.456 150.961C108.556 152.302 111.696 151.416 112.822 149.941C112.608 151.148 114.217 152.248 113.574 153.697C115.559 153.912 114.405 149.673 117.545 149.887C116.257 150.048 116.793 152.946 119.047 152.194C117.705 152.839 118.403 154.394 119.905 154.019C118.94 154.341 118.618 155.575 119.959 156.273C121.247 154.503 119.798 148.171 115.076 144.897V144.897ZM231.949 85.69C236.056 85.69 239.385 82.36 239.385 78.2526C239.385 74.146 236.056 70.816 231.949 70.816C227.841 70.816 224.512 74.146 224.512 78.2526C224.512 82.36 227.841 85.69 231.949 85.69Z" fill="white" />
        <path d="M181.079 63.12C185.372 64.515 185.479 70.0956 190.415 71.92C195.353 73.7443 195.836 78.1443 199.86 77.0713C196.104 76.0516 196.372 71.7053 192.455 70.632C187.861 69.3733 186.123 62.3683 182.473 61.2953M96.4028 144.253C95.7588 146.185 92.4318 146.508 88.6758 152.517C84.9194 158.527 81.3244 156.005 80.4121 160.137C84.9194 156.488 88.4594 158.912 91.1438 155.307C95.2221 149.834 98.5801 150.62 100.159 146.936C102.412 141.678 112.286 141.785 112.822 133.522C109.496 132.878 98.9781 141.785 96.4028 144.253V144.253ZM200.773 92.2566C201.524 93.9736 201.417 97.0323 198.734 97.8373C200.182 98.7496 202.328 97.8906 203.509 95.9056C201.738 99.8226 202.919 103.364 205.709 104.062C204.367 101.325 207.373 100.037 206.407 98.2666C208.178 99.018 209.734 101.433 209.68 102.935C211.988 100.359 207.963 96.925 208.714 94.5106L200.773 92.257V92.2566ZM172.976 119.837C170.347 117.529 169.225 120.44 167.932 119.434C166.725 118.495 165.115 118.361 164.498 119.3C166.752 119.381 165.651 121.124 170.025 121.554C165.651 121.849 166.457 126.732 163.532 126.49C166.644 129.442 168.254 123.861 170.776 124.774C170.025 124.988 171.957 126.759 170.615 129.12C172.788 129.066 173.673 126.061 173.943 124.505L172.976 119.837ZM115.076 144.897C114.11 144.092 111.32 143.716 110.247 144.361C109.173 145.004 109.549 145.165 110.837 145.273C112.125 145.38 113.788 147.463 110.998 147.58C109.71 147.633 110.139 150.745 107.456 150.961C108.556 152.302 111.696 151.416 112.822 149.941C112.608 151.148 114.217 152.248 113.574 153.697C115.559 153.912 114.405 149.673 117.545 149.887C116.257 150.048 116.793 152.946 119.047 152.194C117.705 152.839 118.403 154.394 119.905 154.019C118.94 154.341 118.618 155.575 119.959 156.273C121.247 154.503 119.798 148.171 115.076 144.897V144.897ZM231.949 85.69C236.056 85.69 239.385 82.36 239.385 78.2526C239.385 74.146 236.056 70.816 231.949 70.816C227.841 70.816 224.512 74.146 224.512 78.2526C224.512 82.36 227.841 85.69 231.949 85.69Z" stroke="black" stroke-width="0.17366666666666666" />
        <path d="M193.099 94.6732C195.354 92.5265 198.788 91.4535 201.148 93.0632C203.509 94.6732 211.344 96.6049 215.208 93.9219C219.07 91.2389 220.895 89.8435 222.612 90.1655C223.901 92.0975 225.456 93.0095 227.388 93.1705C227.978 93.8145 230.072 94.3512 231.252 94.1899C232.969 94.6192 235.062 94.0829 236.725 92.2582C239.301 92.6339 241.715 90.7022 242.627 87.8049C245.363 87.4829 245.525 84.4239 243.808 82.3849C242.198 82.0632 243.433 76.6432 237.583 77.7165C240.052 79.2192 238.173 82.2239 240.213 83.6192C238.818 83.6192 237.02 84.2095 236.591 86.3025C237.127 84.8535 236.511 83.8875 236.134 83.5659C236.188 82.3315 233.452 79.2999 230.876 80.3999C232.727 80.8022 231.681 83.7805 233.023 84.9072C232.056 84.9609 231.037 85.4439 230.447 86.3022C229.749 85.0682 227.281 83.7802 225.779 83.6729C225.779 83.2435 225.698 82.3852 225.511 81.9562C224.84 80.6682 224.276 79.1389 224.544 77.1802C223.256 78.5752 222.183 80.5069 221.54 81.9022C219.501 80.5072 214.456 82.5462 212.095 83.0825C209.734 83.6192 201.793 82.3315 199.968 80.3995C198.144 78.4679 194.602 77.2875 191.276 76.3215C186.701 74.9939 186.661 69.9899 181.616 66.5555C181.51 72.7802 190.954 92.5269 193.1 94.6732H193.099ZM140.513 142.107C144.484 142.107 147.703 138.887 147.703 134.916C147.703 130.945 144.484 127.726 140.513 127.726C136.542 127.726 133.322 130.946 133.322 134.916C133.322 138.887 136.542 142.107 140.513 142.107Z" fill="white" stroke="black" stroke-width="0.17366666666666666" />
        <path d="M123.339 136.58C124.788 138.458 127.256 138.351 128.276 138.19C129.135 140.443 131.871 140.39 133.052 141.623C134.232 142.858 138.256 142.751 139.437 142.053C138.364 141.946 136.969 141.303 135.627 140.175C134.008 138.815 134.769 136.097 133.481 135.131C134.447 134.058 134.608 132.287 134.393 131.59C135.413 130.999 136.164 130.033 136.271 129.55C138.042 129.443 139.598 128.531 140.242 127.834C141.155 128.692 143.462 127.565 144.697 129.014C144.965 125.472 141.584 123.594 139.33 124.775C138.417 124.292 136.003 124.614 135.574 125.258C134.823 124.936 132.73 126.009 131.764 126.707C132.837 126.117 132.998 124.346 132.569 123.702C133.481 123.326 134.501 122.092 134.608 121.18C135.896 121.394 137.827 120.536 138.685 120.75C137.291 118.926 134.984 118.282 132.622 118.443C130.181 118.577 129.135 120.294 128.813 122.146C127.364 123.004 126.881 125.902 127.418 126.921C126.586 126.895 125.808 127.7 125.486 128.156C124.359 127.672 122.749 127.324 121.596 127.324M122.106 124.4C121.623 123.005 122.263 121.749 122.589 120.644C123.421 117.827 122.911 117.102 120.389 117.478C120.174 118.82 121.462 123.22 122.106 124.4Z" fill="white" />
        <path d="M123.339 136.58C124.788 138.458 127.256 138.351 128.276 138.19C129.135 140.443 131.871 140.39 133.052 141.623C134.232 142.858 138.256 142.751 139.437 142.053C138.364 141.946 136.969 141.303 135.627 140.175C134.008 138.815 134.769 136.097 133.481 135.131C134.447 134.058 134.608 132.287 134.393 131.59C135.413 130.999 136.164 130.033 136.271 129.55C138.042 129.443 139.598 128.531 140.242 127.834C141.155 128.692 143.462 127.565 144.697 129.014C144.965 125.472 141.584 123.594 139.33 124.775C138.417 124.292 136.003 124.614 135.574 125.258C134.823 124.936 132.73 126.009 131.764 126.707C132.837 126.117 132.998 124.346 132.569 123.702C133.481 123.326 134.501 122.092 134.608 121.18C135.896 121.394 137.827 120.536 138.685 120.75C137.291 118.926 134.984 118.282 132.622 118.443C130.181 118.577 129.135 120.294 128.813 122.146C127.364 123.004 126.881 125.902 127.418 126.921C126.586 126.895 125.808 127.7 125.486 128.156C124.359 127.672 122.749 127.324 121.596 127.324M122.106 124.4C121.623 123.005 122.263 121.749 122.589 120.644C123.421 117.827 122.911 117.102 120.389 117.478C120.174 118.82 121.462 123.22 122.106 124.4Z" stroke="black" stroke-width="0.17366666666666666" />
        <path d="M120.256 117.637C120.9 118.281 123.181 118.576 123.422 116.537C123.699 114.196 122.751 113.29 120.712 114.202C120.551 114.739 120.363 116.939 120.256 117.637Z" fill="white" stroke="black" stroke-width="0.17366666666666666" />
        <path d="M120.739 114.123C121.598 114.472 123.449 115.17 124.469 113.184C125.324 111.519 124.2 110.233 122.43 110.34C122 110.823 121.142 112.54 120.739 114.123Z" fill="white" stroke="black" stroke-width="0.17366666666666666" />
        <path d="M122.323 110.18C122.538 110.824 124.738 112.97 126.348 111.414C127.958 109.858 127.958 107.551 125.543 106.692C124.899 106.799 122.967 109.053 122.323 110.18Z" fill="white" stroke="black" stroke-width="0.17366666666666666" />
        <path d="M125.54 106.693C126.023 108.035 127.525 110.342 130.316 109.269C133.106 108.196 131.926 104.708 130.638 104.01C129.886 104.064 126.828 105.459 125.54 106.693Z" fill="white" stroke="black" stroke-width="0.17366666666666666" />
        <path d="M130.639 104.01C130.424 105.191 130.639 108.41 134.449 108.356C138.258 108.303 137.186 103.849 136.22 103.205C134.663 103.205 132.034 103.258 130.639 104.01Z" fill="white" stroke="black" stroke-width="0.17366666666666666" />
        <path d="M136.38 103.363C135.95 104.276 134.983 110.28 142.443 108.622C143.409 108.407 145.931 102.88 136.38 103.363Z" fill="white" stroke="black" stroke-width="0.17366666666666666" />
        <path d="M140.456 103.9C139.706 104.651 141.637 110.715 146.681 109.695C151.725 108.675 147.487 102.934 140.456 103.9Z" fill="white" stroke="black" stroke-width="0.17366666666666666" />
        <path d="M144.75 104.813C143.945 106.477 145.154 111.413 151.377 111.413C157.018 111.413 151.082 104.921 144.75 104.813Z" fill="white" stroke="black" stroke-width="0.17366666666666666" />
        <path d="M149.633 106.263C149.229 107.185 148.734 112.419 156.072 112.863C161.384 113.185 160.097 105.673 149.633 106.263Z" fill="white" stroke="black" stroke-width="0.17366666666666666" />
        <path d="M157.523 108.463C156.612 110.073 155.646 114.098 163.694 114.42C168.851 114.626 165.68 108.571 157.523 108.463Z" fill="white" stroke="black" stroke-width="0.17366666666666666" />
        <path d="M164.23 109.697C163.049 111.307 163.919 114.464 166.912 115.063C170.669 115.814 171.205 112.273 168.63 110.555C166.053 108.838 164.23 109.697 164.23 109.697Z" fill="white" stroke="black" stroke-width="0.17366666666666666" />
        <path d="M167.88 110.447C167.021 111.949 167.553 115.598 173.245 115.598C174.426 115.598 178.934 110.983 167.88 110.447ZM123.826 180.423C128.436 180.423 132.174 176.686 132.174 172.076C132.174 167.465 128.436 163.727 123.826 163.727C119.216 163.727 115.479 167.465 115.479 172.076C115.479 176.686 119.216 180.423 123.826 180.423Z" fill="white" stroke="black" stroke-width="0.17366666666666666" />
        <path d="M185.049 59.0432C184.405 59.6872 183.065 61.6189 182.795 62.3699C180.005 70.7409 187.453 76.9935 191.81 85.9799C195.245 93.0632 194.816 104.224 189.449 111.307C187.613 113.73 188.162 114.42 185.801 116.888C184.895 117.835 183.869 119.035 184.191 122.469C185.694 121.932 187.84 123.327 188.269 124.508C189.342 123.971 190.845 124.186 191.381 124.83C193.205 123.971 194.708 124.4 196.317 126.118C197.713 125.903 199.216 126.118 200.61 127.62C201.362 126.118 202.864 125.581 203.937 125.903C203.83 123.971 205.762 122.576 207.478 123.327C206.942 120.752 209.303 118.82 211.558 119.571C213.488 118.069 217.352 117.961 219.284 120.215C215.849 119.249 215.957 122.898 213.059 122.576C213.81 124.723 211.878 125.957 209.948 126.654C211.181 126.064 212.523 125.366 212.952 126.117C214.025 125.179 216.171 125.527 216.709 126.01C218.13 125.554 219.499 125.903 220.142 127.62C222.074 128.801 223.362 131.805 221.967 134.059C221.538 131.698 219.928 131.806 219.284 130.84C217.781 131.376 216.278 131.376 215.849 130.41C214.991 131.269 212.094 132.02 210.806 130.732C210.323 132.664 208.659 134.274 206.727 134.274C207.264 135.776 205.762 138.353 204.581 139.64C206.406 140.605 205.869 142.752 205.439 144.04C208.23 144.469 205.869 146.937 210.698 148.547C208.338 149.298 203.723 148.547 203.078 145.65C200.717 145.543 199.107 143.182 199.216 140.712C197.391 138.995 197.123 136.527 199.645 134.81C197.498 135.454 196.317 132.02 193.205 133.415C191.657 134.109 187.571 132.932 187.625 131.483C186.981 132.557 183.064 132.128 182.527 130.303C181.239 131.001 178.233 129.82 178.288 128.049C176.624 128.801 174.371 127.459 174.478 125.742C172.922 125.527 172.761 124.132 172.868 122.952C171.472 122.308 171.849 120.966 172.385 119.357C171.42 118.283 171.849 116.781 172.6 115.386C171.527 114.312 171.742 113.025 172.063 111.522C166.911 111.093 160.458 109.851 145.663 105.298C123.34 98.4296 117.33 114.527 122.267 124.615C127.963 136.255 121.623 138.782 123.555 147.475C125.594 147.904 126.667 149.621 126.56 151.446C127.767 151.499 128.625 152.625 128.196 154.773C129.216 154.585 130.531 154.879 131.389 155.738C132.14 154.343 134.609 154.021 135.897 155.631C138.687 155.415 140.082 157.67 139.975 160.46C141.477 163.143 140.94 166.417 139.331 168.509C139.492 167.382 139.331 165.773 139.278 164.807C139.178 163.031 136.701 162.66 136.97 161.211C135.682 161.318 134.448 160.621 134.019 159.656C133.267 160.299 132.194 160.514 131.282 160.192C132.731 160.836 133.858 163.411 133.428 165.128C134.18 166.417 134.018 168.778 133.106 169.797C132.677 171.889 131.067 172.641 128.975 171.728C130.155 170.978 130.585 169.636 130.531 168.508C129.78 167.865 129.404 166.631 129.35 165.879C127.258 166.201 124.36 164.431 123.826 163.731C119.215 163.731 115.478 167.468 115.478 172.079C115.263 170.361 113.091 168.67 113.36 167.221C112.072 163.25 113.896 159.547 119.155 158.797C118.511 157.295 120.765 155.737 119.906 154.021C118.81 151.828 116.794 148.977 113.79 145.65C115.614 142.537 115.077 138.353 114.004 135.777C112.463 132.078 110.999 132.987 105.526 138.996C96.6058 148.79 84.7058 146.079 74.1885 152.518C71.3938 154.229 68.6081 154.879 71.6128 151.875C74.6178 148.87 82.5595 145.866 87.7105 143.289C97.3571 138.466 105.525 130.411 108.745 114.743C116.311 77.9225 144.158 90.0592 161.758 96.9275C178.282 103.376 175.281 88.7709 166.91 79.9709C156.849 69.3939 158.861 61.0832 163.583 54.4292C172.061 53.2485 188.321 56.1999 185.047 59.0442L185.049 59.0432Z" fill="white" stroke="black" stroke-width="0.17366666666666666" />
        <path d="M214.94 149.493C220.012 149.493 224.124 145.382 224.124 140.31C224.124 135.237 220.012 131.125 214.94 131.125C209.867 131.125 205.755 135.237 205.755 140.31C205.755 145.382 209.868 149.493 214.94 149.493Z" fill="white" stroke="black" stroke-width="0.17366666666666666" />
        <path d="M179.899 59.47C177.86 68.485 179.577 72.563 182.583 76.5336C188.792 84.7406 193.744 103.471 186.66 115.704" stroke="black" stroke-width="0.17366666666666666" />
        <path d="M190.629 105.137C191.488 104.815 193.097 103.795 193.474 102.024M191.273 101.22C191.541 99.664 193.955 98.9933 194.009 97.33M191.326 95.1533C191.165 93.5433 193.741 92.0947 193.365 90.485M189.933 89.36C189.717 88.4477 192.079 86.7307 191.435 85.282M188.163 83.7267C187.679 82.707 189.289 81.5267 188.592 80.4533M185.586 79.2167C185.425 78.5193 186.418 76.99 185.882 76.078M183.009 73.9067C183.223 73.6383 184.083 72.9943 183.733 72.1897M181.239 70.0167C181.588 69.8287 182.634 69.5067 182.5 68.729" stroke="black" stroke-width="0.17366666666666666" stroke-linecap="round" />
        <path d="M127.526 171.19C125.379 170.439 122.697 171.512 122.16 173.337M123.769 175C124.038 173.177 126.828 172.371 127.686 173.229C125.916 172.264 125.057 175.697 126.613 175.806M141.049 132.557C139.762 133.201 139.387 135.562 141.049 137.333M142.979 133.093C142.068 133.845 142.121 136.098 143.463 136.635C142.336 135.83 143.463 134.435 144.268 134.381C145.072 134.328 145.608 135.293 144.643 136.259M218.373 138.403C215.369 137.599 212.953 141.087 215.689 144.199C215.637 141.194 217.783 139.209 220.412 139.745M219.203 141.823C218.464 141.823 218.049 142.401 218.049 142.963C218.049 143.554 218.558 144.118 219.39 144.118C219.928 144.118 220.357 143.501 220.357 143.018M229.8 75.9433C230.283 77.7676 232.805 78.519 234.79 78.09M234.789 76.91C233.234 76.9636 231.946 75.515 232.053 74.2806C232.053 75.193 234.146 75.6223 234.789 75.032" stroke="black" stroke-width="0.17366666666666666" stroke-linecap="round" stroke-linejoin="round" />
        <path d="M128.276 138.19C127.847 137.117 129.564 136.043 129.618 135.023C129.671 134.004 131.549 133.199 133.481 135.131M132.569 123.703C132.194 123.864 131.872 124.079 131.55 124.186M136.273 129.55C135.816 129.577 134.878 129.523 134.368 129.174M134.396 131.59C134.02 131.778 133.188 132.1 132.705 132.207M115.989 164C115.936 164.967 116.902 166.361 117.438 166.79M120.176 161.693C119.639 162.498 119.318 163.893 119.639 164.859M128.169 164.913C127.203 164.269 127.847 162.605 127.74 161.533C127.633 160.459 128.867 158.743 131.282 160.191M119.156 158.797C120.122 158.636 121.141 158.688 121.785 158.957M131.389 155.737C130.96 156.327 130.853 156.971 130.799 157.401M135.896 155.63C135.145 155.63 134.501 156.166 134.179 156.703M125.486 128.157C126.345 128.452 128.571 129.82 128.652 131.242M134.609 121.18C131.98 121.126 130.961 118.443 132.946 118.443M139.333 124.773C138.313 125.203 138.797 126.973 140.245 127.832M133.053 141.623C132.543 140.98 133.214 139.102 134.877 139.665M136.969 161.21C137.076 159.574 139.143 158.607 139.975 160.459M129.349 165.877C129.215 164.079 130.127 163.489 130.932 163.382C131.737 163.275 132.891 163.945 133.428 165.125M113.359 167.22C113.467 166.147 114.379 165.02 115.345 165.181M211.556 119.57C210.857 120.08 210.402 122.36 213.057 122.575M207.479 123.327C207.479 123.595 207.828 123.971 208.043 124.132M220.143 127.62C219.445 127.083 217.647 129.257 219.284 130.84M203.079 145.65C202.677 144.121 204.099 143.718 205.44 144.04M199.646 134.81C200.45 134.273 201.256 133.683 202.275 133.415M199.216 140.71C199.216 139.423 199.859 138.35 200.449 138.028M203.936 125.903C203.829 127.459 204.474 128.962 204.957 129.767M216.709 126.01C215.93 126.252 215.233 126.547 214.938 127.191M215.849 130.41C216.226 130.088 216.655 129.713 216.843 129.444M236.133 83.5633C236.133 85.0656 234.255 85.8706 233.022 84.9046M240.213 83.6166C241.043 84.2606 243.914 83.6436 243.243 81.98M236.723 92.2566C236.133 92.1493 235.113 91.5053 234.684 90.969M242.626 87.8033C241.661 88.018 241.016 87.8033 240.533 87.5886M227.386 93.17C227.922 93.17 229.209 92.9553 230.096 92.4993M225.776 83.6733C225.079 83.5933 224.568 83.727 224.166 83.9953M236.589 86.3C236.402 86.971 235.918 88.017 235.328 88.4733" stroke="black" stroke-width="0.17366666666666666" stroke-linecap="round" />
        <path d="M223.953 88.6634C225.295 88.0734 226.959 92.6341 230.178 91.0244M230.446 86.3C230.017 86.89 229.749 87.8027 229.695 88.6074" stroke="black" stroke-width="0.17366666666666666" stroke-linecap="round" stroke-linejoin="round" />
        <path d="M166.269 79.3266C166.699 79.2733 167.45 79.112 167.611 78.5753M111.053 129.283C112.663 130.196 113.789 131.752 113.092 134.059M184.833 74.39C185.316 74.712 187.141 74.712 188.16 74.3366M189.449 75.4633C189.395 76.2147 189.61 79.0583 188.162 79.6487M188.699 79.2733C190.041 79.7027 192.724 79.5417 193.583 77.0733M191.703 79.1633C192.4 80.2367 192.614 82.3293 190.522 83.456M192.239 80.9366C193.795 81.4733 197.391 81.5267 197.014 78.4683M195.783 80.9366C196.856 82.439 201.579 84.21 200.827 81.0977M191.436 85.28C193.259 85.7093 195.836 84.475 194.763 81.2556M199.913 82.8667C200.181 84.101 206.19 85.3886 205.386 82.5983M204.259 84.21C205.387 86.7857 211.343 86.571 209.465 83.1367M208.499 85.8167C209.68 87.2657 214.94 86.4067 212.847 82.919M212.789 85.7633C216.063 88.2317 219.873 84.69 215.741 82.1143M217.619 84.96C220.518 87.2673 224.06 83.0816 221.537 81.9013M194.706 83.9933C195.618 84.2616 197.55 84.1543 197.979 82.491M197.256 83.6167C197.149 86.0583 201.255 86.9973 202.3 84.18M200.933 85.71C201.684 87.32 205.279 87.9633 205.869 85.6563M205.279 86.73C205.869 88.34 208.982 88.179 209.84 86.5153M208.713 87.59C209.678 89.6826 213.649 89.6827 214.561 86.624M213.866 87.9633C215.422 88.9293 218.749 88.5533 218.48 85.5486M217.836 87.6966C220.143 89.575 223.417 87.7503 221.807 84.5843M221.646 90.1633C222.881 89.9486 223.524 87.4803 222.236 86.8367M193.046 90.5933C195.621 89.1983 196.104 86.8373 194.333 84.53M195.246 88.2333C196.856 89.199 199.914 88.18 200.45 85.8186M197.446 88.5C198.357 89.6803 198.518 91.1293 197.338 92.4706M198.196 90.0033C201.039 88.2327 204.581 91.506 201.952 93.4913M201.469 89.8433C202.114 89.6823 203.24 88.502 203.347 87.1603M202.756 91.0767C203.937 89.8423 211.987 92.3647 206.888 94.94M206.513 87.6966C208.068 88.2866 208.874 90.487 206.513 91.2383M208.553 93.0633C210.269 91.2927 215.636 92.4193 213.704 94.6733M212.416 92.3633C213.381 89.09 219.123 91.129 217.245 92.4706M211.236 89.09C211.397 89.734 211.45 91.3436 210.378 92.2023M216.066 88.4466C216.28 88.9833 216.227 90.0027 215.744 90.6467M219.713 88.5C220.035 89.09 220.571 90.217 219.39 91.1293M173.783 63.8167C173.835 66.875 174.909 68.9143 179.041 66.9827M175.069 67.4666C173.03 70.2033 175.337 73.1547 179.362 70.2033M168.789 68.8067C171.579 71.8117 176.57 69.6117 173.35 65.0503M176.733 71.3833C176.195 74.3346 178.61 74.925 180.595 73.5833M166.323 69.29C166.831 72.257 169.864 74.6023 172.816 72.778M169.973 73.37C169.973 77.6093 175.821 78.092 177.163 73.692M175.069 76.3733C176.947 80.2366 181.025 78.6807 182.367 76.32M170.936 70.2033C171.687 72.0813 173.19 74.1743 176.678 72.618M160.206 69.29C160.689 70.846 163.479 72.7243 166.699 70.5777M162.189 71.2767C160.471 73.7987 163.906 76.1597 168.038 72.4033M164.229 74.39C164.927 77.9316 166.321 80.7757 171.365 76.2143M168.843 78.0367C170.668 80.29 173.458 81.6853 176.087 77.8757" stroke="black" stroke-width="0.17366666666666666" />
        <path d="M178.019 78.6799C177.858 81.3629 178.394 82.7043 180.487 82.5969C182.137 82.5126 183.707 81.2019 184.619 79.8069M180.112 82.5999C180.058 85.6586 182.472 88.0733 186.98 84.9609M181.989 86.1933C181.131 88.5006 183.706 92.2566 188.75 90.3249M171.312 80.0766C170.991 83.0279 173.728 85.0133 178.128 81.2033M173.459 83.3499C173.62 85.7646 176.356 88.6623 180.381 84.4766M175.389 86.4099C175.067 90.5416 178.877 91.7223 182.096 88.5566M169.649 83.3499C170.507 83.4036 171.205 82.6526 171.634 82.1156M171.472 86.3533C172.224 86.5143 173.512 85.8166 173.942 84.9583M173.352 91.2366C174.211 92.1489 177.108 91.5049 177.483 90.2709M176.572 91.1833C178.182 94.9393 182.474 94.7783 184.245 90.5393M183.439 92.0433C184.243 94.2433 186.283 95.6383 189.61 94.8873M185.049 94.2966C183.171 97.3553 185.639 100.95 189.824 97.4089M186.069 98.8566C185.855 100.788 187.626 102.988 190.04 103.257M178.126 93.2233C177.481 97.5696 180.594 99.6626 184.512 97.3549M173.566 95.3166C174.585 96.1216 176.41 96.2289 178.127 95.5849M180.219 98.1066C179.252 101.756 183.009 104.385 186.229 100.307M175.016 95.9066C175.07 97.7846 176.895 99.8236 180.06 99.2333M188.912 102.99C186.765 104.439 186.336 107.014 189.342 108.678M183.652 102.237C183.761 104.437 184.78 105.671 187.194 105.885M180.489 101.11C177.27 104.061 180.435 107.496 184.245 104.598M182.742 105.51C181.669 108.891 185.694 110.93 187.84 107.495M176.089 98.3199C174.908 101.647 176.411 103.847 179.147 103.632M171.849 97.6766C172.01 99.6619 173.727 100.36 175.659 99.9303M173.082 99.7699C171.634 102.56 173.834 104.063 176.732 102.99M185.532 109.213C185.049 110.984 185.317 112.272 187.946 112.862M185.692 111.737C182.526 113.186 182.258 116.244 184.726 118.229M183.142 108.33C181.48 109.833 181.801 112.435 183.626 113.454M169.059 98.5366C167.234 100.334 168.978 105.298 173.002 102.588M179.522 104.813C177.053 106.852 178.181 110.555 182.258 109.535M175.442 103.257C174.155 106.906 175.39 108.193 178.287 108.247" stroke="black" stroke-width="0.17366666666666666" />
        <path d="M166.376 98.3733C164.176 100.037 164.766 102.398 165.732 103.471C166.698 104.544 168.522 104.061 169.112 102.666M161.759 96.9266C159.291 100.093 161.759 103.849 165.248 102.722M174.962 106.317C172.44 107.229 170.516 109.519 172.063 111.522C172.976 112.702 176.947 112.863 178.074 108.302M170.399 103.363C168.95 105.456 169.432 107.442 172.115 108.461M170.239 107.283C168.682 108.142 167.662 109.162 168.039 111.04M166.752 104.01C166.162 106.532 166.859 108.088 168.415 108.839M166.699 107.013C164.284 106.852 163.05 107.872 163.855 110.233M164.069 107.603C161.708 106.745 161.331 104.706 162.351 102.559M162.029 105.727C159.452 105.834 158.326 107.122 158.326 108.893" stroke="black" stroke-width="0.17366666666666666" />
        <path d="M158.539 95.69C156.661 96.495 156.071 99.0166 156.768 100.412C157.467 101.807 159.667 101.915 161.008 101.002M153.282 93.7066C151.566 95.6383 153.55 99.3946 156.61 98.4823M148.882 92.2033C147.272 94.4566 149.043 98.2133 153.175 97.14M153.389 107.603C152.96 104.92 155.75 103.15 159.185 106.637M157.522 101.22C156.503 102.132 156.021 103.581 156.181 104.762M144.482 90.9166C142.711 93.9216 144.859 96.6583 148.668 95.585M154.409 98.3733C151.887 100.895 152.745 103.417 154.623 104.866M152.799 101.327C148.989 101.38 148.775 105.78 151.888 107.176M149.902 96.9266C148.347 98 147.863 100.951 150.547 102.132M149.796 103.527C148.186 102.775 146.254 103.688 146.415 105.566M147.379 103.58C145.93 100.146 141.691 100.736 142.068 104.278M148.559 99.34C147.648 99.501 145.823 100.037 145.126 101.433M145.396 95.4766C143.679 97.4083 145.019 99.7156 146.415 100.199M140.299 90.0566C139.977 92.364 140.889 93.491 143.787 93.2763M141.316 93.01C140.188 95.8 141.691 97.0343 144.588 96.8733M141.959 96.4433C140.242 98.4823 141.423 100.683 143.086 101.595M141.156 99.02C138.097 98.6443 137.614 102.186 138.633 103.849" stroke="black" stroke-width="0.17366666666666666" />
        <path d="M138.686 89.7899C136.809 90.5949 135.735 92.9559 136.755 94.4046C137.775 95.8532 139.814 95.3703 140.94 94.6193M137.399 95.0466C135.843 97.4076 137.238 99.1782 138.902 99.8759" stroke="black" stroke-width="0.17366666666666666" />
        <path d="M131.39 89.5199C130.156 90.8076 130.907 93.4372 133.912 93.4909C136.331 93.5342 137.56 91.2372 136.809 89.6276M133.483 93.4899C132.517 95.6366 133.107 97.9436 136.756 97.5679M138.313 100.95C136.06 99.9306 133.054 100.95 134.342 103.633M134.02 97.1399C133.107 98.4276 133.43 100.252 134.449 101.379M133.86 100.573C132.357 100.842 130.908 101.647 131.821 104.008M131.603 102.077C129.671 101.487 127.203 102.882 128.705 104.867M128.386 102.99C126.723 102.722 124.738 104.492 126.347 106.263M125.703 104.813C124.2 105.189 122.43 106.906 123.986 108.248M133.27 96.3899C131.123 97.3556 130.909 99.7706 131.928 101.541M131.013 91.9366C127.793 93.1709 127.847 97.4636 131.389 98.8049M129.886 97.8366C127.955 98.9632 127.579 101.11 128.867 102.505M126.506 90.3266C125.218 90.7559 125.326 94.7266 128.76 94.6192M122.966 91.6666C120.391 93.3836 123.503 97.7299 127.688 94.6179M125.38 95.6899C125.004 97.4609 125.487 99.3926 128.331 99.6072M125.54 98.0532C123.501 98.8042 123.125 102.99 126.827 103.312M119.05 94.2432C116.42 96.6579 121.196 98.7506 122.967 95.2629M115.4 98.2666C114.112 99.8226 118.619 103.901 120.605 97.0859M121.086 96.9799C121.194 98.5899 122.16 99.5556 124.145 99.6629M124.093 101.22C120.927 101.703 119.908 105.674 123.449 106.532M118.243 100.683C118.136 102.186 119.692 103.42 121.463 103.152M123.073 106.423C120.175 107.067 119.8 110.823 122.376 110.609M121.033 114.097C118.618 113.372 118.565 110.501 120.711 109.428" stroke="black" stroke-width="0.17366666666666666" />
        <path d="M119.049 111.573C117.01 112.808 117.815 115.759 118.888 116.188C119.962 116.617 120.82 116.081 120.928 115.169M120.766 119.3C120.981 120.695 115.802 120.159 118.459 115.812M118.429 119.543C116.686 122.28 119.529 124.507 121.327 122.173M118.673 122.843C117.975 125.043 120.631 126.627 122.348 124.909M112.876 102.237C111.91 104.222 116.739 104.973 117.061 100.895M111.536 105.19C110.57 109.053 117.868 108.249 115.99 103.258M116.149 105.833C117.169 106.423 120.228 106.477 120.979 103.204M118.779 105.94C118.994 106.959 119.906 108.193 120.765 108.569M115.293 106.96C114.971 109.053 117.063 110.77 119.478 110.609M115.666 109C114.486 110.61 114.11 113.722 117.813 113.937M110.033 109.537C109.443 111.2 112.93 112.917 114.969 110.181M108.959 113.773C108.664 115.035 111.803 116.725 113.574 111.359M112.179 114.097C112.931 115.438 115.453 116.511 117.009 113.882M114.486 115.493C113.842 117.371 115.613 119.142 117.759 118.606M110.463 115.063C110.033 117.746 113.146 119.302 115.077 117.907M108.423 116.243C107.511 119.678 111.911 120.965 113.574 118.39M112.449 119.41C112.61 121.342 115.615 123.005 117.976 121.395M107.083 121.02C106.868 121.878 110.463 122.737 111 119.732M109.176 121.77C110.034 123.97 112.932 124.507 114.596 121.824M113.629 122.897C114.005 124.936 116.634 126.063 118.942 124.667M119.906 125.473C119.316 128.21 122.16 130.41 123.93 128.908M115.346 124.99C114.488 127.995 118.244 129.712 120.336 128.049M110.839 123.487C110.625 126.277 112.825 127.94 115.347 126.706M106.063 123.757C105.311 125.581 109.282 127.083 111.16 125.528M103.593 128.747C104.612 129.927 108.154 128.747 108.476 126.117M107.513 128.047C108.8 129.549 111.859 130.354 113.093 127.134M112.019 128.8C111.966 131.107 116.098 132.771 117.439 128.532M122.293 129.363C121.917 130.49 122.803 132.288 124.654 132.502M118.886 128.667C118.618 129.954 120.496 131.752 122.481 131.028M122.859 131.563C122.323 132.958 122.779 134.97 124.657 134.944M123.046 134.167C121.651 135.347 122.241 137.44 124.254 137.521M122.323 136.15C120.337 137.491 121.035 140.442 123.664 140.283M116.313 130.463C116.313 133.361 119.908 133.79 120.605 131.107M119.209 132.823C118.673 134.54 120.068 136.204 122.268 135.721M119.639 153.537C120.123 154.235 122.108 153.055 121.571 151.874C121.034 150.694 118.931 151.335 119.156 152.571M121.086 151.39C121.354 149.029 118.564 148.654 117.866 150.693M118.886 149.513C119.584 148.333 117.223 146.723 116.257 148.44M117.116 147.74C117.76 146.022 115.077 145.272 114.862 146.828M114.273 144.573C114.595 143.715 117.599 144.251 116.312 146.022M118.619 148.17C119.8 147.097 117.815 144.897 116.58 145.702M126.559 151.443C125.62 151.55 124.654 152.167 125.352 154.153C125.835 155.531 127.901 155.602 128.196 154.77" stroke="black" stroke-width="0.17366666666666666" />
        <path d="M125.192 152.437C124.28 151.847 122.295 152.839 123.207 154.771C123.894 156.226 125.622 155.63 125.89 154.878M120.066 155.2C120.521 156.004 122.802 155.657 123.205 154.771M121.622 152.543C122.105 152.221 122.99 152.622 123.178 153.025M121.462 139.317C119.906 140.336 120.872 143.449 123.287 142.643M120.979 141.84C119.745 142.805 120.872 145.811 123.179 144.684M121.356 144.683C120.497 145.542 121.329 147.929 123.556 147.473M121.032 145.863C120.549 145.648 119.288 145.809 118.751 146.613M119.639 134.997C118.459 136.123 119.022 138.431 121.222 138.619M119.209 137.357C117.518 138.189 117.518 141.541 120.899 141.676M119.076 141.14C118.137 141.891 118.593 144.789 121.007 144.412M119.852 144.307C119.503 144.655 119.45 145.541 119.745 145.917M118.779 143.207C117.921 143.233 116.794 143.851 116.498 144.736M114.942 141.623C115.264 140.765 117.921 140.819 118.108 143.341M118.376 140.337C118 140.417 117.276 140.766 117.088 141.491M117.222 132.477C116.068 133.523 115.505 136.823 119.02 137.467M114.889 139.29C114.889 138.404 117.277 137.653 118.109 138.968M113.359 134.487C113.708 135.158 115.371 136.07 116.391 135.319M104.719 129.23C104.666 130.786 105.953 132.181 107.724 131.967C109.495 131.752 109.871 130.196 109.334 129.176M107.992 132.02C106.812 133.469 108.261 135.508 109.602 134.918M109.336 131C110.033 130.732 112.341 130.41 113.038 131.483M101.876 131.43C101.339 132.235 104.666 133.04 105.793 131.483M104.666 132.287C104.558 133.36 105.095 135.184 107.832 134.433" stroke="black" stroke-width="0.17366666666666666" />
        <path d="M108.262 136.097C108.692 135.184 106.652 133.682 105.096 135.345C103.54 137.009 105.311 138.887 106.277 138.243M101.126 132.503C100.321 133.898 103.433 136.448 105.204 134.087" stroke="black" stroke-width="0.17366666666666666" />
        <path d="M99.0593 134.917C97.9327 136.071 99.3277 138.19 101.018 137.546C102.708 136.902 102.547 135.131 102.145 134.675" stroke="black" stroke-width="0.17366666666666666" />
        <path d="M96.8858 137.063C95.9735 137.895 96.8588 139.853 98.1202 139.853C99.3808 139.853 100.159 138.861 99.9175 137.6M102.009 136.903C101.848 138.137 103.672 138.996 104.853 137.843M104.909 135.587C105.07 135.318 104.936 134.862 104.668 134.647M94.9292 138.727C93.8832 139.559 96.1368 141.866 97.5585 139.746M103.002 138.27C102.331 138.913 103.405 140.603 104.478 140.093M99.3291 139.45C99.4901 140.603 101.744 141.461 103.166 139.692M100.562 140.603C100.214 141.328 100.911 142.483 101.77 142.321M121.919 147.233C121.088 148.869 123.743 150.775 125.675 148.789M123.849 149.673C123.447 150.558 123.93 151.793 124.654 152.248M121.329 151.523C121.517 150.718 122.67 149.967 123.717 150.343M119.932 149.403C120.093 148.68 121.059 147.955 121.784 148.143M183.116 115.92C179.306 115.974 180.916 122.091 184.189 120.857M181.882 120.43C181.131 121.664 182.58 123.623 184.189 122.469M183.762 122.71C182.635 124.588 186.66 127.459 188.269 124.507M186.982 125.633C187.035 127.404 192.187 128.531 191.437 124.989M190.952 126.92C192.186 129.013 196.801 129.227 196.318 126.115M195.299 128.263C196.266 129.658 200.773 130.517 200.612 127.619M176.999 110.61C177.642 112.273 179.842 112.864 182.257 111.898M175.606 111.79C177.108 112.756 174.908 117.156 172.602 115.385M175.606 114.527C177.27 115.332 179.308 114.741 179.899 112.38M178.879 114.203C179.04 115.438 180.811 116.403 183.118 115.92M174.746 115.493C176.893 117.318 173.78 121.074 172.385 119.357M175.552 116.887C176.572 117.638 179.201 117.209 179.469 115.223M178.289 116.887C178.504 118.174 179.524 118.657 180.972 118.711M174.962 118.657C176.035 120.159 178.718 120.588 179.898 118.603M181.882 122.037C180.218 122.359 178.609 121.179 178.716 119.73C178.931 121.769 176.409 122.842 174.799 121.93M172.869 122.95C174.263 123.647 175.766 121.018 174.586 119.194M174.479 125.74C176.143 125.847 176.357 123.325 174.801 121.93M178.289 128.047C179.685 127.725 179.254 124.666 175.874 124.398M182.526 130.303C183.867 129.928 182.794 126.547 179.092 126.762M187.626 131.483C188.537 130.088 185.532 127.727 183.065 128.961M190.146 133.413C191.81 133.896 192.936 129.496 187.678 130.194M193.206 133.413C194.656 133.038 195.675 130.408 191.436 131.267M196.426 133.63C197.713 134.274 198.303 130.518 194.386 131.537M178.072 121.503C178.61 122.469 178.395 124.347 177.375 124.83M178.232 123.757C179.306 124.186 180.755 123.81 181.613 122.093M180.112 123.757C180.433 124.508 180.542 126.01 179.843 126.762M180.382 125.043C181.563 125.687 182.957 124.829 183.548 123.594M182.796 124.667C183.654 125.203 184.406 127.725 182.957 128.745M183.762 127.567C184.782 127.62 186.285 127.62 187.25 126.332M186.552 127.03C187.465 127.298 188.537 128.801 188.162 130.142M188.216 129.657C189.237 129.549 191.006 128.852 191.489 127.618M191.006 128.423C191.866 128.906 192.456 129.926 192.347 131.106M192.346 130.247C193.365 130.193 194.278 129.657 194.546 128.53M194.279 129.283C195.03 129.552 195.943 130.41 195.997 131.43M195.889 130.783C196.64 130.676 197.176 130.193 197.66 129.442M199.699 129.337C200.666 130.303 199.378 133.522 197.392 132.932M179.092 64.2999C177.106 65.4803 171.471 65.1049 174.262 60.4366M179.629 61.1333C175.712 62.6893 170.882 59.6846 175.926 56.4113M174.586 55.34C171.312 55.34 169.112 60.5986 173.513 62.4229M161.869 57.5399C161.011 59.2033 164.069 61.0276 166.162 59.3643C167.783 58.0756 167.663 54.5886 166.698 53.2469M160.206 61.5099C159.132 65.0513 167.021 65.266 165.786 59.6316M159.776 66.7699C160.044 69.4529 167.342 68.5943 164.98 63.1746M165.839 61.6699C166.429 62.4749 168.039 63.8699 170.775 63.6016M167.126 57.8599C167.367 58.8256 169.003 59.577 171.097 58.853M93.9092 139.503C92.0582 140.819 94.9021 142.884 95.9481 140.603M92.4592 140.523C90.6082 141.837 93.4522 143.903 94.4982 141.622M90.9292 141.517C89.0775 142.832 91.9218 144.897 92.9682 142.617M89.3191 142.43C87.5481 143.369 89.6142 145.676 91.4118 143.637M87.5758 143.317C85.8048 144.254 87.8711 146.563 89.6685 144.523M96.5658 140.55C96.5388 141.918 99.1415 142.482 100.08 140.442M98.2025 141.813C97.3975 142.833 98.8735 144.094 99.6785 143.637M94.7391 141.623C94.6585 142.777 96.9122 143.448 98.0125 142.187M95.9758 142.833C95.2511 143.772 96.6732 145.033 97.5858 144.657M93.2391 142.67C93.3191 143.582 94.6072 144.628 96.0025 144.038M94.0691 143.903C93.5325 144.387 93.8008 145.514 94.5521 145.863M91.2791 143.823C91.0645 144.655 92.4868 146.132 93.9355 145.165M91.5725 144.79C90.7142 145.461 90.8211 146.48 91.9211 146.613M89.5091 144.683C89.4018 145.246 90.1265 146.158 91.0388 146.051M84.9191 144.63C84.0608 145.086 86.2608 147.42 87.6288 145.247M82.7991 145.593C81.7258 146.104 84.3825 148.679 85.5628 146.05M89.7491 145.487C88.9171 145.674 88.3808 146.883 89.0781 147.364M87.0391 145.917C86.9318 146.4 87.9515 147.204 88.7835 146.91M86.3425 146.133C85.5375 146.643 85.9668 148.064 86.9058 147.85M83.4725 147.07C82.7211 147.633 83.2308 148.76 84.2775 148.492M84.8392 146.99C84.8662 147.284 85.5368 147.741 86.1005 147.554M80.8691 146.507C79.9305 146.909 79.9842 149.271 83.1502 147.983M78.7491 147.447C77.4341 148.091 77.8635 149.862 80.7345 148.172M80.9758 148.307C80.6271 148.575 80.2518 149.755 81.5658 149.298M78.5625 148.867C78.0258 149.35 78.3748 150.343 79.5558 149.967M75.7991 149.03C74.8335 149.594 76.9525 150.345 78.3748 148.842M76.4425 149.727C76.0131 150.156 76.0131 151.417 77.1398 150.961M73.7058 150.237C73.0618 150.72 74.1618 151.364 76.1741 150.478M74.5091 150.933C73.7578 151.55 73.8381 152.328 74.9385 152.086M72.2825 151.283C71.4508 152.035 72.6581 152.544 74.1068 151.927M72.3091 152.117C70.8868 152.76 71.5041 153.94 72.3891 153.485M119.799 156.22C119.469 156.93 120.55 157.507 121.57 157.347C122.549 157.192 123.486 156.385 122.75 155.255M122.802 156.65C123.768 157.401 125.485 156.543 125.485 155.415" stroke="black" stroke-width="0.17366666666666666" />
        <path d="M181.99 42.9433C177.697 40.7966 168.79 36.8259 166.268 40.0456C168.574 39.0799 175.336 40.0993 180.916 45.2506L181.99 42.9433Z" fill="white" stroke="black" stroke-width="0.17366666666666666" />
        <path d="M184.593 42.7166C179.629 36.9343 176.705 38.2286 173.136 36.237C169.783 34.3656 164.443 33.9833 163.408 36.9593C168.307 34.5736 172.804 38.2423 175.567 38.686C179.361 39.2953 181.503 42.229 182.613 43.578L184.593 42.7166ZM203.293 41.9766C200.716 36.074 195.208 37.6156 192.775 35.1083C189.235 31.4596 180.274 28.079 176.571 30.601C184.726 30.1716 188.2 36.2226 192.561 38.328C195.674 39.8306 199 43.0496 203.293 41.9766Z" fill="white" stroke="black" stroke-width="0.17366666666666666" />
        <path d="M193.636 41.3333C189.236 35.8599 182.473 31.0306 179.362 32.8549C183.44 33.0696 184.728 35.9136 187.626 37.7379C190.524 39.5623 189.236 42.1916 193.636 41.3333ZM172.706 50.9933C168.091 49.2763 159.077 48.4176 154.891 53.6766C161.867 54.8566 172.384 54.2129 172.706 50.9933Z" fill="white" stroke="black" stroke-width="0.17366666666666666" />
        <path d="M171.85 53.0333C167.234 50.8866 163.63 53.885 159.293 53.4626C151.03 52.6576 145.127 53.1406 144.376 57.1113C149.098 52.8723 157.04 56.3603 160.259 55.5016C163.479 54.643 175.391 55.3943 179.147 57.004C177.215 54.643 174.211 53.9993 171.85 53.0333ZM186.336 40.7433C185.264 37.2016 185.317 33.4456 190.629 33.714C189.288 32.0506 184.352 31.192 183.546 37.4166C177.697 33.124 171.311 32.3726 170.132 36.0753C173.136 33.4996 177.804 35.3776 183.385 41.7096C183.868 41.4413 185.156 40.9046 186.336 40.7436L186.336 40.7433Z" fill="white" stroke="black" stroke-width="0.17366666666666666" />
        <path d="M178.29 45.6267C174.963 43.4803 170.455 39.9923 178.344 38.5973C174.963 36.773 170.026 37.5777 170.563 43.8023C161.548 40.1533 155.074 41.385 153.713 44.9827C152.21 48.9537 157.793 51.1537 158.758 48.6317C157.738 49.061 154.251 47.8807 156.074 45.6267C157.899 43.3733 167.249 45.065 176.144 49.705C178.612 50.993 187.09 50.7783 178.29 45.6267Z" fill="white" stroke="black" stroke-width="0.17366666666666666" />
        <path d="M175.926 51.53C173.359 46.2893 165.033 51.047 163.355 45.9706C161.062 53.408 175.195 49.2926 175.926 51.53ZM228.889 57.2166C230.635 58.0843 232.145 56.7203 229.474 55.6506C231.221 56.5176 232.745 55.1866 230.074 54.1163C231.821 54.9833 233.345 53.6523 230.674 52.5823C229.962 53.2993 228.942 55.929 228.889 57.2166ZM229.799 47.13C233.663 43.052 229.478 41.6566 234.199 37.4713C238.063 34.047 234.937 31.7646 238.601 29.1003C239.781 28.242 242.356 26.5246 242.572 24.8076C244.127 28.671 237.741 29.2076 238.17 35.4323C238.444 39.3956 235.765 39.0493 234.737 45.735C234.522 47.13 233.556 50.2423 229.799 47.13Z" fill="white" stroke="black" stroke-width="0.17366666666666666" />
        <path d="M231.52 48.9533C233.666 44.3387 236.129 44.4273 237.314 42.6217C239.568 39.1873 244.343 43.2117 248.368 40.1533C247.671 44.4997 242.252 42.9433 239.891 45.734C237.53 48.524 235.598 49.812 231.52 48.9533Z" fill="white" stroke="black" stroke-width="0.17366666666666666" />
        <path d="M232.056 50.4566C235.813 47.4516 238.581 49.4566 241.179 47.8809C247.725 43.9099 250.355 48.6856 256.204 46.8076C254.647 50.5636 246.008 47.3443 242.252 50.1346C238.495 52.9246 225.295 55.6079 232.056 50.4566ZM221.11 71.8666C221.055 70.1496 219.446 67.9493 217.192 67.6813C214.939 67.4129 213.972 65.0519 212.256 64.9446C210.539 64.8372 209.411 61.4029 207.05 61.4566C204.689 61.5102 203.723 64.5689 209.25 67.3592C214.778 70.1496 220.894 73.3689 221.11 71.8666ZM214.133 73.3166C211.772 73.4239 211.45 76.8583 209.197 76.9656C212.308 78.6289 214.562 76.2142 216.172 74.0679L214.133 73.3166Z" fill="white" stroke="black" stroke-width="0.17366666666666666" />
        <path d="M216.066 73.7433C214.027 75.4603 213.437 79.0556 216.388 80.0749C214.617 77.6333 219.501 76.5333 217.998 74.2796L216.066 73.7433Z" fill="white" stroke="black" stroke-width="0.17366666666666666" />
        <path d="M218.103 73.8533C216.493 76.9656 220.625 77.3409 219.551 79.7022C221.912 79.1656 222.289 74.7119 220.141 73.5312L218.103 73.8533Z" fill="white" stroke="black" stroke-width="0.17366666666666666" />
        <path d="M202.326 67.1966C206.19 66.9819 209.724 69.0722 212.093 72.4552C213.596 74.6016 218.639 75.4602 220.357 73.7429C222.074 72.0262 221.108 68.3769 216.815 69.5576C215.742 67.7332 212.629 68.3772 211.128 66.8746C209.625 65.3722 203.829 61.0796 202.326 67.1966Z" fill="white" stroke="black" stroke-width="0.17366666666666666" />
        <path d="M216.816 69.56C215.797 69.7746 215.475 71.5453 216.118 72.4577ZM219.016 70.6333C219.339 71.17 219.123 71.921 218.962 72.2967ZM208.446 67.36C210.431 67.4673 210.807 68.9163 212.953 69.4527Z" fill="white" />
        <path d="M216.816 69.56C215.797 69.7746 215.475 71.5453 216.118 72.4577M219.016 70.6333C219.339 71.17 219.123 71.921 218.962 72.2967M208.446 67.36C210.431 67.4673 210.807 68.9163 212.953 69.4527" stroke="black" stroke-width="0.17366666666666666" stroke-linecap="round" />
        <path d="M207.133 62.4766C213.99 64.1936 219.43 65.6962 222.804 67.6279C226.178 69.5596 231.401 70.0962 235.972 68.8086C240.543 67.5206 249.357 66.3402 248.922 72.0282C251.318 69.1839 248.269 66.1252 242.175 65.5886C242.285 62.7986 239.298 60.2762 237.151 61.9396C239.137 61.6716 240.851 65.3739 236.934 66.8762C237.695 64.0862 234.92 61.5639 232.037 62.7982C233.887 63.3349 235.758 66.4372 231.619 67.6276C229.006 68.3789 225.198 67.4132 222.369 65.6959C219.539 63.9789 203.651 57.7542 207.133 62.4766Z" fill="white" stroke="black" stroke-width="0.17366666666666666" />
        <path d="M224.436 59.6866C222.29 60.6523 223.685 62.9063 220.359 64.1939C217.031 65.4816 214.724 68.4329 215.475 70.9549C217.73 66.0183 221.7 66.2329 223.095 64.3013C224.491 62.3696 226.529 59.5256 224.436 59.6866Z" fill="white" stroke="black" stroke-width="0.17366666666666666" />
        <path d="M225.027 60.0066C224.92 63.9236 221.837 62.4966 223.041 68.0019C223.417 69.7189 224.114 72.5093 222.934 75.2996C226.395 72.7776 224.168 67.4796 225.724 65.4799C226.475 64.5143 227.44 63.0116 227.817 61.7239C227.011 63.9773 227.066 68.1633 229.266 69.2363C227.495 65.0506 234.042 61.6166 229.534 56.7873C228.89 57.9679 226.85 60.0603 225.027 60.0066ZM214.08 56.0899C214.618 56.8949 215.153 58.9339 214.67 60.0609C215.744 59.4169 217.301 57.7536 217.783 56.6266C219.983 56.9486 220.841 59.6853 218.749 60.8656C220.037 60.8656 222.237 60.8656 223.47 59.4169C221.969 57.7536 217.301 55.1776 214.08 56.0899H214.08Z" fill="white" stroke="black" stroke-width="0.17366666666666666" />
        <path d="M180.703 48.3932C180.355 48.0766 179.769 47.7759 178.718 47.5599C175.469 46.8939 177.147 43.9652 179.912 43.9912C185.814 37.5522 189.128 42.5159 196.318 40.4769C198.835 39.7636 200.562 39.9746 201.933 40.5676C205.153 38.4209 208.929 39.0209 211.667 41.5429C211.971 41.0592 212.379 40.6899 212.953 40.5306C215.474 39.8306 217.513 41.9799 218.21 44.7706C220.175 44.4062 222.42 45.3789 223.896 46.7206C225.94 45.6706 227.348 45.6239 227.867 46.7032C229.692 45.8449 232.056 45.3066 233.236 48.2039C234.417 51.1016 230.446 50.2432 229.801 56.3606C229.404 60.1339 225.187 61.6189 221.86 59.3652C216.537 55.7596 211.343 55.1796 208.767 60.6532C206.192 66.1266 204.174 69.3066 197.928 67.5216C195.675 66.8776 192.776 67.7362 190.953 70.2046C189.128 72.6729 186.337 70.3652 183.011 70.6336C187.196 69.9899 185.593 68.9369 189.236 68.7019C192.563 68.4872 191.704 65.3752 193.85 64.9459C185.479 67.0926 185.801 63.9799 178.933 66.1262C181.938 62.2629 186.66 64.4092 189.021 62.1556C182.796 62.0482 180.013 57.9816 177.215 59.6872C172.815 62.3706 174.746 70.0089 163.264 69.3459C157.683 69.0239 154.142 69.7752 150.815 73.1026C156.611 61.0826 164.495 67.6859 168.309 63.8729C170.563 61.6192 172.279 59.9019 173.46 57.7556C173.875 57.0002 174.438 56.5682 175.14 56.4012C165.589 53.3962 171.365 48.7152 180.703 48.3936L180.703 48.3932Z" fill="white" stroke="black" stroke-width="0.17366666666666666" />
        <path d="M227.863 46.7032C228.009 47.0049 228.083 47.3966 228.083 47.8809C228.083 50.2416 224.542 50.3492 224.328 53.8372C224.215 55.6616 224.006 56.6809 222.771 56.4662C221.538 56.2516 220.464 54.3199 221.644 52.0662" fill="white" />
        <path d="M227.863 46.7032C228.009 47.0049 228.083 47.3966 228.083 47.8809C228.083 50.2416 224.542 50.3492 224.328 53.8372C224.215 55.6616 224.006 56.6809 222.771 56.4662C221.538 56.2516 220.464 54.3199 221.644 52.0662" stroke="black" stroke-width="0.17366666666666666" stroke-linecap="round" />
        <path d="M182.473 44.8766C181.584 44.2519 180.696 43.9983 179.898 43.9909ZM201.913 40.5499C204.755 41.7799 206.141 44.7319 210.269 44.8766C214.243 45.0159 216.709 50.7793 223.362 47.0229C223.543 46.9213 223.719 46.8263 223.89 46.7383M211.667 41.5433C211.073 42.4866 210.939 43.8026 211.101 44.9579ZM198.68 53.6766C193.637 53.6766 192.348 56.2523 192.348 58.7206C192.348 61.1889 194.709 64.4086 198.895 64.4086C203.08 64.4086 205.334 61.8329 205.334 59.0426C205.334 56.2523 202.758 53.6766 198.68 53.6766Z" fill="white" />
        <path d="M182.473 44.8766C181.584 44.2519 180.696 43.9983 179.898 43.9909M201.913 40.5499C204.755 41.7799 206.141 44.7319 210.269 44.8766C214.243 45.0159 216.709 50.7793 223.362 47.0229C223.543 46.9213 223.719 46.8263 223.89 46.7383M211.667 41.5433C211.073 42.4866 210.939 43.8026 211.101 44.9579M198.68 53.6766C193.637 53.6766 192.348 56.2523 192.348 58.7206C192.348 61.1889 194.709 64.4086 198.895 64.4086C203.08 64.4086 205.334 61.8329 205.334 59.0426C205.334 56.2523 202.758 53.6766 198.68 53.6766Z" stroke="black" stroke-width="0.17366666666666666" />
        <path d="M199.59 64.3C199.483 62.905 196.961 63.1193 197.068 62.0463C197.175 60.973 198.464 60.5436 198.464 59.0413C198.464 57.539 200.716 57.4313 201.468 58.612C202.219 59.7923 204.473 62.0996 204.957 60.9193M201.47 58.6133C200.289 59.7936 199.753 62.2083 201.309 64.0866ZM203.08 60.4366C202.705 61.2416 202.598 62.4756 203.027 63.2266Z" fill="white" />
        <path d="M199.59 64.3C199.483 62.905 196.961 63.1193 197.068 62.0463C197.175 60.973 198.464 60.5436 198.464 59.0413C198.464 57.539 200.716 57.4313 201.468 58.612C202.219 59.7923 204.473 62.0996 204.957 60.9193M201.47 58.6133C200.289 59.7936 199.753 62.2083 201.309 64.0866M203.08 60.4366C202.705 61.2416 202.598 62.4756 203.027 63.2266" stroke="black" stroke-width="0.17366666666666666" />
        <path d="M223.119 56.4932C227.064 56.8152 227.735 52.4686 224.783 52.2006M218.266 44.7699C216.898 43.0262 213.759 42.4359 213.705 46.1382" stroke="black" stroke-width="0.17366666666666666" />
        <path d="M213.33 50.35C211.988 47.0233 208.553 46.54 206.728 48.2033C205.21 49.588 205.173 53.194 208.446 53.9453C209.573 52.604 211.773 50.8326 213.33 50.35ZM211.853 48.2566C209.921 46.5393 207.077 49.786 209.653 52.764ZM175.103 56.3866C176.396 56.08 178.286 56.7126 181.185 58.0756C183.01 58.9343 188.484 60.759 191.917 58.9343C188.375 60.2223 185.693 54.856 183.01 55.5C180.327 56.144 175.417 57.1366 173.352 55.178C178.395 55.5 181.107 51.5043 186.873 54.9633C188.484 55.9293 190.523 56.5733 192.346 56.466C187.625 50.778 181.4 54.4266 180.756 49.8123C183.6 52.871 190.549 49.1146 194.091 54.8563M181.776 50.67C181.112 49.8433 181.412 49.02 180.7 48.3683Z" fill="white" />
        <path d="M211.853 48.2566C209.921 46.5393 207.077 49.786 209.653 52.764M175.103 56.3866C176.396 56.08 178.286 56.7126 181.185 58.0756C183.01 58.9343 188.484 60.759 191.917 58.9343C188.375 60.2223 185.693 54.856 183.01 55.5C180.327 56.144 175.417 57.1366 173.352 55.178C178.395 55.5 181.107 51.5043 186.873 54.9633C188.484 55.9293 190.523 56.5733 192.346 56.466C187.625 50.778 181.4 54.4266 180.756 49.8123C183.6 52.871 190.549 49.1146 194.091 54.8563M181.776 50.67C181.112 49.8433 181.412 49.02 180.7 48.3683M213.33 50.35C211.988 47.0233 208.553 46.54 206.728 48.2033C205.21 49.588 205.173 53.194 208.446 53.9453C209.573 52.604 211.773 50.8326 213.33 50.35Z" stroke="black" stroke-width="0.17366666666666666" />
        <path d="M218.267 44.7699C217.086 43.5089 214.511 44.5016 215.235 47.0506C215.799 45.8702 217.006 44.8772 218.267 44.7699ZM210.97 51.6432C211.783 51.0532 212.621 50.5689 213.328 50.3492C212.942 49.3946 212.385 48.6739 211.742 48.1712C211.128 47.7472 209.364 50.1192 210.97 51.6432Z" fill="black" />
        <path d="M207.799 47.29C205.867 46.0023 204.097 46.1097 203.506 47.1827C202.112 47.1293 200.958 48.1487 200.904 50.1877M203.883 51.0467C201.576 49.464 198.409 50.054 198.624 53.5957M197.229 55.6067C198.356 54.6943 199.965 54.0507 201.2 55.6603M214.456 52.12C214.027 52.71 213.705 53.6223 214.402 55.0177C213.543 53.891 211.398 53.891 209.089 56.8957M219.553 51.96C216.763 52.282 216.817 54.1063 219.069 54.9113M199.699 45.1433C197.338 44.6603 195.622 46.0557 198.895 47.236M204.206 43.5333C200.878 42.7283 199.537 43.5867 201.039 44.3383M194.599 56.8967C194.493 58.0773 195.135 59.6333 197.067 57.8627M195.246 60.4367C195.246 60.7587 195.192 61.134 194.977 61.4023M187.516 44.7133C185.477 44.1233 185.102 42.245 187.463 42.406M186.819 49.06C184.565 48.3087 184.565 46.1087 186.443 46.3233M191.006 47.9333C188.377 47.2893 188.27 45.465 190.256 45.7333M191.326 42.3533C189.932 42.246 187.784 43.8023 191.38 44.7143M195.246 45.4667C191.973 44.9837 192.027 46.3253 193.957 47.184M197.713 42.3533C195.19 41.8703 194.332 43.373 196.049 44.0167M189.773 51.6367C189.155 51.127 188.646 48.6853 191.596 49.41M195.889 50.8867C193.905 50.35 192.027 52.2817 193.85 53.4087M198.516 48.58C196.424 48.2043 194.653 48.7947 195.78 49.5457" stroke="black" stroke-width="0.17366666666666666" stroke-linecap="round" />
        <path d="M218.153 44.7699C216.974 44.9882 215.917 45.6812 215.232 47.0499Z" fill="white" />
        <path d="M218.153 44.7699C216.974 44.9882 215.917 45.6812 215.232 47.0499" stroke="black" stroke-width="0.17366666666666666" />
    </g>
    <defs>
        <clipPath id="clip0_5_9955">
            <rect width="300" height="200" fill="white" />
        </clipPath>
    </defs>
</svg>