<svg xmlns="http://www.w3.org/2000/svg" viewBox="0 0 300 200"><g><path d="M49.4604 63.0205L77.1954 21.418ZM59.8611 69.9542L87.596 28.3517ZM70.2617 76.888L97.9967 35.2854Z" fill="black" />
<path d="M49.4604 63.0205L77.1954 21.418M59.8611 69.9542L87.596 28.3517M70.2617 76.888L97.9967 35.2854" stroke="black" stroke-width="8.33" />
<path d="M202.003 164.716L229.738 123.113ZM212.404 171.65L240.139 130.047ZM222.804 178.583L250.539 136.981Z" fill="black" />
<path d="M202.003 164.716L229.738 123.113M212.404 171.65L240.139 130.047M222.804 178.583L250.539 136.981" stroke="black" stroke-width="8.33" />
<path d="M208.937 139.292L243.606 162.404Z" fill="black" />
<path d="M208.937 139.292L243.606 162.404" stroke="white" stroke-width="4.167" />
<path d="M77.1953 178.582L49.4604 136.979ZM87.5959 171.648L59.861 130.046ZM97.9966 164.715L70.2616 123.112Z" fill="black" />
<path d="M77.1953 178.582L49.4604 136.979M87.5959 171.648L59.861 130.046M97.9966 164.715L70.2616 123.112" stroke="black" stroke-width="8.33" />
<path d="M229.738 76.8867L202.003 35.2842ZM240.138 69.953L212.403 28.3504ZM250.539 63.0192L222.804 21.4167Z" fill="black" />
<path d="M229.738 76.8867L202.003 35.2842M240.138 69.953L212.403 28.3504M250.539 63.0192L222.804 21.4167" stroke="black" stroke-width="8.33" />
<path d="M68.5283 154.313L78.929 147.38ZM208.937 60.708L221.071 52.6186ZM231.472 45.6849L241.872 38.7511Z" fill="black" />
<path d="M68.5283 154.313L78.929 147.38M208.937 60.708L221.071 52.6186M231.472 45.6849L241.872 38.7511" stroke="white" stroke-width="4.133" />
</g></svg>