<svg xmlns="http://www.w3.org/2000/svg" viewBox="0 0 300 200"><g><path d="M191.603 127.735C206.92 104.758 200.712 73.7147 177.735 58.3971C154.759 43.0795 123.715 49.2882 108.398 72.2646C93.08 95.2411 99.2887 126.285 122.265 141.602C145.242 156.92 176.285 150.711 191.603 127.735Z" fill="#CD2E3A" />
<path d="M108.398 72.2646C104.72 77.7815 103.384 84.5334 104.684 91.0351C105.985 97.5367 109.815 103.256 115.331 106.933C120.848 110.611 127.6 111.947 134.102 110.647C140.603 109.346 146.322 105.516 150 99.9996C153.678 94.4828 159.397 90.6529 165.898 89.3526C172.4 88.0522 179.152 89.3879 184.669 93.0658C190.186 96.7437 194.016 102.463 195.316 108.964C196.616 115.466 195.281 122.218 191.603 127.735C184.247 138.768 172.809 146.428 159.806 149.029C146.803 151.629 133.299 148.958 122.265 141.602C111.231 134.246 103.572 122.809 100.971 109.805C98.3704 96.8022 101.042 83.2983 108.398 72.2646Z" fill="#0047A0" />
</g></svg>