<?xml version='1.0' encoding='us-ascii'?>
<svg xmlns="http://www.w3.org/2000/svg" width="400" height="200" viewBox="0 0 400 200" fill="none">
<g clip-path="url(#clip0_114_891)">
<path d="M259.6 47.98V116.343C259.6 138.703 300 151.98 300 151.98C300 151.98 340.4 138.702 340.4 116.343V47.98H259.6Z" fill="white" />
<path d="M294.4 72V102.781H259.6V113.981H294.4V149.848L300 151.98L305.6 149.848V113.981H340.4V102.781H305.6V72H294.4Z" fill="#C8102E" />
<path d="M259.6 47.98H340.4V74.38H259.6V47.98Z" fill="#C8102E" />
<path d="M266.076 67.7245C268.584 67.7245 270.617 66.0886 270.617 64.0705C270.617 62.0525 268.584 60.4165 266.076 60.4165C263.568 60.4165 261.535 62.0525 261.535 64.0705C261.535 66.0886 263.568 67.7245 266.076 67.7245Z" fill="white" stroke="black" stroke-width="0.25093750000000004" stroke-miterlimit="3" />
<path d="M266.076 64.2158C268.306 64.2158 270.114 63.302 270.114 62.1748C270.114 61.0476 268.306 60.1338 266.076 60.1338C263.846 60.1338 262.038 61.0476 262.038 62.1748C262.038 63.302 263.846 64.2158 266.076 64.2158Z" fill="white" stroke="black" stroke-width="0.2515625" stroke-miterlimit="3" />
<path d="M266.076 68.2973C268.306 68.2973 270.114 67.3835 270.114 66.2563C270.114 65.1291 268.306 64.2153 266.076 64.2153C263.846 64.2153 262.038 65.1291 262.038 66.2563C262.038 67.3835 263.846 68.2973 266.076 68.2973Z" fill="white" stroke="black" stroke-width="0.2515625" stroke-miterlimit="3" />
<path d="M266.076 66.1118C268.306 66.1118 270.114 65.198 270.114 64.0708C270.114 62.9436 268.306 62.0298 266.076 62.0298C263.846 62.0298 262.038 62.9436 262.038 64.0708C262.038 65.198 263.846 66.1118 266.076 66.1118Z" fill="white" stroke="black" stroke-width="0.2515625" stroke-miterlimit="3" />
<path d="M338.4 69.1431L337.738 67.3178C337.738 67.3178 335.927 66.5791 335.789 65.6171C335.466 63.0525 334.551 62.0911 333.179 61.7245C331.804 61.3578 330.89 61.9541 330.89 61.9541C330.476 62.5498 328.414 62.5498 327.27 62.5945C326.125 62.6411 326.106 62.0971 326.106 62.0971C325.216 62.1038 324.842 61.4501 324.842 61.4501C324.26 60.2878 323.827 59.8528 323.54 59.7058C325.025 59.7278 326.144 59.0421 327.821 57.2825C329.652 55.3585 330.959 56.1025 330.959 56.1025C330.071 57.8991 331.255 57.7401 331.255 57.7401C333.682 56.5048 331.575 53.3898 330.843 53.5275C330.11 53.6641 329.901 53.1708 329.901 53.1708C329.923 53.7301 329.088 53.9525 329.088 53.9525C329.714 50.3945 327.591 49.4511 327.591 49.4511C327.27 49.7718 327.086 50.4125 327.086 50.4125C326.492 52.5651 324.523 52.2448 322.323 51.1908C320.125 50.1381 314.263 52.2908 312.432 53.0231C310.599 53.7561 307.256 54.9011 304.233 53.2065C301.212 51.5108 300.477 51.8318 299.287 52.1531C298.096 52.4731 295.991 52.9781 295.213 52.5648C294.434 52.1528 293.546 52.1271 293.546 52.1271C293.758 52.0088 293.426 51.5118 293.426 51.5118C292.511 50.2758 293.546 49.5181 293.546 49.5181C293.546 49.5181 291.841 49.9981 292.519 52.9078L292.83 53.3441C292.83 53.3441 293.059 54.2595 293.564 54.5345L293.546 54.7348C293.546 54.7348 293.977 54.5348 294.112 55.1295C294.252 55.7245 294.892 55.1755 295.167 54.6721C295.167 54.6721 294.708 57.3288 298.007 57.9695C298.007 57.9695 297.638 57.5568 297.776 57.2821C297.913 57.0075 297.365 56.7765 297.411 56.3655C297.456 55.9548 296.588 55.7715 297.273 55.4495C297.959 55.1288 298.282 54.4875 299.746 55.3578C301.211 56.2281 302.358 56.0458 302.358 56.0458C302.358 56.0458 301.464 54.2118 301.956 54.2128C302.449 54.2135 304.664 56.9561 305.754 56.8205C306.845 56.6861 308.952 55.4495 310.006 55.9071C310.006 55.9071 310.096 55.3578 314.126 54.6705C318.156 53.9835 323.128 51.9748 324.992 53.7348C324.992 53.7348 325.21 55.1288 325.988 55.4958C325.988 55.4958 325.848 58.3805 320.859 56.7765L319.049 56.3005C319.049 56.3005 318.771 55.4241 309.281 57.8648C309.281 57.8648 308.723 58.0598 308.356 58.3355C307.989 58.6088 307.485 58.1975 305.607 58.8838C303.731 59.5721 296.723 61.8621 292.419 61.0371L292.414 61.0485C291.466 60.7651 290.578 60.9118 290.542 60.7621C290.495 60.5788 291.046 60.8088 291.046 60.8088C290.726 60.4415 290.588 60.4118 290.588 60.4118C286.97 60.0151 287.609 58.3805 287.609 58.3805L287.794 58.8845C288.389 58.1065 287.563 56.2745 287.563 56.2745L287.528 56.2805C287.519 56.2244 287.508 56.1688 287.495 56.1138L287.794 55.9071C289.534 54.4415 291.55 54.1665 291.55 54.1665C290.358 52.7018 287.839 53.4805 287.839 53.4805C287.885 51.6945 287.153 49.6331 287.153 49.6331C284.678 49.9081 283.26 51.9685 283.26 51.9685C283.168 50.1371 280.832 49.0845 280.832 49.0845C281.701 50.1371 281.153 52.6558 281.153 52.6558L281.245 52.7018C281.1 52.6981 281.015 52.7018 281.015 52.7018L280.963 53.2418L280.878 53.2058C280.878 53.2058 280.008 53.5258 279.001 55.8158C279.001 55.8158 278.899 56.3568 278.51 56.8448C278.506 56.7815 278.513 56.7248 278.505 56.6585C278.505 56.6585 277.38 58.1328 274.78 56.6585C274.78 56.6585 271.247 54.5625 270.006 54.6401C268.764 54.7175 267.948 55.2998 268.027 55.6488C268.027 55.6488 265.192 55.4155 264.222 57.0455C264.222 57.0455 262.088 57.8218 263.912 59.5688C263.912 59.5688 264.157 60.3278 264.688 60.7345C264.688 60.7345 264.612 59.1398 264.999 59.6085C264.999 59.6085 265.099 59.7658 265.29 59.8758C265.341 60.0991 265.512 60.7205 265.891 61.0368L266.165 60.9501C266.206 60.5525 266.292 60.0501 266.38 59.8388C266.422 59.8445 266.455 59.8495 266.47 59.8505C266.458 59.8621 266.447 59.8688 266.436 59.8795L266.94 60.6558L267.522 60.3455C267.794 60.3055 268.143 60.5788 268.143 60.5788L268.803 60.0348C268.799 60.0288 268.795 60.0278 268.791 60.0215C269.441 60.1301 269.618 58.8701 269.618 58.8701C270.202 59.0235 270.748 58.8518 271.213 58.5701C271.497 59.6148 273.81 60.7355 273.81 60.7355L273.91 60.7268C273.714 60.8521 273.598 60.9461 273.598 60.9461C274.65 61.6801 276.62 61.4965 276.62 61.4965C275.797 61.8178 275.912 63.3421 275.912 63.3421C275.43 63.5398 275.383 64.0148 275.383 64.0148C276.987 64.6548 278.082 64.1248 278.082 64.1248C278.17 64.6465 278.04 64.7021 278.04 64.7021C277.399 66.0755 277.124 67.4038 277.124 67.4038C277.138 67.4098 277.155 67.4128 277.168 67.4178C277.149 67.4538 277.124 67.4885 277.109 67.5258C277.109 67.5258 274.315 68.4958 273.073 69.8545C273.073 69.8545 272.956 69.4658 272.606 69.4658C272.257 69.4658 271.17 68.5741 270.666 68.4181C270.162 68.2638 269.424 68.5741 269.23 68.3415C269.054 68.1298 269.133 66.5398 268.797 66.2835L268.803 66.2848L268.454 65.3148C268.221 65.8188 267.251 65.7018 267.251 65.7018C267.212 65.7251 267.063 65.8338 266.852 65.9915C266.659 66.0018 266.436 65.9348 266.436 65.9348C266.336 65.9555 266.238 66.2348 266.165 66.5068C266.126 66.5355 266.087 66.5655 266.048 66.5955V66.3231C265.854 66.4781 265.466 66.2455 265.31 66.2455C265.234 66.2455 265.14 66.4678 265.064 66.6961C264.669 66.7695 264.146 66.7891 264.146 66.7891C263.99 66.8668 264.106 68.0698 264.106 68.0698C262.981 68.6915 263.524 69.6221 263.524 69.6221C264.145 72.6498 269.307 71.2911 269.696 71.6801C270.083 72.0688 270.977 72.1451 271.442 72.1451C271.907 72.1451 272.489 73.2711 273.15 73.3875C273.81 73.5041 273.15 72.4951 276.211 71.7641C279.27 71.0328 280.29 69.7778 280.29 69.7778C281.249 69.5931 281.515 68.4281 281.587 67.9578C281.596 68.1745 281.622 68.4145 281.657 68.6878C281.795 69.7415 281.067 70.1251 281.067 70.1251L283.718 69.3291C284.771 69.0541 284.634 68.1375 284.634 68.1375C285.641 71.0231 287.474 71.2061 287.474 71.2061C287.84 70.1068 287.795 69.7861 287.795 69.7861L288.619 69.7411C288.652 69.1198 288.104 68.6658 287.786 68.4545L289.076 69.2371L289.579 69.1455C289.579 69.6035 290.266 70.0148 290.266 70.0148L290.359 69.4208C290.955 70.1991 292.053 69.9241 292.053 69.9241C292.03 69.7797 291.997 69.6367 291.956 69.4961C294.303 70.9448 298.052 69.0998 298.052 69.0998C299.059 69.3288 299.196 68.7331 299.196 68.7331C300.341 68.8698 300.607 68.0875 300.607 68.0875C303.301 67.8541 305.197 65.9388 305.197 65.9388C306.524 65.8471 306.567 64.8981 306.567 64.8981C306.567 64.8981 307.898 65.1608 309.181 63.5575C312.157 59.2991 316.607 61.5161 316.607 61.5161L314.034 61.6791C307.303 61.6338 310.093 66.2118 310.093 66.2118L310.508 66.1678C311.149 66.3048 313.347 68.0455 312.537 69.3418C312.524 69.3645 312.506 69.3851 312.491 69.4061C311.119 71.2848 308.577 69.4928 307.853 67.9078C307.12 66.3055 305.653 66.6721 305.653 66.6721C305.653 66.6721 301.853 67.3135 303.41 70.3358L303.467 70.3375C303.495 71.0751 303.958 71.9155 305.314 72.7508C306.075 73.8278 308.579 73.9401 310.417 73.5418C311.273 73.3551 315.788 71.4138 315.788 71.4138C316.119 70.4305 317.241 70.6571 318.248 69.2375C319.255 67.8178 316.828 67.3135 316.279 66.5358C315.729 65.7561 316.417 65.8941 316.417 65.8941C318.614 67.0851 318.797 63.2835 318.797 63.2835C319.027 65.4811 320.95 66.0768 320.95 66.0768C322.141 64.8875 321.272 62.4595 321.272 62.4595C324.112 67.5428 325.832 66.7335 325.832 66.7335C324.303 65.7868 325.072 64.5201 325.072 64.5201C326.445 69.9238 332.08 65.2075 332.08 65.2075C331.805 65.9848 332.081 66.4425 332.584 66.9465C333.087 67.4505 333.683 67.6798 333.409 68.5958C333.134 69.5115 330.525 69.3291 330.525 69.3291C330.525 69.3291 327.959 69.1921 328.189 71.3445C328.324 71.8475 330.019 72.0305 330.661 71.8938C330.661 71.8938 330.396 71.9515 331.344 72.0781C331.662 72.1188 332.045 72.1258 332.436 72.1128C333.529 72.0795 334.692 71.8938 334.692 71.8938C336.156 71.5741 335.928 71.0685 335.928 71.0685C338.17 70.6551 338.401 69.1435 338.401 69.1435L338.4 69.1431Z" fill="#FEDD00" stroke="black" stroke-width="0.375" stroke-miterlimit="3" />
<path d="M263.984 59.7647C263.986 59.7624 264.105 59.4821 264.331 59.4481C264.505 59.4224 264.717 59.5514 264.94 59.8231L265.063 59.7311C265.058 59.7221 264.458 58.8491 264.697 58.2327C264.804 57.9581 265.068 57.7694 265.483 57.6761L265.449 57.5254C264.982 57.6327 264.681 57.8521 264.554 58.1781C264.508 58.299 264.485 58.4274 264.487 58.5567C264.487 58.8581 264.593 59.1634 264.702 59.3974C264.566 59.3124 264.434 59.2774 264.307 59.2964C264.077 59.3311 263.965 59.4967 263.904 59.6047L263.984 59.7647ZM334.666 71.7597C333.136 72.0024 330.89 72.1371 330.712 71.6741C330.68 71.5917 330.675 71.2614 331.928 70.4457L331.782 70.2214C330.736 70.9021 330.316 71.3941 330.462 71.7701C330.782 72.6034 334.061 72.1274 334.716 72.0231L334.666 71.7597ZM305.4 72.6431C305.051 72.1097 305.208 71.3787 305.866 70.4687L305.649 70.3121C304.918 71.3184 304.758 72.1534 305.175 72.7904L305.4 72.6431Z" fill="black" />
<path d="M303.333 70.3397C303.366 71.2623 304.018 72.1193 305.266 72.8837L305.406 72.655C304.238 71.9403 303.632 71.1583 303.601 70.3303C303.555 69.0597 304.897 68.0797 304.91 68.0693L304.754 67.8513C304.694 67.894 303.281 68.9233 303.333 70.3397ZM329.43 70.683C329.01 71.3027 329.15 72.053 329.156 72.0847L329.419 72.033C329.417 72.0257 329.295 71.3577 329.653 70.8317C329.868 70.5153 330.215 70.3103 330.686 70.221L330.637 69.9577C330.092 70.061 329.687 70.3043 329.43 70.683ZM269.64 58.963L269.557 58.9423L269.546 59.0273C269.543 59.0357 269.426 59.8487 269.058 60.0697C268.954 60.1313 268.843 60.1383 268.715 60.0913L268.089 59.7107C267.964 59.6007 267.857 59.5197 267.676 59.5727C267.64 59.526 267.497 59.3313 267.497 59.0187C267.497 58.9837 267.499 58.9467 267.504 58.909C267.549 58.5423 267.805 58.1887 268.268 57.8587L268.18 57.7333C267.678 58.0917 267.4 58.481 267.352 58.8933C267.319 59.1853 267.402 59.4785 267.584 59.7093L267.621 59.7523L267.672 59.729C267.811 59.6673 267.852 59.7037 267.987 59.8237L268.663 60.2347C268.834 60.298 268.993 60.2863 269.137 60.2007C269.518 59.9723 269.652 59.307 269.683 59.1223C271.309 59.4717 272.617 57.4957 272.674 57.4107L272.544 57.3267C272.532 57.3473 271.197 59.3713 269.64 58.963Z" fill="black" />
<path d="M265.742 58.6596C265.661 58.9889 265.717 59.3119 265.905 59.6202C266.084 59.9129 266.261 60.0682 266.446 60.0929C266.67 60.1239 266.85 59.9572 267.008 59.8112C267.124 59.7032 267.233 59.6029 267.323 59.6096L267.463 59.7062L267.583 59.6102L267.334 59.4569C267.177 59.4452 267.045 59.5676 266.904 59.6989C266.764 59.8276 266.62 59.9632 266.466 59.9422C266.333 59.9236 266.189 59.7879 266.036 59.5399C265.87 59.2682 265.82 58.9836 265.891 58.6966C266.066 57.9712 266.933 57.4382 266.942 57.4332L266.864 57.3022C266.825 57.3249 265.933 57.8722 265.742 58.6596ZM263.506 69.0129C263.583 68.7326 263.799 68.4936 264.145 68.3012C264.077 68.3079 264.485 68.6396 264.835 68.6026L265.062 68.4796C265.155 68.5596 265.761 69.1112 265.761 69.8102C265.761 69.9572 265.734 70.1082 265.668 70.2612L265.81 70.3209C266.253 69.2709 265.138 68.3396 265.128 68.3296L265.087 68.2976L265.018 68.3422L264.82 68.4502C264.533 68.4802 264.16 68.1772 264.157 68.1746C263.687 68.3796 263.446 68.6512 263.357 68.9742L263.506 69.0129ZM268.682 66.3329C268.348 66.3612 267.415 66.5396 267.111 67.0232C267.001 67.1989 266.984 67.3922 267.064 67.6009L267.187 67.9266C267.477 68.7076 267.779 69.5149 268.108 69.6972L268.182 69.5639C267.903 69.4089 267.599 68.5929 267.33 67.8732L267.208 67.5476C267.146 67.3829 267.156 67.2382 267.24 67.1049C267.49 66.7082 268.328 66.5166 268.695 66.4862C268.909 66.4689 268.978 67.2572 269.021 67.7286L269.173 67.7146C269.112 67.0202 269.048 66.3026 268.682 66.3329Z" fill="black" />
<path d="M266.126 67.0999C265.93 67.2752 265.969 67.5392 265.972 67.5506C265.973 67.6232 266.06 69.5732 266.986 69.9762L267.047 69.8359C266.209 69.4706 266.125 67.5542 266.124 67.5356C266.123 67.5239 266.096 67.3302 266.229 67.2136C266.37 67.0886 266.649 67.0792 267.036 67.1856L267.077 67.0382C266.63 66.9149 266.31 66.9356 266.126 67.0999Z" fill="black" />
<path d="M265.393 67.2598C264.983 67.5451 265 68.3591 265 68.3931L265.154 68.3905C265.154 68.3818 265.138 67.6228 265.48 67.3855C265.608 67.2975 265.776 67.2938 265.981 67.3765L266.037 67.2348C265.782 67.1308 265.565 67.1391 265.393 67.2598Z" fill="black" />
<path d="M287.443 56.4966C287.45 56.5093 287.879 57.4783 287.879 58.2649C287.879 58.4046 287.813 58.5039 287.782 58.6253C287.765 58.5803 287.616 58.1699 287.616 58.1699L287.486 58.4989C287.48 58.5173 287.311 58.9603 287.613 59.4599C288.013 60.1189 289.009 60.5409 290.574 60.7126H290.574C290.574 60.7139 290.593 60.7309 290.596 60.7343C290.531 60.7429 290.482 60.7609 290.467 60.7749L290.404 60.8283L290.413 60.9616C290.453 61.1243 290.639 61.1323 291.007 61.1463C291.07 61.1496 291.171 61.1646 291.242 61.1683C291.334 61.1939 291.428 61.2193 291.428 61.2193L291.397 61.1833C291.753 61.2079 292.155 61.2959 292.59 61.4586C292.494 61.4839 292.259 61.5426 292.259 61.5426L292.646 61.6953C292.675 61.7069 295.529 62.8533 296.71 63.7963C296.374 64.0869 294.943 65.1563 292.464 64.5453L292.049 64.4433L292.331 64.7649C292.348 64.7843 293.963 66.6363 294.297 67.7593C293.735 67.7649 291.569 67.7453 290.812 67.1023L290.616 67.2806C290.626 67.2973 291.655 68.8059 291.884 69.9823C291.59 70.0209 290.884 70.0499 290.467 69.5046L290.275 69.2543L290.17 69.9333C289.969 69.7813 289.715 69.5543 289.715 69.3109V69.1509L289.104 69.2619L287.849 68.5009C287.783 68.4574 287.716 68.4168 287.647 68.3793C287.646 68.3779 287.635 68.3719 287.635 68.3719L287.626 68.3666L287.496 68.6019C287.496 68.6019 287.646 68.6909 287.689 68.7179C287.957 68.8929 288.417 69.2746 288.464 69.7806C288.265 69.7923 287.648 69.8259 287.648 69.8259L287.663 69.9679V69.9903C287.663 70.0743 287.636 70.4249 287.38 71.2166C286.994 71.1246 285.59 70.6353 284.761 68.2586L284.503 68.3226C284.504 68.3293 284.507 68.3606 284.507 68.4109C284.507 68.6276 284.43 69.1706 283.685 69.3643C283.681 69.3656 282.302 69.7803 281.535 70.0099C281.678 69.8046 281.809 69.5233 281.809 69.1149C281.809 69.0283 281.804 68.9349 281.792 68.8359C281.746 68.4906 281.718 68.2029 281.718 67.9629C281.718 67.4626 281.841 67.1646 282.186 66.9526L282.066 66.7139C282.033 66.7266 278.86 67.9873 277.286 67.4639C277.358 67.1566 277.625 66.0766 278.162 64.9253L278.093 64.9913C278.196 64.9473 278.301 64.7863 278.214 64.2693L278.185 64.0933L278.024 64.1709C278.014 64.1759 277.007 64.6252 275.552 64.0922C275.581 63.9729 275.658 63.7586 275.963 63.6323L276.053 63.5963L276.044 63.4989C276.044 63.4956 276.041 63.4279 276.041 63.3219C276.041 62.9289 276.102 62.0086 276.667 61.7879L276.607 61.5289C276.589 61.5313 274.887 61.6673 273.855 61.0933C274.126 60.9066 274.695 60.5626 275.357 60.4672L275.463 60.4523L275.47 60.3463C275.471 60.3409 275.474 60.3096 275.474 60.2596C275.474 60.1253 275.422 59.8533 275.303 59.5796C275.696 59.6889 276.167 59.7879 276.334 59.6626L276.39 59.6199L276.342 58.5869L276.074 58.5999L276.115 59.4539C275.947 59.4629 275.519 59.3772 275.103 59.2452L274.692 59.1146L274.957 59.4559C275.172 59.7323 275.199 60.0753 275.203 60.2329C274.273 60.4059 273.544 60.9833 273.513 61.0096L273.376 61.1219L273.521 61.2229C274.321 61.7803 275.572 61.8286 276.214 61.8146C275.836 62.2413 275.772 62.9549 275.772 63.3119C275.772 63.3853 275.774 63.4046 275.775 63.4406C275.321 63.6859 275.253 64.1466 275.25 64.1679L275.24 64.2679L275.334 64.3066C276.709 64.8546 277.647 64.5899 277.966 64.4723C277.968 64.5149 277.978 64.5729 277.978 64.6033C277.978 64.7293 277.954 64.7679 277.954 64.7679C277.279 66.1839 276.996 67.5299 276.993 67.5426L276.971 67.6539L277.075 67.6953C278.351 68.2053 280.643 67.5089 281.658 67.1506C281.525 67.3803 281.448 67.6386 281.448 67.9603C281.448 68.2299 281.48 68.5329 281.525 68.8706C281.537 68.9563 281.542 69.0353 281.542 69.1119C281.542 69.8719 281.028 70.1593 281.004 70.1719L281.106 70.4189L283.757 69.6226C284.371 69.4633 284.601 69.1009 284.699 68.7929C285.745 71.2743 287.387 71.4979 287.46 71.5063L287.567 71.5153L287.6 71.4146C287.856 70.6523 287.915 70.2649 287.926 70.0779C288.2 70.0641 288.473 70.0496 288.747 70.0343L288.754 69.9139C288.755 69.8929 288.755 69.8729 288.755 69.8533C288.755 69.6339 288.687 69.4399 288.592 69.2653C288.758 69.3653 289.051 69.5433 289.051 69.5433L289.49 69.4633C289.605 69.9066 290.131 70.2546 290.199 70.2963L290.37 70.3986C290.37 70.3986 290.432 69.9946 290.459 69.8186C291.114 70.4046 292.043 70.2303 292.087 70.2193L292.204 70.1893L292.187 70.0703C292.054 69.1743 291.452 68.1083 291.099 67.5383C292.262 68.0673 294.382 68.0286 294.486 68.0253L294.644 68.0199L294.613 67.8649C294.425 66.9233 293.249 65.4409 292.757 64.8516C295.49 65.3652 296.959 63.9469 297.022 63.8826L297.118 63.7806L297.012 63.6879C296.093 62.8873 293.975 61.9579 293.124 61.6023L293.422 61.5269L293.127 61.3623C292.416 60.9623 291.661 60.9126 291.151 60.8906L291.149 60.8866C290.826 60.5163 290.661 60.4569 290.619 60.4479C288.771 60.2439 288.093 59.7259 287.847 59.3259C287.826 59.2929 287.837 59.2706 287.821 59.2386C287.861 59.1853 287.903 59.1326 287.903 59.1326C288.081 58.9003 288.145 58.5893 288.145 58.2603C288.145 57.4113 287.713 56.4413 287.689 56.3853L287.443 56.4966Z" fill="black" />
<path d="M278.933 55.9532C278.927 55.9799 278.73 56.9929 277.867 57.4676C277.218 57.8242 276.361 57.7949 275.321 57.3789L275.204 57.3322L275.216 57.4576C275.219 57.4836 275.287 58.0789 275.849 58.5149C276.316 58.8789 276.985 59.0066 277.823 58.9149C277.542 59.2476 276.641 60.3989 276.641 61.5156C276.641 61.5746 276.645 61.6336 276.651 61.6916C276.765 61.7739 278.177 62.1566 278.832 61.3196C278.855 61.6786 278.958 62.8269 279.407 63.2762C279.652 63.5206 279.71 63.8776 279.71 64.1629C279.71 64.4199 279.661 64.6186 279.661 64.6226L279.611 64.8269L279.781 64.7029C279.835 64.6632 281.133 63.7126 281.548 62.4672C281.547 62.4706 281.756 62.1549 282.157 62.0256C282.148 62.0799 282.141 62.1356 282.141 62.2132C282.141 62.6946 282.352 63.5679 283.753 64.1036L283.868 64.1476L283.858 64.0252C283.851 63.9448 283.848 63.864 283.849 63.7832C283.849 63.4316 283.897 62.7856 284.232 62.4509C284.453 62.2309 284.519 61.9829 284.519 61.7679C284.519 61.5989 284.481 61.4619 284.443 61.3612C284.726 61.4329 285.395 61.6486 285.667 62.1579C286.063 62.8989 287.447 62.3092 287.506 62.2846L287.458 62.1389C287.453 62.1402 286.876 62.2692 286.513 62.0196C286.353 61.9096 286.257 61.7406 286.223 61.5162L286.159 60.7462C286.145 60.3972 286.097 60.1756 285.921 59.9892C286.105 59.9726 286.472 59.9789 286.627 60.3226C286.872 60.8616 287.711 60.9139 287.746 60.9169L288.033 60.9319L287.792 60.7759C287.784 60.7712 287.059 60.2906 287.185 59.6639L287.289 59.2052C287.487 58.3786 287.817 56.9946 287.549 56.1449L287.403 56.1916C287.469 56.4036 287.497 56.6549 287.497 56.9236C287.497 57.6769 287.283 58.5716 287.139 59.1696L287.034 59.6346C287.022 59.6936 287.016 59.7537 287.017 59.8139C287.017 60.2196 287.28 60.5292 287.485 60.7156C287.238 60.6622 286.896 60.5449 286.768 60.2589C286.566 59.8169 286.025 59.7966 285.767 59.8489L285.586 59.8852L285.74 59.9876C285.983 60.1499 285.99 60.3389 286.007 60.7519L286.072 61.5379C286.111 61.8059 286.23 62.0109 286.426 62.1459C286.597 62.2626 286.798 62.2792 286.981 62.2926C286.57 62.3996 286.006 62.4666 285.804 62.0859C285.422 61.3752 284.373 61.1852 284.329 61.1769L284.169 61.1492L284.249 61.2896C284.258 61.3049 284.369 61.5069 284.369 61.7636C284.369 61.9456 284.313 62.1539 284.124 62.3419C283.752 62.7172 283.695 63.3976 283.695 63.7739C283.695 63.8476 283.699 63.8579 283.7 63.9029C282.502 63.3992 282.29 62.6532 282.29 62.2309C282.29 62.0512 282.325 61.9316 282.329 61.9159L282.364 61.7979L282.243 61.8186C281.661 61.9146 281.419 62.3886 281.408 62.4086C281.075 63.4056 280.172 64.1949 279.845 64.4579C279.859 64.359 279.866 64.2594 279.867 64.1596C279.867 63.8479 279.799 63.4509 279.517 63.1676C279.04 62.6912 278.975 61.1766 278.975 61.1612L278.965 60.8879L278.832 61.1252C278.305 62.0696 276.765 61.6159 276.75 61.6119C276.685 60.4186 278.039 58.8919 278.053 58.8766L278.195 58.7192L277.986 58.7499C277.102 58.8779 276.415 58.7599 275.945 58.3966C275.675 58.1872 275.483 57.8942 275.397 57.5636C276.422 57.9456 277.282 57.9669 277.944 57.6012C278.869 57.0899 279.072 56.0429 279.08 55.9989C280.051 53.7969 280.899 53.4492 280.909 53.4469L280.855 53.3032C280.817 53.3166 279.942 53.6609 278.933 55.9532Z" fill="black" />
<path d="M281.15 52.69L281.085 52.6924L280.297 53.7724L280.531 53.7957C284.807 54.2117 287.069 56.7917 287.091 56.8184L287.189 56.933L287.965 56.0907L287.908 56.004C285.739 52.5894 281.196 52.6884 281.15 52.69ZM281.223 52.958C281.751 52.9594 285.646 53.0797 287.619 56.0684C287.523 56.1727 287.308 56.408 287.193 56.534C286.73 56.0547 284.539 54.0067 280.78 53.5654C280.926 53.3647 281.168 53.0324 281.223 52.958Z" fill="black" />
<path d="M280.532 54.9467C280.167 55.4451 279.828 56.1824 279.828 56.5274C279.828 56.5934 279.84 56.6454 279.868 56.6784C279.871 56.6817 279.884 56.6827 279.888 56.6881C279.443 57.0871 279.178 57.7534 279.178 58.5067C279.178 58.9211 279.251 59.3527 279.405 59.7644L279.49 59.9961C279.91 61.1374 280.272 62.1241 282.086 61.5431C283.834 60.9847 283.903 60.8727 284.343 60.1467L284.458 59.9587C284.698 59.5687 284.96 59.4907 285.239 59.4081C285.572 59.3081 285.917 59.2054 286.22 58.6081L286.514 58.1667C286.832 57.7291 287.228 57.1867 287.276 56.4924L287.122 56.4821C287.078 57.1321 286.696 57.6547 286.39 58.0754L286.083 58.5381C285.809 59.0767 285.511 59.1661 285.195 59.2604C284.9 59.3481 284.598 59.4384 284.327 59.8781L284.211 60.0667C283.787 60.7654 283.734 60.8554 282.04 61.3981C280.364 61.9334 280.058 61.0981 279.634 59.9434L279.548 59.7094C279.071 58.4367 279.444 57.1531 280.065 56.6931L280.278 56.5347C280.278 56.5347 280.014 56.5644 279.983 56.5681C279.979 56.5554 279.976 56.5444 279.976 56.5244C279.976 56.3164 280.203 55.6541 280.655 55.0364C281.041 54.5104 281.952 53.9891 281.962 53.9841L281.885 53.8511C281.847 53.8741 280.937 54.3944 280.532 54.9467Z" fill="black" />
<path d="M279.719 59.5498C280.019 59.7578 280.441 59.7431 280.95 59.5498C280.952 59.7311 280.993 60.1165 281.309 60.3958C281.681 60.7251 282.298 60.7885 283.143 60.5871L283.107 60.4385C282.315 60.6275 281.744 60.5741 281.411 60.2821C281.054 59.9671 281.104 59.4655 281.105 59.4611L281.119 59.3298L280.997 59.3815C280.485 59.6021 280.084 59.6155 279.806 59.4231C279.307 59.0765 279.345 58.1715 279.346 58.1611L279.192 58.1538C279.192 58.1951 279.15 59.1545 279.719 59.5498Z" fill="black" />
<path d="M280.689 58.3299C280.47 58.3819 280.413 58.5652 280.413 58.7065C280.413 58.7405 280.417 58.7722 280.421 58.7996C280.46 59.1936 280.887 59.4559 281.276 59.5682C281.653 59.6776 282.118 59.6849 282.301 59.4496C282.375 59.3556 282.428 59.1862 282.268 58.9129C281.685 57.9206 280.741 58.3092 280.689 58.3299ZM281.318 59.4202C280.978 59.3232 280.604 59.1026 280.574 58.7759C280.567 58.7446 280.53 58.5252 280.724 58.4792L280.739 58.4742C280.774 58.4586 281.609 58.0956 282.136 58.9909C282.229 59.1509 282.245 59.2725 282.18 59.3552C282.067 59.5019 281.695 59.5306 281.318 59.4202ZM280.674 58.3356C280.675 58.3342 280.689 58.3296 280.689 58.3296L280.674 58.3356ZM281.216 60.3265C281.117 61.1645 281.177 61.1846 281.238 61.2032L281.291 61.2199L281.351 61.1492L281.836 60.5092L281.227 60.2206L281.216 60.3265ZM281.356 60.4519L281.602 60.5679C281.536 60.6522 281.413 60.8159 281.32 60.9379C281.322 60.8119 281.338 60.6339 281.356 60.4519ZM279.952 59.6532L279.92 60.4452L280.585 59.6409L279.956 59.5712L279.952 59.6532ZM280.102 59.7419L280.286 59.7619C280.221 59.8395 280.178 59.8926 280.091 59.9972C280.098 59.8739 280.1 59.8056 280.102 59.7419Z" fill="black" />
<path d="M279.509 59.3998C279.515 59.4101 280.004 60.3665 280.091 60.7155C280.147 60.9371 280.429 61.1895 280.766 61.3145C281.102 61.4411 281.417 61.4205 281.653 61.2565L282.095 60.8895C282.242 60.7478 282.291 60.7081 282.41 60.7285L282.435 60.5775C282.235 60.5438 282.137 60.6371 281.989 60.7785L281.565 61.1311C281.305 61.3131 280.986 61.2355 280.819 61.1711C280.504 61.0545 280.276 60.8285 280.239 60.6778C280.147 60.3131 279.665 59.3711 279.645 59.3311L279.509 59.3998ZM280.146 56.5331C279.606 56.7825 279.377 57.4375 279.368 57.4651L279.513 57.5155C279.515 57.5091 279.731 56.8921 280.21 56.6721C280.444 56.5648 280.707 56.5685 280.992 56.6805L281.049 56.5388C280.724 56.4078 280.421 56.4068 280.146 56.5331ZM283.776 58.2531C283.819 58.2851 284.839 59.0578 284.253 60.0008L284.383 60.0818C285.044 59.0191 283.878 58.1385 283.867 58.1291L283.776 58.2531ZM280.709 58.4031C280.709 58.4031 280.55 58.9798 281.361 59.1831C281.361 59.1831 280.599 59.1765 280.55 58.9798C280.499 58.7828 280.555 58.3465 280.709 58.4031ZM283.189 59.0931C283.189 59.1431 283.149 59.1845 283.099 59.1845C283.075 59.1841 283.052 59.1744 283.035 59.1573C283.018 59.1402 283.009 59.1172 283.009 59.0931C283.009 59.0438 283.05 59.0028 283.098 59.0028C283.148 59.0028 283.189 59.0438 283.189 59.0931ZM283.279 59.4531C283.279 59.5031 283.238 59.5448 283.189 59.5448C283.139 59.5448 283.1 59.5031 283.1 59.4531C283.1 59.4045 283.139 59.3631 283.189 59.3631C283.238 59.3631 283.279 59.4048 283.279 59.4531Z" fill="black" />
<path d="M282.669 59.3651C282.719 59.3651 282.759 59.3248 282.759 59.2751C282.759 59.2254 282.719 59.1851 282.669 59.1851C282.619 59.1851 282.579 59.2254 282.579 59.2751C282.579 59.3248 282.619 59.3651 282.669 59.3651Z" fill="black" />
<path d="M282.916 59.8165C282.914 59.8393 282.904 59.8608 282.888 59.8765C282.871 59.8922 282.849 59.901 282.826 59.901C282.803 59.901 282.781 59.8922 282.764 59.8765C282.748 59.8608 282.738 59.8393 282.736 59.8165C282.736 59.7661 282.777 59.7248 282.826 59.7248C282.875 59.7248 282.916 59.7658 282.916 59.8165ZM280.549 57.3765C280.549 57.4006 280.54 57.4238 280.523 57.4408C280.505 57.4579 280.482 57.4675 280.458 57.4675C280.434 57.4675 280.411 57.4579 280.394 57.4408C280.377 57.4238 280.367 57.4006 280.367 57.3765C280.367 57.3278 280.409 57.2861 280.458 57.2861C280.509 57.2861 280.549 57.3278 280.549 57.3765Z" fill="black" />
<path d="M280.549 57.8299C280.599 57.8299 280.639 57.7896 280.639 57.7399C280.639 57.6902 280.599 57.6499 280.549 57.6499C280.499 57.6499 280.459 57.6902 280.459 57.7399C280.459 57.7896 280.499 57.8299 280.549 57.8299Z" fill="black" />
<path d="M280.029 57.6502C280.079 57.6502 280.119 57.6099 280.119 57.5602C280.119 57.5105 280.079 57.4702 280.029 57.4702C279.98 57.4702 279.939 57.5105 279.939 57.5602C279.939 57.6099 279.98 57.6502 280.029 57.6502Z" fill="black" />
<path d="M280.276 58.1002C280.276 58.1243 280.266 58.1472 280.249 58.1641C280.232 58.181 280.209 58.1905 280.185 58.1905C280.161 58.1905 280.137 58.181 280.12 58.1639C280.103 58.1468 280.094 58.1237 280.094 58.0995C280.094 58.0754 280.103 58.0523 280.12 58.0352C280.137 58.0181 280.161 58.0085 280.185 58.0085C280.209 58.0088 280.232 58.0186 280.249 58.0357C280.266 58.0528 280.276 58.076 280.276 58.1002ZM281.856 54.9169C281.856 54.9169 283.029 55.6385 281.9 56.9929C281.9 56.9929 282.456 56.5805 282.512 55.8722C282.572 55.1645 282.11 54.6002 281.856 54.9169ZM286.356 56.8635C285.979 57.0575 285.435 56.6982 285.163 56.3589C284.892 56.0189 284.33 55.9322 283.98 56.5522C283.63 57.1735 283.126 57.4062 283.126 57.4062C283.126 57.4062 283.619 57.1155 284.126 56.5719C284.63 56.0295 284.921 56.4652 285.416 56.7272C285.911 56.9892 285.988 57.0469 286.337 56.9112L286.356 56.8635Z" fill="black" />
<path d="M286.259 56.9533C286.105 57.0693 285.822 57.1666 285.522 56.9233C285.222 56.681 284.969 56.3516 284.591 56.5453C284.212 56.74 283.493 57.2826 283.493 57.2826C283.493 57.2826 284.658 56.4769 284.882 56.6519C285.104 56.8273 285.629 57.2536 285.949 57.1286C286.269 57.001 286.259 56.9533 286.259 56.9533Z" fill="black" />
<path d="M285.366 57.4466C284.998 57.1653 284.629 57.7763 284.318 57.6999C284.008 57.6209 283.755 57.1069 283.755 57.1069C283.755 57.1069 284.047 57.6506 284.454 57.5243C284.862 57.3986 285.144 57.1459 285.395 57.3393C285.648 57.5343 285.366 57.4466 285.366 57.4466Z" fill="black" />
<path d="M284.789 57.5234C284.061 57.5988 283.989 56.9191 283.989 56.9121C283.989 56.9121 284.219 57.5054 284.862 57.3978L284.789 57.5234Z" fill="black" />
<path d="M284.766 57.0602C284.814 57.2442 284.804 57.3279 284.609 57.3279C284.413 57.3279 284.28 57.2626 284.28 57.0726C284.28 56.8822 284.738 56.9419 284.766 57.0602ZM282.153 56.0502C282.153 56.1769 282.049 56.2786 281.92 56.2786C281.791 56.2786 281.766 56.1919 281.766 56.0666C281.766 55.9412 281.791 55.8232 281.92 55.8232C282.048 55.8232 282.153 55.9256 282.153 56.0502Z" fill="black" />
<path d="M281.35 55.2366C281.35 55.2366 282.596 55.25 281.979 56.81C281.979 56.81 282.454 56.0333 282.156 55.4746C281.857 54.9166 281.388 55.0573 281.388 55.0573C281.388 55.0573 281.273 55.163 281.35 55.2366Z" fill="black" />
<path d="M281.313 55.8598C281.309 56.1725 281.518 56.4955 281.931 56.8185L282.027 56.6985C281.652 56.4065 281.463 56.1252 281.466 55.8632C281.468 55.6012 281.67 55.4455 281.672 55.4432L281.581 55.3198C281.57 55.3285 281.317 55.5212 281.313 55.8598Z" fill="black" />
<path d="M281.589 56.1234C281.642 56.303 281.781 56.4387 282.004 56.5274L282.06 56.3857C281.885 56.3157 281.775 56.213 281.736 56.0814C281.657 55.816 281.871 55.5067 281.873 55.504L281.749 55.415C281.737 55.431 281.489 55.7884 281.589 56.1234ZM283.299 56.99C283.299 56.99 283.531 57.494 283.192 58.0377C282.852 58.581 282.862 58.5524 282.862 58.5524C282.862 58.5524 283.27 57.8054 283.115 57.494C282.961 57.1837 283.299 56.99 283.299 56.99ZM288.149 62.2534C289.43 62.4947 292.319 64.76 292.349 64.7834L292.515 64.5714C292.393 64.4774 289.543 62.243 288.199 61.99L288.149 62.2534ZM289.286 65.45C289.371 66.5867 290.608 67.2927 290.661 67.3214L290.792 67.088C290.779 67.082 289.629 66.4227 289.552 65.4297L289.286 65.45ZM286.216 65.6867C286.216 66.9614 287.41 68.5034 287.462 68.569L287.672 68.4034C287.661 68.389 286.483 66.8694 286.483 65.6867H286.216ZM282.166 65.83C282.376 66.2507 282.354 66.464 282.3 66.5684C282.237 66.686 282.107 66.704 282.102 66.705L282.133 66.972C282.232 66.9604 282.429 66.892 282.533 66.7C282.661 66.4667 282.618 66.1334 282.406 65.712L282.166 65.83Z" fill="black" />
<path d="M263.953 59.5433C263.953 59.5433 264.031 60.3967 264.69 60.903C264.69 60.903 264.613 59.9697 264.807 59.583C264.807 59.583 264.458 59.1947 263.953 59.5433ZM265.27 60.0867C265.27 60.0867 265.426 60.862 265.891 61.212L266.165 61.1343C266.165 61.1343 266.28 60.163 266.436 60.047C266.591 59.9313 265.776 60.3963 265.27 60.0867Z" fill="white" stroke="black" stroke-width="0.11249999999999999" stroke-miterlimit="3" />
<path d="M266.437 60.0468L266.941 60.8235L267.523 60.5128L267.407 59.5821C267.407 59.5821 267.058 59.5031 266.437 60.0468Z" fill="white" stroke="black" stroke-width="0.11249999999999999" stroke-miterlimit="3" />
<path d="M268.803 60.2032L268.143 60.7465C268.143 60.7465 267.794 60.4745 267.521 60.5135L267.639 59.6595C267.639 59.6595 268.104 59.3105 268.803 60.2032ZM264.106 68.2365C264.106 68.2365 263.99 67.0332 264.146 66.9558C264.146 66.9558 264.61 67.1108 264.805 66.9158C264.805 66.9158 265.077 67.8872 264.999 68.2752C264.922 68.6628 264.456 68.5088 264.106 68.2365ZM267.096 66.9932C267.096 66.9932 267.058 65.9838 267.251 65.8665C267.251 65.8665 268.221 65.9835 268.454 65.4798L268.804 66.4498C268.804 66.4498 267.717 66.3328 267.096 66.9932Z" fill="white" stroke="black" stroke-width="0.11249999999999999" stroke-miterlimit="3" />
<path d="M266.05 67.1867C266.05 67.1867 266.243 66.1391 266.438 66.1001C266.438 66.1001 266.942 66.2551 267.098 66.0601L267.059 67.3424C267.059 67.3421 267.098 66.7984 266.05 67.1867ZM264.923 67.3434C264.923 67.3434 265.156 66.4117 265.311 66.4117C265.467 66.4117 265.855 66.6447 266.049 66.4894V67.1881C266.049 67.1881 265.194 66.9947 265.079 68.1581L264.923 67.3434Z" fill="white" stroke="black" stroke-width="0.109375" stroke-miterlimit="3" />
<path d="M280.053 86.6671C280.053 86.6671 282.691 89.1171 282.002 91.2531C282.002 91.2531 283.697 87.6091 281.877 86.5407C280.053 85.4731 279.991 86.2914 280.053 86.6674V86.6671Z" fill="#00AD50" stroke="black" stroke-width="0.24375000000000002" stroke-miterlimit="4.8" />
<path d="M276.724 89.0504C276.724 89.0504 276.034 89.9947 276.786 90.6857C276.786 90.6857 275.97 91.8771 276.6 92.8841C276.6 92.8841 276.096 93.9517 276.222 95.0827C276.222 95.0827 275.782 96.8411 276.724 97.6594C276.724 97.6594 277.73 98.1621 278.17 97.7221C278.17 97.7221 279.049 96.4031 278.483 95.0191C278.483 95.0191 279.111 93.8891 278.42 92.4441C278.42 92.4441 278.609 91.6274 278.044 90.6861C278.044 90.6861 278.42 90.0567 278.106 89.5547C278.106 89.5547 276.85 88.2344 276.724 89.0504Z" fill="#862633" stroke="black" stroke-width="0.24375000000000002" stroke-miterlimit="4.8" />
<path d="M277.477 85.9735C277.477 85.9735 274.336 79.9435 272.136 79.6909C269.937 79.4392 269.812 77.3042 269.812 77.3042C269.812 77.3042 270.063 78.3092 271.823 78.3092C273.582 78.3092 276.975 80.7589 277.351 82.6435C277.728 84.5279 278.106 84.2775 278.106 84.2775L277.477 85.9735Z" fill="#00AD50" stroke="black" stroke-width="0.24375000000000002" stroke-miterlimit="4.8" />
<path d="M277.477 85.5336C277.477 85.5336 278.608 77.9319 283.572 77.8056C288.534 77.6789 286.902 78.1822 288.095 77.3652C288.095 77.3652 284.766 79.1256 282.692 79.3759C280.62 79.6272 278.923 83.6466 278.986 84.4026C279.048 85.1556 277.855 86.6012 277.29 86.0992C276.724 85.5962 277.477 85.5336 277.477 85.5336H277.477Z" fill="#00AD50" stroke="black" stroke-width="0.24375000000000002" stroke-miterlimit="4.8" />
<path d="M278.607 88.3635C278.607 88.3635 279.737 85.3479 281.685 86.3539C281.685 86.3539 280.177 83.4629 277.476 85.9759C277.476 85.9759 278.67 87.6092 278.607 88.3635ZM274.837 85.3435C274.837 85.3435 276.471 92.0669 273.957 94.1392C273.957 94.1392 274.02 90.6855 272.512 88.6119C271.006 86.5375 274.02 84.2775 274.837 85.3435Z" fill="#00AD50" stroke="black" stroke-width="0.24375000000000002" stroke-miterlimit="4.8" />
<path d="M275.027 86.5404C275.027 86.5404 277.98 89.3684 278.169 90.3104C278.358 91.2527 279.048 87.4837 277.666 86.4164C276.284 85.3467 274.776 85.1587 274.776 85.1587L275.027 86.5404Z" fill="#00AD50" stroke="black" stroke-width="0.24375000000000002" stroke-miterlimit="4.8" />
<path d="M269.58 93.95C269.58 93.95 269.848 95.1367 270.576 95.3667C270.576 95.3667 270.614 96.2483 271.265 96.516C271.265 96.516 270.92 97.244 271.495 97.7027C271.495 97.7027 271.38 99.1583 271.916 99.4657C271.916 99.4657 273.22 99.389 273.678 99.0057C273.678 99.0057 273.947 98.0497 273.22 97.09C273.22 97.09 273.333 96.1707 272.606 95.6733C272.606 95.6733 272.836 94.4467 271.916 93.9877C271.916 93.9877 271.764 92.991 271.188 92.4937C271.188 92.4933 270.078 94.0637 269.58 93.95Z" fill="#862633" stroke="black" stroke-width="0.24375000000000002" stroke-miterlimit="4.8" />
<path d="M271.034 92.4933C271.034 92.4933 267.165 91.076 265.02 93.1067C265.02 93.1067 268.313 93.5667 268.735 94.2177C269.157 94.8677 271.186 93.1457 271.034 92.4933Z" fill="#00AD50" stroke="black" stroke-width="0.24375000000000002" stroke-miterlimit="4.8" />
<path d="M269.847 94.9071C269.847 94.9071 269.541 94.6394 269.158 94.3704C268.775 94.103 265.519 93.2217 265.058 96.3627C265.058 96.3627 263.87 93.2604 265.594 92.8384C267.319 92.4164 268.698 93.4131 269.847 94.9071ZM267.3 88.487C267.3 88.487 268.492 91.0624 268.933 91.1897C269.373 91.3137 269.687 90.8757 269.687 90.8757C269.687 90.8757 268.117 88.551 267.3 88.487ZM266.42 84.5304C266.42 84.5304 265.414 81.2011 264.221 82.0804C263.028 82.9601 263.341 85.3464 263.341 85.3464C263.341 85.3464 260.954 82.8977 262.336 80.949C263.72 79.0017 266.42 81.1377 266.42 84.5304Z" fill="#00AD50" stroke="black" stroke-width="0.24375000000000002" stroke-miterlimit="4.8" />
<path d="M269.123 91.3771C269.123 91.3771 269.123 92.0054 269.563 92.1931C270.003 92.3817 270.82 92.6947 270.82 92.3197C270.82 91.9427 270.192 90.4974 269.939 90.6864C269.687 90.8754 269.249 90.8731 269.123 91.3771Z" fill="#862633" stroke="black" stroke-width="0.24375000000000002" stroke-miterlimit="4.8" />
<path d="M268.37 87.4834C268.37 87.4834 268.244 84.5941 270.128 83.5247C270.128 83.5247 270.506 83.5894 270.695 83.0244C270.695 83.0244 269.185 86.6667 269.626 88.4887L269.563 88.7404" fill="#00AD50" />
<path d="M268.37 87.4834C268.37 87.4834 268.244 84.5941 270.128 83.5247C270.128 83.5247 270.506 83.5894 270.695 83.0244C270.695 83.0244 269.185 86.6667 269.626 88.4887L269.563 88.7404" stroke="black" stroke-width="0.24375000000000002" stroke-miterlimit="4.8" />
<path d="M268.747 83.9637C268.747 83.9637 272.139 76.9263 276.286 79.3763C276.286 79.3763 271.952 80.2563 270.382 83.335L268.81 85.6573L268.747 83.9633L268.747 83.9637Z" fill="#00AD50" stroke="black" stroke-width="0.24375000000000002" stroke-miterlimit="4.8" />
<path d="M266.923 86.5401C266.923 86.5401 265.918 81.8288 265.29 81.2015C264.661 80.5728 263.593 79.8818 262.336 80.9495C262.336 80.9495 264.536 79.0011 266.86 80.6355C269.184 82.2688 268.681 84.8448 268.681 84.8448L268.431 88.1121L266.86 86.6668" fill="#00AD50" />
<path d="M266.923 86.5401C266.923 86.5401 265.918 81.8288 265.29 81.2015C264.661 80.5728 263.593 79.8818 262.336 80.9495C262.336 80.9495 264.536 79.0011 266.86 80.6355C269.184 82.2688 268.681 84.8448 268.681 84.8448L268.431 88.1121L266.86 86.6668" stroke="black" stroke-width="0.24375000000000002" stroke-miterlimit="4.8" />
<path d="M270.566 92.13C270.566 92.13 266.42 84.2793 263.719 89.87C263.719 89.87 263.215 91.314 263.78 91.8783C263.78 91.8783 262.272 90.7483 262.964 87.9843C263.654 85.221 268.24 86.4763 269.56 88.7387C270.879 91 271.257 92.132 271.068 92.256C270.879 92.3827 270.566 92.13 270.566 92.13H270.566ZM282.253 94.3933C282.253 94.3933 285.27 88.1733 287.028 91C287.028 91 287.53 92.3817 286.775 92.9483C286.775 92.9483 285.583 91.5033 284.515 93.2623C283.447 95.0207 283.887 94.8963 283.887 94.8963C283.887 94.8963 282.756 95.2103 282.253 94.393V94.3933Z" fill="#00AD50" stroke="black" stroke-width="0.24375000000000002" stroke-miterlimit="4.8" />
<path d="M286.773 92.9468C286.773 92.9468 288.407 93.8251 287.843 95.5844C287.843 95.5844 290.04 91.3761 287.026 90.9984C287.026 90.9984 287.592 92.3184 286.773 92.9468ZM286.963 88.6768C286.963 88.6768 290.922 89.8068 291.047 91.5048C291.047 91.5048 291.739 88.2364 289.477 87.2314C289.477 87.2318 286.775 87.6721 286.963 88.6768Z" fill="#00AD50" stroke="black" stroke-width="0.24375000000000002" stroke-miterlimit="4.8" />
<path d="M288.724 83.4604C290.42 80.1307 292.556 84.5284 292.556 84.5284C292.556 84.5284 293.31 81.0737 291.175 80.4444C289.038 79.8164 287.656 87.7944 287.656 87.7944L285.143 88.3601C285.143 88.3601 285.834 81.3877 289.603 80.7584L290.042 80.8217" fill="#00AD50" />
<path d="M288.724 83.4604C290.42 80.1307 292.556 84.5284 292.556 84.5284C292.556 84.5284 293.31 81.0737 291.175 80.4444C289.038 79.8164 287.656 87.7944 287.656 87.7944L285.143 88.3601C285.143 88.3601 285.834 81.3877 289.603 80.7584L290.042 80.8217" stroke="black" stroke-width="0.24375000000000002" stroke-miterlimit="4.8" />
<path d="M285.707 85.4702C285.707 85.4702 283.32 80.5702 281.687 80.0682C280.053 79.5655 282.567 78.8115 283.572 79.7535C284.576 80.6949 286.461 81.8895 286.273 84.4029L285.707 85.4702ZM283.257 92.1935C283.257 92.1935 283.947 88.8652 285.832 87.8592C287.716 86.8532 289.476 87.2312 289.476 87.2312C289.476 87.2312 287.213 87.7329 286.838 88.8652C286.46 89.9952 285.832 90.0575 285.832 90.0575L283.257 92.1935Z" fill="#00AD50" stroke="black" stroke-width="0.24375000000000002" stroke-miterlimit="4.8" />
<path d="M282.253 94.3936C282.253 94.3936 281.185 96.4042 281.436 96.7176C281.436 96.7176 280.306 98.3509 280.745 99.1676C280.745 99.1676 281.876 100.047 282.379 99.6696C282.379 99.6696 283.697 97.8489 283.32 96.8429C283.32 96.8429 284.2 95.6502 283.887 94.8969C283.887 94.8969 282.568 94.9592 282.253 94.3936Z" fill="#862633" stroke="black" stroke-width="0.24375000000000002" stroke-miterlimit="4.8" />
<path d="M276.727 90.8038C276.798 90.8398 277.432 91.1478 277.859 91.0054L278.164 90.7444L277.924 90.6254C277.768 90.9358 277.077 90.6798 276.846 90.5654L276.727 90.8038ZM276.624 92.7538L276.572 93.0171C276.626 93.0271 277.9 93.2741 278.508 92.7341L278.33 92.5344C277.822 92.9854 276.637 92.7574 276.624 92.7538ZM276.3 94.9738L276.143 95.1904C276.158 95.2021 277.64 96.2571 278.588 95.1051L278.38 94.9344C277.593 95.8904 276.353 95.0121 276.3 94.9738ZM270.547 95.2938L270.603 95.4371C270.656 95.4154 271.911 94.9114 271.991 93.9934L271.838 93.9794C271.767 94.8034 270.559 95.2891 270.547 95.2938ZM271.257 96.4404L271.268 96.5931C271.317 96.5898 272.475 96.5031 272.678 95.6931L272.528 95.6544C272.354 96.3568 271.268 96.4391 271.257 96.4404ZM271.497 97.6271L271.489 97.7811C271.544 97.7834 272.842 97.8508 273.283 97.1318L273.152 97.0508C272.758 97.6931 271.51 97.6284 271.497 97.6271ZM281.34 96.8138C281.364 96.8381 281.923 97.3911 282.577 97.3664C282.897 97.3551 283.181 97.2078 283.42 96.9321L283.218 96.7561C283.029 96.9738 282.81 97.0898 282.568 97.0991C282.033 97.1184 281.534 96.6298 281.529 96.6238L281.34 96.8138Z" fill="black" />
<path d="M320.353 101.407C320.276 101.436 320.207 101.482 320.15 101.541L320.353 101.407ZM324.973 100.25C324.928 100.136 324.899 100.184 324.84 100.133C324.755 100.064 324.706 99.8409 324.632 99.7579C324.588 99.7069 324.537 99.7565 324.49 99.7439C324.382 99.5062 324.255 99.2559 324.141 99.0266C324.161 98.9947 324.172 98.9577 324.172 98.9199C324.172 98.9105 324.119 98.7275 324.116 98.7195C324.083 98.6685 324.032 98.6985 324.001 98.6195C323.966 98.5409 323.992 98.3859 323.98 98.2929C323.971 98.2155 323.94 98.1729 323.945 98.0635C323.95 97.9685 324.001 97.8582 323.995 97.7749C323.992 97.7229 323.931 97.6059 323.913 97.5615C323.838 97.3822 323.776 97.2129 323.767 96.9915C323.757 96.7909 323.798 96.6682 323.813 96.4942C323.831 96.2859 323.721 96.1846 323.721 95.9922C323.722 95.8449 323.784 95.6795 323.802 95.5475C323.827 95.3665 323.829 95.1045 323.813 94.9195C323.8 94.7422 323.75 94.6356 323.777 94.4362C323.785 94.3876 323.808 94.3482 323.813 94.2796C323.812 94.2309 323.812 94.1839 323.812 94.1362V93.8502C323.812 93.7575 323.821 93.6529 323.813 93.5626C323.805 93.4876 323.761 93.4099 323.761 93.3505C323.761 93.2485 323.826 93.2002 323.812 93.0619C323.803 92.9622 323.789 92.9389 323.766 92.8522C323.722 92.6879 323.752 92.5219 323.725 92.3456C323.713 92.2616 323.686 92.2345 323.678 92.1382C323.667 92.0249 323.701 91.9855 323.713 91.9049C323.724 91.8249 323.736 91.7199 323.725 91.6349C323.713 91.5329 323.664 91.4609 323.678 91.3499L323.641 92.6105C323.609 91.5105 323.565 90.4922 323.565 90.4922L321.893 89.7065C321.893 89.7065 321.751 92.7779 321.787 93.2052C321.82 93.6342 321.964 96.5639 321.893 96.9209C321.821 97.2782 321.645 99.0639 321.645 99.0639C321.645 99.0639 320.827 99.6352 320.507 100.277C320.185 100.921 320.257 101.135 320.149 101.135L320.944 101.011L320.352 101.406C320.413 101.381 320.48 101.373 320.545 101.384C320.61 101.394 320.671 101.421 320.721 101.463C320.734 101.475 320.823 101.55 320.834 101.55C320.865 101.55 320.909 101.471 320.947 101.457C321.07 101.415 321.174 101.646 321.291 101.628C321.353 101.619 321.439 101.553 321.49 101.486C321.533 101.429 321.549 101.329 321.594 101.291C321.634 101.257 321.734 101.297 321.777 101.297C321.893 101.297 322.012 101.301 322.129 101.297C322.284 101.293 322.41 101.074 322.554 100.949C322.687 100.837 322.786 100.797 322.929 100.806C323.085 100.817 323.226 100.963 323.385 100.973C323.506 100.979 323.589 100.993 323.687 100.867C323.754 100.779 323.801 100.648 323.865 100.557L324.26 100.495C324.339 100.528 324.419 100.564 324.486 100.561C324.587 100.557 324.691 100.544 324.791 100.56C324.829 100.565 324.904 100.654 324.935 100.632C324.957 100.616 324.993 100.495 325.014 100.459C325.005 100.411 324.991 100.291 324.973 100.25V100.25Z" fill="#862633" stroke="black" stroke-width="0.13125" stroke-miterlimit="4.8" />
<path d="M321.59 101.35C321.69 101.35 321.783 101.327 321.868 101.401C321.882 101.428 321.894 101.454 321.907 101.479C321.919 101.487 321.933 101.493 321.948 101.495C321.962 101.497 321.977 101.496 321.991 101.49C322.048 101.529 322.059 101.55 322.122 101.565C322.18 101.577 322.243 101.562 322.301 101.563C322.375 101.566 322.41 101.591 322.478 101.619C322.598 101.668 322.676 101.621 322.78 101.547C322.899 101.459 322.943 101.526 323.058 101.637C323.144 101.719 323.126 101.711 323.204 101.655C323.215 101.628 323.229 101.603 323.242 101.581C323.28 101.565 323.32 101.554 323.359 101.547C323.423 101.517 323.486 101.52 323.547 101.497C323.61 101.473 323.657 101.402 323.724 101.415C323.782 101.427 323.848 101.474 323.904 101.492C323.957 101.51 323.98 101.52 324.024 101.553C324.104 101.388 324.28 101.339 324.393 101.26C324.51 101.179 324.619 101.277 324.748 101.278C324.816 101.278 324.844 101.238 324.892 101.223C324.947 101.203 325.009 101.231 325.062 101.21C325.117 101.189 325.128 101.135 325.189 101.129C325.302 101.115 325.429 101.3 325.542 101.335C325.606 101.356 325.901 101.422 325.858 101.205C325.816 100.998 325.631 101.142 325.591 100.997C325.57 100.914 325.613 100.797 325.588 100.705C325.566 100.62 325.473 100.523 325.417 100.504C325.348 100.482 325.307 100.555 325.248 100.498C325.199 100.453 325.181 100.284 325.138 100.217C325.081 100.258 325.045 100.297 324.97 100.281C324.884 100.261 324.892 100.231 324.828 100.15C324.689 99.9762 324.609 100.255 324.481 100.21C324.383 100.179 324.293 99.9336 324.216 99.8336C324.176 99.7802 324.061 99.6075 324.002 99.6462C323.902 99.7109 323.993 99.8989 323.941 99.9822C323.904 100.04 323.772 99.9809 323.724 99.9902C323.649 100.007 323.635 100.026 323.58 100.117C323.47 100.299 323.406 100.443 323.235 100.423C323.154 100.413 323.093 100.331 323.014 100.361C322.929 100.393 322.882 100.484 322.789 100.494C322.722 100.5 322.644 100.502 322.578 100.477C322.513 100.448 322.44 100.326 322.381 100.293C322.37 100.283 322.357 100.276 322.343 100.273C322.329 100.271 322.314 100.272 322.301 100.277C322.294 100.274 322.205 100.222 322.204 100.222C322.1 100.192 322.109 100.195 322.067 100.332C322.042 100.416 322.033 100.503 322.002 100.583C321.972 100.651 321.906 100.734 321.868 100.779C321.796 100.857 321.761 100.836 321.667 100.864C321.592 100.888 321.492 101.005 321.452 100.855C321.392 100.627 321.618 100.288 321.366 100.347C321.3 100.362 321.26 100.375 321.22 100.472C321.175 100.585 321.211 100.657 321.191 100.781C321.164 100.936 320.868 101.197 320.927 101.337C320.966 101.436 321.098 101.284 321.134 101.308C321.194 101.35 321.177 101.448 321.22 101.515C321.31 101.651 321.575 101.303 321.59 101.491M320.516 100.134C320.516 100.114 320.512 100.095 320.511 100.075C320.44 100.062 320.36 99.9869 320.295 99.9856C320.234 99.9822 320.114 100.132 320.072 100.203C319.943 100.418 319.979 100.71 319.761 100.705C319.707 100.704 319.582 100.668 319.536 100.7C319.454 100.758 319.506 100.93 319.506 101.047C319.506 101.157 319.556 101.047 319.497 101.19C319.479 101.229 319.426 101.242 319.412 101.294C319.368 101.481 319.523 101.421 319.592 101.419C319.768 101.418 319.943 101.418 320.117 101.419C320.222 101.422 320.286 101.384 320.384 101.346C320.449 101.324 320.587 101.325 320.642 101.267C320.662 101.245 320.725 101.098 320.734 101.063C320.748 100.991 320.721 100.904 320.738 100.844C320.766 100.739 320.86 100.779 320.877 100.637C320.922 100.288 320.55 100.549 320.608 100.206" fill="#862633" />
<path d="M321.59 101.35C321.69 101.35 321.783 101.327 321.868 101.401C321.882 101.428 321.894 101.454 321.907 101.479C321.919 101.487 321.933 101.493 321.948 101.495C321.962 101.497 321.977 101.496 321.991 101.49C322.048 101.529 322.059 101.55 322.122 101.565C322.18 101.577 322.243 101.562 322.301 101.563C322.375 101.566 322.41 101.591 322.478 101.619C322.598 101.668 322.676 101.621 322.78 101.547C322.899 101.459 322.943 101.526 323.058 101.637C323.144 101.719 323.126 101.711 323.204 101.655C323.215 101.628 323.229 101.603 323.242 101.581C323.28 101.565 323.32 101.554 323.359 101.547C323.423 101.517 323.486 101.52 323.547 101.497C323.61 101.473 323.657 101.402 323.724 101.415C323.782 101.427 323.848 101.474 323.904 101.492C323.957 101.51 323.98 101.52 324.024 101.553C324.104 101.388 324.28 101.339 324.393 101.26C324.51 101.179 324.619 101.277 324.748 101.278C324.816 101.278 324.844 101.238 324.892 101.223C324.947 101.203 325.009 101.231 325.062 101.21C325.117 101.189 325.128 101.135 325.189 101.129C325.302 101.115 325.429 101.3 325.542 101.335C325.606 101.356 325.901 101.422 325.858 101.205C325.816 100.998 325.631 101.142 325.591 100.997C325.57 100.914 325.613 100.797 325.588 100.705C325.566 100.62 325.473 100.523 325.417 100.504C325.348 100.482 325.307 100.555 325.248 100.498C325.199 100.453 325.181 100.284 325.138 100.217C325.081 100.258 325.045 100.297 324.97 100.281C324.884 100.261 324.892 100.231 324.828 100.15C324.689 99.9762 324.609 100.255 324.481 100.21C324.383 100.179 324.293 99.9336 324.216 99.8336C324.176 99.7802 324.061 99.6075 324.002 99.6462C323.902 99.7109 323.993 99.8989 323.941 99.9822C323.904 100.04 323.772 99.9809 323.724 99.9902C323.649 100.007 323.635 100.026 323.58 100.117C323.47 100.299 323.406 100.443 323.235 100.423C323.154 100.413 323.093 100.331 323.014 100.361C322.929 100.393 322.882 100.484 322.789 100.494C322.722 100.5 322.644 100.502 322.578 100.477C322.513 100.448 322.44 100.326 322.381 100.293C322.37 100.283 322.357 100.276 322.343 100.273C322.329 100.271 322.314 100.272 322.301 100.277C322.294 100.274 322.205 100.222 322.204 100.222C322.1 100.192 322.109 100.195 322.067 100.332C322.042 100.416 322.033 100.503 322.002 100.583C321.972 100.651 321.906 100.734 321.868 100.779C321.796 100.857 321.761 100.836 321.667 100.864C321.592 100.888 321.492 101.005 321.452 100.855C321.392 100.627 321.618 100.288 321.366 100.347C321.3 100.362 321.26 100.375 321.22 100.472C321.175 100.585 321.211 100.657 321.191 100.781C321.164 100.936 320.868 101.197 320.927 101.337C320.966 101.436 321.098 101.284 321.134 101.308C321.194 101.35 321.177 101.448 321.22 101.515C321.31 101.651 321.575 101.303 321.59 101.491M320.516 100.134C320.516 100.114 320.512 100.095 320.511 100.075C320.44 100.062 320.36 99.9869 320.295 99.9856C320.234 99.9822 320.114 100.132 320.072 100.203C319.943 100.418 319.979 100.71 319.761 100.705C319.707 100.704 319.582 100.668 319.536 100.7C319.454 100.758 319.506 100.93 319.506 101.047C319.506 101.157 319.556 101.047 319.497 101.19C319.479 101.229 319.426 101.242 319.412 101.294C319.368 101.481 319.523 101.421 319.592 101.419C319.768 101.418 319.943 101.418 320.117 101.419C320.222 101.422 320.286 101.384 320.384 101.346C320.449 101.324 320.587 101.325 320.642 101.267C320.662 101.245 320.725 101.098 320.734 101.063C320.748 100.991 320.721 100.904 320.738 100.844C320.766 100.739 320.86 100.779 320.877 100.637C320.922 100.288 320.55 100.549 320.608 100.206" stroke="black" stroke-width="0.13125" stroke-miterlimit="4.8" />
<path d="M324.736 90.4268C324.736 90.8788 324.426 91.2428 324.043 91.2428C323.664 91.2428 323.352 90.8788 323.352 90.4268C323.352 89.9762 323.664 89.6095 324.043 89.6095C324.426 89.6099 324.736 89.9762 324.736 90.4268ZM322.476 89.4202C322.476 89.8709 322.166 90.2362 321.784 90.2362C321.402 90.2362 321.092 89.8709 321.092 89.4202C321.092 88.9695 321.402 88.6035 321.784 88.6035C322.166 88.6035 322.476 88.9695 322.476 89.4202Z" fill="black" stroke="black" stroke-width="0.24375000000000002" stroke-miterlimit="4.8" />
<path d="M323.669 89.7337C323.669 90.1857 323.359 90.5497 322.978 90.5497C322.596 90.5497 322.287 90.1857 322.287 89.7337C322.287 89.2817 322.596 88.917 322.978 88.917C323.359 88.917 323.669 89.282 323.669 89.7337Z" fill="black" stroke="black" stroke-width="0.24375000000000002" stroke-miterlimit="4.8" />
<path d="M322.513 90.4801C322.513 90.9321 322.202 91.2981 321.821 91.2981C321.439 91.2981 321.13 90.9314 321.13 90.4801C321.13 90.0294 321.439 89.6641 321.821 89.6641C322.202 89.6641 322.513 90.0287 322.513 90.4801Z" fill="black" stroke="black" stroke-width="0.24375000000000002" stroke-miterlimit="4.8" />
<path d="M323.586 91.1036C323.586 91.5543 323.274 91.9216 322.894 91.9216C322.513 91.9216 322.202 91.5543 322.202 91.1036C322.202 90.6529 322.513 90.2876 322.894 90.2876C323.274 90.2879 323.586 90.6529 323.586 91.1036Z" fill="black" stroke="black" stroke-width="0.24375000000000002" stroke-miterlimit="4.8" />
<path d="M323.92 82.1933C323.92 82.1933 330.893 72.4569 338.369 82.5713C338.369 82.5713 338.432 83.5773 337.741 84.6446L337.552 83.8286L337.113 83.9533L336.987 83.4509L336.169 83.3886L336.422 82.3199L335.541 83.0113L335.667 82.2569L334.662 83.2636L334.789 81.1266L333.72 82.9486L333.845 81.6929L333.468 82.2573L333.242 81.5253L332.904 82.2573L332.4 81.8813V82.3836L331.522 81.6296L331.208 82.6346L330.768 81.5673L330.642 82.3206L330.201 81.4406L330.14 82.3839L328.694 81.7549L329.008 82.6346L328.318 82.1329L328.443 82.6346L327.502 82.4469L327.564 83.0116L326.559 82.8229L326.748 83.3249L325.365 83.1376L325.866 83.7029L325.727 83.9329C325.727 83.9329 333.28 81.4419 333.783 90.8649L332.4 91.5556L332.778 90.8036L332.4 90.5513L331.27 89.6729L331.584 88.4779L331.208 88.6046L331.144 87.9136L330.956 88.0389L330.515 87.3479L330.39 87.5996L330.076 86.7816L329.762 87.3483L329.573 85.9656L329.071 86.8466L329.007 86.3436L328.819 86.6576L328.191 85.9033L328.004 86.4059L327.751 86.0293L327.563 86.4686L326.872 85.8393V86.3436L326.433 85.9656L326.243 86.2173L325.177 85.6516L325.111 86.1533L324.547 85.6516L324.358 86.1533C324.358 86.1533 331.208 90.0496 329.07 96.3949L328.692 97.2109L328.568 95.0763L327.94 96.2063L328.377 93.7563L327.94 94.1953L327.876 93.2543L327.312 94.1953L327.121 93.1283L326.872 93.4423L326.493 91.8083L326.179 92.5003L325.677 90.6783L325.3 91.4316L325.049 89.8623L324.797 90.8043L324.043 89.4213L323.918 89.9856L323.479 88.8556L323.226 89.2336C323.226 89.2336 321.97 89.1696 321.594 88.8556C321.217 88.5429 320.148 90.7413 320.148 90.7413L320.274 89.4213L319.835 90.2996V89.4213L319.018 92.0593L318.829 90.1749L318.39 91.8083L318.2 91.3066L318.075 91.9983L317.824 91.7456L317.604 92.4873L317.194 92.1863V93.1909L316.818 92.6883L316.504 94.1963L316.316 93.5696V94.2589L316.002 93.8836L315.687 95.3916L315.248 94.7636L315.186 95.8303L315.373 96.6483L314.871 96.3966L315.06 97.7143C315.06 97.7143 313.112 94.0719 315.438 90.5529C317.76 87.0363 320.902 86.0929 320.902 86.0929L320.587 85.7803L320.524 85.4653L318.64 86.4073L318.703 85.8406L318.2 86.2806L318.075 85.6526L317.76 86.2183L317.699 85.9666L317.258 86.6586L317.006 85.6526L316.692 86.8476L316.396 86.0119L315.75 87.7886V86.4696L315.248 87.8523L315.06 86.3443L314.683 88.1023V86.5319L314.116 88.1023L313.74 86.5956L313.488 88.0396L313.112 86.9096L312.734 88.6053L312.17 87.0973L311.856 89.3596L311.479 88.4786L311.416 90.1126L310.977 89.1079L311.416 91.2426L310.85 90.4266L311.039 91.7456L310.223 90.3003L310.286 91.9983L309.845 91.4316L309.656 92.0599C309.656 92.0599 309.469 85.5266 313.928 84.2693C318.39 83.0133 321.28 84.6469 321.28 84.6469L319.584 83.2653L319.772 82.8249H319.144L319.395 82.3219L318.076 82.3856L318.453 81.8829L317.447 82.0079V81.6946L316.819 82.1956L317.07 81.6313L316.191 82.1956L316.137 81.3599L315.688 82.0716L315.438 81.3173L313.427 83.3266L313.992 81.2539L313.616 81.6946L313.553 81.2539L312.988 82.1346L312.862 81.5056L312.61 82.2589L312.421 81.3799L311.983 82.2589L311.542 81.4436L311.354 82.5119L311.039 81.9453L310.663 82.7619L310.161 82.2586L310.097 82.7619L309.092 82.3219L309.344 83.0766L308.589 82.4486L308.4 83.4533L307.962 82.9506L307.648 84.2079L307.334 83.0136L307.02 83.9559C307.02 83.9559 310.948 73.8606 320.888 80.4473C320.888 80.4473 321.97 81.5059 322.222 82.2593C322.474 83.0139 322.285 82.3859 322.285 82.3859L322.096 75.4126L322.473 78.4283L322.724 77.3596L322.662 78.9306L323.666 76.7313C323.666 76.7313 322.474 80.3756 322.913 81.6946C322.913 81.6946 323.353 77.4859 324.862 76.9826L323.479 79.9979L323.918 79.9346L323.604 80.5639H323.981L323.526 81.5606L323.29 82.0719L323.54 82.5739L323.92 82.1933Z" fill="#00AD50" stroke="black" stroke-width="0.24375000000000002" stroke-miterlimit="4.8" />
<path d="M322.886 86.29L323.085 86.4684C323.111 86.4407 323.733 85.7787 324.776 86.6597L324.949 86.4544C323.701 85.3997 322.892 86.2804 322.886 86.29ZM322.583 82.8701L322.543 83.1117C322.543 83.1117 322.901 82.9587 323.027 82.905C322.949 83.0434 322.694 83.4877 322.694 83.4877L323.417 83.2474C323.118 83.6382 322.819 84.029 322.521 84.4197L322.734 84.5844L324.159 82.7174L323.273 83.0127C323.366 82.852 323.654 82.3444 323.654 82.3444L322.888 82.6737L323.046 81.7157L322.781 81.6714L322.583 82.8701Z" fill="black" />
<path d="M321.253 82.9468C321.253 82.9468 321.429 83.3365 321.562 83.6265C321.505 83.6028 321.07 83.4288 321.07 83.4288L322.52 85.9935C322.52 85.9935 322.695 85.7701 322.705 85.7561C322.559 86.1305 322.413 86.5081 322.413 86.5081L322.664 86.6055L323.289 84.9981L323.058 84.8671L322.555 85.5115C322.419 85.2705 321.918 84.3828 321.68 83.9632C321.71 83.9745 322.082 84.1245 322.082 84.1245C322.082 84.1245 321.809 83.5205 321.681 83.2401L322.224 83.5795V82.6235H321.957V83.0965L321.069 82.5425L321.253 82.9468ZM320.34 86.1668L320.447 86.4125C320.839 86.2445 321.162 86.2165 321.408 86.3335C321.696 86.4715 321.783 86.7681 321.784 86.7701L322.042 86.7008C322.038 86.6835 321.925 86.2848 321.528 86.0935C321.21 85.9408 320.81 85.9651 320.34 86.1668ZM321.465 88.8835L321.245 87.4785L321.51 87.4368L321.731 88.8415L321.465 88.8835ZM323.395 88.6521L323.037 87.5788L323.292 87.4938L323.649 88.5671L323.395 88.6521ZM324.103 89.4455L323.834 88.3735L324.095 88.3082L324.364 89.3802L324.103 89.4455Z" fill="black" />
<path d="M270.47 121.68C270.47 121.68 269.292 121.145 268.756 121.537C268.22 121.93 268.293 122.501 267.828 122.465C267.828 122.465 269.613 122.858 270.005 122.393C270.398 121.93 270.47 121.786 270.47 121.786M270.687 122.173C270.687 122.173 269.911 123.21 270.179 123.817C270.447 124.424 271.02 124.476 270.885 124.922C270.885 124.922 271.652 123.264 271.283 122.78C270.915 122.299 270.792 122.198 270.792 122.198M269.38 119.303C269.38 119.303 268.143 119.687 268.005 120.335C267.863 120.984 268.298 121.364 267.927 121.645C267.927 121.645 269.521 120.752 269.506 120.143C269.491 119.536 269.452 119.382 269.452 119.382M270.107 119.73C270.107 119.73 270.693 118.574 270.324 118.024C269.955 117.47 269.38 117.517 269.437 117.056C269.437 117.056 268.965 118.821 269.412 119.235C269.86 119.645 270 119.724 270 119.724M268.893 119.31C268.893 119.31 268.922 118.018 268.349 117.68C267.778 117.342 267.28 117.633 267.13 117.191C267.13 117.191 267.472 118.988 268.055 119.167C268.637 119.342 268.797 119.353 268.797 119.353M271.007 121.463C271.007 121.463 272.363 120.998 272.471 122.463C272.577 123.926 272.399 123.427 272.399 123.427C272.399 123.427 271.685 121.856 270.9 121.606L271.007 121.463Z" fill="#00AD50" />
<path d="M270.47 121.68C270.47 121.68 269.292 121.145 268.756 121.537C268.22 121.93 268.293 122.501 267.828 122.465C267.828 122.465 269.613 122.858 270.005 122.393C270.398 121.93 270.47 121.786 270.47 121.786M270.687 122.173C270.687 122.173 269.911 123.21 270.179 123.817C270.447 124.424 271.02 124.476 270.885 124.922C270.885 124.922 271.652 123.264 271.283 122.78C270.915 122.299 270.792 122.198 270.792 122.198M269.38 119.303C269.38 119.303 268.143 119.687 268.005 120.335C267.863 120.984 268.298 121.364 267.927 121.645C267.927 121.645 269.521 120.752 269.506 120.143C269.491 119.536 269.452 119.382 269.452 119.382M270.107 119.73C270.107 119.73 270.693 118.574 270.324 118.024C269.955 117.47 269.38 117.517 269.437 117.056C269.437 117.056 268.965 118.821 269.412 119.235C269.86 119.645 270 119.724 270 119.724M268.893 119.31C268.893 119.31 268.922 118.018 268.349 117.68C267.778 117.342 267.28 117.633 267.13 117.191C267.13 117.191 267.472 118.988 268.055 119.167C268.637 119.342 268.797 119.353 268.797 119.353M271.007 121.463C271.007 121.463 272.363 120.998 272.471 122.463C272.577 123.926 272.399 123.427 272.399 123.427C272.399 123.427 271.685 121.856 270.9 121.606L271.007 121.463Z" stroke="black" stroke-width="0.24375000000000002" stroke-miterlimit="4.8" />
<path d="M270.663 122.196C270.663 122.228 270.805 123.334 270.805 123.334L270.996 123.31L270.852 122.203C270.857 122.204 271.316 119.769 271.316 119.769L271.127 119.734L270.663 122.196Z" fill="black" />
<path d="M269.43 121.836L269.367 122.017C270.016 122.245 270.921 121.532 270.958 121.502L270.838 121.353C270.83 121.359 269.979 122.031 269.43 121.836ZM271.13 120.408L268.096 118.873L268.217 118.634L271.251 120.169L271.13 120.408Z" fill="black" />
<path d="M268.93 120.063L268.74 119.874L269.347 119.267L269.536 119.457L268.93 120.063ZM269.991 119.768L269.349 118.375L269.592 118.263L270.235 119.656L269.991 119.768ZM270.89 121.473L270.907 121.741C271.732 121.685 271.934 122.219 271.935 122.225L272.198 122.171C272.167 122.018 271.836 121.409 270.89 121.473Z" fill="black" />
<path d="M284.809 122.09C285.821 121.523 286.024 119.538 286.024 119.538C285.782 120.268 283.92 120.996 283.92 120.996C285.296 120.144 286.954 116.301 286.954 116.301C286.509 117.678 282.908 118.81 280.601 120.105C278.293 121.399 279.508 125.124 279.508 125.124C278.861 124.679 277.606 122.697 277.364 120.955C277.119 119.215 276.432 118.528 274.853 118.325C273.274 118.122 272.344 119.902 272.344 119.902L269.997 121.118L272.383 121.198C272.383 121.198 274.085 121.766 274.085 123.101C274.085 124.437 272.588 129.779 275.055 132.775C276.773 134.857 283.111 136.053 283.111 136.053" fill="white" />
<path d="M284.809 122.09C285.821 121.523 286.024 119.538 286.024 119.538C285.782 120.268 283.92 120.996 283.92 120.996C285.296 120.144 286.954 116.301 286.954 116.301C286.509 117.678 282.908 118.81 280.601 120.105C278.293 121.399 279.508 125.124 279.508 125.124C278.861 124.679 277.606 122.697 277.364 120.955C277.119 119.215 276.432 118.528 274.853 118.325C273.274 118.122 272.344 119.902 272.344 119.902L269.997 121.118L272.383 121.198C272.383 121.198 274.085 121.766 274.085 123.101C274.085 124.437 272.588 129.779 275.055 132.775C276.773 134.857 283.111 136.053 283.111 136.053" stroke="black" stroke-miterlimit="4.8" />
<path d="M280.156 126.217C280.156 126.217 280.642 123.828 282.22 123.909C283.799 123.99 284.244 122.129 285.175 121.845C286.106 121.563 290.922 120.268 291.448 117.96C291.448 117.96 291.003 121.765 286.592 123.667C286.592 123.667 290.153 122.493 290.558 121.724C290.558 121.724 288.979 125.124 285.134 125.65C285.134 125.65 288.736 125.367 289.263 124.396C289.263 124.396 287.644 126.541 284.973 126.825C284.973 126.825 287.441 127.836 288.09 126.986C288.09 126.986 286.753 128.564 285.093 128.685L285.54 128.807C285.54 128.807 283.961 130.669 282.221 129.414C280.481 128.159 280.439 129.739 280.439 129.739" fill="white" />
<path d="M280.156 126.217C280.156 126.217 280.642 123.828 282.22 123.909C283.799 123.99 284.244 122.129 285.175 121.845C286.106 121.563 290.922 120.268 291.448 117.96C291.448 117.96 291.003 121.765 286.592 123.667C286.592 123.667 290.153 122.493 290.558 121.724C290.558 121.724 288.979 125.124 285.134 125.65C285.134 125.65 288.736 125.367 289.263 124.396C289.263 124.396 287.644 126.541 284.973 126.825C284.973 126.825 287.441 127.836 288.09 126.986C288.09 126.986 286.753 128.564 285.093 128.685L285.54 128.807C285.54 128.807 283.961 130.669 282.221 129.414C280.481 128.159 280.439 129.739 280.439 129.739" stroke="black" stroke-miterlimit="4.8" />
<path d="M283.75 129.816C283.75 129.816 285.783 133.217 285.986 135.038C285.986 135.038 289.872 139.329 291.329 139.57C291.329 139.57 290.64 139.852 289.385 138.801C289.385 138.801 290.437 139.894 290.64 139.935C290.842 139.976 289.79 139.854 289.627 139.57C289.627 139.57 290.073 140.219 290.356 140.3C290.64 140.381 290.073 140.219 290.073 140.219C290.073 140.219 289.546 140.138 289.304 139.935C289.06 139.733 289.223 140.46 289.223 140.46C289.223 140.46 288.615 140.298 288.414 140.096C288.211 139.894 288.495 140.543 288.495 140.543L287.969 140.42L287.605 140.662C287.605 140.662 287.564 140.906 287.32 140.703C287.079 140.503 286.633 140.703 286.633 140.703C286.633 140.703 286.308 140.987 286.147 140.784C285.986 140.582 285.373 141.563 285.373 141.563L282.824 135.411" fill="white" />
<path d="M283.75 129.816C283.75 129.816 285.783 133.217 285.986 135.038C285.986 135.038 289.872 139.329 291.329 139.57C291.329 139.57 290.64 139.852 289.385 138.801C289.385 138.801 290.437 139.894 290.64 139.935C290.842 139.976 289.79 139.854 289.627 139.57C289.627 139.57 290.073 140.219 290.356 140.3C290.64 140.381 290.073 140.219 290.073 140.219C290.073 140.219 289.546 140.138 289.304 139.935C289.06 139.733 289.223 140.46 289.223 140.46C289.223 140.46 288.615 140.298 288.414 140.096C288.211 139.894 288.495 140.543 288.495 140.543L287.969 140.42L287.605 140.662C287.605 140.662 287.564 140.906 287.32 140.703C287.079 140.503 286.633 140.703 286.633 140.703C286.633 140.703 286.308 140.987 286.147 140.784C285.986 140.582 285.373 141.563 285.373 141.563L282.824 135.411" stroke="black" stroke-miterlimit="4.8" />
<path d="M286.168 140.976L282.947 134.845L283.285 134.667L286.506 140.798L286.168 140.976ZM288.982 140.562L283.472 134.392L283.758 134.137L289.268 140.307L288.982 140.562ZM290.239 140.018L283.951 134.158L284.212 133.878L290.5 139.738L290.239 140.018Z" fill="black" />
<path d="M274.48 120.28C274.48 120.28 274.07 119.545 273.713 119.821C273.356 120.096 273.151 120.147 273.089 120.128C273.089 120.128 273.448 120.147 273.652 119.954C273.856 119.758 274.204 119.882 274.48 120.28ZM272.26 119.943C272.26 119.943 272.486 120.409 272.489 120.417C272.466 120.419 272.234 121.17 272.234 121.17L272.419 121.226L272.669 120.409C272.664 120.338 272.434 119.861 272.434 119.861L272.26 119.943Z" fill="black" />
<path d="M274.387 120.167C274.387 120.167 274.081 120.525 273.661 120.422L273.244 120.32C273.244 120.32 273.599 120.34 273.836 120.351C274.069 120.361 274.375 120.239 274.387 120.167Z" fill="black" />
<path d="M274.287 120.24C274.287 120.24 273.909 119.842 273.653 119.954C273.653 119.954 274.103 119.811 274.359 120.198L274.287 120.24Z" fill="black" />
<path d="M274.223 120.166C274.223 120.166 273.795 120.462 273.324 120.136L273.295 120.114L273.356 120.095C273.356 120.095 273.949 120.34 274.223 120.166Z" fill="black" />
<path d="M273.858 120.222C273.929 120.222 273.986 120.165 273.986 120.094C273.986 120.024 273.929 119.967 273.858 119.967C273.788 119.967 273.73 120.024 273.73 120.094C273.73 120.165 273.788 120.222 273.858 120.222Z" fill="black" />
<path d="M274.203 131.4C274.203 131.4 273.871 132.011 274.044 132.38C274.22 132.747 275.008 132.938 275.113 133.428C275.218 133.92 275.481 133.919 275.849 133.85C276.217 133.78 276.287 133.762 276.287 133.762C276.287 133.762 274.745 132.938 274.342 131.609L274.203 131.4Z" fill="black" />
<path d="M324.029 118.95C324.029 118.95 326.835 115.251 329.323 116.222C331.811 117.195 333.428 117.663 333.428 117.663C333.428 117.663 333.476 120.154 332.152 120.154C330.832 120.154 329.567 117.666 328.364 118.406C327.158 119.144 326.169 120.156 326.091 120.504C326.013 120.854 322.903 120.932 324.029 118.95Z" fill="#862633" stroke="black" stroke-width="0.15" stroke-miterlimit="4.8" />
<path d="M313.379 136.79C313.379 136.79 312.603 137.605 312.953 137.801C313.304 137.994 314.002 137.76 314.002 137.489C314.002 137.216 313.537 136.713 313.379 136.79Z" fill="#862633" stroke="black" stroke-width="0.24375000000000002" stroke-miterlimit="4.8" />
<path d="M312.759 137.567C312.759 137.567 311.322 136.749 310.195 138.692C309.066 140.636 308.134 143.785 307.473 144.212C306.813 144.64 313.887 141.103 313.965 139.626C313.965 139.626 314.431 137.721 313.693 137.759C312.954 137.8 312.915 137.878 312.759 137.567Z" fill="#862633" stroke="black" stroke-width="0.24375000000000002" stroke-miterlimit="4.8" />
<path d="M312.952 137.8C312.952 137.8 311.476 138.148 311.165 140.246C310.854 142.347 308.794 143.434 308.678 143.512M333.432 117.664C333.432 117.664 331.186 118.445 331.574 120Z" fill="#862633" />
<path d="M312.952 137.8C312.952 137.8 311.476 138.148 311.165 140.246C310.854 142.347 308.794 143.434 308.678 143.512M333.432 117.664C333.432 117.664 331.186 118.445 331.574 120" stroke="black" stroke-width="0.15" stroke-miterlimit="4.8" />
<path d="M316.179 122.214C316.179 122.214 316.256 116.888 320.607 117.121C321.431 117.198 321.038 118.17 321.038 118.17C321.038 118.17 321.979 117.511 322.409 118.559C322.409 118.559 323.781 117.937 323.937 119.298C323.937 119.298 325.427 119.105 325.231 120.309C325.231 120.309 326.249 120.076 326.211 120.931C326.211 120.931 327.387 120.464 327.268 121.669C327.268 121.669 328.562 120.814 328.367 122.368C328.367 122.368 329.7 121.437 330.168 122.991C330.639 124.545 328.837 127.849 327.073 128.704" fill="#FEDD00" />
<path d="M316.179 122.214C316.179 122.214 316.256 116.888 320.607 117.121C321.431 117.198 321.038 118.17 321.038 118.17C321.038 118.17 321.979 117.511 322.409 118.559C322.409 118.559 323.781 117.937 323.937 119.298C323.937 119.298 325.427 119.105 325.231 120.309C325.231 120.309 326.249 120.076 326.211 120.931C326.211 120.931 327.387 120.464 327.268 121.669C327.268 121.669 328.562 120.814 328.367 122.368C328.367 122.368 329.7 121.437 330.168 122.991C330.639 124.545 328.837 127.849 327.073 128.704" stroke="black" stroke-width="0.15" stroke-miterlimit="4.8" />
<path d="M328.27 122.537C328.276 122.579 328.856 126.703 326.517 128.212L326.6 128.342C329.023 126.779 328.427 122.557 328.422 122.514L328.27 122.537ZM325.453 127.054L325.561 127.164C327.042 125.722 327.361 121.838 327.372 121.674L327.221 121.661C327.217 121.702 326.895 125.653 325.453 127.054ZM324.07 126.13L324.222 126.143C324.413 123.744 326.288 121.001 326.308 120.973L326.181 120.887C326.162 120.914 324.264 123.691 324.07 126.13ZM322.983 125.43L323.136 125.446C323.402 122.552 325.313 120.38 325.332 120.36L325.219 120.257C325.199 120.278 323.255 122.486 322.983 125.43ZM321.466 124.464L321.619 124.469C321.771 121.053 324.012 119.376 324.035 119.359L323.944 119.236C323.922 119.253 321.622 120.969 321.466 124.464ZM320.066 123.614L320.22 123.609C320.108 120.5 322.499 118.638 322.524 118.619L322.431 118.498C322.406 118.518 319.953 120.424 320.066 123.614ZM317.543 122.477L317.695 122.496C318.111 119.13 321.107 118.254 321.137 118.246L321.095 118.099C321.065 118.107 317.971 119.008 317.543 122.477Z" fill="black" />
<path d="M313.612 128.667C313.612 128.667 312.875 123.729 315.828 122.176C315.828 122.176 316.374 122.059 316.683 122.759C316.683 122.759 318.239 122.099 318.278 123.418C318.278 123.418 319.055 122.797 319.249 123.652C319.249 123.652 320.92 123.303 320.609 124.546C320.609 124.546 322.008 124.158 321.892 125.361C321.892 125.361 323.292 124.856 323.057 125.906C323.057 125.906 324.534 125.557 324.185 126.762C324.185 126.762 326.012 126.568 325.468 127.85C325.468 127.85 326.828 127.501 326.517 128.55C326.517 128.55 328.305 128.862 327.488 129.988C326.672 131.114 324.611 132.825 322.593 133.563" fill="#00AD50" />
<path d="M313.612 128.667C313.612 128.667 312.875 123.729 315.828 122.176C315.828 122.176 316.374 122.059 316.683 122.759C316.683 122.759 318.239 122.099 318.278 123.418C318.278 123.418 319.055 122.797 319.249 123.652C319.249 123.652 320.92 123.303 320.609 124.546C320.609 124.546 322.008 124.158 321.892 125.361C321.892 125.361 323.292 124.856 323.057 125.906C323.057 125.906 324.534 125.557 324.185 126.762C324.185 126.762 326.012 126.568 325.468 127.85C325.468 127.85 326.828 127.501 326.517 128.55C326.517 128.55 328.305 128.862 327.488 129.988C326.672 131.114 324.611 132.825 322.593 133.563" stroke="black" stroke-width="0.15" stroke-miterlimit="4.8" />
<path d="M312.019 133.64C312.019 133.64 310.814 129.522 313.109 128.471C313.109 128.471 313.534 128.353 313.612 128.782C313.612 128.782 314.119 128.121 314.508 128.705C314.508 128.705 315.673 128.16 315.946 129.015C315.946 129.015 316.723 128.353 317.112 129.324C317.112 129.324 317.851 129.015 317.851 129.791C317.851 129.791 318.861 129.364 318.861 130.297C318.861 130.297 319.831 129.909 319.637 130.957C319.637 130.957 321.115 131.19 320.687 131.89C320.687 131.89 322.011 132.239 321.503 132.784C321.503 132.784 322.941 132.629 322.164 133.6C322.164 133.6 323.252 133.251 322.631 134.457C322.008 135.661 320.066 136.982 318.706 137.137" fill="#00AD50" />
<path d="M312.019 133.64C312.019 133.64 310.814 129.522 313.109 128.471C313.109 128.471 313.534 128.353 313.612 128.782C313.612 128.782 314.119 128.121 314.508 128.705C314.508 128.705 315.673 128.16 315.946 129.015C315.946 129.015 316.723 128.353 317.112 129.324C317.112 129.324 317.851 129.015 317.851 129.791C317.851 129.791 318.861 129.364 318.861 130.297C318.861 130.297 319.831 129.909 319.637 130.957C319.637 130.957 321.115 131.19 320.687 131.89C320.687 131.89 322.011 132.239 321.503 132.784C321.503 132.784 322.941 132.629 322.164 133.6C322.164 133.6 323.252 133.251 322.631 134.457C322.008 135.661 320.066 136.982 318.706 137.137" stroke="black" stroke-width="0.15" stroke-miterlimit="4.8" />
<path d="M313.455 136.904C313.455 136.904 310.891 134.416 312.097 133.678C312.097 133.678 312.639 133.832 312.834 134.377C312.834 134.377 313.455 133.484 313.807 134.416C313.807 134.416 314.74 134.105 314.74 134.728L315.477 135.273C315.477 135.273 316.333 135.194 316.178 135.739C316.178 135.739 317.111 135.622 317.071 136.127C317.071 136.127 317.889 136.166 317.811 136.709C317.811 136.709 319.209 136.942 318.587 137.643C318.587 137.643 316.139 138.147 314.429 137.448C314.429 137.448 313.533 137.136 313.455 136.904Z" fill="#00AD50" stroke="black" stroke-width="0.15" stroke-miterlimit="4.8" />
<path d="M322.252 132.794L322.307 132.936C323.827 132.351 326.466 128.748 326.579 128.595L326.455 128.503C326.427 128.542 323.73 132.224 322.252 132.793V132.794ZM321.389 132.137L321.463 132.27C322.785 131.533 325.419 128.045 325.53 127.897L325.408 127.804C325.381 127.841 322.683 131.415 321.388 132.137L321.389 132.137ZM320.639 131.83L320.737 131.948C322.134 130.788 324.168 126.959 324.255 126.797L324.119 126.725C324.099 126.764 322.013 130.69 320.639 131.831L320.639 131.83ZM319.952 130.947L320.104 130.968C320.369 129.033 323.088 125.986 323.115 125.956L323.001 125.853C322.889 125.98 320.223 128.965 319.952 130.947ZM314.509 128.594L314.662 128.58C314.433 125.846 316.722 122.834 316.745 122.804L316.624 122.712C316.599 122.742 314.276 125.799 314.509 128.594ZM315.949 128.834L316.101 128.807C315.722 126.615 318.311 123.498 318.337 123.467L318.22 123.368C318.111 123.497 315.559 126.569 315.949 128.834ZM318.162 129.64L318.315 129.636C318.24 127.134 320.641 124.625 320.665 124.599L320.555 124.493C320.531 124.518 318.084 127.074 318.162 129.64ZM312.882 134.174L313.025 134.12C312.154 131.808 313.667 128.847 313.683 128.818L313.545 128.748C313.53 128.778 311.986 131.797 312.882 134.174ZM313.889 134.324L314.035 134.276C313.274 131.921 314.563 128.765 314.577 128.734L314.434 128.675C314.422 128.706 313.112 131.915 313.889 134.324ZM318.055 136.677L318.108 136.822C320.588 135.93 322.209 133.668 322.225 133.647L322.1 133.557C322.085 133.579 320.492 135.803 318.056 136.677H318.055ZM317.545 136.137L317.608 136.277C319.586 135.385 321.43 132.895 321.448 132.87L321.324 132.78C321.306 132.805 319.486 135.261 317.545 136.137V136.137ZM317.065 135.95L317.155 136.075C318.702 134.954 320.69 132.081 320.711 132.051L320.585 131.966C320.564 131.995 318.592 134.845 317.065 135.95V135.95ZM314.585 134.507L314.737 134.485C314.395 132.014 315.995 129.082 316.012 129.053L315.878 128.979C315.861 129.009 314.237 131.985 314.585 134.507ZM315.662 135.177L315.765 135.29C317.361 133.85 317.905 129.967 317.927 129.802L317.775 129.781C317.77 129.821 317.217 133.775 315.662 135.177Z" fill="black" />
<path d="M316.756 135.637L316.845 135.761C319.098 134.131 319.709 131.003 319.714 130.972L319.564 130.944C319.558 130.974 318.959 134.042 316.756 135.637V135.637ZM317.016 128.893C317.016 129.039 317.023 129.185 317.036 129.333C317.034 129.32 315.328 134.86 315.328 134.86L315.474 134.905L317.187 129.347C316.922 126.661 319.286 123.728 319.309 123.699L319.191 123.603C319.167 123.63 317.016 126.301 317.016 128.893Z" fill="black" />
<path d="M318.802 130.247C318.78 130.325 318.26 134.12 316.213 135.52L316.299 135.646C318.404 134.206 318.916 130.465 318.936 130.307C319.845 129.226 321.938 125.435 321.959 125.397L321.825 125.323C321.804 125.361 319.719 129.14 318.802 130.247ZM312.759 134.394C312.774 134.473 313.116 136.359 313.507 137.024L313.639 136.947C313.261 136.305 312.914 134.387 312.911 134.367L312.759 134.394ZM313.729 134.417C313.745 135.356 313.75 136.896 313.697 137.033L313.84 137.089C313.919 136.891 313.889 134.827 313.883 134.416L313.729 134.417Z" fill="black" />
<path d="M313.815 137.107L313.955 137.169C314.612 135.739 314.814 134.753 314.817 134.743L314.666 134.713C314.664 134.721 314.465 135.694 313.815 137.107Z" fill="black" />
<path d="M313.962 137.15L314.04 137.282C315.259 136.574 315.542 135.342 315.552 135.29L315.402 135.257C315.399 135.269 315.122 136.477 313.962 137.15Z" fill="black" />
<path d="M314.188 137.257L314.204 137.409C315.398 137.289 316.212 135.838 316.247 135.777L316.112 135.703C316.104 135.718 315.302 137.145 314.188 137.257Z" fill="black" />
<path d="M314.309 137.334L314.318 137.486C316.236 137.368 317.099 136.222 317.134 136.174L317.01 136.083C317.002 136.094 316.151 137.221 314.309 137.334Z" fill="black" />
<path d="M314.445 137.373L314.414 137.523C314.517 137.546 316.961 138.065 317.798 136.791L317.67 136.707C316.892 137.893 314.469 137.378 314.445 137.373Z" fill="black" />
<path d="M259.6 47.98V116.343C259.6 138.703 300 151.98 300 151.98C300 151.98 340.4 138.702 340.4 116.343V47.98H259.6Z" stroke="black" stroke-width="1.3125" stroke-miterlimit="4.8" />
</g>
<defs>
<clipPath id="clip0_114_891">
<rect width="400" height="200" fill="white" />
</clipPath>
</defs>
</svg>