<svg width="300" height="200" viewBox="0 0 300 200" fill="none" xmlns="http://www.w3.org/2000/svg">
<g clip-path="url(#clip0_5_2055)">

<path d="M131.16 47H48.786L48.5037 49.6863C48.4423 50.2703 47 64.3433 47 95.2497C47 109.771 51.9087 122.582 61.59 133.326C68.373 140.855 77.231 147.193 88.6707 152.703L89.9723 153.33L91.2743 152.703C102.714 147.193 111.573 140.855 118.356 133.326C128.038 122.582 132.947 109.771 132.947 95.2497C132.947 64.3437 131.504 50.2703 131.443 49.6863L131.16 47Z" fill="white"/>
<path d="M89.9723 150C73.5257 142.078 50 126.354 50 95.2497C50 64.1453 51.487 50 51.487 50H128.459C128.459 50 129.946 64.1457 129.946 95.2497C129.946 126.354 106.42 142.078 89.9723 150Z" fill="#EE1C25"/>
<path d="M93.495 87.0949C97.9484 87.1669 106.637 87.3412 114.373 84.7525C114.373 84.7525 114.169 87.5212 114.169 90.7459C114.169 93.9715 114.373 96.7399 114.373 96.7399C107.277 94.3649 98.5134 94.3155 93.495 94.3792V111.559H86.4604V94.3792C81.442 94.3155 72.6787 94.3649 65.582 96.7399C65.582 96.7399 65.7864 93.9715 65.7864 90.7459C65.7864 87.5209 65.582 84.7525 65.582 84.7525C73.3187 87.3412 82.007 87.1669 86.4604 87.0949V76.3055C82.4014 76.2695 76.5527 76.4632 69.9394 78.6765C69.9394 78.6765 70.1437 75.9082 70.1437 72.6825C70.1437 69.4572 69.9394 66.6889 69.9394 66.6889C76.5427 68.8982 82.3847 69.0952 86.4424 69.0602C86.2337 62.2275 84.2434 53.6162 84.2434 53.6162C84.2434 53.6162 88.3397 53.9359 89.9774 53.9359C91.6167 53.9359 95.7117 53.6162 95.7117 53.6162C95.7117 53.6162 93.722 62.2279 93.513 69.0595C97.571 69.0949 103.413 68.8979 110.016 66.6882C110.016 66.6882 109.812 69.4565 109.812 72.6819C109.812 75.9075 110.016 78.6759 110.016 78.6759C103.403 76.4629 97.554 76.2689 93.495 76.3049V87.0949Z" fill="white"/>
<path d="M89.9681 109.698C81.6841 109.698 77.2471 121.188 77.2471 121.188C77.2471 121.188 74.7854 115.74 68.0267 115.74C63.4537 115.74 60.0837 119.807 57.9414 123.573C66.2611 136.808 79.5347 144.976 89.9677 150C100.403 144.975 113.685 136.81 122.005 123.573C119.863 119.807 116.493 115.74 111.92 115.74C105.161 115.74 102.689 121.188 102.689 121.188C102.689 121.188 98.2527 109.698 89.9681 109.698Z" fill="#0B4EA2"/>
</g>
<defs>
<clipPath id="clip0_5_2055">
<rect width="300" height="200" fill="white"/>
</clipPath>
</defs>
</svg>
