<svg width="400" height="200" viewBox="0 0 400 200" fill="none"
    xmlns="http://www.w3.org/2000/svg">
    <g clip-path="url(#clip0_5_4971)">
        <path d="M33.7694 34.2134H23.0231C22.4312 34.2134 21.9514 34.6633 21.9514 35.2184V40.2807C21.9514 40.8358 22.4312 41.2857 23.0231 41.2857H33.7694C34.3613 41.2857 34.8411 40.8358 34.8411 40.2807V35.2184C34.8411 34.6633 34.3613 34.2134 33.7694 34.2134Z" fill="white" stroke="#DB161B" stroke-width="0.378"/>
        <path d="M33.494 34.5068H23.2987C22.7372 34.5068 22.282 34.9193 22.282 35.4282V40.0685C22.282 40.5773 22.7372 40.9898 23.2987 40.9898H33.494C34.0555 40.9898 34.5106 40.5773 34.5106 40.0685V35.4282C34.5106 34.9193 34.0555 34.5068 33.494 34.5068Z" fill="white" stroke="#DB161B" stroke-width="0.352"/>
        <path fill-rule="evenodd" clip-rule="evenodd" d="M27.9682 36.2769L28.5859 36.2969L28.6139 36.5769L29.1192 36.8335L29.5125 36.5135L29.9895 36.7702L29.5405 37.0502L29.6529 37.4369L30.2142 37.4169V37.9335L29.7652 37.9102L29.5405 38.2335L30.0459 38.6002L29.6529 38.9002L29.2315 38.5769L28.6139 38.7069L28.6419 39.1802L27.9682 39.2235L27.8839 38.7702L27.3225 38.5335L27.0135 38.8569L26.5362 38.6202L26.8172 38.2535L26.4802 38.0169H26.0029L25.9749 37.3502L26.4522 37.3935L26.7889 37.0069L26.3959 36.7069L26.9012 36.3602L27.2662 36.6402L27.8839 36.5569L27.9682 36.2769Z" fill="white" stroke="#DB161B" stroke-width="0.222"/>
        <path d="M28.1549 38.2533C28.5295 38.2533 28.8332 37.9933 28.8332 37.6725C28.8332 37.3518 28.5295 37.0918 28.1549 37.0918C27.7803 37.0918 27.4766 37.3518 27.4766 37.6725C27.4766 37.9933 27.7803 38.2533 28.1549 38.2533Z" fill="white" stroke="#DB161B" stroke-width="0.239452"/>
        <path fill-rule="evenodd" clip-rule="evenodd" d="M23.9344 34.8032L22.9431 35.6866ZM24.5954 34.8032L23.6041 35.6866ZM25.2564 34.8032L24.2651 35.6866ZM25.9174 34.8032L24.9261 35.6866ZM26.5784 34.8032L25.5871 35.6866ZM27.2394 34.8032L26.2481 35.6866ZM27.9008 34.8032L26.9091 35.6866ZM28.5618 34.8032L27.5701 35.6866ZM29.2228 34.8032L28.2311 35.6866ZM29.8838 34.8032L28.8921 35.6866ZM30.5448 34.8032L29.5531 35.6866ZM31.2058 34.8032L30.2141 35.6866ZM28.5618 34.8032L27.5701 35.6866ZM31.8668 34.8032L30.8751 35.6866ZM32.5278 34.8032L31.5361 35.6866ZM33.1888 34.8032L32.1971 35.6866ZM33.8501 34.8032L32.8581 35.6866ZM32.8581 34.8032L33.8501 35.6866ZM32.1971 34.8032L33.1888 35.6866ZM31.5361 34.8032L32.5278 35.6866ZM30.8751 34.8032L31.8668 35.6866ZM30.2141 34.8032L31.2058 35.6866ZM29.5531 34.8032L30.5448 35.6866ZM28.8921 34.8032L29.8838 35.6866ZM28.2311 34.8032L29.2228 35.6866ZM27.5701 34.8032L28.5618 35.6866ZM26.9091 34.8032L27.9008 35.6866ZM26.2481 34.8032L27.2398 35.6866ZM25.5871 34.8032L26.5784 35.6866ZM28.2311 34.8032L29.2228 35.6866ZM24.9261 34.8032L25.9174 35.6866ZM24.2651 34.8032L25.2564 35.6866ZM23.6041 34.8032L24.5954 35.6866ZM22.9431 34.8032L23.9344 35.6866ZM23.9344 39.8099L22.9431 40.6966ZM24.5954 39.8099L23.6041 40.6966ZM25.2564 39.8099L24.2651 40.6966ZM25.9174 39.8099L24.9261 40.6966ZM26.5784 39.8099L25.5871 40.6966ZM27.2394 39.8099L26.2481 40.6966ZM27.9008 39.8099L26.9091 40.6966ZM28.5618 39.8099L27.5701 40.6966ZM29.2228 39.8099L28.2311 40.6966ZM29.8838 39.8099L28.8921 40.6966ZM30.5448 39.8099L29.5531 40.6966ZM31.2058 39.8099L30.2141 40.6966ZM28.5618 39.8099L27.5701 40.6966ZM31.8668 39.8099L30.8751 40.6966ZM32.5278 39.8099L31.5361 40.6966ZM33.1888 39.8099L32.1971 40.6966ZM33.8501 39.8099L32.8581 40.6966ZM32.8581 39.8099L33.8501 40.6966ZM32.1971 39.8099L33.1888 40.6966ZM31.5361 39.8099L32.5278 40.6966ZM30.8751 39.8099L31.8668 40.6966ZM30.2141 39.8099L31.2058 40.6966ZM29.5531 39.8099L30.5448 40.6966ZM28.8921 39.8099L29.8838 40.6966ZM28.2311 39.8099L29.2228 40.6966ZM27.5701 39.8099L28.5618 40.6966ZM26.9091 39.8099L27.9008 40.6966ZM26.2481 39.8099L27.2398 40.6966ZM25.5871 39.8099L26.5784 40.6966ZM28.2311 39.8099L29.2228 40.6966ZM24.9261 39.8099L25.9174 40.6966ZM24.2651 39.8099L25.2564 40.6966ZM23.6041 39.8099L24.5954 40.6966ZM22.9431 39.8099L23.9344 40.6966Z" fill="white"/>
        <path d="M23.9344 34.8032L22.9431 35.6866M24.5954 34.8032L23.6041 35.6866M25.2564 34.8032L24.2651 35.6866M25.9174 34.8032L24.9261 35.6866M26.5784 34.8032L25.5871 35.6866M27.2394 34.8032L26.2481 35.6866M27.9008 34.8032L26.9091 35.6866M28.5618 34.8032L27.5701 35.6866M29.2228 34.8032L28.2311 35.6866M29.8838 34.8032L28.8921 35.6866M30.5448 34.8032L29.5531 35.6866M31.2058 34.8032L30.2141 35.6866M31.8668 34.8032L30.8751 35.6866M32.5278 34.8032L31.5361 35.6866M33.1888 34.8032L32.1971 35.6866M33.8501 34.8032L32.8581 35.6866M32.8581 34.8032L33.8501 35.6866M32.1971 34.8032L33.1888 35.6866M31.5361 34.8032L32.5278 35.6866M30.8751 34.8032L31.8668 35.6866M30.2141 34.8032L31.2058 35.6866M29.5531 34.8032L30.5448 35.6866M28.8921 34.8032L29.8838 35.6866M28.2311 34.8032L29.2228 35.6866M27.5701 34.8032L28.5618 35.6866M26.9091 34.8032L27.9008 35.6866M26.2481 34.8032L27.2398 35.6866M25.5871 34.8032L26.5784 35.6866M24.9261 34.8032L25.9174 35.6866M24.2651 34.8032L25.2564 35.6866M23.6041 34.8032L24.5954 35.6866M22.9431 34.8032L23.9344 35.6866M23.9344 39.8099L22.9431 40.6966M24.5954 39.8099L23.6041 40.6966M25.2564 39.8099L24.2651 40.6966M25.9174 39.8099L24.9261 40.6966M26.5784 39.8099L25.5871 40.6966M27.2394 39.8099L26.2481 40.6966M27.9008 39.8099L26.9091 40.6966M28.5618 39.8099L27.5701 40.6966M29.2228 39.8099L28.2311 40.6966M29.8838 39.8099L28.8921 40.6966M30.5448 39.8099L29.5531 40.6966M31.2058 39.8099L30.2141 40.6966M31.8668 39.8099L30.8751 40.6966M32.5278 39.8099L31.5361 40.6966M33.1888 39.8099L32.1971 40.6966M33.8501 39.8099L32.8581 40.6966M32.8581 39.8099L33.8501 40.6966M32.1971 39.8099L33.1888 40.6966M31.5361 39.8099L32.5278 40.6966M30.8751 39.8099L31.8668 40.6966M30.2141 39.8099L31.2058 40.6966M29.5531 39.8099L30.5448 40.6966M28.8921 39.8099L29.8838 40.6966M28.2311 39.8099L29.2228 40.6966M27.5701 39.8099L28.5618 40.6966M26.9091 39.8099L27.9008 40.6966M26.2481 39.8099L27.2398 40.6966M25.5871 39.8099L26.5784 40.6966M24.9261 39.8099L25.9174 40.6966M24.2651 39.8099L25.2564 40.6966M23.6041 39.8099L24.5954 40.6966M22.9431 39.8099L23.9344 40.6966" stroke="#DB161B" stroke-width="0.352"/>
        <path d="M66.2306 34.2134H76.9769C77.5688 34.2134 78.0486 34.6633 78.0486 35.2184V40.2807C78.0486 40.8358 77.5688 41.2857 76.9769 41.2857H66.2306C65.6387 41.2857 65.1589 40.8358 65.1589 40.2807V35.2184C65.1589 34.6633 65.6387 34.2134 66.2306 34.2134Z" fill="white" stroke="#DB161B" stroke-width="0.378"/>
        <path d="M66.506 34.5068H76.7013C77.2628 34.5068 77.718 34.9193 77.718 35.4282V40.0685C77.718 40.5773 77.2628 40.9898 76.7013 40.9898H66.506C65.9445 40.9898 65.4894 40.5773 65.4894 40.0685V35.4282C65.4894 34.9193 65.9445 34.5068 66.506 34.5068Z" fill="white" stroke="#DB161B" stroke-width="0.352"/>
        <path fill-rule="evenodd" clip-rule="evenodd" d="M72.0318 36.2769L71.4141 36.2969L71.3861 36.5769L70.8808 36.8335L70.4875 36.5135L70.0105 36.7702L70.4595 37.0502L70.3471 37.4369L69.7858 37.4169V37.9335L70.2348 37.9102L70.4595 38.2335L69.9541 38.6002L70.3471 38.9002L70.7685 38.5769L71.3861 38.7069L71.3581 39.1802L72.0318 39.2235L72.1161 38.7702L72.6775 38.5335L72.9865 38.8569L73.4638 38.6202L73.1828 38.2535L73.5198 38.0169H73.9971L74.0251 37.3502L73.5478 37.3935L73.2111 37.0069L73.6041 36.7069L73.0988 36.3602L72.7338 36.6402L72.1161 36.5569L72.0318 36.2769Z" fill="white" stroke="#DB161B" stroke-width="0.222"/>
        <path d="M71.8451 38.2533C71.4705 38.2533 71.1668 37.9933 71.1668 37.6725C71.1668 37.3518 71.4705 37.0918 71.8451 37.0918C72.2197 37.0918 72.5234 37.3518 72.5234 37.6725C72.5234 37.9933 72.2197 38.2533 71.8451 38.2533Z" fill="white" stroke="#DB161B" stroke-width="0.239452"/>
        <path fill-rule="evenodd" clip-rule="evenodd" d="M76.0656 34.8032L77.0569 35.6866ZM75.4046 34.8032L76.3959 35.6866ZM74.7436 34.8032L75.7349 35.6866ZM74.0826 34.8032L75.0739 35.6866ZM73.4216 34.8032L74.4129 35.6866ZM72.7606 34.8032L73.7519 35.6866ZM72.0992 34.8032L73.0909 35.6866ZM71.4382 34.8032L72.4299 35.6866ZM70.7772 34.8032L71.7689 35.6866ZM70.1162 34.8032L71.1079 35.6866ZM69.4552 34.8032L70.4469 35.6866ZM68.7942 34.8032L69.7859 35.6866ZM71.4382 34.8032L72.4299 35.6866ZM68.1332 34.8032L69.1249 35.6866ZM67.4722 34.8032L68.4639 35.6866ZM66.8112 34.8032L67.8029 35.6866ZM66.1499 34.8032L67.1419 35.6866ZM67.1419 34.8032L66.1499 35.6866ZM67.8029 34.8032L66.8112 35.6866ZM68.4639 34.8032L67.4722 35.6866ZM69.1249 34.8032L68.1332 35.6866ZM69.7859 34.8032L68.7942 35.6866ZM70.4469 34.8032L69.4552 35.6866ZM71.1079 34.8032L70.1162 35.6866ZM71.7689 34.8032L70.7772 35.6866ZM72.4299 34.8032L71.4382 35.6866ZM73.0909 34.8032L72.0992 35.6866ZM73.7519 34.8032L72.7602 35.6866ZM74.4129 34.8032L73.4216 35.6866ZM71.7689 34.8032L70.7772 35.6866ZM75.0739 34.8032L74.0826 35.6866ZM75.7349 34.8032L74.7436 35.6866ZM76.3959 34.8032L75.4046 35.6866ZM77.0569 34.8032L76.0656 35.6866ZM76.0656 39.8099L77.0569 40.6966ZM75.4046 39.8099L76.3959 40.6966ZM74.7436 39.8099L75.7349 40.6966ZM74.0826 39.8099L75.0739 40.6966ZM73.4216 39.8099L74.4129 40.6966ZM72.7606 39.8099L73.7519 40.6966ZM72.0992 39.8099L73.0909 40.6966ZM71.4382 39.8099L72.4299 40.6966ZM70.7772 39.8099L71.7689 40.6966ZM70.1162 39.8099L71.1079 40.6966ZM69.4552 39.8099L70.4469 40.6966ZM68.7942 39.8099L69.7859 40.6966ZM71.4382 39.8099L72.4299 40.6966ZM68.1332 39.8099L69.1249 40.6966ZM67.4722 39.8099L68.4639 40.6966ZM66.8112 39.8099L67.8029 40.6966ZM66.1499 39.8099L67.1419 40.6966ZM67.1419 39.8099L66.1499 40.6966ZM67.8029 39.8099L66.8112 40.6966ZM68.4639 39.8099L67.4722 40.6966ZM69.1249 39.8099L68.1332 40.6966ZM69.7859 39.8099L68.7942 40.6966ZM70.4469 39.8099L69.4552 40.6966ZM71.1079 39.8099L70.1162 40.6966ZM71.7689 39.8099L70.7772 40.6966ZM72.4299 39.8099L71.4382 40.6966ZM73.0909 39.8099L72.0992 40.6966ZM73.7519 39.8099L72.7602 40.6966ZM74.4129 39.8099L73.4216 40.6966ZM71.7689 39.8099L70.7772 40.6966ZM75.0739 39.8099L74.0826 40.6966ZM75.7349 39.8099L74.7436 40.6966ZM76.3959 39.8099L75.4046 40.6966ZM77.0569 39.8099L76.0656 40.6966Z" fill="white"/>
        <path d="M76.0656 34.8032L77.0569 35.6866M75.4046 34.8032L76.3959 35.6866M74.7436 34.8032L75.7349 35.6866M74.0826 34.8032L75.0739 35.6866M73.4216 34.8032L74.4129 35.6866M72.7606 34.8032L73.7519 35.6866M72.0992 34.8032L73.0909 35.6866M71.4382 34.8032L72.4299 35.6866M70.7772 34.8032L71.7689 35.6866M70.1162 34.8032L71.1079 35.6866M69.4552 34.8032L70.4469 35.6866M68.7942 34.8032L69.7859 35.6866M68.1332 34.8032L69.1249 35.6866M67.4722 34.8032L68.4639 35.6866M66.8112 34.8032L67.8029 35.6866M66.1499 34.8032L67.1419 35.6866M67.1419 34.8032L66.1499 35.6866M67.8029 34.8032L66.8112 35.6866M68.4639 34.8032L67.4722 35.6866M69.1249 34.8032L68.1332 35.6866M69.7859 34.8032L68.7942 35.6866M70.4469 34.8032L69.4552 35.6866M71.1079 34.8032L70.1162 35.6866M71.7689 34.8032L70.7772 35.6866M72.4299 34.8032L71.4382 35.6866M73.0909 34.8032L72.0992 35.6866M73.7519 34.8032L72.7602 35.6866M74.4129 34.8032L73.4216 35.6866M75.0739 34.8032L74.0826 35.6866M75.7349 34.8032L74.7436 35.6866M76.3959 34.8032L75.4046 35.6866M77.0569 34.8032L76.0656 35.6866M76.0656 39.8099L77.0569 40.6966M75.4046 39.8099L76.3959 40.6966M74.7436 39.8099L75.7349 40.6966M74.0826 39.8099L75.0739 40.6966M73.4216 39.8099L74.4129 40.6966M72.7606 39.8099L73.7519 40.6966M72.0992 39.8099L73.0909 40.6966M71.4382 39.8099L72.4299 40.6966M70.7772 39.8099L71.7689 40.6966M70.1162 39.8099L71.1079 40.6966M69.4552 39.8099L70.4469 40.6966M68.7942 39.8099L69.7859 40.6966M68.1332 39.8099L69.1249 40.6966M67.4722 39.8099L68.4639 40.6966M66.8112 39.8099L67.8029 40.6966M66.1499 39.8099L67.1419 40.6966M67.1419 39.8099L66.1499 40.6966M67.8029 39.8099L66.8112 40.6966M68.4639 39.8099L67.4722 40.6966M69.1249 39.8099L68.1332 40.6966M69.7859 39.8099L68.7942 40.6966M70.4469 39.8099L69.4552 40.6966M71.1079 39.8099L70.1162 40.6966M71.7689 39.8099L70.7772 40.6966M72.4299 39.8099L71.4382 40.6966M73.0909 39.8099L72.0992 40.6966M73.7519 39.8099L72.7602 40.6966M74.4129 39.8099L73.4216 40.6966M75.0739 39.8099L74.0826 40.6966M75.7349 39.8099L74.7436 40.6966M76.3959 39.8099L75.4046 40.6966M77.0569 39.8099L76.0656 40.6966" stroke="#DB161B" stroke-width="0.352"/>
        <path fill-rule="evenodd" clip-rule="evenodd" d="M42.1698 49.0399C26.1318 64.7232 19.2905 66.7066 22.5012 67.9699C25.7118 69.2333 36.0398 61.1399 46.7865 50.3866C57.5332 39.6366 64.1132 30.0679 60.9032 28.8043C57.6932 27.5403 59.2265 32.3582 42.1698 49.0399Z" fill="white" stroke="#DB161B" stroke-width="0.565"/>
        <path fill-rule="evenodd" clip-rule="evenodd" d="M28.6693 60.4365L34.2866 61.9099C28.9996 66.9199 23.0506 68.9832 21.3983 68.0999C19.7456 67.2165 24.3726 65.1532 28.6693 60.4365Z" fill="white" stroke="#DB161B" stroke-width="0.33"/>
        <path fill-rule="evenodd" clip-rule="evenodd" d="M28.6693 61.0269L33.2963 62.2069C28.1453 67.0235 23.0506 68.3935 21.7323 67.8069C20.4066 67.2169 24.4839 65.5602 28.6693 61.0269Z" fill="white" stroke="#DB161B" stroke-width="0.33"/>
        <path d="M45.9299 48.3535C45.9166 48.4302 45.8799 48.7668 45.8466 48.9002C45.8466 49.0868 45.8266 49.2268 45.8066 49.3735C45.7532 49.5002 45.7632 49.6169 45.5999 49.6635C45.4899 49.8169 45.4199 49.8568 45.2732 49.9202C45.1732 49.9968 45.0199 50.0735 44.8599 50.1369C44.6966 50.2002 44.5466 50.2069 44.3699 50.1735C44.2232 50.0835 44.1199 49.9935 43.9999 49.9202C43.9699 49.8035 43.9466 49.6335 43.9166 49.5202C43.9599 49.6368 43.9932 49.8235 43.9999 49.9902C43.9832 50.1735 43.9166 50.2535 43.8366 50.3902M44.4099 50.7902C44.3966 50.7802 44.3832 50.7668 44.3699 50.7535C44.4666 50.8402 44.4266 50.8002 44.2032 50.6835C44.0466 50.6102 43.8766 50.5702 43.6699 50.5369H43.0966C42.8732 50.5369 42.7232 50.5669 42.5632 50.6102C42.4466 50.7135 42.2732 50.7702 42.1532 50.8635C42.0266 50.9402 41.9732 51.0302 41.9066 51.1535C41.7932 51.2535 41.7199 51.4068 41.6166 51.4835C41.5732 51.6502 41.4766 51.6435 41.4132 51.7735C41.6066 51.7869 41.7632 51.8102 41.8632 51.9168C42.0366 51.9968 41.7199 51.8402 41.6599 51.7735C41.5232 51.7369 41.4899 51.7002 41.2899 51.7002C41.1032 51.6469 40.9899 51.7435 40.7966 51.7735C40.6866 51.8302 40.6532 51.8468 40.5099 51.8468M42.1932 52.6102C42.1099 52.6135 41.7266 52.6769 41.5766 52.6102C41.4099 52.5702 41.3099 52.4902 41.2066 52.3535C41.1566 52.2568 41.2066 52.5302 41.2066 52.6469C41.1899 52.8602 41.1166 52.8635 41.0032 53.0102C40.8832 53.0768 40.7566 53.1735 40.6332 53.2268C40.5299 53.3068 40.4032 53.3602 40.2632 53.4102C40.1399 53.4602 39.9932 53.5135 39.8932 53.5902C39.7566 53.6769 39.7699 53.7835 39.6899 53.9168C39.7032 54.0968 39.7366 54.1969 39.8532 54.2835C39.8999 54.4035 40.0099 54.5269 40.0999 54.6102C40.1999 54.7769 40.3132 54.8535 40.0566 54.9002C39.9166 54.9535 39.8399 54.9102 39.6899 54.9002M39.6066 55.1535C39.5066 55.1335 39.1466 55.0268 38.9899 54.9735H38.4166C38.1932 54.9868 38.1499 55.0469 37.9632 55.1169C37.8432 55.2269 37.7599 55.3035 37.5932 55.3735C37.5066 55.4735 37.3332 55.6435 37.2666 55.7735C37.2166 55.8969 37.1832 56.0635 37.1832 56.2469C37.1866 56.4569 37.2499 56.4935 37.2666 56.6835C37.3132 56.8369 37.3866 56.9802 37.5132 57.1169C37.5299 57.1635 37.5432 57.1769 37.5932 57.1902M37.6499 57.6669C37.6332 57.6669 37.5932 57.7602 37.5332 57.8402C37.4032 57.9735 37.3866 57.9835 37.1832 57.9835C37.0032 57.9768 37.0199 57.9135 36.8932 57.8669C36.8332 57.7769 36.7566 57.7035 36.6899 57.5802C36.6432 57.5069 36.5999 57.3902 36.5432 57.3235C36.4899 57.2369 36.4232 57.1735 36.3666 57.0935C36.3132 57.0702 36.2932 57.0469 36.2232 57.0369C36.3899 57.0635 36.4032 57.1202 36.5132 57.2068C36.5632 57.2902 36.6166 57.3735 36.6599 57.4668C36.6766 57.5902 36.7166 57.6869 36.7166 57.8402C36.7166 57.9969 36.7166 58.1102 36.6599 58.2402C36.5899 58.3135 36.5399 58.3869 36.4566 58.4435C36.3866 58.5069 36.3032 58.5935 36.2499 58.6702C36.1599 58.7268 36.0932 58.7735 35.9899 58.8435C35.8999 58.8935 35.8066 58.9469 35.6699 58.9602C35.4966 58.9469 35.4466 58.9002 35.3199 58.8435C35.2099 58.7635 35.1232 58.7135 35.0266 58.6435C34.9499 58.5902 34.8732 58.4869 34.8232 58.4135C34.6666 58.3735 34.5666 58.3902 34.4732 58.4702C34.3932 58.5235 34.3232 58.5935 34.2699 58.6702C34.2199 58.6935 34.1432 58.7635 34.0932 58.7869M34.4399 58.8535C34.4866 58.8735 34.6532 58.9902 34.7299 59.0335C34.7766 59.1835 34.8499 59.2668 34.8732 59.4268C34.9132 59.5835 34.9099 59.7535 34.9099 59.9302C34.8699 60.1135 34.7932 60.2468 34.7299 60.3935C34.6132 60.4735 34.5566 60.5269 34.4032 60.6102C34.2599 60.6302 34.1166 60.6469 33.9332 60.6469C33.8199 60.6835 33.6066 60.7002 33.4966 60.6469C33.3366 60.6235 33.2156 60.5602 33.0986 60.5035C32.9646 60.4268 32.8822 60.3569 32.7359 60.2869C32.6649 60.1835 32.5546 60.0902 32.4462 59.9635C32.3559 59.8435 32.2896 59.7768 32.2286 59.6435C32.2822 59.7968 32.3636 59.9302 32.4099 60.0735C32.4922 60.2235 32.5402 60.2802 32.5549 60.4668C32.6052 60.6168 32.5912 60.7968 32.5912 60.9668C32.5752 61.0835 32.5669 61.3035 32.5186 61.3969V61.5069M29.0806 62.0768V62.1302C29.0806 61.9902 29.0769 62.0602 29.1389 62.3368C29.2489 62.4602 29.5069 62.4935 29.7219 62.4402C29.9106 62.3035 29.9046 62.1968 30.2466 62.1302C30.5769 62.1502 30.7029 62.2368 30.8879 62.3368C31.1072 62.4335 31.2086 62.4835 31.3542 62.7002C31.4266 62.8769 31.4669 62.9969 31.2376 63.0635C31.0552 63.1802 30.8386 63.2435 30.5962 63.2735C30.3269 63.2735 30.1329 63.2435 30.0132 63.3769C29.8282 63.5469 29.8386 63.6502 29.8386 63.9468C29.7762 64.0402 29.7639 64.3135 29.7219 64.4169C29.5599 64.4835 29.4649 64.5202 29.1972 64.5202C29.1342 64.3602 29.0646 64.0702 29.0222 63.8969C28.9766 63.7102 28.9626 63.4502 28.8472 63.3235C28.7346 63.1785 28.5963 63.0554 28.4392 62.9602C28.3679 62.8702 28.2319 62.7968 28.0896 62.7535C28.3182 62.8568 28.3509 62.9702 28.3809 63.2202C28.1799 63.3102 28.1262 63.3735 27.7979 63.3769C27.4752 63.3535 27.3972 63.2802 27.2732 63.1169C27.2509 63.3769 27.1572 63.4635 27.0986 63.6902C26.9786 63.8469 26.9276 64.0068 26.8069 64.2068C26.8582 64.4602 26.9689 64.4702 26.9819 64.7802C27.0576 64.9835 27.0492 65.1768 27.2149 65.3002C27.2889 65.3802 27.3442 65.3969 27.5066 65.4035C27.1689 65.4035 26.9722 65.3702 26.7486 65.2469C26.5756 65.1535 26.4449 65.0335 26.2822 64.9368C26.0759 64.8035 25.8209 64.6802 25.5826 64.6235C25.3132 64.6235 25.1192 64.5968 24.9996 64.7268C24.8346 64.8335 24.7236 65.0135 24.6499 65.2469C24.5959 65.5169 24.5752 65.6969 24.7082 65.8702C24.8069 66.0735 24.8292 66.1502 24.7082 66.3902C24.5726 66.5602 24.3709 66.5802 24.0669 66.6502C23.8688 66.6419 23.6728 66.6071 23.4839 66.5469" stroke="#DB161B" stroke-width="0.33"/>
        <path fill-rule="evenodd" clip-rule="evenodd" d="M60.47 34.8867C67.5867 22.6007 72.31 12.146 71.01 11.5487C69.7134 10.9517 62.8867 20.437 55.77 32.7213L60.47 34.8867Z" fill="white" stroke="#DB161B" stroke-width="0.447"/>
        <path fill-rule="evenodd" clip-rule="evenodd" d="M60 34.6698C66.8633 22.8175 71.5933 12.8118 70.5567 12.3341C69.52 11.8565 63.1067 21.0868 56.24 32.9375" fill="white"/>
        <path d="M60 34.6698C66.8633 22.8175 71.5933 12.8118 70.5567 12.3341C69.52 11.8565 63.1067 21.0868 56.24 32.9375" stroke="#DB161B" stroke-width="0.393"/>
        <path fill-rule="evenodd" clip-rule="evenodd" d="M58.82 28.4868C57.9833 29.8725 57.1 31.4562 56.24 32.9375L60 34.6698C60.8567 33.1872 61.7933 31.6265 62.5767 30.2178L58.82 28.4868Z" fill="white" stroke="#DB161B" stroke-width="0.446"/>
        <path fill-rule="evenodd" clip-rule="evenodd" d="M59.1366 28.9648C58.3033 30.3505 57.7199 31.4108 56.8633 32.8922L59.6799 34.1898C60.5399 32.7092 61.1733 31.6718 61.9566 30.2632L59.1366 28.9648Z" fill="white" stroke="#DB161B" stroke-width="0.446"/>
        <path d="M61.1816 30.5693L59.3023 29.7039L57.634 32.5839L59.5133 33.4493L61.1816 30.5693Z" fill="white" stroke="#DB161B" stroke-width="0.447"/>
        <path fill-rule="evenodd" clip-rule="evenodd" d="M61.1834 30.5708L57.6367 32.5851ZM59.5134 33.4501L59.3034 29.7051ZM69.6767 15.9091L67.7967 15.0435Z" fill="white"/>
        <path d="M61.1834 30.5708L57.6367 32.5851M59.5134 33.4501L59.3034 29.7051M69.6767 15.9091L67.7967 15.0435" stroke="#DB161B" stroke-width="0.446"/>
        <path d="M69.6786 14.5508C69.3857 14.6247 69.0947 14.4763 69.0286 14.2194C68.9625 13.9625 69.1464 13.6943 69.4392 13.6205C69.7321 13.5467 70.0231 13.6951 70.0892 13.952C70.1553 14.2089 69.9714 14.477 69.6786 14.5508Z" fill="#DB161B" stroke="#DB161B" stroke-width="0.578469"/>
        <path fill-rule="evenodd" clip-rule="evenodd" d="M57.8302 49.0399C73.8682 64.7232 80.7095 66.7066 77.4988 67.9699C74.2882 69.2333 63.9602 61.1399 53.2135 50.3866C42.4668 39.6366 35.8868 30.0679 39.0968 28.8043C42.3068 27.5403 40.7735 32.3582 57.8302 49.0399Z" fill="white" stroke="#DB161B" stroke-width="0.565"/>
        <path fill-rule="evenodd" clip-rule="evenodd" d="M71.3307 60.4365L65.7134 61.9099C71.0004 66.9199 76.9494 68.9832 78.6017 68.0999C80.2544 67.2165 75.6274 65.1532 71.3307 60.4365Z" fill="white" stroke="#DB161B" stroke-width="0.33"/>
        <path fill-rule="evenodd" clip-rule="evenodd" d="M71.3307 61.0269L66.7037 62.2069C71.8547 67.0235 76.9494 68.3935 78.2677 67.8069C79.5934 67.2169 75.5161 65.5602 71.3307 61.0269Z" fill="white" stroke="#DB161B" stroke-width="0.33"/>
        <path d="M54.0701 48.3535C54.0834 48.4302 54.1201 48.7668 54.1534 48.9002C54.1534 49.0868 54.1734 49.2268 54.1934 49.3735C54.2468 49.5002 54.2368 49.6169 54.4001 49.6635C54.5101 49.8169 54.5801 49.8568 54.7268 49.9202C54.8268 49.9968 54.9801 50.0735 55.1401 50.1369C55.3034 50.2002 55.4534 50.2069 55.6301 50.1735C55.7768 50.0835 55.8801 49.9935 56.0001 49.9202C56.0301 49.8035 56.0534 49.6335 56.0834 49.5202C56.0401 49.6368 56.0068 49.8235 56.0001 49.9902C56.0168 50.1735 56.0834 50.2535 56.1634 50.3902M55.5901 50.7902C55.6034 50.7802 55.6168 50.7668 55.6301 50.7535C55.5334 50.8402 55.5734 50.8002 55.7968 50.6835C55.9534 50.6102 56.1234 50.5702 56.3301 50.5369H56.9034C57.1268 50.5369 57.2768 50.5669 57.4368 50.6102C57.5534 50.7135 57.7268 50.7702 57.8468 50.8635C57.9734 50.9402 58.0268 51.0302 58.0934 51.1535C58.2068 51.2535 58.2801 51.4068 58.3834 51.4835C58.4268 51.6502 58.5234 51.6435 58.5868 51.7735C58.3934 51.7869 58.2368 51.8102 58.1368 51.9168C57.9634 51.9968 58.2801 51.8402 58.3401 51.7735C58.4768 51.7369 58.5101 51.7002 58.7101 51.7002C58.8968 51.6469 59.0101 51.7435 59.2034 51.7735C59.3134 51.8302 59.3468 51.8468 59.4901 51.8468M57.8068 52.6102C57.8901 52.6135 58.2734 52.6769 58.4234 52.6102C58.5901 52.5702 58.6901 52.4902 58.7934 52.3535C58.8434 52.2568 58.7934 52.5302 58.7934 52.6469C58.8101 52.8602 58.8834 52.8635 58.9968 53.0102C59.1168 53.0768 59.2434 53.1735 59.3668 53.2268C59.4701 53.3068 59.5968 53.3602 59.7368 53.4102C59.8601 53.4602 60.0068 53.5135 60.1068 53.5902C60.2434 53.6769 60.2301 53.7835 60.3101 53.9168C60.2968 54.0968 60.2634 54.1969 60.1468 54.2835C60.1001 54.4035 59.9901 54.5269 59.9001 54.6102C59.8001 54.7769 59.6868 54.8535 59.9434 54.9002C60.0834 54.9535 60.1601 54.9102 60.3101 54.9002M60.3934 55.1535C60.4934 55.1335 60.8534 55.0268 61.0101 54.9735H61.5834C61.8068 54.9868 61.8501 55.0469 62.0368 55.1169C62.1568 55.2269 62.2401 55.3035 62.4068 55.3735C62.4934 55.4735 62.6668 55.6435 62.7334 55.7735C62.7834 55.8969 62.8168 56.0635 62.8168 56.2469C62.8134 56.4569 62.7501 56.4935 62.7334 56.6835C62.6868 56.8369 62.6134 56.9802 62.4868 57.1169C62.4701 57.1635 62.4568 57.1769 62.4068 57.1902M62.3501 57.6669C62.3668 57.6669 62.4068 57.7602 62.4668 57.8402C62.5968 57.9735 62.6134 57.9835 62.8168 57.9835C62.9968 57.9768 62.9801 57.9135 63.1068 57.8669C63.1668 57.7769 63.2434 57.7035 63.3101 57.5802C63.3568 57.5069 63.4001 57.3902 63.4568 57.3235C63.5101 57.2369 63.5768 57.1735 63.6334 57.0935C63.6868 57.0702 63.7068 57.0469 63.7768 57.0369C63.6101 57.0635 63.5968 57.1202 63.4868 57.2068C63.4368 57.2902 63.3834 57.3735 63.3401 57.4668C63.3234 57.5902 63.2834 57.6869 63.2834 57.8402C63.2834 57.9969 63.2834 58.1102 63.3401 58.2402C63.4101 58.3135 63.4601 58.3869 63.5434 58.4435C63.6134 58.5069 63.6968 58.5935 63.7501 58.6702C63.8401 58.7268 63.9068 58.7735 64.0101 58.8435C64.1001 58.8935 64.1934 58.9469 64.3301 58.9602C64.5034 58.9469 64.5534 58.9002 64.6801 58.8435C64.7901 58.7635 64.8768 58.7135 64.9734 58.6435C65.0501 58.5902 65.1268 58.4869 65.1768 58.4135C65.3334 58.3735 65.4334 58.3902 65.5268 58.4702C65.6068 58.5235 65.6768 58.5935 65.7301 58.6702C65.7801 58.6935 65.8568 58.7635 65.9068 58.7869M65.5601 58.8535C65.5134 58.8735 65.3468 58.9902 65.2701 59.0335C65.2234 59.1835 65.1501 59.2668 65.1268 59.4268C65.0868 59.5835 65.0901 59.7535 65.0901 59.9302C65.1301 60.1135 65.2068 60.2468 65.2701 60.3935C65.3868 60.4735 65.4434 60.5269 65.5968 60.6102C65.7401 60.6302 65.8834 60.6469 66.0668 60.6469C66.1801 60.6835 66.3934 60.7002 66.5034 60.6469C66.6634 60.6235 66.7844 60.5602 66.9014 60.5035C67.0354 60.4268 67.1178 60.3569 67.2641 60.2869C67.3351 60.1835 67.4454 60.0902 67.5538 59.9635C67.6441 59.8435 67.7104 59.7768 67.7714 59.6435C67.7178 59.7968 67.6364 59.9302 67.5901 60.0735C67.5078 60.2235 67.4598 60.2802 67.4451 60.4668C67.3948 60.6168 67.4088 60.7968 67.4088 60.9668C67.4248 61.0835 67.4331 61.3035 67.4814 61.3969V61.5069M70.9194 62.0768V62.1302C70.9194 61.9902 70.9231 62.0602 70.8611 62.3368C70.7511 62.4602 70.4931 62.4935 70.2781 62.4402C70.0894 62.3035 70.0954 62.1968 69.7534 62.1302C69.4231 62.1502 69.2971 62.2368 69.1121 62.3368C68.8928 62.4335 68.7914 62.4835 68.6458 62.7002C68.5734 62.8769 68.5331 62.9969 68.7624 63.0635C68.9448 63.1802 69.1614 63.2435 69.4038 63.2735C69.6731 63.2735 69.8671 63.2435 69.9868 63.3769C70.1718 63.5469 70.1614 63.6502 70.1614 63.9468C70.2238 64.0402 70.2361 64.3135 70.2781 64.4169C70.4401 64.4835 70.5351 64.5202 70.8028 64.5202C70.8658 64.3602 70.9354 64.0702 70.9778 63.8969C71.0234 63.7102 71.0374 63.4502 71.1528 63.3235C71.2654 63.1785 71.4037 63.0554 71.5608 62.9602C71.6321 62.8702 71.7681 62.7968 71.9104 62.7535C71.6818 62.8568 71.6491 62.9702 71.6191 63.2202C71.8201 63.3102 71.8738 63.3735 72.2021 63.3769C72.5248 63.3535 72.6028 63.2802 72.7268 63.1169C72.7491 63.3769 72.8428 63.4635 72.9014 63.6902C73.0214 63.8469 73.0724 64.0068 73.1931 64.2068C73.1418 64.4602 73.0311 64.4702 73.0181 64.7802C72.9424 64.9835 72.9508 65.1768 72.7851 65.3002C72.7111 65.3802 72.6558 65.3969 72.4934 65.4035C72.8311 65.4035 73.0278 65.3702 73.2514 65.2469C73.4244 65.1535 73.5551 65.0335 73.7178 64.9368C73.9241 64.8035 74.1791 64.6802 74.4174 64.6235C74.6868 64.6235 74.8808 64.5968 75.0004 64.7268C75.1654 64.8335 75.2764 65.0135 75.3501 65.2469C75.4041 65.5169 75.4248 65.6969 75.2918 65.8702C75.1931 66.0735 75.1708 66.1502 75.2918 66.3902C75.4274 66.5602 75.6291 66.5802 75.9331 66.6502C76.1312 66.6419 76.3272 66.6071 76.5161 66.5469" stroke="#DB161B" stroke-width="0.33"/>
        <path fill-rule="evenodd" clip-rule="evenodd" d="M39.53 34.8867C32.4133 22.6007 27.69 12.146 28.99 11.5487C30.2866 10.9517 37.1133 20.437 44.23 32.7213L39.53 34.8867Z" fill="white" stroke="#DB161B" stroke-width="0.447"/>
        <path fill-rule="evenodd" clip-rule="evenodd" d="M40 34.6698C33.1367 22.8175 28.4067 12.8118 29.4433 12.3341C30.48 11.8565 36.8933 21.0868 43.76 32.9375" fill="white"/>
        <path d="M40 34.6698C33.1367 22.8175 28.4067 12.8118 29.4433 12.3341C30.48 11.8565 36.8933 21.0868 43.76 32.9375" stroke="#DB161B" stroke-width="0.393"/>
        <path fill-rule="evenodd" clip-rule="evenodd" d="M41.18 28.4868C42.0167 29.8725 42.9 31.4562 43.76 32.9375L40 34.6698C39.1433 33.1872 38.2067 31.6265 37.4233 30.2178L41.18 28.4868Z" fill="white" stroke="#DB161B" stroke-width="0.446"/>
        <path fill-rule="evenodd" clip-rule="evenodd" d="M40.8634 28.9648C41.6967 30.3505 42.2801 31.4108 43.1367 32.8922L40.3201 34.1898C39.4601 32.7092 38.8267 31.6718 38.0434 30.2632L40.8634 28.9648Z" fill="white" stroke="#DB161B" stroke-width="0.446"/>
        <path d="M38.8184 30.5693L40.6977 29.7039L42.366 32.5839L40.4867 33.4493L38.8184 30.5693Z" fill="white" stroke="#DB161B" stroke-width="0.447"/>
        <path fill-rule="evenodd" clip-rule="evenodd" d="M38.8166 30.5708L42.3633 32.5851ZM40.4866 33.4501L40.6966 29.7051ZM30.3233 15.9091L32.2033 15.0435Z" fill="white"/>
        <path d="M38.8166 30.5708L42.3633 32.5851M40.4866 33.4501L40.6966 29.7051M30.3233 15.9091L32.2033 15.0435" stroke="#DB161B" stroke-width="0.446"/>
        <path d="M30.3214 14.5508C30.6143 14.6247 30.9053 14.4763 30.9714 14.2194C31.0375 13.9625 30.8536 13.6943 30.5608 13.6205C30.2679 13.5467 29.9769 13.6951 29.9108 13.952C29.8447 14.2089 30.0286 14.477 30.3214 14.5508Z" fill="#DB161B" stroke="#DB161B" stroke-width="0.578469"/>
        <path fill-rule="evenodd" clip-rule="evenodd" d="M45.0867 28.3193C45.0867 38.6333 45.1467 42.52 44.3867 43.0533C43.6667 43.6233 23.604 43.0533 23.604 46C23.604 48.9467 40.13 51.8933 45.0867 51.8933C51.6967 51.8933 55.0033 48.9467 55.0033 43.0533V28.3193H45.0867Z" fill="white" stroke="#DB161B" stroke-width="0.407"/>
        <path fill-rule="evenodd" clip-rule="evenodd" d="M45.0867 31.266V32.7393C48.374 33.2307 51.716 33.2307 55.0033 32.7393V31.266C51.716 31.7573 48.374 31.7573 45.0867 31.266ZM45.0867 28.3193V29.7927C48.374 30.2837 51.716 30.2837 55.0033 29.7927V28.3193C51.716 28.8103 48.374 28.8103 45.0867 28.3193Z" fill="white" stroke="#DB161B" stroke-width="0.352"/>
        <path fill-rule="evenodd" clip-rule="evenodd" d="M45.0867 29.7925V31.2658C48.374 31.7571 51.716 31.7571 55.0033 31.2658V29.7925C51.716 30.2835 48.374 30.2835 45.0867 29.7925ZM45.0867 32.7391V34.2131C48.3933 34.7031 51.6967 34.7031 55.0033 34.2131V32.7391C51.716 33.2305 48.374 33.2305 45.0867 32.7391Z" fill="white" stroke="#DB161B" stroke-width="0.352"/>
        <path d="M45.5373 30.9482C45.7862 30.9482 45.988 30.8059 45.988 30.6303C45.988 30.4548 45.7862 30.3125 45.5373 30.3125C45.2884 30.3125 45.0867 30.4548 45.0867 30.6303C45.0867 30.8059 45.2884 30.9482 45.5373 30.9482Z" fill="white" stroke="#DB161B" stroke-width="0.330273"/>
        <path d="M47.3398 31.1064C47.5887 31.1064 47.7905 30.9641 47.7905 30.7885C47.7905 30.613 47.5887 30.4707 47.3398 30.4707C47.0909 30.4707 46.8892 30.613 46.8892 30.7885C46.8892 30.9641 47.0909 31.1064 47.3398 31.1064Z" fill="white" stroke="#DB161B" stroke-width="0.330273"/>
        <path d="M49.143 31.2656C49.3919 31.2656 49.5937 31.1233 49.5937 30.9477C49.5937 30.7722 49.3919 30.6299 49.143 30.6299C48.8942 30.6299 48.6924 30.7722 48.6924 30.9477C48.6924 31.1233 48.8942 31.2656 49.143 31.2656Z" fill="white" stroke="#DB161B" stroke-width="0.330273"/>
        <path d="M50.9455 31.2656C51.1944 31.2656 51.3962 31.1233 51.3962 30.9477C51.3962 30.7722 51.1944 30.6299 50.9455 30.6299C50.6966 30.6299 50.4949 30.7722 50.4949 30.9477C50.4949 31.1233 50.6966 31.2656 50.9455 31.2656Z" fill="white" stroke="#DB161B" stroke-width="0.330273"/>
        <path d="M52.748 31.1064C52.9969 31.1064 53.1987 30.9641 53.1987 30.7885C53.1987 30.613 52.9969 30.4707 52.748 30.4707C52.4991 30.4707 52.2974 30.613 52.2974 30.7885C52.2974 30.9641 52.4991 31.1064 52.748 31.1064Z" fill="white" stroke="#DB161B" stroke-width="0.330273"/>
        <path d="M54.5513 30.9482C54.8001 30.9482 55.0019 30.8059 55.0019 30.6303C55.0019 30.4548 54.8001 30.3125 54.5513 30.3125C54.3024 30.3125 54.1006 30.4548 54.1006 30.6303C54.1006 30.8059 54.3024 30.9482 54.5513 30.9482Z" fill="white" stroke="#DB161B" stroke-width="0.330273"/>
        <path fill-rule="evenodd" clip-rule="evenodd" d="M45.0867 35.6867L55.0033 43.6434ZM46.0767 35.6867L55.0033 42.7567ZM47.4 35.98L55.0033 41.8734ZM48.3933 35.98L55.0033 40.99ZM49.3833 35.98L55.0033 40.1067ZM50.3733 35.98L55.0033 39.2234ZM51.3667 35.98L55.0033 38.3367ZM52.3567 35.98L55.0033 37.75ZM53.35 35.98L55.0033 37.16ZM54.34 35.98L55.0033 36.57ZM45.0867 36.57L55.0033 44.5267ZM55.0033 35.6867L44.0967 44.5267ZM54.01 35.6867L44.4267 43.3467ZM52.69 35.98L45.0867 41.8734ZM51.6967 35.98L45.0867 40.99ZM50.7067 35.98L45.0867 40.1067ZM49.7133 35.98L45.0867 39.2234ZM48.7233 35.98L45.0867 38.3367ZM47.73 35.98L45.0867 37.75ZM46.74 35.98L45.0867 37.16ZM45.7467 35.98L45.0867 36.57ZM55.0033 36.57L44.0967 45.41ZM55.0033 37.4534L44.0967 46.2934ZM55.0033 38.3367L44.0967 47.18ZM55.0033 39.2234L44.0967 48.0634ZM55.0033 40.1067L44.0967 48.9467ZM55.0033 40.99L44.0967 49.83ZM55.0033 41.8734L44.0967 50.7134ZM55.0033 42.76L44.0967 51.6ZM55.0033 43.6434L44.7567 51.8934ZM55.0033 44.5267L45.7467 51.8934ZM54.67 45.7067L47.4 51.6ZM54.34 46.8834L48.3933 51.6ZM53.68 48.3567L50.7067 50.7134ZM45.0867 37.4534L54.67 45.1167ZM45.0867 38.3367L54.67 46ZM45.0867 39.2234L54.34 46.59ZM45.0867 40.1067L54.34 47.4734ZM45.0867 40.99L54.01 48.0634ZM44.7567 41.58L53.68 48.6534ZM44.7567 42.4634L53.02 48.9467ZM44.4267 43.0534L52.69 49.5367ZM44.0967 43.6434L52.0267 49.83ZM44.0967 44.5267L51.6967 50.42ZM44.0967 45.41L50.7067 50.7134ZM45.0867 34.2134V35.6867C48.3933 36.1767 51.6967 36.1767 55.0033 35.6867V34.2134C51.6967 34.7034 48.3933 34.7034 45.0867 34.2134ZM44.0967 46.2934L50.0433 51.01ZM44.0967 47.18L49.3833 51.3034ZM44.0967 48.0634L48.7233 51.6ZM44.0967 48.9467L47.4 51.6ZM44.0967 49.83L46.74 51.8934ZM44.0967 50.7134L45.7467 51.8934Z" fill="white"/>
        <path d="M45.0867 35.6867L55.0033 43.6434L44.7567 51.8934M45.0867 35.6867V34.2134C48.3933 34.7034 51.6967 34.7034 55.0033 34.2134V35.6867M45.0867 35.6867C48.3933 36.1767 51.6967 36.1767 55.0033 35.6867M46.0767 35.6867L55.0033 42.7567M47.4 35.98L55.0033 41.8734L44.0967 50.7134L45.7467 51.8934L55.0033 44.5267L45.0867 36.57L45.7467 35.98M48.3933 35.98L55.0033 40.99L44.0967 49.83L46.74 51.8934M49.3833 35.98L55.0033 40.1067L44.0967 48.9467L47.4 51.6L54.67 45.7067M50.3733 35.98L55.0033 39.2234L44.0967 48.0634L48.7233 51.6M51.3667 35.98L55.0033 38.3367L44.0967 47.18L49.3833 51.3034M52.3567 35.98L55.0033 37.75M53.35 35.98L55.0033 37.16M54.34 35.98L55.0033 36.57L44.0967 45.41L50.7067 50.7134L53.68 48.3567M55.0033 35.6867L44.0967 44.5267L51.6967 50.42M54.01 35.6867L44.4267 43.3467M52.69 35.98L45.0867 41.8734M51.6967 35.98L45.0867 40.99L54.01 48.0634M50.7067 35.98L45.0867 40.1067L54.34 47.4734M49.7133 35.98L45.0867 39.2234L54.34 46.59M48.7233 35.98L45.0867 38.3367L54.67 46M47.73 35.98L45.0867 37.75M46.74 35.98L45.0867 37.16M55.0033 37.4534L44.0967 46.2934L50.0433 51.01M55.0033 42.76L44.0967 51.6M54.34 46.8834L48.3933 51.6M45.0867 37.4534L54.67 45.1167M44.7567 41.58L53.68 48.6534M44.7567 42.4634L53.02 48.9467M44.4267 43.0534L52.69 49.5367M44.0967 43.6434L52.0267 49.83" stroke="#DB161B" stroke-width="0.352"/>
        <path d="M45.5373 35.3681C45.7862 35.3681 45.988 35.2258 45.988 35.0503C45.988 34.8747 45.7862 34.7324 45.5373 34.7324C45.2884 34.7324 45.0867 34.8747 45.0867 35.0503C45.0867 35.2258 45.2884 35.3681 45.5373 35.3681Z" fill="white" stroke="#DB161B" stroke-width="0.330273"/>
        <path d="M47.3398 35.5268C47.5887 35.5268 47.7905 35.3845 47.7905 35.209C47.7905 35.0334 47.5887 34.8911 47.3398 34.8911C47.0909 34.8911 46.8892 35.0334 46.8892 35.209C46.8892 35.3845 47.0909 35.5268 47.3398 35.5268Z" fill="white" stroke="#DB161B" stroke-width="0.330273"/>
        <path d="M49.143 35.6855C49.3919 35.6855 49.5937 35.5432 49.5937 35.3676C49.5937 35.1921 49.3919 35.0498 49.143 35.0498C48.8942 35.0498 48.6924 35.1921 48.6924 35.3676C48.6924 35.5432 48.8942 35.6855 49.143 35.6855Z" fill="white" stroke="#DB161B" stroke-width="0.330273"/>
        <path d="M50.9455 35.6855C51.1944 35.6855 51.3962 35.5432 51.3962 35.3676C51.3962 35.1921 51.1944 35.0498 50.9455 35.0498C50.6966 35.0498 50.4949 35.1921 50.4949 35.3676C50.4949 35.5432 50.6966 35.6855 50.9455 35.6855Z" fill="white" stroke="#DB161B" stroke-width="0.330273"/>
        <path d="M52.748 35.5268C52.9969 35.5268 53.1987 35.3845 53.1987 35.209C53.1987 35.0334 52.9969 34.8911 52.748 34.8911C52.4991 34.8911 52.2974 35.0334 52.2974 35.209C52.2974 35.3845 52.4991 35.5268 52.748 35.5268Z" fill="white" stroke="#DB161B" stroke-width="0.330273"/>
        <path d="M54.5513 35.3681C54.8001 35.3681 55.0019 35.2258 55.0019 35.0503C55.0019 34.8747 54.8001 34.7324 54.5513 34.7324C54.3024 34.7324 54.1006 34.8747 54.1006 35.0503C54.1006 35.2258 54.3024 35.3681 54.5513 35.3681Z" fill="white" stroke="#DB161B" stroke-width="0.330273"/>
        <path fill-rule="evenodd" clip-rule="evenodd" d="M30.875 49.5366L42.7734 43.3466ZM30.214 49.2399L41.45 43.3466ZM29.8837 48.6532L40.13 43.3466ZM29.553 48.0632L38.4767 43.3466ZM28.892 47.4732L37.1534 43.3466ZM29.2227 46.5899L34.84 43.6432ZM28.892 45.9999L33.1887 43.6432ZM28.892 45.1166L31.8667 43.6432ZM31.8667 49.8299L43.1034 43.9366ZM32.858 50.1266L43.4334 44.5266ZM33.85 50.4199L43.7634 45.1166ZM34.84 50.7132L43.1034 46.2932ZM36.1634 50.7132L43.4334 46.8832ZM37.1534 51.0099L43.4334 47.7666ZM38.1467 51.3032L43.1034 48.6532ZM39.4667 51.3032L43.4334 49.2399ZM40.79 51.5999L43.4334 50.1266ZM42.1134 51.5999L43.7634 50.7132ZM44.4267 43.0532H42.7734C42.2234 45.9742 42.2234 48.9722 42.7734 51.8932H44.4267C43.8734 48.9725 43.8734 45.9739 44.4267 43.0532ZM24.926 47.1799L28.892 44.2332ZM24.926 45.1166L28.892 48.6532Z" fill="white"/>
        <path d="M30.875 49.5366L42.7734 43.3466M30.214 49.2399L41.45 43.3466M29.8837 48.6532L40.13 43.3466M29.553 48.0632L38.4767 43.3466M28.892 47.4732L37.1534 43.3466M29.2227 46.5899L34.84 43.6432M28.892 45.9999L33.1887 43.6432M28.892 45.1166L31.8667 43.6432M31.8667 49.8299L43.1034 43.9366M32.858 50.1266L43.4334 44.5266M33.85 50.4199L43.7634 45.1166M34.84 50.7132L43.1034 46.2932M36.1634 50.7132L43.4334 46.8832M37.1534 51.0099L43.4334 47.7666M38.1467 51.3032L43.1034 48.6532M39.4667 51.3032L43.4334 49.2399M40.79 51.5999L43.4334 50.1266M42.1134 51.5999L43.7634 50.7132M24.926 47.1799L28.892 44.2332M24.926 45.1166L28.892 48.6532M44.4267 43.0532H42.7734C42.2234 45.9742 42.2234 48.9722 42.7734 51.8932H44.4267C43.8734 48.9725 43.8734 45.9739 44.4267 43.0532Z" stroke="#DB161B" stroke-width="0.352"/>
        <path fill-rule="evenodd" clip-rule="evenodd" d="M30.875 43.6436L28.892 43.9369C28.4514 45.8036 28.4514 47.3736 28.892 49.2402L30.875 49.8302C30.4344 47.9636 30.4344 45.5102 30.875 43.6436Z" fill="white" stroke="#DB161B" stroke-width="0.251"/>
        <path fill-rule="evenodd" clip-rule="evenodd" d="M54.99 28.9088V27.4231C53.5067 27.4355 52.5133 26.5515 52.5133 25.6548L47.5633 25.6671C47.5633 26.5515 46.5733 27.4355 45.0867 27.4355V28.9088H54.99Z" fill="white" stroke="#DB161B" stroke-width="0.431"/>
        <path d="M47.9167 23.8988H52.1614V25.6668H47.9167V23.8988ZM48.2701 22.1308H51.8074V23.8988H48.2701V22.1308ZM48.2701 20.3628H51.8074V22.1308H48.2701V20.3628Z" fill="white"/>
        <path d="M48.2701 22.1308H51.8074M48.2701 22.1308V23.8988H51.8074V22.1308M48.2701 22.1308V20.3628H51.8074V22.1308M47.9167 23.8988H52.1614V25.6668H47.9167V23.8988Z" stroke="#DB161B" stroke-width="0.364"/>
        <path d="M48.6233 18.0059H51.453V20.3632H48.6233V18.0059Z" fill="white" stroke="#DB161B" stroke-width="0.364"/>
        <path d="M48.5034 15.9429H51.5771V18.0055H48.5034V15.9429Z" fill="white" stroke="#DB161B" stroke-width="0.38"/>
        <path d="M50.2099 16.8275C52.4734 16.8275 54.3083 15.5741 54.3083 14.028C54.3083 12.4819 52.4734 11.2285 50.2099 11.2285C47.9465 11.2285 46.1116 12.4819 46.1116 14.028C46.1116 15.5741 47.9465 16.8275 50.2099 16.8275Z" fill="white" stroke="#DB161B" stroke-width="0.358042"/>
        <path fill-rule="evenodd" clip-rule="evenodd" d="M52.2601 13.88C52.2601 14.653 53.2834 15.943 53.2834 15.943C52.5401 16.4497 51.3401 16.827 50.2101 16.827C49.0801 16.827 47.6701 16.6167 47.1367 15.943C47.1367 15.943 48.16 14.653 48.16 13.88C48.16 13.1074 47.1367 12.112 47.1367 12.112C47.8767 11.6054 49.0801 11.228 50.2101 11.228C51.3401 11.228 52.5401 11.6054 53.2834 12.112C53.2834 12.112 52.2601 13.1074 52.2601 13.88Z" fill="white" stroke="#DB161B" stroke-width="0.358"/>
        <path fill-rule="evenodd" clip-rule="evenodd" d="M51.5767 13.88C51.5767 14.653 52.6001 16.2377 52.6001 16.2377C51.8601 16.7444 51.3401 16.827 50.2101 16.827C49.0801 16.827 48.3534 16.9114 47.8201 16.2377C47.8201 16.2377 48.8434 14.653 48.8434 13.88C48.8434 13.1074 47.8201 11.8174 47.8201 11.8174C48.5601 11.3107 49.0801 11.228 50.2101 11.228C51.3401 11.228 51.8601 11.3107 52.6001 11.8174C52.6001 11.8174 51.5767 13.1074 51.5767 13.88Z" fill="white" stroke="#DB161B" stroke-width="0.358"/>
        <path d="M46.1115 15.0596C46.6774 15.0596 47.1361 14.6638 47.1361 14.1756C47.1361 13.6873 46.6774 13.2915 46.1115 13.2915C45.5456 13.2915 45.0869 13.6873 45.0869 14.1756C45.0869 14.6638 45.5456 15.0596 46.1115 15.0596Z" fill="white" stroke="#DB161B" stroke-width="0.358042"/>
        <path d="M54.3078 15.0596C54.8737 15.0596 55.3324 14.6638 55.3324 14.1756C55.3324 13.6873 54.8737 13.2915 54.3078 13.2915C53.7419 13.2915 53.2832 13.6873 53.2832 14.1756C53.2832 14.6638 53.7419 15.0596 54.3078 15.0596Z" fill="white" stroke="#DB161B" stroke-width="0.358042"/>
        <path d="M50.2099 15.0596C50.7758 15.0596 51.2345 14.6638 51.2345 14.1756C51.2345 13.6873 50.7758 13.2915 50.2099 13.2915C49.644 13.2915 49.1853 13.6873 49.1853 14.1756C49.1853 14.6638 49.644 15.0596 50.2099 15.0596Z" fill="white" stroke="#DB161B" stroke-width="0.358042"/>
        <path d="M50.2099 12.1128C50.7758 12.1128 51.2345 11.717 51.2345 11.2288C51.2345 10.7405 50.7758 10.3447 50.2099 10.3447C49.644 10.3447 49.1853 10.7405 49.1853 11.2288C49.1853 11.717 49.644 12.1128 50.2099 12.1128Z" fill="white" stroke="#DB161B" stroke-width="0.358042"/>
        <path d="M47.2089 28.9092C47.7949 28.9092 48.27 28.5134 48.27 28.0252C48.27 27.5369 47.7949 27.1411 47.2089 27.1411C46.6228 27.1411 46.1477 27.5369 46.1477 28.0252C46.1477 28.5134 46.6228 28.9092 47.2089 28.9092Z" fill="white" stroke="#DB161B" stroke-width="0.364376"/>
        <path d="M52.8683 28.9092C53.4543 28.9092 53.9294 28.5134 53.9294 28.0252C53.9294 27.5369 53.4543 27.1411 52.8683 27.1411C52.2822 27.1411 51.8071 27.5369 51.8071 28.0252C51.8071 28.5134 52.2822 28.9092 52.8683 28.9092Z" fill="white" stroke="#DB161B" stroke-width="0.364376"/>
        <path fill-rule="evenodd" clip-rule="evenodd" d="M47.5632 25.667H52.5132L50.0399 28.3193L47.5632 25.667Z" fill="white" stroke="#DB161B" stroke-width="0.364"/>
        <path d="M50.0384 28.9092C50.8198 28.9092 51.4533 28.3815 51.4533 27.7305C51.4533 27.0795 50.8198 26.5518 50.0384 26.5518C49.257 26.5518 48.6235 27.0795 48.6235 27.7305C48.6235 28.3815 49.257 28.9092 50.0384 28.9092Z" fill="white" stroke="#DB161B" stroke-width="0.485831"/>
        <path d="M51.7791 36.5732H45.0028C44.7748 36.5732 44.5901 36.7132 44.5901 36.8859V38.0286C44.5901 38.2013 44.7748 38.3412 45.0028 38.3412H51.7791C52.007 38.3412 52.1918 38.2013 52.1918 38.0286V36.8859C52.1918 36.7132 52.007 36.5732 51.7791 36.5732Z" fill="white" stroke="#DB161B" stroke-width="0.33"/>
        <path fill-rule="evenodd" clip-rule="evenodd" d="M54.5067 35.1C53.59 35.1 52.8533 35.7866 52.8533 36.64V37.98C52.8533 38.8333 53.59 39.52 54.5067 39.52C55.4233 39.52 56.16 38.8333 56.16 37.98V36.64C56.16 35.7866 55.4233 35.1 54.5067 35.1ZM54.5067 35.69C53.9567 35.69 53.5133 36.24 53.5133 36.9233V37.7C53.5133 38.3833 53.9567 38.93 54.5067 38.93C55.0567 38.93 55.4967 38.3833 55.4967 37.7V36.9233C55.4967 36.24 55.0567 35.69 54.5067 35.69ZM45.9133 35.3966C45.3633 35.3966 44.9233 35.9433 44.9233 36.6266V37.9933C44.9233 38.6766 45.3633 39.2266 45.9133 39.2266C46.4633 39.2266 46.9033 38.6766 46.9033 37.9933V36.6266C46.9033 35.9433 46.4633 35.3966 45.9133 35.3966ZM45.9133 34.8066C44.9967 34.8066 44.26 35.4933 44.26 36.3466V38.2766C44.26 39.13 44.9967 39.8166 45.9133 39.8166C46.83 39.8166 47.5667 39.13 47.5667 38.2766V36.3466C47.5667 35.4933 46.83 34.8066 45.9133 34.8066Z" fill="white" stroke="#DB161B" stroke-width="0.33"/>
        <path fill-rule="evenodd" clip-rule="evenodd" d="M43.27 35.9831C42.72 35.9831 42.2767 36.5332 42.2767 37.2165V37.5365C42.2767 38.2198 42.72 38.7698 43.27 38.7698C43.82 38.7698 44.26 38.2198 44.26 37.5365V37.2165C44.26 36.5332 43.82 35.9831 43.27 35.9831ZM43.27 35.3965C42.3534 35.3965 41.6167 36.0831 41.6167 36.9365V37.8198C41.6167 38.6732 42.3534 39.3598 43.27 39.3598C44.1834 39.3598 44.9234 38.6732 44.9234 37.8198V36.9365C44.9234 36.0831 44.1834 35.3965 43.27 35.3965Z" fill="white" stroke="#DB161B" stroke-width="0.33"/>
        <path fill-rule="evenodd" clip-rule="evenodd" d="M39.3034 35.1698C38.3134 35.1698 37.5201 35.7831 37.5201 36.5464V38.0731C37.5201 38.8364 38.3134 39.4498 39.3034 39.4498C40.2934 39.4498 41.0867 38.8364 41.0867 38.0731V36.5464C41.0867 35.7831 40.2934 35.1698 39.3034 35.1698ZM39.3034 34.5098C37.6567 34.5098 36.3301 35.2798 36.3301 36.2331V38.3898C36.3301 39.3431 37.6567 40.1098 39.3034 40.1098C40.9501 40.1098 42.2767 39.3431 42.2767 38.3898V36.2331C42.2767 35.2798 40.9501 34.5098 39.3034 34.5098ZM60.7867 35.4631C59.7967 35.4631 59.0001 36.0798 59.0001 36.8431V38.3698C59.0001 39.1331 59.7967 39.7464 60.7867 39.7464C61.7734 39.7464 62.5701 39.1331 62.5701 38.3698V36.8431C62.5701 36.0798 61.7734 35.4631 60.7867 35.4631ZM60.7867 34.8064C59.1367 34.8064 57.8101 35.5731 57.8101 36.5264V38.6831C57.8101 39.6364 59.1367 40.4031 60.7867 40.4031C62.4334 40.4031 63.7601 39.6364 63.7601 38.6831V36.5264C63.7601 35.5731 62.4334 34.8064 60.7867 34.8064Z" fill="white" stroke="#DB161B" stroke-width="0.33"/>
        <path d="M58.9174 36.5732H55.3821C55.2632 36.5732 55.1667 36.7132 55.1667 36.8859V38.0286C55.1667 38.2013 55.2632 38.3412 55.3821 38.3412H58.9174C59.0363 38.3412 59.1327 38.2013 59.1327 38.0286V36.8859C59.1327 36.7132 59.0363 36.5732 58.9174 36.5732Z" fill="white" stroke="#DB161B" stroke-width="0.33"/>
        <path d="M53.7214 36.2798H51.6591C51.5897 36.2798 51.5334 36.4665 51.5334 36.6968V38.2201C51.5334 38.4504 51.5897 38.6371 51.6591 38.6371H53.7214C53.7908 38.6371 53.8471 38.4504 53.8471 38.2201V36.6968C53.8471 36.4665 53.7908 36.2798 53.7214 36.2798Z" fill="white" stroke="#DB161B" stroke-width="0.33"/>
        <path d="M42.8147 36.2798H40.7524C40.683 36.2798 40.6267 36.4665 40.6267 36.6968V38.2201C40.6267 38.4504 40.683 38.6371 40.7524 38.6371H42.8147C42.8841 38.6371 42.9404 38.4504 42.9404 38.2201V36.6968C42.9404 36.4665 42.8841 36.2798 42.8147 36.2798Z" fill="white" stroke="#DB161B" stroke-width="0.33"/>
        <path d="M37.7293 35.9834H33.6043C33.4656 35.9834 33.3533 36.2167 33.3533 36.5044V38.4091C33.3533 38.6968 33.4656 38.9301 33.6043 38.9301H37.7293C37.8679 38.9301 37.9803 38.6968 37.9803 38.4091V36.5044C37.9803 36.2167 37.8679 35.9834 37.7293 35.9834Z" fill="white" stroke="#DB161B" stroke-width="0.33"/>
        <path d="M66.17 36.2798H62.34C62.2112 36.2798 62.1067 36.513 62.1067 36.8008V38.7055C62.1067 38.9932 62.2112 39.2265 62.34 39.2265H66.17C66.2989 39.2265 66.4034 38.9932 66.4034 38.7055V36.8008C66.4034 36.513 66.2989 36.2798 66.17 36.2798Z" fill="white" stroke="#DB161B" stroke-width="0.33"/>
    </g>
    <defs>
        <clipPath id="clip0_5_4971">
            <rect width="400" height="200" fill="white"/>
        </clipPath>
    </defs>
</svg>
