<svg width="400" height="200" viewBox="0 0 400 200" fill="none"
    xmlns="http://www.w3.org/2000/svg">
    <g clip-path="url(#clip0_55_34)">
        <g>
            <path d="M193.261 158.255C187.883 157.542 182.952 155.83 179.527 153.486C178.863 153.03 178.238 152.658 178.141 152.658C178.041 152.658 177.961 153.164 177.961 153.789C177.961 155.558 177.25 156.45 175.461 156.914C173.75 157.358 171.138 156.461 169.022 154.705C166.83 152.886 164.3 151.497 162.158 150.942C160.394 150.48 158.052 150.555 156.361 151.122C155.575 151.386 154.68 151.758 154.369 151.95C154.061 152.142 153.713 152.297 153.602 152.297C153.302 152.297 153.344 150.394 153.658 149.786C154.072 148.989 155.091 148.203 156.28 147.769C156.88 147.55 157.372 147.269 157.372 147.144C157.372 147.019 157.169 146.561 156.922 146.13C156.116 144.719 156.447 143.353 157.852 142.278C159.291 141.178 161.727 140.989 163.88 141.808C164.422 142.014 164.927 142.183 165.002 142.183C165.286 142.183 165.113 141.786 164.333 140.65C163.433 139.333 163.255 138.683 163.366 137.117C163.511 135.133 165.127 133.511 167.108 133.367C168.725 133.25 169.73 133.794 172.116 136.067C179.241 142.861 186.988 146.605 196.025 147.619C198.305 147.875 202.894 147.739 205.586 147.333C213.716 146.108 221.908 142.019 228.305 135.994C230.077 134.325 230.93 133.883 232.383 133.878C233.647 133.872 234.533 134.28 235.438 135.28C236.263 136.197 236.544 137.067 236.455 138.458C236.397 139.35 236.252 139.789 235.722 140.653C234.938 141.928 235.072 142.044 236.622 141.444C238.716 140.628 241.297 141.005 242.688 142.328C243.913 143.492 244.03 144.655 243.077 146.233C242.73 146.811 242.447 147.353 242.447 147.439C242.447 147.597 242.711 147.672 243.983 147.878C245.647 148.144 246.6 149.38 246.6 151.269C246.6 151.836 246.53 152.297 246.444 152.297C246.361 152.297 245.73 152.067 245.044 151.783C243.105 150.983 242.002 150.778 239.736 150.792C238.011 150.803 237.416 150.883 236.213 151.275C234.372 151.878 232.402 153.039 230.797 154.469C229.027 156.047 227.913 156.544 226.191 156.53C224.591 156.514 223.497 156.05 222.919 155.136C222.611 154.647 222.566 154.35 222.641 153.244C222.691 152.525 222.68 151.936 222.622 151.936C222.561 151.936 221.938 152.33 221.236 152.817C219.391 154.083 218.216 154.711 216.105 155.547C209.666 158.094 200.375 159.197 193.261 158.255Z" fill="#CF1126"/>
            <path d="M196.205 145.881C185.488 144.852 175.235 139.27 169 130.42C162.23 121.188 160.097 108.999 162.163 97.8537C163.262 92.7795 165.477 87.702 169.259 84.0887C166.245 90.4784 165.227 97.8023 166.834 104.725C169.331 118.545 181.011 130.244 194.984 132.268C200.512 133.868 206.23 132.178 211.511 130.464C223.159 126.359 232.033 115.303 233.115 102.942C234.042 96.2542 233.015 89.2998 230.002 83.2437C231.72 84.1517 233.888 87.7123 235.166 90.1067C239.611 98.7187 239.814 109.039 237.197 118.229C233.647 129.923 224.707 140.167 212.889 143.891C207.525 145.643 201.821 146.177 196.206 145.881L196.205 145.881Z" fill="#CF1126"/>
            <path d="M142.228 130.528C141.526 130.418 140.751 131.109 141.016 131.832C141.522 132.564 142.395 132.921 143.182 133.271C145.069 134.027 147.121 134.322 149.146 134.273C148.448 134.271 149.386 134.28 149.647 134.273C151.251 134.277 152.846 133.988 154.354 133.445C155.192 133.15 156.26 132.882 156.604 131.955C156.939 131.351 156.331 130.748 155.719 130.869C154.865 131.055 154.068 131.442 153.222 131.662C151.396 132.177 149.473 132.376 147.582 132.221C146.199 132.052 144.859 131.61 143.579 131.07C143.135 130.875 142.719 130.589 142.228 130.528H142.228Z" fill="#CF1126"/>
            <path d="M143.008 127.644C142.298 127.539 141.687 128.355 141.983 129.008C142.528 129.799 143.446 130.22 144.304 130.591C145.795 131.187 147.416 131.437 149.019 131.389C148.41 131.388 149.228 131.397 149.454 131.389C150.819 131.39 152.171 131.122 153.433 130.603C154.203 130.303 155.147 130.013 155.468 129.165C155.717 128.699 155.527 128.021 154.94 127.985C154.404 127.958 153.942 128.299 153.446 128.452C151.645 129.197 149.662 129.513 147.72 129.345C146.51 129.19 145.353 128.743 144.256 128.226C143.843 128.026 143.472 127.716 143.008 127.644Z" fill="#CF1126"/>
            <path d="M143.967 124.88C143.358 124.807 142.939 125.494 143.042 126.042C143.133 126.523 143.565 126.847 143.922 127.142C145.402 128.225 147.278 128.686 149.096 128.625C148.39 128.623 150.043 128.637 149.539 128.623C150.69 128.619 151.827 128.337 152.863 127.839C153.554 127.538 154.366 127.19 154.599 126.401C154.71 126.033 154.78 125.504 154.365 125.298C153.931 125.055 153.5 125.428 153.105 125.58C151.774 126.257 150.292 126.634 148.797 126.627C147.505 126.67 146.288 126.127 145.167 125.541C144.76 125.334 144.425 124.974 143.967 124.88Z" fill="#CF1126"/>
            <path d="M133.758 84.0833C132.854 84.9888 133.544 86.6585 133.496 87.8452C133.964 91.5002 134.547 95.2019 135.911 98.6424C137.582 102.004 141.131 103.802 143.282 106.772C144.05 108.204 143.777 109.927 143.939 111.493C144.067 115.761 144.027 120.033 143.952 124.302C145.88 125.269 147.973 126.242 150.19 125.87C151.504 125.556 153.944 125.361 154.217 124.053C154.111 116.692 154.042 109.328 153.944 101.968C153.197 99.7124 150.902 98.5455 149.186 97.1024C147.771 95.7043 146.454 94.2101 145.245 92.6305C144.516 91.4035 141.67 90.9613 142.7 93.0963C143.304 94.9446 144.844 96.3213 145.23 98.2635C145.314 99.3277 146.585 101.285 145.501 101.906C144.811 100.734 143.811 99.7355 142.533 99.1402C141.302 98.2224 139.267 97.8402 138.822 96.2188C138.496 93.9188 137.318 91.8349 135.798 90.1116C136.19 88.046 135.8 85.4624 134.014 84.1421L133.758 84.0833Z" fill="#CF1126"/>
            <path d="M136.511 84.4971C135.688 84.6298 135.716 85.6787 136.097 86.2301C136.502 87.4212 136.612 88.7149 136.393 89.9549C137.856 91.6676 138.99 93.7168 139.331 95.966C139.339 96.8115 140.229 97.0912 140.806 97.509C142.159 98.3707 143.68 98.9954 144.885 100.074C145.139 100.345 145.33 100.637 145.151 100.083C144.963 99.376 144.866 98.5951 144.312 98.0598C143.552 97.2432 142.603 96.5146 141.497 96.2654C141.405 95.1226 140.86 94.0729 140.358 93.0621C139.8 92.0957 139.218 91.0604 138.263 90.4337C138.302 88.7399 138.274 86.9629 137.545 85.3998C137.331 84.9982 137.016 84.5212 136.512 84.4971H136.511Z" fill="#CF1126"/>
            <path d="M138.814 85.1721C138.24 85.3424 138.35 86.0496 138.532 86.4821C138.806 87.681 138.849 88.9193 138.827 90.1443C139.88 90.9777 140.539 92.186 141.139 93.363C141.514 94.1491 141.871 94.9605 142.015 95.8255C142.869 96.1082 143.617 96.6438 144.285 97.2357C144.02 96.4352 143.43 95.8155 143.034 95.0846C142.603 94.3243 142.191 93.5313 142.009 92.6699C141.187 91.793 140.734 90.5505 140.914 89.3499C140.951 88.0232 140.522 86.6527 139.634 85.6527C139.411 85.4324 139.144 85.1888 138.814 85.1721Z" fill="#CF1126"/>
            <path d="M141.433 85.5473C141.122 85.6023 140.932 85.8989 140.765 86.1409C140.7 86.3834 140.998 86.6442 141.045 86.9075C141.411 87.8262 141.546 88.8206 141.438 89.8036C141.414 90.4986 141.663 91.1775 142.017 91.7661C142.119 91.332 142.522 91.0198 142.958 90.9773C143.116 90.9492 143.35 91.0295 143.257 90.7875C143.146 89.4581 142.944 88.1214 142.479 86.8653C142.299 86.417 142.095 85.9448 141.706 85.6375C141.627 85.5817 141.533 85.5336 141.433 85.5473Z" fill="#CF1126"/>
            <path d="M257.772 130.528C258.474 130.418 259.249 131.109 258.984 131.832C258.478 132.564 257.605 132.921 256.818 133.271C254.931 134.027 252.879 134.322 250.854 134.273C251.552 134.271 250.614 134.28 250.353 134.273C248.749 134.277 247.154 133.988 245.646 133.445C244.808 133.15 243.74 132.882 243.396 131.955C243.061 131.351 243.669 130.748 244.281 130.869C245.135 131.055 245.932 131.442 246.778 131.662C248.604 132.177 250.527 132.376 252.418 132.221C253.801 132.052 255.141 131.61 256.421 131.07C256.865 130.875 257.281 130.589 257.772 130.528H257.772Z" fill="#CF1126"/>
            <path d="M256.992 127.644C257.702 127.539 258.313 128.355 258.017 129.008C257.472 129.799 256.554 130.22 255.696 130.591C254.205 131.187 252.584 131.437 250.981 131.389C251.59 131.388 250.772 131.397 250.546 131.389C249.181 131.39 247.829 131.122 246.567 130.603C245.797 130.303 244.853 130.013 244.532 129.165C244.283 128.699 244.473 128.021 245.06 127.985C245.596 127.958 246.058 128.299 246.554 128.452C248.355 129.197 250.338 129.513 252.28 129.345C253.49 129.19 254.647 128.743 255.744 128.226C256.157 128.026 256.528 127.716 256.992 127.644Z" fill="#CF1126"/>
            <path d="M256.033 124.88C256.642 124.807 257.061 125.494 256.958 126.042C256.867 126.523 256.435 126.847 256.078 127.142C254.598 128.225 252.722 128.686 250.904 128.625C251.61 128.623 249.957 128.637 250.461 128.623C249.31 128.619 248.173 128.337 247.137 127.839C246.446 127.538 245.634 127.19 245.401 126.401C245.29 126.033 245.22 125.504 245.635 125.298C246.069 125.055 246.5 125.428 246.895 125.58C248.226 126.257 249.708 126.634 251.203 126.627C252.495 126.67 253.712 126.127 254.833 125.541C255.24 125.334 255.575 124.974 256.033 124.88Z" fill="#CF1126"/>
            <path d="M266.242 84.0833C267.146 84.9888 266.456 86.6585 266.504 87.8452C266.036 91.5002 265.453 95.2019 264.089 98.6424C262.418 102.004 258.869 103.802 256.718 106.772C255.95 108.204 256.223 109.927 256.061 111.493C255.933 115.761 255.973 120.033 256.048 124.302C254.12 125.269 252.027 126.242 249.81 125.87C248.496 125.556 246.056 125.361 245.783 124.053C245.889 116.692 245.958 109.328 246.056 101.968C246.803 99.7124 249.098 98.5455 250.814 97.1024C252.229 95.7043 253.546 94.2101 254.755 92.6305C255.484 91.4035 258.33 90.9613 257.3 93.0963C256.696 94.9446 255.156 96.3213 254.77 98.2635C254.686 99.3277 253.415 101.285 254.499 101.906C255.189 100.734 256.189 99.7355 257.467 99.1402C258.698 98.2224 260.733 97.8402 261.178 96.2188C261.504 93.9188 262.682 91.8349 264.202 90.1116C263.81 88.046 264.2 85.4624 265.986 84.1421L266.242 84.0833Z" fill="#CF1126"/>
            <path d="M263.489 84.4971C264.312 84.6298 264.284 85.6787 263.903 86.2301C263.498 87.4212 263.388 88.7149 263.607 89.9549C262.144 91.6676 261.01 93.7168 260.669 95.966C260.661 96.8115 259.771 97.0912 259.194 97.509C257.841 98.3707 256.32 98.9954 255.115 100.074C254.861 100.345 254.67 100.637 254.849 100.083C255.037 99.376 255.134 98.5951 255.688 98.0598C256.448 97.2432 257.397 96.5146 258.503 96.2654C258.595 95.1226 259.14 94.0729 259.642 93.0621C260.2 92.0957 260.782 91.0604 261.737 90.4337C261.698 88.7399 261.726 86.9629 262.455 85.3998C262.669 84.9982 262.984 84.5212 263.488 84.4971H263.489Z" fill="#CF1126"/>
            <path d="M261.186 85.1721C261.76 85.3424 261.65 86.0496 261.468 86.4821C261.194 87.681 261.151 88.9193 261.173 90.1443C260.12 90.9777 259.461 92.186 258.861 93.363C258.486 94.1491 258.129 94.9605 257.985 95.8255C257.131 96.1082 256.383 96.6438 255.715 97.2357C255.98 96.4352 256.57 95.8155 256.966 95.0846C257.397 94.3243 257.809 93.5313 257.991 92.6699C258.813 91.793 259.266 90.5505 259.086 89.3499C259.049 88.0232 259.478 86.6527 260.366 85.6527C260.589 85.4324 260.856 85.1888 261.186 85.1721Z" fill="#CF1126"/>
            <path d="M258.567 85.5473C258.878 85.6023 259.068 85.8989 259.235 86.1409C259.3 86.3834 259.002 86.6442 258.955 86.9075C258.589 87.8262 258.454 88.8206 258.562 89.8036C258.586 90.4986 258.337 91.1775 257.983 91.7661C257.881 91.332 257.478 91.0198 257.042 90.9773C256.884 90.9492 256.65 91.0295 256.743 90.7875C256.854 89.4581 257.056 88.1214 257.521 86.8653C257.701 86.417 257.905 85.9448 258.294 85.6375C258.373 85.5817 258.467 85.5336 258.567 85.5473Z" fill="#CF1126"/>
            <path d="M198.798 132.217C195.049 131.86 191.668 129.128 190.512 125.55C190.574 124.934 191.341 125.895 191.704 125.959C192.384 126.337 193.121 126.648 193.904 126.697C194.892 127.121 195.503 128.095 196.446 128.603C196.884 128.944 198.434 129.614 198.146 128.53C197.783 127.963 197.533 127.245 197.846 126.596C198.371 125.443 199.18 124.439 199.993 123.477C200.591 123.277 200.991 124.457 201.419 124.854C202.011 125.765 202.725 126.877 202.376 128.008C202.038 128.427 201.815 129.687 202.721 129.264C203.838 128.772 204.753 127.947 205.68 127.176C206.491 126.609 207.528 126.569 208.378 126.073C208.771 125.973 209.592 125.186 209.763 125.622C209.297 126.869 208.518 127.985 207.685 129.014C206.335 130.556 204.509 131.716 202.466 132.042C201.259 132.264 200.02 132.31 198.798 132.217Z" fill="#CF1126"/>
            <path d="M203.203 127.839C203.285 127.087 203.114 126.319 202.73 125.635C202.14 124.433 201.307 123.366 200.495 122.312C199.729 121.864 199.304 123.328 198.795 123.749C198.001 124.937 197.005 126.153 196.957 127.647C196.51 128.342 195.678 127.081 195.319 126.666C194.633 125.696 194.114 124.549 194.199 123.336C194.118 121.381 194.493 119.436 195.205 117.619C195.742 116.068 196.615 114.562 196.526 112.867C196.589 111.592 196.33 110.185 195.297 109.327C194.314 108.556 195.933 108.392 196.448 108.792C197.328 108.851 197.804 110.305 198.608 109.945C198.928 109.185 198.992 108.279 199.652 107.687C200.301 106.799 200.978 108.063 201.2 108.656C201.657 109.176 201.174 110.463 201.917 110.497C202.808 109.872 203.443 108.824 204.581 108.596C205.043 108.332 205.832 108.56 205.224 109.091C204.381 109.881 203.661 110.869 203.507 112.044C203.249 113.519 203.618 115.014 204.261 116.341C205.496 118.95 206.451 121.896 205.826 124.798C205.537 126.088 204.66 127.2 203.595 127.948C203.461 128.03 203.248 128.024 203.203 127.839Z" fill="#CF1126"/>
            <path d="M201.87 108.231C201.465 107.502 200.974 106.783 200.294 106.287C199.633 106.286 199.225 107.121 198.775 107.558C198.46 108.144 198.077 109.124 197.302 108.358C196.067 107.637 195.849 106.059 195.857 104.758C195.779 102.65 196.628 100.682 197.382 98.7616C197.862 97.5594 197.744 96.2064 197.451 94.9744C197.082 93.56 195.947 92.5791 195.073 91.4758C195.133 91.0491 196.25 91.2822 196.67 91.3633C197.603 91.6 198.161 92.4258 198.856 93.0094C199.351 92.8594 199.149 91.8594 199.379 91.3891C199.397 90.7275 200.277 89.8553 200.641 90.8025C201.185 91.4047 200.624 92.5983 201.327 92.9733C201.996 92.7253 202.327 91.993 202.956 91.6622C203.575 91.24 204.45 91.1927 205.117 91.5241C205.351 92.1389 204.383 92.6505 204.103 93.1844C202.977 94.575 202.582 96.4927 203.064 98.2155C203.446 99.5669 204.123 100.828 204.357 102.225C204.638 103.795 204.629 105.444 204.222 106.992C203.98 107.931 203.166 108.558 202.327 108.948C202.119 108.756 202.01 108.472 201.87 108.231V108.231Z" fill="#CF1126"/>
            <path d="M197.669 90.8028C196.736 90.1195 196.428 89.4667 196.428 88.175C196.428 87.5139 196.55 87.1556 196.986 86.5556C197.628 85.6667 197.511 85.3861 196.603 85.6473C195.142 86.0667 194.444 85.6834 194.394 84.4389C194.372 83.8306 194.5 83.5723 195.319 82.5889C195.975 81.8 196.214 81.3862 196.083 81.2556C195.955 81.1278 195.18 81.8 193.589 83.4195C192.319 84.7112 190.892 86.0306 190.417 86.3528C187.683 88.1973 185.072 88.4834 183.88 87.0639C183.269 86.3389 183.303 85.9306 184.008 85.4917C184.333 85.2917 184.88 84.8306 185.228 84.4667C186.047 83.6139 188.489 81.8528 189.7 81.2417C190.683 80.7445 190.917 80.4084 190.278 80.4084C189.45 80.4084 186.794 82.1362 184.78 83.9862C184.189 84.5334 183.336 85.1417 182.889 85.3389C181.883 85.7834 179.908 85.9473 179.03 85.6584C178.411 85.4528 177.28 84.3862 177.28 84.0056C177.28 83.9056 177.539 83.6834 177.853 83.5139C178.167 83.3473 178.73 82.9389 179.103 82.6139C180.714 81.2 183.767 79.7445 186.189 79.2362C186.958 79.075 186.675 78.6862 185.817 78.725C184.153 78.7973 180.85 80.3445 178.878 81.9723C176.567 83.8778 173.08 83.6973 171.958 81.6139C171.764 81.2556 171.65 80.9195 171.705 80.8667C171.758 80.8139 172.444 80.6084 173.23 80.4084C174.08 80.1945 175.764 79.4973 177.372 78.6945C179.903 77.4334 180.653 77.1639 182.394 76.8834C183.178 76.7584 183.219 76.375 182.458 76.2862C181.478 76.1695 179.975 76.6612 177.319 77.9667C173.908 79.6445 172.953 79.9334 171.155 79.8278C169.517 79.7278 168.592 79.3084 167.261 78.05C166.392 77.225 165.158 75.1306 165.4 74.8889C165.458 74.8306 165.858 74.8889 166.289 75.0139C166.767 75.1556 168.136 75.25 169.786 75.2528C172.094 75.2584 172.708 75.1973 173.939 74.8417C175.997 74.2473 178.733 72.8556 180.605 71.4584C184.186 68.7806 187.105 67.7056 190.828 67.6889C194.264 67.675 196.45 68.4695 198.386 70.4334C199.042 71.0973 199.6 71.5278 199.692 71.4362C199.778 71.35 199.872 70.1889 199.9 68.8556C199.9 68.8556 200.911 68.7584 201.125 69.0417C201.125 71.2056 201.15 71.375 201.464 71.375C201.669 71.375 201.889 71.1639 202.025 70.8362C202.319 70.1278 203.408 69.1584 204.572 68.5695C207.086 67.2945 211.436 67.2556 214.93 68.475C216.403 68.9917 218.036 69.9139 219.592 71.1139C221.153 72.3139 224.344 73.9195 226.23 74.4556C228.139 74.9973 231.503 75.1334 233.228 74.7417C233.939 74.5806 234.605 74.4473 234.711 74.4473C235.347 74.4473 234.264 76.5667 232.992 77.8084C230.667 80.0806 227.642 80.0695 223.386 77.775C220.733 76.3473 217.561 75.5667 217.561 76.3445C217.561 76.5056 217.728 76.6139 217.975 76.6139C218.897 76.6139 220.678 77.2334 223.161 78.4112C225.847 79.6889 227.355 80.2278 228.25 80.2278C228.9 80.2278 228.919 80.6306 228.314 81.5195C227.672 82.4667 226.583 82.9362 225.044 82.9334C223.575 82.9278 222.758 82.6056 221.444 81.5139C219.247 79.6862 213.772 77.6473 213.983 78.7362C214.025 78.9528 214.289 79.0862 214.853 79.1723C216.758 79.4639 218.994 80.5306 221.283 82.2445C221.989 82.775 222.722 83.2973 222.908 83.4084C223.222 83.5917 223.228 83.6473 222.98 84.1112C222.569 84.8778 221.533 85.4723 220.411 85.5889C218.958 85.7389 217.694 85.3056 216.386 84.2112C213.625 81.9 211.022 80.2278 210.189 80.2278C209.508 80.2278 209.814 80.6028 211.014 81.2389C212.592 82.075 214.214 83.2056 215.408 84.3028C215.972 84.825 216.608 85.3417 216.819 85.4556C217.319 85.7223 217.3 86.1139 216.75 86.8334C216.189 87.5667 215.261 87.8889 214.058 87.7612C211.658 87.5084 209.786 86.35 206.844 83.2973C205.694 82.1056 204.669 81.1306 204.564 81.1306C204.172 81.1306 204.403 81.6612 205.161 82.5112C206.1 83.5612 206.28 84.1528 205.925 85.0056C205.611 85.7612 205.089 85.9361 204.017 85.6473C202.919 85.35 202.747 85.6195 203.467 86.5139C204.539 87.85 204.38 89.4862 203.067 90.6112C202.658 90.9584 202.23 91.2445 202.114 91.2445C202 91.2445 201.711 90.9473 201.469 90.5834C200.625 89.3 199.883 89.3084 199.061 90.6056C198.775 91.0584 198.533 91.425 198.525 91.4223C198.514 91.4195 198.128 91.1417 197.669 90.8028Z" fill="#CF1126"/>
            <path d="M201.853 64.7305L200.428 65.8582L199.15 64.8944V72.5999L201.853 72.6332V64.7305Z" fill="#CF1126"/>
            <path d="M193.025 56.7362C192.741 60.3779 191.816 62.9195 190.53 65.7223L193.614 62.864L195.758 65.4112L198.08 62.8195L200.45 65.0084L202.728 62.7307L205.094 65.5001L207.15 63.2223L210.633 65.7223C209.369 62.9195 207.658 60.5445 207.872 56.6001C204.497 59.1084 196.478 59.5612 193.025 56.7362Z" fill="#CF1126"/>
            <path d="M199.153 54.8777C197.914 54.8999 196.608 54.9166 195.433 55.1471C194.619 55.3082 193.88 55.5721 193.264 56.0082C193.364 58.3777 204.653 59.3666 207.68 56.0527C207.044 55.5888 206.266 55.3138 205.411 55.1471C204.28 54.9277 203.03 54.9055 201.844 54.886C201.844 55.536 201.85 56.1888 201.85 56.8416L199.153 56.8332V54.8777Z" fill="#CF1126"/>
            <path d="M201.361 42.7695L199.608 42.7834V56.5001L201.397 56.5084L201.361 42.7695Z" fill="#CF1126"/>
            <path d="M201.358 43.1222L200.689 49.6889L207.444 52.9889L204.025 48.4167L208.694 46.9028L201.358 43.1222ZM200.606 41.4111C199.581 41.4111 198.822 41.7945 198.822 42.25C198.822 42.7056 199.581 43.0917 200.606 43.0917C201.631 43.0917 202.383 42.7056 202.383 42.25C202.383 41.7945 201.631 41.4111 200.606 41.4111Z" fill="#CF1126"/>
            <path d="M197.514 156.617C198.622 156.25 199.253 155.578 199.706 154.283C199.931 153.639 200.084 152.969 200.045 152.794C199.95 152.38 199.472 152.403 198.945 152.842C198.584 153.144 198.539 153.297 198.642 153.914C198.906 155.469 198.353 155.855 195.409 156.172C195.117 156.203 194.272 156.153 193.528 156.061C192.128 155.886 191.628 156.025 192.136 156.447C192.289 156.575 192.678 156.747 193 156.828C193.786 157.03 196.672 156.894 197.514 156.617ZM203.617 156.358C203.784 156.205 204.356 155.942 204.889 155.769C205.6 155.542 205.967 155.297 206.267 154.85C207.131 153.564 206.97 152.455 205.7 150.961C205.011 150.15 204.706 150.172 204.156 151.072C203.681 151.85 203.692 151.9 204.375 152.078C204.734 152.169 205.078 152.433 205.267 152.758C206.011 154.047 205.792 154.844 204.689 154.853C203.689 154.861 203.414 155.003 203.145 155.65C203.003 155.986 202.889 156.344 202.889 156.447C202.889 156.719 203.267 156.672 203.617 156.358ZM201.614 154.903C201.803 154.392 201.87 153.472 201.847 151.597C201.834 150.169 201.778 148.958 201.722 148.903C201.556 148.736 200.734 149.267 200.625 149.608C200.57 149.786 200.661 150.197 200.828 150.519C201.084 151.017 201.117 151.48 201.039 153.428C200.939 155.889 201.1 156.303 201.614 154.903Z" fill="#F7E017"/>
            <path d="M196.914 153.73C197.014 153.272 197.142 152.333 197.201 151.647C197.259 150.961 197.401 150.094 197.512 149.719C197.795 148.758 197.509 148.505 196.751 149.044L196.187 149.447L196.303 150.828C196.412 152.072 196.214 154.392 195.928 155.292C195.851 155.53 195.962 155.469 196.276 155.103C196.528 154.808 196.817 154.189 196.914 153.73ZM192.745 154.4C193.759 153.551 193.643 152.103 193.867 150.922C193.844 150.137 194.368 149.197 194.03 148.51C193.082 148.684 192.498 149.581 192.983 150.475C193.024 151.514 192.987 152.644 192.453 153.562C192.017 154.163 190.636 154.013 190.699 153.162C191.046 151.883 189.513 152.505 188.914 152.841C188.451 153.163 187.475 153.187 187.814 152.38C187.59 151.307 186.209 151.978 185.458 151.974C184.749 151.961 185.4 150.537 184.382 150.787C182.492 150.638 180.404 150.804 178.768 149.662C177.81 149.201 177.952 148.049 178.451 147.304C179.047 146.286 179.217 145.012 180.162 144.222C181.098 143.325 179.279 143.704 178.87 144.006C177.958 144.505 178.805 145.79 178.059 146.503C177.623 147.242 177.049 148.263 176.039 148.123C174.584 147.847 173.745 146.493 172.701 145.586C171.807 145.407 172.31 147.036 172.772 147.379C173.685 148.063 174.752 148.561 175.853 148.856C176.948 148.681 176.984 150.115 177.921 150.34C179.639 151.141 181.555 151.381 183.43 151.479C184.166 151.54 183.752 152.852 184.72 152.593C185.261 152.733 186.484 152.391 186.545 153.02C185.725 153.994 187.332 153.972 187.927 153.798C188.689 153.681 189.662 153.39 189.863 154.435C190.499 155.105 191.667 155.006 192.441 154.622C192.55 154.559 192.652 154.485 192.745 154.4L192.745 154.4Z" fill="#F7E017"/>
            <path d="M176.144 145.992C176.453 145.6 176.914 144.808 177.169 144.231C177.422 143.65 177.803 142.992 178.011 142.767C178.5 142.239 178.228 141.914 177.439 142.089C177.022 142.181 176.853 142.333 176.783 142.695C176.547 143.872 176.119 145.078 175.739 145.639C175.05 146.656 175.033 146.697 175.316 146.697C175.464 146.697 175.836 146.381 176.144 145.992ZM165.739 139.469C164.961 139.469 164.928 139.961 165.686 140.225C166.053 140.353 166.364 140.661 166.614 141.164C167.353 142.633 167.786 142.895 169.747 143.064L171.005 143.178L171.066 143.942C171.097 144.364 171.197 144.714 171.294 144.714C171.391 144.714 171.878 144.503 172.369 144.253C173.291 143.786 174.166 142.697 174.166 142.022C174.166 141.581 173.43 141.103 172.761 141.103C172.464 141.103 171.897 141.342 171.45 141.667C170.05 142.681 168.553 142.475 167.733 141.156C167.061 140.067 166.358 139.469 165.739 139.469ZM172.533 142.178C172.905 142.178 172.997 142.453 172.794 142.978C172.655 143.339 172.203 143.35 172.066 142.995C171.905 142.575 172.13 142.178 172.533 142.178ZM225.233 140.47C224.725 140.489 224.575 140.6 224.253 141.078C223.725 141.861 223.672 143.558 224.158 144.158C224.461 144.531 224.505 144.539 225.147 144.272C226.041 143.897 226.191 143.911 226.189 144.392C226.183 145.619 224.422 147.986 222.578 149.245C222.08 149.583 221.636 149.961 221.589 150.086C221.455 150.436 222.139 150.358 222.978 149.931C224.122 149.347 225.625 147.814 226.241 146.606C226.73 145.642 226.8 145.314 226.858 143.628C226.911 142.075 226.869 141.62 226.605 141.103C226.311 140.522 226.216 140.47 225.478 140.47C225.389 140.47 225.308 140.467 225.233 140.47ZM225.294 141.553C225.678 141.553 225.744 141.639 225.789 142.189C225.828 142.645 225.747 142.922 225.494 143.15C225.15 143.461 225.122 143.458 224.816 142.995C224.389 142.339 224.653 141.553 225.294 141.553ZM216.861 153.408C218.486 152.608 219.444 151.708 220.061 150.406C220.353 149.786 220.591 149.203 220.591 149.103C220.591 148.878 219.791 148.506 219.311 148.506C218.833 148.506 218.736 148.175 218.941 147.261C219.141 146.37 218.9 145.253 218.508 145.253C218.366 145.253 218.116 145.461 217.95 145.714C217.694 146.106 217.68 146.272 217.869 146.842C218.147 147.686 217.928 148.317 217.172 148.856C216.814 149.111 216.616 149.406 216.616 149.692C216.616 149.933 216.647 150.131 216.683 150.131C216.722 150.131 217.116 149.925 217.561 149.678L218.372 149.225L218.85 149.6C219.111 149.806 219.328 150.142 219.328 150.347C219.328 151.336 216.508 152.997 214.572 153.153C213.541 153.236 213.366 153.2 213.008 152.844C212.716 152.553 212.633 152.308 212.705 151.964C212.761 151.7 212.861 151.219 212.928 150.897C213.105 150.036 212.736 150.153 212.097 151.158C211.572 151.989 211.416 152.875 211.711 153.342C211.953 153.722 213.558 154.086 214.694 154.017C215.408 153.975 216.114 153.775 216.861 153.408ZM227.705 147.358C228.728 146.339 229.161 145.097 229.166 143.178L229.169 141.736L230.014 141.336C231.111 140.814 232.15 139.775 232.15 139.197C232.15 138.603 231.886 138.633 231.408 139.281C231.061 139.75 230.597 140.033 228.9 140.814C228.472 141.011 228.444 141.117 228.347 142.911C228.233 144.981 227.953 145.756 226.797 147.17C226.089 148.031 226.064 148.145 226.555 148.145C226.758 148.145 227.275 147.792 227.705 147.358ZM216.572 146.203C216.669 145.906 216.105 145.694 215.861 145.936C215.758 146.039 215.73 146.217 215.8 146.331C215.961 146.589 216.472 146.503 216.572 146.203ZM231.925 142.228C232.025 141.931 231.458 141.719 231.216 141.961C231.111 142.067 231.083 142.244 231.153 142.358C231.314 142.617 231.825 142.531 231.925 142.228ZM213.447 131.467C213.05 131.656 212.844 132.085 212.568 132.412C212.369 132.547 212.528 132.673 212.643 132.801C213.343 133.555 213.64 134.575 213.973 135.525C214.3 136.647 214.712 137.853 214.369 139.022C214.235 139.47 213.883 139.933 213.357 139.784C212.515 139.732 211.687 139.509 210.843 139.518C210.091 139.556 209.51 140.24 208.742 140.166C208.251 140.198 208.272 139.161 207.816 139.438C207.59 139.979 207.701 140.583 207.674 141.155C207.759 141.236 207.998 141.165 208.141 141.189H209.654C209.761 141.711 209.747 142.31 210.122 142.726C210.647 142.912 211.238 142.751 211.737 142.547C212.271 142.298 212.343 141.655 212.494 141.154C212.655 140.615 213.36 140.756 213.776 140.545C214.794 140.248 215.461 139.19 215.402 138.149C215.336 136.559 214.729 135.064 214.269 133.56C214.038 132.897 213.878 132.205 213.609 131.558C213.578 131.503 213.513 131.456 213.447 131.467ZM210.928 140.556C211.493 140.519 211.739 141.214 211.619 141.675C211.408 142.301 210.637 141.9 210.481 141.448C210.195 141.045 210.372 140.503 210.928 140.556Z" fill="#F7E017"/>
            <path d="M189.983 135.339C189.731 135.333 189.447 135.428 189.167 135.625C187.692 136.658 187.314 137.881 188.317 138.358C189.053 138.711 188.867 139.125 187.708 139.706C186.05 140.533 184.586 140.431 181.806 139.281C181.122 138.997 180.944 139.106 181.103 139.731C181.256 140.344 181.817 140.681 183.211 140.997C184.711 141.342 186.525 141.231 187.692 140.728C188.261 140.483 188.936 139.969 189.506 139.35L190.408 138.358L191.458 138.489C192.753 138.647 192.778 138.661 192.778 139.281C192.778 139.772 192.806 139.783 193.994 139.894C194.664 139.958 195.544 140.017 195.956 140.017C196.481 140.019 196.778 140.111 196.953 140.356C197.186 140.681 197.325 140.697 199.281 140.522C201.108 140.356 201.467 140.369 202.292 140.65C202.878 140.85 203.522 140.931 204.011 140.878C205.411 140.719 207.342 139.575 207.622 138.733C207.656 138.631 208.164 138.45 208.75 138.333C210.164 138.05 210.225 137.742 208.906 137.578C208.333 137.506 207.475 137.297 206.997 137.108C206.517 136.919 205.861 136.761 205.539 136.761C204.828 136.761 204.158 137.206 204.158 137.664C204.158 137.964 204.264 137.994 205.106 137.908C205.897 137.828 206.128 137.872 206.544 138.203C206.819 138.419 207.003 138.675 206.944 138.767C206.758 139.069 205.106 139.822 204.375 139.939C203.886 140.017 203.492 139.964 203.108 139.767C202.467 139.433 201.522 139.383 201.344 139.669C201.269 139.794 201.067 139.714 200.789 139.453L200.356 139.044L199.375 139.453C198.378 139.867 198.011 139.85 198.011 139.375C198.011 139.158 197.719 139.133 196.25 139.228C194.631 139.333 194.461 139.306 194.158 138.967C193.878 138.656 193.872 138.547 194.072 138.228C194.256 137.933 194.256 137.806 194.081 137.631C193.906 137.456 193.678 137.458 193.039 137.631C191.428 138.061 190.972 137.819 190.972 136.561C190.972 135.806 190.539 135.347 189.983 135.339ZM189.583 136.494C189.669 136.494 189.742 136.547 189.853 136.658C189.994 136.8 190.069 137.047 190.008 137.206C189.864 137.581 189.181 137.567 189.036 137.189C188.967 137.006 189.056 136.8 189.261 136.65C189.406 136.544 189.497 136.492 189.583 136.494Z" fill="#F7E017"/>
            <path d="M186.695 137.667C187.676 137.045 187.653 137.092 187.795 135.364C187.892 134.145 187.876 134.053 187.545 134.053C187.064 134.053 186.814 134.581 186.814 135.586C186.814 136.231 186.714 136.52 186.37 136.861C185.553 137.678 183.526 137.306 183.27 136.292C183.184 135.945 183.295 135.631 183.72 135.028C184.606 133.77 184.406 133.461 183.32 134.417C182.573 135.07 182.439 135.089 182.581 134.525C182.712 134.006 182.439 133.8 181.831 133.953C181.52 134.031 181.351 134.225 181.276 134.603C181.203 134.972 181.034 135.178 180.739 135.25C180.248 135.375 179.409 134.908 179.409 134.511C179.409 134.217 180.664 132.683 182.276 131.011C182.884 130.378 183.381 129.789 183.381 129.7C183.381 129.611 183.056 129.539 182.659 129.539C182.078 129.539 181.937 129.603 181.937 129.872C181.937 130.056 181.126 131.12 180.131 132.239C178.059 134.572 177.887 135.058 178.912 135.681C179.737 136.186 180.795 136.147 181.626 135.583L182.298 135.125V135.956C182.298 137.017 182.509 137.397 183.342 137.839C184.389 138.392 185.656 138.325 186.695 137.667ZM230.184 123.247C229.415 123.706 230.017 124.671 230.133 125.311C229.819 126.185 228.697 126.42 227.878 126.582C226.719 126.775 225.898 127.744 225.456 128.775C225.218 129.444 224.641 130.481 224.012 129.463C223.466 128.909 222.461 128.47 221.815 129.116C221.325 129.584 221.2 130.271 221.017 130.895C220.728 130.415 220.598 129.701 219.984 129.55C219.004 129.688 219.358 130.923 219.819 131.433C220.238 132.026 220.64 132.81 220.229 133.515C219.868 134.363 218.616 134.935 217.88 134.21C217.194 133.847 217.653 132.552 216.976 132.481C216.642 132.723 216.614 134.077 216.079 133.343C215.693 132.716 215.898 131.856 215.425 131.292C214.867 131.361 214.418 132.323 214.603 132.839C215.348 133.844 215.655 135.105 215.945 136.302C216.126 136.782 215.919 137.754 216.368 137.944C216.679 137.172 216.39 136.297 216.634 135.518C217.362 135.426 218.171 135.758 218.933 135.581C220.024 135.44 220.868 134.519 221.251 133.538C221.366 132.801 221.229 132.053 221.208 131.311C222.07 131.445 222.966 131.442 223.795 131.723C224.206 132.353 223.665 133.236 223.551 133.925C223.118 135.328 222.019 136.347 220.949 137.285C220.502 137.55 220.442 138.251 221.103 137.874C222.54 137.259 223.611 135.958 224.227 134.549C224.677 133.465 224.315 132.258 224.609 131.15C225.043 130.317 226.087 130.493 226.86 130.495C227.66 130.465 228.342 129.533 228.075 128.756C227.821 127.854 228.775 127.42 229.427 127.097C230.291 126.661 230.954 125.775 230.887 124.775C230.851 124.264 230.877 123.294 230.184 123.248V123.247ZM227.12 128.456C228.046 128.702 226.952 130.47 226.46 129.35C226.309 128.922 226.668 128.44 227.12 128.456ZM222.823 129.722C224.028 129.652 223.595 131.411 222.577 130.613C222.049 130.347 222.223 129.69 222.823 129.722ZM179.195 136.522C179.228 136.347 179.139 136.222 178.981 136.222C178.645 136.222 178.442 136.517 178.601 136.772C178.764 137.036 179.126 136.886 179.195 136.522ZM193.317 134.945C193.317 134.686 193.22 134.589 193.003 134.631C192.531 134.72 192.478 135.32 192.942 135.32C193.201 135.32 193.317 135.203 193.317 134.945ZM175.842 126.467C175.279 126.351 174.924 126.828 174.731 127.283C174.31 127.991 173.795 128.716 173.039 129.091C172.495 129.242 171.901 129.035 171.433 128.755C170.873 128.476 171 127.803 170.76 127.338C170.356 127.02 169.638 127.475 169.654 127.969C169.609 128.631 170.229 129.014 170.744 129.271C171.181 129.539 171.815 129.688 171.99 130.23C171.978 130.691 172.163 131.218 172.724 131.04C173.352 131.03 173.515 131.794 173.261 132.253C173.003 132.77 172.829 133.376 172.953 133.952C173.253 134.205 173.559 133.527 173.776 133.333L174.219 132.743C175.33 132.803 176.439 132.945 177.553 132.905C178.344 132.891 179.019 132.402 179.522 131.829C180.234 131.084 180.819 130.21 181.633 129.567C182.211 129.426 181.9 128.336 181.296 128.65C180.751 128.855 180.579 129.47 180.202 129.863C179.559 130.641 178.903 131.431 178.093 132.041C177.503 132.286 176.823 132.179 176.217 132.041C175.964 131.82 176.719 131.64 176.824 131.394C177.172 131.047 177.585 130.717 177.787 130.26C177.594 129.84 177.004 129.805 176.589 129.797C175.565 129.92 174.783 130.779 173.749 130.86C172.964 130.888 173.373 130.038 173.726 129.748C174.419 128.926 175.167 128.152 175.889 127.357C176.094 127.11 176.836 126.876 176.361 126.529C176.196 126.469 176.016 126.469 175.842 126.467ZM176.346 130.625C176.862 130.915 176.016 131.391 175.66 131.326C175.193 131.466 175.184 130.989 175.599 130.894C175.833 130.773 176.079 130.646 176.346 130.625H176.346ZM174.757 131.71C175.051 131.704 175.667 131.986 175.089 132.167C174.686 132.479 174.231 131.85 174.757 131.71H174.757Z" fill="#F7E017"/>
            <path d="M187.264 132.428C187.264 132.036 186.561 132.092 186.483 132.489C186.433 132.744 186.514 132.806 186.842 132.758C187.075 132.725 187.264 132.578 187.264 132.428ZM218.389 129.672C218.461 129.297 217.939 129.047 217.664 129.322C217.389 129.597 217.642 130.119 218.014 130.047C218.186 130.014 218.356 129.844 218.389 129.672ZM169.95 125.858C170.439 125.439 170.445 125.411 170.233 124.489C169.933 123.197 169.953 123.058 170.445 122.936C171.067 122.778 172.647 123.625 172.997 124.303C173.27 124.828 173.261 124.864 172.8 125.292C172.303 125.75 172.306 126.286 172.803 126.286C173.214 126.286 174.35 125.211 174.35 124.825C174.35 124.289 173.089 123.022 172.092 122.558C171.475 122.269 170.858 122.136 170.145 122.133C168.867 122.133 168.695 122.408 169.039 123.894C169.445 125.636 168.895 125.872 167.492 124.558C166.45 123.583 166.039 122.569 166.045 120.972C166.047 119.258 166.703 118.411 168.181 118.211C169.161 118.081 169.136 117.85 168.128 117.7C166.656 117.478 165.411 118.461 164.939 120.217C164.414 122.164 165.617 124.536 167.745 125.758C168.858 126.397 169.303 126.417 169.95 125.858ZM227.961 123.722C228.081 123.603 228.178 123.333 228.178 123.125C228.178 122.917 228.381 122.469 228.628 122.133C228.878 121.797 229.081 121.453 229.081 121.369C229.081 121.028 228.517 121.039 228.072 121.392C227.617 121.747 227.275 121.756 227.275 121.408C227.275 121.322 227.492 121.144 227.758 121.014C228.42 120.692 228.475 120.372 227.917 120.117C227.2 119.792 226.481 120.386 226.406 121.367C226.358 122.022 226.411 122.136 226.917 122.433C227.378 122.706 227.464 122.85 227.386 123.239C227.253 123.914 227.533 124.15 227.961 123.722ZM233.414 123.106C233.814 122.747 234.139 122.339 234.139 122.203C234.139 122.067 234.483 121.706 234.906 121.403C236.103 120.542 236.367 119.672 235.831 118.336C235.622 117.811 234.967 117.086 233.542 115.803C232.447 114.814 231.439 114.006 231.308 114.006C230.92 114.006 230.989 115.436 231.383 115.561C232.095 115.789 232.525 116.081 233.645 117.089C234.945 118.264 235.545 119.361 235.217 119.972C234.903 120.564 234.486 120.381 233.339 119.15C232.736 118.503 232.139 117.975 232.017 117.975C231.883 117.978 231.789 118.211 231.789 118.539C231.789 118.95 232.008 119.342 232.603 120.003C233.572 121.081 233.667 121.728 232.939 122.3C232.678 122.506 232.408 122.675 232.342 122.675C232.278 122.675 232.064 122.353 231.87 121.961C231.464 121.139 228.983 118.519 228.611 118.519C228.442 118.519 228.358 118.731 228.358 119.147C228.358 119.65 228.458 119.828 228.858 120.033C229.35 120.289 230.567 121.514 231.789 122.992C232.139 123.414 232.483 123.756 232.558 123.758C232.631 123.758 233.017 123.464 233.414 123.106ZM235.847 116.142C235.686 115.622 232.358 112.197 232.017 112.197C231.839 112.197 231.783 112.408 231.825 112.953C231.872 113.614 231.945 113.728 232.4 113.847C232.683 113.922 233.561 114.611 234.347 115.375C235.131 116.139 235.82 116.719 235.875 116.661C235.931 116.606 235.92 116.372 235.847 116.142ZM215.972 154.692C215.972 154.812 215.92 154.927 215.827 155.012C215.735 155.097 215.609 155.145 215.478 155.145C215.347 155.145 215.221 155.097 215.128 155.012C215.035 154.927 214.983 154.812 214.983 154.692C214.983 154.571 215.035 154.456 215.128 154.371C215.221 154.286 215.347 154.238 215.478 154.238C215.609 154.238 215.735 154.286 215.827 154.371C215.92 154.456 215.972 154.571 215.972 154.692ZM217.72 154.108C217.72 154.229 217.667 154.344 217.575 154.429C217.482 154.514 217.356 154.562 217.225 154.562C217.094 154.562 216.968 154.514 216.875 154.429C216.783 154.344 216.73 154.229 216.73 154.108C216.73 153.988 216.783 153.873 216.875 153.788C216.968 153.703 217.094 153.655 217.225 153.655C217.356 153.655 217.482 153.703 217.575 153.788C217.667 153.873 217.72 153.988 217.72 154.108Z" fill="#F7E017"/>
        </g>
    </g>
    <defs>
        <clipPath id="clip0_55_34">
            <rect width="400" height="200" fill="white"/>
        </clipPath>
    </defs>
</svg>
