<svg width="400" height="200" viewBox="0 0 400 200" fill="none" xmlns="http://www.w3.org/2000/svg">
<g clip-path="url(#clip0_39_13226)">
<path d="M192 97.3429C192.39 96.6722 192.988 96.1467 193.703 95.8459C194.418 95.5452 195.212 95.4856 195.964 95.676C196.716 95.8665 197.386 96.2967 197.872 96.9015C198.358 97.5064 198.633 98.2531 198.657 99.0286V113.314H201.343V99.0286C201.367 98.2531 201.642 97.5064 202.128 96.9015C202.614 96.2967 203.284 95.8665 204.036 95.676C204.788 95.4856 205.582 95.5452 206.297 95.8459C207.012 96.1467 207.61 96.6722 208 97.3429C208.42 96.0763 208.533 94.728 208.331 93.409C208.128 92.09 207.615 90.838 206.834 89.7561C206.053 88.6741 205.026 87.793 203.838 87.1853C202.65 86.5777 201.334 86.2608 200 86.2608C198.665 86.2608 197.35 86.5777 196.162 87.1853C194.974 87.793 193.947 88.6741 193.166 89.7561C192.385 90.838 191.872 92.09 191.669 93.409C191.466 94.728 191.58 96.0763 192 97.3429Z" fill="#F8C300"/>
<path d="M193.914 93.6143C195.086 93.3746 196.304 93.5091 197.396 93.9986C198.488 94.4882 199.399 95.3081 200 96.3428C200.601 95.3081 201.511 94.4882 202.603 93.9986C203.695 93.5091 204.913 93.3746 206.085 93.6143C205.883 92.1437 205.156 90.796 204.037 89.8204C202.918 88.8448 201.484 88.3073 200 88.3073C198.515 88.3073 197.081 88.8448 195.962 89.8204C194.844 90.796 194.116 92.1437 193.914 93.6143Z" fill="white"/>
<path d="M198.657 107.608C198.475 109.635 197.727 111.57 196.498 113.192C195.269 114.814 193.609 116.058 191.708 116.783C189.806 117.507 187.739 117.682 185.742 117.288C183.745 116.894 181.9 115.947 180.415 114.555C179.781 116.147 178.793 117.574 177.525 118.727C176.257 119.88 174.743 120.73 173.099 121.211C171.454 121.692 169.721 121.792 168.031 121.503C166.342 121.215 164.741 120.545 163.349 119.546C164.391 129.953 179.992 127.828 181.154 117.709C186.055 126.313 196.832 123.849 199.986 113.309L198.657 107.608Z" fill="#F8C300"/>
<path d="M201.342 107.608C201.524 109.635 202.272 111.57 203.501 113.192C204.73 114.814 206.39 116.058 208.291 116.783C210.193 117.507 212.26 117.682 214.257 117.288C216.254 116.894 218.099 115.947 219.584 114.555C220.218 116.147 221.206 117.574 222.474 118.727C223.742 119.88 225.256 120.73 226.9 121.211C228.545 121.692 230.278 121.792 231.968 121.503C233.657 121.215 235.258 120.545 236.65 119.546C235.608 129.953 220.007 127.828 218.845 117.709C213.944 126.313 203.167 123.849 200.013 113.309L201.342 107.608Z" fill="#F8C300"/>
<path d="M188.24 126.089C186.063 130.787 181.713 131.595 177.907 127.801C177.907 127.801 179.437 126.721 181.075 126.423C180.768 125.116 181.398 123.308 182.285 122.33C183.216 122.966 184.514 124.241 184.845 125.723C187.139 125.425 188.24 126.089 188.24 126.089V126.089Z" fill="#F8C300"/>
<path d="M205.267 125.557C202.355 129.838 197.931 129.926 194.794 125.564C194.794 125.564 196.479 124.747 198.143 124.72C198.053 123.38 198.969 121.699 200.004 120.879C200.818 121.658 201.892 123.127 201.977 124.643C204.289 124.723 205.267 125.557 205.267 125.557L205.267 125.557Z" fill="#F8C300"/>
<path d="M222.155 127.804C218.585 131.554 214.205 130.921 211.82 126.106C211.82 126.106 213.616 125.574 215.263 125.818C215.392 124.482 216.569 122.972 217.723 122.331C218.401 123.233 219.221 124.858 219.058 126.367C221.326 126.822 222.155 127.804 222.155 127.804L222.155 127.804Z" fill="#F8C300"/>
<path d="M172.285 136.571C190.369 131.188 209.63 131.188 227.714 136.571" stroke="#F8C300" stroke-width="13.7143"/>
<path d="M200 61.2332L204.313 74.5081L193.021 66.3038H206.979L195.686 74.5081L200 61.2332Z" fill="#F8C300"/>
<path d="M180 66.5921L184.313 79.867L173.021 71.6626H186.979L175.686 79.867L180 66.5921Z" fill="#F8C300"/>
<path d="M165.358 81.2332L169.671 94.5081L158.379 86.3038H172.337L161.045 94.5081L165.358 81.2332Z" fill="#F8C300"/>
<path d="M160 101.233L164.313 114.508L153.021 106.304H166.979L155.686 114.508L160 101.233Z" fill="#F8C300"/>
<path d="M219.999 66.5921L215.686 79.867L226.979 71.6626H213.02L224.313 79.867L219.999 66.5921Z" fill="#F8C300"/>
<path d="M234.641 81.2332L230.328 94.5081L241.62 86.3038H227.662L238.954 94.5081L234.641 81.2332Z" fill="#F8C300"/>
<path d="M239.999 101.233L235.686 114.508L246.979 106.304H233.02L244.313 114.508L239.999 101.233Z" fill="#F8C300"/>
</g>
<defs>
<clipPath id="clip0_39_13226">
<rect width="400" height="200" fill="white"/>
</clipPath>
</defs>
</svg>
