<svg xmlns="http://www.w3.org/2000/svg" viewBox="0 0 380 200"><g><path d="M12.6666 4.61523L16.2837 15.7476L6.81396 8.86744H18.5192L9.04945 15.7476L12.6666 4.61523Z" fill="white" />
<path d="M12.6666 26.1533L16.2837 37.2857L6.81396 30.4055H18.5192L9.04945 37.2857L12.6666 26.1533Z" fill="white" />
<path d="M12.6666 47.6924L16.2837 58.8248L6.81396 51.9446H18.5192L9.04945 58.8248L12.6666 47.6924Z" fill="white" />
<path d="M12.6666 69.2305L16.2837 80.3629L6.81396 73.4827H18.5192L9.04945 80.3629L12.6666 69.2305Z" fill="white" />
<path d="M12.6666 90.7695L16.2837 101.902L6.81396 95.0217H18.5192L9.04945 101.902L12.6666 90.7695Z" fill="white" />
<path d="M25.3331 15.3848L28.9502 26.5172L19.4805 19.637H31.1858L21.716 26.5172L25.3331 15.3848Z" fill="white" />
<path d="M25.3331 36.9229L28.9502 48.0553L19.4805 41.1751H31.1858L21.716 48.0553L25.3331 36.9229Z" fill="white" />
<path d="M25.3331 58.4619L28.9502 69.5943L19.4805 62.7141H31.1858L21.716 69.5943L25.3331 58.4619Z" fill="white" />
<path d="M25.3331 80L28.9502 91.1324L19.4805 84.2522H31.1858L21.716 91.1324L25.3331 80Z" fill="white" />
<path d="M38.0001 4.61523L41.6172 15.7476L32.1475 8.86744H43.8527L34.3829 15.7476L38.0001 4.61523Z" fill="white" />
<path d="M38.0001 26.1533L41.6172 37.2857L32.1475 30.4055H43.8527L34.3829 37.2857L38.0001 26.1533Z" fill="white" />
<path d="M38.0001 47.6924L41.6172 58.8248L32.1475 51.9446H43.8527L34.3829 58.8248L38.0001 47.6924Z" fill="white" />
<path d="M38.0001 69.2305L41.6172 80.3629L32.1475 73.4827H43.8527L34.3829 80.3629L38.0001 69.2305Z" fill="white" />
<path d="M38.0001 90.7695L41.6172 101.902L32.1475 95.0217H43.8527L34.3829 101.902L38.0001 90.7695Z" fill="white" />
<path d="M50.6666 15.3848L54.2837 26.5172L44.814 19.637H56.5192L47.0495 26.5172L50.6666 15.3848Z" fill="white" />
<path d="M50.6666 36.9229L54.2837 48.0553L44.814 41.1751H56.5192L47.0495 48.0553L50.6666 36.9229Z" fill="white" />
<path d="M50.6666 58.4619L54.2837 69.5943L44.814 62.7141H56.5192L47.0495 69.5943L50.6666 58.4619Z" fill="white" />
<path d="M50.6666 80L54.2837 91.1324L44.814 84.2522H56.5192L47.0495 91.1324L50.6666 80Z" fill="white" />
<path d="M63.3331 4.61523L66.9502 15.7476L57.4805 8.86744H69.1858L59.716 15.7476L63.3331 4.61523Z" fill="white" />
<path d="M63.3331 26.1533L66.9502 37.2857L57.4805 30.4055H69.1858L59.716 37.2857L63.3331 26.1533Z" fill="white" />
<path d="M63.3331 47.6924L66.9502 58.8248L57.4805 51.9446H69.1858L59.716 58.8248L63.3331 47.6924Z" fill="white" />
<path d="M63.3331 69.2305L66.9502 80.3629L57.4805 73.4827H69.1858L59.716 80.3629L63.3331 69.2305Z" fill="white" />
<path d="M63.3331 90.7695L66.9502 101.902L57.4805 95.0217H69.1858L59.716 101.902L63.3331 90.7695Z" fill="white" />
<path d="M75.9996 15.3848L79.6167 26.5172L70.147 19.637H81.8523L72.3825 26.5172L75.9996 15.3848Z" fill="white" />
<path d="M75.9996 36.9229L79.6167 48.0553L70.147 41.1751H81.8523L72.3825 48.0553L75.9996 36.9229Z" fill="white" />
<path d="M75.9996 58.4619L79.6167 69.5943L70.147 62.7141H81.8523L72.3825 69.5943L75.9996 58.4619Z" fill="white" />
<path d="M75.9996 80L79.6167 91.1324L70.147 84.2522H81.8523L72.3825 91.1324L75.9996 80Z" fill="white" />
<path d="M88.6666 4.61523L92.2837 15.7476L82.814 8.86744H94.5192L85.0495 15.7476L88.6666 4.61523Z" fill="white" />
<path d="M88.6666 26.1533L92.2837 37.2857L82.814 30.4055H94.5192L85.0495 37.2857L88.6666 26.1533Z" fill="white" />
<path d="M88.6666 47.6924L92.2837 58.8248L82.814 51.9446H94.5192L85.0495 58.8248L88.6666 47.6924Z" fill="white" />
<path d="M88.6666 69.2305L92.2837 80.3629L82.814 73.4827H94.5192L85.0495 80.3629L88.6666 69.2305Z" fill="white" />
<path d="M88.6666 90.7695L92.2837 101.902L82.814 95.0217H94.5192L85.0495 101.902L88.6666 90.7695Z" fill="white" />
<path d="M101.333 15.3848L104.95 26.5172L95.4805 19.637H107.186L97.716 26.5172L101.333 15.3848Z" fill="white" />
<path d="M101.333 36.9229L104.95 48.0553L95.4805 41.1751H107.186L97.716 48.0553L101.333 36.9229Z" fill="white" />
<path d="M101.333 58.4619L104.95 69.5943L95.4805 62.7141H107.186L97.716 69.5943L101.333 58.4619Z" fill="white" />
<path d="M101.333 80L104.95 91.1324L95.4805 84.2522H107.186L97.716 91.1324L101.333 80Z" fill="white" />
<path d="M114 4.61523L117.617 15.7476L108.147 8.86744H119.853L110.383 15.7476L114 4.61523Z" fill="white" />
<path d="M114 26.1533L117.617 37.2857L108.147 30.4055H119.853L110.383 37.2857L114 26.1533Z" fill="white" />
<path d="M114 47.6924L117.617 58.8248L108.147 51.9446H119.853L110.383 58.8248L114 47.6924Z" fill="white" />
<path d="M114 69.2305L117.617 80.3629L108.147 73.4827H119.853L110.383 80.3629L114 69.2305Z" fill="white" />
<path d="M114 90.7695L117.617 101.902L108.147 95.0217H119.853L110.383 101.902L114 90.7695Z" fill="white" />
<path d="M126.667 15.3848L130.284 26.5172L120.814 19.637H132.519L123.049 26.5172L126.667 15.3848Z" fill="white" />
<path d="M126.667 36.9229L130.284 48.0553L120.814 41.1751H132.519L123.049 48.0553L126.667 36.9229Z" fill="white" />
<path d="M126.667 58.4619L130.284 69.5943L120.814 62.7141H132.519L123.049 69.5943L126.667 58.4619Z" fill="white" />
<path d="M126.667 80L130.284 91.1324L120.814 84.2522H132.519L123.049 91.1324L126.667 80Z" fill="white" />
<path d="M139.333 4.61523L142.95 15.7476L133.48 8.86744H145.186L135.716 15.7476L139.333 4.61523Z" fill="white" />
<path d="M139.333 26.1533L142.95 37.2857L133.48 30.4055H145.186L135.716 37.2857L139.333 26.1533Z" fill="white" />
<path d="M139.333 47.6924L142.95 58.8248L133.48 51.9446H145.186L135.716 58.8248L139.333 47.6924Z" fill="white" />
<path d="M139.333 69.2305L142.95 80.3629L133.48 73.4827H145.186L135.716 80.3629L139.333 69.2305Z" fill="white" />
<path d="M139.333 90.7695L142.95 101.902L133.48 95.0217H145.186L135.716 101.902L139.333 90.7695Z" fill="white" />
</g></svg>