<svg xmlns="http://www.w3.org/2000/svg" viewBox="0 0 300 200"><g><path d="M191.468 38.7026L199.04 65.6593L212.519 61.8733" fill="white" />
<path d="M191.468 38.7026L213.439 56.0603L204.76 67.0456" fill="white" />
<path d="M224.357 40.0294L201.06 55.5609L208.826 67.2096" fill="white" />
<path d="M224.357 40.0294L214.639 66.2885L201.509 61.4292" fill="white" />
<path d="M233.259 71.7188L211.288 54.3612L202.609 65.3465" fill="white" />
<path d="M233.259 71.7188L205.282 70.5903L205.846 56.6016" fill="white" />
<path d="M205.871 89.9773L215.59 63.7181L202.46 58.8587" fill="white" />
<path d="M205.871 89.9773L198.299 63.0206L211.777 59.2346" fill="white" />
<path d="M180.043 69.5722L208.02 70.7007L208.585 56.7121" fill="white" />
<path d="M180.043 69.5722L203.34 54.0406L211.106 65.6893" fill="white" />
<path d="M77.4681 114.703L85.0402 141.659L98.5185 137.873" fill="white" />
<path d="M77.4681 114.703L99.4388 132.06L90.76 143.046" fill="white" />
<path d="M110.357 116.029L87.0599 131.561L94.8257 143.21" fill="white" />
<path d="M110.357 116.029L100.639 142.289L87.5089 137.429" fill="white" />
<path d="M119.259 147.719L97.2881 130.361L88.6093 141.347" fill="white" />
<path d="M119.259 147.719L91.2816 146.59L91.8459 132.602" fill="white" />
<path d="M91.8711 165.977L101.59 139.718L88.4603 134.859" fill="white" />
<path d="M91.8711 165.977L84.299 139.021L97.7773 135.235" fill="white" />
<path d="M66.043 145.572L94.0202 146.701L94.5845 132.712" fill="white" />
<path d="M66.043 145.572L89.3404 130.041L97.1062 141.689" fill="white" />
</g></svg>