<?xml version='1.0' encoding='us-ascii'?>
<svg xmlns="http://www.w3.org/2000/svg" viewBox="0 0 320 200">
    <path d="M158.736 100.524L170.118 125.321C170.118 125.321 170.314 125.795 170.63 125.665C170.946 125.534 170.75 125.06 170.75 125.06L161.264 99.4775M160.992 109.126C160.853 112.897 163.172 114.971 162.869 118.338C162.566 121.706 164.416 123.61 164.845 124.92C165.274 126.23 164.381 127.013 164.766 127.199C165.151 127.386 165.994 126.351 165.719 124.489C165.444 122.627 164.031 122.074 164.363 117.961C164.695 113.848 162.681 112.89 163.171 109.138" fill="#F6B40E" />
    <path d="M158.736 100.524L170.118 125.321C170.118 125.321 170.314 125.795 170.63 125.665C170.946 125.534 170.75 125.06 170.75 125.06L161.264 99.4775M160.992 109.126C160.853 112.897 163.172 114.971 162.869 118.338C162.566 121.706 164.416 123.61 164.845 124.92C165.274 126.23 164.381 127.013 164.766 127.199C165.151 127.386 165.994 126.351 165.719 124.489C165.444 122.627 164.031 122.074 164.363 117.961C164.695 113.848 162.681 112.89 163.171 109.138" stroke="#85340A" stroke-width="0.34750000000000003" />
    <path d="M158.632 100.001L159.658 127.266C159.658 127.266 159.657 127.779 159.999 127.779C160.341 127.779 160.341 127.266 160.341 127.266L161.367 100.001M157.424 108.81C155.852 112.241 157.202 115.045 155.633 118.04C154.064 121.036 155.044 123.503 154.94 124.877C154.835 126.251 153.71 126.633 153.994 126.953C154.279 127.272 155.453 126.639 155.912 124.814C156.371 122.988 155.277 121.937 157.157 118.264C159.038 114.591 157.544 112.935 159.433 109.656" fill="#F6B40E" />
    <path d="M158.632 100.001L159.658 127.266C159.658 127.266 159.657 127.779 159.999 127.779C160.341 127.779 160.341 127.266 160.341 127.266L161.367 100.001M157.424 108.81C155.852 112.241 157.202 115.045 155.633 118.04C154.064 121.036 155.044 123.503 154.94 124.877C154.835 126.251 153.71 126.633 153.994 126.953C154.279 127.272 155.453 126.639 155.912 124.814C156.371 122.988 155.277 121.937 157.157 118.264C159.038 114.591 157.544 112.935 159.433 109.656" stroke="#85340A" stroke-width="0.34750000000000003" />
    <path d="M158.735 99.477L149.249 125.059C149.249 125.059 149.053 125.533 149.368 125.664C149.684 125.795 149.881 125.321 149.881 125.321L161.263 100.524M154.248 107.154C151.483 109.722 151.657 112.829 149.061 114.996C146.466 117.163 146.427 119.817 145.805 121.047C145.182 122.276 143.997 122.199 144.137 122.603C144.278 123.007 145.605 122.871 146.727 121.36C147.85 119.849 147.241 118.459 150.384 115.785C153.528 113.112 152.781 111.01 155.781 108.704" fill="#F6B40E" />
    <path d="M158.735 99.477L149.249 125.059C149.249 125.059 149.053 125.533 149.368 125.664C149.684 125.795 149.881 125.321 149.881 125.321L161.263 100.524M154.248 107.154C151.483 109.722 151.657 112.829 149.061 114.996C146.466 117.163 146.427 119.817 145.805 121.047C145.182 122.276 143.997 122.199 144.137 122.603C144.278 123.007 145.605 122.871 146.727 121.36C147.85 119.849 147.241 118.459 150.384 115.785C153.528 113.112 152.781 111.01 155.781 108.704" stroke="#85340A" stroke-width="0.34750000000000003" />
    <path d="M159.032 99.0329L140.478 119.037C140.478 119.037 140.115 119.4 140.357 119.642C140.598 119.884 140.961 119.521 140.961 119.521L160.966 100.967M151.948 104.408C148.411 105.723 147.383 108.66 144.155 109.668C140.928 110.677 139.877 113.115 138.831 114.013C137.785 114.91 136.72 114.385 136.695 114.812C136.67 115.239 137.948 115.622 139.564 114.655C141.179 113.689 141.149 112.172 145.076 110.904C149.003 109.637 149.117 107.409 152.771 106.426" fill="#F6B40E" />
    <path d="M159.032 99.0329L140.478 119.037C140.478 119.037 140.115 119.4 140.357 119.642C140.598 119.884 140.961 119.521 140.961 119.521L160.966 100.967M151.948 104.408C148.411 105.723 147.383 108.66 144.155 109.668C140.928 110.677 139.877 113.115 138.831 114.013C137.785 114.91 136.72 114.385 136.695 114.812C136.67 115.239 137.948 115.622 139.564 114.655C141.179 113.689 141.149 112.172 145.076 110.904C149.003 109.637 149.117 107.409 152.771 106.426" stroke="#85340A" stroke-width="0.34750000000000003" />
    <path d="M161.724 109.764C161.905 113.386 163.959 114.989 163.556 118.29C164.441 115.68 162.306 113.657 162.428 109.802M159.368 100.299L167.163 117.33L160.631 99.7749" fill="#85340A" />
    <path d="M157.857 109.681C156.638 113.096 157.922 115.363 156.286 118.258C158.103 116.186 156.905 113.5 158.493 109.985M159.302 100.034L159.986 118.752L160.67 100.034" fill="#85340A" />
    <path d="M154.315 108.123C151.883 110.812 152.201 113.398 149.582 115.447C152.054 114.227 151.975 111.287 154.786 108.648M159.342 99.7646L152.812 117.319L160.606 100.287" fill="#85340A" />
    <path d="M151.64 105.329C148.363 106.883 147.667 109.394 144.464 110.284C147.214 110.103 148.266 107.357 151.874 105.994M159.483 99.5306L146.731 113.249L160.45 100.497" fill="#85340A" />
    <path d="M159.477 98.7363L134.68 110.118C134.68 110.118 134.206 110.314 134.336 110.63C134.467 110.946 134.941 110.75 134.941 110.75L160.523 101.264M150.875 100.992C147.104 100.853 145.03 103.172 141.663 102.869C138.295 102.566 136.391 104.416 135.081 104.845C133.771 105.274 132.988 104.381 132.802 104.766C132.615 105.151 133.65 105.994 135.512 105.719C137.374 105.444 137.927 104.031 142.04 104.363C146.153 104.695 147.111 102.681 150.863 103.171" fill="#F6B40E" />
    <path d="M159.477 98.7363L134.68 110.118C134.68 110.118 134.206 110.314 134.336 110.63C134.467 110.946 134.941 110.75 134.941 110.75L160.523 101.264M150.875 100.992C147.104 100.853 145.03 103.172 141.663 102.869C138.295 102.566 136.391 104.416 135.081 104.845C133.771 105.274 132.988 104.381 132.802 104.766C132.615 105.151 133.65 105.994 135.512 105.719C137.374 105.444 137.927 104.031 142.04 104.363C146.153 104.695 147.111 102.681 150.863 103.171" stroke="#85340A" stroke-width="0.34750000000000003" />
    <path d="M160 98.6316L132.735 99.6575C132.735 99.6575 132.222 99.6572 132.221 99.9991C132.221 100.341 132.734 100.341 132.734 100.341L160 101.367M151.19 97.4236C147.759 95.8522 144.955 97.2016 141.96 95.6327C138.964 94.0641 136.498 95.0443 135.123 94.9396C133.749 94.835 133.367 93.7101 133.048 93.9943C132.728 94.2788 133.361 95.4533 135.187 95.912C137.012 96.3706 138.064 95.2766 141.737 97.1573C145.41 99.0381 147.066 97.5437 150.345 99.4326" fill="#F6B40E" />
    <path d="M160 98.6316L132.735 99.6575C132.735 99.6575 132.222 99.6572 132.221 99.9991C132.221 100.341 132.734 100.341 132.734 100.341L160 101.367M151.19 97.4236C147.759 95.8522 144.955 97.2016 141.96 95.6327C138.964 94.0641 136.498 95.0443 135.123 94.9396C133.749 94.835 133.367 93.7101 133.048 93.9943C132.728 94.2788 133.361 95.4533 135.187 95.912C137.012 96.3706 138.064 95.2766 141.737 97.1573C145.41 99.0381 147.066 97.5437 150.345 99.4326" stroke="#85340A" stroke-width="0.34750000000000003" />
    <path d="M160.523 98.7359L134.941 89.2499C134.941 89.2499 134.468 89.0533 134.336 89.369C134.206 89.6849 134.68 89.8812 134.68 89.8812L159.477 101.263M152.847 94.2486C150.278 91.4838 147.172 91.6575 145.005 89.0618C142.837 86.4662 140.183 86.4277 138.954 85.8052C137.724 85.1826 137.802 83.9972 137.398 84.1375C136.994 84.2781 137.129 85.6055 138.64 86.7278C140.151 87.8501 141.541 87.2417 144.215 90.3849C146.889 93.5282 148.991 92.7812 151.297 95.781" fill="#F6B40E" />
    <path d="M160.523 98.7359L134.941 89.2499C134.941 89.2499 134.468 89.0533 134.336 89.369C134.206 89.6849 134.68 89.8812 134.68 89.8812L159.477 101.263M152.847 94.2486C150.278 91.4838 147.172 91.6575 145.005 89.0618C142.837 86.4662 140.183 86.4277 138.954 85.8052C137.724 85.1826 137.802 83.9972 137.398 84.1375C136.994 84.2781 137.129 85.6055 138.64 86.7278C140.151 87.8501 141.541 87.2417 144.215 90.3849C146.889 93.5282 148.991 92.7812 151.297 95.781" stroke="#85340A" stroke-width="0.34750000000000003" />
    <path d="M160.968 99.0324L140.963 80.4787C140.963 80.4787 140.601 80.1158 140.358 80.3572C140.117 80.5989 140.479 80.9617 140.479 80.9617L159.033 100.967M155.593 91.949C154.278 88.4117 151.341 87.3832 150.332 84.156C149.323 80.9285 146.886 79.8772 145.988 78.8315C145.09 77.7859 145.616 76.7205 145.189 76.6955C144.762 76.6707 144.379 77.9489 145.345 79.564C146.312 81.1791 147.829 81.149 149.096 85.0762C150.364 89.0033 152.591 89.1175 153.574 92.7716" fill="#F6B40E" />
    <path d="M160.968 99.0324L140.963 80.4787C140.963 80.4787 140.601 80.1158 140.358 80.3572C140.117 80.5989 140.479 80.9617 140.479 80.9617L159.033 100.967M155.593 91.949C154.278 88.4117 151.341 87.3832 150.332 84.156C149.323 80.9285 146.886 79.8772 145.988 78.8315C145.09 77.7859 145.616 76.7205 145.189 76.6955C144.762 76.6707 144.379 77.9489 145.345 79.564C146.312 81.1791 147.829 81.149 149.096 85.0762C150.364 89.0033 152.591 89.1175 153.574 92.7716" stroke="#85340A" stroke-width="0.34750000000000003" />
    <path d="M150.236 101.724C146.615 101.905 145.011 103.959 141.711 103.556C144.321 104.441 146.344 102.306 150.199 102.428M159.702 99.3682L142.671 107.163L160.226 100.631" fill="#85340A" />
    <path d="M150.32 97.8564C146.905 96.6379 144.637 97.9215 141.742 96.286C143.815 98.1026 146.501 96.9045 150.016 98.492M159.966 99.3019L141.249 99.986L159.967 100.669" fill="#85340A" />
    <path d="M151.877 94.3149C149.188 91.8822 146.602 92.2004 144.553 89.5815C145.773 92.053 148.713 91.9741 151.353 94.7858M160.236 99.3419L142.682 92.811L159.713 100.606" fill="#85340A" />
    <path d="M154.671 91.6391C153.117 88.3625 150.606 87.6669 149.716 84.4634C149.897 87.2135 152.643 88.2657 154.006 91.8736M160.469 99.4822L146.751 86.7307L159.503 100.45" fill="#85340A" />
    <path d="M161.264 99.4757L149.882 74.6789C149.882 74.6789 149.686 74.2049 149.37 74.3353C149.054 74.4661 149.25 74.9401 149.25 74.9401L158.736 100.522M159.008 90.8745C159.147 87.1033 156.828 85.0293 157.131 81.6617C157.434 78.2937 155.584 76.3897 155.155 75.0801C154.726 73.7705 155.619 72.9873 155.234 72.8009C154.849 72.6145 154.006 73.6489 154.281 75.5109C154.556 77.3729 155.969 77.9257 155.637 82.0389C155.305 86.1521 157.319 87.1101 156.829 90.8621" fill="#F6B40E" />
    <path d="M161.264 99.4757L149.882 74.6789C149.882 74.6789 149.686 74.2049 149.37 74.3353C149.054 74.4661 149.25 74.9401 149.25 74.9401L158.736 100.522M159.008 90.8745C159.147 87.1033 156.828 85.0293 157.131 81.6617C157.434 78.2937 155.584 76.3897 155.155 75.0801C154.726 73.7705 155.619 72.9873 155.234 72.8009C154.849 72.6145 154.006 73.6489 154.281 75.5109C154.556 77.3729 155.969 77.9257 155.637 82.0389C155.305 86.1521 157.319 87.1101 156.829 90.8621" stroke="#85340A" stroke-width="0.34750000000000003" />
    <path d="M161.368 99.9992L160.342 72.7344C160.342 72.7344 160.343 72.2215 160.001 72.221C159.659 72.2209 159.659 72.734 159.659 72.734L158.633 99.9992M162.576 91.1897C164.148 87.7587 162.798 84.9549 164.367 81.9596C165.936 78.9639 164.956 76.497 165.06 75.1229C165.165 73.7487 166.29 73.3669 166.006 73.0475C165.721 72.7278 164.547 73.361 164.088 75.1864C163.629 77.0118 164.723 78.0633 162.843 81.7364C160.962 85.4094 162.456 87.0654 160.567 90.3441" fill="#F6B40E" />
    <path d="M161.368 99.9992L160.342 72.7344C160.342 72.7344 160.343 72.2215 160.001 72.221C159.659 72.2209 159.659 72.734 159.659 72.734L158.633 99.9992M162.576 91.1897C164.148 87.7587 162.798 84.9549 164.367 81.9596C165.936 78.9639 164.956 76.497 165.06 75.1229C165.165 73.7487 166.29 73.3669 166.006 73.0475C165.721 72.7278 164.547 73.361 164.088 75.1864C163.629 77.0118 164.723 78.0633 162.843 81.7364C160.962 85.4094 162.456 87.0654 160.567 90.3441" stroke="#85340A" stroke-width="0.34750000000000003" />
    <path d="M161.265 100.523L170.751 74.941C170.751 74.941 170.947 74.4672 170.632 74.336C170.316 74.205 170.119 74.6791 170.119 74.6791L158.737 99.4762M165.752 92.8464C168.517 90.2779 168.343 87.1711 170.939 85.0043C173.534 82.8368 173.573 80.1826 174.195 78.9531C174.818 77.7236 176.003 77.8014 175.863 77.3975C175.722 76.9933 174.395 77.1288 173.273 78.6397C172.15 80.1507 172.759 81.5408 169.616 84.2145C166.472 86.8883 167.219 88.9901 164.219 91.2964" fill="#F6B40E" />
    <path d="M161.265 100.523L170.751 74.941C170.751 74.941 170.947 74.4672 170.632 74.336C170.316 74.205 170.119 74.6791 170.119 74.6791L158.737 99.4762M165.752 92.8464C168.517 90.2779 168.343 87.1711 170.939 85.0043C173.534 82.8368 173.573 80.1826 174.195 78.9531C174.818 77.7236 176.003 77.8014 175.863 77.3975C175.722 76.9933 174.395 77.1288 173.273 78.6397C172.15 80.1507 172.759 81.5408 169.616 84.2145C166.472 86.8883 167.219 88.9901 164.219 91.2964" stroke="#85340A" stroke-width="0.34750000000000003" />
    <path d="M160.968 100.967L179.522 80.9625C179.522 80.9625 179.885 80.6001 179.643 80.358C179.402 80.1161 179.039 80.479 179.039 80.479L159.034 99.0328M168.052 95.592C171.589 94.2771 172.617 91.3404 175.845 90.3317C179.072 89.3226 180.123 86.8852 181.169 85.9875C182.215 85.0898 183.28 85.6153 183.305 85.1885C183.33 84.7612 182.052 84.3784 180.436 85.3449C178.821 86.3113 178.851 87.8285 174.924 89.0958C170.997 90.3631 170.883 92.5908 167.229 93.5736" fill="#F6B40E" />
    <path d="M160.968 100.967L179.522 80.9625C179.522 80.9625 179.885 80.6001 179.643 80.358C179.402 80.1161 179.039 80.479 179.039 80.479L159.034 99.0328M168.052 95.592C171.589 94.2771 172.617 91.3404 175.845 90.3317C179.072 89.3226 180.123 86.8852 181.169 85.9875C182.215 85.0898 183.28 85.6153 183.305 85.1885C183.33 84.7612 182.052 84.3784 180.436 85.3449C178.821 86.3113 178.851 87.8285 174.924 89.0958C170.997 90.3631 170.883 92.5908 167.229 93.5736" stroke="#85340A" stroke-width="0.34750000000000003" />
    <path d="M158.276 90.2359C158.095 86.6143 156.041 85.0107 156.444 81.7103C155.559 84.3203 157.694 86.3435 157.572 90.1983M160.632 99.7011L152.837 82.6703L159.369 100.225" fill="#85340A" />
    <path d="M162.143 90.3193C163.362 86.904 162.078 84.6366 163.714 81.7417C161.897 83.8143 163.095 86.5005 161.507 90.0153M160.698 99.9656L160.014 81.2482L159.33 99.9663" fill="#85340A" />
    <path d="M165.685 91.8766C168.117 89.1876 167.799 86.6016 170.418 84.5529C167.946 85.7726 168.025 88.7127 165.214 91.3525M160.658 100.235L167.188 82.6811L159.394 99.7127" fill="#85340A" />
    <path d="M168.36 94.6706C171.637 93.1172 172.333 90.6063 175.536 89.7158C172.786 89.8968 171.734 92.6433 168.126 94.0061M160.517 100.469L173.269 86.7505L159.55 99.5029" fill="#85340A" />
    <path d="M160.523 101.264L185.32 89.8821C185.32 89.8821 185.794 89.6861 185.664 89.3701C185.533 89.0541 185.059 89.2505 185.059 89.2505L159.477 98.7365M169.125 99.0085C172.896 99.1473 174.97 96.8277 178.337 97.1309C181.705 97.4337 183.609 95.5841 184.919 95.1549C186.229 94.7257 187.012 95.6189 187.198 95.2341C187.385 94.8489 186.35 94.0061 184.488 94.2809C182.626 94.5557 182.073 95.9689 177.96 95.6369C173.847 95.3049 172.889 97.3193 169.137 96.8289" fill="#F6B40E" />
    <path d="M160.523 101.264L185.32 89.8821C185.32 89.8821 185.794 89.6861 185.664 89.3701C185.533 89.0541 185.059 89.2505 185.059 89.2505L159.477 98.7365M169.125 99.0085C172.896 99.1473 174.97 96.8277 178.337 97.1309C181.705 97.4337 183.609 95.5841 184.919 95.1549C186.229 94.7257 187.012 95.6189 187.198 95.2341C187.385 94.8489 186.35 94.0061 184.488 94.2809C182.626 94.5557 182.073 95.9689 177.96 95.6369C173.847 95.3049 172.889 97.3193 169.137 96.8289" stroke="#85340A" stroke-width="0.34750000000000003" />
    <path d="M160 101.368L187.265 100.342C187.265 100.342 187.778 100.343 187.779 100.001C187.779 99.6589 187.266 99.659 187.266 99.659L160 98.6329M168.81 102.576C172.241 104.148 175.045 102.798 178.04 104.367C181.036 105.936 183.502 104.956 184.877 105.06C186.251 105.165 186.633 106.29 186.952 106.006C187.272 105.721 186.639 104.547 184.813 104.088C182.988 103.629 181.936 104.723 178.263 102.843C174.59 100.962 172.934 102.456 169.655 100.567" fill="#F6B40E" />
    <path d="M160 101.368L187.265 100.342C187.265 100.342 187.778 100.343 187.779 100.001C187.779 99.6589 187.266 99.659 187.266 99.659L160 98.6329M168.81 102.576C172.241 104.148 175.045 102.798 178.04 104.367C181.036 105.936 183.502 104.956 184.877 105.06C186.251 105.165 186.633 106.29 186.952 106.006C187.272 105.721 186.639 104.547 184.813 104.088C182.988 103.629 181.936 104.723 178.263 102.843C174.59 100.962 172.934 102.456 169.655 100.567" stroke="#85340A" stroke-width="0.34750000000000003" />
    <path d="M159.477 101.264L185.059 110.75C185.059 110.75 185.532 110.947 185.664 110.631C185.794 110.315 185.32 110.119 185.32 110.119L160.523 98.7369M167.153 105.751C169.722 108.516 172.828 108.343 174.995 110.938C177.163 113.534 179.817 113.572 181.046 114.195C182.276 114.817 182.198 116.003 182.602 115.862C183.006 115.722 182.871 114.395 181.36 113.272C179.849 112.15 178.459 112.758 175.785 109.615C173.111 106.472 171.009 107.219 168.703 104.219" fill="#F6B40E" />
    <path d="M159.477 101.264L185.059 110.75C185.059 110.75 185.532 110.947 185.664 110.631C185.794 110.315 185.32 110.119 185.32 110.119L160.523 98.7369M167.153 105.751C169.722 108.516 172.828 108.343 174.995 110.938C177.163 113.534 179.817 113.572 181.046 114.195C182.276 114.817 182.198 116.003 182.602 115.862C183.006 115.722 182.871 114.395 181.36 113.272C179.849 112.15 178.459 112.758 175.785 109.615C173.111 106.472 171.009 107.219 168.703 104.219" stroke="#85340A" stroke-width="0.34750000000000003" />
    <path d="M159.032 100.968L179.037 119.521C179.037 119.521 179.399 119.884 179.642 119.643C179.883 119.401 179.521 119.038 179.521 119.038L160.967 99.0334M164.407 108.051C165.722 111.588 168.659 112.617 169.668 115.844C170.677 119.072 173.114 120.123 174.012 121.168C174.91 122.214 174.384 123.28 174.811 123.304C175.238 123.329 175.621 122.051 174.655 120.436C173.688 118.821 172.171 118.851 170.904 114.924C169.636 110.997 167.409 110.882 166.426 107.228" fill="#F6B40E" />
    <path d="M159.032 100.968L179.037 119.521C179.037 119.521 179.399 119.884 179.642 119.643C179.883 119.401 179.521 119.038 179.521 119.038L160.967 99.0334M164.407 108.051C165.722 111.588 168.659 112.617 169.668 115.844C170.677 119.072 173.114 120.123 174.012 121.168C174.91 122.214 174.384 123.28 174.811 123.304C175.238 123.329 175.621 122.051 174.655 120.436C173.688 118.821 172.171 118.851 170.904 114.924C169.636 110.997 167.409 110.882 166.426 107.228" stroke="#85340A" stroke-width="0.34750000000000003" />
    <path d="M169.764 98.2758C173.385 98.0946 174.989 96.041 178.289 96.4442C175.679 95.559 173.656 97.6938 169.801 97.5722M160.298 100.632L177.329 92.837L159.774 99.3686" fill="#85340A" />
    <path d="M169.68 102.144C173.095 103.362 175.363 102.079 178.258 103.714C176.185 101.897 173.499 103.095 169.984 101.508M160.034 100.698L178.751 100.014L160.033 99.3305" fill="#85340A" />
    <path d="M168.123 105.685C170.812 108.118 173.398 107.8 175.447 110.418C174.227 107.947 171.287 108.026 168.647 105.214M159.764 100.658L177.318 107.189L160.287 99.3944" fill="#85340A" />
    <path d="M165.329 108.361C166.883 111.637 169.394 112.333 170.284 115.537C170.103 112.787 167.357 111.734 165.994 108.126M159.531 100.518L173.249 113.269L160.497 99.5503" fill="#85340A" />
    <path d="M160 111.111C166.136 111.111 171.111 106.136 171.111 99.9999C171.111 93.8633 166.136 88.8887 160 88.8887C153.863 88.8887 148.889 93.8633 148.889 99.9999C148.889 106.136 153.863 111.111 160 111.111Z" fill="#F6B40E" stroke="#85340A" stroke-width="0.46875" />
    <path d="M163.788 97.624C163.03 97.624 162.303 97.9528 161.876 98.6364C162.73 99.4056 164.618 99.4892 165.901 98.5488C165.629 98.26 165.302 98.0291 164.939 97.8701C164.576 97.7112 164.185 97.6275 163.788 97.624ZM163.776 97.7992C164.514 97.7856 165.204 98.1248 165.301 98.4616C164.446 99.4016 163.081 99.32 162.226 98.6364C162.6 98.0384 163.202 97.8096 163.776 97.7988V97.7992Z" fill="#843511" />
    <path d="M163.932 97.0962C162.821 97.0962 162.564 97.353 162.052 97.7802C161.538 98.2074 161.282 98.1218 161.197 98.2074C161.112 98.2934 161.197 98.549 161.367 98.4634C161.538 98.3778 161.881 98.2074 162.393 97.7802C162.906 97.3522 163.418 97.3526 163.931 97.3526C165.47 97.3526 166.324 98.6346 166.495 98.549C166.666 98.4634 165.641 97.0962 163.932 97.0962Z" fill="#85340A" />
    <path d="M167.008 97.608C165.042 95.8988 162.564 95.642 161.196 96.9244C160.861 97.3728 160.647 97.8524 160.559 98.3524C160.387 99.3256 160.691 100.377 161.453 101.455C161.367 101.454 161.196 101.54 161.111 101.626C160.432 100.328 160.192 98.9948 160.415 97.7272C160.474 97.3949 160.564 97.0687 160.683 96.7528C162.563 95.2148 165.127 95.044 167.007 97.608H167.008Z" fill="#85340A" />
    <path d="M163.76 99.2293C164.185 99.2293 164.53 98.8849 164.53 98.4601C164.53 98.0353 164.185 97.6909 163.76 97.6909C163.336 97.6909 162.991 98.0353 162.991 98.4601C162.991 98.8849 163.336 99.2293 163.76 99.2293Z" fill="#85340A" />
    <path d="M165.984 98.976C164.531 100.087 163.078 100.002 162.224 99.4888C161.369 98.976 161.369 98.8052 161.54 98.8052C161.71 98.8052 161.881 98.976 162.565 99.3176C163.249 99.66 164.274 99.66 165.984 98.976H165.984Z" fill="#85340A" />
    <path d="M158.3 101.536C157.935 101.603 157.675 101.927 157.675 102.299C157.675 102.723 158.026 103.061 158.45 103.061C158.573 103.062 158.694 103.032 158.803 102.976C158.912 102.919 159.005 102.837 159.075 102.736C159.371 102.959 159.781 102.982 160 102.986C160.034 102.987 160.077 102.986 160.1 102.986C160.319 102.982 160.729 102.959 161.025 102.736C161.169 102.943 161.399 103.061 161.65 103.061C162.074 103.061 162.425 102.723 162.425 102.299C162.425 101.927 162.165 101.603 161.8 101.536C162.005 101.608 162.138 101.807 162.138 102.024C162.138 102.091 162.125 102.158 162.099 102.22C162.073 102.282 162.035 102.339 161.988 102.386C161.94 102.434 161.884 102.472 161.822 102.497C161.759 102.523 161.693 102.536 161.625 102.536C161.353 102.536 161.129 102.32 161.113 102.049C161.029 102.215 160.699 102.711 160.05 102.736C159.401 102.711 159.071 102.215 158.988 102.049C158.972 102.32 158.748 102.536 158.475 102.536C158.408 102.536 158.341 102.523 158.279 102.497C158.217 102.472 158.161 102.434 158.113 102.386C158.065 102.339 158.028 102.282 158.002 102.22C157.976 102.158 157.963 102.091 157.963 102.024C157.963 101.807 158.095 101.609 158.3 101.536ZM159.136 103.812C158.281 103.812 157.943 104.587 157.174 105.1C157.601 104.929 157.938 104.592 158.536 104.25C159.135 103.908 159.645 104.325 159.986 104.325H159.999C160.34 104.325 160.851 103.908 161.449 104.25C162.047 104.592 162.396 104.929 162.824 105.1C162.054 104.587 161.704 103.812 160.849 103.812C160.678 103.812 160.34 103.904 159.999 104.075H159.986C159.645 103.904 159.307 103.812 159.136 103.812Z" fill="#85340A" />
    <path d="M158.848 104.824C158.51 104.839 158.064 104.907 157.423 105.099C158.962 104.757 159.302 105.274 159.986 105.274H159.998C160.682 105.274 161.022 104.757 162.56 105.099C160.851 104.586 160.511 104.924 159.998 104.924H159.986C159.665 104.924 159.411 104.799 158.848 104.824Z" fill="#85340A" />
    <path d="M157.5 105.088C157.401 105.089 157.292 105.09 157.175 105.1C158.97 105.272 158.107 106.3 159.988 106.3H160C161.88 106.3 161.03 105.272 162.825 105.1C160.945 104.93 161.539 106.038 160 106.038H159.988C158.544 106.038 158.989 105.07 157.5 105.088H157.5ZM161.54 107.864C161.54 107.456 161.378 107.065 161.089 106.776C160.801 106.488 160.41 106.326 160.002 106.326C159.594 106.326 159.202 106.488 158.914 106.776C158.625 107.065 158.463 107.456 158.463 107.864C158.545 107.518 158.742 107.209 159.021 106.989C159.3 106.768 159.646 106.648 160.002 106.648C160.357 106.648 160.703 106.768 160.982 106.989C161.261 107.209 161.458 107.518 161.54 107.864Z" fill="#85340A" />
    <path d="M153.092 97.608C155.058 95.8988 157.536 95.642 158.904 96.9244C159.239 97.3728 159.453 97.8524 159.541 98.3524C159.713 99.3256 159.409 100.377 158.647 101.455C158.733 101.454 158.904 101.54 158.989 101.626C159.668 100.328 159.908 98.9948 159.685 97.7272C159.626 97.3949 159.536 97.0687 159.417 96.7528C157.537 95.2148 154.973 95.044 153.093 97.608H153.092Z" fill="#85340A" />
    <path d="M156.168 97.0962C157.279 97.0962 157.536 97.353 158.048 97.7802C158.562 98.2074 158.818 98.1218 158.903 98.2074C158.988 98.2934 158.903 98.549 158.732 98.4634C158.562 98.3778 158.219 98.2074 157.707 97.7802C157.194 97.3522 156.682 97.3526 156.168 97.3526C154.63 97.3526 153.775 98.6346 153.604 98.549C153.434 98.4634 154.459 97.0962 156.168 97.0962Z" fill="#85340A" />
    <path d="M156.116 97.624C155.357 97.624 154.63 97.9528 154.203 98.6364C155.058 99.4056 156.946 99.4892 158.228 98.5488C157.957 98.26 157.629 98.0291 157.266 97.8701C156.903 97.7112 156.512 97.6275 156.116 97.624ZM156.103 97.7992C156.842 97.7856 157.532 98.1248 157.628 98.4616C156.774 99.4016 155.408 99.32 154.553 98.6364C154.927 98.0384 155.529 97.8096 156.103 97.7988V97.7992Z" fill="#843511" />
    <path d="M156.216 99.2293C156.641 99.2293 156.986 98.8849 156.986 98.4601C156.986 98.0353 156.641 97.6909 156.216 97.6909C155.792 97.6909 155.447 98.0353 155.447 98.4601C155.447 98.8849 155.792 99.2293 156.216 99.2293Z" fill="#85340A" />
    <path d="M154.116 98.976C155.569 100.087 157.022 100.002 157.877 99.4888C158.731 98.976 158.731 98.8052 158.561 98.8052C158.39 98.8052 158.22 98.976 157.535 99.3176C156.851 99.66 155.826 99.66 154.117 98.976H154.116Z" fill="#85340A" />
</svg>