<svg xmlns="http://www.w3.org/2000/svg" viewBox="0 0 300 200">
    <path d="M150 126.667C164.727 126.667 176.666 114.728 176.666 100C176.666 85.2724 164.727 73.3334 150 73.3334C135.272 73.3334 123.333 85.2724 123.333 100C123.333 114.728 135.272 126.667 150 126.667Z" fill="#000088"/>
    <path d="M149.999 123.333C162.886 123.333 173.333 112.887 173.333 100C173.333 87.1133 162.886 76.6666 149.999 76.6666C137.113 76.6666 126.666 87.1133 126.666 100C126.666 112.887 137.113 123.333 149.999 123.333Z" fill="white"/>
    <path d="M150 104.667C152.577 104.667 154.666 102.577 154.666 100C154.666 97.4227 152.577 95.3334 150 95.3334C147.422 95.3334 145.333 97.4227 145.333 100C145.333 102.577 147.422 104.667 150 104.667Z" fill="#000088"/>
    <path d="M172.981 104.202C173.62 104.286 174.206 103.837 174.29 103.198C174.374 102.559 173.924 101.973 173.286 101.889C172.647 101.805 172.061 102.255 171.977 102.893C171.893 103.532 172.342 104.118 172.981 104.202Z" fill="#000088"/>
    <path d="M149.999 123.333L150.799 109.333L149.999 102.667L149.199 109.333L149.999 123.333Z" fill="#000088"/>
    <path d="M171.111 110.007C171.706 110.254 172.388 109.971 172.635 109.376C172.882 108.781 172.599 108.098 172.004 107.851C171.408 107.605 170.726 107.888 170.479 108.483C170.233 109.078 170.515 109.761 171.111 110.007Z" fill="#000088"/>
    <path d="M143.961 122.538L148.357 109.222L149.31 102.576L146.812 108.808L143.961 122.538Z" fill="#000088"/>
    <path d="M167.801 115.13C168.312 115.522 169.045 115.426 169.437 114.915C169.829 114.404 169.733 113.671 169.221 113.279C168.71 112.887 167.978 112.983 167.586 113.494C167.193 114.005 167.29 114.738 167.801 115.13Z" fill="#000088"/>
    <path d="M138.333 120.207L146.026 108.483L148.666 102.309L144.64 107.683L138.333 120.207Z" fill="#000088"/>
    <path d="M163.279 119.222C163.671 119.733 164.404 119.83 164.915 119.437C165.426 119.045 165.522 118.313 165.13 117.802C164.738 117.29 164.006 117.194 163.494 117.586C162.983 117.978 162.887 118.711 163.279 119.222Z" fill="#000088"/>
    <path d="M133.501 116.499L143.966 107.165L148.115 101.886L142.835 106.034L133.501 116.499Z" fill="#000088"/>
    <path d="M157.851 122.004C158.098 122.599 158.78 122.882 159.376 122.635C159.971 122.389 160.254 121.706 160.007 121.111C159.76 120.516 159.078 120.233 158.483 120.479C157.887 120.726 157.605 121.408 157.851 122.004Z" fill="#000088"/>
    <path d="M129.792 111.667L142.317 105.359L147.69 101.333L141.517 103.974L129.792 111.667Z" fill="#000088"/>
    <path d="M151.889 123.286C151.973 123.925 152.559 124.375 153.198 124.291C153.837 124.207 154.286 123.62 154.202 122.982C154.118 122.343 153.532 121.893 152.893 121.977C152.254 122.061 151.805 122.647 151.889 123.286Z" fill="#000088"/>
    <path d="M127.461 106.039L141.191 103.188L147.424 100.69L140.777 101.643L127.461 106.039Z" fill="#000088"/>
    <path d="M145.797 122.982C145.713 123.62 146.163 124.206 146.801 124.29C147.44 124.375 148.026 123.925 148.11 123.286C148.195 122.647 147.745 122.061 147.106 121.977C146.467 121.893 145.881 122.343 145.797 122.982Z" fill="#000088"/>
    <path d="M126.666 100L140.666 100.8L147.333 100L140.666 99.2L126.666 100Z" fill="#000088"/>
    <path d="M139.993 121.111C139.746 121.706 140.029 122.389 140.624 122.635C141.219 122.882 141.902 122.599 142.148 122.004C142.395 121.408 142.112 120.726 141.517 120.479C140.922 120.233 140.239 120.516 139.993 121.111Z" fill="#000088"/>
    <path d="M127.461 93.9608L140.777 98.357L147.424 99.3097L141.191 96.8115L127.461 93.9608Z" fill="#000088"/>
    <path d="M134.87 117.801C134.478 118.313 134.574 119.045 135.086 119.437C135.597 119.829 136.329 119.733 136.721 119.222C137.114 118.711 137.017 117.978 136.506 117.586C135.995 117.194 135.263 117.29 134.87 117.801Z" fill="#000088"/>
    <path d="M129.793 88.3332L141.517 96.0261L147.691 98.6666L142.317 94.6404L129.793 88.3332Z" fill="#000088"/>
    <path d="M130.778 113.279C130.267 113.671 130.17 114.404 130.563 114.915C130.955 115.426 131.687 115.522 132.198 115.13C132.71 114.738 132.806 114.006 132.414 113.494C132.022 112.983 131.289 112.887 130.778 113.279Z" fill="#000088"/>
    <path d="M133.501 83.5009L142.835 93.966L148.115 98.1144L143.967 92.8347L133.501 83.5009Z" fill="#000088"/>
    <path d="M127.996 107.851C127.401 108.098 127.118 108.78 127.365 109.376C127.611 109.971 128.294 110.254 128.889 110.007C129.484 109.761 129.767 109.078 129.52 108.483C129.274 107.888 128.591 107.605 127.996 107.851Z" fill="#000088"/>
    <path d="M138.333 79.7927L144.64 92.317L148.667 97.6905L146.026 91.517L138.333 79.7927Z" fill="#000088"/>
    <path d="M126.714 101.889C126.075 101.973 125.625 102.559 125.709 103.198C125.793 103.837 126.379 104.286 127.018 104.202C127.657 104.118 128.107 103.532 128.023 102.893C127.938 102.254 127.352 101.805 126.714 101.889Z" fill="#000088"/>
    <path d="M143.961 77.4616L146.812 91.1916L149.31 97.4241L148.358 90.7775L143.961 77.4616Z" fill="#000088"/>
    <path d="M127.018 95.7978C126.379 95.7137 125.793 96.1634 125.709 96.8022C125.625 97.441 126.075 98.027 126.713 98.1111C127.352 98.1952 127.938 97.7456 128.022 97.1067C128.106 96.4679 127.657 95.8819 127.018 95.7978Z" fill="#000088"/>
    <path d="M150 76.6667L149.2 90.6667L150 97.3334L150.8 90.6667L150 76.6667Z" fill="#000088"/>
    <path d="M128.888 89.9929C128.293 89.7463 127.611 90.029 127.364 90.6243C127.117 91.2196 127.4 91.9021 127.995 92.1486C128.591 92.3952 129.273 92.1125 129.52 91.5172C129.766 90.9219 129.484 90.2395 128.888 89.9929Z" fill="#000088"/>
    <path d="M156.038 77.4618L151.642 90.7777L150.689 97.4243L153.187 91.1918L156.038 77.4618Z" fill="#000088"/>
    <path d="M132.198 84.87C131.687 84.4778 130.954 84.5742 130.562 85.0854C130.17 85.5966 130.266 86.3289 130.778 86.7212C131.289 87.1134 132.021 87.017 132.413 86.5058C132.806 85.9946 132.709 85.2623 132.198 84.87Z" fill="#000088"/>
    <path d="M161.666 79.7928L153.973 91.5172L151.333 97.6907L155.359 92.3172L161.666 79.7928Z" fill="#000088"/>
    <path d="M136.72 80.7781C136.328 80.2669 135.595 80.1705 135.084 80.5628C134.573 80.955 134.477 81.6874 134.869 82.1986C135.261 82.7097 135.993 82.8062 136.505 82.4139C137.016 82.0217 137.112 81.2893 136.72 80.7781Z" fill="#000088"/>
    <path d="M166.498 83.501L156.033 92.8348L151.885 98.1145L157.164 93.9661L166.498 83.501Z" fill="#000088"/>
    <path d="M142.149 77.9963C141.902 77.401 141.22 77.1183 140.624 77.3649C140.029 77.6114 139.746 78.2939 139.993 78.8892C140.24 79.4845 140.922 79.7672 141.517 79.5206C142.113 79.274 142.395 78.5915 142.149 77.9963Z" fill="#000088"/>
    <path d="M170.208 88.3335L157.683 94.6406L152.31 98.6668L158.483 96.0263L170.208 88.3335Z" fill="#000088"/>
    <path d="M148.111 76.7138C148.027 76.075 147.441 75.6253 146.802 75.7094C146.163 75.7935 145.714 76.3795 145.798 77.0184C145.882 77.6572 146.468 78.1069 147.107 78.0228C147.746 77.9387 148.195 77.3526 148.111 76.7138Z" fill="#000088"/>
    <path d="M172.539 93.9609L158.809 96.8116L152.576 99.3098L159.223 98.3571L172.539 93.9609Z" fill="#000088"/>
    <path d="M154.203 77.0185C154.287 76.3797 153.837 75.7936 153.199 75.7095C152.56 75.6254 151.974 76.0751 151.89 76.7139C151.805 77.3527 152.255 77.9388 152.894 78.0229C153.533 78.107 154.119 77.6573 154.203 77.0185Z" fill="#000088"/>
    <path d="M173.334 100L159.334 99.2L152.667 100L159.334 100.8L173.334 100Z" fill="#000088"/>
    <path d="M160.007 78.8892C160.254 78.2939 159.971 77.6114 159.376 77.3648C158.781 77.1183 158.098 77.401 157.852 77.9962C157.605 78.5915 157.888 79.274 158.483 79.5206C159.078 79.7671 159.761 79.4845 160.007 78.8892Z" fill="#000088"/>
    <path d="M172.539 106.039L159.223 101.643L152.576 100.69L158.809 103.188L172.539 106.039Z" fill="#000088"/>
    <path d="M165.13 82.1985C165.522 81.6873 165.426 80.9549 164.914 80.5627C164.403 80.1704 163.671 80.2669 163.279 80.778C162.886 81.2892 162.983 82.0216 163.494 82.4138C164.005 82.8061 164.737 82.7097 165.13 82.1985Z" fill="#000088"/>
    <path d="M170.207 111.667L158.483 103.974L152.309 101.333L157.683 105.359L170.207 111.667Z" fill="#000088"/>
    <path d="M169.222 86.7209C169.733 86.3286 169.83 85.5963 169.437 85.0851C169.045 84.5739 168.313 84.4775 167.802 84.8697C167.29 85.262 167.194 85.9944 167.586 86.5055C167.978 87.0167 168.711 87.1131 169.222 86.7209Z" fill="#000088"/>
    <path d="M166.499 116.499L157.165 106.034L151.885 101.885L156.033 107.165L166.499 116.499Z" fill="#000088"/>
    <path d="M172.004 92.1485C172.599 91.9019 172.882 91.2194 172.635 90.6241C172.389 90.0289 171.706 89.7462 171.111 89.9927C170.516 90.2393 170.233 90.9218 170.48 91.5171C170.726 92.1124 171.409 92.395 172.004 92.1485Z" fill="#000088"/>
    <path d="M161.667 120.207L155.36 107.683L151.333 102.309L153.974 108.483L161.667 120.207Z" fill="#000088"/>
    <path d="M173.286 98.111C173.925 98.0269 174.375 97.4409 174.291 96.8021C174.207 96.1633 173.621 95.7136 172.982 95.7977C172.343 95.8818 171.893 96.4678 171.977 97.1066C172.062 97.7455 172.648 98.1951 173.286 98.111Z" fill="#000088"/>
    <path d="M156.039 122.538L153.188 108.808L150.69 102.576L151.642 109.222L156.039 122.538Z" fill="#000088"/>
</svg>