<svg width="300" height="200" viewBox="0 0 300 200" fill="none"
    xmlns="http://www.w3.org/2000/svg">
    <path d="M51.4831 157.662L46.6631 160.257H51.4831V157.662ZM74.5231 171.751V174.347L79.3434 171.751H74.5231Z" fill="white"/>
    <path d="M85.6317 176.941C85.3654 178.077 84.4624 178.934 84.2474 180.112C83.8164 178.884 83.4194 177.855 83.7157 176.511C83.928 175.55 84.7364 174.864 84.83 173.877C85.7114 174.669 85.9014 175.793 85.6317 176.941ZM85.855 181.7C85.1077 182.725 84.0684 183.511 82.9207 184.036C83.1467 183.138 82.7227 182.462 82.2524 181.749C81.6854 180.891 81.409 180.048 81.871 179.06C82.0864 179.574 82.3757 180 82.7154 180.44C83.2177 181.125 83.5477 181.734 83.6254 182.613C84.206 182.182 84.4614 181.54 84.772 180.918C85.2454 180.027 86.0094 179.282 86.8867 178.795C86.6534 179.794 86.4737 180.851 85.855 181.7ZM81.6624 184.755C81.8224 185.325 81.96 185.889 81.929 186.484C82.4234 185.952 83.079 185.551 83.6644 185.122C84.4614 184.478 85.3904 184.023 86.042 183.202C85.9447 184.41 85.4277 185.395 84.4464 186.13C83.4087 186.907 82.1574 187.324 81.1354 188.14C81.2884 187.041 80.8847 186.161 80.5404 185.151C80.2537 184.186 80.5314 183.206 81.1857 182.471C81.1757 183.286 81.433 183.986 81.6624 184.755ZM79.3337 188.466C79.1187 189.3 78.5217 189.978 78.1137 190.721C79.2137 190.38 80.1837 189.784 81.1777 189.223C82.3617 188.578 83.6474 188.168 84.719 187.316C84.1857 189.291 82.8637 190.436 80.9297 191.02C79.6074 191.419 78.493 191.22 76.8884 191.868C77.0724 190.782 77.3964 189.61 77.91 188.63C78.3087 187.922 78.7507 187.223 78.9967 186.443C79.3534 187.084 79.5224 187.736 79.3337 188.466ZM75.2877 191.488C74.9139 192.133 74.4023 192.688 73.7894 193.113C75.3504 193.213 76.6067 192.223 78.1284 192.18C79.0684 192.154 79.9607 192.446 80.9194 192.358C79.7817 193.126 78.5907 193.796 77.206 193.975C75.4054 194.208 73.745 193.755 71.7587 193.932C72.687 193.277 73.1514 192.4 73.73 191.458C74.4834 190.28 75.1944 189.441 76.66 189.252C76.0717 189.913 75.7294 190.732 75.2877 191.488V191.488ZM69.7437 194.079C72.4937 194.547 75.129 195.152 77.9377 195.179C74.7937 196.275 71.8317 196.474 68.7137 195.342C67.0287 194.73 65.7367 194.403 64.464 194.494C62.604 194.628 60.344 195.362 57.8427 198L56.8594 197.213C60.4447 194.019 65.1354 193.296 69.7437 194.079Z" fill="#FFC72C"/>
    <path d="M148.94 22.1812C157.807 25.9878 164.019 34.7978 164.019 45.0568C164.019 58.7985 152.876 69.9418 139.134 69.9418C132.983 69.9418 127.353 67.7072 123.009 64.0068C125.77 65.1903 128.724 65.8624 131.725 65.9905C145.454 66.5898 157.073 55.9432 157.672 42.2148C158.02 34.2448 154.576 26.9858 148.94 22.1812Z" fill="white"/>
    <path d="M125.206 40.4731L128.025 31.7954L120.644 37.1587H129.768L122.386 31.7954L125.206 40.4731Z" fill="white"/>
    <path d="M125.206 27.6733L128.025 18.9956L120.644 24.3589H129.768L122.386 18.9956L125.206 27.6733Z" fill="white"/>
    <path d="M137.851 34.2328L140.671 25.5552L133.289 30.9185H142.413L135.032 25.5552L137.851 34.2328Z" fill="white"/>
    <path d="M112.56 46.7138L115.38 38.0361L107.998 43.3995H117.122L109.741 38.0361L112.56 46.7138Z" fill="white"/>
    <path d="M125.206 53.2734L128.025 44.5957L120.644 49.959H129.768L122.386 44.5957L125.206 53.2734Z" fill="white"/>
</svg>