<svg width="300" height="200" viewBox="0 0 300 200" fill="none"
    xmlns="http://www.w3.org/2000/svg">
    <g clip-path="url(#clip0_5_3826)">
        <path d="M35.999 0H89.999V200H35.999V0Z" fill="#D22630" />

        <path d="M36 -13.2065V-11.2465L39.0367 -8.40421L38.0127 -7.45088L40.1843 -5.43821L39.231 -4.57288V-5.82654H37.377V-4.32588L41.5613 -0.406209H43.68L43.9097 -1.78354H42.6913L44.0153 -3.01921L47.3347 -0.000209415L44.0153 3.03646L42.6913 1.80046H43.9097L43.68 0.40579H41.5613L37.3773 4.32546V5.82612H39.2313V4.57279L40.1847 5.43746L38.013 7.45046L39.037 8.42146L36.0003 11.2461V13.2061L41.138 8.42146L40.114 7.45046L42.268 5.43746L40.414 3.70746L41.65 2.57746L44.0157 4.76679L49.2063 -0.000209415L44.0153 -4.76688L41.6497 -2.56021L40.4137 -3.70788L42.2677 -5.43788L40.1137 -7.45088L41.1377 -8.40421L36 -13.2065ZM36 -3.69021V3.68979L37.2007 2.47146V1.04146H38.4717L39.4957 -0.000209415L38.4717 -1.02421H37.2007V-2.47188L36 -3.69021ZM44.757 -1.07721L44.5803 -0.0708767L44.757 0.953124L45.8517 -0.0708767L44.757 -1.07721Z" fill="#383739"/>
        <path d="M35.9997 -12.9946V-11.4413L39.2484 -8.40463L38.2244 -7.45096L40.3957 -5.43829L39.0894 -4.21996V-5.68529H37.518V-4.37863L41.6317 -0.547627H43.5384L43.7327 -1.64229H42.3204L44.015 -3.23129L47.5464 -0.000294616L44.015 3.23071L42.3204 1.65937H43.7327L43.538 0.547038H41.6314L37.517 4.37804V5.68471H39.0887V4.21937L40.395 5.43737L38.2234 7.45004L39.2474 8.42104L35.999 11.4404V12.9937L40.9247 8.42104L39.9007 7.45004L42.0547 5.43737L40.2007 3.70737L41.6487 2.36537L44.0144 4.57204L48.976 -0.000294616L44.0147 -4.57296L41.649 -2.36629L40.201 -3.70796L42.055 -5.43796L39.901 -7.45096L40.925 -8.40429L35.9997 -12.9946ZM35.9997 -3.47863V3.47804L37.059 2.41837V0.882372H38.4184L39.3014 -0.000294616L38.4184 -0.882961H37.059V-2.41929L35.9997 -3.47829V-3.47863ZM44.8627 -0.794961L44.7394 -0.0709619L44.8627 0.653038L45.6394 -0.0709619L44.8627 -0.794961Z" fill="#FFC72C"/>
        <path d="M36 23.1958V25.1558L39.0367 27.9981L38.0127 28.9515L40.1843 30.9641L39.231 31.8295V30.5758H37.377V32.0765L41.5613 35.9961H43.68L43.9097 34.6188H42.6913L44.0153 33.3831L47.3347 36.4021L44.0153 39.4388L42.6913 38.2028H43.9097L43.68 36.8081H41.5613L37.3773 40.7278V42.2285H39.2313V40.9751L40.1847 41.8398L38.013 43.8528L39.037 44.8238L36.0003 47.6485V49.6085L41.138 44.8238L40.114 43.8528L42.268 41.8398L40.414 40.1098L41.65 38.9798L44.0157 41.1691L49.2063 36.4021L44.0153 31.6355L41.6497 33.8421L40.4137 32.6945L42.2677 30.9645L40.1137 28.9515L41.1377 27.9981L36 23.1958ZM36 32.7121V40.0921L37.2007 38.8738V37.4438H38.4717L39.4957 36.4021L38.4717 35.3781H37.2007V33.9305L36 32.7121ZM44.757 35.3251L44.5803 36.3315L44.757 37.3555L45.8517 36.3315L44.757 35.3251Z" fill="#383739"/>
        <path d="M35.9997 23.4077V24.961L39.2484 27.9977L38.2244 28.9514L40.3957 30.964L39.0894 32.1824V30.717H37.518V32.0237L41.6317 35.8547H43.5384L43.7327 34.76H42.3204L44.015 33.171L47.5464 36.402L44.015 39.633L42.3204 38.0617H43.7327L43.538 36.9494H41.6314L37.517 40.7804V42.087H39.0887V40.6217L40.395 41.8397L38.2234 43.8524L39.2474 44.8234L35.999 47.8427V49.396L40.9247 44.8234L39.9007 43.8524L42.0547 41.8397L40.2007 40.1097L41.6487 38.7677L44.0144 40.9744L48.976 36.402L44.0147 31.8294L41.649 34.036L40.201 32.6944L42.055 30.9644L39.901 28.9514L40.925 27.998L35.9997 23.4077ZM35.9997 32.9237V39.8804L37.059 38.8207V37.2847H38.4184L39.3014 36.402L38.4184 35.5194H37.059V33.983L35.9997 32.924V32.9237ZM44.8627 35.6074L44.7394 36.3314L44.8627 37.0554L45.6394 36.3314L44.8627 35.6074Z" fill="#FFC72C"/>
        <path d="M36 60.7954V62.7554L39.0367 65.5977L38.0127 66.5511L40.1843 68.5637L39.231 69.4291V68.1754H37.377V69.6761L41.5613 73.5957H43.68L43.9097 72.2184H42.6913L44.0153 70.9827L47.3347 74.0017L44.0153 77.0384L42.6913 75.8024H43.9097L43.68 74.4077H41.5613L37.3773 78.3274V79.8281H39.2313V78.5747L40.1847 79.4394L38.013 81.4524L39.037 82.4234L36.0003 85.2481V87.2081L41.138 82.4234L40.114 81.4524L42.268 79.4394L40.414 77.7094L41.65 76.5794L44.0157 78.7687L49.2063 74.0017L44.0153 69.2351L41.6497 71.4417L40.4137 70.2941L42.2677 68.5641L40.1137 66.5511L41.1377 65.5977L36 60.7954ZM36 70.3117V77.6917L37.2007 76.4734V75.0434H38.4717L39.4957 74.0017L38.4717 72.9777H37.2007V71.5301L36 70.3117ZM44.757 72.9247L44.5803 73.9311L44.757 74.9551L45.8517 73.9311L44.757 72.9247Z" fill="#383739"/>
        <path d="M35.9997 61.0073V62.5607L39.2484 65.5973L38.2244 66.551L40.3957 68.5637L39.0894 69.782V68.3167H37.518V69.6233L41.6317 73.4543H43.5384L43.7327 72.3597H42.3204L44.015 70.7707L47.5464 74.0017L44.015 77.2327L42.3204 75.6613H43.7327L43.538 74.549H41.6314L37.517 78.38V79.6867H39.0887V78.2213L40.395 79.4393L38.2234 81.452L39.2474 82.423L35.999 85.4423V86.9957L40.9247 82.423L39.9007 81.452L42.0547 79.4393L40.2007 77.7093L41.6487 76.3673L44.0144 78.574L48.976 74.0017L44.0147 69.429L41.649 71.6357L40.201 70.294L42.055 68.564L39.901 66.551L40.925 65.5977L35.9997 61.0073ZM35.9997 70.5233V77.48L37.059 76.4203V74.8843H38.4184L39.3014 74.0017L38.4184 73.119H37.059V71.5827L35.9997 70.5237V70.5233ZM44.8627 73.207L44.7394 73.931L44.8627 74.655L45.6394 73.931L44.8627 73.207Z" fill="#FFC72C"/>
        <path d="M36 98.3945V100.355L39.0367 103.197L38.0127 104.15L40.1843 106.163L39.231 107.028V105.775H37.377V107.275L41.5613 111.195H43.68L43.9097 109.818H42.6913L44.0153 108.582L47.3347 111.601L44.0153 114.638L42.6913 113.402H43.9097L43.68 112.007H41.5613L37.3773 115.927V117.427H39.2313V116.174L40.1847 117.039L38.013 119.052L39.037 120.023L36.0003 122.847V124.807L41.138 120.023L40.114 119.052L42.268 117.039L40.414 115.309L41.65 114.179L44.0157 116.368L49.2063 111.601L44.0153 106.834L41.6497 109.041L40.4137 107.893L42.2677 106.163L40.1137 104.15L41.1377 103.197L36 98.3945ZM36 107.911V115.291L37.2007 114.073V112.643H38.4717L39.4957 111.601L38.4717 110.577H37.2007V109.129L36 107.911ZM44.757 110.524L44.5803 111.53L44.757 112.554L45.8517 111.53L44.757 110.524Z" fill="#383739"/>
        <path d="M35.9997 98.6064V100.16L39.2484 103.196L38.2244 104.15L40.3957 106.163L39.0894 107.381V105.916H37.518V107.222L41.6317 111.053H43.5384L43.7327 109.959H42.3204L44.015 108.37L47.5464 111.601L44.015 114.832L42.3204 113.26H43.7327L43.538 112.148H41.6314L37.517 115.979V117.286H39.0887V115.82L40.395 117.038L38.2234 119.051L39.2474 120.022L35.999 123.041V124.595L40.9247 120.022L39.9007 119.051L42.0547 117.038L40.2007 115.308L41.6487 113.966L44.0144 116.173L48.976 111.601L44.0147 107.028L41.649 109.235L40.201 107.893L42.055 106.163L39.901 104.15L40.925 103.197L35.9997 98.6064ZM35.9997 108.122V115.079L37.059 114.019V112.483H38.4184L39.3014 111.601L38.4184 110.718H37.059V109.182L35.9997 108.123V108.122ZM44.8627 110.806L44.7394 111.53L44.8627 112.254L45.6394 111.53L44.8627 110.806Z" fill="#FFC72C"/>
        <path d="M36 135.993V137.953L39.0367 140.795L38.0127 141.749L40.1843 143.761L39.231 144.627V143.373H37.377V144.874L41.5613 148.793H43.68L43.9097 147.416H42.6913L44.0153 146.18L47.3347 149.199L44.0153 152.236L42.6913 151H43.9097L43.68 149.605H41.5613L37.3773 153.525V155.026H39.2313V153.772L40.1847 154.637L38.013 156.65L39.037 157.621L36.0003 160.446V162.406L41.138 157.621L40.114 156.65L42.268 154.637L40.414 152.907L41.65 151.777L44.0157 153.966L49.2063 149.199L44.0153 144.433L41.6497 146.639L40.4137 145.492L42.2677 143.762L40.1137 141.749L41.1377 140.795L36 135.993ZM36 145.509V152.889L37.2007 151.671V150.241H38.4717L39.4957 149.199L38.4717 148.175H37.2007V146.728L36 145.509ZM44.757 148.122L44.5803 149.129L44.757 150.153L45.8517 149.129L44.757 148.122Z" fill="#383739"/>
        <path d="M35.9997 136.205V137.758L39.2484 140.795L38.2244 141.749L40.3957 143.761L39.0894 144.98V143.514H37.518V144.821L41.6317 148.652H43.5384L43.7327 147.557H42.3204L44.015 145.968L47.5464 149.199L44.015 152.43L42.3204 150.859H43.7327L43.538 149.747H41.6314L37.517 153.578V154.884H39.0887V153.419L40.395 154.637L38.2234 156.65L39.2474 157.621L35.999 160.64V162.193L40.9247 157.621L39.9007 156.65L42.0547 154.637L40.2007 152.907L41.6487 151.565L44.0144 153.772L48.976 149.199L44.0147 144.627L41.649 146.833L40.201 145.492L42.055 143.762L39.901 141.749L40.925 140.795L35.9997 136.205ZM35.9997 145.721V152.678L37.059 151.618V150.082H38.4184L39.3014 149.199L38.4184 148.317H37.059V146.78L35.9997 145.721V145.721ZM44.8627 148.405L44.7394 149.129L44.8627 149.853L45.6394 149.129L44.8627 148.405Z" fill="#FFC72C"/>
        <path d="M89.999 -13.2065V-11.2465L86.9624 -8.40421L87.9864 -7.45088L85.8147 -5.43821L86.768 -4.57288V-5.82654H88.622V-4.32588L84.4377 -0.406209H82.319L82.0894 -1.78354H83.3077L81.9837 -3.01921L78.6644 -0.000209415L81.9837 3.03646L83.3077 1.80046H82.0894L82.319 0.40579H84.4377L88.6217 4.32546V5.82612H86.7677V4.57279L85.8144 5.43746L87.986 7.45046L86.962 8.42146L89.9987 11.2461V13.2061L84.861 8.42146L85.885 7.45046L83.731 5.43746L85.585 3.70746L84.349 2.57746L81.9834 4.76679L76.7927 -0.000209415L81.9837 -4.76688L84.3494 -2.56021L85.5854 -3.70788L83.7314 -5.43788L85.8854 -7.45088L84.8614 -8.40421L89.999 -13.2065ZM89.999 -3.69021V3.68979L88.7984 2.47146V1.04146H87.5274L86.5034 -0.000209415L87.5274 -1.02421H88.7984V-2.47188L89.999 -3.69021ZM81.242 -1.07721L81.4187 -0.0708767L81.242 0.953124L80.1474 -0.0708767L81.242 -1.07721Z" fill="#383739"/>
        <path d="M89.9993 -12.9946V-11.4413L86.7507 -8.40463L87.7747 -7.45096L85.6033 -5.43829L86.9097 -4.21996V-5.68529H88.481V-4.37863L84.3673 -0.547627H82.4607L82.2663 -1.64229H83.6787L81.984 -3.23129L78.4527 -0.000294616L81.984 3.23071L83.6787 1.65937H82.2663L82.461 0.547038H84.3677L88.482 4.37804V5.68471H86.9103V4.21937L85.604 5.43737L87.7757 7.45004L86.7517 8.42104L90 11.4404V12.9937L85.0743 8.42104L86.0983 7.45004L83.9443 5.43737L85.7983 3.70737L84.3503 2.36537L81.9847 4.57204L77.023 -0.000294616L81.9843 -4.57296L84.35 -2.36629L85.798 -3.70796L83.944 -5.43796L86.098 -7.45096L85.074 -8.40429L89.9993 -12.9946ZM89.9993 -3.47863V3.47804L88.94 2.41837V0.882372H87.5807L86.6977 -0.000294616L87.5807 -0.882961H88.94V-2.41929L89.9993 -3.47829V-3.47863ZM81.1363 -0.794961L81.2597 -0.0709619L81.1363 0.653038L80.3597 -0.0709619L81.1363 -0.794961Z" fill="#FFC72C"/>
        <path d="M89.999 23.1958V25.1558L86.9624 27.9981L87.9864 28.9515L85.8147 30.9641L86.768 31.8295V30.5758H88.622V32.0765L84.4377 35.9961H82.319L82.0894 34.6188H83.3077L81.9837 33.3831L78.6644 36.4021L81.9837 39.4388L83.3077 38.2028H82.0894L82.319 36.8081H84.4377L88.6217 40.7278V42.2285H86.7677V40.9751L85.8144 41.8398L87.986 43.8528L86.962 44.8238L89.9987 47.6485V49.6085L84.861 44.8238L85.885 43.8528L83.731 41.8398L85.585 40.1098L84.349 38.9798L81.9834 41.1691L76.7927 36.4021L81.9837 31.6355L84.3494 33.8421L85.5854 32.6945L83.7314 30.9645L85.8854 28.9515L84.8614 27.9981L89.999 23.1958ZM89.999 32.7121V40.0921L88.7984 38.8738V37.4438H87.5274L86.5034 36.4021L87.5274 35.3781H88.7984V33.9305L89.999 32.7121ZM81.242 35.3251L81.4187 36.3315L81.242 37.3555L80.1474 36.3315L81.242 35.3251Z" fill="#383739"/>
        <path d="M89.9993 23.4077V24.961L86.7507 27.9977L87.7747 28.9514L85.6033 30.964L86.9097 32.1824V30.717H88.481V32.0237L84.3673 35.8547H82.4607L82.2663 34.76H83.6787L81.984 33.171L78.4527 36.402L81.984 39.633L83.6787 38.0617H82.2663L82.461 36.9494H84.3677L88.482 40.7804V42.087H86.9103V40.6217L85.604 41.8397L87.7757 43.8524L86.7517 44.8234L90 47.8427V49.396L85.0743 44.8234L86.0983 43.8524L83.9443 41.8397L85.7983 40.1097L84.3503 38.7677L81.9847 40.9744L77.023 36.402L81.9843 31.8294L84.35 34.036L85.798 32.6944L83.944 30.9644L86.098 28.9514L85.074 27.998L89.9993 23.4077ZM89.9993 32.9237V39.8804L88.94 38.8207V37.2847H87.5807L86.6977 36.402L87.5807 35.5194H88.94V33.983L89.9993 32.924V32.9237ZM81.1363 35.6074L81.2597 36.3314L81.1363 37.0554L80.3597 36.3314L81.1363 35.6074Z" fill="#FFC72C"/>
        <path d="M89.999 60.7949V62.7549L86.9624 65.5973L87.9864 66.5506L85.8147 68.5633L86.768 69.4286V68.1749H88.622V69.6756L84.4377 73.5953H82.319L82.0894 72.2179H83.3077L81.9837 70.9823L78.6644 74.0013L81.9837 77.0379L83.3077 75.8019H82.0894L82.319 74.4073H84.4377L88.6217 78.3269V79.8276H86.7677V78.5743L85.8144 79.4389L87.986 81.4519L86.962 82.4229L89.9987 85.2476V87.2076L84.861 82.4229L85.885 81.4519L83.731 79.4389L85.585 77.7089L84.349 76.5789L81.9834 78.7683L76.7927 74.0013L81.9837 69.2346L84.3494 71.4413L85.5854 70.2936L83.7314 68.5636L85.8854 66.5506L84.8614 65.5973L89.999 60.7949ZM89.999 70.3113V77.6913L88.7984 76.4729V75.0429H87.5274L86.5034 74.0013L87.5274 72.9773H88.7984V71.5296L89.999 70.3113ZM81.242 72.9243L81.4187 73.9306L81.242 74.9546L80.1474 73.9306L81.242 72.9243Z" fill="#383739"/>
        <path d="M89.9993 61.0068V62.5602L86.7507 65.5968L87.7747 66.5505L85.6033 68.5632L86.9097 69.7815V68.3162H88.481V69.6228L84.3673 73.4538H82.4607L82.2663 72.3592H83.6787L81.984 70.7702L78.4527 74.0012L81.984 77.2322L83.6787 75.6608H82.2663L82.461 74.5485H84.3677L88.482 78.3795V79.6862H86.9103V78.2208L85.604 79.4388L87.7757 81.4515L86.7517 82.4225L90 85.4418V86.9952L85.0743 82.4225L86.0983 81.4515L83.9443 79.4388L85.7983 77.7088L84.3503 76.3668L81.9847 78.5735L77.023 74.0012L81.9843 69.4285L84.35 71.6352L85.798 70.2935L83.944 68.5635L86.098 66.5505L85.074 65.5972L89.9993 61.0068ZM89.9993 70.5228V77.4795L88.94 76.4198V74.8838H87.5807L86.6977 74.0012L87.5807 73.1185H88.94V71.5822L89.9993 70.5232V70.5228ZM81.1363 73.2065L81.2597 73.9305L81.1363 74.6545L80.3597 73.9305L81.1363 73.2065Z" fill="#FFC72C"/>
        <path d="M89.999 98.394V100.354L86.9624 103.196L87.9864 104.15L85.8147 106.162L86.768 107.028V105.774H88.622V107.275L84.4377 111.194H82.319L82.0894 109.817H83.3077L81.9837 108.581L78.6644 111.6L81.9837 114.637L83.3077 113.401H82.0894L82.319 112.006H84.4377L88.6217 115.926V117.427H86.7677V116.173L85.8144 117.038L87.986 119.051L86.962 120.022L89.9987 122.847V124.807L84.861 120.022L85.885 119.051L83.731 117.038L85.585 115.308L84.349 114.178L81.9834 116.367L76.7927 111.6L81.9837 106.834L84.3494 109.04L85.5854 107.893L83.7314 106.163L85.8854 104.15L84.8614 103.196L89.999 98.394ZM89.999 107.91V115.29L88.7984 114.072V112.642H87.5274L86.5034 111.6L87.5274 110.576H88.7984V109.129L89.999 107.91ZM81.242 110.523L81.4187 111.53L81.242 112.554L80.1474 111.53L81.242 110.523Z" fill="#383739"/>
        <path d="M89.9993 98.606V100.159L86.7507 103.196L87.7747 104.15L85.6033 106.162L86.9097 107.381V105.915H88.481V107.222L84.3673 111.053H82.4607L82.2663 109.958H83.6787L81.984 108.369L78.4527 111.6L81.984 114.831L83.6787 113.26H82.2663L82.461 112.148H84.3677L88.482 115.979V117.285H86.9103V115.82L85.604 117.038L87.7757 119.051L86.7517 120.022L90 123.041V124.594L85.0743 120.022L86.0983 119.051L83.9443 117.038L85.7983 115.308L84.3503 113.966L81.9847 116.173L77.023 111.6L81.9843 107.028L84.35 109.234L85.798 107.893L83.944 106.163L86.098 104.15L85.074 103.196L89.9993 98.606ZM89.9993 108.122V115.079L88.94 114.019V112.483H87.5807L86.6977 111.6L87.5807 110.718H88.94V109.181L89.9993 108.122V108.122ZM81.1363 110.806L81.2597 111.53L81.1363 112.254L80.3597 111.53L81.1363 110.806Z" fill="#FFC72C"/>
        <path d="M89.999 135.993V137.953L86.9624 140.795L87.9864 141.748L85.8147 143.761L86.768 144.626V143.373H88.622V144.873L84.4377 148.793H82.319L82.0894 147.416H83.3077L81.9837 146.18L78.6644 149.199L81.9837 152.236L83.3077 151H82.0894L82.319 149.605H84.4377L88.6217 153.525V155.025H86.7677V153.772L85.8144 154.637L87.986 156.65L86.962 157.621L89.9987 160.445V162.405L84.861 157.621L85.885 156.65L83.731 154.637L85.585 152.907L84.349 151.777L81.9834 153.966L76.7927 149.199L81.9837 144.432L84.3494 146.639L85.5854 145.491L83.7314 143.761L85.8854 141.748L84.8614 140.795L89.999 135.993ZM89.999 145.509V152.889L88.7984 151.671V150.241H87.5274L86.5034 149.199L87.5274 148.175H88.7984V146.727L89.999 145.509ZM81.242 148.122L81.4187 149.128L81.242 150.152L80.1474 149.128L81.242 148.122Z" fill="#383739"/>
        <path d="M89.9993 136.205V137.758L86.7507 140.795L87.7747 141.748L85.6033 143.761L86.9097 144.979V143.514H88.481V144.821L84.3673 148.652H82.4607L82.2663 147.557H83.6787L81.984 145.968L78.4527 149.199L81.984 152.43L83.6787 150.859H82.2663L82.461 149.746H84.3677L88.482 153.577V154.884H86.9103V153.419L85.604 154.637L87.7757 156.649L86.7517 157.62L90 160.64V162.193L85.0743 157.62L86.0983 156.649L83.9443 154.637L85.7983 152.907L84.3503 151.565L81.9847 153.771L77.023 149.199L81.9843 144.626L84.35 146.833L85.798 145.491L83.944 143.761L86.098 141.748L85.074 140.795L89.9993 136.205ZM89.9993 145.721V152.677L88.94 151.618V150.082H87.5807L86.6977 149.199L87.5807 148.316H88.94V146.78L89.9993 145.721V145.721ZM81.1363 148.404L81.2597 149.128L81.1363 149.852L80.3597 149.128L81.1363 148.404Z" fill="#FFC72C"/>
        <path d="M40.38 176.941C40.6467 178.077 41.5493 178.934 41.7647 180.112C42.1953 178.884 42.5927 177.855 42.296 176.511C42.0837 175.55 41.2753 174.864 41.1817 173.877C40.3003 174.669 40.1107 175.793 40.38 176.941ZM40.1567 181.7C40.9043 182.725 41.9433 183.511 43.091 184.036C42.865 183.138 43.289 182.462 43.7597 181.749C44.3263 180.891 44.603 180.048 44.1407 179.06C43.9253 179.574 43.636 180 43.2963 180.44C42.7943 181.125 42.464 181.734 42.3863 182.613C41.8057 182.182 41.5507 181.54 41.24 180.918C40.7667 180.027 40.0027 179.282 39.125 178.795C39.3583 179.794 39.5377 180.851 40.1567 181.7ZM44.3493 184.755C44.1893 185.325 44.0517 185.889 44.0827 186.484C43.5887 185.952 42.9327 185.551 42.3473 185.122C41.5507 184.478 40.6213 184.023 39.9697 183.202C40.067 184.41 40.584 185.395 41.5657 186.13C42.6033 186.907 43.8547 187.324 44.8767 188.14C44.7233 187.041 45.1273 186.161 45.4713 185.151C45.758 184.186 45.4807 183.206 44.8263 182.471C44.836 183.286 44.5783 183.986 44.3493 184.755ZM46.678 188.466C46.893 189.3 47.4903 189.978 47.898 190.721C46.7983 190.38 45.828 189.784 44.8343 189.223C43.6503 188.578 42.3643 188.168 41.2927 187.316C41.826 189.291 43.1483 190.436 45.0823 191.02C46.4047 191.419 47.519 191.22 49.1237 191.868C48.9397 190.782 48.6153 189.61 48.1017 188.63C47.7033 187.922 47.2613 187.223 47.015 186.443C46.6583 187.084 46.4897 187.736 46.678 188.466ZM50.7243 191.488C51.0981 192.133 51.6096 192.688 52.2223 193.113C50.6613 193.213 49.4053 192.223 47.8833 192.18C46.9433 192.154 46.051 192.446 45.0923 192.358C46.23 193.126 47.421 193.796 48.806 193.975C50.6063 194.208 52.2667 193.755 54.253 193.932C53.3247 193.277 52.8603 192.4 52.2817 191.458C51.5283 190.28 50.8173 189.441 49.352 189.252C49.9403 189.913 50.2827 190.732 50.7243 191.488V191.488ZM56.268 194.079C53.518 194.547 50.8827 195.152 48.0743 195.179C51.218 196.275 54.1803 196.474 57.2983 195.342C58.9833 194.73 60.275 194.403 61.5477 194.494C63.4077 194.628 65.6677 195.362 68.1693 198L69.1527 197.213C65.5673 194.019 60.8763 193.296 56.268 194.079Z" fill="#FFC72C"/>
        <path d="M42.7557 23.4467L38.4287 20.7931V14.4147L42.7557 11.7614V8.3864L46.8447 5.92373H50.1114L56.3274 2.42773H69.6717L75.8877 5.92373H79.1544L83.2434 8.3864V11.7614L87.5704 14.4147V20.7931L83.2437 23.4464V26.8214L79.1544 29.2837H75.8877L69.6717 32.7801H56.3274L50.1114 29.2837H46.8447L42.7557 26.8214V23.4467Z" fill="#383739"/>
        <path d="M56.3561 2.57764L50.1415 6.0733H46.8928L42.9028 8.4743V11.8466L38.5771 14.495V20.7096L42.9028 23.358V26.748L46.8751 29.149H50.1415L56.3561 32.6446H69.6328L75.8475 29.149H79.1141L83.1041 26.7476V23.3576L87.4295 20.7096V14.495L83.1041 11.8466V8.4743L79.1141 6.0733H75.8475L69.6328 2.57764H56.3561ZM56.7268 3.8663H69.2801L75.4945 7.3623H78.7431L81.7621 9.18064V12.5533L86.1055 15.2016V20.0033L81.7621 22.6516V26.024L78.7431 27.8423H75.4945L69.2801 31.3383H56.7268L50.5121 27.8423H47.2638L44.2271 26.024V22.6516L39.9015 20.0033V15.2013L44.2268 12.553V9.18064L47.2635 7.3623H50.5121L56.7268 3.8663Z" fill="#00843D"/>
        <path d="M62.9273 17.6752V4.00586H56.7586L50.5429 7.50186H47.3023L44.3706 9.26719V12.6339L40.0439 15.2872V17.5325H63.0706V31.2022H69.2393L75.4553 27.7059H78.6963L81.6276 25.9405V22.5739L85.9543 19.9205V17.6755L62.9273 17.6752Z" fill="#FFC72C"/>
        <path d="M40.0439 17.6752V19.9205L44.3706 22.5739V25.9405L47.3023 27.7059H50.5429L56.7589 31.2022H62.9276V17.5322H85.9546V15.2872L81.6279 12.6339V9.26719L78.6963 7.50186H75.4553L69.2393 4.00586H63.0709V17.6752H40.0439Z" fill="white"/>
        <path d="M49.4832 8.75976L48.4179 7.76709L47.3626 8.41776L48.4296 9.41276L47.0596 10.2614H50.0492L52.6259 12.6914L53.4499 11.8214L50.9449 9.45809V7.85442L49.4832 8.75976Z" fill="#383739"/>
        <path d="M54.5245 8.32372L53.4591 7.33105L52.4038 7.98172L53.4708 8.97639L52.1008 9.82539H55.0905L57.6671 12.2554L58.4911 11.3854L55.9861 9.02205V7.41805L54.5245 8.32372ZM49.1131 11.6117L48.0478 10.6187L46.9928 11.2697L48.0595 12.2644L46.6895 13.1134H49.6795L52.2555 15.5434L53.0798 14.6731L50.5748 12.3101V10.7061L49.1131 11.6117Z" fill="#383739"/>
        <path d="M62.9988 3.86279H60.3012L58.8895 5.22313H56.1378L54.1045 6.27846L54.5785 7.43413L56.3918 6.48146H57.1862L59.9665 9.69713L62.9988 7.85046V3.86279Z" fill="#383739"/>
        <path d="M48.3999 7.94577L49.3572 8.83777L48.5552 9.33443L47.5965 8.4411L48.3999 7.94577ZM50.8015 8.11077V9.51977L53.2475 11.8268L52.6195 12.4901L50.1055 10.1188H47.5605L50.8015 8.11077ZM53.4415 7.50977L54.3989 8.40177L53.5969 8.89843L52.6382 8.0051L53.4415 7.50977ZM55.8432 7.67443V9.08343L58.2892 11.3908L57.6612 12.0541L55.1472 9.68277H52.6022L55.8432 7.67443Z" fill="#D22630"/>
        <path d="M48.0301 10.7974L48.9871 11.6897L48.1851 12.1864L47.2268 11.293L48.0301 10.7974ZM50.4318 10.9624V12.3714L52.8774 14.6787L52.2498 15.342L49.7358 12.9707H47.1904L50.4318 10.9624ZM62.9274 4.00537H60.3588L58.9471 5.36537H56.1724L54.2858 6.3447L54.6508 7.2347L56.3564 6.3387H57.2514L59.9954 9.51237L62.9274 7.72704V4.00537Z" fill="#D22630"/>
        <path d="M49.4832 26.4473L48.4179 27.4399L47.3626 26.7893L48.4296 25.7943L47.0596 24.9456H50.0492L52.6259 22.5156L53.4499 23.3856L50.9449 25.7489V27.3526L49.4832 26.4473Z" fill="#383739"/>
        <path d="M54.5245 26.8833L53.4591 27.876L52.4038 27.2253L53.4708 26.2306L52.1008 25.3816H55.0905L57.6671 22.9516L58.4911 23.8216L55.9861 26.185V27.789L54.5245 26.8833ZM49.1131 23.5953L48.0478 24.5883L46.9928 23.9373L48.0595 22.9426L46.6895 22.0936H49.6795L52.2555 19.6636L53.0798 20.534L50.5748 22.897V24.501L49.1131 23.5953Z" fill="#383739"/>
        <path d="M62.9988 31.3442H60.3012L58.8895 29.9839H56.1378L54.1045 28.9286L54.5785 27.7729L56.3918 28.7256H57.1862L59.9665 25.5099L62.9988 27.3566V31.3442Z" fill="#383739"/>
        <path d="M48.3999 27.2613L49.3572 26.3693L48.5552 25.8726L47.5965 26.7659L48.3999 27.2613ZM50.8015 27.0963V25.6873L53.2475 23.3803L52.6195 22.7169L50.1055 25.0883H47.5605L50.8015 27.0963ZM53.4415 27.6973L54.3989 26.8053L53.5969 26.3086L52.6382 27.2019L53.4415 27.6973ZM55.8432 27.5326V26.1236L58.2892 23.8163L57.6612 23.1529L55.1472 25.5243H52.6022L55.8432 27.5326Z" fill="#D22630"/>
        <path d="M48.0301 24.4097L48.9871 23.5173L48.1851 23.0207L47.2268 23.914L48.0301 24.4097ZM50.4318 24.2447V22.8357L52.8774 20.5283L52.2498 19.865L49.7358 22.2363H47.1904L50.4318 24.2447ZM62.9274 31.2017H60.3588L58.9471 29.8417H56.1724L54.2858 28.8623L54.6508 27.9723L56.3564 28.8683H57.2514L59.9954 25.6947L62.9274 27.48V31.2017Z" fill="#D22630"/>
        <path d="M47.6845 13.2367L46.3982 12.7563L46.3675 12.7777L44.7069 13.93V14.24L42.0469 17.6037L44.7069 20.9677V21.2777L46.3982 22.451L47.6845 21.9707L46.8995 21.4507V20.4617L47.2115 20.0883H48.6052V15.1193H47.2115L46.8995 14.746V13.7567L47.6845 13.2367Z" fill="#383739"/>
        <path d="M44.8492 14.0047L46.4179 12.916L47.3719 13.2727L46.7565 13.6803V14.7977L47.1445 15.2617H48.4618V19.946H47.1445L46.7565 20.41V21.5273L47.3719 21.935L46.4179 22.2917L44.8492 21.203V20.918L42.2285 17.6037L44.8495 14.2893L44.8492 14.0047Z" fill="#D22630"/>
        <path d="M76.5148 8.75976L77.5801 7.76709L78.6355 8.41776L77.5685 9.41276L78.9385 10.2614H75.9488L73.3721 12.6914L72.5481 11.8214L75.0531 9.45809V7.85442L76.5148 8.75976Z" fill="#383739"/>
        <path d="M71.4736 8.32372L72.5389 7.33105L73.5943 7.98172L72.5273 8.97639L73.8973 9.82539H70.9076L68.3309 12.2554L67.5069 11.3854L70.0119 9.02205V7.41805L71.4736 8.32372ZM76.8849 11.6117L77.9503 10.6187L79.0053 11.2697L77.9386 12.2644L79.3086 13.1134H76.3186L73.7426 15.5434L72.9183 14.6731L75.4233 12.3101V10.7061L76.8849 11.6117Z" fill="#383739"/>
        <path d="M62.9992 3.86279H65.6969L67.1086 5.22313H69.8602L71.8936 6.27846L71.4196 7.43413L69.6062 6.48146H68.8119L66.0316 9.69713L62.9992 7.85046V3.86279Z" fill="#383739"/>
        <path d="M77.5982 7.94577L76.6408 8.83777L77.4428 9.33443L78.4015 8.4411L77.5982 7.94577ZM75.1965 8.11077V9.51977L72.7505 11.8268L73.3785 12.4901L75.8925 10.1188H78.4375L75.1965 8.11077ZM72.5565 7.50977L71.5992 8.40177L72.4012 8.89843L73.3598 8.0051L72.5565 7.50977ZM70.1548 7.67443V9.08343L67.7088 11.3908L68.3368 12.0541L70.8508 9.68277H73.3958L70.1548 7.67443Z" fill="#D22630"/>
        <path d="M77.968 10.7974L77.011 11.6897L77.813 12.1864L78.7713 11.293L77.968 10.7974ZM75.5663 10.9624V12.3714L73.1206 14.6787L73.7483 15.342L76.2623 12.9707H78.8076L75.5663 10.9624ZM63.0706 4.00537H65.6393L67.051 5.36537H69.8256L71.7123 6.3447L71.3473 7.2347L69.6416 6.3387H68.7466L66.0026 9.51237L63.0706 7.72704V4.00537Z" fill="#D22630"/>
        <path d="M76.5148 26.4473L77.5801 27.4399L78.6355 26.7893L77.5685 25.7943L78.9385 24.9456H75.9488L73.3721 22.5156L72.5481 23.3856L75.0531 25.7489V27.3526L76.5148 26.4473Z" fill="#383739"/>
        <path d="M71.4736 26.8833L72.5389 27.876L73.5943 27.2253L72.5273 26.2306L73.8973 25.3816H70.9076L68.3309 22.9516L67.5069 23.8216L70.0119 26.185V27.789L71.4736 26.8833ZM76.8849 23.5953L77.9503 24.5883L79.0053 23.9373L77.9386 22.9426L79.3086 22.0936H76.3186L73.7426 19.6636L72.9183 20.534L75.4233 22.897V24.501L76.8849 23.5953Z" fill="#383739"/>
        <path d="M62.9992 31.3442H65.6969L67.1086 29.9839H69.8602L71.8936 28.9286L71.4196 27.7729L69.6062 28.7256H68.8119L66.0316 25.5099L62.9992 27.3566V31.3442Z" fill="#383739"/>
        <path d="M77.5982 27.2613L76.6408 26.3693L77.4428 25.8726L78.4015 26.7659L77.5982 27.2613ZM75.1965 27.0963V25.6873L72.7505 23.3803L73.3785 22.7169L75.8925 25.0883H78.4375L75.1965 27.0963ZM72.5565 27.6973L71.5992 26.8053L72.4012 26.3086L73.3598 27.2019L72.5565 27.6973ZM70.1548 27.5326V26.1236L67.7088 23.8163L68.3368 23.1529L70.8508 25.5243H73.3958L70.1548 27.5326Z" fill="#D22630"/>
        <path d="M77.968 24.4097L77.011 23.5173L77.813 23.0207L78.7713 23.914L77.968 24.4097ZM75.5663 24.2447V22.8357L73.1206 20.5283L73.7483 19.865L76.2623 22.2363H78.8076L75.5663 24.2447ZM63.0706 31.2017H65.6393L67.051 29.8417H69.8256L71.7123 28.8623L71.3473 27.9723L69.6416 28.8683H68.7466L66.0026 25.6947L63.0706 27.48V31.2017Z" fill="#D22630"/>
        <path d="M78.3135 13.2367L79.5998 12.7563L79.6305 12.7777L81.2912 13.93V14.24L83.9512 17.6037L81.2912 20.9677V21.2777L79.5998 22.451L78.3135 21.9707L79.0985 21.4507V20.4617L78.7865 20.0883H77.3928V15.1193H78.7865L79.0985 14.746V13.7567L78.3135 13.2367Z" fill="#383739"/>
        <path d="M81.1489 14.0047L79.5802 12.916L78.6262 13.2727L79.2415 13.6803V14.7977L78.8535 15.2617H77.5362V19.946H78.8535L79.2415 20.41V21.5273L78.6262 21.935L79.5802 22.2917L81.1489 21.203V20.918L83.7695 17.6037L81.1485 14.2893L81.1489 14.0047Z" fill="#D22630"/>
        <path d="M45.4007 20.4271L44.6764 19.8005V19.4985L43.123 17.6035L44.6767 15.7085V15.4065L45.401 14.7798L46.7017 15.8378L45.951 15.8321L47.0604 16.9581H49.5954L51.5887 15.3991V11.2875H56.5754L62.366 7.73413V6.80213L61.4804 6.21179H61.1997L60.2354 6.85713L60.086 7.33846L59.3314 6.30846L60.7977 5.07679H61.032L62.6867 3.86279H63.3104L64.965 5.07679H65.1994L66.6657 6.30846L65.9114 7.33846L65.762 6.85713L64.7974 6.21179H64.517L63.6314 6.80179V7.73413L69.422 11.2875H74.4084V15.3991L76.4017 16.9581H78.937L80.0464 15.8321L79.2954 15.8378L80.5964 14.7801L81.3204 15.4068V15.7085L82.8744 17.6035L81.3204 19.4985V19.8005L80.5964 20.4271L79.2954 19.3695L80.0464 19.3751L78.937 18.2491H76.402L74.4084 19.8081V23.9198H69.422L63.6314 27.4731V28.4051L64.517 28.9951H64.7974L65.762 28.3501L65.9114 27.8685L66.6657 28.8985L65.1994 30.1305H64.965L63.3104 31.3445H62.6867L61.032 30.1305H60.7977L59.331 28.8985L60.086 27.8685L60.2354 28.3501L61.1994 28.9955H61.48L62.366 28.4055V27.4731L56.575 23.9198H51.589V19.8078L49.595 18.2488H47.0604L45.951 19.3748L46.7017 19.3691L45.4007 20.4271Z" fill="#383739"/>
        <path d="M63.0705 29.1065L63.7042 29.5912L63.0705 30.0755V29.1065ZM61.0559 29.9879H61.0792L62.7339 31.2022H62.9272V30.2549L62.0592 29.5912L62.9272 28.9272V27.1482L56.7309 23.3455H52.1502V19.5249L49.7852 17.6749H46.2182L45.3215 18.6889L44.4249 17.6752H43.3662L44.8195 19.4479V19.7355L45.3952 20.2355L46.3199 19.5155L45.7772 19.5199V19.3399L46.9869 18.1065H49.6449L51.7322 19.7392V23.7769H56.6159L62.5092 27.3935V28.4815L61.5239 29.1382H61.1562L60.1142 28.4405L60.0342 28.1815L59.5259 28.8749L60.8502 29.9875L61.0559 29.9879ZM45.3225 16.7345L46.0282 17.5325H44.6162L45.3225 16.7345ZM62.9275 5.13219L62.2942 5.61653L62.9275 6.10119V5.13219ZM79.9699 17.6755L80.6759 18.4732L81.3819 17.6752L79.9699 17.6755ZM64.9185 5.21986L63.2639 4.00586H63.0705V4.95253L63.9392 5.61686L63.0705 6.28086V8.05986L69.2672 11.8622H73.8475V15.6835L76.2125 17.5332H79.7792L80.6759 16.5195L81.5725 17.5329H82.6315L81.1782 15.7605V15.4725L80.6029 14.9725L79.6779 15.6925L80.2209 15.6882V15.8682L79.0109 17.1015H76.3532L74.2659 15.4689V11.4302H69.3819L63.4889 7.81353V6.72553L64.4742 6.06886H64.8415L65.8839 6.76686L65.9639 7.02553L66.4722 6.33219L65.1479 5.21919H64.9185V5.21986Z" fill="#FFC72C"/>
        <path d="M62.9269 30.0752L62.2935 29.5909L62.9269 29.1065V30.0752ZM46.0275 17.6752L45.3215 18.4732L44.6155 17.6752H46.0275ZM64.9412 29.9875H64.9179L63.2632 31.2019H63.0699V30.2552L63.9385 29.5909L63.0699 28.9265V27.1479L69.2665 23.3452H73.8469V19.5245L76.2119 17.6749H79.7785L80.6752 18.6885L81.5719 17.6749H82.6309L81.1775 19.4475V19.7352L80.6022 20.2352L79.6772 19.5152L80.2202 19.5195V19.3395L79.0102 18.1062H76.3525L74.2652 19.7389V23.7772H69.3812L63.4882 27.3932V28.4812L64.4735 29.1379H64.8409L65.8832 28.4402L65.9632 28.1812L66.4715 28.8749L65.1472 29.9872L64.9412 29.9875ZM80.6752 16.7342L79.9692 17.5322H81.3815L80.6752 16.7342ZM61.0795 5.21986L62.7339 4.00586H62.9272V4.95253L62.0589 5.61686L62.9275 6.28086V8.05986L56.7309 11.8625H52.1509V15.6832L49.7855 17.5329H46.2179L45.3212 16.5192L44.4245 17.5325H43.3662L44.8195 15.7602V15.4725L45.3952 14.9725L46.3195 15.6925L45.7769 15.6879V15.8682L46.9869 17.1009H49.6445L51.7319 15.4685V11.4302H56.6155L62.5089 7.81386V6.72553L61.5235 6.06919H61.1562L60.1139 6.76686L60.0339 7.02553L59.5255 6.33219L60.8502 5.21953H61.0792L61.0795 5.21986ZM63.0702 6.10153L63.7039 5.61686L63.0702 5.13219V6.10153Z" fill="white"/>
        <path d="M62.9279 17.6749V8.22656L56.7716 12.0046H52.2936V15.7522L50.0176 17.5322H63.0709V26.9806L69.2266 23.2026H73.7049V19.4552L75.9809 17.6752L62.9279 17.6749Z" fill="#00843D"/>
        <path d="M50.0166 17.6751L52.2929 19.4551V23.2027H56.7709L62.9273 26.9807V17.5321L75.9803 17.5324L73.7043 15.7524V12.0047H69.2259L63.0703 8.22705V17.6751H50.0166Z" fill="#D22630"/>
        <path d="M56.3729 13.021L55.3079 12.0283L54.2526 12.679L55.3192 13.6737L53.9492 14.5227H56.9392L59.5156 16.9527L60.3396 16.0827L57.8346 13.7193V12.1157L56.3729 13.021ZM69.6246 22.1867L70.6899 23.1793L71.7449 22.5283L70.6782 21.5337L72.0482 20.685H69.0582L66.4822 18.2547L65.6579 19.125L68.1629 21.4883V23.092L69.6246 22.1867ZM56.3729 22.1867L55.3076 23.1793L54.2526 22.5283L55.3192 21.5337L53.9492 20.685H56.9392L59.5152 18.2547L60.3396 19.125L57.8346 21.4883V23.092L56.3729 22.1867ZM69.6246 13.021L70.6899 12.0283L71.7449 12.679L70.6782 13.6737L72.0482 14.5227H69.0582L66.4822 16.9527L65.6579 16.0827L68.1629 13.7193V12.1157L69.6246 13.021Z" fill="#383739"/>
        <path d="M70.7069 23.0005L69.7499 22.1082L70.5519 21.6115L71.5102 22.5049L70.7069 23.0005ZM68.3052 22.8355V21.4265L65.8595 19.1195L66.4875 18.4562L69.0012 20.8275H71.5465L68.3052 22.8355ZM55.2895 12.2065L56.2469 13.0989L55.4445 13.5955L54.4862 12.7022L55.2895 12.2065ZM57.6915 12.3719V13.7805L60.1372 16.0879L59.5092 16.7512L56.9955 14.3799H54.4502L57.6915 12.3719Z" fill="#D22630"/>
        <path d="M70.7069 12.2065L69.7499 13.0989L70.5519 13.5955L71.5102 12.7022L70.7069 12.2065ZM68.3052 12.3719V13.7805L65.8595 16.0879L66.4875 16.7512L69.0012 14.3799H71.5465L68.3052 12.3719ZM55.2895 23.0005L56.2465 22.1082L55.4445 21.6115L54.4862 22.5049L55.2895 23.0005ZM57.6912 22.8355V21.4265L60.1372 19.1195L59.5092 18.4562L56.9955 20.8275H54.4502L57.6912 22.8355Z" fill="#00843D"/>
        <path d="M69.6182 17.6039L62.9986 22.0156L56.3789 17.6039L62.9986 13.1919L69.6182 17.6039Z" fill="#383739"/>
        <path d="M62.9281 13.4111L56.7445 17.5325H69.2548L63.0711 13.4111V21.7968L69.2551 17.6751H56.7441L62.9281 21.7968V13.4111Z" fill="white"/>
        <path d="M64.7698 19.1212V20.3342H61.2298V19.1209H58.9385V16.0869H61.2295V14.8735H64.7698V16.0869H67.0608V19.1212H64.7698Z" fill="#383739"/>
        <path d="M61.3721 15.0161V16.2294H59.0811V17.5324H62.9277V15.0161H61.3721ZM63.0707 17.5324H66.9174V16.2291H64.6267V15.0161H63.0707V17.5324ZM59.0811 17.6751V18.9784H61.3721V20.1914H62.9277V17.6751H59.0811ZM63.0711 20.1914H64.6267V18.9784H66.9177V17.6751H63.0711V20.1914Z" fill="#D22630"/>
        <path d="M74.2925 67.8701V65.9268H79.6219V63.9834H84.9512V46.4228H79.6219V44.4794H74.2925V42.5361H68.9632V40.5928H57.0359V42.5361H51.7062V44.4794H46.3769V46.4228H41.0469V63.9834H46.3765V65.9268H51.7059V67.8701H57.0355V69.8134H68.9629V67.8701H74.2925Z" fill="#383739"/>
        <path d="M57.1864 40.731V42.673H51.8544V44.6153H46.5224V46.5573H41.1904V63.842H46.5224V65.7843H51.8544V67.726H57.1864V69.668H68.8208V67.726H74.1531V65.7843H79.4854V63.842H84.8168V46.5573H79.4854V44.6153H74.1531V42.673H68.8208V40.731H57.1864ZM58.5988 42.1433H67.4088V44.0853H72.7408V46.0276H78.0728V47.9696H83.4044V62.4296H78.0728V64.3716H72.7408V66.3136H67.4084V68.2553H58.5988V66.3136H53.2671V64.3716H47.9351V62.4293H42.6031V47.9693H47.9351V46.0276H53.2671V44.0853H58.5991L58.5988 42.1433Z" fill="#FFC72C"/>
        <path d="M53.4031 66.1732V64.2299H48.0738V62.2866H42.7441V48.1199H48.0738V46.1762H53.4031V44.2329H58.7325V42.2896H67.2661V44.2329H72.5958V46.1762H77.9248V48.1196H83.2548V62.2862H77.9248V64.2296H72.5958V66.1732H67.2661V68.1166H58.7328V66.1732H53.4031Z" fill="#D22630"/>
        <path d="M54.6402 45.6712L53.2599 44.6279V46.6312L51.9379 47.4712L51.9345 46.2172L50.6669 47.3559L49.3989 46.2172L49.3955 47.4716L47.9309 46.5406V48.3982L46.7469 49.2552L46.7435 48.1162L45.3372 49.1349L43.9309 48.1162L43.9275 49.2552L42.6009 48.2949V53.9219H41.0469V56.4836H42.6009V62.1106L43.9275 61.1499L43.9309 62.2892L45.3375 61.2706L46.7435 62.2892L46.7469 61.1499L47.9305 62.0069V63.8649L49.3955 62.9339L49.3989 64.1882L50.6665 63.0496L51.9345 64.1882L51.9379 62.9339L53.2595 63.7739V65.7776L54.6402 64.7342L54.6432 66.1336L55.9959 64.9236L57.3489 66.1336L57.3519 64.7342L58.5895 65.6696V67.8066L60.4399 66.1199V68.1019L62.9992 66.4566L65.5585 68.1019V66.1199L67.4089 67.8066V65.6699L68.6462 64.7342L68.6495 66.1336L70.0022 64.9236L71.3555 66.1336L71.3582 64.7342L72.7382 65.7776V63.7739L74.0605 62.9339L74.0639 64.1882L75.3319 63.0496L76.5995 64.1882L76.6029 62.9339L78.0679 63.8649V62.0069L79.2519 61.1502L79.2552 62.2892L80.6612 61.2706L82.0679 62.2892L82.0712 61.1499L83.3979 62.1106V56.4832H84.9515V53.9216H83.3975V48.2946L82.0709 49.2549L82.0675 48.1159L80.6612 49.1346L79.2549 48.1159L79.2519 49.2549L78.0682 48.3979V46.5402L76.6032 47.4712L76.5999 46.2169L75.3319 47.3556L74.0639 46.2169L74.0605 47.4712L72.7385 46.6309V44.6276L71.3585 45.6709L71.3552 44.2712L70.0025 45.4812L68.6492 44.2712L68.6465 45.6709L67.4089 44.7352V42.5986L65.5589 44.2852V42.3032L62.9992 43.9486L60.4399 42.3032V44.2852L58.5899 42.5986V44.7352L57.3519 45.6709L57.3489 44.2712L55.9959 45.4812L54.6432 44.2712L54.6402 45.6712Z" fill="#383739"/>
        <path d="M44.0704 49.5348L44.0738 48.3955L45.3381 49.3115L45.3804 49.2805L46.6021 48.3955L46.6054 49.5348L47.9314 48.5748V61.8312L46.6054 60.8712L46.6021 62.0105L45.3381 61.0945L44.0738 62.0105L44.0704 60.8712L42.7444 61.8312V56.3408H41.1904V54.0652H42.7444V48.5752L44.0704 49.5348ZM54.7858 44.5908L55.9964 45.6735L57.2074 44.5908L57.2104 45.9582L58.5901 44.9152V65.4912L57.2101 64.4478L57.2074 65.8155L55.9964 64.7325L54.7858 65.8155L54.7831 64.4481L53.4034 65.4912V44.9152L54.7831 45.9585L54.7858 44.5908ZM71.2138 44.5908L70.0031 45.6735L68.7921 44.5908L68.7891 45.9582L67.4098 44.9152V65.4912L68.7891 64.4478L68.7924 65.8155L70.0031 64.7325L71.2138 65.8155L71.2168 64.4481L72.5964 65.4912V44.9152L71.2168 45.9585L71.2138 44.5908ZM81.9291 49.5348L81.9258 48.3955L80.6614 49.3115L80.6188 49.2805L79.3971 48.3955L79.3938 49.5348L78.0681 48.5748V61.8312L79.3938 60.8712L79.3971 62.0105L80.6614 61.0945L81.9258 62.0105L81.9291 60.8712L83.2548 61.8312V56.3408H84.8088V54.0652H83.2548V48.5752L81.9291 49.5348Z" fill="#00843D"/>
        <path d="M49.5409 46.5371L50.6666 47.5484L51.7926 46.5371L51.7959 47.7314L53.2599 46.8008V63.6051L51.7959 62.6748L51.7926 63.8688L50.6666 62.8578L49.5409 63.8688L49.5376 62.6748L48.0732 63.6051V46.8008L49.5376 47.7314L49.5409 46.5371ZM60.5826 44.6091L58.7322 42.9224V67.4834L60.5826 65.7968V67.8404L62.9989 66.2871L65.4156 67.8404V65.7968L67.2656 67.4834V42.9224L65.4156 44.6091V42.5654L62.9989 44.1188L60.5826 42.5654V44.6091ZM76.4576 46.5371L75.3319 47.5484L74.2059 46.5371L74.2026 47.7314L72.7382 46.8008V63.6051L74.2029 62.6748L74.2059 63.8688L75.3319 62.8578L76.4576 63.8688L76.4609 62.6748L77.9252 63.6051V46.8008L76.4609 47.7314L76.4576 46.5371Z" fill="#FFC72C"/>
        <path d="M44.763 52.7887C44.9247 52.952 45.1184 53.0343 45.3377 53.0343C45.5574 53.0343 45.7507 52.952 45.9127 52.7887C46.4187 52.2787 46.436 51.3563 46.4307 50.6923L45.74 51.4223L45.3377 50.728C45.3377 50.728 45.0094 51.2953 44.9354 51.4223L44.2447 50.6923C44.2397 51.3563 44.2567 52.2787 44.763 52.7887ZM50.3224 51.36L49.8957 50.934V50.0853L48.9167 50.9927L50.667 52.7433L52.4177 50.9927L51.4384 50.0853V50.934L51.012 51.36V49.8563L51.767 49.208L50.667 48.2633L49.567 49.208L50.3224 49.8563V51.36ZM55.6514 49.6733L55.225 49.247V48.3983L54.246 49.306L55.9964 51.0563L57.7467 49.306L56.7677 48.3983V49.247L56.341 49.6733V48.1693L57.0964 47.521L55.9964 46.5767L54.8964 47.521L55.6514 48.1693V49.6733Z" fill="#383739"/>
        <path d="M45.3385 51.0128L45.7129 51.6595L46.2825 51.0575C46.2625 51.8075 46.0982 52.3995 45.8119 52.6875C45.6779 52.8228 45.5185 52.8915 45.3385 52.8915C45.1585 52.8915 44.9992 52.8228 44.8652 52.6878C44.5789 52.3995 44.4142 51.8071 44.3945 51.0578L44.9639 51.6595L45.3385 51.0128ZM56.1992 48.1038V50.0181L56.9112 49.3065V48.7255L57.5415 49.3101L55.9972 50.8545L54.4525 49.3101L55.0829 48.7255V49.3065L55.7949 50.0181V48.1038L55.1165 47.5211L55.9972 46.7651L56.8779 47.5211L56.1992 48.1038Z" fill="white"/>
        <path d="M50.8697 49.7908V51.7051L51.5817 50.9931V50.4125L52.212 50.9968L50.6674 52.5415L49.123 50.9968L49.7534 50.4125V50.9931L50.4654 51.7051V49.7908L49.787 49.2081L50.6674 48.4521L51.5484 49.2081L50.8697 49.7908Z" fill="#D22630"/>
        <path d="M81.236 52.7887C81.0743 52.952 80.8807 53.0343 80.6613 53.0343C80.4417 53.0343 80.2483 52.952 80.0863 52.7887C79.5803 52.2787 79.563 51.3563 79.5683 50.6923L80.259 51.4223L80.6613 50.728C80.6613 50.728 80.9897 51.2953 81.0637 51.4223L81.7543 50.6923C81.7593 51.3563 81.7423 52.2787 81.236 52.7887ZM75.6766 51.36L76.1033 50.934V50.0853L77.0823 50.9927L75.332 52.7433L73.5813 50.9927L74.5606 50.0853V50.934L74.987 51.36V49.8563L74.232 49.208L75.332 48.2633L76.432 49.208L75.6766 49.8563V51.36ZM70.3476 49.6733L70.774 49.247V48.3983L71.753 49.306L70.0026 51.0563L68.2523 49.306L69.2313 48.3983V49.247L69.658 49.6733V48.1693L68.9026 47.521L70.0026 46.5767L71.1026 47.521L70.3476 48.1693V49.6733Z" fill="#383739"/>
        <path d="M80.6615 51.0128L80.2871 51.6595L79.7175 51.0575C79.7375 51.8075 79.9018 52.3995 80.1881 52.6875C80.3221 52.8228 80.4815 52.8915 80.6615 52.8915C80.8415 52.8915 81.0008 52.8228 81.1348 52.6878C81.4211 52.3995 81.5858 51.8071 81.6055 51.0578L81.0361 51.6595L80.6615 51.0128ZM69.8008 48.1038V50.0181L69.0888 49.3065V48.7255L68.4585 49.3101L70.0028 50.8545L71.5475 49.3101L70.9171 48.7255V49.3065L70.2051 50.0181V48.1038L70.8835 47.5211L70.0028 46.7651L69.1221 47.5211L69.8008 48.1038Z" fill="white"/>
        <path d="M75.1293 49.7908V51.7051L74.4173 50.9931V50.4125L73.787 50.9968L75.3316 52.5415L76.876 50.9968L76.2456 50.4125V50.9931L75.5336 51.7051V49.7908L76.212 49.2081L75.3316 48.4521L74.4506 49.2081L75.1293 49.7908Z" fill="#D22630"/>
        <path d="M65.0942 50.3121L64.5208 49.5198L65.9912 48.1625L64.6202 47.0358V47.8338L64.0468 48.3245V46.8771L65.3418 45.9225L62.9988 44.1958L60.6558 45.9225L61.9515 46.8771V48.3245L61.3782 47.8338V47.0358L60.0068 48.1625L61.4775 49.5198L60.9042 50.3121H65.0942Z" fill="#383739"/>
        <path d="M61.1839 50.1694L61.6673 49.5007L60.2246 48.1687L61.2353 47.3384V47.8997L62.0943 48.6351V46.805L60.8969 45.9227L62.9993 44.373L65.1013 45.9227L63.9043 46.805V48.6351L64.7633 47.8997V47.3384L65.7739 48.1687L64.3309 49.5007L64.8146 50.1694H61.1839Z" fill="#D22630"/>
        <path d="M61.9287 45.9226L62.9994 46.7116L64.07 45.9226L62.9994 45.1333L62.957 45.165L61.9287 45.9226Z" fill="#383739"/>
        <path d="M62.9989 45.311L63.8289 45.9227L62.9989 46.5344L62.1689 45.9227L62.9989 45.311Z" fill="#00843D"/>
        <path d="M44.763 57.6166C44.9247 57.4533 45.1184 57.3709 45.3377 57.3709C45.5574 57.3709 45.7507 57.4533 45.9127 57.6166C46.4187 58.1266 46.436 59.0489 46.4307 59.7129L45.74 58.9829L45.3377 59.6773C45.3377 59.6773 45.0094 59.1099 44.9354 58.9829L44.2447 59.7129C44.2397 59.0489 44.2567 58.1266 44.763 57.6166ZM50.3224 59.0453L49.8957 59.4713V60.3199L48.9167 59.4126L50.667 57.6619L52.4177 59.4126L51.4384 60.3199V59.4713L51.012 59.0453V60.5489L51.767 61.1973L50.667 62.1419L49.567 61.1973L50.3224 60.5489V59.0453ZM55.6514 60.7319L55.225 61.1583V62.0069L54.246 61.0993L55.9964 59.3489L57.7467 61.0993L56.7677 62.0069V61.1583L56.341 60.7319V62.2359L57.0964 62.8843L55.9964 63.8286L54.8964 62.8843L55.6514 62.2359V60.7319Z" fill="#383739"/>
        <path d="M45.3385 59.3925L45.7129 58.7458L46.2825 59.3478C46.2625 58.5978 46.0982 58.0058 45.8119 57.7178C45.6779 57.5825 45.5185 57.5138 45.3385 57.5138C45.1585 57.5138 44.9992 57.5825 44.8652 57.7175C44.5789 58.0058 44.4142 58.5981 44.3945 59.3475L44.9639 58.7458L45.3385 59.3925ZM56.1992 62.3015V60.3871L56.9112 61.0988V61.6798L57.5415 61.0951L55.9972 59.5508L54.4525 61.0951L55.0829 61.6798V61.0988L55.7949 60.3871V62.3015L55.1165 62.8841L55.9972 63.6401L56.8779 62.8841L56.1992 62.3015Z" fill="white"/>
        <path d="M50.8697 60.6145V58.7001L51.5817 59.4121V59.9928L52.212 59.4085L50.6674 57.8638L49.123 59.4085L49.7534 59.9928V59.4121L50.4654 58.7001V60.6145L49.787 61.1971L50.6674 61.9531L51.5484 61.1971L50.8697 60.6145Z" fill="#D22630"/>
        <path d="M81.236 57.6166C81.0743 57.4533 80.8807 57.3709 80.6613 57.3709C80.4417 57.3709 80.2483 57.4533 80.0863 57.6166C79.5803 58.1266 79.563 59.0489 79.5683 59.7129L80.259 58.9829L80.6613 59.6773C80.6613 59.6773 80.9897 59.1099 81.0637 58.9829L81.7543 59.7129C81.7593 59.0489 81.7423 58.1266 81.236 57.6166ZM75.6766 59.0453L76.1033 59.4713V60.3199L77.0823 59.4126L75.332 57.6619L73.5813 59.4126L74.5606 60.3199V59.4713L74.987 59.0453V60.5489L74.232 61.1973L75.332 62.1419L76.432 61.1973L75.6766 60.5489V59.0453ZM70.3476 60.7319L70.774 61.1583V62.0069L71.753 61.0993L70.0026 59.3489L68.2523 61.0993L69.2313 62.0069V61.1583L69.658 60.7319V62.2359L68.9026 62.8843L70.0026 63.8286L71.1026 62.8843L70.3476 62.2359V60.7319Z" fill="#383739"/>
        <path d="M80.6615 59.3925L80.2871 58.7458L79.7175 59.3478C79.7375 58.5978 79.9018 58.0058 80.1881 57.7178C80.3221 57.5825 80.4815 57.5138 80.6615 57.5138C80.8415 57.5138 81.0008 57.5825 81.1348 57.7175C81.4211 58.0058 81.5858 58.5981 81.6055 59.3475L81.0361 58.7458L80.6615 59.3925ZM69.8008 62.3015V60.3871L69.0888 61.0988V61.6798L68.4585 61.0951L70.0028 59.5508L71.5475 61.0951L70.9171 61.6798V61.0988L70.2051 60.3871V62.3015L70.8835 62.8841L70.0028 63.6401L69.1221 62.8841L69.8008 62.3015Z" fill="white"/>
        <path d="M75.1293 60.6145V58.7001L74.4173 59.4121V59.9928L73.787 59.4085L75.3316 57.8638L76.876 59.4085L76.2456 59.9928V59.4121L75.5336 58.7001V60.6145L76.212 61.1971L75.3316 61.9531L74.4506 61.1971L75.1293 60.6145Z" fill="#D22630"/>
        <path d="M65.0942 60.0931L64.5208 60.8855L65.9912 62.2428L64.6202 63.3695V62.5715L64.0468 62.0808V63.5281L65.3418 64.4828L62.9988 66.2095L60.6558 64.4828L61.9515 63.5281V62.0808L61.3782 62.5715V63.3695L60.0068 62.2428L61.4775 60.8855L60.9042 60.0931H65.0942Z" fill="#383739"/>
        <path d="M61.1839 60.2359L61.6673 60.9046L60.2246 62.2366L61.2353 63.0669V62.5056L62.0943 61.7702V63.6002L60.8969 64.4826L62.9993 66.0322L65.1013 64.4826L63.9043 63.6002V61.7702L64.7633 62.5056V63.0669L65.7739 62.2366L64.3309 60.9046L64.8146 60.2359H61.1839Z" fill="#D22630"/>
        <path d="M61.9287 64.4826L62.9994 63.6936L64.07 64.4826L62.9994 65.272L62.957 65.2403L61.9287 64.4826Z" fill="#383739"/>
        <path d="M62.9989 65.0942L63.8289 64.4826L62.9989 63.8709L62.1689 64.4826L62.9989 65.0942Z" fill="#00843D"/>
        <path d="M81.9676 54.3831H79.6219V53.4481H72.4516L67.4602 50.1694H58.5386L53.5473 53.4481H46.3772V54.3831H44.0312V56.0224H46.3769V56.9574H53.5473L58.5386 60.2361H67.4602L72.4516 56.9574H79.6216V56.0224H81.9676V54.3831Z" fill="#383739"/>
        <path d="M58.5805 50.3179L53.5838 53.5842H46.5218V54.5199H44.1738V55.8792H46.5218V56.8152H53.5842L58.5805 60.0989H67.4258L72.4045 56.8152H79.4845V55.8792H81.8325V54.5199H79.4845V53.5842H72.4045L67.4258 50.3179H58.5805ZM58.6865 50.7945H67.3022L71.8748 53.7959V54.2549H76.9775V56.1615H71.8748V56.6209L67.3022 59.6045H58.6865L54.1315 56.6209V56.1619H49.0115V54.2552H54.1315V53.7959L58.6865 50.7945Z" fill="#D22630"/>
        <path d="M67.2661 50.9419L71.7258 53.8696V54.3896H76.8365V56.0162H71.7258V56.5359L67.2661 59.4636H58.7315L54.2715 56.5359V56.0159H49.1611V54.3892H54.2718V53.8696L58.7315 50.9419H67.2661Z" fill="#D22630"/>
        <path d="M56.517 56.8659L58.448 58.3156L59.718 57.3616L58.9797 56.8073L58.448 57.2066L57.994 56.8659L65.2657 51.4062H63.789L56.517 56.8659ZM60.732 58.9993H62.2087L69.4807 53.5399L67.55 52.0906L66.2797 53.0439L67.018 53.5983L67.55 53.1989L68.004 53.5399L60.732 58.9993ZM63.789 58.9993H65.2657L57.994 53.5399L58.448 53.1989L58.9797 53.5983L59.7184 53.0443L58.448 52.0906L56.517 53.5399L63.789 58.9993ZM68.004 56.8659L67.55 57.2066L67.018 56.8073L66.2797 57.3616L67.55 58.3156L69.4807 56.8659L62.2087 51.4062H60.732L68.004 56.8659ZM55.0547 55.2029L56.3524 56.0649L57.6504 55.2029L56.3524 54.3409L55.0547 55.2029Z" fill="#383739"/>
        <path d="M61.7012 55.2028L62.9988 56.0648L64.2968 55.2028L62.9988 54.3408L61.7012 55.2028ZM70.9438 55.2028L69.6462 56.0648L68.3482 55.2028L69.6462 54.3408L70.9438 55.2028Z" fill="#383739"/>
        <path d="M69.2429 56.866L67.5502 58.137L66.5175 57.3617L67.0182 56.986L67.5502 57.3853L68.2419 56.866L61.1602 51.5493H62.1612L69.2429 56.866ZM64.8376 58.8567H63.8365L56.7552 53.54L58.4482 52.269L59.4802 53.0443L58.9799 53.4197L58.4482 53.0203L57.7562 53.54L64.8376 58.8567ZM62.1612 58.8567H61.1602L68.2419 53.54L67.5502 53.0203L67.0182 53.4197L66.5175 53.0443L67.5502 52.269L69.2429 53.54L62.1612 58.8567ZM63.8365 51.5493H64.8376L57.7562 56.866L58.4482 57.3853L58.9799 56.986L59.4802 57.3617L58.4482 58.137L56.7549 56.866L63.8365 51.5493Z" fill="#FFC72C"/>
        <path d="M56.3522 54.5127L57.3918 55.203L56.3522 55.8934L55.3125 55.2034L56.3522 54.5127ZM62.9992 54.5127L64.0388 55.203L62.9992 55.8934L61.9598 55.2034L62.9992 54.5127ZM69.6462 54.5127L68.6065 55.203L69.6462 55.8934L70.6855 55.2034L69.6462 54.5127Z" fill="#00843D"/>
        <path d="M40.1718 91.3841L39.6624 92.1041L40.5754 92.8024L39.6621 93.5004L40.1714 94.2204L41.2321 94.3437L42.2591 93.5504L44.8198 95.1771V93.8261L43.2081 92.8024L44.8198 91.7787V90.4277L42.2591 92.0544L41.2324 91.2611L40.1718 91.3841Z" fill="#383739"/>
        <path d="M40.1718 86.6912L39.6624 87.4115L40.5754 88.1095L39.6621 88.8075L40.1714 89.5279L41.2321 89.6512L42.2591 88.8575L44.8198 90.4842V89.1332L43.2081 88.1099L44.8198 87.0859V85.7349L42.2591 87.3615L41.2324 86.5682L40.1718 86.6912ZM40.1718 98.9132L39.6624 98.1932L40.5754 97.4949L39.6621 96.7969L40.1714 96.0769L41.2321 95.9535L42.2591 96.7469L44.8198 95.1202V96.4712L43.2081 97.4949L44.8198 98.5185V99.8695L42.2591 98.2429L41.2324 99.0362L40.1718 98.9132ZM85.8278 91.3839L86.3371 92.1039L85.4241 92.8022L86.3371 93.5002L85.8278 94.2202L84.7674 94.3435L83.7404 93.5502L81.1794 95.1769V93.8259L82.7914 92.8022L81.1794 91.7785V90.4275L83.7404 92.0542L84.7671 91.2609L85.8278 91.3839Z" fill="#383739"/>
        <path d="M85.8278 86.6912L86.3372 87.4115L85.4242 88.1095L86.3372 88.8075L85.8278 89.5278L84.7675 89.6512L83.7405 88.8575L81.1795 90.4842V89.1332L82.7915 88.1098L81.1795 87.0858V85.7348L83.7405 87.3615L84.7672 86.5682L85.8278 86.6912ZM85.8278 98.9132L86.3372 98.1932L85.4242 97.4948L86.3372 96.7968L85.8278 96.0768L84.7675 95.9535L83.7405 96.7468L81.1795 95.1202V96.4712L82.7915 97.4948L81.1795 98.5185V99.8695L83.7405 98.2428L84.7672 99.0362L85.8278 98.9132ZM75.5762 78.5768V80.5288H76.9962V81.3915H78.3908V79.8205H77.1468V78.5768H75.5762ZM79.7615 81.6552V83.6068H81.1798V84.4698H82.5762V82.8988H81.3322V81.6552H79.7615ZM50.4235 78.5768V80.5288H49.0035V81.3915H47.6088V79.8205H48.8528V78.5768H50.4235ZM75.5762 107.028V105.076H76.9962V104.213H78.3908V105.784H77.1468V107.028H75.5762ZM50.4235 107.028V105.076H49.0035V104.213H47.6088V105.784H48.8528V107.028H50.4235ZM79.7615 103.949V101.998H81.1798V101.135H82.5762V102.705H81.3322V103.949H79.7615ZM46.2385 81.6552V83.6068H44.8198V84.4698H43.4238V82.8988H44.6678V81.6552H46.2385ZM46.2385 103.949V101.998H44.8198V101.135H43.4238V102.705H44.6678V103.949H46.2385ZM68.2515 78.5315L67.1682 77.4795L66.1035 78.4658L67.0312 79.3662L65.8338 80.5288H67.6118L68.2515 79.9078L68.8915 80.5288H70.6692L69.4715 79.3662L70.3992 78.4658L69.3348 77.4795C68.9732 77.8295 68.6125 78.1808 68.2515 78.5315ZM62.9998 78.5315L61.9165 77.4795L60.8522 78.4658L61.7798 79.3662L60.5822 80.5288H62.3602L62.9998 79.9078L63.6398 80.5288H65.4175L64.2202 79.3662L65.1475 78.4658L64.0835 77.4795C63.7218 77.8295 63.3612 78.1808 62.9998 78.5315ZM57.7485 78.5315L58.8318 77.4795L59.8965 78.4658L58.9688 79.3662L60.1662 80.5288H58.3882L57.7485 79.9078L57.1085 80.5288H55.3308L56.5285 79.3662L55.6008 78.4658L56.6652 77.4795C57.0268 77.8295 57.3875 78.1808 57.7485 78.5315ZM68.2515 107.073L67.1682 108.125L66.1035 107.139L67.0312 106.238L65.8338 105.076H67.6118L68.2515 105.697L68.8915 105.076H70.6692L69.4715 106.238L70.3992 107.138L69.3348 108.125C68.9732 107.775 68.6125 107.424 68.2515 107.073ZM62.9998 107.073L61.9165 108.125L60.8522 107.139L61.7798 106.238L60.5822 105.076H62.3602L62.9998 105.697L63.6398 105.076H65.4175L64.2202 106.238L65.1475 107.138L64.0835 108.125C63.7218 107.775 63.3612 107.424 62.9998 107.073ZM57.7485 107.073L58.8318 108.125L59.8965 107.139L58.9688 106.238L60.1662 105.076H58.3882L57.7485 105.697L57.1085 105.076H55.3308L56.5285 106.238L55.6008 107.138L56.6652 108.125C57.0268 107.775 57.3875 107.424 57.7485 107.073Z" fill="#383739"/>
        <path d="M44.6767 93.9043V94.9166L42.2507 93.3756L41.1907 94.1949L40.2511 94.0859L39.8584 93.5299L40.8104 92.8019L39.8584 92.0739L40.2514 91.5183L41.1904 91.4093L42.2507 92.2286L44.6767 90.6876V91.6996L42.9414 92.8019L44.6767 93.9043ZM44.6767 89.2116V90.2239L42.2507 88.6829L41.1907 89.5023L40.2511 89.3933L39.8584 88.8373L40.8104 88.1093L39.8584 87.3816L40.2514 86.8259L41.1904 86.7166L42.2507 87.5359L44.6767 85.9949V87.0073L42.9414 88.1093L44.6767 89.2116ZM44.6767 96.3926V95.3803L42.2507 96.9213L41.1907 96.1019L40.2511 96.2109L39.8584 96.7669L40.8104 97.4949L39.8584 98.2229L40.2514 98.7786L41.1904 98.8876L42.2507 98.0683L44.6767 99.6093V98.5973L42.9414 97.4949L44.6767 96.3926ZM81.3227 93.9043V94.9166L83.7487 93.3756L84.8087 94.1949L85.7481 94.0859L86.1411 93.5299L85.1891 92.8019L86.1411 92.0739L85.7481 91.5183L84.8087 91.4093L83.7487 92.2286L81.3227 90.6876V91.6996L83.0581 92.8019L81.3227 93.9043ZM81.3227 89.2116V90.2239L83.7487 88.6829L84.8087 89.5023L85.7481 89.3933L86.1411 88.8373L85.1891 88.1093L86.1411 87.3816L85.7481 86.8259L84.8087 86.7166L83.7487 87.5359L81.3227 85.9949V87.0073L83.0581 88.1093L81.3227 89.2116ZM81.3227 96.3926V95.3803L83.7487 96.9213L84.8087 96.1019L85.7481 96.2109L86.1411 96.7669L85.1891 97.4949L86.1411 98.2229L85.7481 98.7786L84.8087 98.8876L83.7487 98.0683L81.3227 99.6093V98.5973L83.0581 97.4949L81.3227 96.3926ZM77.0041 78.7196V79.9636H78.2477V81.2486H77.1391V80.3859H75.7191V78.7196H77.0041ZM81.1891 81.7976V83.0413H82.4327V84.3266H81.3237V83.4639H79.9041V81.7976H81.1891ZM48.9954 78.7196V79.9636H47.7517V81.2486H48.8607V80.3859H50.2804V78.7196H48.9954ZM77.0041 106.884V105.641H78.2477V104.356H77.1391V105.218H75.7191V106.884H77.0041ZM48.9954 106.884V105.641H47.7514V104.356H48.8604V105.218H50.2804V106.884H48.9954ZM81.1891 103.806V102.563H82.4327V101.278H81.3237V102.14H79.9041V103.806H81.1891ZM44.8104 81.7976V83.0413H43.5667V84.3266H44.6757V83.4639H46.0954V81.7976H44.8104ZM44.8107 103.806V102.563H43.5667V101.278H44.6757V102.14H46.0957V103.806H44.8107ZM67.1657 77.6763L68.2514 78.7303L69.3371 77.6763L70.1917 78.4679L69.2664 79.3659L70.3167 80.3859H68.9494L68.2514 79.7083L67.5534 80.3859H66.1861L67.2364 79.3659L66.3111 78.4679L67.1657 77.6763ZM61.9141 77.6763L62.9997 78.7303L64.0854 77.6763L64.9397 78.4679L64.0147 79.3659L65.0651 80.3859H63.6974L62.9997 79.7083L62.3017 80.3859H60.9344L61.9844 79.3659L61.0594 78.4679L61.9141 77.6763ZM58.8344 77.6763L57.7487 78.7303L56.6631 77.6763L55.8084 78.4679L56.7337 79.3659L55.6834 80.3859H57.0507L57.7487 79.7083L58.4467 80.3859H59.8141L58.7637 79.3659L59.6891 78.4679L58.8344 77.6763ZM67.1657 107.928L68.2514 106.874L69.3371 107.928L70.1917 107.136L69.2664 106.238L70.3167 105.218H68.9494L68.2514 105.896L67.5534 105.218H66.1861L67.2364 106.238L66.3111 107.136L67.1657 107.928ZM61.9141 107.928L62.9997 106.874L64.0854 107.928L64.9397 107.136L64.0147 106.238L65.0651 105.218H63.6974L62.9997 105.896L62.3017 105.218H60.9344L61.9844 106.238L61.0594 107.136L61.9141 107.928ZM58.8344 107.928L57.7487 106.874L56.6631 107.928L55.8084 107.136L56.7337 106.238L55.6834 105.218H57.0507L57.7487 105.896L58.4467 105.218H59.8141L58.7637 106.238L59.6891 107.136L58.8344 107.928Z" fill="#00843D"/>
        <path d="M48.8601 102.141V105.219H77.1388V102.141H81.3221V83.4639H77.1388V80.3862H48.8601V83.4642H44.6768V102.141H48.8601Z" fill="#383739"/>
        <path d="M49.0115 80.5259V83.5982H44.8271V101.995H49.0115V105.067H76.9948V101.995H81.1798V83.5982H76.9951V80.5259H49.0115ZM50.8125 81.7092H75.1945V84.6749L76.2008 85.4169H79.9968V100.194H76.1835L75.1945 100.918V103.902H50.8125V100.936L49.8058 100.194H45.9925V85.4169H49.7885L50.8125 84.6749V81.7089V81.7092Z" fill="#FFC72C"/>
        <path d="M50.9537 81.8501V84.5694L54.626 81.8501H50.9537ZM71.363 81.8501L75.0354 84.5694V81.8501H71.363ZM46.1514 85.5581V88.1004L49.612 85.5581H46.1514ZM76.3777 85.5581L79.8557 88.1181V85.5581H76.3777ZM79.8557 97.4748L76.3777 100.053H79.8557V97.4748ZM46.1514 97.4924V100.053H49.6117L46.1514 97.4924ZM50.9537 101.041V103.743H54.6084L50.9537 101.041ZM75.0354 101.041L71.381 103.743H75.0354V101.041Z" fill="#D22630"/>
        <path d="M71.1259 81.8529L79.8552 88.3002V97.3035L71.1259 103.751H54.8726L46.1436 97.3035V88.2999L54.8726 81.8525L71.1259 81.8529Z" fill="#00843D"/>
        <path d="M48.2224 98.3401L47.2191 97.1755L48.1611 96.0821L47.2188 94.9888L48.1611 93.8955L47.2188 92.8021L48.1611 91.7088L47.2188 90.6151L48.1607 89.5218L47.2188 88.4285L48.2224 87.2638H77.7761L78.7797 88.4285L77.8377 89.5218L78.7797 90.6151L77.8377 91.7085L78.7797 92.8018L77.8377 93.8951L78.7797 94.9885L77.8377 96.0818L78.7797 97.1751L77.7764 98.3401H48.2224ZM68.5377 83.2615L67.3727 82.2578L66.2794 83.1998L65.1861 82.2578L64.0927 83.1998L62.9994 82.2578L61.9061 83.1998L60.8124 82.2578L59.7191 83.1998L58.6257 82.2578L57.4611 83.2611V102.342L58.6257 103.346L59.7191 102.404L60.8124 103.346L61.9057 102.404L62.9991 103.346L64.0924 102.404L65.1857 103.346L66.2791 102.404L67.3727 103.346L68.5377 102.342V83.2615Z" fill="#383739"/>
        <path d="M66.208 83.327L65.1864 82.4463L64.1644 83.327V102.277L65.1864 103.157L66.208 102.277V83.327ZM61.8347 83.327L60.8127 82.4463L59.791 83.327V102.277L60.8127 103.157L61.8347 102.277V83.327Z" fill="#FFC72C"/>
        <path d="M48.2876 98.1974L47.4072 97.1754L48.2876 96.1534H77.7106L78.5909 97.1754L77.7106 98.1974H48.2876ZM77.7106 91.7797L78.5912 92.8017L77.7106 93.8234H48.2879L47.4072 92.8017L48.2879 91.7797H77.7106ZM77.7106 89.4504L78.5909 88.4284L77.7106 87.4067H48.2876L47.4072 88.4284L48.2876 89.4504H77.7106Z" fill="#FFC72C"/>
        <path d="M68.3945 83.327L67.3728 82.4463L66.3508 83.327V102.277L67.3728 103.157L68.3942 102.277L68.3945 83.327ZM59.6475 83.327L58.6255 82.4463L57.6035 83.327V102.277L58.6255 103.157L59.6475 102.277V83.327Z" fill="#D22630"/>
        <path d="M48.2879 96.0106L47.4072 94.9886L48.2879 93.9666H77.7106L78.5912 94.9886L77.7106 96.0106H48.2879ZM48.2879 91.6373L47.4072 90.6153L48.2879 89.5933H77.7106L78.5912 90.6153L77.7106 91.6373H48.2879Z" fill="#D22630"/>
        <path d="M64.0215 102.277L62.9995 103.157L61.9775 102.277V83.327L62.9995 82.4463L64.0215 83.327V102.277Z" fill="#D22630"/>
        <path d="M72.8773 83.6968H53.0506V85.2714H50.5166V100.333H53.0506V101.907H72.9486V100.333H75.4826V85.2714H72.9486V83.6968H72.8773Z" fill="#383739"/>
        <path d="M53.1957 83.8452V85.4169H50.6533V100.194H53.1957V101.766H55.279L51.13 98.2875V87.3235L55.279 83.8455L53.1957 83.8452ZM70.7277 83.8452L74.8587 87.3232V98.2875L70.7277 101.766H72.811V100.194H75.3357V85.4169H72.8107V83.8452H70.7277Z" fill="#D22630"/>
        <path d="M55.5088 83.8452L51.2715 87.3939V98.2165C51.3215 98.2589 55.4695 101.732 55.5088 101.765H70.4981L74.7178 98.2165V87.3939L70.4981 83.8452H55.5088ZM55.7208 84.4452H70.2688L74.1175 87.6765V97.9342L70.2688 101.148H55.7205L51.8891 97.9342V87.6765L55.7208 84.4452Z" fill="#00843D"/>
        <path d="M59.5742 98.0968L60.2255 98.3781L60.3452 99.1388L59.5252 99.8601L60.7162 101.011H59.5705L58.7512 100.223L57.9319 101.011H56.7859L57.9769 99.8601L57.1569 99.1388L57.2769 98.3781L57.9279 98.0968L58.7512 98.7551L58.7959 98.7194L59.5742 98.0968ZM63.8235 98.0968L64.4745 98.3781L64.5945 99.1388L63.7745 99.8601L64.9655 101.011H63.8199L63.0002 100.223L62.1812 101.011H61.0352L62.2262 99.8601L61.4062 99.1388L61.5262 98.3781L62.1772 98.0968L63.0005 98.7551L63.0449 98.7194L63.8235 98.0968ZM66.4265 98.0968L65.7755 98.3781L65.6555 99.1388L66.4755 99.8601L65.2845 101.011H66.4302L67.2499 100.223L68.0689 101.011H69.2149L68.0239 99.8601L68.8439 99.1388L68.7239 98.3781L68.0729 98.0968L67.2495 98.7551L67.2049 98.7194L66.4265 98.0968ZM59.5742 87.5081L60.2255 87.2267L60.3452 86.4664L59.5252 85.7451L60.7162 84.5938H59.5705L58.7512 85.3821L57.9319 84.5938H56.7859L57.9769 85.7451L57.1569 86.4661L57.2769 87.2267L57.9279 87.5081L58.7512 86.8501L58.7959 86.8858L59.5742 87.5081ZM63.8235 87.5081L64.4745 87.2267L64.5945 86.4664L63.7745 85.7451L64.9655 84.5938H63.8199L63.0002 85.3821L62.1812 84.5938H61.0352L62.2262 85.7451L61.4062 86.4661L61.5262 87.2267L62.1772 87.5081L63.0005 86.8501L63.0449 86.8858L63.8235 87.5081ZM66.4265 87.5081L65.7755 87.2267L65.6555 86.4664L66.4755 85.7451L65.2845 84.5938H66.4302L67.2499 85.3821L68.0689 84.5938H69.2149L68.0239 85.7451L68.8439 86.4661L68.7239 87.2267L68.0729 87.5081L67.2495 86.8501L67.2049 86.8858L66.4265 87.5081ZM73.9679 88.7227L73.3179 89.2611L73.9679 89.7991V90.6911L72.9682 89.8674L72.2509 90.5174L71.4815 90.4207L71.2105 89.9207L71.8725 89.2608L71.2105 88.6007L71.4815 88.1007C71.5455 88.0931 72.1932 88.0114 72.2509 88.0041L72.9682 88.6541L73.9679 87.8307V88.7227ZM73.9679 92.2644L73.3179 92.8028L73.9679 93.3404V94.2327L72.9682 93.4091L72.2509 94.0591C72.1932 94.0517 71.5455 93.9701 71.4815 93.9624L71.2105 93.4624L71.8725 92.8024L71.2105 92.1424L71.4815 91.6424C71.5455 91.6347 72.1932 91.5531 72.2509 91.5457L72.9682 92.1958L73.9679 91.3724V92.2644ZM73.9679 96.8824L73.3179 96.3441L73.9679 95.8061V94.9141L72.9682 95.7378L72.2509 95.0877L71.4815 95.1844L71.2105 95.6844L71.8725 96.3444L71.2105 97.0044L71.4815 97.5044C71.5455 97.5121 72.1932 97.5938 72.2509 97.6011L72.9682 96.9511L73.9679 97.7744V96.8824ZM52.0332 88.7227L52.6832 89.2611L52.0332 89.7991V90.6911L53.0329 89.8674L53.7502 90.5174L54.5195 90.4207L54.7905 89.9207L54.1285 89.2608L54.7905 88.6007L54.5195 88.1007C54.4555 88.0931 53.8075 88.0114 53.7502 88.0041L53.0329 88.6541L52.0332 87.8307V88.7227ZM52.0332 92.2644L52.6832 92.8028L52.0332 93.3404V94.2327L53.0329 93.4091L53.7502 94.0591C53.8075 94.0517 54.4555 93.9701 54.5195 93.9624L54.7905 93.4624L54.1285 92.8024L54.7905 92.1424L54.5195 91.6424C54.4555 91.6347 53.8075 91.5531 53.7502 91.5457L53.0329 92.1958L52.0332 91.3724V92.2644ZM52.0332 96.8824L52.6832 96.3441L52.0332 95.8061V94.9141L53.0329 95.7378L53.7502 95.0877L54.5195 95.1844L54.7905 95.6844L54.1285 96.3444L54.7905 97.0044L54.5195 97.5044C54.4555 97.5121 53.8075 97.5938 53.7502 97.6011L53.0329 96.9511L52.0332 97.7744V96.8824Z" fill="#00843D"/>
        <path d="M55.7733 84.5869C55.7346 84.6192 52.2393 87.5456 52.0833 87.6769C52.3983 87.9379 52.7033 88.2109 53.0189 88.4712C53.0989 88.3989 53.7076 87.8529 53.7076 87.8529L54.6079 87.9766L54.9613 88.6299L54.3256 89.2656C54.4119 89.3512 54.9609 89.9009 54.9609 89.9009L54.6079 90.5542L53.7076 90.6602C53.7076 90.6602 53.0989 90.1322 53.0189 90.0602L52.0303 90.8896V91.1722C52.3629 91.4476 52.6853 91.7269 53.0189 92.0022C53.0989 91.9299 53.7076 91.4019 53.7076 91.4019L54.6079 91.5076L54.9613 92.1609L54.3256 92.7966C54.4119 92.8823 54.9609 93.4322 54.9609 93.4322L54.6079 94.1029L53.7076 94.2089C53.7076 94.2089 53.0989 93.6636 53.0189 93.5909L52.0303 94.4209V94.7209L53.0189 95.5509C53.0989 95.4786 53.7076 94.9329 53.7076 94.9329L54.6079 95.0562L54.9613 95.7096L54.3256 96.3453L54.9609 96.9809L54.6079 97.6343L53.7076 97.7576C53.7076 97.7576 53.0989 97.2122 53.0189 97.1396C52.7043 97.3989 52.3973 97.6576 52.0833 97.9166L55.7733 101.007H56.5853L57.7686 99.8586L57.0093 99.1879L57.1503 98.2696L57.9449 97.9343L58.7569 98.5699L59.5516 97.9343L60.3459 98.2696L60.5049 99.1879L59.7283 99.8586L60.8756 100.953L62.0233 99.8586L61.2466 99.1879L61.3876 98.2696L62.1999 97.9343L62.9943 98.5699L63.8063 97.9343L64.6009 98.2696L64.7423 99.1879L63.9829 99.8586L65.1129 100.971L66.2606 99.8586L65.5013 99.1879L65.6426 98.2696L66.4546 97.9343L67.2493 98.5699L68.0436 97.9343L68.8559 98.2696L68.9973 99.1879L68.2379 99.8586L69.4209 101.006H70.2153L73.9053 97.9166C73.5909 97.6576 73.2846 97.3996 72.9696 97.1399C72.8896 97.2123 72.2986 97.7576 72.2986 97.7576L71.3983 97.6343L71.0276 96.9809L71.6629 96.3453L71.0276 95.7096L71.3983 95.0562L72.2986 94.9329C72.2986 94.9329 72.8896 95.4786 72.9696 95.5509L73.9583 94.7209V94.4209L72.9696 93.5909C72.8896 93.6636 72.2986 94.2089 72.2986 94.2089L71.3983 94.1029L71.0276 93.4322L71.6629 92.7966L71.0276 92.1609L71.3983 91.5076L72.2986 91.4019C72.2986 91.4019 72.8896 91.9299 72.9696 92.0019C73.3009 91.7289 73.6276 91.4619 73.9583 91.1899V90.8722L72.9696 90.0599C72.8896 90.1322 72.2986 90.6599 72.2986 90.6599L71.3983 90.5542L71.0276 89.9009L71.6629 89.2656L71.0276 88.6299L71.3983 87.9766L72.2986 87.8532C72.2986 87.8532 72.8896 88.3989 72.9696 88.4709C73.2863 88.2102 73.6066 87.9549 73.9229 87.6942L70.2153 84.5869H69.4209L68.2379 85.7342L68.9969 86.4052L68.8559 87.3232L68.0436 87.6766L67.2493 87.0409L66.4546 87.6766L65.6426 87.3232L65.5013 86.4052L66.2606 85.7342L65.1306 84.6396L63.9829 85.7342L64.7423 86.4052L64.6009 87.3232L63.8063 87.6766L62.9943 87.0409L62.1999 87.6766L61.3876 87.3232L61.2463 86.4052L62.0229 85.7342L60.8756 84.6396L59.7279 85.7342L60.5046 86.4052L60.3459 87.3232L59.5516 87.6766L58.7569 87.0409L57.9449 87.6766L57.1503 87.3232L57.0093 86.4052L57.7683 85.7342L56.5676 84.5869H55.7733ZM52.0303 92.4436V93.1673L52.4539 92.7966L52.0303 92.4436Z" fill="#D22630"/>
        <path d="M58.7569 100.424L58.1389 101.006H59.3569L58.7569 100.424ZM62.9943 100.424L62.3943 101.006H63.6123L62.9943 100.424ZM67.2489 100.424L66.6313 101.006H67.8669L67.2489 100.424ZM58.1213 84.5869L58.7569 85.1869L59.3749 84.5869H58.1213ZM62.3763 84.5869L62.9943 85.1869L63.6299 84.5869H62.3763ZM66.6316 84.5869L67.2493 85.1869L67.8673 84.5869H66.6316ZM73.9583 88.9122L73.5346 89.2656L73.9583 89.6009V88.9122ZM73.9583 92.4432L73.5346 92.7966L73.9583 93.1496V92.4432ZM73.9583 95.9919L73.5346 96.3452L73.9583 96.6982V95.9919ZM52.0303 88.8949V89.6186L52.4539 89.2652L52.0303 88.8949ZM52.0303 92.4432V93.1669L52.4539 92.7962L52.0303 92.4432ZM52.0303 95.9746V96.6982L52.4539 96.3449L52.0303 95.9746Z" fill="white"/>
        <path d="M66.6336 91.6191V90.3554H65.3546V88.9697H60.644V90.3554H59.365V91.6191H57.5986V93.9851H59.3653V95.2484H60.644V96.6344H65.3546V95.2487H66.6336V93.9851H68.4V91.6191H66.6336Z" fill="#383739"/>
        <path d="M62.9275 89.1128V90.5411L60.9029 91.6921V92.7308H57.7412V91.7621H59.5075V90.4985H60.7865V89.1128H62.9275ZM63.0705 96.4918V95.0635L65.0952 93.9125V92.8738H68.2569V93.8425H66.4905V95.1061H65.2115V96.4918H63.0705Z" fill="#FFC72C"/>
        <path d="M65.0949 92.7308V91.6921L63.0702 90.5411V89.1128H65.2112V90.4985H66.4902V91.7618H68.2565V92.7308H65.0949ZM57.7412 92.8738H60.9025V93.9125L62.9275 95.0635V96.4918H60.7865V95.1061H59.5075V93.8425H57.7412V92.8738Z" fill="white"/>
        <path d="M61.0459 92.8735V93.8362L62.9276 94.9062V92.8735H61.0459Z" fill="#D22630"/>
        <path d="M62.9276 90.6982L61.0459 91.7682V92.7309H62.9276V90.6982Z" fill="#00843D"/>
        <path d="M64.953 92.7309V91.7682L63.0713 90.6982V92.7309H64.953Z" fill="#D22630"/>
        <path d="M63.0703 94.9062L64.952 93.8362V92.8735H63.0703V94.9062Z" fill="#00843D"/>
        <path d="M45.8827 117.91V121.816H42.161V125.358H38.3887V135.444H42.161V138.987H45.8827V142.892H59.4153L61.7953 144.322L60.6513 145.009H55.826L55.41 144.54H59.783L58.551 143.299H52.2953L55.1297 146.25H60.9957L62.9993 145.046L65.0033 146.25H70.8697L73.7037 143.299H67.4483L66.2163 144.54H70.5897L70.173 145.009H65.3473L64.204 144.322L66.584 142.892H80.1163V138.987H83.8383V135.444H87.6103V125.358H83.8383V121.816H80.1163V117.91H66.584L64.204 116.48L65.3473 115.793H70.173L70.5897 116.262H66.2163L67.4483 117.503H73.7037L70.8697 114.552H65.003L62.9997 115.756L60.9957 114.552H55.1297L52.2953 117.503H58.551L59.783 116.262H55.4097L55.8263 115.793H60.6513L61.795 116.48L59.415 117.91H45.8827Z" fill="#D22630"/>
        <path d="M66.5431 142.743H79.9788V138.841H83.6864V135.293H87.4648V125.494H83.6864V121.963H79.9788V118.061H66.5434L60.9644 114.689H55.1911L52.6311 117.355H58.4924L59.4458 116.402H55.0851L55.7561 115.642H60.6994L67.0201 119.456H78.5667V123.358H82.2921V126.906H86.0704V133.898H82.2921V137.447H78.5667V141.349H67.0201L60.6994 145.144H55.7561L55.0851 144.403H59.4461L58.4927 143.45H52.6311L55.1911 146.116H60.9644L66.5431 142.743ZM58.9691 141.349H47.4224V137.447H43.7147V133.898H39.9364V126.906H43.7147V123.358H47.4224V119.456H58.9691L65.3071 115.642H70.2334L70.9044 116.402H66.5611L67.5144 117.355H73.3761L70.8161 114.689H65.0428L59.4638 118.061H46.0281V121.963H42.3027V125.494H38.5244V135.293H42.3027V138.842H46.0281V142.743H59.4638L65.0428 146.116H70.8161L73.3761 143.45H67.5144L66.5611 144.403H70.9044L70.2334 145.144H65.3078L58.9691 141.349Z" fill="#FFC72C"/>
        <path d="M77.447 136.318V140.224H66.7136L62.9986 142.456L59.284 140.224H48.5506V136.318H44.8286V132.775H41.0566V128.027H44.8286V124.484H48.5506V120.579H59.284L62.9986 118.347L66.7136 120.579H77.447V124.484H81.1686V128.027H84.9406V132.775H81.1686V136.318H77.447Z" fill="#00843D"/>
        <path d="M49.9561 134.95V138.73H55.8561L49.9561 134.816V134.95ZM49.9561 125.853V122.073H55.8561L49.9561 125.986V125.853ZM76.0421 134.95V138.73H70.1421L76.0421 134.816V134.95ZM76.0421 125.853V122.073H70.1421L76.0421 125.986V125.853Z" fill="#383739"/>
        <path d="M50.0986 135.083L55.382 138.587H50.0986V135.083ZM50.0986 125.72C50.304 125.583 55.022 122.454 55.382 122.215H50.0986V125.72ZM75.8986 135.083L70.6153 138.587H75.8986V135.083ZM75.8986 125.72L70.6153 122.215H75.8986V125.72Z" fill="#D22630"/>
        <path d="M57.4816 129.365V127.434H56.8233L53.6643 125.459L53.6266 125.483L50.506 127.434H49.8473V129.365H48.3623V131.438H49.8473V133.368H50.506L53.6643 135.343L56.8233 133.368H57.4816V131.438H59.7423V129.365H57.4816Z" fill="#383739"/>
        <path d="M53.6644 125.628L56.5537 127.435H50.7754L53.6644 125.628ZM56.5534 133.368L53.6644 135.175L50.7757 133.368H56.5534ZM55.8537 129.508V131.295H52.2507V129.508H55.8537Z" fill="#D22630"/>
        <path d="M57.3385 131.438V133.226H53.7355V131.438H57.3385ZM53.5929 131.438V133.226H49.9899V131.438H53.5929ZM59.5992 129.508V131.296H55.9962V129.508H59.5992ZM52.1079 129.508V131.296H48.5049V129.508H52.1079ZM57.3385 127.578V129.365H53.7355V127.578H57.3385ZM53.5929 127.578V129.365H49.9899V127.578H53.5929Z" fill="#FFC72C"/>
        <path d="M51.1164 129.905V130.898H49.498V129.905H51.1164ZM52.6014 127.975V128.968H50.983V127.975H52.6014ZM56.3467 127.975V128.968H54.7284V127.975H56.3467ZM54.8617 129.905V130.898H53.2434V129.905H54.8617ZM58.6074 129.905V130.898H56.989V129.905H58.6074ZM56.3467 131.835V132.829H54.7284V131.835H56.3467ZM52.6014 131.835V132.829H50.983V131.835H52.6014Z" fill="#383739"/>
        <path d="M50.9637 130.057H49.6504V130.746H50.9637V130.057ZM52.4487 128.127H51.1354V128.815H52.4487V128.127ZM56.1944 128.127H54.8811V128.815H56.1944V128.127ZM54.7094 130.057H53.3961V130.746H54.7094V130.057ZM58.4551 130.057H57.1417V130.746H58.4551V130.057ZM56.1944 131.988H54.8811V132.676H56.1944V131.988ZM52.4487 131.988H51.1354V132.676H52.4487V131.988Z" fill="white"/>
        <path d="M68.5164 129.365V127.434H69.1747L72.3337 125.459L72.3714 125.483L75.4921 127.434H76.1507V129.365H77.6357V131.438H76.1507V133.368H75.4921L72.3337 135.343L69.1747 133.368H68.5164V131.438H66.2557V129.365H68.5164Z" fill="#383739"/>
        <path d="M72.3337 125.628L69.4443 127.435H75.2227L72.3337 125.628ZM69.4447 133.368L72.3337 135.175L75.2223 133.368H69.4447ZM70.1443 129.508V131.295H73.7473V129.508H70.1443Z" fill="#D22630"/>
        <path d="M68.6595 131.438V133.226H72.2625V131.438H68.6595ZM72.4052 131.438V133.226H76.0082V131.438H72.4052ZM66.3988 129.508V131.296H70.0018V129.508H66.3988ZM73.8902 129.508V131.296H77.4932V129.508H73.8902ZM68.6595 127.578V129.365H72.2625V127.578H68.6595ZM72.4052 127.578V129.365H76.0082V127.578H72.4052Z" fill="#FFC72C"/>
        <path d="M74.8817 129.905V130.898H76.5V129.905H74.8817ZM73.3967 127.975V128.968H75.015V127.975H73.3967ZM69.6513 127.975V128.968H71.2697V127.975H69.6513ZM71.1363 129.905V130.898H72.7547V129.905H71.1363ZM67.3907 129.905V130.898H69.009V129.905H67.3907ZM69.6513 131.835V132.829H71.2697V131.835H69.6513ZM73.3967 131.835V132.829H75.015V131.835H73.3967Z" fill="#383739"/>
        <path d="M75.0343 130.057H76.3477V130.746H75.0343V130.057ZM73.5493 128.127H74.8627V128.815H73.5493V128.127ZM69.8037 128.127H71.117V128.815H69.8037V128.127ZM71.2887 130.057H72.602V130.746H71.2887V130.057ZM67.543 130.057H68.8563V130.746H67.543V130.057ZM69.8037 131.988H71.117V132.676H69.8037V131.988ZM73.5493 131.988H74.8627V132.676H73.5493V131.988Z" fill="white"/>
        <path d="M66.8166 126.14V128.07H66.1582L62.9992 130.045L62.9616 130.021L59.8409 128.07H59.1822V126.14H57.3096V124.066H59.1822V122.136H59.8409L62.9992 120.161L66.1582 122.136H66.8166V124.066H68.6892V126.14H66.8166Z" fill="#383739"/>
        <path d="M62.9997 129.876L65.889 128.07H60.1104L62.9997 129.876ZM65.8887 122.136L62.9997 120.33L60.111 122.136H65.8887Z" fill="#FFC72C"/>
        <path d="M66.6735 124.067V122.279H63.0705V124.067H66.6735ZM62.9278 124.067V122.279H59.3248V124.067H62.9278ZM68.5462 125.997V124.209H64.9432V125.997H68.5462ZM64.8005 125.997V124.209H61.1975V125.997H64.8005ZM61.0548 125.997V124.209H57.4521V125.997H61.0548ZM66.6735 127.927V126.14H63.0705V127.927H66.6735ZM62.9278 127.927V126.14H59.3248V127.927H62.9278Z" fill="#D22630"/>
        <path d="M61.9357 122.676V123.67H60.3173V122.676H61.9357ZM65.6813 122.676V123.67H64.063V122.676H65.6813ZM60.0627 124.607V125.6H58.4443V124.607H60.0627ZM63.8087 124.607V125.6H62.1903V124.607H63.8087ZM67.5543 124.607V125.6H65.936V124.607H67.5543ZM61.9357 126.537V127.53H60.3173V126.537H61.9357ZM65.6813 126.537V127.53H64.063V126.537H65.6813Z" fill="#383739"/>
        <path d="M61.784 122.829H60.4707V123.517H61.784V122.829ZM65.5297 122.829H64.2163V123.517H65.5297V122.829ZM59.911 124.759H58.5977V125.447H59.911V124.759ZM63.657 124.759H62.3437V125.447H63.657V124.759ZM67.4023 124.759H66.089V125.447H67.4023V124.759ZM61.784 126.689H60.4707V127.378H61.784V126.689ZM65.5297 126.689H64.2163V127.378H65.5297V126.689Z" fill="white"/>
        <path d="M66.8166 136.736V138.666H66.1582L62.9992 140.641L62.9616 140.618L59.8409 138.666H59.1822V136.736H57.3096V134.663H59.1822V132.733H59.8409L62.9992 130.757L66.1582 132.733H66.8166V134.663H68.6892V136.736H66.8166Z" fill="#383739"/>
        <path d="M62.9997 140.472L65.889 138.666H60.1104L62.9997 140.472ZM65.8887 132.732L62.9997 130.926L60.111 132.732H65.8887Z" fill="#FFC72C"/>
        <path d="M66.6735 134.663V132.875H63.0705V134.663H66.6735ZM62.9278 134.663V132.875H59.3248V134.663H62.9278ZM68.5462 136.593V134.805H64.9432V136.593H68.5462ZM64.8005 136.593V134.805H61.1975V136.593H64.8005ZM61.0548 136.593V134.805H57.4521V136.593H61.0548ZM66.6735 138.523V136.736H63.0705V138.523H66.6735ZM62.9278 138.523V136.736H59.3248V138.523H62.9278Z" fill="#D22630"/>
        <path d="M61.9357 133.272V134.266H60.3173V133.272H61.9357ZM65.6813 133.272V134.266H64.063V133.272H65.6813ZM60.0627 135.203V136.196H58.4443V135.203H60.0627ZM63.8087 135.203V136.196H62.1903V135.203H63.8087ZM67.5543 135.203V136.196H65.936V135.203H67.5543ZM61.9357 137.133V138.126H60.3173V137.133H61.9357ZM65.6813 137.133V138.126H64.063V137.133H65.6813Z" fill="#383739"/>
        <path d="M61.784 133.425H60.4707V134.113H61.784V133.425ZM65.5297 133.425H64.2163V134.113H65.5297V133.425ZM59.911 135.355H58.5977V136.043H59.911V135.355ZM63.657 135.355H62.3437V136.043H63.657V135.355ZM67.4023 135.355H66.089V136.043H67.4023V135.355ZM61.784 137.285H60.4707V137.974H61.784V137.285ZM65.5297 137.285H64.2163V137.974H65.5297V137.285Z" fill="white"/>
        <path d="M42.5586 159.785L56.5759 152.241H69.4223L83.4393 159.785V172.215L69.4223 179.758H56.5756L42.5586 172.215V159.785Z" fill="#383739"/>
        <path d="M56.6207 152.384L42.708 159.87V172.122L56.6207 179.608H69.385L83.2983 172.122V159.87L69.385 152.384L56.6207 152.384ZM56.8673 153.39H69.138L82.3093 160.47V171.54L69.138 178.619H56.86L43.6893 171.539V160.469L56.8673 153.39Z" fill="#00843D"/>
        <path d="M63.0706 165.928V178.475H69.1023L82.1633 171.446V166.071H62.928V153.524H56.8963L43.835 160.553V165.928H63.0706Z" fill="#FFC72C"/>
        <path d="M62.9276 165.928V178.475H56.896L43.835 171.446V166.071H63.0703V153.524H69.1023L82.1633 160.553V165.928H62.9276Z" fill="white"/>
        <path d="M64.1717 177.773V174.146L62.9993 174.89L61.8267 174.146V177.773H58.1793L60.6403 175.968V173.394L56.887 171.012H54.2646V160.988H56.8873L60.6407 158.607V156.032L58.1793 154.228H61.8267V157.854L62.9993 157.11L64.1717 157.854V154.228H67.819L65.358 156.032V158.607L69.1113 160.988H71.7336V171.012H69.111L65.3577 173.394V175.968L67.819 177.773H64.1717Z" fill="#383739"/>
        <path d="M64.3187 154.378V158.121L63.0651 157.327V158.386L68.8031 162.04H70.6921V165.925H71.5927V161.123H69.0677L65.2194 158.686V155.967L67.3904 154.378H64.3187V154.378ZM54.4141 166.066V170.869H56.9207L60.7874 173.322V176.042L58.6161 177.63H61.6881V173.887L62.9237 174.682V173.587L57.1861 169.968H55.3144V166.066H54.4141Z" fill="#FFC72C"/>
        <path d="M58.6157 154.378L60.7874 155.967V158.686L56.9207 161.123H54.4141V165.925H55.3141V162.04H57.1857L62.9237 158.403V157.327L61.6881 158.121V154.378H58.6157V154.378ZM70.6921 166.066V169.968H68.8027L63.0647 173.587V174.682L64.3184 173.887V177.63H67.3904L65.2191 176.042V173.322L69.0677 170.869H71.5924V166.066H70.6921Z" fill="white"/>
        <path d="M55.4502 169.82H57.2295L62.9985 173.48L68.7675 169.82H70.5469V162.181H68.7675L62.9985 158.521L57.2295 162.181H55.4502V169.82Z" fill="#D22630"/>
        <path d="M66.9924 167.815H68.2241V167.233H67.2974V166.173H69.2781V168.875H67.3794V170.718H63.4714V168.07H65.1914V169.129H64.5251V169.659H66.3257V168.646L59.0054 164.185H57.7737V164.768H58.7004V165.827H56.7197V163.126H58.6184V161.282H62.5264V163.931H60.8064V162.871H61.4727V162.342H59.6721V163.354L66.9924 167.815ZM66.3257 163.354V162.342H64.5251V162.871H65.1914V163.931H63.4714V161.282H67.3797V163.126H69.2781V165.827H67.2977V164.768H68.2244V164.185H66.9924L59.6724 168.646V169.659H61.4724V169.129H60.8064V168.07H62.5264V170.718H58.6184V168.875H56.7197V166.173H58.7004V167.233H57.7737V167.815H59.0054L66.3257 163.354Z" fill="#383739"/>
        <path d="M66.4689 168.566V169.801H64.3823V168.986H65.0489V168.212H63.6146V170.575H67.2369V168.732H69.1356V166.316H67.4406V167.089H68.3673V167.958H66.9526L59.5293 163.434V162.199H61.6159V163.014H60.9496V163.788H62.3839V161.425H58.7616V163.268H56.8633V165.684H58.5576V164.91H57.6309V164.042H59.0456L66.4689 168.566ZM66.9526 164.042H68.3676V164.91H67.4409V165.684H69.1356V163.268H67.2373V161.425H63.6146V163.788H65.0489V163.014H64.3826V162.199H66.4689V163.434L59.0456 167.958H57.6313V167.089H58.5579V166.316H56.8633V168.732H58.7616V170.575H62.3839V168.212H60.9496V168.986H61.6159V169.801H59.5293V168.565L66.9526 164.042Z" fill="white"/>
        <path d="M79.3478 166.628V170.549H77.6794V169.164H75.9974V170.549H74.3291V166.628H75.9974V168.013H77.6794V166.628H79.3478ZM73.3778 171.833V175.754H71.7094V174.369H70.0274V175.754H68.3591V171.833H70.0274V173.218H71.7094V171.833L73.3778 171.833ZM79.3478 165.371V161.45H77.6794V162.835H75.9974V161.45H74.3291V165.371H75.9974V163.986H77.6794V165.371H79.3478ZM46.6514 166.628V170.549H48.3197V169.164H50.0017V170.549H51.6701V166.628H50.0017V168.013H48.3197V166.628H46.6514ZM46.6514 165.371V161.45H48.3197V162.835H50.0017V161.45H51.6701V165.371H50.0017V163.986H48.3197V165.371H46.6514ZM73.3778 160.166V156.246H71.7094V157.63H70.0274V156.246H68.3591V160.167H70.0274V158.782H71.7094V160.167L73.3778 160.166ZM52.6217 171.833V175.754H54.2901V174.369H55.9721V175.754H57.6404V171.833H55.9721V173.218H54.2901V171.833L52.6217 171.833ZM52.6217 160.166V156.246H54.2901V157.63H55.9721V156.246H57.6404V160.167H55.9721V158.782H54.2901V160.167L52.6217 160.166ZM74.3731 157.419V160.396H79.9054L74.3731 157.419ZM51.6261 174.581V171.603H46.0938L51.6261 174.581ZM51.6261 157.419V160.396H46.0938L51.6261 157.419ZM74.3731 174.581V171.603H79.9054L74.3731 174.581Z" fill="#383739"/>
        <path d="M77.8216 169.021V170.406H79.2043V166.771H77.8216V168.156H75.8539V166.771H74.4713V170.406H75.8539V169.021H77.8216ZM71.8516 174.226V175.611H73.2343V171.976H71.8516V173.36H69.8839V171.976H68.5013V175.611H69.8839V174.226H71.8516ZM77.8216 162.978V161.593H79.2043V165.228H77.8216V163.843H75.8539V165.228H74.4713V161.593H75.8539V162.978H77.8216ZM48.1766 169.021V170.406H46.7939V166.771H48.1766V168.156H50.1443V166.771H51.5269V170.406H50.1443V169.021H48.1766ZM48.1766 162.978V161.593H46.7939V165.228H48.1766V163.843H50.1443V165.228H51.5269V161.593H50.1443V162.978H48.1766ZM71.8516 157.773V156.389H73.2343V160.024H71.8516V158.639H69.8839V160.024H68.5013V156.389H69.8839V157.773H71.8516ZM54.1466 174.226V175.611H52.7639V171.976H54.1466V173.36H56.1143V171.976H57.4969V175.611H56.1143V174.226H54.1466ZM54.1466 157.773V156.389H52.7639V160.024H54.1466V158.639H56.1143V160.024H57.4969V156.389H56.1143V157.773H54.1466Z" fill="#D22630"/>
        <path d="M74.5231 157.662V160.257H79.3434L74.5231 157.662ZM46.6631 171.751L51.4831 174.347V171.751H46.6631Z" fill="#FFC72C"/>

    </g>
    <defs>
        <clipPath id="clip0_5_3826">
            <rect width="300" height="200" fill="white"/>
        </clipPath>
    </defs>
</svg>
