<svg width="400" height="200" viewBox="0 0 400 200" fill="none"
    xmlns="http://www.w3.org/2000/svg">
    <g clip-path="url(#clip0_5_1133)">
        <mask id="mask0_5_1133" style="mask-type:luminance" maskUnits="userSpaceOnUse" x="0" y="0" width="400" height="200">
            <path d="M0 0H400V200H0V0Z" fill="white"/>
        </mask>
        <g mask="url(#mask0_5_1133)">
            <path d="M0 0V200L133.333 100L0 0Z" fill="black" stroke="black" stroke-width="30"/>
        </g>
        <path d="M0 0V200L133.333 100L0 0Z" fill="white"/>
        <path d="M50.7236 49.7212L77.1332 131L7.99316 80.7669H93.4544L24.3148 131L50.7236 49.7212Z" fill="#D40000"/>
        <path d="M39.4136 120.79L44.0806 119.942L52.7355 119.602L55.9174 119.899L63.045 121.087L63.5968 120.366V115.232L64.4031 110.82L65.8879 106.322L67.4149 102.759L69.4092 99.0676L72.6758 99.8739H73.5244L73.6095 99.2374L66.7787 93.3825L59.6085 87.9095L49.299 80.1879L48.3657 79.9333L47.2203 71.8723L46.4139 69.4117L45.3536 68.4784L43.2742 67.7993L40.9834 67.8844L39.9653 68.478L37.759 68.9873L36.6136 69.1571L35.8498 70.0482L35.765 71.1936L38.9469 71.2784L39.7533 71.618L39.6682 71.9571L37.8441 72.2117L36.9955 72.4663L38.0136 73.2301L39.032 73.612L40.3895 74.1209L40.6441 75.012L40.7711 87.3581L40.0501 89.2673L39.7955 92.8311L40.8561 97.1161L38.1831 100.128L36.6984 102.844L36.4438 104.541L35.6377 106.195L35.5107 107.256L36.0622 108.359L38.0984 115.147L39.159 120.705L39.4136 120.79Z" fill="#FFCC00"/>
        <path d="M41.884 67.5803C41.0675 67.5797 40.6754 67.721 39.8662 68.1606C39.1361 68.5575 38.2694 68.8216 37.6789 68.8216C36.4783 68.8216 35.5091 69.6832 35.5091 70.7591V71.4733L37.2592 71.4194C42.2751 71.5876 37.6957 72.0498 37.3307 72.1162C36.0853 72.3419 37.6069 73.3578 39.0716 73.8483C40.6478 74.3759 40.5805 74.0705 40.5805 80.9822C40.5805 86.6571 40.5313 87.46 40.0983 88.7679C39.4627 90.6879 39.4627 93.5416 40.0983 95.4197C40.3554 96.1784 40.5672 96.8864 40.5716 96.9911C40.5761 97.0959 39.8294 98.0241 38.911 99.0537C37.2523 100.913 36.2323 102.908 36.2323 104.303C36.2323 104.625 36.0157 105.167 35.75 105.518C35.1373 106.327 35.1199 107.721 35.7145 108.25C36.3313 108.799 38.8773 118.628 38.884 120.482C38.8865 121.158 39.0075 121.154 42.8751 120.375C45.9976 119.746 53.3796 119.612 57.1164 120.116C58.8424 120.349 60.8503 120.688 61.5805 120.875C63.8805 121.465 63.7538 121.587 63.7592 118.812C63.7675 114.523 64.5494 110.443 66.2056 106.08C66.9589 104.096 68.9396 100.066 69.4646 99.4464C69.5164 99.3851 70.3599 99.541 71.3396 99.7946C73.3437 100.313 73.8932 100.217 73.8932 99.3483C73.8932 98.8511 71.8475 97.1454 61.8307 89.3038C55.0811 84.0197 49.545 79.8571 49.2681 79.8571C48.9957 79.8571 48.7205 79.7171 48.6608 79.5448C48.6015 79.3721 48.283 77.3295 47.9465 75C47.61 72.6705 47.1557 70.3705 46.9376 69.893C46.3002 68.4968 44.9805 67.7565 42.8751 67.6162C42.5452 67.5932 42.2147 67.5812 41.884 67.5803ZM41.9554 68.0803C42.2183 68.0771 42.5142 68.0883 42.8751 68.1073C46.0376 68.273 46.6357 69.1457 47.4643 74.7676C47.7862 76.9498 48.051 78.9676 48.0538 79.2591C48.0577 79.6375 47.618 80.0851 46.5091 80.8305C44.8764 81.9279 42.7691 83.9298 41.7411 85.3483L41.1253 86.1876L41.0091 84.2143C40.9415 83.1295 40.9415 80.5984 41.0091 78.5892C41.1491 74.4371 41.0402 74.0273 39.6789 73.5714C38.5672 73.1994 37.1164 72.7991 37.545 72.5448C38.0126 72.2667 38.4453 72.4654 39.6338 72.1698C40.0551 72.0651 40.0323 72.0829 39.9643 71.7232C39.8424 71.0756 39.21 70.7784 37.4199 70.8749C36.0138 70.9511 35.8335 70.9143 35.9288 70.5359C36.1215 69.7705 36.917 69.2676 38.0983 69.1518C38.7345 69.0895 39.6621 68.8076 40.1697 68.5267C40.7316 68.2159 41.1675 68.0898 41.9554 68.0803ZM49.0361 80.4019C49.1024 80.401 49.1646 80.4016 49.2234 80.4108C50.0338 80.5378 73.4107 98.8152 73.4107 99.3216C73.4107 99.5216 73.2234 99.6822 72.9913 99.6787C72.7589 99.6749 66.8091 97.9898 59.777 95.9375C48.5389 92.6578 46.923 92.1219 46.4376 91.5359C45.7481 90.7025 45.7253 89.4305 46.3751 88.5714C46.6408 88.2206 46.8573 87.7892 46.8573 87.6073C46.8573 87.0518 45.6659 88.4679 45.4377 89.2946C45.171 90.261 45.6678 91.8781 46.3932 92.4019C46.6796 92.6089 48.8218 93.3448 51.1519 94.0359C55.1291 95.2146 55.3964 95.3416 55.6075 96C56.1142 97.581 54.444 99.4159 52.0269 99.9375C51.2475 100.106 50.2564 100.564 49.5716 101.08C46.85 103.131 44.9548 104.343 43.3662 105.027C42.4323 105.429 41.5297 105.884 41.3662 106.045C41.2027 106.205 40.9643 106.937 40.8307 107.67C40.5465 109.226 40.4262 109.464 39.9646 109.464C39.6973 109.464 39.6732 109.325 39.8573 108.822C40.197 107.894 40.1599 106.705 39.7859 106.705C39.5881 106.705 39.4646 107.036 39.4646 107.589C39.4646 108.072 39.3281 108.604 39.1519 108.777C38.8872 109.036 38.8535 108.844 38.9646 107.652C39.038 106.858 39.0059 106.205 38.8932 106.205C38.6764 106.205 38.251 107.408 38.0983 108.464C38.0091 109.083 38.0037 109.079 37.8037 108.348C37.6478 107.778 37.7234 107.395 38.1253 106.67C38.4116 106.152 38.6523 105.4 38.6523 104.991C38.6523 104.376 39.1053 103.781 41.3307 101.527C42.8078 100.03 44.5275 98.1737 45.1519 97.4019C46.2323 96.066 46.2891 95.9244 46.2503 94.5714C46.2278 93.7895 46.1373 93.087 46.0535 93C45.7716 92.7067 45.3957 94.2184 45.545 95.0445C45.6796 95.7918 45.5405 96.046 43.9824 97.8838C43.0418 98.9933 41.4443 100.666 40.4376 101.607C38.5834 103.341 37.9199 104.278 37.9199 105.161C37.9199 105.429 37.7119 106.137 37.4554 106.732C37.1989 107.328 37.0573 107.936 37.1342 108.08C37.2199 108.242 37.1589 108.231 36.9824 108.063C36.7732 107.863 36.7564 107.493 36.9288 106.697C37.0589 106.096 37.1123 105.515 37.045 105.402C36.7859 104.966 36.4824 105.526 36.3307 106.714C36.2437 107.396 36.0805 107.896 35.9646 107.822C35.6154 107.597 35.7256 106.356 36.1519 105.723C36.3719 105.397 36.6462 104.62 36.7592 103.991C37.0761 102.227 37.8342 100.827 39.518 98.9197C40.3669 97.9584 41.0627 97.1362 41.0627 97.0892C41.0627 97.0425 40.8364 96.333 40.5627 95.5178C39.9297 93.633 39.8878 90.7629 40.4643 89.0178C41.0723 87.1791 42.3246 85.3587 44.3037 83.4375C46.2192 81.5784 48.0392 80.4184 49.0361 80.4019ZM56.1878 95.7232C56.246 95.7171 56.3055 95.7194 56.3622 95.7301C56.419 95.7407 56.4716 95.7594 56.5165 95.7848C56.5614 95.8103 56.5975 95.8419 56.6224 95.8775C56.6473 95.9131 56.6604 95.9518 56.6608 95.9911C56.6484 96.0571 56.6003 96.1179 56.5255 96.1619C56.4506 96.2059 56.3543 96.2302 56.2545 96.2302C56.1547 96.2302 56.0583 96.2059 55.9835 96.1619C55.9087 96.1179 55.8605 96.0571 55.8481 95.9911C55.8485 95.927 55.8828 95.865 55.9449 95.816C56.007 95.767 56.093 95.7341 56.1878 95.7232ZM57.3662 95.8749C57.3692 95.8749 57.3721 95.8749 57.3751 95.8749C57.4351 95.8677 57.4968 95.8695 57.5556 95.8802C57.6145 95.8909 57.669 95.9102 57.7152 95.9367C57.7614 95.9632 57.7982 95.9963 57.8228 96.0335C57.8473 96.0707 57.8592 96.1111 57.8573 96.1517C57.8573 96.2244 57.8141 96.2941 57.737 96.3455C57.66 96.3969 57.5555 96.4257 57.4465 96.4257C57.3376 96.4257 57.2331 96.3969 57.1561 96.3455C57.079 96.2941 57.0357 96.2244 57.0357 96.1517C57.0326 96.087 57.0641 96.0235 57.1246 95.9728C57.1852 95.9221 57.2708 95.8874 57.3662 95.8749ZM58.6164 96.1073C58.6312 96.1068 58.646 96.1068 58.6608 96.1073C58.7174 96.1047 58.7741 96.11 58.8274 96.1228C58.8807 96.1356 58.9295 96.1556 58.9706 96.1816C59.0117 96.2075 59.0443 96.2389 59.0662 96.2738C59.0882 96.3086 59.0991 96.3461 59.0983 96.3838C59.0856 96.4497 59.0374 96.5102 58.9626 96.554C58.8878 96.5979 58.7917 96.6221 58.6921 96.6221C58.5925 96.6221 58.4963 96.5979 58.4216 96.554C58.3468 96.5102 58.2986 96.4497 58.2859 96.3838C58.2828 96.3191 58.3143 96.2558 58.3748 96.2051C58.4353 96.1545 58.5208 96.1198 58.6161 96.1073H58.6164ZM59.7411 96.339C59.7591 96.3383 59.7771 96.3383 59.7951 96.339C59.8517 96.3365 59.9085 96.3418 59.9618 96.3546C60.0151 96.3675 60.0639 96.3876 60.105 96.4136C60.1461 96.4397 60.1786 96.4711 60.2005 96.506C60.2224 96.5409 60.2332 96.5784 60.2323 96.6162C60.2293 96.6875 60.1847 96.7552 60.108 96.805C60.0313 96.8547 59.9286 96.8826 59.8216 96.8826C59.7146 96.8826 59.6119 96.8547 59.5352 96.805C59.4585 96.7552 59.414 96.6875 59.411 96.6162C59.4078 96.5514 59.4393 96.488 59.4997 96.4373C59.5602 96.3866 59.6458 96.3519 59.7411 96.3394V96.339ZM56.7411 96.6162C56.7441 96.6162 56.7471 96.6162 56.75 96.6162C56.81 96.6089 56.8717 96.6107 56.9305 96.6213C56.9894 96.632 57.0439 96.6513 57.0902 96.6778C57.1364 96.7043 57.1732 96.7373 57.1978 96.7745C57.2225 96.8117 57.2343 96.8521 57.2326 96.8927C57.2326 96.9654 57.1893 97.0351 57.1123 97.0864C57.0352 97.1378 56.9307 97.1667 56.8218 97.1667C56.7128 97.1667 56.6083 97.1378 56.5313 97.0864C56.4543 97.0351 56.411 96.9654 56.411 96.8927C56.4079 96.828 56.4394 96.7647 56.4999 96.714C56.5604 96.6634 56.6459 96.6287 56.7411 96.6162ZM57.9199 96.8124C57.9788 96.8053 58.0393 96.8069 58.0971 96.8171C58.155 96.8273 58.2088 96.8458 58.2548 96.8713C58.3007 96.8969 58.3377 96.9288 58.3632 96.9649C58.3887 97.001 58.4019 97.0404 58.4021 97.0803C58.4021 97.153 58.3588 97.2227 58.2818 97.2741C58.2047 97.3254 58.1002 97.3543 57.9913 97.3543C57.8823 97.3543 57.7779 97.3254 57.7008 97.2741C57.6238 97.2227 57.5805 97.153 57.5805 97.0803C57.5809 97.0162 57.6151 96.9542 57.6771 96.9052C57.7392 96.8562 57.8251 96.8234 57.9199 96.8124ZM60.3929 96.9108C60.4518 96.9037 60.5123 96.9053 60.5701 96.9154C60.628 96.9256 60.6818 96.944 60.7278 96.9696C60.7738 96.9951 60.8109 97.027 60.8364 97.0631C60.8619 97.0992 60.8752 97.1385 60.8754 97.1784C60.8754 97.2511 60.8321 97.3208 60.7551 97.3721C60.6781 97.4235 60.5736 97.4524 60.4646 97.4524C60.3557 97.4524 60.2512 97.4235 60.1742 97.3721C60.0971 97.3208 60.0538 97.2511 60.0538 97.1784C60.0543 97.1144 60.0886 97.0524 60.1506 97.0035C60.2127 96.9546 60.2985 96.9218 60.3932 96.9108H60.3929ZM59.0894 96.9286C59.1483 96.9215 59.2088 96.9231 59.2666 96.9333C59.3245 96.9435 59.3783 96.962 59.4243 96.9875C59.4703 97.0131 59.5073 97.045 59.5327 97.0811C59.5582 97.1172 59.5715 97.1566 59.5716 97.1965C59.5686 97.2678 59.5241 97.3356 59.4474 97.3853C59.3707 97.435 59.268 97.4629 59.161 97.4629C59.054 97.4629 58.9513 97.435 58.8746 97.3853C58.7979 97.3356 58.7533 97.2678 58.7503 97.1965C58.7507 97.1324 58.7849 97.0705 58.8469 97.0215C58.9088 96.9725 58.9947 96.9396 59.0894 96.9286ZM61.5002 97.2054C61.5367 97.1517 63.2503 97.5876 65.3037 98.1784L69.0361 99.2498L68.3126 100.536C67.9148 101.24 67.4126 102.185 67.1967 102.634C66.7586 103.544 66.603 103.56 64.3573 103.045C61.8738 102.474 57.9478 101.932 53.9554 101.607L50.1164 101.295L51.5627 100.75C52.3596 100.448 53.5046 99.9308 54.1075 99.5981C55.0529 99.0765 55.4338 99.0092 56.884 99.1162C59.0373 99.2746 60.4884 98.8772 61.0269 97.9822C61.182 97.7217 61.3397 97.4627 61.5002 97.2054ZM57.2859 97.4733C57.2889 97.4733 57.2918 97.4733 57.2948 97.4733C57.3548 97.4661 57.4164 97.4679 57.4752 97.4786C57.534 97.4892 57.5885 97.5085 57.6347 97.535C57.6809 97.5615 57.7177 97.5945 57.7423 97.6317C57.7669 97.6689 57.7788 97.7092 57.777 97.7498C57.777 97.8225 57.7337 97.8922 57.6567 97.9436C57.5797 97.995 57.4752 98.0238 57.3662 98.0238C57.2573 98.0238 57.1528 97.995 57.0757 97.9436C56.9987 97.8922 56.9554 97.8225 56.9554 97.7498C56.9524 97.6851 56.9839 97.6218 57.0445 97.5711C57.105 97.5205 57.1906 97.4858 57.2859 97.4733ZM59.9735 97.4733C59.9765 97.4733 59.9794 97.4733 59.9824 97.4733C60.0424 97.4661 60.104 97.4679 60.1628 97.4786C60.2216 97.4892 60.2761 97.5085 60.3223 97.535C60.3685 97.5615 60.4053 97.5945 60.4299 97.6317C60.4545 97.6689 60.4664 97.7092 60.4646 97.7498C60.4646 97.8225 60.4214 97.8922 60.3443 97.9436C60.2673 97.995 60.1628 98.0238 60.0538 98.0238C59.9449 98.0238 59.8404 97.995 59.7634 97.9436C59.6863 97.8922 59.643 97.8225 59.643 97.7498C59.64 97.6851 59.6715 97.6218 59.732 97.5712C59.7924 97.5205 59.8779 97.4858 59.9732 97.4733H59.9735ZM56.1164 97.5089C56.1341 97.5081 56.152 97.5081 56.1697 97.5089C56.2263 97.5063 56.2831 97.5115 56.3365 97.5243C56.3899 97.5371 56.4387 97.5572 56.4798 97.5832C56.521 97.6092 56.5536 97.6406 56.5756 97.6755C56.5976 97.7104 56.6084 97.7479 56.6075 97.7857C56.6075 97.8584 56.5642 97.9281 56.4872 97.9794C56.4101 98.0308 56.3056 98.0597 56.1967 98.0597C56.0877 98.0597 55.9833 98.0308 55.9062 97.9794C55.8292 97.9281 55.7859 97.8584 55.7859 97.7857C55.7827 97.721 55.8142 97.6576 55.8747 97.6068C55.9351 97.5561 56.0207 97.5214 56.1161 97.5089H56.1164ZM58.6608 97.5533C58.7198 97.5463 58.7803 97.5479 58.8382 97.5581C58.8961 97.5683 58.9499 97.5868 58.9959 97.6124C59.0419 97.638 59.0789 97.67 59.1043 97.7061C59.1297 97.7422 59.143 97.7817 59.143 97.8216C59.1401 97.8929 59.0955 97.9606 59.0188 98.0104C58.9421 98.0601 58.8394 98.0879 58.7324 98.0879C58.6254 98.0879 58.5227 98.0601 58.446 98.0104C58.3693 97.9606 58.3247 97.8929 58.3218 97.8216C58.3221 97.7575 58.3563 97.6955 58.4183 97.6466C58.4803 97.5976 58.5661 97.5647 58.6608 97.5537V97.5533ZM55.5361 98.1162C55.539 98.1162 55.542 98.1162 55.545 98.1162C55.6043 98.11 55.6649 98.1125 55.7226 98.1237C55.7803 98.1348 55.8336 98.1543 55.8788 98.1807C55.9239 98.2071 55.9598 98.2398 55.9838 98.2765C56.0079 98.3132 56.0195 98.353 56.018 98.393C56.0056 98.459 55.9574 98.5198 55.8826 98.5638C55.8078 98.6078 55.7114 98.6321 55.6116 98.6321C55.5118 98.6321 55.4155 98.6078 55.3406 98.5638C55.2658 98.5198 55.2177 98.459 55.2053 98.393C55.2021 98.3282 55.2336 98.2648 55.2941 98.2141C55.3547 98.1634 55.4403 98.1287 55.5357 98.1162H55.5361ZM56.7056 98.134C56.7204 98.1334 56.7352 98.1334 56.75 98.134C56.8066 98.1314 56.8634 98.1366 56.9168 98.1494C56.9702 98.1622 57.019 98.1822 57.0602 98.2083C57.1013 98.2343 57.1339 98.2657 57.1559 98.3006C57.1779 98.3355 57.1887 98.373 57.1878 98.4108C57.1754 98.4768 57.1273 98.5375 57.0524 98.5816C56.9776 98.6256 56.8813 98.6499 56.7815 98.6499C56.6817 98.6499 56.5853 98.6256 56.5105 98.5816C56.4356 98.5375 56.3875 98.4768 56.3751 98.4108C56.3719 98.346 56.4034 98.2826 56.464 98.2319C56.5245 98.1812 56.6102 98.1465 56.7056 98.134ZM57.9554 98.1784C58.0143 98.1713 58.0749 98.1729 58.1328 98.1831C58.1907 98.1932 58.2445 98.2117 58.2905 98.2373C58.3365 98.2628 58.3736 98.2948 58.3991 98.3309C58.4245 98.367 58.4378 98.4064 58.438 98.4464C58.438 98.519 58.3947 98.5887 58.3176 98.6401C58.2406 98.6915 58.1361 98.7203 58.0272 98.7203C57.9182 98.7203 57.8137 98.6915 57.7367 98.6401C57.6597 98.5887 57.6164 98.519 57.6164 98.4464C57.6168 98.3823 57.6511 98.3204 57.713 98.2715C57.775 98.2226 57.8608 98.1898 57.9554 98.1787V98.1784ZM59.277 98.2143C59.28 98.2143 59.2829 98.2143 59.2859 98.2143C59.3452 98.2081 59.4059 98.2106 59.4636 98.2218C59.5213 98.2329 59.5746 98.2524 59.6197 98.2788C59.6648 98.3052 59.7007 98.3379 59.7248 98.3746C59.7488 98.4113 59.7605 98.4511 59.7589 98.4911C59.7462 98.557 59.698 98.6175 59.6232 98.6613C59.5485 98.7052 59.4523 98.7294 59.3527 98.7294C59.2531 98.7294 59.157 98.7052 59.0822 98.6613C59.0075 98.6175 58.9592 98.557 58.9465 98.4911C58.9433 98.4264 58.9748 98.363 59.0353 98.3122C59.0958 98.2615 59.1813 98.2268 59.2767 98.2143H59.277ZM49.6072 102.063C51.2411 102.01 56.9449 102.424 59.6519 102.83C62.0345 103.188 66.2075 103.963 66.3484 104.072C66.3834 104.099 66.0259 105.241 65.545 106.607C65.0637 107.974 64.6249 109.25 64.5716 109.437C64.4986 109.694 64.2056 109.734 63.3932 109.607C59.4259 108.989 47.9951 109.045 43.5983 109.705C41.0989 110.081 40.7316 110.054 40.9465 109.527C41.045 109.285 41.2542 108.529 41.411 107.839L41.6967 106.58L44.3484 105.205C45.8059 104.447 47.4303 103.479 47.9554 103.054C48.4808 102.628 49.0288 102.206 49.1789 102.116C49.2256 102.088 49.3738 102.07 49.6075 102.063H49.6072ZM36.7681 108.839C36.8872 108.839 37.1846 108.977 37.5269 109.197C37.9742 109.484 38.545 109.72 38.7948 109.723C40.0386 109.738 40.7224 111.491 41.777 117.375C41.8991 118.058 42.0272 118.739 42.1611 119.419C42.258 119.896 42.1218 120.003 41.0538 120.241C39.704 120.542 39.3751 120.564 39.3751 120.384C39.3751 119.879 38.0329 113.85 37.4465 111.723C37.0472 110.275 36.7145 108.999 36.7145 108.884C36.7145 108.87 36.7215 108.855 36.7323 108.848C36.743 108.842 36.7555 108.839 36.7681 108.839ZM50.3932 109.723H51.7592L51.3037 110.241C50.4951 111.17 50.1088 111.258 49.5449 110.634C49.2608 110.32 49.0269 109.988 49.0269 109.893C49.0269 109.798 49.6421 109.723 50.3932 109.723ZM53.2859 109.723H55.8751L55.3037 110.348C54.6037 111.123 54.5576 111.123 53.8573 110.348L53.2859 109.723ZM57.1967 109.723H57.7948C58.1202 109.723 58.718 109.79 59.1249 109.875L59.8662 110.027L59.1789 110.625C58.8021 110.954 58.4583 111.222 58.4107 111.214C58.3637 111.207 58.0678 110.862 57.7592 110.456L57.1967 109.723ZM61.2234 109.902L61.8218 110.054C62.1535 110.14 62.8621 110.221 63.3932 110.223H64.3573L63.6342 110.839C63.2357 111.179 62.8516 111.459 62.777 111.464C62.7021 111.469 62.3186 111.121 61.9288 110.688L61.2234 109.902ZM46.8392 109.982C46.9091 109.984 46.9523 109.987 46.9646 110C47.0135 110.051 46.8116 110.394 46.5091 110.759L45.9554 111.42L45.2592 110.848L44.5627 110.268L45.7234 110.089C46.2005 110.015 46.6313 109.976 46.8396 109.982H46.8392ZM47.9377 110.054C47.9377 110.03 48.2846 110.332 48.7056 110.723L49.4735 111.438L48.0538 111.518L46.6342 111.598L47.2859 110.848C47.6446 110.435 47.9377 110.077 47.9377 110.054ZM56.5627 110.054C56.6643 110.06 56.7627 110.118 56.884 110.223C57.0945 110.405 57.3697 110.765 57.5002 111.018C57.7043 111.414 57.6424 111.468 57.0627 111.446C56.6929 111.433 56.1396 111.349 55.8307 111.259L55.2681 111.098L55.884 110.5C56.2094 110.183 56.3932 110.042 56.5627 110.054ZM52.5627 110.063C52.8297 110.026 53.0377 110.225 53.3215 110.67C53.6694 111.214 53.657 111.222 52.3754 111.214L51.0805 111.205L51.7681 110.58C52.1084 110.269 52.3548 110.091 52.5627 110.063ZM60.643 110.152L61.2323 110.732C61.878 111.363 61.9919 111.747 61.518 111.678C61.3519 111.654 60.7529 111.597 60.1878 111.545L59.1608 111.446L59.9021 110.803L60.643 110.152ZM43.911 110.473C44.0224 110.473 44.3675 110.746 44.6697 111.08L45.2145 111.687L44.045 111.848C43.4005 111.935 42.6586 112.051 42.3932 112.107C42.0345 112.182 42.1424 111.983 42.8126 111.339C43.3088 110.863 43.7992 110.473 43.911 110.473V110.473ZM42.1253 110.509C42.2046 110.507 42.2773 110.517 42.3396 110.527C42.7351 110.591 42.6973 110.692 42.0538 111.33L41.3126 112.063L41.0983 111.455C40.9196 110.957 40.9713 110.816 41.384 110.652C41.591 110.57 41.8865 110.513 42.1253 110.509ZM64.0091 111.348C64.1234 111.341 64.1478 111.434 64.0805 111.616C63.9342 112.013 63.5091 112.111 63.5091 111.75C63.5091 111.627 63.6742 111.47 63.8662 111.393C63.9246 111.37 63.971 111.35 64.0091 111.348ZM53.8573 112.107C57.5088 112.107 61.2288 112.198 62.1253 112.312C63.6332 112.505 63.7503 112.563 63.7503 113.125C63.7503 113.794 63.5465 113.826 61.5805 113.473C60.983 113.366 58.5869 113.138 56.2503 112.964C52.1942 112.663 47.1669 112.826 42.6878 113.402C41.763 113.521 41.545 113.475 41.545 113.17C41.545 112.523 46.3862 112.107 53.8573 112.107V112.107ZM48.9465 113.482H51.5269L50.9554 114.107C50.2554 114.882 50.2094 114.882 49.5091 114.107L48.9465 113.482ZM52.2592 113.482L52.9377 114.152C53.3107 114.523 53.6164 114.868 53.6164 114.911C53.6164 114.954 52.9964 114.991 52.2411 114.991H50.8665L51.5627 114.232L52.2592 113.482ZM53.2859 113.482H55.8751L55.3037 114.107C54.6037 114.882 54.5576 114.882 53.8573 114.107L53.2859 113.482ZM47.1786 113.518C47.2919 113.525 47.19 113.716 46.8484 114.197C46.5377 114.633 46.2097 114.991 46.1253 114.991C46.0405 114.991 45.7227 114.702 45.411 114.357L44.8396 113.732H45.7056C46.1824 113.732 46.7611 113.654 46.9913 113.563C47.0757 113.529 47.1411 113.516 47.1786 113.518V113.518ZM48.1519 113.732L48.7678 114.295C49.1084 114.605 49.4218 114.881 49.4643 114.902C49.5069 114.923 48.9475 114.979 48.2145 115.027L46.8751 115.116L47.518 114.42L48.1519 113.732ZM56.4199 113.732L57.1164 114.491C57.8751 115.314 57.7989 115.35 56.0716 115.018L55.2589 114.866L55.8396 114.295L56.4199 113.732ZM57.3929 113.732H58.518C59.737 113.732 59.8945 113.923 59.2056 114.571C58.6392 115.104 58.6361 115.1 57.9643 114.357L57.3929 113.732ZM42.8126 113.991C43.3615 113.986 43.345 114.038 42.6342 114.732C42.0891 115.264 42.023 115.276 41.8754 114.875C41.6976 114.395 42.123 113.997 42.8126 113.991ZM61.2859 114.063C61.4713 114.061 61.8519 114.103 62.277 114.179L63.3126 114.357L62.7145 114.937L62.1253 115.518L61.6072 114.839C61.324 114.465 61.1265 114.125 61.1697 114.081C61.1808 114.069 61.224 114.063 61.2859 114.063ZM44.1608 114.286C44.3072 114.261 44.437 114.38 44.6878 114.616C45.1662 115.066 45.1723 115.108 44.7592 115.277C44.518 115.376 43.9938 115.463 43.5983 115.473L42.884 115.491L43.5357 114.812C43.8564 114.479 44.0142 114.311 44.1608 114.286ZM60.3929 114.42C60.5608 114.41 60.6938 114.554 60.9288 114.884L61.3662 115.491H60.3662C59.7151 115.491 59.4034 115.387 59.4646 115.197C59.5161 115.036 59.7688 114.764 60.0269 114.589C60.1792 114.486 60.2923 114.425 60.3929 114.42ZM63.4469 115.063C63.4999 115.075 63.5091 115.162 63.5091 115.321C63.5091 115.79 63.1192 116.097 62.9288 115.777C62.8548 115.652 62.9542 115.412 63.1519 115.241C63.298 115.115 63.3935 115.05 63.4469 115.063ZM51.0983 115.634C55.2272 115.629 59.8189 115.904 62.4824 116.402L63.2681 116.554V118.652C63.2681 120.187 63.1935 120.749 62.9735 120.723C62.8075 120.704 61.7449 120.486 60.6164 120.232C57.211 119.467 53.3611 119.17 49.0269 119.348C46.8364 119.438 44.544 119.603 43.9288 119.714L42.8037 119.92L42.5269 118.17C42.3745 117.209 42.2881 116.392 42.3307 116.348C42.3729 116.304 43.4313 116.125 44.6878 115.955C46.3053 115.737 48.6211 115.637 51.0983 115.634Z" fill="black"/>
        <path d="M59.4109 103.697C57.9991 103.697 56.9912 104.738 56.9912 106.205C56.9912 108.491 59.5611 109.598 61.1163 107.982C62.6712 106.366 61.6103 103.697 59.4109 103.697ZM59.402 104.286C60.4449 104.244 61.3395 105.056 61.3395 106.232C61.3395 107.609 59.7464 108.569 58.5179 107.929C57.2042 107.244 57.302 105.044 58.6696 104.456C58.9011 104.354 59.1495 104.296 59.402 104.286Z" fill="black"/>
        <path d="M53.0408 103.506C51.629 103.506 50.6211 104.548 50.6211 106.015C50.6211 108.301 53.1909 109.408 54.7462 107.792C56.3011 106.175 55.2401 103.506 53.0408 103.506ZM53.0319 104.095C54.0747 104.054 54.9693 104.865 54.9693 106.042C54.9693 107.418 53.3763 108.378 52.1478 107.738C50.8341 107.054 50.9319 104.854 52.2995 104.265C52.531 104.164 52.7793 104.106 53.0319 104.095Z" fill="black"/>
        <path d="M41.9111 69.1783C41.7045 69.1942 41.5114 69.2896 41.3707 69.4453C41.2299 69.601 41.1519 69.8055 41.1523 70.0177C41.1523 70.2407 41.2389 70.4546 41.3929 70.6123C41.5469 70.77 41.7558 70.8586 41.9736 70.8586C42.1914 70.8586 42.4003 70.77 42.5543 70.6123C42.7084 70.4546 42.7949 70.2407 42.7949 70.0177C42.7951 69.9017 42.772 69.787 42.7268 69.6806C42.6816 69.5743 42.6154 69.4787 42.5324 69.3999C42.4494 69.321 42.3513 69.2607 42.2444 69.2225C42.1374 69.1844 42.024 69.1693 41.9111 69.1783ZM41.9647 69.4732C42.1083 69.4775 42.2445 69.5368 42.3445 69.6384C42.4445 69.7401 42.5003 69.8761 42.5003 70.0177C42.5021 70.0905 42.489 70.1629 42.462 70.2306C42.435 70.2984 42.3945 70.3601 42.3429 70.4122C42.2914 70.4643 42.2298 70.5057 42.1617 70.5339C42.0937 70.5622 42.0206 70.5768 41.9468 70.5768C41.873 70.5768 41.7999 70.5622 41.7319 70.5339C41.6638 70.5057 41.6022 70.4643 41.5506 70.4122C41.4991 70.3601 41.4586 70.2984 41.4316 70.2306C41.4045 70.1629 41.3915 70.0905 41.3933 70.0177C41.3933 69.9446 41.4081 69.8722 41.4371 69.8049C41.466 69.7376 41.5084 69.6767 41.5618 69.6259C41.6151 69.5751 41.6783 69.5354 41.7475 69.5092C41.8167 69.4829 41.8906 69.4707 41.9647 69.4732Z" fill="black"/>
    </g>
    <defs>
        <clipPath id="clip0_5_1133">
            <rect width="400" height="200" fill="white"/>
        </clipPath>
    </defs>
</svg>
