<svg xmlns="http://www.w3.org/2000/svg" viewBox="0 0 400 200">
    <path d="M216.095 110.91C230.957 110.91 243.005 98.8623 243.005 84.0003C243.005 69.1383 230.957 57.0903 216.095 57.0903C201.233 57.0903 189.185 69.1383 189.185 84.0003C189.185 98.8623 201.233 110.91 216.095 110.91Z" fill="#FEC50C"/>
    <path d="M216.095 53.4205C217.695 53.4005 218.295 52.4005 218.295 51.2005C218.295 49.6005 216.095 41.9805 216.095 41.9805C216.095 41.9805 213.895 49.6005 213.895 51.2005C213.895 52.4005 214.495 53.4205 216.095 53.4205Z" fill="#FEC50C"/>
    <path d="M246.674 84.0003C246.694 85.6003 247.695 86.2003 248.895 86.2003C250.495 86.2003 258.115 84.0003 258.115 84.0003C258.115 84.0003 250.495 81.8003 248.895 81.8003C247.695 81.8003 246.674 82.4003 246.674 84.0003Z" fill="#FEC50C"/>
    <path d="M216.094 114.581C214.494 114.601 213.894 115.601 213.894 116.801C213.894 118.401 216.094 126.021 216.094 126.021C216.094 126.021 218.294 118.401 218.294 116.801C218.294 115.601 217.694 114.581 216.094 114.581Z" fill="#FEC50C"/>
    <path d="M185.514 84.0007C185.494 82.4007 184.494 81.8007 183.294 81.8007C181.694 81.8007 174.074 84.0007 174.074 84.0007C174.074 84.0007 181.694 86.2007 183.294 86.2007C184.494 86.2007 185.514 85.6007 185.514 84.0007Z" fill="#FEC50C"/>
    <path d="M227.797 55.748C229.283 56.3418 230.22 55.6475 230.679 54.5389C231.291 53.0607 232.175 45.1788 232.175 45.1788C232.175 45.1788 227.226 51.3769 226.614 52.8551C226.155 53.9637 226.319 55.1357 227.797 55.748Z" fill="#FEC50C"/>
    <path d="M244.346 95.703C243.753 97.1888 244.447 98.1258 245.556 98.5851C247.034 99.1974 254.916 100.081 254.916 100.081C254.916 100.081 248.718 95.1323 247.239 94.52C246.131 94.0608 244.959 94.2248 244.346 95.703Z" fill="#FEC50C"/>
    <path d="M204.392 112.252C202.906 111.659 201.969 112.353 201.51 113.462C200.898 114.94 200.014 122.822 200.014 122.822C200.014 122.822 204.963 116.624 205.575 115.145C206.034 114.037 205.87 112.865 204.392 112.252Z" fill="#FEC50C"/>
    <path d="M187.842 72.298C188.436 70.8121 187.742 69.8751 186.633 69.4159C185.155 68.8036 177.273 67.9201 177.273 67.9201C177.273 67.9201 183.471 72.8687 184.949 73.481C186.058 73.9402 187.23 73.7762 187.842 72.298Z" fill="#FEC50C"/>
    <path d="M237.718 62.3774C238.863 63.4946 239.995 63.2117 240.843 62.3632C241.975 61.2318 245.807 54.2881 245.807 54.2881C245.807 54.2881 238.863 58.1206 237.732 59.2519C236.883 60.1005 236.586 61.246 237.718 62.3774Z" fill="#FEC50C"/>
    <path d="M237.718 105.624C236.601 106.769 236.883 107.9 237.732 108.749C238.863 109.88 245.807 113.713 245.807 113.713C245.807 113.713 241.975 106.769 240.843 105.638C239.995 104.789 238.849 104.492 237.718 105.624Z" fill="#FEC50C"/>
    <path d="M194.471 105.624C193.326 104.506 192.194 104.789 191.346 105.638C190.214 106.769 186.382 113.713 186.382 113.713C186.382 113.713 193.326 109.88 194.457 108.749C195.306 107.901 195.603 106.755 194.471 105.624Z" fill="#FEC50C"/>
    <path d="M194.471 62.3769C195.588 61.2314 195.305 60.1 194.457 59.2515C193.326 58.1201 186.382 54.2876 186.382 54.2876C186.382 54.2876 190.214 61.2314 191.346 62.3628C192.194 63.2113 193.34 63.5083 194.471 62.3769Z" fill="#FEC50C"/>
    <path d="M244.347 72.2981C244.977 73.7687 246.131 73.9403 247.24 73.4811C248.718 72.8688 254.916 67.9202 254.916 67.9202C254.916 67.9202 247.034 68.8037 245.556 69.416C244.447 69.8753 243.734 70.8199 244.347 72.2981Z" fill="#FEC50C"/>
    <path d="M227.797 112.253C226.326 112.883 226.155 114.037 226.614 115.146C227.226 116.624 232.175 122.822 232.175 122.822C232.175 122.822 231.291 114.94 230.679 113.462C230.22 112.353 229.275 111.64 227.797 112.253Z" fill="#FEC50C"/>
    <path d="M187.842 95.7028C187.211 94.2323 186.058 94.0606 184.949 94.5199C183.471 95.1322 177.273 100.081 177.273 100.081C177.273 100.081 185.155 99.1972 186.633 98.5849C187.742 98.1257 188.455 97.1811 187.842 95.7028Z" fill="#FEC50C"/>
    <path d="M204.392 55.7483C205.862 55.1175 206.034 53.964 205.575 52.8554C204.963 51.3772 200.014 45.1791 200.014 45.1791C200.014 45.1791 200.897 53.061 201.51 54.5392C201.969 55.6478 202.914 56.3606 204.392 55.7483Z" fill="#FEC50C"/>
    <path d="M222.06 54.0078C223.634 54.3003 224.417 53.4366 224.651 52.2596C224.963 50.6904 224.292 42.7876 224.292 42.7876C224.292 42.7876 220.648 49.832 220.336 51.4012C220.102 52.5782 220.491 53.6956 222.06 54.0078Z" fill="#FEC50C"/>
    <path d="M246.087 89.9659C245.794 91.5391 246.658 92.3227 247.835 92.5568C249.404 92.8689 257.307 92.1978 257.307 92.1978C257.307 92.1978 250.263 88.5535 248.693 88.2413C247.517 88.0072 246.399 88.3967 246.087 89.9659Z" fill="#FEC50C"/>
    <path d="M210.129 113.993C208.555 113.7 207.772 114.564 207.538 115.741C207.226 117.31 207.897 125.213 207.897 125.213C207.897 125.213 211.541 118.169 211.853 116.599C212.087 115.422 211.698 114.305 210.129 113.993Z" fill="#FEC50C"/>
    <path d="M186.102 78.0341C186.395 76.4609 185.531 75.6773 184.354 75.4432C182.785 75.1311 174.882 75.8022 174.882 75.8022C174.882 75.8022 181.926 79.4465 183.495 79.7587C184.672 79.9928 185.79 79.6033 186.102 78.0341Z" fill="#FEC50C"/>
    <path d="M233.084 58.5741C234.425 59.4464 235.48 58.9483 236.146 57.9505C237.035 56.6202 239.44 49.0621 239.44 49.0621C239.44 49.0621 233.377 54.1756 232.488 55.506C231.821 56.5038 231.754 57.6852 233.084 58.5741Z" fill="#FEC50C"/>
    <path d="M241.521 100.99C240.649 102.331 241.147 103.386 242.144 104.052C243.475 104.941 251.033 107.345 251.033 107.345C251.033 107.345 245.919 101.283 244.589 100.394C243.591 99.7271 242.41 99.6593 241.521 100.99Z" fill="#FEC50C"/>
    <path d="M199.105 109.426C197.764 108.554 196.709 109.052 196.043 110.05C195.154 111.38 192.749 118.938 192.749 118.938C192.749 118.938 198.812 113.825 199.701 112.494C200.368 111.497 200.435 110.315 199.105 109.426Z" fill="#FEC50C"/>
    <path d="M190.668 67.0109C191.54 65.6694 191.042 64.615 190.044 63.9483C188.714 63.0594 181.156 60.6551 181.156 60.6551C181.156 60.6551 186.27 66.7178 187.6 67.6067C188.598 68.2734 189.779 68.3412 190.668 67.0109Z" fill="#FEC50C"/>
    <path d="M241.521 67.0106C242.426 68.3299 243.591 68.2732 244.589 67.6065C245.919 66.7176 251.033 60.6549 251.033 60.6549C251.033 60.6549 243.475 63.0591 242.144 63.948C241.147 64.6147 240.632 65.6803 241.521 67.0106Z" fill="#FEC50C"/>
    <path d="M233.084 109.427C231.765 110.332 231.821 111.497 232.488 112.495C233.377 113.825 239.44 118.939 239.44 118.939C239.44 118.939 237.035 111.381 236.146 110.05C235.48 109.052 234.414 108.538 233.084 109.427Z" fill="#FEC50C"/>
    <path d="M190.668 100.989C189.763 99.6701 188.598 99.7268 187.6 100.393C186.27 101.282 181.156 107.345 181.156 107.345C181.156 107.345 188.714 104.941 190.045 104.052C191.042 103.385 191.557 102.32 190.668 100.989Z" fill="#FEC50C"/>
    <path d="M199.105 58.5739C200.424 57.6684 200.368 56.5036 199.701 55.5058C198.812 54.1755 192.749 49.0619 192.749 49.0619C192.749 49.0619 195.154 56.62 196.043 57.9503C196.709 58.9481 197.775 59.4629 199.105 58.5739Z" fill="#FEC50C"/>
    <path d="M246.087 78.0341C246.419 79.5994 247.517 79.9928 248.693 79.7587C250.263 79.4466 257.307 75.8023 257.307 75.8023C257.307 75.8023 249.404 75.1311 247.835 75.4433C246.658 75.6774 245.775 76.4648 246.087 78.0341Z" fill="#FEC50C"/>
    <path d="M222.06 113.993C220.495 114.324 220.102 115.422 220.336 116.599C220.648 118.169 224.292 125.213 224.292 125.213C224.292 125.213 224.963 117.31 224.651 115.741C224.417 114.564 223.63 113.681 222.06 113.993Z" fill="#FEC50C"/>
    <path d="M186.102 89.9659C185.77 88.4006 184.672 88.0072 183.495 88.2413C181.926 88.5534 174.882 92.1977 174.882 92.1977C174.882 92.1977 182.785 92.8689 184.354 92.5567C185.531 92.3226 186.414 91.5352 186.102 89.9659Z" fill="#FEC50C"/>
    <path d="M210.129 54.0078C211.694 53.676 212.087 52.5782 211.853 51.4012C211.541 49.832 207.897 42.7876 207.897 42.7876C207.897 42.7876 207.226 50.6904 207.538 52.2596C207.772 53.4366 208.559 54.3199 210.129 54.0078Z" fill="#FEC50C"/>
    <path d="M211.293 142.293C210.573 142.333 209.873 142.426 209.187 142.646C208.247 142.773 207.347 143.1 206.413 143.253L206.04 143.313L205.413 143.373C205.453 143.546 205.48 143.72 205.48 143.893C205.48 144.073 205.46 144.246 205.413 144.393C205.373 144.533 205.247 144.706 205.147 144.813C205.013 144.96 204.873 145.086 204.707 145.166C204.547 145.246 204.367 145.28 204.187 145.293C204.007 145.3 203.82 145.293 203.647 145.226C203.467 145.166 203.3 145.053 203.147 144.92C202.96 144.966 202.767 145 202.587 145.02C202.4 145.04 202.227 145.04 202.06 145.02C201.873 144.966 201.68 144.906 201.5 144.833C201.319 144.758 201.145 144.666 200.98 144.56C200.3 144.96 199.54 145.34 199.127 146.04C198.893 146.36 198.847 146.726 198.793 147.106C198.76 147.573 198.88 148.066 199.08 148.5C199.153 148.626 199.213 148.04 199.44 147.96C199.82 147.646 200.293 147.42 200.773 147.293C201.18 147.086 201.127 147.306 200.96 147.626C200.92 147.793 200.693 148.426 201 148.106C202.353 147.506 203.853 147.386 205.313 147.273C207.433 147.053 209.56 147.006 211.687 146.98C213.687 147.006 215.687 147.033 217.687 147.106C218.64 147.133 219.6 147.346 220.54 147.186C220.767 147.126 221.12 147.113 221.253 146.98C220.827 146.733 220.327 146.726 219.853 146.666H216.04C214.98 146.56 213.873 146.546 212.873 146.146C212.607 146.04 212.36 145.786 212.107 146.06C211.727 146.193 211.32 146.286 210.92 146.313C210.22 146.366 209.52 146.22 208.873 145.96C209.34 145.313 209.9 144.746 210.413 144.146C210 144.08 209.6 143.993 209.187 143.893C209.913 143.393 210.587 142.826 211.293 142.293Z" fill="#FEC50C"/>
    <path d="M242.44 149.202C240.991 150.072 239.885 148.529 238.674 148.067C237.809 148.537 237.728 150.108 236.92 150.853C235.953 151.953 234.768 150.545 234.856 149.46C233.7 150.435 233.115 152.644 231.245 152.349C230.359 151.626 229.7 150.109 229.023 151.836C228.471 152.681 227.001 153.882 226.24 152.607C226.005 151.481 225.44 150.157 224.828 151.945C224.407 153.21 223.058 154.141 221.752 153.587C221.037 153.003 222.325 150.842 221.415 150.996C220.055 151.895 219.264 154.127 217.367 153.948C216.63 153.121 217.814 151.72 217.005 150.801C216.051 152.026 214.993 153.819 213.342 153.948C212.545 153.302 213.374 151.448 212.864 151.174C211.171 152.189 209.384 153.999 207.254 153.433C208.084 150.258 211.552 149.144 214.469 148.897C219.487 148.28 224.766 149.414 229.594 147.603C230.374 147.128 232.264 146.455 231.591 145.354C230.995 144.485 233.141 144.825 233.348 143.809C233.22 142.523 234.333 142.7 235.421 142.588C240.296 142.377 245.112 143.404 249.972 143.578C250.339 145.947 247.712 147.61 245.597 146.878C244.587 147.042 243.072 144.555 243.369 146.364C243.165 147.314 243.308 148.568 242.44 149.202M200.96 144.353C202.089 145.386 202.88 144.158 203.935 143.709C207.473 142.492 210.561 140.366 213.604 138.241C215.448 136.715 217.047 134.736 219.524 134.241C224.355 132.78 229.49 132.957 234.34 131.609C238.033 126.553 244.305 124.749 249.559 121.843C250.739 121.477 251.195 120.506 251.571 119.434C253.577 116.268 256.309 113.462 259.54 111.546C261.069 110.71 262.893 110.229 264.624 110.611C264.5 112.673 263.317 114.5 261.89 115.925C263.058 115.9 264.062 115.162 265.243 115.203C265.648 117.319 263.363 118.426 262.147 119.743C262.824 119.901 265.418 120.097 264.005 120.775C262.204 122.025 260.147 122.883 258.484 124.335C260.018 124.61 260.193 124.936 258.633 125.491C257.789 126.064 256.165 126.264 256.008 127.379C257.167 128.091 255.474 128.798 254.821 129.03C253.573 129.32 252.262 129.863 253.92 130.811C253.293 131.759 251.947 131.961 250.849 131.867C251.182 132.941 251.664 134.143 250.27 134.617C247.146 136.979 243.478 138.697 239.55 139.09C244.457 139.467 249.512 138.556 253.705 135.888C254.258 135.233 257.161 134.53 255.538 133.979C254.773 133.661 253.134 133.308 253.024 132.725C255.295 131.324 258.156 131.822 260.6 130.99C260.663 130.199 258.741 130.419 258.025 130.239C256.316 130.099 256.416 129.663 258.064 129.501C260.148 128.949 262.509 128.841 264.262 127.482C262.835 126.82 261.039 127.403 259.516 126.863C262.098 125.733 265.144 125.619 267.461 123.922C268.517 122.748 266.109 123.115 265.408 123.143C263.978 123.392 263.317 122.708 264.941 122.113C267.715 120.068 271.228 118.739 273.177 115.774C273.638 115.11 274.263 113.11 272.791 113.83C270.855 114.473 269.151 116.65 266.945 115.977C271.292 112.608 275.428 108.773 278.399 104.111C278.552 102.766 276.442 102.621 275.892 103.676C273.1 106.367 270.572 109.543 266.997 111.23C270.421 107.925 273.252 104.012 275.722 99.9558C276.252 98.7494 277.675 97.2986 276.903 95.9592C275.658 94.9286 274.1 95.872 273.453 97.1052C271.282 99.9392 269.634 103.247 266.842 105.555C269.286 100.891 271.816 95.9258 271.878 90.546C271.871 89.4384 271.648 87.8072 270.144 88.014C268.952 88.2278 269.235 90.0124 268.743 90.915C267.661 94.5904 267.153 98.5708 264.933 101.789C265.433 98.8024 266.307 95.689 265.636 92.673C265.322 91.3252 263.146 91.905 263.426 93.239C260.826 106.411 251.987 117.931 240.428 124.595C235.135 127.59 229.224 129.52 223.209 130.395C221.591 130.75 219.841 130.542 218.295 131.093C214.547 133.967 212.279 138.775 207.534 140.28C205.408 141.337 202.635 141.552 201.115 143.527C200.983 143.78 200.955 144.072 200.96 144.353Z" fill="#FEC50C"/>
    <path d="M215.16 130.99C214.46 132.261 214.048 133.722 213.148 134.859C210.44 132.395 206.514 132.477 203.079 132.313C200.243 132.161 197.16 131.9 194.966 129.877C192.658 127.987 190.774 125.533 188.196 123.999C185.842 123.359 183.469 122.558 181.577 120.945C177.533 117.648 175.217 112.757 171.265 109.358C170.512 108.616 169.623 108.042 168.779 107.413C167.977 107.608 168.34 109.339 167.359 108.457C166.825 108.077 165.489 108.04 165.369 108.57C166.577 110.162 167.786 111.98 167.954 114.016C167.13 114.101 165.665 113.842 165.256 114.149C166.351 115.789 167.753 117.244 169.347 118.402C168.582 118.525 167.076 118.458 166.783 118.766C168.365 120.055 170.061 121.373 172.133 121.704C172.557 122.263 171.513 123.342 172.391 123.819C172.9 124.027 174.579 124.375 173.422 124.954C172.628 125.489 172.923 126.736 173.938 126.708C174.58 127.036 176.022 127.116 176.135 127.684C175.566 128.263 173.795 128.95 175.302 129.492C176.71 130.273 178.315 130.78 179.923 130.835C179.116 131.514 178.122 131.899 177.292 132.538C181.002 134.713 185.114 136.144 189.178 137.522C190.796 138.062 192.433 138.566 194.11 138.884C189.237 138.602 184.526 137.16 180.087 135.185C177.787 134.176 175.471 133.201 173.113 132.332C174.147 131.794 175.342 131.662 176.415 131.197C174.189 130.751 171.758 130.605 169.801 129.381C170.101 128.846 171.238 128.821 171.866 128.549C173.049 128.265 173.782 127.922 172.115 127.819C170.434 127.363 168.506 127.568 167.025 126.553C167.12 125.945 168.67 126.157 169.302 125.895C170.097 125.758 170.981 125.644 171.616 125.109C169.018 124.031 165.618 124.795 163.583 122.5C163.113 121.625 165.041 122.33 165.589 122.184C166.984 122.184 168.483 122.627 169.811 122.065C166.024 120.402 161.968 118.846 159.08 115.771C158.759 115.276 157.798 113.926 158.574 113.759C160.821 114.056 162.448 116.509 164.853 116.128C165.172 115.697 163.456 114.991 163.028 114.376C159.522 111.368 156.12 108.103 153.663 104.163C153.494 102.847 155.562 102.65 156.107 103.666C158.788 106.248 161.209 109.261 164.549 111.024C165.733 111.599 163.868 110.344 163.62 109.889C160.534 106.306 157.597 102.522 155.441 98.3028C155.055 97.5424 154.415 96.1656 155.57 95.7608C156.725 95.1824 157.87 95.9704 158.456 96.9622C160.724 99.8232 162.393 103.224 165.219 105.607C162.812 100.935 160.241 96.0176 160.179 90.6416C160.236 89.5996 160.303 88.0232 161.716 88.066C162.902 87.886 162.715 89.4052 163.104 90.1296C164.273 94.079 164.783 98.3538 167.128 101.841C166.61 98.911 165.848 95.8938 166.354 92.9154C166.471 91.9374 167.572 91.6414 168.291 92.2326C168.872 93.6546 168.993 95.4106 169.522 96.9308C172.534 107.235 179.297 116.297 188.11 122.379C195.369 127.357 203.983 130.329 212.774 130.847C213.568 130.916 214.365 130.94 215.161 130.989" fill="#FEC50C"/>
    <path d="M204 144.65C204.261 144.65 204.473 144.438 204.473 144.177C204.473 143.916 204.261 143.704 204 143.704C203.739 143.704 203.527 143.916 203.527 144.177C203.527 144.438 203.739 144.65 204 144.65Z" fill="#FEC50C"/>
    <path d="M203.96 144.294C204.067 144.294 204.153 144.208 204.153 144.101C204.153 143.995 204.067 143.908 203.96 143.908C203.853 143.908 203.767 143.995 203.767 144.101C203.767 144.208 203.853 144.294 203.96 144.294Z" fill="#FEC50C" stroke="#00AFCA" stroke-width="0.1905"/>
</svg>