<svg xmlns="http://www.w3.org/2000/svg" viewBox="0 0 400 200">
    <path d="M23.9998 14.5846C23.9998 14.5846 22.0778 12.9694 21.425 13.7796C20.375 15.0826 24.653 21.5732 24.653 23.8588C24.653 27.6106 22.1496 28.6308 19.0584 29.1666C16.9842 29.5262 13.6066 29.0162 13.6066 29.0162C14.2426 28.1616 14.6562 27.9098 15.7278 27.8416C14.5348 27.2222 13.32 25.8776 13.32 23.7848C13.32 20.5572 14.6486 19.2268 14.6486 15.5882C14.6486 13.5696 12.9934 11 12.9934 11C15.9192 11.2928 17.3692 14.0018 16.5442 16.1668C17.0098 16.2338 17.4326 16.1288 17.7958 15.7848C18.0098 16.3848 17.6718 17.0814 17.2192 17.6816C17.5838 17.8764 17.8516 17.7596 18.4324 17.6396C18.3772 18.258 18.0068 18.9148 17.1004 19.5332C19.7306 18.8502 21.349 20.6834 21.349 22.6026C21.349 24.0522 20.3332 25.0912 19.3402 25.0912C19.0194 25.0912 18.548 24.959 18.2822 24.7604C18.0946 25.1594 18.1912 25.6934 18.3842 26.0924C17.6566 25.9 17.1946 25.4678 17.5234 24.5682C16.9644 24.5168 16.5198 24.328 16.2174 23.9682C16.5238 23.5756 16.9888 23.3496 17.5234 23.368C17.1164 22.528 17.57 22.058 18.231 21.6768C18.231 21.6768 17.8106 23.368 18.884 23.368C19.3666 23.368 19.8064 23.2108 19.8064 22.4994C19.8064 21.88 19.265 21.022 18.0132 21.0766C16.7616 21.1312 15.7468 21.9396 15.7468 23.9378C15.7468 25.781 17.2336 26.6978 19.1928 26.757C20.9594 26.8116 22.2928 25.8546 22.2928 24.032C22.2928 21.6064 18.7912 16.0774 18.7912 13.916C18.7912 12.294 20.2496 11.3888 21.6766 11.3888C23.527 11.3888 25.0882 13.221 25.0882 13.221L24.0012 14.584L23.9998 14.5846Z" fill="#FEC50C"/>
    <path d="M24.4039 58.428C24.4039 62.482 20.7643 64.5656 17.9043 64.5656C14.0511 64.5656 11.9995 62.2618 11.9995 59.246C11.9995 57.5364 12.3127 56.4638 13.1009 54.8276C13.1009 54.8276 19.4569 41.6094 21.9315 36.497C22.2401 35.8594 22.3397 35.1334 22.3397 34.0694C22.3397 32.426 20.7457 31.0828 19.0743 31.0416C17.5507 31.0036 15.8907 32.462 15.8907 34.124C15.8907 36.1426 16.9379 37.0426 18.0131 37.0426C19.3363 37.0426 19.8635 36.4986 19.8635 35.5696C19.8635 34.9222 19.5509 34.6422 19.1015 34.6422C17.9667 34.6422 18.2853 36.1698 18.2853 36.1698C17.7217 36.0464 17.2585 35.4704 17.5233 34.7512C17.0953 34.6566 16.7091 34.4272 16.4213 34.0966C16.7255 33.8016 17.0745 33.574 17.5233 33.4966C17.2575 32.619 17.6127 32.1904 18.3805 32.01C18.2255 32.3474 18.2203 32.658 18.2717 32.951C19.4803 32.6072 21.3329 33.1542 21.3329 35.2422C21.3329 37.3152 19.8941 39.0608 17.1967 38.6246C17.8383 38.9314 18.1647 39.5592 18.2307 40.2612C17.7407 40.0704 17.1967 40.0432 17.1967 40.0432C17.5121 40.5992 17.9501 41.0786 17.9313 42.1706C17.4313 41.9432 16.9667 41.5222 16.3259 41.7886C17.3319 43.7682 16.0959 46.491 12.9517 47.1352C14.1025 45.7862 14.6659 44.3298 14.6659 42.8798C14.6659 38.1806 13.3599 37.3908 13.3599 34.1238C13.3599 32.7568 14.0625 31.2808 15.4551 30.2776V30.3322C14.5347 30.0856 13.9451 29.6324 13.6061 29.0166C15.7091 28.4202 18.7661 28.4312 20.4073 29.077C22.2941 29.2956 23.6113 30.743 23.9993 31.4778C24.3873 32.2118 25.1411 34.8684 23.9993 37.2602C22.7493 39.8778 16.8569 52.3722 15.0197 56.2998C14.6301 57.1328 14.3937 58.0164 14.3937 58.973C14.3937 61.379 16.5977 62.219 17.8497 62.219C19.3463 62.219 20.8701 61.079 20.8701 59.655C20.8701 58.7528 20.3801 58.2094 19.6727 58.2094C17.9811 58.2094 18.0839 59.6484 18.4211 60.5552C17.3683 60.0818 16.7563 59.2368 16.9245 58.3458C16.3285 58.264 15.7611 57.9814 15.2375 57.391C15.6495 56.871 16.1519 56.4776 16.9245 56.4636C16.5871 55.0812 17.5125 54.4966 18.4211 54.1724C18.1337 55.187 17.9451 56.3546 19.6727 56.3546C20.9327 56.3546 21.9243 56.5728 22.5027 57.3912C22.5367 56.3 22.6387 51.9902 22.6387 51.9902C22.7115 50.3706 20.4711 50.4168 19.0471 50.899C19.5845 49.0336 20.6867 48.025 23.2375 48.2804C22.6183 48.0214 21.9585 47.4388 21.9585 46.3164C21.9589 44.7978 23.1909 43.1154 23.9997 42.618L24.4041 58.4282L24.4039 58.428Z" fill="#FEC50C"/>
    <path d="M24.4039 70.5881C24.4039 66.5341 20.7643 64.4505 17.9043 64.4505C14.0511 64.4505 11.9995 66.7543 11.9995 69.7701C11.9995 71.4797 12.3127 72.5523 13.1009 74.1885C13.1009 74.1885 19.4569 87.4067 21.9315 92.5191C22.2401 93.1567 22.3397 93.8827 22.3397 94.9467C22.3397 96.5901 20.7457 97.9333 19.0743 97.9745C17.5507 98.0125 15.8907 96.5541 15.8907 94.8921C15.8907 92.8735 16.9379 91.9735 18.0131 91.9735C19.3363 91.9735 19.8635 92.5175 19.8635 93.4465C19.8635 94.0939 19.5509 94.3739 19.1015 94.3739C17.9667 94.3739 18.2853 92.8463 18.2853 92.8463C17.7217 92.9697 17.2585 93.5457 17.5233 94.2649C17.0953 94.3595 16.7091 94.5889 16.4213 94.9195C16.7255 95.2145 17.0745 95.4421 17.5233 95.5195C17.2575 96.3971 17.6127 96.8257 18.3805 97.0061C18.2255 96.6687 18.2203 96.3581 18.2717 96.0651C19.4803 96.4089 21.3329 95.8619 21.3329 93.7739C21.3329 91.7009 19.8941 89.9553 17.1967 90.3915C17.8383 90.0847 18.1647 89.4569 18.2307 88.7549C17.7407 88.9457 17.1967 88.9729 17.1967 88.9729C17.5121 88.4169 17.9501 87.9375 17.9313 86.8455C17.4313 87.0729 16.9667 87.4939 16.3259 87.2275C17.3319 85.2479 16.0959 82.5251 12.9517 81.8809C14.1025 83.2299 14.6659 84.6863 14.6659 86.1363C14.6659 90.8355 13.3599 91.6253 13.3599 94.8923C13.3599 96.2593 14.0625 97.7353 15.4551 98.7385V98.6839C14.5347 98.9305 13.9451 99.3837 13.6061 99.9995C15.7091 100.596 18.7661 100.585 20.4073 99.9391C22.2941 99.7205 23.6113 98.2731 23.9993 97.5383C24.3873 96.8043 25.1411 94.1477 23.9993 91.7559C22.7493 89.1383 16.8569 76.6439 15.0197 72.7163C14.6301 71.8833 14.3937 70.9997 14.3937 70.0431C14.3937 67.6371 16.5977 66.7971 17.8497 66.7971C19.3463 66.7971 20.8701 67.9371 20.8701 69.3611C20.8701 70.2633 20.3801 70.8067 19.6727 70.8067C17.9811 70.8067 18.0839 69.3677 18.4211 68.4609C17.3683 68.9343 16.7563 69.7793 16.9245 70.6703C16.3285 70.7521 15.7611 71.0347 15.2375 71.6251C15.6495 72.1451 16.1519 72.5385 16.9245 72.5525C16.5871 73.9349 17.5125 74.5195 18.4211 74.8437C18.1337 73.8291 17.9451 72.6615 19.6727 72.6615C20.9327 72.6615 21.9243 72.4433 22.5027 71.6249C22.5367 72.7161 22.6387 77.0259 22.6387 77.0259C22.7115 78.6455 20.4711 78.5993 19.0471 78.1171C19.5845 79.9825 20.6867 80.9911 23.2375 80.7357C22.6183 80.9947 21.9585 81.5773 21.9585 82.6997C21.9589 84.2183 23.1909 85.9007 23.9997 86.3981L24.4041 70.5879L24.4039 70.5881Z" fill="#FEC50C"/>
    <path d="M23.9999 14.5846C23.9999 14.5846 25.9219 12.9694 26.5747 13.7796C27.6247 15.0826 23.3467 21.5732 23.3467 23.8588C23.3467 27.6106 25.8501 28.6308 28.9413 29.1666C31.0155 29.5262 34.3931 29.0162 34.3931 29.0162C33.7571 28.1616 33.3435 27.9098 32.2719 27.8416C33.4649 27.2222 34.6797 25.8776 34.6797 23.7848C34.6797 20.5572 33.3511 19.2268 33.3511 15.5882C33.3511 13.5696 35.0063 11 35.0063 11C32.0805 11.2928 30.6305 14.0018 31.4555 16.1668C30.9899 16.2338 30.5671 16.1288 30.2039 15.7848C29.9899 16.3848 30.3279 17.0814 30.7805 17.6816C30.4159 17.8764 30.1481 17.7596 29.5673 17.6396C29.6225 18.258 29.9929 18.9148 30.8993 19.5332C28.2691 18.8502 26.6507 20.6834 26.6507 22.6026C26.6507 24.0522 27.6665 25.0912 28.6595 25.0912C28.9803 25.0912 29.4517 24.959 29.7175 24.7604C29.9051 25.1594 29.8085 25.6934 29.6155 26.0924C30.3431 25.9 30.8051 25.4678 30.4763 24.5682C31.0353 24.5168 31.4799 24.328 31.7823 23.9682C31.4759 23.5756 31.0109 23.3496 30.4763 23.368C30.8833 22.528 30.4297 22.058 29.7687 21.6768C29.7687 21.6768 30.1891 23.368 29.1157 23.368C28.6331 23.368 28.1933 23.2108 28.1933 22.4994C28.1933 21.88 28.7347 21.022 29.9865 21.0766C31.2381 21.1312 32.2529 21.9396 32.2529 23.9378C32.2529 25.781 30.7661 26.6978 28.8069 26.757C27.0403 26.8116 25.7069 25.8546 25.7069 24.032C25.7069 21.6064 29.2085 16.0774 29.2085 13.916C29.2085 12.294 27.7501 11.3888 26.3231 11.3888C24.4727 11.3888 22.9115 13.221 22.9115 13.221L23.9985 14.584L23.9999 14.5846Z" fill="#FEC50C"/>
    <path d="M23.5958 58.428C23.5958 62.482 27.2354 64.5656 30.0954 64.5656C33.9486 64.5656 36.0002 62.2618 36.0002 59.246C36.0002 57.5364 35.687 56.4638 34.8988 54.8276C34.8988 54.8276 28.5428 41.6094 26.0682 36.497C25.7596 35.8594 25.66 35.1334 25.66 34.0694C25.66 32.426 27.254 31.0828 28.9254 31.0416C30.449 31.0036 32.109 32.462 32.109 34.124C32.109 36.1426 31.0618 37.0426 29.9866 37.0426C28.6634 37.0426 28.1362 36.4986 28.1362 35.5696C28.1362 34.9222 28.4488 34.6422 28.8982 34.6422C30.033 34.6422 29.7144 36.1698 29.7144 36.1698C30.278 36.0464 30.7412 35.4704 30.4764 34.7512C30.9044 34.6566 31.2907 34.4272 31.5784 34.0966C31.2742 33.8016 30.9252 33.574 30.4764 33.4966C30.7422 32.619 30.387 32.1904 29.6192 32.01C29.7742 32.3474 29.7794 32.658 29.728 32.951C28.5194 32.6072 26.6668 33.1542 26.6668 35.2422C26.6668 37.3152 28.1056 39.0608 30.803 38.6246C30.1614 38.9314 29.835 39.5592 29.769 40.2612C30.259 40.0704 30.803 40.0432 30.803 40.0432C30.4876 40.5992 30.0496 41.0786 30.0684 42.1706C30.5684 41.9432 31.033 41.5222 31.6738 41.7886C30.6678 43.7682 31.9038 46.491 35.048 47.1352C33.8972 45.7862 33.3338 44.3298 33.3338 42.8798C33.3338 38.1806 34.6398 37.3908 34.6398 34.1238C34.6398 32.7568 33.9372 31.2808 32.5446 30.2776V30.3322C33.465 30.0856 34.0546 29.6324 34.3936 29.0166C32.2906 28.4202 29.2336 28.4312 27.5924 29.077C25.7056 29.2956 24.3884 30.743 24.0004 31.4778C23.6124 32.2118 22.8586 34.8684 24.0004 37.2602C25.2504 39.8778 31.1428 52.3722 32.98 56.2998C33.3696 57.1328 33.606 58.0164 33.606 58.973C33.606 61.379 31.402 62.219 30.15 62.219C28.6534 62.219 27.1296 61.079 27.1296 59.655C27.1296 58.7528 27.6196 58.2094 28.327 58.2094C30.0186 58.2094 29.9158 59.6484 29.5786 60.5552C30.6314 60.0818 31.2434 59.2368 31.0752 58.3458C31.6712 58.264 32.2386 57.9814 32.7622 57.391C32.3502 56.871 31.8478 56.4776 31.0752 56.4636C31.4126 55.0812 30.4872 54.4966 29.5786 54.1724C29.866 55.187 30.0546 56.3546 28.327 56.3546C27.067 56.3546 26.0754 56.5728 25.497 57.3912C25.463 56.3 25.361 51.9902 25.361 51.9902C25.2882 50.3706 27.5286 50.4168 28.9526 50.899C28.4152 49.0336 27.313 48.025 24.7622 48.2804C25.3814 48.0214 26.0412 47.4388 26.0412 46.3164C26.0408 44.7978 24.8088 43.1154 24 42.618L23.5956 58.4282L23.5958 58.428Z" fill="#FEC50C"/>
    <path d="M23.5958 70.5881C23.5958 66.5341 27.2354 64.4505 30.0954 64.4505C33.9486 64.4505 36.0002 66.7543 36.0002 69.7701C36.0002 71.4797 35.687 72.5523 34.8988 74.1885C34.8988 74.1885 28.5428 87.4067 26.0682 92.5191C25.7596 93.1567 25.66 93.8827 25.66 94.9467C25.66 96.5901 27.254 97.9333 28.9254 97.9745C30.449 98.0125 32.109 96.5541 32.109 94.8921C32.109 92.8735 31.0618 91.9735 29.9866 91.9735C28.6634 91.9735 28.1362 92.5175 28.1362 93.4465C28.1362 94.0939 28.4488 94.3739 28.8982 94.3739C30.033 94.3739 29.7144 92.8463 29.7144 92.8463C30.278 92.9697 30.7412 93.5457 30.4764 94.2649C30.9044 94.3595 31.2907 94.5889 31.5784 94.9195C31.2742 95.2145 30.9252 95.4421 30.4764 95.5195C30.7422 96.3971 30.387 96.8257 29.6192 97.0061C29.7742 96.6687 29.7794 96.3581 29.728 96.0651C28.5194 96.4089 26.6668 95.8619 26.6668 93.7739C26.6668 91.7009 28.1056 89.9553 30.803 90.3915C30.1614 90.0847 29.835 89.4569 29.769 88.7549C30.259 88.9457 30.803 88.9729 30.803 88.9729C30.4876 88.4169 30.0496 87.9375 30.0684 86.8455C30.5684 87.0729 31.033 87.4939 31.6738 87.2275C30.6678 85.2479 31.9038 82.5251 35.048 81.8809C33.8972 83.2299 33.3338 84.6863 33.3338 86.1363C33.3338 90.8355 34.6398 91.6253 34.6398 94.8923C34.6398 96.2593 33.9372 97.7353 32.5446 98.7385V98.6839C33.465 98.9305 34.0546 99.3837 34.3936 99.9995C32.2906 100.596 29.2336 100.585 27.5924 99.9391C25.7056 99.7205 24.3884 98.2731 24.0004 97.5383C23.6124 96.8043 22.8586 94.1477 24.0004 91.7559C25.2504 89.1383 31.1428 76.6439 32.98 72.7163C33.3696 71.8833 33.606 70.9997 33.606 70.0431C33.606 67.6371 31.402 66.7971 30.15 66.7971C28.6534 66.7971 27.1296 67.9371 27.1296 69.3611C27.1296 70.2633 27.6196 70.8067 28.327 70.8067C30.0186 70.8067 29.9158 69.3677 29.5786 68.4609C30.6314 68.9343 31.2434 69.7793 31.0752 70.6703C31.6712 70.7521 32.2386 71.0347 32.7622 71.6251C32.3502 72.1451 31.8478 72.5385 31.0752 72.5525C31.4126 73.9349 30.4872 74.5195 29.5786 74.8437C29.866 73.8291 30.0546 72.6615 28.327 72.6615C27.067 72.6615 26.0754 72.4433 25.497 71.6249C25.463 72.7161 25.361 77.0259 25.361 77.0259C25.2882 78.6455 27.5286 78.5993 28.9526 78.1171C28.4152 79.9825 27.313 80.9911 24.7622 80.7357C25.3814 80.9947 26.0412 81.5773 26.0412 82.6997C26.0408 84.2183 24.8088 85.9007 24 86.3981L23.5956 70.5879L23.5958 70.5881Z" fill="#FEC50C"/>
    <path d="M23.9998 185.416C23.9998 185.416 22.0778 187.031 21.425 186.221C20.375 184.918 24.653 178.427 24.653 176.142C24.653 172.39 22.1496 171.37 19.0584 170.834C16.9842 170.474 13.6066 170.984 13.6066 170.984C14.2426 171.839 14.6562 172.091 15.7278 172.159C14.5348 172.778 13.32 174.123 13.32 176.216C13.32 179.443 14.6486 180.774 14.6486 184.412C14.6486 186.431 12.9934 189 12.9934 189C15.9192 188.708 17.3692 185.999 16.5442 183.834C17.0098 183.767 17.4326 183.872 17.7958 184.216C18.0098 183.616 17.6718 182.919 17.2192 182.319C17.5838 182.124 17.8516 182.241 18.4324 182.361C18.3772 181.742 18.0068 181.086 17.1004 180.467C19.7306 181.15 21.349 179.317 21.349 177.398C21.349 175.948 20.3332 174.909 19.3402 174.909C19.0194 174.909 18.548 175.041 18.2822 175.24C18.0946 174.841 18.1912 174.307 18.3842 173.908C17.6566 174.1 17.1946 174.533 17.5234 175.432C16.9644 175.484 16.5198 175.672 16.2174 176.032C16.5238 176.425 16.9888 176.651 17.5234 176.632C17.1164 177.472 17.57 177.942 18.231 178.324C18.231 178.324 17.8106 176.632 18.884 176.632C19.3666 176.632 19.8064 176.79 19.8064 177.501C19.8064 178.12 19.265 178.978 18.0132 178.924C16.7616 178.869 15.7468 178.061 15.7468 176.063C15.7468 174.219 17.2336 173.303 19.1928 173.243C20.9594 173.189 22.2928 174.146 22.2928 175.968C22.2928 178.394 18.7912 183.923 18.7912 186.084C18.7912 187.706 20.2496 188.612 21.6766 188.612C23.527 188.612 25.0882 186.779 25.0882 186.779L24.0012 185.416L23.9998 185.416Z" fill="#FEC50C"/>
    <path d="M24.4039 141.573C24.4039 137.519 20.7643 135.435 17.9043 135.435C14.0511 135.435 11.9995 137.739 11.9995 140.755C11.9995 142.464 12.3127 143.537 13.1009 145.173C13.1009 145.173 19.4569 158.391 21.9315 163.504C22.2401 164.141 22.3397 164.867 22.3397 165.931C22.3397 167.575 20.7457 168.918 19.0743 168.959C17.5507 168.997 15.8907 167.539 15.8907 165.877C15.8907 163.858 16.9379 162.958 18.0131 162.958C19.3363 162.958 19.8635 163.502 19.8635 164.431C19.8635 165.078 19.5509 165.358 19.1015 165.358C17.9667 165.358 18.2853 163.831 18.2853 163.831C17.7217 163.954 17.2585 164.53 17.5233 165.249C17.0953 165.344 16.7091 165.573 16.4213 165.904C16.7255 166.199 17.0745 166.427 17.5233 166.504C17.2575 167.382 17.6127 167.81 18.3805 167.991C18.2255 167.653 18.2203 167.343 18.2717 167.05C19.4803 167.393 21.3329 166.846 21.3329 164.758C21.3329 162.685 19.8941 160.94 17.1967 161.376C17.8383 161.069 18.1647 160.441 18.2307 159.739C17.7407 159.93 17.1967 159.957 17.1967 159.957C17.5121 159.401 17.9501 158.922 17.9313 157.83C17.4313 158.057 16.9667 158.478 16.3259 158.212C17.3319 156.232 16.0959 153.51 12.9517 152.865C14.1025 154.214 14.6659 155.671 14.6659 157.121C14.6659 161.82 13.3599 162.61 13.3599 165.877C13.3599 167.244 14.0625 168.72 15.4551 169.723V169.668C14.5347 169.915 13.9451 170.368 13.6061 170.984C15.7091 171.58 18.7661 171.569 20.4073 170.924C22.2941 170.705 23.6113 169.258 23.9993 168.523C24.3873 167.789 25.1411 165.132 23.9993 162.74C22.7493 160.123 16.8569 147.628 15.0197 143.701C14.6301 142.868 14.3937 141.984 14.3937 141.028C14.3937 138.622 16.5977 137.782 17.8497 137.782C19.3463 137.782 20.8701 138.922 20.8701 140.346C20.8701 141.248 20.3801 141.791 19.6727 141.791C17.9811 141.791 18.0839 140.352 18.4211 139.445C17.3683 139.919 16.7563 140.764 16.9245 141.655C16.3285 141.737 15.7611 142.019 15.2375 142.61C15.6495 143.13 16.1519 143.523 16.9245 143.537C16.5871 144.919 17.5125 145.504 18.4211 145.828C18.1337 144.814 17.9451 143.646 19.6727 143.646C20.9327 143.646 21.9243 143.428 22.5027 142.609C22.5367 143.701 22.6387 148.01 22.6387 148.01C22.7115 149.63 20.4711 149.584 19.0471 149.102C19.5845 150.967 20.6867 151.976 23.2375 151.72C22.6183 151.979 21.9585 152.562 21.9585 153.684C21.9589 155.203 23.1909 156.885 23.9997 157.383L24.4041 141.572L24.4039 141.573Z" fill="#FEC50C"/>
    <path d="M24.4039 129.412C24.4039 133.466 20.7643 135.55 17.9043 135.55C14.0511 135.55 11.9995 133.246 11.9995 130.23C11.9995 128.521 12.3127 127.448 13.1009 125.812C13.1009 125.812 19.4569 112.594 21.9315 107.481C22.2401 106.844 22.3397 106.118 22.3397 105.054C22.3397 103.41 20.7457 102.067 19.0743 102.026C17.5507 101.988 15.8907 103.446 15.8907 105.108C15.8907 107.127 16.9379 108.027 18.0131 108.027C19.3363 108.027 19.8635 107.483 19.8635 106.554C19.8635 105.907 19.5509 105.627 19.1015 105.627C17.9667 105.627 18.2853 107.154 18.2853 107.154C17.7217 107.031 17.2585 106.455 17.5233 105.736C17.0953 105.641 16.7091 105.412 16.4213 105.081C16.7255 104.786 17.0745 104.558 17.5233 104.481C17.2575 103.603 17.6127 103.175 18.3805 102.994C18.2255 103.332 18.2203 103.642 18.2717 103.935C19.4803 103.592 21.3329 104.139 21.3329 106.227C21.3329 108.3 19.8941 110.045 17.1967 109.609C17.8383 109.916 18.1647 110.544 18.2307 111.246C17.7407 111.055 17.1967 111.028 17.1967 111.028C17.5121 111.584 17.9501 112.063 17.9313 113.155C17.4313 112.928 16.9667 112.507 16.3259 112.773C17.3319 114.753 16.0959 117.475 12.9517 118.12C14.1025 116.771 14.6659 115.314 14.6659 113.864C14.6659 109.165 13.3599 108.375 13.3599 105.108C13.3599 103.741 14.0625 102.265 15.4551 101.262V101.317C14.5347 101.07 13.9451 100.617 13.6061 100.001C15.7091 99.4046 18.7661 99.4156 20.4073 100.061C22.2941 100.28 23.6113 101.727 23.9993 102.462C24.3873 103.196 25.1411 105.853 23.9993 108.245C22.7493 110.862 16.8569 123.357 15.0197 127.284C14.6301 128.117 14.3937 129.001 14.3937 129.957C14.3937 132.363 16.5977 133.203 17.8497 133.203C19.3463 133.203 20.8701 132.063 20.8701 130.639C20.8701 129.737 20.3801 129.194 19.6727 129.194C17.9811 129.194 18.0839 130.633 18.4211 131.54C17.3683 131.066 16.7563 130.221 16.9245 129.33C16.3285 129.248 15.7611 128.966 15.2375 128.375C15.6495 127.855 16.1519 127.462 16.9245 127.448C16.5871 126.066 17.5125 125.481 18.4211 125.157C18.1337 126.171 17.9451 127.339 19.6727 127.339C20.9327 127.339 21.9243 127.557 22.5027 128.376C22.5367 127.284 22.6387 122.975 22.6387 122.975C22.7115 121.355 20.4711 121.401 19.0471 121.883C19.5845 120.018 20.6867 119.009 23.2375 119.265C22.6183 119.006 21.9585 118.423 21.9585 117.301C21.9589 115.782 23.1909 114.1 23.9997 113.602L24.4041 129.413L24.4039 129.412Z" fill="#FEC50C"/>
    <path d="M23.9999 185.416C23.9999 185.416 25.9219 187.031 26.5747 186.221C27.6247 184.918 23.3467 178.427 23.3467 176.142C23.3467 172.39 25.8501 171.37 28.9413 170.834C31.0155 170.474 34.3931 170.984 34.3931 170.984C33.7571 171.839 33.3435 172.091 32.2719 172.159C33.4649 172.778 34.6797 174.123 34.6797 176.216C34.6797 179.443 33.3511 180.774 33.3511 184.412C33.3511 186.431 35.0063 189 35.0063 189C32.0805 188.708 30.6305 185.999 31.4555 183.834C30.9899 183.767 30.5671 183.872 30.2039 184.216C29.9899 183.616 30.3279 182.919 30.7805 182.319C30.4159 182.124 30.1481 182.241 29.5673 182.361C29.6225 181.742 29.9929 181.086 30.8993 180.467C28.2691 181.15 26.6507 179.317 26.6507 177.398C26.6507 175.948 27.6665 174.909 28.6595 174.909C28.9803 174.909 29.4517 175.041 29.7175 175.24C29.9051 174.841 29.8085 174.307 29.6155 173.908C30.3431 174.1 30.8051 174.533 30.4763 175.432C31.0353 175.484 31.4799 175.672 31.7823 176.032C31.4759 176.425 31.0109 176.651 30.4763 176.632C30.8833 177.472 30.4297 177.942 29.7687 178.324C29.7687 178.324 30.1891 176.632 29.1157 176.632C28.6331 176.632 28.1933 176.79 28.1933 177.501C28.1933 178.12 28.7347 178.978 29.9865 178.924C31.2381 178.869 32.2529 178.061 32.2529 176.063C32.2529 174.219 30.7661 173.303 28.8069 173.243C27.0403 173.189 25.7069 174.146 25.7069 175.968C25.7069 178.394 29.2085 183.923 29.2085 186.084C29.2085 187.706 27.7501 188.612 26.3231 188.612C24.4727 188.612 22.9115 186.779 22.9115 186.779L23.9985 185.416L23.9999 185.416Z" fill="#FEC50C"/>
    <path d="M23.5958 141.573C23.5958 137.519 27.2354 135.435 30.0954 135.435C33.9486 135.435 36.0002 137.739 36.0002 140.755C36.0002 142.464 35.687 143.537 34.8988 145.173C34.8988 145.173 28.5428 158.391 26.0682 163.504C25.7596 164.141 25.66 164.867 25.66 165.931C25.66 167.575 27.254 168.918 28.9254 168.959C30.449 168.997 32.109 167.539 32.109 165.877C32.109 163.858 31.0618 162.958 29.9866 162.958C28.6634 162.958 28.1362 163.502 28.1362 164.431C28.1362 165.078 28.4488 165.358 28.8982 165.358C30.033 165.358 29.7144 163.831 29.7144 163.831C30.278 163.954 30.7412 164.53 30.4764 165.249C30.9044 165.344 31.2907 165.573 31.5784 165.904C31.2742 166.199 30.9252 166.427 30.4764 166.504C30.7422 167.382 30.387 167.81 29.6192 167.991C29.7742 167.653 29.7794 167.343 29.728 167.05C28.5194 167.393 26.6668 166.846 26.6668 164.758C26.6668 162.685 28.1056 160.94 30.803 161.376C30.1614 161.069 29.835 160.441 29.769 159.739C30.259 159.93 30.803 159.957 30.803 159.957C30.4876 159.401 30.0496 158.922 30.0684 157.83C30.5684 158.057 31.033 158.478 31.6738 158.212C30.6678 156.232 31.9038 153.51 35.048 152.865C33.8972 154.214 33.3338 155.671 33.3338 157.121C33.3338 161.82 34.6398 162.61 34.6398 165.877C34.6398 167.244 33.9372 168.72 32.5446 169.723V169.668C33.465 169.915 34.0546 170.368 34.3936 170.984C32.2906 171.58 29.2336 171.569 27.5924 170.924C25.7056 170.705 24.3884 169.258 24.0004 168.523C23.6124 167.789 22.8586 165.132 24.0004 162.74C25.2504 160.123 31.1428 147.628 32.98 143.701C33.3696 142.868 33.606 141.984 33.606 141.028C33.606 138.622 31.402 137.782 30.15 137.782C28.6534 137.782 27.1296 138.922 27.1296 140.346C27.1296 141.248 27.6196 141.791 28.327 141.791C30.0186 141.791 29.9158 140.352 29.5786 139.445C30.6314 139.919 31.2434 140.764 31.0752 141.655C31.6712 141.737 32.2386 142.019 32.7622 142.61C32.3502 143.13 31.8478 143.523 31.0752 143.537C31.4126 144.919 30.4872 145.504 29.5786 145.828C29.866 144.814 30.0546 143.646 28.327 143.646C27.067 143.646 26.0754 143.428 25.497 142.609C25.463 143.701 25.361 148.01 25.361 148.01C25.2882 149.63 27.5286 149.584 28.9526 149.102C28.4152 150.967 27.313 151.976 24.7622 151.72C25.3814 151.979 26.0412 152.562 26.0412 153.684C26.0408 155.203 24.8088 156.885 24 157.383L23.5956 141.572L23.5958 141.573Z" fill="#FEC50C"/>
    <path d="M23.5958 129.412C23.5958 133.466 27.2354 135.55 30.0954 135.55C33.9486 135.55 36.0002 133.246 36.0002 130.23C36.0002 128.521 35.687 127.448 34.8988 125.812C34.8988 125.812 28.5428 112.594 26.0682 107.481C25.7596 106.844 25.66 106.118 25.66 105.054C25.66 103.41 27.254 102.067 28.9254 102.026C30.449 101.988 32.109 103.446 32.109 105.108C32.109 107.127 31.0618 108.027 29.9866 108.027C28.6634 108.027 28.1362 107.483 28.1362 106.554C28.1362 105.907 28.4488 105.627 28.8982 105.627C30.033 105.627 29.7144 107.154 29.7144 107.154C30.278 107.031 30.7412 106.455 30.4764 105.736C30.9044 105.641 31.2907 105.412 31.5784 105.081C31.2742 104.786 30.9252 104.558 30.4764 104.481C30.7422 103.603 30.387 103.175 29.6192 102.994C29.7742 103.332 29.7794 103.642 29.728 103.935C28.5194 103.592 26.6668 104.139 26.6668 106.227C26.6668 108.3 28.1056 110.045 30.803 109.609C30.1614 109.916 29.835 110.544 29.769 111.246C30.259 111.055 30.803 111.028 30.803 111.028C30.4876 111.584 30.0496 112.063 30.0684 113.155C30.5684 112.928 31.033 112.507 31.6738 112.773C30.6678 114.753 31.9038 117.475 35.048 118.12C33.8972 116.771 33.3338 115.314 33.3338 113.864C33.3338 109.165 34.6398 108.375 34.6398 105.108C34.6398 103.741 33.9372 102.265 32.5446 101.262V101.317C33.465 101.07 34.0546 100.617 34.3936 100.001C32.2906 99.4046 29.2336 99.4156 27.5924 100.061C25.7056 100.28 24.3884 101.727 24.0004 102.462C23.6124 103.196 22.8586 105.853 24.0004 108.245C25.2504 110.862 31.1428 123.357 32.98 127.284C33.3696 128.117 33.606 129.001 33.606 129.957C33.606 132.363 31.402 133.203 30.15 133.203C28.6534 133.203 27.1296 132.063 27.1296 130.639C27.1296 129.737 27.6196 129.194 28.327 129.194C30.0186 129.194 29.9158 130.633 29.5786 131.54C30.6314 131.066 31.2434 130.221 31.0752 129.33C31.6712 129.248 32.2386 128.966 32.7622 128.375C32.3502 127.855 31.8478 127.462 31.0752 127.448C31.4126 126.066 30.4872 125.481 29.5786 125.157C29.866 126.171 30.0546 127.339 28.327 127.339C27.067 127.339 26.0754 127.557 25.497 128.376C25.463 127.284 25.361 122.975 25.361 122.975C25.2882 121.355 27.5286 121.401 28.9526 121.883C28.4152 120.018 27.313 119.009 24.7622 119.265C25.3814 119.006 26.0412 118.423 26.0412 117.301C26.0408 115.782 24.8088 114.1 24 113.602L23.5956 129.413L23.5958 129.412Z" fill="#FEC50C"/>
</svg>