<svg xmlns="http://www.w3.org/2000/svg" viewBox="0 0 400 200"><g><path d="M99.9998 120L105.785 137.987L123.455 131.295L112.999 147.033L129.248 156.676L110.424 158.313L113.016 177.029L99.9998 163.333L86.9833 177.029L89.5754 158.313L70.752 156.676L87.0008 147.033L76.5448 131.295L94.2147 137.987L99.9998 120Z" fill="white" />
<path d="M300 152.381L302.755 160.946L311.169 157.76L306.19 165.254L313.927 169.845L304.964 170.625L306.198 179.538L300 173.016L293.801 179.538L295.036 170.625L286.072 169.845L293.81 165.254L288.831 157.76L297.245 160.946L300 152.381Z" fill="white" />
<path d="M250 73.2148L252.755 81.7801L261.169 78.5936L256.19 86.0877L263.927 90.6794L254.964 91.4592L256.198 100.372L250 93.8498L243.801 100.372L245.036 91.4592L236.072 90.6794L243.81 86.0877L238.831 78.5936L247.245 81.7801L250 73.2148Z" fill="white" />
<path d="M300 19.0479L302.755 27.6131L311.169 24.4266L306.19 31.9207L313.927 36.5124L304.964 37.2922L306.198 46.2045L300 39.6828L293.801 46.2045L295.036 37.2922L286.072 36.5124L293.81 31.9207L288.831 24.4266L297.245 27.6131L300 19.0479Z" fill="white" />
<path d="M344.444 59.8809L347.199 68.4461L355.613 65.2596L350.634 72.7537L358.372 77.3454L349.408 78.1252L350.642 87.0376L344.444 80.5158L338.246 87.0376L339.48 78.1252L330.517 77.3454L338.254 72.7537L333.275 65.2596L341.689 68.4461L344.444 59.8809Z" fill="white" />
<path d="M320 100L322.177 105.337L327.925 105.758L323.522 109.478L324.898 115.075L320 112.037L315.101 115.075L316.477 109.478L312.074 105.758L317.823 105.337L320 100Z" fill="white" />
</g></svg>