<svg width="400" height="200" viewBox="0 0 400 200" fill="none"
    xmlns="http://www.w3.org/2000/svg">
    <g clip-path="url(#clip0_5_281)">
        <path d="M56 56C69.2548 56 80 45.2548 80 32C80 18.7452 69.2548 8 56 8C42.7452 8 32 18.7452 32 32C32 45.2548 42.7452 56 56 56Z" fill="white"/>
        <path d="M64 56C77.2548 56 88 45.2548 88 32C88 18.7452 77.2548 8 64 8C50.7452 8 40 18.7452 40 32C40 45.2548 50.7452 56 64 56Z" fill="#0099B5"/>
        <path d="M108.801 46.3999L107.317 50.965L109.6 51.7066" fill="white"/>
        <path d="M108.801 46.3999L110.284 50.965L108.002 51.7066" fill="white"/>
        <path d="M113.366 49.7168H108.566V52.1168" fill="white"/>
        <path d="M113.366 49.7168L109.483 52.5382L108.072 50.5965" fill="white"/>
        <path d="M104.235 49.7166L108.119 52.5379L109.529 50.5963" fill="white"/>
        <path d="M104.235 49.7166H109.035V52.1166" fill="white"/>
        <path d="M111.622 55.083L110.139 50.5179L107.856 51.2596" fill="white"/>
        <path d="M111.622 55.083L107.739 52.2616L109.149 50.32" fill="white"/>
        <path d="M105.979 55.0833L109.863 52.2619L108.452 50.3202" fill="white"/>
        <path d="M105.979 55.0833L107.463 50.5182L109.745 51.2598" fill="white"/>
        <path d="M108.801 27.2L107.317 31.765L109.6 32.5067" fill="white"/>
        <path d="M108.801 27.2L110.284 31.765L108.002 32.5067" fill="white"/>
        <path d="M113.366 30.5168H108.566V32.9168" fill="white"/>
        <path d="M113.366 30.5168L109.483 33.3382L108.072 31.3966" fill="white"/>
        <path d="M104.235 30.5166L108.119 33.338L109.529 31.3963" fill="white"/>
        <path d="M104.235 30.5166H109.035V32.9166" fill="white"/>
        <path d="M111.622 35.8831L110.139 31.318L107.856 32.0596" fill="white"/>
        <path d="M111.622 35.8831L107.739 33.0617L109.149 31.12" fill="white"/>
        <path d="M105.979 35.8833L109.863 33.0619L108.452 31.1203" fill="white"/>
        <path d="M105.979 35.8833L107.463 31.3182L109.745 32.0599" fill="white"/>
        <path d="M108.801 8L107.317 12.5651L109.6 13.3067" fill="white"/>
        <path d="M108.801 8L110.284 12.5651L108.002 13.3067" fill="white"/>
        <path d="M113.366 11.3169H108.566V13.7169" fill="white"/>
        <path d="M113.366 11.3169L109.483 14.1383L108.072 12.1966" fill="white"/>
        <path d="M104.235 11.3167L108.119 14.138L109.529 12.1964" fill="white"/>
        <path d="M104.235 11.3167H109.035V13.7167" fill="white"/>
        <path d="M111.622 16.6831L110.139 12.118L107.856 12.8597" fill="white"/>
        <path d="M111.622 16.6831L107.739 13.8617L109.149 11.9201" fill="white"/>
        <path d="M105.979 16.6833L109.863 13.862L108.452 11.9203" fill="white"/>
        <path d="M105.979 16.6833L107.463 12.1183L109.745 12.8599" fill="white"/>
        <path d="M128 46.3999L126.517 50.965L128.799 51.7066" fill="white"/>
        <path d="M128 46.3999L129.483 50.965L127.201 51.7066" fill="white"/>
        <path d="M132.565 49.7168H127.765V52.1168" fill="white"/>
        <path d="M132.565 49.7168L128.682 52.5382L127.271 50.5965" fill="white"/>
        <path d="M123.435 49.7166L127.318 52.5379L128.729 50.5963" fill="white"/>
        <path d="M123.435 49.7166H128.235V52.1166" fill="white"/>
        <path d="M130.821 55.083L129.338 50.5179L127.055 51.2596" fill="white"/>
        <path d="M130.821 55.083L126.938 52.2616L128.349 50.32" fill="white"/>
        <path d="M125.179 55.0833L129.062 52.2619L127.651 50.3202" fill="white"/>
        <path d="M125.179 55.0833L126.662 50.5182L128.945 51.2598" fill="white"/>
        <path d="M128 27.2L126.517 31.765L128.799 32.5067" fill="white"/>
        <path d="M128 27.2L129.483 31.765L127.201 32.5067" fill="white"/>
        <path d="M132.565 30.5168H127.765V32.9168" fill="white"/>
        <path d="M132.565 30.5168L128.682 33.3382L127.271 31.3966" fill="white"/>
        <path d="M123.435 30.5166L127.318 33.338L128.729 31.3963" fill="white"/>
        <path d="M123.435 30.5166H128.235V32.9166" fill="white"/>
        <path d="M130.821 35.8831L129.338 31.318L127.055 32.0596" fill="white"/>
        <path d="M130.821 35.8831L126.938 33.0617L128.349 31.12" fill="white"/>
        <path d="M125.179 35.8833L129.062 33.0619L127.651 31.1203" fill="white"/>
        <path d="M125.179 35.8833L126.662 31.3182L128.945 32.0599" fill="white"/>
        <path d="M128 8L126.517 12.5651L128.799 13.3067" fill="white"/>
        <path d="M128 8L129.483 12.5651L127.201 13.3067" fill="white"/>
        <path d="M132.565 11.3169H127.765V13.7169" fill="white"/>
        <path d="M132.565 11.3169L128.682 14.1383L127.271 12.1966" fill="white"/>
        <path d="M123.435 11.3167L127.318 14.138L128.729 12.1964" fill="white"/>
        <path d="M123.435 11.3167H128.235V13.7167" fill="white"/>
        <path d="M130.821 16.6831L129.338 12.118L127.055 12.8597" fill="white"/>
        <path d="M130.821 16.6831L126.938 13.8617L128.349 11.9201" fill="white"/>
        <path d="M125.179 16.6833L129.062 13.862L127.651 11.9203" fill="white"/>
        <path d="M125.179 16.6833L126.662 12.1183L128.945 12.8599" fill="white"/>
        <path d="M147.2 46.3999L145.717 50.965L147.999 51.7066" fill="white"/>
        <path d="M147.2 46.3999L148.683 50.965L146.401 51.7066" fill="white"/>
        <path d="M151.766 49.7168H146.966V52.1168" fill="white"/>
        <path d="M151.766 49.7168L147.882 52.5382L146.472 50.5965" fill="white"/>
        <path d="M142.635 49.7166L146.518 52.5379L147.929 50.5963" fill="white"/>
        <path d="M142.635 49.7166H147.435V52.1166" fill="white"/>
        <path d="M150.021 55.083L148.538 50.5179L146.256 51.2596" fill="white"/>
        <path d="M150.021 55.083L146.138 52.2616L147.549 50.32" fill="white"/>
        <path d="M144.379 55.0833L148.262 52.2619L146.852 50.3202" fill="white"/>
        <path d="M144.379 55.0833L145.862 50.5182L148.145 51.2598" fill="white"/>
        <path d="M147.2 27.2L145.717 31.765L147.999 32.5067" fill="white"/>
        <path d="M147.2 27.2L148.683 31.765L146.401 32.5067" fill="white"/>
        <path d="M151.766 30.5168H146.966V32.9168" fill="white"/>
        <path d="M151.766 30.5168L147.882 33.3382L146.472 31.3966" fill="white"/>
        <path d="M142.635 30.5166L146.518 33.338L147.929 31.3963" fill="white"/>
        <path d="M142.635 30.5166H147.435V32.9166" fill="white"/>
        <path d="M150.021 35.8831L148.538 31.318L146.256 32.0596" fill="white"/>
        <path d="M150.021 35.8831L146.138 33.0617L147.549 31.12" fill="white"/>
        <path d="M144.379 35.8833L148.262 33.0619L146.852 31.1203" fill="white"/>
        <path d="M144.379 35.8833L145.862 31.3182L148.145 32.0599" fill="white"/>
        <path d="M147.2 8L145.717 12.5651L147.999 13.3067" fill="white"/>
        <path d="M147.2 8L148.683 12.5651L146.401 13.3067" fill="white"/>
        <path d="M151.766 11.3169H146.966V13.7169" fill="white"/>
        <path d="M151.766 11.3169L147.882 14.1383L146.472 12.1966" fill="white"/>
        <path d="M142.635 11.3167L146.518 14.138L147.929 12.1964" fill="white"/>
        <path d="M142.635 11.3167H147.435V13.7167" fill="white"/>
        <path d="M150.021 16.6831L148.538 12.118L146.256 12.8597" fill="white"/>
        <path d="M150.021 16.6831L146.138 13.8617L147.549 11.9201" fill="white"/>
        <path d="M144.379 16.6833L148.262 13.862L146.852 11.9203" fill="white"/>
        <path d="M144.379 16.6833L145.862 12.1183L148.145 12.8599" fill="white"/>
        <path d="M70.4004 46.3999L68.9171 50.965L71.1996 51.7066" fill="white"/>
        <path d="M70.4004 46.3999L71.8837 50.965L69.6011 51.7066" fill="white"/>
        <path d="M74.9658 49.7168H70.1658V52.1168" fill="white"/>
        <path d="M74.9658 49.7168L71.0825 52.5382L69.6719 50.5965" fill="white"/>
        <path d="M65.835 49.7166L69.7182 52.5379L71.1289 50.5963" fill="white"/>
        <path d="M65.835 49.7166H70.635V52.1166" fill="white"/>
        <path d="M73.2217 55.083L71.7384 50.5179L69.4559 51.2596" fill="white"/>
        <path d="M73.2217 55.083L69.3384 52.2616L70.7491 50.32" fill="white"/>
        <path d="M67.5791 55.0833L71.4624 52.2619L70.0517 50.3202" fill="white"/>
        <path d="M67.5791 55.0833L69.0624 50.5182L71.3449 51.2598" fill="white"/>
        <path d="M89.6006 46.3999L88.1173 50.965L90.3998 51.7066" fill="white"/>
        <path d="M89.6006 46.3999L91.0839 50.965L88.8013 51.7066" fill="white"/>
        <path d="M94.166 49.7168H89.366V52.1168" fill="white"/>
        <path d="M94.166 49.7168L90.2827 52.5382L88.872 50.5965" fill="white"/>
        <path d="M85.0352 49.7166L88.9184 52.5379L90.3291 50.5963" fill="white"/>
        <path d="M85.0352 49.7166H89.8352V52.1166" fill="white"/>
        <path d="M92.4219 55.083L90.9386 50.5179L88.6561 51.2596" fill="white"/>
        <path d="M92.4219 55.083L88.5386 52.2616L89.9493 50.32" fill="white"/>
        <path d="M86.7793 55.0833L90.6626 52.2619L89.2519 50.3202" fill="white"/>
        <path d="M86.7793 55.0833L88.2626 50.5182L90.5451 51.2598" fill="white"/>
        <path d="M89.6006 27.2L88.1173 31.765L90.3998 32.5067" fill="white"/>
        <path d="M89.6006 27.2L91.0839 31.765L88.8013 32.5067" fill="white"/>
        <path d="M94.166 30.5168H89.366V32.9168" fill="white"/>
        <path d="M94.166 30.5168L90.2827 33.3382L88.872 31.3966" fill="white"/>
        <path d="M85.0352 30.5166L88.9184 33.338L90.3291 31.3963" fill="white"/>
        <path d="M85.0352 30.5166H89.8352V32.9166" fill="white"/>
        <path d="M92.4219 35.8831L90.9386 31.318L88.6561 32.0596" fill="white"/>
        <path d="M92.4219 35.8831L88.5386 33.0617L89.9493 31.12" fill="white"/>
        <path d="M86.7793 35.8833L90.6626 33.0619L89.2519 31.1203" fill="white"/>
        <path d="M86.7793 35.8833L88.2626 31.3182L90.5451 32.0599" fill="white"/>
    </g>
    <defs>
        <clipPath id="clip0_5_281">
            <rect width="400" height="200" fill="white"/>
        </clipPath>
    </defs>
</svg>
