<svg xmlns="http://www.w3.org/2000/svg" viewBox="0 0 380 200"><path d="M73.333 11.3335L71.333 54.0002L61.9997 30.6668L65.9997 55.3335L51.333 35.3335L61.333 58.0002L41.9997 42.0002L57.9997 61.3335L35.333 51.3335L55.333 66.0002L30.6663 62.0002L53.9997 71.3335L11.333 73.3335L53.9997 76.0002L30.6663 85.3335L55.333 81.3335L35.333 96.0002L57.9997 85.3335L41.9997 104.667L61.333 89.3335L51.333 112L65.9997 92.0002L61.9997 116.667L71.333 92.6668L73.333 135.333L75.9997 92.6668L85.333 116.667L81.333 92.0002L95.9997 112L85.333 89.3335L104.666 104.667L89.333 85.3335L112 96.0002L91.9997 81.3335L116.666 85.3335L92.6663 76.0002L135.333 73.3335L92.6663 71.3335L116.666 62.0002L91.9997 66.0002L112 51.3335L89.333 61.3335L104.666 42.0002L85.333 58.0002L95.9997 35.3335L81.333 55.3335L85.333 30.6668L75.9997 54.0002L73.333 11.3335Z" fill="white" />
</svg>