<?xml version='1.0' encoding='us-ascii'?>
<svg xmlns="http://www.w3.org/2000/svg" width="364" height="200" viewBox="0 0 364 200" fill="none">
    <g clip-path="url(#clip0_5_1301)">

        <path d="M207.168 99.9935C207.168 113.999 195.822 125.351 181.817 125.351C167.82 125.351 156.468 113.999 156.468 99.9935C156.468 85.9941 167.82 74.6499 181.817 74.6499C195.822 74.6499 207.168 85.9941 207.168 99.9935Z" fill="white" stroke="black" stroke-width="1.1521875" stroke-miterlimit="10" />
        <path d="M194.075 96.0666C193.46 96.0423 193.456 96.7205 193.456 96.7205C193.456 96.7205 193.477 96.5199 193.46 96.7478C193.448 96.9729 193.561 97.522 194.015 97.5669C194.495 97.609 194.654 97.0484 194.658 96.7763C194.658 96.6684 194.623 96.0805 194.075 96.0672" fill="#009B3A" />
        <path d="M194.075 96.0666C193.46 96.0423 193.456 96.7205 193.456 96.7205C193.456 96.7205 193.477 96.5199 193.46 96.7478C193.448 96.9729 193.561 97.522 194.015 97.5669C194.495 97.609 194.654 97.0484 194.658 96.7763C194.658 96.6684 194.623 96.0805 194.075 96.0672" stroke="black" stroke-width="0.3078125" />
        <path d="M165.914 110.142L165.697 109.782C165.675 109.742 165.618 109.676 165.528 109.577C165.485 109.529 165.424 109.499 165.36 109.495C165.291 109.485 165.221 109.499 165.162 109.535C165.078 109.586 165.023 109.655 165.014 109.739C164.998 109.825 165.038 109.943 165.133 110.102L165.352 110.476L165.914 110.142ZM168.059 110.018L165.302 111.658L164.46 110.244C164.304 109.978 164.209 109.767 164.172 109.601C164.129 109.431 164.149 109.272 164.219 109.114C164.289 108.955 164.416 108.822 164.592 108.717C164.728 108.634 164.882 108.586 165.041 108.578C165.195 108.578 165.336 108.616 165.473 108.689C165.557 108.737 165.655 108.812 165.762 108.921C165.737 108.804 165.722 108.711 165.728 108.638C165.745 108.563 165.768 108.489 165.795 108.417C165.832 108.314 165.868 108.242 165.89 108.196L166.447 107.309L167.015 108.273L166.447 109.229C166.376 109.35 166.332 109.443 166.327 109.508C166.323 109.598 166.343 109.676 166.386 109.753L166.433 109.831L167.55 109.166L168.059 110.018ZM163.205 107.773L162.363 105.257L163.012 105.039L163.539 106.616L164.026 106.452L163.53 104.988L164.154 104.785L164.644 106.241L165.241 106.048L164.702 104.426L165.391 104.191L166.246 106.754L163.205 107.773ZM163.295 102.651L163.261 102.416C163.238 102.22 163.191 102.093 163.118 102.027C163.082 101.994 163.039 101.969 162.992 101.955C162.945 101.94 162.895 101.935 162.847 101.941C162.754 101.954 162.67 101.999 162.607 102.068C162.544 102.145 162.522 102.271 162.549 102.456L162.576 102.739L163.295 102.651ZM162.047 103.8L161.856 102.165C161.818 101.814 161.868 101.534 162.015 101.337C162.166 101.141 162.398 101.023 162.71 100.988C163.031 100.948 163.296 101.017 163.498 101.187C163.698 101.359 163.825 101.647 163.873 102.041L163.933 102.58L165.114 102.442L165.23 103.431L162.047 103.8ZM161.936 97.5454L162.038 96.5605L163.942 96.7654C164.122 96.7858 164.297 96.8351 164.46 96.9114C164.623 96.984 164.765 97.0959 164.873 97.2369C164.983 97.3787 165.06 97.5142 165.096 97.6602C165.145 97.8529 165.158 98.089 165.127 98.3602C165.109 98.5292 165.079 98.6967 165.038 98.8614C164.998 99.0423 164.936 99.1917 164.858 99.3066C164.776 99.4292 164.671 99.5351 164.549 99.6187C164.433 99.7014 164.299 99.7582 164.159 99.7854C163.948 99.8284 163.767 99.8369 163.61 99.8193L161.715 99.6193L161.817 98.633L163.761 98.8439C163.936 98.8614 164.076 98.829 164.184 98.7402C164.293 98.6532 164.354 98.5269 164.374 98.3602C164.392 98.1845 164.356 98.0493 164.272 97.9448C164.187 97.8369 164.056 97.7766 163.88 97.756L161.936 97.5454ZM165.125 94.8508L165.296 94.3763C165.348 94.2157 165.362 94.0914 165.327 94.0017C165.31 93.9596 165.284 93.9219 165.25 93.8916C165.216 93.8612 165.176 93.839 165.132 93.8266C165.037 93.7939 164.958 93.7999 164.882 93.8472C164.802 93.8957 164.733 93.9987 164.678 94.1593L164.509 94.6369L165.125 94.8508ZM163.936 94.4339L164.08 94.0311C164.128 93.8839 164.142 93.772 164.106 93.6966C164.08 93.6242 164.017 93.5669 163.921 93.539C163.883 93.5234 163.843 93.5162 163.802 93.518C163.762 93.5197 163.722 93.5304 163.686 93.5493C163.616 93.5905 163.558 93.6787 163.511 93.8205L163.361 94.2345L163.936 94.4339ZM162.422 94.9657L163.031 93.2105C163.137 92.9184 163.287 92.7239 163.488 92.6136C163.583 92.5631 163.686 92.5329 163.793 92.5249C163.899 92.517 164.006 92.5315 164.107 92.5675C164.282 92.6366 164.415 92.7433 164.507 92.8993C164.562 93.0023 164.596 93.1381 164.596 93.2957C164.722 93.0957 164.868 92.9684 165.03 92.9139C165.195 92.8551 165.374 92.8581 165.569 92.926C165.722 92.9787 165.849 93.0657 165.951 93.1805C166.047 93.3017 166.111 93.4345 166.142 93.5848C166.157 93.6817 166.149 93.8114 166.115 93.9723C166.065 94.1978 166.035 94.3405 166.01 94.4072L165.445 96.0223L162.422 94.9657ZM164.056 90.8581L164.574 90.0123L166.638 91.2633L167.442 89.9432L168.115 90.3542L166.805 92.5193L164.056 90.8581ZM166.173 87.7048L166.81 86.9457L169.256 89.0132L168.618 89.7723L166.173 87.7048ZM170.615 85.9817L171.448 85.6254C171.555 85.8496 171.616 86.063 171.624 86.2723C171.633 86.473 171.592 86.6727 171.506 86.8542C171.411 87.0384 171.255 87.2169 171.041 87.4042C170.769 87.6254 170.52 87.7696 170.284 87.8329C170.05 87.8936 169.789 87.8787 169.498 87.7872C169.218 87.6945 168.95 87.4926 168.692 87.1902C168.356 86.7796 168.202 86.3769 168.236 85.9817C168.269 85.5796 168.485 85.2184 168.88 84.8854C169.194 84.626 169.485 84.4905 169.771 84.4684C170.051 84.4417 170.348 84.526 170.646 84.713L170.098 85.4233C170.015 85.3687 169.945 85.3323 169.886 85.3202C169.799 85.2942 169.707 85.2931 169.62 85.3172C169.53 85.337 169.446 85.3785 169.376 85.4381C169.202 85.5836 169.127 85.7636 169.152 85.9787C169.167 86.1393 169.269 86.3269 169.448 86.5493C169.678 86.822 169.877 86.9748 170.04 87.006C170.212 87.0414 170.371 86.993 170.52 86.869C170.664 86.7454 170.742 86.6157 170.745 86.4742C170.75 86.3236 170.71 86.1602 170.615 85.9817ZM173.857 84.056L173.02 83.1893L173.231 84.3784L173.857 84.056ZM174.356 84.582L173.352 85.0923L173.455 85.636L172.553 86.0942L172.172 82.6911L173.135 82.1987L175.664 84.5087L174.742 84.9802L174.356 84.582ZM178.254 81.2411L178.5 82.9714L178.741 82.936C178.947 82.9105 179.092 82.8651 179.173 82.8075C179.252 82.7442 179.305 82.6633 179.338 82.5363C179.373 82.4184 179.373 82.2345 179.337 81.9778C179.289 81.6433 179.2 81.4193 179.075 81.313C178.948 81.2069 178.756 81.1687 178.501 81.2069L178.254 81.2411ZM177.176 80.6617L178.631 80.4523C178.918 80.4142 179.151 80.4169 179.338 80.4702C179.522 80.5196 179.69 80.6132 179.829 80.7429C179.968 80.8762 180.077 81.0368 180.15 81.2145C180.234 81.4075 180.29 81.6113 180.316 81.8199C180.368 82.156 180.368 82.4272 180.313 82.6202C180.268 82.8097 180.182 82.9871 180.061 83.1402C179.939 83.2836 179.804 83.3911 179.654 83.4514C179.471 83.5357 179.278 83.5947 179.079 83.6269L177.621 83.832L177.176 80.6617ZM181.537 80.0405L184.182 80.2366L184.132 80.9187L182.477 80.7951L182.438 81.3036L183.974 81.4169L183.918 82.0669L182.391 81.9578L182.346 82.5829L184.049 82.7093L183.996 83.4314L181.301 83.2326L181.537 80.0405ZM185.612 80.4145L186.564 80.6799L185.905 83.0087L187.392 83.4287L187.175 84.1833L184.735 83.4923L185.612 80.4145ZM191.018 83.9696L191.222 84.1023C191.38 84.2069 191.513 84.2511 191.61 84.2405C191.659 84.2371 191.706 84.2219 191.747 84.1962C191.788 84.1706 191.822 84.1352 191.847 84.0933C191.899 84.0132 191.921 83.9168 191.907 83.822C191.888 83.7281 191.8 83.6323 191.646 83.5305L191.409 83.3711L191.018 83.9696ZM190.939 82.282L192.316 83.1902C192.614 83.386 192.789 83.6072 192.843 83.8457C192.901 84.0875 192.843 84.3411 192.666 84.6036C192.494 84.8702 192.271 85.0266 192.007 85.072C191.739 85.1148 191.447 85.0323 191.113 84.8126L190.66 84.512L190.009 85.5039L189.179 84.9542L190.939 82.282ZM194.415 87.1675L194.973 86.0993L193.913 86.6726L194.415 87.1675ZM194.077 87.8042L193.273 87.0145L192.789 87.2799L192.069 86.5723L193.549 85.8887L195.18 85.1351L195.946 85.8929L194.553 89.0248L193.817 88.2939L194.077 87.8042ZM197.053 89.1942L197.278 89.5508C197.305 89.5866 197.354 89.6557 197.455 89.7496C197.501 89.7952 197.563 89.8221 197.628 89.8251C197.695 89.833 197.762 89.8162 197.818 89.7778C197.902 89.7233 197.95 89.6557 197.965 89.5687C197.976 89.486 197.932 89.362 197.832 89.212L197.604 88.8466L197.053 89.1942ZM194.91 89.3842L197.611 87.6599L198.498 89.0496C198.662 89.306 198.767 89.5169 198.817 89.6805C198.855 89.843 198.841 90.0134 198.775 90.1669C198.71 90.329 198.59 90.4632 198.421 90.5742C198.268 90.6711 198.121 90.7257 197.969 90.7257C197.825 90.7345 197.678 90.6978 197.534 90.6369C197.428 90.572 197.33 90.4955 197.242 90.4087C197.27 90.5266 197.288 90.6223 197.284 90.6887C197.27 90.7636 197.251 90.8375 197.228 90.9099C197.204 90.9887 197.172 91.0646 197.132 91.1366L196.609 92.0417L196.003 91.0969L196.547 90.1272C196.619 89.9975 196.655 89.9048 196.655 89.8399C196.658 89.7526 196.644 89.6702 196.587 89.5963L196.544 89.5229L195.445 90.2229L194.91 89.3842ZM198.697 93.6993L199.658 92.9742L198.457 93.0408L198.697 93.6993ZM198.114 94.1284L197.729 93.0687L197.182 93.1069L196.833 92.1563L200.258 92.1963L200.628 93.2072L198.028 95.4357L197.671 94.4569L198.114 94.1284ZM199.647 97.5363L200.307 97.4493L200.498 98.9766L199.142 99.1402C198.913 98.8748 198.738 98.6372 198.645 98.4205C198.541 98.2057 198.474 97.9448 198.436 97.6396C198.387 97.2623 198.412 96.9469 198.517 96.6933C198.612 96.4399 198.782 96.229 199.019 96.0623C199.258 95.9048 199.54 95.8002 199.868 95.7605C200.215 95.7151 200.528 95.7502 200.801 95.8636C201.074 95.9726 201.294 96.1569 201.465 96.4163C201.597 96.6214 201.684 96.9029 201.726 97.2684C201.775 97.6175 201.775 97.8842 201.729 98.0657C201.694 98.2429 201.61 98.4067 201.487 98.5384C201.357 98.6807 201.196 98.7908 201.016 98.8599L200.728 97.9357C200.843 97.8784 200.927 97.8051 200.978 97.6999C201.03 97.5999 201.043 97.473 201.03 97.3345C200.994 97.1163 200.905 96.9545 200.742 96.8454C200.574 96.7363 200.327 96.702 200.003 96.7423C199.659 96.7848 199.426 96.8836 199.291 97.0266C199.163 97.1769 199.116 97.3696 199.139 97.5999C199.152 97.709 199.184 97.8108 199.225 97.9051C199.272 98.0051 199.338 98.1069 199.43 98.2339L199.732 98.1923L199.647 97.5363ZM201.676 102.341L201.563 103.322L199.668 103.109C199.487 103.089 199.31 103.039 199.145 102.96C198.986 102.884 198.846 102.773 198.736 102.634C198.627 102.496 198.553 102.355 198.518 102.214C198.471 102.009 198.459 101.779 198.49 101.51C198.512 101.356 198.542 101.187 198.578 101.006C198.622 100.824 198.685 100.677 198.765 100.562C198.849 100.442 198.952 100.338 199.072 100.254C199.211 100.167 199.338 100.112 199.466 100.09C199.674 100.051 199.86 100.037 200.016 100.061L201.913 100.277L201.801 101.256L199.86 101.033C199.683 101.014 199.543 101.045 199.433 101.132C199.327 101.221 199.262 101.344 199.245 101.514C199.226 101.688 199.258 101.825 199.344 101.93C199.428 102.036 199.558 102.099 199.732 102.126L201.676 102.341ZM198.727 105.988L199.934 106.031L198.959 105.32L198.727 105.988ZM198.011 105.951L198.376 104.889L197.929 104.569L198.262 103.612L200.896 105.801L200.533 106.825L197.12 106.909L197.455 105.927L198.011 105.951ZM199.779 108.901L199.222 109.849L197.96 109.853L198.564 110.961L198.011 111.897L197.037 109.879L195.882 109.199L196.389 108.342L197.543 109.028L199.779 108.901Z" fill="black" />
        <path d="M203.033 100.001C203.033 111.725 193.532 121.227 181.814 121.227C170.092 121.227 160.592 111.725 160.592 100.001C160.592 88.2856 170.092 78.7856 181.814 78.7856C193.532 78.7856 203.033 88.2856 203.033 100.001L203.033 100.001Z" stroke="black" stroke-width="0.4609375" stroke-miterlimit="10" />
        <path d="M197.604 99.9257C197.604 108.653 190.536 115.721 181.814 115.721C173.091 115.721 166.021 108.653 166.021 99.9257C166.021 91.2075 173.091 84.1372 181.813 84.1372C190.536 84.1372 197.604 91.2075 197.604 99.9257Z" stroke="black" stroke-width="0.4609375" stroke-miterlimit="10" />
        <path d="M181.815 94.2461L183.142 98.0431L187.155 98.1328L183.957 100.565L185.12 104.413L181.815 102.125L178.51 104.413L179.667 100.565L176.464 98.1328L180.485 98.0431L181.815 94.2461Z" fill="#FEDF00" stroke="black" stroke-width="0.188125" />
        <path d="M189.107 110.827C188.973 110.939 188.434 110.999 188.291 111.023C188.147 111.042 187.581 111.048 187.342 111.057C187.21 111.066 186.956 111.102 186.824 111.102C185.664 110.97 188.709 110.989 189.107 110.827M186.067 109.93C186.143 109.794 186.523 108.948 186.66 108.708C186.799 108.472 187.114 107.842 187.302 107.58C187.399 107.438 187.777 107.028 187.868 107.212C187.209 107.781 186.689 108.776 186.412 109.445C186.376 109.517 186.16 109.889 186.08 109.987C186.002 110.082 186.034 110.263 185.912 110.278C185.784 110.294 185.874 110.317 185.874 110.317C185.874 110.317 185.984 110.072 186.067 109.929V109.93ZM190.44 110.577C190.44 110.577 189.916 110.498 189.59 110.383C189.267 110.274 188.723 110.191 188.26 110.202C187.801 110.208 187.381 110.347 187.007 110.489C186.634 110.628 186.151 110.64 186.151 110.64C186.151 110.64 185.878 110.682 186.006 110.619C186.127 110.559 186.551 110.228 186.551 110.228L186.824 109.854C186.903 109.832 188.29 108.013 188.139 107.524C188.351 107.165 188.6 106.523 188.507 106.412C188.462 106.366 187.427 106.74 187.2 106.946C186.937 107.173 186.751 107.647 186.673 107.919C186.596 108.19 186.197 108.414 186.197 108.414C185.874 108.647 185.639 109.384 185.529 109.987C185.418 110.582 183.951 110.912 183.951 110.912C183.951 110.912 183.544 111.064 183.905 111.179C183.967 111.196 184.129 111.469 184.258 111.473C184.437 111.494 185.348 111.104 185.489 111.135C185.799 111.205 186.105 111.289 186.407 111.386C186.754 111.504 187.041 111.564 187.284 111.474C187.531 111.385 187.883 111.42 188.147 111.471C188.407 111.527 188.698 111.504 188.866 111.452C189.045 111.397 189.518 111.135 189.518 111.135C189.518 111.135 190.029 110.914 190.324 110.775C190.62 110.637 190.44 110.576 190.44 110.576" fill="#009B3A" />
        <path d="M189.107 110.827C188.973 110.939 188.434 110.999 188.291 111.023C188.147 111.042 187.581 111.048 187.342 111.057C187.21 111.066 186.956 111.102 186.824 111.102C185.664 110.97 188.709 110.989 189.107 110.827M190.44 110.577C190.44 110.577 189.916 110.498 189.59 110.383C189.267 110.274 188.723 110.191 188.26 110.202C187.801 110.208 187.381 110.347 187.007 110.489C186.634 110.628 186.151 110.64 186.151 110.64C186.151 110.64 185.878 110.682 186.006 110.619C186.127 110.559 186.551 110.228 186.551 110.228L186.824 109.854C186.903 109.832 188.29 108.013 188.139 107.524C188.351 107.165 188.6 106.523 188.507 106.412C188.462 106.366 187.427 106.74 187.2 106.946C186.937 107.173 186.751 107.647 186.673 107.919C186.596 108.19 186.197 108.414 186.197 108.414C185.874 108.647 185.639 109.384 185.529 109.987C185.418 110.582 183.951 110.912 183.951 110.912C183.951 110.912 183.544 111.064 183.905 111.179C183.967 111.196 184.129 111.469 184.258 111.473C184.437 111.494 185.348 111.104 185.489 111.135C185.799 111.205 186.105 111.289 186.407 111.386C186.754 111.504 187.041 111.564 187.284 111.474C187.531 111.385 187.883 111.42 188.147 111.471C188.407 111.527 188.698 111.504 188.866 111.452C189.045 111.397 189.518 111.135 189.518 111.135C189.518 111.135 190.029 110.914 190.324 110.775C190.62 110.637 190.44 110.576 190.44 110.576M186.067 109.93C186.143 109.794 186.523 108.948 186.66 108.708C186.799 108.472 187.114 107.842 187.302 107.58C187.399 107.438 187.777 107.028 187.868 107.212C187.209 107.781 186.689 108.776 186.412 109.445C186.376 109.517 186.16 109.889 186.08 109.987C186.002 110.082 186.034 110.263 185.912 110.278C185.784 110.294 185.874 110.317 185.874 110.317C185.874 110.317 185.984 110.072 186.067 109.929V109.93Z" stroke="black" stroke-width="0.235625" />
        <path d="M186.454 112.347C186.454 112.347 184.434 111.29 184.326 111.265C184.262 111.256 183.409 110.786 183.019 110.665C182.737 110.574 182.348 110.55 182.208 110.559C181.876 110.582 181.333 110.729 181.333 110.729L181.835 110.934C181.835 110.934 182.306 111.165 182.536 111.289C182.865 111.463 182.88 111.675 182.88 111.675L184.709 112.48L185.08 112.746C185.08 112.746 185.418 112.28 186.454 112.347Z" fill="#009B3A" stroke="black" stroke-width="0.188125" />
        <path d="M188.485 108.152C189.12 107.586 189.431 106.78 189.954 106.334C190.039 106.395 190.039 106.496 189.935 106.674C189.836 106.85 189.705 106.911 189.647 107.002C189.54 107.145 189.222 107.41 189.136 107.568C189.06 107.719 188.961 107.929 188.684 108.089C188.408 108.254 188.495 108.516 188.472 108.626C188.45 108.747 188.025 109.051 187.82 109.427C187.78 109.82 187.763 109.655 187.525 109.794C187.958 109.142 188.185 108.722 188.485 108.152M187.058 109.945C187.017 110.031 185.764 110.742 186.156 110.637C186.545 110.534 187.703 110.116 188.032 109.97C188.434 109.794 188.675 109.426 188.977 109.127C189.285 108.82 190.239 107.909 190.403 107.558C190.565 107.196 190.711 106.693 190.065 105.563C190.065 105.563 189.965 105.78 189.724 105.991C189.486 106.207 189.13 106.446 189.13 106.446L188.716 106.838C188.716 106.838 187.252 109.527 187.058 109.945" fill="#009B3A" />
        <path d="M188.485 108.152C189.12 107.586 189.431 106.78 189.954 106.334C190.039 106.395 190.039 106.496 189.935 106.674C189.836 106.85 189.705 106.911 189.647 107.002C189.54 107.145 189.222 107.41 189.136 107.568C189.06 107.719 188.961 107.929 188.684 108.089C188.408 108.254 188.495 108.516 188.472 108.626C188.45 108.747 188.025 109.051 187.82 109.427C187.78 109.82 187.763 109.655 187.525 109.794C187.958 109.142 188.185 108.722 188.485 108.152M187.058 109.945C187.017 110.031 185.764 110.742 186.156 110.637C186.545 110.534 187.703 110.116 188.032 109.97C188.434 109.794 188.675 109.426 188.977 109.127C189.285 108.82 190.239 107.909 190.403 107.558C190.565 107.196 190.711 106.693 190.065 105.563C190.065 105.563 189.965 105.78 189.724 105.991C189.486 106.207 189.13 106.446 189.13 106.446L188.716 106.838C188.716 106.838 187.252 109.527 187.058 109.945" stroke="black" stroke-width="0.248125" />
        <path d="M192.147 108.999C192.147 108.999 191.345 108.927 191.276 108.927C191.2 108.927 190.76 108.866 190.122 108.866C189.489 108.866 189.251 109.086 189.085 109.262C188.906 109.46 188.406 109.917 188.406 109.917L188.676 109.893C189.317 109.394 189.816 109.577 190.015 109.562C190.223 109.555 190.473 109.576 191.115 109.348C191.766 109.12 191.728 109.334 191.657 109.356C191.346 109.468 191.02 109.533 190.689 109.551C190.206 109.577 189.781 109.671 189.591 109.671C189.4 109.671 187.988 110.057 187.988 110.057C187.988 110.057 189.516 110.147 189.68 110.201C189.844 110.268 190.101 110.237 190.313 110.135C190.898 109.865 191.163 109.814 191.403 109.759C191.645 109.712 191.933 109.549 191.933 109.549C191.933 109.549 192.088 109.451 192.23 109.192C192.377 108.927 192.147 108.999 192.147 108.999ZM192.896 104.814C192.993 104.575 193.234 104.013 193.489 103.792C193.645 103.656 193.913 103.593 194.056 103.533C194.117 103.512 194.556 103.491 194.008 103.642C193.78 103.702 193.473 103.836 193.337 104.065C193.145 104.597 192.978 105.06 192.622 105.4C192.361 105.674 192.196 106.031 192.196 106.031L191.916 106.128C192.429 105.814 192.652 105.231 192.896 104.814ZM195.379 104.514C195.087 104.612 194.984 104.692 194.984 104.692C194.329 104.889 194.062 105.3 193.775 105.634C193.629 105.809 193.425 105.94 192.734 106.236C192.103 106.508 191.615 106.927 191.603 106.927C191.603 106.927 191.403 106.968 191.441 107.065C191.456 107.111 191.627 107.074 191.627 107.074C191.627 107.074 192.927 106.889 193.469 106.559C193.815 106.342 194.01 106.184 194.338 105.677C194.485 105.453 194.65 105.032 194.658 105.303C194.683 106.022 193.566 106.719 193.08 106.934C192.819 107.045 192.472 107.091 192.018 107.166C191.569 107.248 191.296 107.223 191.329 107.125C191.374 106.982 191.427 106.952 191.545 106.811C191.759 106.556 192.276 106.466 192.656 106.287C193.106 106.086 193.532 105.789 193.746 105.536C193.964 105.279 194.04 105.185 194.099 104.969C194.266 104.402 194.274 104.089 194.43 103.886C194.979 103.21 195.06 102.992 195.087 102.69C195.093 102.62 194.802 102.85 194.65 102.934C194.355 103.109 194.245 103.109 193.639 103.268C193.024 103.421 193.038 103.817 192.942 104.005C192.914 104.079 192.665 104.391 192.546 104.448C192.427 104.509 192.135 104.931 192.026 105.179C191.946 105.36 191.803 105.49 191.689 105.476C191.569 105.453 191.919 104.143 191.996 103.926C192.08 103.711 192.096 103.291 192.096 103.149C192.096 103.014 192.101 102.657 191.863 102.617C191.627 102.577 191.616 102.251 191.616 102.251C191.048 102.743 191.365 103.611 191.426 104.125C191.487 104.635 191.309 105.578 191.309 105.578C191.858 105.813 191.426 106.48 191.256 106.696C191.076 106.915 190.736 106.955 190.583 107.148C190.421 107.347 189.271 108.949 189.271 108.949L190.702 108.544C190.702 108.544 190.835 108.567 190.622 108.406C190.405 108.25 190.691 107.649 190.876 107.502C191.227 107.226 191.703 107.427 191.703 107.427C191.703 107.427 192.366 107.529 193.18 107.206C193.86 106.937 194.153 106.502 194.475 106.175C194.65 105.997 194.971 105.406 195.173 105.056C195.295 104.853 195.513 104.469 195.379 104.514" fill="#009B3A" />
        <path d="M195.379 104.514C195.087 104.612 194.984 104.692 194.984 104.692C194.329 104.889 194.062 105.3 193.775 105.634C193.629 105.809 193.425 105.94 192.734 106.236C192.103 106.508 191.615 106.927 191.603 106.927C191.603 106.927 191.403 106.968 191.441 107.065C191.456 107.111 191.627 107.074 191.627 107.074C191.627 107.074 192.927 106.889 193.469 106.559C193.815 106.342 194.01 106.184 194.338 105.677C194.485 105.453 194.65 105.032 194.658 105.303C194.683 106.022 193.566 106.719 193.08 106.934C192.819 107.045 192.472 107.091 192.018 107.166C191.569 107.248 191.296 107.223 191.329 107.125C191.374 106.982 191.427 106.952 191.545 106.811C191.759 106.556 192.276 106.466 192.656 106.287C193.106 106.086 193.532 105.789 193.746 105.536C193.964 105.279 194.04 105.185 194.099 104.969C194.266 104.402 194.274 104.089 194.43 103.886C194.979 103.21 195.06 102.992 195.087 102.69C195.093 102.62 194.802 102.85 194.65 102.934C194.355 103.109 194.245 103.109 193.639 103.268C193.024 103.421 193.038 103.817 192.942 104.005C192.914 104.079 192.665 104.391 192.546 104.448C192.427 104.509 192.135 104.931 192.026 105.179C191.946 105.36 191.803 105.49 191.689 105.476C191.569 105.453 191.919 104.143 191.996 103.926C192.08 103.711 192.096 103.291 192.096 103.149C192.096 103.014 192.101 102.657 191.863 102.617C191.627 102.577 191.616 102.251 191.616 102.251C191.048 102.743 191.365 103.611 191.426 104.125C191.487 104.635 191.309 105.578 191.309 105.578C191.858 105.813 191.426 106.48 191.256 106.696C191.076 106.915 190.736 106.955 190.583 107.148C190.421 107.347 189.271 108.949 189.271 108.949L190.702 108.544C190.702 108.544 190.835 108.567 190.622 108.406C190.405 108.25 190.691 107.649 190.876 107.502C191.227 107.226 191.703 107.427 191.703 107.427C191.703 107.427 192.366 107.529 193.18 107.206C193.86 106.937 194.153 106.502 194.475 106.175C194.65 105.997 194.971 105.406 195.173 105.056C195.295 104.853 195.513 104.469 195.379 104.514M192.147 108.999C192.147 108.999 191.345 108.927 191.276 108.927C191.2 108.927 190.76 108.866 190.122 108.866C189.489 108.866 189.251 109.086 189.085 109.262C188.906 109.46 188.406 109.917 188.406 109.917L188.676 109.893C189.317 109.394 189.816 109.577 190.015 109.562C190.223 109.555 190.473 109.576 191.115 109.348C191.766 109.12 191.728 109.334 191.657 109.356C191.346 109.468 191.02 109.533 190.689 109.551C190.206 109.577 189.781 109.671 189.591 109.671C189.4 109.671 187.988 110.057 187.988 110.057C187.988 110.057 189.516 110.147 189.68 110.201C189.844 110.268 190.101 110.237 190.313 110.135C190.898 109.865 191.163 109.814 191.403 109.759C191.645 109.712 191.933 109.549 191.933 109.549C191.933 109.549 192.088 109.451 192.23 109.192C192.377 108.927 192.147 108.999 192.147 108.999ZM192.896 104.814C192.993 104.575 193.234 104.013 193.489 103.792C193.645 103.656 193.913 103.593 194.056 103.533C194.117 103.512 194.556 103.491 194.008 103.642C193.78 103.702 193.473 103.836 193.337 104.065C193.145 104.597 192.978 105.06 192.622 105.4C192.361 105.674 192.196 106.031 192.196 106.031L191.916 106.128C192.429 105.814 192.652 105.231 192.896 104.814Z" stroke="black" stroke-width="0.235625" />
        <path d="M191.321 108.362C191.43 108.318 191.447 108.298 191.647 108.08C191.844 107.861 191.67 107.493 191.365 107.508C191.216 107.518 191.058 107.483 190.765 107.877C190.482 108.272 190.9 108.416 191.059 108.433C191.127 108.436 191.217 108.407 191.321 108.362Z" fill="#009B3A" stroke="black" stroke-width="0.2625" />
        <path d="M190.582 105.868C190.392 106.185 190.291 106.549 190.44 106.662C190.473 106.68 190.605 106.796 190.717 106.796C190.826 106.796 191.138 106.647 191.315 106.373C191.493 106.107 191.639 105.816 191.275 105.635C190.945 105.471 190.719 105.624 190.582 105.867" fill="#009B3A" />
        <path d="M190.582 105.868C190.392 106.185 190.291 106.549 190.44 106.662C190.473 106.68 190.605 106.796 190.717 106.796C190.826 106.796 191.138 106.647 191.315 106.373C191.493 106.107 191.639 105.816 191.275 105.635C190.945 105.471 190.719 105.624 190.582 105.867" stroke="black" stroke-width="0.268125" />
        <path d="M191.664 101.994C191.664 101.994 191.694 101.945 191.569 101.816C191.372 101.613 191.124 101.253 191.124 101.253C190.731 101.468 190.6 101.903 190.6 102.076C190.6 102.255 190.667 102.646 190.606 103.044C190.585 103.179 190.563 103.334 190.369 103.827C190.17 104.313 190.397 104.759 190.441 104.917C190.475 105.073 190.638 105.559 190.638 105.559C190.638 105.559 190.792 105.461 190.844 105.449C190.904 105.433 191.114 105.442 191.114 105.442C191.114 105.442 191.351 105.013 191.36 104.775C191.364 104.599 191.336 104.302 191.253 103.845C191.137 103.18 191.144 102.99 191.223 102.618C191.302 102.241 191.664 101.993 191.664 101.993" fill="#009B3A" />
        <path d="M191.664 101.994C191.664 101.994 191.694 101.945 191.569 101.816C191.372 101.613 191.124 101.253 191.124 101.253C190.731 101.468 190.6 101.903 190.6 102.076C190.6 102.255 190.667 102.646 190.606 103.044C190.585 103.179 190.563 103.334 190.369 103.827C190.17 104.313 190.397 104.759 190.441 104.917C190.475 105.073 190.638 105.559 190.638 105.559C190.638 105.559 190.792 105.461 190.844 105.449C190.904 105.433 191.114 105.442 191.114 105.442C191.114 105.442 191.351 105.013 191.36 104.775C191.364 104.599 191.336 104.302 191.253 103.845C191.137 103.18 191.144 102.99 191.223 102.618C191.302 102.241 191.664 101.993 191.664 101.993" stroke="black" stroke-width="0.235625" />
        <path d="M192.251 102.658C192.251 102.658 192.474 102.604 192.587 102.402C192.729 102.158 192.691 101.898 192.691 101.898C192.345 101.228 191.88 101.769 191.88 101.769C191.464 102.62 192.251 102.658 192.251 102.658" fill="#009B3A" />
        <path d="M192.251 102.658C192.251 102.658 192.474 102.604 192.587 102.402C192.729 102.158 192.691 101.898 192.691 101.898C192.345 101.228 191.88 101.769 191.88 101.769C191.464 102.62 192.251 102.658 192.251 102.658" stroke="black" stroke-width="0.25875" />
        <path d="M193.429 101.428C192.912 101.455 192.658 102.383 192.658 102.383C192.658 102.383 192.575 102.612 192.299 102.79C192.007 102.971 192.179 103.231 192.179 103.693C192.179 104.155 191.857 104.972 191.857 104.972L191.737 105.248C191.737 105.248 191.749 105.456 191.937 105.079C192.257 104.444 192.608 104.598 192.74 103.914C192.823 103.406 193.665 103.244 193.665 103.244L193.429 103.2C192.554 102.79 193.479 101.767 193.629 101.586C193.787 101.405 193.939 101.405 193.429 101.428Z" fill="#009B3A" stroke="black" stroke-width="0.3075" />
        <path d="M193.281 102.529C193.045 103.036 193.718 103.06 193.873 102.972C193.936 102.936 194.078 102.767 194.078 102.767C194.35 102.375 194.101 102.109 193.959 102.071C193.822 102.026 193.529 101.991 193.281 102.529Z" fill="#009B3A" stroke="black" stroke-width="0.26187499999999997" />
        <path d="M192.004 100.562C192.181 100.891 192.674 101.806 192.789 101.749C192.862 101.713 192.805 101.526 192.805 101.526C192.805 101.526 192.79 101.278 192.709 100.979C192.631 100.677 192.65 100.291 192.492 100.043C192.34 99.7958 191.973 99.5022 191.829 99.1116C191.686 98.7198 191.798 97.9783 191.81 97.8871C191.825 97.8016 191.868 97.8577 191.792 97.7692C191.715 97.6731 191.092 97.3416 191.092 97.3416C191.092 97.3416 191.128 97.5834 191.113 98.0213C191.107 98.1274 191.077 98.251 191.061 98.4352C191.046 98.6107 191.152 98.8316 191.407 99.3358C191.704 99.9195 191.847 100.278 192.004 100.562ZM195.742 96.2095C195.742 96.2095 195.562 96.5089 195.498 96.5749C195.432 96.6416 194.416 97.514 194.358 97.5507C194.309 97.5892 193.779 97.7586 193.297 99.0628C192.813 100.363 193.022 101.579 193.022 101.579L193.257 101.549L193.297 101.422C193.297 101.422 193.375 100.991 193.436 100.663C193.503 100.341 193.865 99.8895 194.105 99.5564C194.335 99.2307 194.519 98.7625 194.519 98.7625C194.791 98.214 194.922 97.7237 195.192 97.3413C195.202 97.7968 193.471 100.596 193.286 101.549L193.799 101.471C194.208 101.097 194.744 100.311 195.107 99.8043C195.472 99.2958 195.627 98.5013 195.693 98.1492C195.757 97.8013 195.742 96.2098 195.742 96.2098" fill="#009B3A" />
        <path d="M195.742 96.2095C195.742 96.2095 195.562 96.5089 195.498 96.5749C195.432 96.6416 194.416 97.514 194.358 97.5507C194.309 97.5892 193.779 97.7586 193.297 99.0628C192.813 100.363 193.022 101.579 193.022 101.579L193.257 101.549L193.297 101.422C193.297 101.422 193.375 100.991 193.436 100.663C193.503 100.341 193.865 99.8895 194.105 99.5564C194.335 99.2307 194.519 98.7625 194.519 98.7625C194.791 98.214 194.922 97.7237 195.192 97.3413C195.202 97.7968 193.471 100.596 193.286 101.549L193.799 101.471C194.208 101.097 194.744 100.311 195.107 99.8043C195.472 99.2958 195.627 98.5013 195.693 98.1492C195.757 97.8013 195.742 96.2098 195.742 96.2098M192.004 100.562C192.181 100.891 192.674 101.806 192.789 101.749C192.862 101.713 192.805 101.526 192.805 101.526C192.805 101.526 192.79 101.278 192.709 100.979C192.631 100.677 192.65 100.291 192.492 100.043C192.34 99.7958 191.973 99.5022 191.829 99.1116C191.686 98.7198 191.798 97.9783 191.81 97.8871C191.825 97.8016 191.868 97.8577 191.792 97.7692C191.715 97.6731 191.092 97.3416 191.092 97.3416C191.092 97.3416 191.128 97.5834 191.113 98.0213C191.107 98.1274 191.077 98.251 191.061 98.4352C191.046 98.6107 191.152 98.8316 191.407 99.3358C191.704 99.9195 191.847 100.278 192.004 100.562Z" stroke="black" stroke-width="0.235625" />
        <path d="M192.291 96.4975C192.03 96.2556 191.826 96.1832 191.826 96.1832C191.826 96.1832 191.889 96.6578 191.889 96.9468C191.889 97.2368 191.914 97.7235 191.899 97.9832C191.889 98.242 191.76 98.6711 191.943 99.0911C192.132 99.5053 192.344 99.7162 192.494 99.9769C192.631 100.232 192.881 101.558 192.881 101.558C192.881 101.558 192.79 99.765 192.869 99.2578C192.941 98.7596 192.965 97.9829 192.854 97.5938C192.738 97.2029 192.546 96.745 192.291 96.4975ZM193.486 94.7472C193.565 94.5938 193.749 94.2769 193.826 93.7947C193.854 93.5902 193.873 93.2584 193.866 93.0287C193.86 92.875 193.799 92.6087 193.866 92.5908C193.925 92.5762 193.876 92.6738 193.91 92.9011C193.926 92.982 193.87 93.2065 193.86 93.4938C193.846 93.7235 193.837 93.9156 193.735 94.2265C193.646 94.5005 193.726 94.8047 193.671 94.8902C193.612 94.9769 193.455 95.3056 193.455 95.3056C193.455 95.3056 193.358 95.5711 193.375 95.8126C193.383 96.0599 193.398 96.3272 193.398 96.3272C193.398 96.3272 193.513 96.115 193.768 96.0796C193.768 96.0796 193.826 95.665 193.826 95.5356C193.826 95.4056 193.992 94.5569 194.077 94.2975C194.193 93.9175 194.274 93.2556 194.09 92.4875C194.04 92.2799 194.003 91.6299 194.003 91.6299C194.003 91.6299 193.758 91.8259 193.612 92.5672C193.567 92.7926 193.663 93.3969 193.625 94.0411C193.611 94.3962 193.27 95.8359 193.224 95.9259" fill="#009B3A" />
        <path d="M193.486 94.7472C193.565 94.5938 193.749 94.2769 193.826 93.7947C193.854 93.5902 193.873 93.2584 193.866 93.0287C193.86 92.875 193.799 92.6087 193.866 92.5908C193.925 92.5762 193.876 92.6738 193.91 92.9011C193.926 92.982 193.87 93.2065 193.86 93.4938C193.846 93.7235 193.837 93.9156 193.735 94.2265C193.646 94.5005 193.726 94.8047 193.671 94.8902C193.612 94.9769 193.455 95.3056 193.455 95.3056C193.455 95.3056 193.358 95.5711 193.375 95.8126C193.383 96.0599 193.398 96.3272 193.398 96.3272C193.398 96.3272 193.513 96.115 193.768 96.0796C193.768 96.0796 193.826 95.665 193.826 95.5356C193.826 95.4056 193.992 94.5569 194.077 94.2975C194.193 93.9175 194.274 93.2556 194.09 92.4875C194.04 92.2799 194.003 91.6299 194.003 91.6299C194.003 91.6299 193.758 91.8259 193.612 92.5672C193.567 92.7926 193.663 93.3969 193.625 94.0411C193.611 94.3962 193.27 95.8359 193.224 95.9259M192.291 96.4975C192.03 96.2556 191.826 96.1832 191.826 96.1832C191.826 96.1832 191.889 96.6578 191.889 96.9468C191.889 97.2368 191.914 97.7235 191.899 97.9832C191.889 98.242 191.76 98.6711 191.943 99.0911C192.132 99.5053 192.344 99.7162 192.494 99.9769C192.631 100.232 192.881 101.558 192.881 101.558C192.881 101.558 192.79 99.765 192.869 99.2578C192.941 98.7596 192.965 97.9829 192.854 97.5938C192.738 97.2029 192.546 96.745 192.291 96.4975Z" stroke="black" stroke-width="0.235625" />
        <path d="M193.486 94.7471C193.474 94.7689 193.47 94.778 193.47 94.778C193.47 94.778 193.48 94.7689 193.486 94.7471Z" fill="#009B3A" stroke="black" stroke-width="0.235625" />
        <path d="M192.52 91.0104C192.651 91.0104 192.651 91.1519 192.624 91.2637C192.604 91.3788 192.607 91.5925 192.607 91.6364C192.607 91.6867 192.661 91.9919 192.705 92.151C192.752 92.3146 192.834 92.3661 192.798 92.6946C192.774 92.9013 192.562 93.144 192.636 93.4949C192.676 93.6795 192.809 93.8725 192.874 94.0313C192.929 94.1419 192.899 94.4122 192.914 94.6331C192.92 94.8482 193.039 94.9937 193.039 94.9937C193.039 94.9937 192.892 95.2682 192.842 94.9249C192.789 94.531 192.771 94.3558 192.696 94.1776C192.572 93.8855 192.459 93.3604 192.651 92.9555C192.684 92.8773 192.709 92.7319 192.709 92.5592C192.709 92.3837 192.601 92.084 192.58 91.8985C192.562 91.751 192.574 91.4401 192.574 91.3276M191.888 92.9761C191.919 93.1985 191.99 93.3252 192.241 93.8088C192.319 93.9682 192.494 94.3749 192.52 94.5046C192.552 94.6343 192.579 94.7907 192.579 94.8304C192.579 94.8731 192.607 95.1782 192.607 95.1782V95.3049C192.607 95.3049 191.912 94.8998 191.607 94.6831C191.304 94.4649 190.96 94.1655 190.74 93.9846C190.491 93.7795 189.896 93.0749 189.889 92.5107L189.616 92.2631C189.616 92.2631 189.408 93.5173 190.391 94.3291C190.675 94.5619 190.984 94.8185 191.644 95.1176C192.307 95.4231 192.22 95.6961 192.496 96.2828C192.768 96.8722 192.938 97.2113 192.972 97.3779C192.996 97.5561 192.897 100.062 192.897 100.062L192.92 100.289C192.92 100.289 193.526 97.9679 193.817 97.7088C193.817 97.7088 193.239 97.6201 193.285 96.7125L193.184 96.114C193.184 96.114 193.069 95.3946 193.285 94.9482C193.285 94.9482 193.542 94.1301 193.455 93.4228C193.4 92.9998 193.38 92.8731 193.329 92.4676C193.25 91.8367 192.997 90.9349 192.969 90.8258C192.882 90.5092 192.853 90.4604 192.752 90.2101C192.722 90.1216 192.666 89.8295 192.572 89.8252C192.519 89.8222 192.437 90.201 192.437 90.201C192.437 90.201 192.316 90.6137 192.29 90.7255C192.212 91.0588 192.027 91.3385 191.943 92.0873C191.928 92.2231 191.913 92.5885 191.897 92.6373C191.888 92.6785 191.87 92.8937 191.888 92.9761Z" fill="#009B3A" />
        <path d="M192.52 91.0104C192.651 91.0104 192.651 91.1519 192.624 91.2637C192.604 91.3788 192.607 91.5925 192.607 91.6364C192.607 91.6867 192.661 91.9919 192.705 92.151C192.752 92.3146 192.834 92.3661 192.798 92.6946C192.774 92.9013 192.562 93.144 192.636 93.4949C192.676 93.6795 192.809 93.8725 192.874 94.0313C192.929 94.1419 192.899 94.4122 192.914 94.6331C192.92 94.8482 193.039 94.9937 193.039 94.9937C193.039 94.9937 192.892 95.2682 192.842 94.9249C192.789 94.531 192.771 94.3558 192.696 94.1776C192.572 93.8855 192.459 93.3604 192.651 92.9555C192.684 92.8773 192.709 92.7319 192.709 92.5592C192.709 92.3837 192.601 92.084 192.58 91.8985C192.562 91.751 192.574 91.4401 192.574 91.3276M191.888 92.9761C191.919 93.1985 191.99 93.3252 192.241 93.8088C192.319 93.9682 192.494 94.3749 192.52 94.5046C192.552 94.6343 192.579 94.7907 192.579 94.8304C192.579 94.8731 192.607 95.1782 192.607 95.1782V95.3049C192.607 95.3049 191.912 94.8998 191.607 94.6831C191.304 94.4649 190.96 94.1655 190.74 93.9846C190.491 93.7795 189.896 93.0749 189.889 92.5107L189.616 92.2631C189.616 92.2631 189.408 93.5173 190.391 94.3291C190.675 94.5619 190.984 94.8185 191.644 95.1176C192.307 95.4231 192.22 95.6961 192.496 96.2828C192.768 96.8722 192.938 97.2113 192.972 97.3779C192.996 97.5561 192.897 100.062 192.897 100.062L192.92 100.289C192.92 100.289 193.526 97.9679 193.817 97.7088C193.817 97.7088 193.239 97.6201 193.285 96.7125L193.184 96.114C193.184 96.114 193.069 95.3946 193.285 94.9482C193.285 94.9482 193.542 94.1301 193.455 93.4228C193.4 92.9998 193.38 92.8731 193.329 92.4676C193.25 91.8367 192.997 90.9349 192.969 90.8258C192.882 90.5092 192.853 90.4604 192.752 90.2101C192.722 90.1216 192.666 89.8295 192.572 89.8252C192.519 89.8222 192.437 90.201 192.437 90.201C192.437 90.201 192.316 90.6137 192.29 90.7255C192.212 91.0588 192.027 91.3385 191.943 92.0873C191.928 92.2231 191.913 92.5885 191.897 92.6373C191.888 92.6785 191.87 92.8937 191.888 92.9761Z" stroke="black" stroke-width="0.235625" />
        <path d="M192.404 96.1431C192.404 96.1431 192.303 95.9189 192.2 95.804C191.994 95.561 191.717 95.3547 190.927 94.9686C190.14 94.5765 189.931 93.9322 189.531 93.6671C189.347 93.5401 188.99 93.4798 188.99 93.4798C188.99 93.4798 189.341 93.9619 189.424 94.1283C189.531 94.3404 189.556 94.485 189.989 94.8889C190.42 95.2944 190.946 95.4359 191.284 95.5362C191.762 95.6847 192.404 96.1431 192.404 96.1431ZM189.924 92.4186C189.945 92.4822 190.148 93.175 190.574 93.7131C191.225 94.5368 192.48 95.1253 192.48 95.1253C192.363 94.6125 192.158 94.0198 191.997 93.7574C191.426 92.8362 189.919 92.3847 189.919 92.3847C189.919 92.3847 189.893 92.3495 189.924 92.4186ZM191.722 92.8071C192.06 92.0677 191.052 91.3616 190.768 90.8465C190.873 90.7628 190.998 90.9822 191.113 91.1283C191.278 91.3477 191.743 91.9828 191.743 91.9828L191.887 91.3065L190.687 90.2144C190.672 90.3731 190.301 90.5037 190.301 90.5037C190.122 91.5147 191.723 92.8068 191.723 92.8068" fill="#009B3A" />
        <path d="M191.722 92.8071C192.06 92.0677 191.052 91.3616 190.768 90.8465C190.873 90.7628 190.998 90.9822 191.113 91.1283C191.278 91.3477 191.743 91.9828 191.743 91.9828L191.887 91.3065L190.687 90.2144C190.672 90.3731 190.301 90.5037 190.301 90.5037C190.122 91.5147 191.723 92.8068 191.723 92.8068M192.404 96.1431C192.404 96.1431 192.303 95.9189 192.2 95.804C191.994 95.561 191.717 95.3547 190.927 94.9686C190.14 94.5765 189.931 93.9322 189.531 93.6671C189.347 93.5401 188.99 93.4798 188.99 93.4798C188.99 93.4798 189.341 93.9619 189.424 94.1283C189.531 94.3404 189.556 94.485 189.989 94.8889C190.42 95.2944 190.946 95.4359 191.284 95.5362C191.762 95.6847 192.404 96.1431 192.404 96.1431ZM189.924 92.4186C189.945 92.4822 190.148 93.175 190.574 93.7131C191.225 94.5368 192.48 95.1253 192.48 95.1253C192.363 94.6125 192.158 94.0198 191.997 93.7574C191.426 92.8362 189.919 92.3847 189.919 92.3847C189.919 92.3847 189.893 92.3495 189.924 92.4186Z" stroke="black" stroke-width="0.235625" />
        <path d="M189.632 91.0941C189.343 91.2238 189.24 91.2238 189.24 91.2238L189.402 91.6523L189.496 91.7686C189.496 91.7686 189.873 92.3141 190.092 92.382C190.184 92.4159 190.528 92.4759 190.872 92.6235C191.305 92.8077 192.013 93.4265 192.013 93.4265C192.013 93.4265 190.836 92.0992 190.385 91.1041L190.233 90.5308L189.806 90.5589C189.806 90.5589 189.923 90.9617 189.632 91.0944" fill="#009B3A" />
        <path d="M189.632 91.0941C189.343 91.2238 189.24 91.2238 189.24 91.2238L189.402 91.6523L189.496 91.7686C189.496 91.7686 189.873 92.3141 190.092 92.382C190.184 92.4159 190.528 92.4759 190.872 92.6235C191.305 92.8077 192.013 93.4265 192.013 93.4265C192.013 93.4265 190.836 92.0992 190.385 91.1041L190.233 90.5308L189.806 90.5589C189.806 90.5589 189.923 90.9617 189.632 91.0944" stroke="black" stroke-width="0.235625" />
        <path d="M185.228 90.2453C185.425 90.4234 185.64 90.5823 185.868 90.7198C186.127 90.8762 186.876 91.3165 187.436 91.4229C187.567 91.4435 188.27 91.532 188.27 91.532C188.298 91.2238 188.632 91.1971 188.632 91.1971L187.636 91.088C186.833 91.0286 186.222 90.6929 185.746 90.1553C186.384 90.5423 187.302 91.1517 188.045 91.1189C191.098 90.8189 187.125 90.7432 186.781 90.5223C186.415 90.2968 186.104 89.9223 186.104 89.9223L185.209 89.8823C185.209 89.8823 184.769 89.8547 185.228 90.2453Z" fill="#009B3A" stroke="black" stroke-width="0.235625" />
        <path d="M188.822 91.9837C189.02 91.9692 189.158 91.9322 189.203 91.7158C189.243 91.474 189.151 91.2986 188.86 91.2349C188.698 91.1949 188.414 91.1864 188.298 91.474C188.172 91.7686 188.631 91.9576 188.631 91.9576C188.631 91.9576 188.718 91.9958 188.822 91.9837ZM189.165 90.2334C188.906 90.2334 188.819 90.4443 188.874 90.8552C188.942 91.2698 189.576 91.0886 189.576 91.0886L189.693 91.0279C189.693 91.0279 189.78 90.9613 189.732 90.6316C189.687 90.294 189.425 90.2334 189.165 90.2334ZM190.203 90.5243H190.193C190.188 90.5273 190.203 90.5243 190.203 90.5243Z" fill="#009B3A" stroke="black" stroke-width="0.235625" />
        <path d="M190.192 90.5245C190.2 90.5214 190.218 90.5123 190.285 90.4936C190.416 90.4436 190.55 90.1263 190.55 90.1263C190.617 89.6978 190.31 89.5917 190.31 89.5917C189.793 89.4887 189.779 89.9423 189.779 89.9423C189.637 90.5333 190.116 90.5275 190.192 90.5242M187.891 88.4948C187.919 88.6911 188.198 88.9754 188.242 89.0242C188.292 89.0681 188.649 89.4399 188.769 89.606C188.889 89.773 189.289 90.5281 189.289 90.5281C189.289 90.5281 189.359 90.5166 189.388 90.459C189.458 90.3414 189.12 89.4263 189.086 89.3633C188.963 89.0854 188.761 88.8781 188.558 88.6614C188.51 88.6308 188.344 88.4169 188.161 88.1872C188.523 88.6496 189.449 89.9645 189.722 90.549C189.722 90.549 189.689 89.926 189.655 89.5914C189.539 88.6157 189.285 88.3136 189.204 88.1723C189.06 87.9087 188.695 87.6524 188.433 87.562C188.172 87.4675 187.863 87.3378 187.532 87.2317C187.19 87.1275 187.453 87.4354 187.579 87.7008C187.737 88.0148 187.863 88.2963 187.891 88.4951" fill="#009B3A" />
        <path d="M190.192 90.5245C190.2 90.5214 190.218 90.5123 190.285 90.4936C190.416 90.4436 190.55 90.1263 190.55 90.1263C190.617 89.6978 190.31 89.5917 190.31 89.5917C189.793 89.4887 189.779 89.9423 189.779 89.9423C189.637 90.5333 190.116 90.5275 190.192 90.5242M187.891 88.4948C187.919 88.6911 188.198 88.9754 188.242 89.0242C188.292 89.0681 188.649 89.4399 188.769 89.606C188.889 89.773 189.289 90.5281 189.289 90.5281C189.289 90.5281 189.359 90.5166 189.388 90.459C189.458 90.3414 189.12 89.4263 189.086 89.3633C188.963 89.0854 188.761 88.8781 188.558 88.6614C188.51 88.6308 188.344 88.4169 188.161 88.1872C188.523 88.6496 189.449 89.9645 189.722 90.549C189.722 90.549 189.689 89.926 189.655 89.5914C189.539 88.6157 189.285 88.3136 189.204 88.1723C189.06 87.9087 188.695 87.6524 188.433 87.562C188.172 87.4675 187.863 87.3378 187.532 87.2317C187.19 87.1275 187.453 87.4354 187.579 87.7008C187.737 88.0148 187.863 88.2963 187.891 88.4951" stroke="black" stroke-width="0.235625" />
        <path d="M186.617 90.0997C186.954 90.3855 187.106 90.5846 187.805 90.6876C188.51 90.7982 188.57 90.7512 188.57 90.7512C188.57 90.7512 188.935 90.5746 188.75 90.4197C187.713 89.964 186.732 89.4215 186.234 88.8115C186.234 88.8115 186.32 88.7276 186.679 89.0873C186.887 89.2982 187.027 89.4039 187.155 89.503C187.532 89.7667 187.695 89.8418 188.071 90.0467C188.271 90.1558 188.772 90.2733 188.772 90.2733C188.772 90.2733 188.843 90.1218 188.907 90.1039C188.968 90.0894 188.868 89.8515 188.433 89.4994C188.191 89.2992 187.977 89.0671 187.797 88.8094C187.797 88.8094 187.282 88.6967 186.724 88.6036C186.308 88.5376 185.526 87.9303 185.539 88.0952C185.553 88.2649 185.657 88.7909 185.867 89.1255C186.08 89.4615 186.282 89.8049 186.617 90.0997Z" fill="#009B3A" stroke="black" stroke-width="0.235625" />
        <path d="M180.791 111.186C180.486 111.276 178.194 112.137 178.194 112.137L177.554 112.393C178.437 112.194 179.114 112.64 179.114 112.64L181.667 111.458C181.667 111.458 181.66 111.419 181.596 111.373C181.529 111.328 181.1 111.093 180.791 111.186Z" fill="#009B3A" stroke="black" stroke-width="0.188125" />
        <path d="M177.456 112.47C177.439 112.485 177.422 112.546 177.467 112.565C177.594 112.636 177.56 112.663 178.138 112.733C178.722 112.796 179.102 112.686 179.202 112.575C179.319 112.447 177.757 112.208 177.456 112.47Z" fill="#009B3A" stroke="black" stroke-width="0.20125" />
        <path d="M173.789 104.225L173.683 103.509C173.683 103.509 173.55 101.572 173.33 101.184C173.288 101.098 173.307 100.896 173.167 100.893C172.9 100.873 172.9 101.503 172.867 102.074C172.433 104.953 174.729 107.151 174.729 107.151L173.789 104.225Z" fill="#009B3A" stroke="black" stroke-width="0.26125" />
        <path d="M185.152 112.755C185.152 112.755 184.911 112.701 185.063 112.513C185.209 112.334 185.644 112.239 185.731 112.239C185.816 112.235 186.06 112.256 186.241 112.307C186.424 112.352 186.677 112.513 186.603 112.63C186.525 112.741 186.278 112.88 185.94 112.88C185.65 112.88 185.501 112.873 185.374 112.837C185.25 112.79 185.152 112.755 185.152 112.755Z" fill="#009B3A" stroke="black" stroke-width="0.240625" />
        <path d="M182.662 111.386C182.662 111.386 181.874 111.023 181.127 110.658C180.142 110.177 178.959 109.509 178.135 108.284C177.103 106.768 176.206 105.956 175.989 105.793C175.766 105.629 175.734 105.568 175.652 105.684C175.578 105.784 175.63 105.87 175.692 105.977C175.905 106.322 176.426 106.97 176.613 107.318C176.935 107.94 177.602 108.619 177.596 109.022C177.596 109.078 177.402 108.982 177.402 108.982C177.402 108.982 175.841 108.447 175.209 106.556C174.748 105.185 174.944 104.783 174.837 104.098C174.655 102.88 174.617 102.781 174.015 101.417C173.998 101.383 173.646 100.812 173.599 100.939C173.533 101.103 173.658 101.713 173.658 101.713L173.722 102.416C173.722 102.416 173.671 103.977 173.671 104.071C173.671 104.166 173.278 105.14 174.948 106.777C174.948 106.777 174.974 107.055 174.749 106.811C174.591 106.635 173.395 105.717 173.032 104.207C172.657 102.696 172.602 101.184 172.886 100.556C173.143 99.9887 173.658 98.6014 173.439 97.3899C173.413 97.2635 173.377 96.8917 173.297 96.9893C173.263 97.0366 173.113 97.6499 173.022 97.862C172.896 98.1523 172.7 98.4378 172.64 98.6384C172.522 98.9787 171.946 99.5051 172.059 100.473C172.186 101.586 172.259 101.76 172.393 102.157C172.439 102.301 172.551 102.669 172.478 102.706C172.411 102.742 172.175 102.266 172.175 102.266C172.175 102.266 171.117 100.187 171.769 98.5014C172.429 96.8226 174.083 95.2308 174.083 95.2308C174.083 95.2308 175.426 94.1166 175.7 93.8572C175.807 93.7572 175.782 93.682 175.746 93.6935C175.412 93.7778 172.826 94.3126 171.918 97.3929C171.918 97.3929 171.871 97.5226 171.804 97.4905C171.72 97.4532 171.804 97.3087 171.804 97.3087C171.804 97.3087 172.372 95.1251 173.968 94.1344C175.71 93.0481 175.505 93.2072 176.082 92.8653C176.444 92.6399 176.772 92.3381 177.177 91.6672C177.219 91.5923 177.383 91.2017 177.362 91.135C177.343 91.069 177.265 91.1602 177.228 91.2708C177.228 91.2708 176.735 92.0326 175.997 92.289C175.256 92.5457 174.654 92.1799 173.911 93.0023C173.165 93.8293 172.573 94.9744 172.573 94.9744C172.573 94.9744 172.378 95.2708 172.335 95.2617C172.253 95.2369 172.375 94.9466 172.375 94.9466C172.375 94.9466 173.37 92.836 174.169 92.4072C174.969 91.975 175.682 91.5608 176.136 91.2102C176.689 90.7769 177.641 89.716 177.984 89.3505C178.056 89.2723 178.567 88.7547 178.68 88.5869C178.748 88.4954 178.91 88.3626 178.884 88.3396C178.811 88.285 178.326 88.5178 178.326 88.5178C178.326 88.5178 175.692 89.2438 174.052 91.7199C173.977 91.8347 173.796 92.0684 173.7 92.1672C173.525 92.3487 173.437 92.6511 173.437 92.6511C173.33 92.5626 174.364 91.2708 174.364 91.2708L174.545 90.435C174.545 90.435 174.851 89.1796 175.494 88.2932C175.557 88.2126 175.937 87.8293 176.002 87.7496C176.129 87.6114 175.759 87.8708 175.825 87.8129C175.825 87.8129 173.367 89.5772 173.367 91.7999C173.367 92.199 173.119 92.5635 172.776 93.0599C172.375 93.6363 172.242 93.9902 172.068 94.8478C171.995 95.2084 171.92 95.5684 171.842 95.9278C171.842 95.9278 171.866 96.245 171.763 96.2214C171.656 96.1978 171.694 95.9354 171.694 95.9354C171.694 95.9354 171.945 94.2787 172.123 93.7687C172.296 93.2735 172.411 92.9363 172.411 92.9363C172.411 92.9363 172.308 91.6908 172.585 91.0081C172.819 90.4129 173.413 89.629 173.505 89.4329C173.545 89.3475 173.82 88.789 173.897 88.1523C173.908 88.0669 173.841 88.1378 173.729 88.3863C173.459 88.9954 173.233 89.1544 172.789 89.7275C172.789 89.7275 171.651 90.5529 171.238 93.0081C171.238 93.0081 171.224 93.9232 171.085 95.3578C170.984 96.4087 171.07 97.3929 171.189 97.9857C171.265 98.3481 171.409 98.3511 171.32 98.395C171.264 98.4232 171.355 98.3999 171.226 98.126C171.068 97.7972 170.948 97.2914 170.948 96.5926C170.948 95.3117 171.059 94.2835 171.059 94.2835C171.059 94.2835 171.142 92.2138 170.284 91.2808C170.243 91.2323 170.435 91.6996 170.521 92.1653C170.626 92.7432 170.435 93.545 170.378 93.8572C170.323 94.1711 169.751 95.539 169.953 96.8226C169.953 96.8226 170.437 98.9996 171.061 100.055C171.061 100.055 171.449 100.509 171.106 100.083C170.766 99.6572 170.068 97.9632 170.007 97.819C169.953 97.6805 169.453 96.6263 168.982 96.1978C168.739 95.9705 168.069 95.5687 168.069 95.5687C168.069 95.5687 167.705 95.2914 167.981 95.6596C168.199 95.9505 168.492 96.4717 168.632 96.699C168.922 97.1681 169.18 97.6564 169.404 98.1605C169.628 98.6532 170.149 100.102 170.149 100.102L170.483 101.021C170.483 101.021 171.042 101.331 171.346 101.67C171.595 101.944 172.112 102.574 172.542 103.694C172.735 104.189 173.12 104.643 173.12 104.643C173.12 104.643 173.038 104.8 172.695 104.206C172.357 103.604 172.025 102.476 171.21 101.598C170.591 100.924 168.924 100.245 168.924 100.245C168.924 100.245 169.995 102.111 170.261 102.444C170.711 102.977 171.361 103.726 171.529 103.924C171.702 104.126 172.709 105.369 172.858 105.569C173.092 105.88 173.247 106.017 173.37 106.143C173.635 106.426 174.422 106.942 174.484 107.023C174.495 107.106 174.511 107.038 174.444 106.989C174.095 106.781 173.678 106.452 173.248 106.172C172.819 105.888 171.162 105.181 170.045 103.642C169.781 103.187 169.655 103.006 169.566 103.053C169.429 103.125 170.317 106.064 172.144 106.998C172.144 106.998 174.159 107.894 174.605 108.164C174.851 108.311 175.345 108.529 175.574 108.714C175.704 108.821 175.455 108.815 175.439 108.812C174.368 108.729 172.831 108.587 171.888 108.04C171.888 108.04 171.483 107.755 171.815 108.155C172.08 108.464 172.582 109.226 173.55 109.655C174.519 110.081 175.928 110.329 176.444 110.355C176.95 110.384 178.755 110.392 179.102 110.504C179.44 110.619 180.016 110.988 180.346 111.094C180.646 111.191 181.55 111.538 181.55 111.538C181.55 111.538 181.822 111.687 181.968 111.74C182.131 111.805 182.808 111.799 182.856 111.672C182.902 111.559 182.662 111.386 182.662 111.386Z" fill="#009B3A" stroke="black" stroke-width="0.188125" />
        <path d="M194.37 96.0833C194.575 96.1582 194.666 96.7654 194.666 96.7654C194.666 96.7654 194.648 96.4179 194.648 96.2466C194.648 96.0739 194.563 95.4272 194.563 95.4272L194.382 95.5569C194.165 95.7297 194.045 96.0345 194.045 96.0345C194.045 96.0345 194.169 96.0139 194.37 96.083" fill="#009B3A" />
        <path d="M194.37 96.0833C194.575 96.1582 194.666 96.7654 194.666 96.7654C194.666 96.7654 194.648 96.4179 194.648 96.2466C194.648 96.0739 194.563 95.4272 194.563 95.4272L194.382 95.5569C194.165 95.7297 194.045 96.0345 194.045 96.0345C194.045 96.0345 194.169 96.0139 194.37 96.083" stroke="black" stroke-width="0.235625" />
    </g>
    <defs>
        <clipPath id="clip0_5_1301">
            <rect width="363.636" height="200" fill="white" />
        </clipPath>
    </defs>
</svg>