<svg width="400" height="200" viewBox="0 0 400 200" fill="none"
    xmlns="http://www.w3.org/2000/svg">
    <path d="M203.833 18.2264C191.113 12.9664 183.327 11.9998 174.627 11.9131C162.027 11.9998 156.013 17.4131 144 17.9131C148.76 23.0398 166.013 24.2931 173.287 17.5598C184.1 18.6864 186.553 21.6064 189.453 25.2398C184.94 24.5264 179.74 23.2264 175.427 27.9998C171.787 28.7331 170.1 27.9998 163.873 27.9998C160.967 27.9998 159.96 29.4264 160 31.9998C161.88 29.3998 174.873 30.9331 178.06 31.9998C180.507 32.8198 183.107 36.2131 186.207 36.7664C194.333 38.2131 205.993 33.9664 216.747 31.0731L240 27.9998H224.047L244 23.9998H222.307C221.847 23.4731 220.747 22.7931 219.867 22.2131C225.447 18.6198 230.38 12.0864 231.64 8.93312C241.7 8.83312 248.193 7.89978 256 6.07312C204.547 0.379782 216.26 6.51978 203.833 18.2264Z" fill="#F8D000" stroke="black" stroke-width="0.46" stroke-miterlimit="22.9256"/>
    <path d="M180.04 26.5933C180.593 26.5933 181.04 27.0399 181.04 27.5933C181.04 28.1466 180.593 28.5933 180.04 28.5933C179.493 28.5933 179.04 28.1466 179.04 27.5933C179.04 27.0399 179.493 26.5933 180.04 26.5933Z" fill="black"/>
    <path d="M180.04 26.5933C180.593 26.5933 181.04 27.0399 181.04 27.5933C181.04 28.1466 180.593 28.5933 180.04 28.5933C179.493 28.5933 179.04 28.1466 179.04 27.5933C179.04 27.0399 179.493 26.5933 180.04 26.5933Z" stroke="black" stroke-width="0.15" stroke-miterlimit="22.926"/>
    <path d="M193.42 25.5267C193.42 25.5267 189.24 28 186.467 28M216.747 31.0733C216.747 31.0733 220.567 28 224.047 28M155.88 16.4C155.88 16.4 158.987 14.7733 160.453 14.34M168.753 14.08C168.753 14.08 173.68 11.9533 179.167 12.06M182.073 14.6C182.073 14.6 188.533 13.5133 194.5 14.84M189.5 16.16C189.5 16.16 194.86 15.26 200 16.7133M195.013 17.7933C195.013 17.7933 200.473 17.8667 203.187 18.92M144 17.9133C144 17.9133 151.66 20.0067 157.887 17.0133M144.973 18.82C144.973 18.82 154.92 21.2733 159.467 16.72M148.307 20.54C148.307 20.54 155.8 22.9533 161.693 16.7267M155.267 22.0533C155.267 22.0533 161.32 20.32 163.613 16.7533M160 22.1533C160 22.1533 164.06 19.34 165.52 16.8333M212.307 18.98C212.307 18.98 213.893 20.9733 219.867 22.2133M213.36 18.04C213.36 18.04 215.927 20.6067 221.273 21.2333M214.653 16.8333C214.653 16.8333 217.26 19.0733 222.933 19.9067M215.94 15.5467C215.94 15.5467 219.927 18.2067 224.467 18.5133M217.513 13.8667C217.513 13.8667 220.307 16.4733 225.847 17.12M218.687 12.5267C218.687 12.5267 221.96 15.34 227.107 15.7267M219.84 11.1267C219.84 11.1267 221.847 13.4467 228.467 14.0533M221.013 9.61333C221.013 9.61333 223.247 12.0667 229.533 12.6M221.927 8.36667C221.927 8.36667 225.86 11.3333 230.413 11.2733M222.707 7.23333C222.707 7.23333 227.907 10.3533 231.007 10.2533M223.653 5.79333C223.653 5.79333 227.787 8.36667 231.64 8.93333M205.893 20.2533C205.893 20.2533 207.56 21.5133 209.12 21.46M206.853 19.32C206.853 19.32 208.3 20.5533 210.287 20.5467M208.02 18.1733C208.02 18.1733 209.66 19.7067 211.627 19.4267M209.127 17.0667C209.127 17.0667 211.087 18.4 212.84 18.36M210.353 15.8067C210.353 15.8067 211.807 17.0667 214.107 17.1867M211.447 14.42C211.447 14.42 213.153 15.9333 215.327 15.9867M212.6 13.42C212.6 13.42 214.253 14.48 216.593 14.68M213.647 12.2533C213.647 12.2533 215.88 13.04 217.927 13.2333M214.853 10.8267C214.853 10.8267 216.393 11.9067 219.127 11.84M215.94 9.4C215.94 9.4 217.767 10.6133 220.113 10.64M216.74 8.04667C216.74 8.04667 219.193 9.42 221.307 9.11333M217.633 6.42667C217.633 6.42667 219.187 8.12667 222.08 8.06667M218.26 5.69333C218.26 5.69333 221.047 7.26 222.933 6.86M219.44 4.80667C219.44 4.80667 221.553 6.09333 223.487 6.04M221.587 4.16C221.587 4.16 225.353 6.08 230.447 4M224.793 5.52667C224.793 5.52667 232.407 7.27333 235.707 4.22M230.767 5.98C230.767 5.98 236 6.52667 241.853 4.67333M234.247 6.01333C234.247 6.01333 242.193 7.61333 256 6.07333M162.16 21.9733C162.16 21.9733 165.713 19.6333 167.187 16.94M164.82 21.54C164.82 21.54 167.68 18.7667 168.513 17.0467M167.46 20.8267C167.46 20.8267 169.813 18.7133 170.333 17.2333M155.967 17.1067C155.967 17.1067 161.073 15.9933 173.287 17.56M160.687 15.0667C160.687 15.0667 164.967 12.9933 168.78 12.36M164.94 14.2067C164.94 14.2067 168.067 12.7333 172.68 12M172.047 13.9267C172.047 13.9267 176.373 12.08 181.667 12.2533M177.52 13.96C177.52 13.96 183.453 12.6333 188.92 13.38M193.407 16.86C193.407 16.86 197.933 16.6533 203.14 17.9467M185.667 15.04C185.667 15.04 192.153 14.6933 196.6 15.5133M225.78 5.71333C225.78 5.71333 228.02 7.65333 234.26 8.88667M229.3 6.02667C229.3 6.02667 232.807 8.02 238.34 8.71333M232.98 6.05333C232.98 6.05333 237.9 8.19333 243.1 8.32667M238.427 6.52C238.427 6.52 243.44 7.72667 249.653 7.4M174.94 13.8533C174.94 13.8533 178.34 12.4533 184.367 12.5667M197.36 18.9467C197.36 18.9467 199.4 18.7 201.933 19.9067" stroke="black" stroke-width="0.46" stroke-miterlimit="22.9256"/>
    <path d="M189.453 25.2399C190.86 25.4599 192.2 25.6266 193.42 25.5266C198.193 22.9199 201.453 20.4732 203.833 18.2266" stroke="black" stroke-width="0.46" stroke-miterlimit="22.9256"/>
    <path d="M166.341 99.2054C161.678 98.5714 157.202 96.9572 153.207 94.469C149.213 91.9808 145.79 88.675 143.165 84.769C147.256 87.0968 151.792 88.5322 156.477 88.9807C161.161 89.4292 165.888 88.8807 170.345 87.3712" fill="#F8D000"/>
    <path d="M166.341 99.2054C161.678 98.5714 157.202 96.9572 153.207 94.469C149.213 91.9808 145.79 88.675 143.165 84.769C147.256 87.0968 151.792 88.5322 156.477 88.9807C161.161 89.4292 165.888 88.8807 170.345 87.3712" stroke="black" stroke-width="0.46" stroke-miterlimit="22.926"/>
    <path d="M166.147 107.136L138.265 98.2795L167.299 94.6964" fill="#F8D000"/>
    <path d="M166.147 107.136L138.265 98.2795L167.299 94.6964" stroke="black" stroke-width="0.46" stroke-miterlimit="22.926"/>
    <path d="M170.347 87.3685C166.228 85.0925 162.637 81.9702 159.811 78.2068C156.986 74.4435 154.989 70.1245 153.953 65.534C156.925 69.1823 160.637 72.1598 164.843 74.2705C169.049 76.3813 173.655 77.5775 178.356 77.7804" fill="#F8D000"/>
    <path d="M170.347 87.3685C166.228 85.0925 162.637 81.9702 159.811 78.2068C156.986 74.4435 154.989 70.1245 153.953 65.534C156.925 69.1823 160.637 72.1598 164.843 74.2705C169.049 76.3813 173.655 77.5775 178.356 77.7804" stroke="black" stroke-width="0.46" stroke-miterlimit="22.926"/>
    <path d="M167.3 94.6934L144.502 76.361L172.869 83.5101" fill="#F8D000"/>
    <path d="M167.3 94.6934L144.502 76.361L172.869 83.5101" stroke="black" stroke-width="0.46" stroke-miterlimit="22.926"/>
    <path d="M178.355 77.7822C175.335 74.1723 173.115 69.964 171.839 65.4342C170.563 60.9043 170.261 56.1557 170.952 51.5007C172.407 55.9763 174.792 60.0932 177.952 63.5805C181.112 67.0679 184.975 69.8465 189.286 71.7337" fill="#F8D000"/>
    <path d="M178.355 77.7822C175.335 74.1723 173.115 69.964 171.839 65.4342C170.563 60.9043 170.261 56.1557 170.952 51.5007C172.407 55.9763 174.792 60.0932 177.952 63.5805C181.112 67.0679 184.975 69.8465 189.286 71.7337" stroke="black" stroke-width="0.46" stroke-miterlimit="22.926"/>
    <path d="M172.868 83.5124L158.228 58.184L182.1 75.0952" fill="#F8D000"/>
    <path d="M172.868 83.5124L158.228 58.184L182.1 75.0952" stroke="black" stroke-width="0.46" stroke-miterlimit="22.926"/>
    <path d="M189.289 71.7329C187.778 67.276 187.227 62.5497 187.674 57.8649C188.121 53.1801 189.555 48.643 191.882 44.5522C191.621 49.251 192.358 53.9518 194.045 58.3453C195.731 62.7387 198.329 66.7253 201.667 70.0426" fill="#F8D000"/>
    <path d="M189.289 71.7329C187.778 67.276 187.227 62.5497 187.674 57.8649C188.121 53.1801 189.555 48.643 191.882 44.5522C191.621 49.251 192.358 53.9518 194.045 58.3453C195.731 62.7387 198.329 66.7253 201.667 70.0426" stroke="black" stroke-width="0.46" stroke-miterlimit="22.926"/>
    <path d="M182.102 75.0935L177.603 46.1869L193.752 70.5805" fill="#F8D000"/>
    <path d="M182.102 75.0935L177.603 46.1869L193.752 70.5805" stroke="black" stroke-width="0.46" stroke-miterlimit="22.926"/>
    <path d="M201.671 70.0421C201.872 65.3403 203.067 60.7345 205.176 56.5276C207.286 52.3207 210.262 48.6082 213.909 45.6342C211.968 49.9215 210.957 54.5711 210.943 59.2771C210.928 63.9832 211.91 68.639 213.824 72.9383" fill="#F8D000"/>
    <path d="M201.671 70.0421C201.872 65.3403 203.067 60.7345 205.176 56.5276C207.286 52.3207 210.262 48.6082 213.909 45.6342C211.968 49.9215 210.957 54.5711 210.943 59.2771C210.928 63.9832 211.91 68.639 213.824 72.9383" stroke="black" stroke-width="0.46" stroke-miterlimit="22.926"/>
    <path d="M193.756 70.5795L200.004 41.9999L206.249 70.5804" fill="#F8D000"/>
    <path d="M193.756 70.5795L200.004 41.9999L206.249 70.5804" stroke="black" stroke-width="0.46" stroke-miterlimit="22.926"/>
    <path d="M213.821 72.9379C215.707 68.6261 218.484 64.7625 221.97 61.6013C225.456 58.4401 229.573 56.0529 234.048 54.5968C230.69 57.8938 228.068 61.8646 226.354 66.2477C224.641 70.6309 223.876 75.3271 224.108 80.0274" fill="#F8D000"/>
    <path d="M213.821 72.9379C215.707 68.6261 218.484 64.7625 221.97 61.6013C225.456 58.4401 229.573 56.0529 234.048 54.5968C230.69 57.8938 228.068 61.8646 226.354 66.2477C224.641 70.6309 223.876 75.3271 224.108 80.0274" stroke="black" stroke-width="0.46" stroke-miterlimit="22.926"/>
    <path d="M206.246 70.5802L222.394 46.186L217.896 75.0928" fill="#F8D000"/>
    <path d="M206.246 70.5802L222.394 46.186L217.896 75.0928" stroke="black" stroke-width="0.46" stroke-miterlimit="22.926"/>
    <path d="M224.111 80.029C227.427 76.6898 231.413 74.0907 235.806 72.4026C240.199 70.7145 244.899 69.9757 249.598 70.2349C245.276 72.0959 241.396 74.8511 238.215 78.3192C235.034 81.7873 232.623 85.8896 231.142 90.3564" fill="#F8D000"/>
    <path d="M224.111 80.029C227.427 76.6898 231.413 74.0907 235.806 72.4026C240.199 70.7145 244.899 69.9757 249.598 70.2349C245.276 72.0959 241.396 74.8511 238.215 78.3192C235.034 81.7873 232.623 85.8896 231.142 90.3564" stroke="black" stroke-width="0.46" stroke-miterlimit="22.926"/>
    <path d="M217.9 75.0942L241.771 58.1821L227.132 83.511" fill="#F8D000"/>
    <path d="M217.9 75.0942L241.771 58.1821L227.132 83.511" stroke="black" stroke-width="0.46" stroke-miterlimit="22.926"/>
    <path d="M231.143 90.3597C235.441 88.4442 240.097 87.4607 244.803 87.4737C249.509 87.4868 254.159 88.4963 258.447 90.4356C253.744 90.6092 249.131 91.7767 244.912 93.8611C240.693 95.9456 236.963 98.8999 233.967 102.53" fill="#F8D000"/>
    <path d="M231.143 90.3597C235.441 88.4442 240.097 87.4607 244.803 87.4737C249.509 87.4868 254.159 88.4963 258.447 90.4356C253.744 90.6092 249.131 91.7767 244.912 93.8611C240.693 95.9456 236.963 98.8999 233.967 102.53" stroke="black" stroke-width="0.46" stroke-miterlimit="22.926"/>
    <path d="M227.134 83.514L255.503 76.3689L232.702 94.698" fill="#F8D000"/>
    <path d="M227.134 83.514L255.503 76.3689L232.702 94.698" stroke="black" stroke-width="0.46" stroke-miterlimit="22.926"/>
    <path d="M233.967 102.527C238.667 102.293 243.364 103.057 247.748 104.769C252.131 106.481 256.103 109.101 259.401 112.458C254.953 110.922 250.23 110.344 245.542 110.765C240.855 111.185 236.31 112.593 232.206 114.895" fill="#F8D000"/>
    <path d="M233.967 102.527C238.667 102.293 243.364 103.057 247.748 104.769C252.131 106.481 256.103 109.101 259.401 112.458C254.953 110.922 250.23 110.344 245.542 110.765C240.855 111.185 236.31 112.593 232.206 114.895" stroke="black" stroke-width="0.46" stroke-miterlimit="22.926"/>
    <path d="M232.701 94.6951L261.736 98.2771L233.854 107.135" fill="#F8D000"/>
    <path d="M232.701 94.6951L261.736 98.2771L233.854 107.135" stroke="black" stroke-width="0.46" stroke-miterlimit="22.926"/>
    <path d="M200 138C218.778 138 234 122.778 234 104C234 85.2223 218.778 70 200 70C181.222 70 166 85.2223 166 104C166 122.778 181.222 138 200 138Z" fill="#F8D000" stroke="black" stroke-width="0.46" stroke-miterlimit="22.926"/>
</svg>
