
<svg width="400" height="200" viewBox="0 0 400 200" fill="none" xmlns="http://www.w3.org/2000/svg">
<g clip-path="url(#clip0_82_10)">
<path d="M0 108H400V200H0V108Z" fill="#183070"/>
<path d="M-24 112C-10.6667 106.667 2.66667 106.667 16 112C29.3333 117.333 42.6667 117.333 56 112C69.3333 106.667 82.6667 106.667 96 112C109.333 117.333 122.667 117.333 136 112C149.333 106.667 163.333 106.667 178 112C192.667 117.333 207.333 117.333 222 112C236.667 106.667 250.667 106.667 264 112C277.333 117.333 290.667 117.333 304 112C317.333 106.667 330.667 106.667 344 112C357.333 117.333 370.667 117.333 384 112C397.333 106.667 410.667 106.667 424 112" stroke="white" stroke-width="24"/>
<path d="M-24 144C-10.6667 138.667 2.66667 138.667 16 144C29.3333 149.333 42.6667 149.333 56 144C69.3333 138.667 82.6667 138.667 96 144C109.333 149.333 122.667 149.333 136 144C149.333 138.667 163.333 138.667 178 144C192.667 149.333 207.333 149.333 222 144C236.667 138.667 250.667 138.667 264 144C277.333 149.333 290.667 149.333 304 144C317.333 138.667 330.667 138.667 344 144C357.333 149.333 370.667 149.333 384 144C397.333 138.667 410.667 138.667 424 144" stroke="white" stroke-width="24"/>
<path d="M-24 176C-10.6667 170.667 2.66667 170.667 16 176C29.3333 181.333 42.6667 181.333 56 176C69.3333 170.667 82.6667 170.667 96 176C109.333 181.333 122.667 181.333 136 176C149.333 170.667 163.333 170.667 178 176C192.667 181.333 207.333 181.333 222 176C236.667 170.667 250.667 170.667 264 176C277.333 181.333 290.667 181.333 304 176C317.333 170.667 330.667 170.667 344 176C357.333 181.333 370.667 181.333 384 176C397.333 170.667 410.667 170.667 424 176" stroke="white" stroke-width="24"/>
</g>
<defs>
<clipPath id="clip0_82_10">
<rect width="400" height="200" fill="white"/>
</clipPath>
</defs>
</svg>
