<svg width="400" height="200" viewBox="0 0 400 200" fill="none"
    xmlns="http://www.w3.org/2000/svg">
    <g clip-path="url(#clip0_5_7456)">
        <path d="M200 166.667C236.819 166.667 266.667 136.819 266.667 100C266.667 63.1809 236.819 33.3332 200 33.3332C163.181 33.3332 133.333 63.1809 133.333 100C133.333 136.819 163.181 166.667 200 166.667Z" fill="#0F47AF"/>
        <path d="M200 46.6666L197.663 53.8577L207.301 83.5189H194.451L193.007 87.9633H234.209L240.326 83.5189H211.974L200 46.6666Z" fill="#FCDD09"/>
        <path d="M214.368 80.2239L231.348 56.8522Z" fill="black"/>
        <path d="M214.368 80.2239L231.348 56.8522" stroke="#FCDD09" stroke-width="6.66668"/>
        <path d="M250.723 83.5191L243.162 83.5189L217.931 101.851L213.96 89.6297L209.287 89.6299L222.019 128.815L228.136 133.26L219.375 106.295L250.723 83.5191Z" fill="#FCDD09"/>
        <path d="M223.248 107.554L250.723 116.481Z" fill="black"/>
        <path d="M223.248 107.554L250.723 116.481" stroke="#FCDD09" stroke-width="6.66668"/>
        <path d="M231.349 143.148L229.012 135.956L203.781 117.625L214.177 110.072L212.732 105.628L179.399 129.845L177.063 137.037L200 120.372L231.349 143.148Z" fill="#FCDD09"/>
        <path d="M200 124.445L200 153.333Z" fill="black"/>
        <path d="M200 124.445L200 153.333" stroke="#FCDD09" stroke-width="6.66668"/>
        <path d="M168.651 143.148L174.769 138.703L184.406 109.042L194.802 116.595L198.582 113.848L165.249 89.6304L157.688 89.6304L180.626 106.295L168.651 143.148Z" fill="#FCDD09"/>
        <path d="M176.752 107.554L149.277 116.481Z" fill="black"/>
        <path d="M176.752 107.554L149.277 116.481" stroke="#FCDD09" stroke-width="6.66668"/>
        <path d="M149.277 83.519L155.394 87.9635L186.582 87.9632L182.611 100.184L186.392 102.931L199.124 63.7458L196.787 56.5545L188.026 83.5192L149.277 83.519Z" fill="#FCDD09"/>
        <path d="M185.632 80.2237L168.651 56.8525Z" fill="black"/>
        <path d="M185.632 80.2237L168.651 56.8525" stroke="#FCDD09" stroke-width="6.66668"/>
    </g>
    <defs>
        <clipPath id="clip0_5_7456">
            <rect width="400" height="200" fill="white"/>
        </clipPath>
    </defs>
</svg>
