<svg xmlns="http://www.w3.org/2000/svg" viewBox="0 0 400 200"><g><path d="M300.001 35.0816V42.6482L315.134 35.0816H300.001Z" fill="white" />
<path d="M302.887 43.9793L298.439 37.8577L315.13 35.0841L302.887 43.9793Z" fill="white" />
<path d="M300.001 35.0816V42.6482L284.867 35.0816H300.001Z" fill="white" />
<path d="M297.114 43.9793L301.562 37.8577L284.871 35.0841L297.114 43.9793Z" fill="white" />
<path d="M304.678 38.4801L297.482 40.8183L309.355 52.8727L304.678 38.4801Z" fill="white" />
<path d="M297.108 43.9745L301.555 37.8529L309.351 52.8696L297.108 43.9745Z" fill="white" />
<path d="M295.323 38.4801L302.519 40.8183L299.999 24.0874L295.323 38.4801Z" fill="white" />
<path d="M304.677 38.4847L297.481 40.823L300.001 24.0921L304.677 38.4847Z" fill="white" />
<path d="M295.323 38.4801L302.519 40.8183L290.646 52.8727L295.323 38.4801Z" fill="white" />
<path d="M302.893 43.9745L298.446 37.8529L290.65 52.8696L302.893 43.9745Z" fill="white" />
<path d="M300 36.7502V41.7502L310 36.7502H300Z" fill="#C8102E" />
<path d="M301.907 42.6298L298.968 38.5847L309.997 36.7519L301.907 42.6298Z" fill="#C8102E" />
<path d="M300 36.7502V41.7502L290 36.7502H300Z" fill="#C8102E" />
<path d="M298.093 42.6298L301.032 38.5847L290.003 36.7519L298.093 42.6298Z" fill="#C8102E" />
<path d="M303.091 38.9959L298.336 40.541L306.181 48.5065L303.091 38.9959Z" fill="#C8102E" />
<path d="M298.088 42.6266L301.027 38.5815L306.179 48.5044L298.088 42.6266Z" fill="#C8102E" />
<path d="M296.909 38.9959L301.664 40.541L299.999 29.4854L296.909 38.9959Z" fill="#C8102E" />
<path d="M303.09 38.999L298.335 40.5441L300 29.4884L303.09 38.999Z" fill="#C8102E" />
<path d="M296.909 38.9959L301.664 40.541L293.819 48.5065L296.909 38.9959Z" fill="#C8102E" />
<path d="M301.911 42.6266L298.973 38.5815L293.821 48.5044L301.911 42.6266Z" fill="#C8102E" />
<path d="M339.611 70.0568L339.611 76.7901L353.078 70.0568L339.611 70.0568Z" fill="white" />
<path d="M342.179 77.9746L338.222 72.5272L353.074 70.0591L342.179 77.9746Z" fill="white" />
<path d="M339.611 70.0568L339.611 76.7901L326.145 70.0568L339.611 70.0568Z" fill="white" />
<path d="M337.043 77.9746L341.001 72.5272L326.148 70.0591L337.043 77.9746Z" fill="white" />
<path d="M343.774 73.081L337.37 75.1617L347.935 85.8886L343.774 73.081Z" fill="white" />
<path d="M337.037 77.9703L340.995 72.5229L347.932 85.8858L337.037 77.9703Z" fill="white" />
<path d="M335.449 73.081L341.853 75.1617L339.61 60.2734L335.449 73.081Z" fill="white" />
<path d="M343.773 73.0852L337.369 75.1659L339.611 60.2776L343.773 73.0852Z" fill="white" />
<path d="M335.449 73.081L341.853 75.1617L331.287 85.8886L335.449 73.081Z" fill="white" />
<path d="M342.185 77.9703L338.228 72.5229L331.291 85.8858L342.185 77.9703Z" fill="white" />
<path d="M339.612 71.725L339.612 75.8916L347.945 71.725L339.612 71.725Z" fill="#C8102E" />
<path d="M341.201 76.6246L338.752 73.2537L347.943 71.7264L341.201 76.6246Z" fill="#C8102E" />
<path d="M339.612 71.725L339.612 75.8916L331.278 71.725L339.612 71.725Z" fill="#C8102E" />
<path d="M338.022 76.6246L340.471 73.2537L331.281 71.7264L338.022 76.6246Z" fill="#C8102E" />
<path d="M342.187 73.5964L338.225 74.8839L344.763 81.5218L342.187 73.5964Z" fill="#C8102E" />
<path d="M338.019 76.6219L340.468 73.251L344.761 81.5201L338.019 76.6219Z" fill="#C8102E" />
<path d="M337.036 73.5964L340.999 74.8839L339.611 65.6709L337.036 73.5964Z" fill="#C8102E" />
<path d="M342.187 73.5989L338.224 74.8865L339.612 65.6735L342.187 73.5989Z" fill="#C8102E" />
<path d="M337.036 73.5964L340.999 74.8839L334.461 81.5218L337.036 73.5964Z" fill="#C8102E" />
<path d="M341.205 76.6219L338.755 73.251L334.463 81.5201L341.205 76.6219Z" fill="#C8102E" />
<path d="M253.788 81.5767L253.788 89.1434L268.921 81.5767L253.788 81.5767Z" fill="white" />
<path d="M256.674 90.4744L252.226 84.3528L268.917 81.5792L256.674 90.4744Z" fill="white" />
<path d="M253.788 81.5767L253.788 89.1434L238.654 81.5767L253.788 81.5767Z" fill="white" />
<path d="M250.902 90.4744L255.349 84.3528L238.658 81.5792L250.902 90.4744Z" fill="white" />
<path d="M258.465 84.9752L251.269 87.3134L263.142 99.3678L258.465 84.9752Z" fill="white" />
<path d="M250.895 90.4696L255.342 84.348L263.138 99.3647L250.895 90.4696Z" fill="white" />
<path d="M249.11 84.9752L256.306 87.3134L253.786 70.5825L249.11 84.9752Z" fill="white" />
<path d="M258.464 84.9799L251.268 87.3181L253.788 70.5872L258.464 84.9799Z" fill="white" />
<path d="M249.11 84.9752L256.306 87.3134L244.434 99.3678L249.11 84.9752Z" fill="white" />
<path d="M256.68 90.4696L252.233 84.348L244.437 99.3647L256.68 90.4696Z" fill="white" />
<path d="M253.788 83.2449L253.788 88.2449L263.788 83.2449L253.788 83.2449Z" fill="#C8102E" />
<path d="M255.695 89.1244L252.756 85.0793L263.785 83.2465L255.695 89.1244Z" fill="#C8102E" />
<path d="M253.788 83.2449L253.788 88.2449L243.788 83.2449L253.788 83.2449Z" fill="#C8102E" />
<path d="M251.881 89.1244L254.82 85.0793L243.791 83.2465L251.881 89.1244Z" fill="#C8102E" />
<path d="M256.879 85.4905L252.124 87.0356L259.969 95.0011L256.879 85.4905Z" fill="#C8102E" />
<path d="M251.877 89.1212L254.816 85.0761L259.967 94.9991L251.877 89.1212Z" fill="#C8102E" />
<path d="M250.697 85.4905L255.452 87.0356L253.787 75.98L250.697 85.4905Z" fill="#C8102E" />
<path d="M256.878 85.4936L252.123 87.0387L253.788 75.9831L256.878 85.4936Z" fill="#C8102E" />
<path d="M250.697 85.4905L255.452 87.0356L247.607 95.0011L250.697 85.4905Z" fill="#C8102E" />
<path d="M255.7 89.1212L252.761 85.0761L247.609 94.9991L255.7 89.1212Z" fill="#C8102E" />
<path d="M300 154.54V162.94L316.8 154.54H300Z" fill="white" />
<path d="M303.204 164.418L298.267 157.622L316.796 154.543L303.204 164.418Z" fill="white" />
<path d="M300 154.54V162.94L283.2 154.54H300Z" fill="white" />
<path d="M296.796 164.418L301.734 157.622L283.205 154.543L296.796 164.418Z" fill="white" />
<path d="M305.193 158.313L297.204 160.908L310.384 174.29L305.193 158.313Z" fill="white" />
<path d="M296.789 164.412L301.726 157.616L310.38 174.287L296.789 164.412Z" fill="white" />
<path d="M294.807 158.313L302.796 160.908L299.999 142.335L294.807 158.313Z" fill="white" />
<path d="M305.192 158.318L297.203 160.914L300 142.34L305.192 158.318Z" fill="white" />
<path d="M294.807 158.313L302.796 160.908L289.616 174.29L294.807 158.313Z" fill="white" />
<path d="M303.212 164.412L298.274 157.616L289.62 174.287L303.212 164.412Z" fill="white" />
<path d="M300 156.209V162.042L311.666 156.209H300Z" fill="#C8102E" />
<path d="M302.225 163.068L298.796 158.349L311.663 156.211L302.225 163.068Z" fill="#C8102E" />
<path d="M300 156.209V162.042L288.333 156.209H300Z" fill="#C8102E" />
<path d="M297.775 163.068L301.203 158.349L288.336 156.211L297.775 163.068Z" fill="#C8102E" />
<path d="M303.606 158.829L298.058 160.631L307.211 169.924L303.606 158.829Z" fill="#C8102E" />
<path d="M297.77 163.064L301.198 158.345L307.208 169.922L297.77 163.064Z" fill="#C8102E" />
<path d="M296.394 158.829L301.941 160.631L299.999 147.733L296.394 158.829Z" fill="#C8102E" />
<path d="M303.605 158.832L298.057 160.635L300 147.737L303.605 158.832Z" fill="#C8102E" />
<path d="M296.394 158.829L301.941 160.631L292.788 169.924L296.394 158.829Z" fill="#C8102E" />
<path d="M302.23 163.064L298.801 158.345L292.791 169.922L302.23 163.064Z" fill="#C8102E" />
</g></svg>