<svg xmlns="http://www.w3.org/2000/svg" viewBox="0 0 300 200">
    <path d="M74.9998 25L67.2743 48.7764L79.1625 52.6391L74.9998 25Z" fill="#072357"/>
    <path d="M74.9998 25L82.7252 48.7764L70.837 52.6391L74.9998 25Z" fill="#072357"/>
    <path d="M98.7761 42.2744H73.7761V54.7744L98.7761 42.2744Z" fill="#072357"/>
    <path d="M98.7761 42.2744L78.5507 56.969L71.2034 46.8563L98.7761 42.2744Z" fill="#072357"/>
    <path d="M89.6946 70.2256L81.9692 46.4492L70.0809 50.3119L89.6946 70.2256Z" fill="#072357"/>
    <path d="M89.6946 70.2256L69.4692 55.531L76.8165 45.4182L89.6946 70.2256Z" fill="#072357"/>
    <path d="M60.3054 70.2251L80.5308 55.5305L73.1835 45.4178L60.3054 70.2251Z" fill="#072357"/>
    <path d="M60.3054 70.2251L68.0308 46.4487L79.9191 50.3114L60.3054 70.2251Z" fill="#072357"/>
    <path d="M51.2234 42.2749L71.4488 56.9695L78.7961 46.8568L51.2234 42.2749Z" fill="#072357"/>
    <path d="M51.2234 42.2749H76.2234V54.7749L51.2234 42.2749Z" fill="#072357"/>
</svg>