<svg xmlns="http://www.w3.org/2000/svg" viewBox="0 0 300 200">
    <path d="M225 125L217.274 148.776L229.163 152.639L225 125Z" fill="#DA121A"/>
    <path d="M225 125L232.725 148.776L220.837 152.639L225 125Z" fill="#DA121A"/>
    <path d="M248.776 142.274H223.776V154.774L248.776 142.274Z" fill="#DA121A"/>
    <path d="M248.776 142.274L228.551 156.969L221.203 146.856L248.776 142.274Z" fill="#DA121A"/>
    <path d="M239.695 170.226L231.969 146.449L220.081 150.312L239.695 170.226Z" fill="#DA121A"/>
    <path d="M239.695 170.226L219.469 155.531L226.816 145.418L239.695 170.226Z" fill="#DA121A"/>
    <path d="M210.305 170.226L230.531 155.531L223.184 145.418L210.305 170.226Z" fill="#DA121A"/>
    <path d="M210.305 170.226L218.031 146.449L229.919 150.312L210.305 170.226Z" fill="#DA121A"/>
    <path d="M201.223 142.275L221.449 156.97L228.796 146.857L201.223 142.275Z" fill="#DA121A"/>
    <path d="M201.223 142.275H226.223V154.775L201.223 142.275Z" fill="#DA121A"/>
</svg>