<svg xmlns="http://www.w3.org/2000/svg" viewBox="0 0 400 200">
    <g>
        <path d="M200 71.4287L191.171 98.6018L204.758 103.016" fill="black" />
        <path d="M200 71.4287L208.829 98.6018L195.243 103.016" fill="black" />
        <path d="M227.173 91.1709H198.602V105.457" fill="black" />
        <path d="M227.173 91.1709L204.058 107.965L195.662 96.4076" fill="black" />
        <path d="M216.794 123.115L207.965 95.9424L194.378 100.356" fill="black" />
        <path d="M216.794 123.115L193.679 106.321L202.076 94.7637" fill="black" />
        <path d="M183.206 123.115L206.321 106.321L197.924 94.7637" fill="black" />
        <path d="M183.206 123.115L192.035 95.9424L205.622 100.356" fill="black" />
        <path d="M172.827 91.1711L195.942 107.965L204.339 96.4076" fill="black" />
        <path d="M172.827 91.1711H201.399V105.457" fill="black" />
        <path d="M300 71.4287L291.171 98.6018L304.758 103.016" fill="black" />
        <path d="M300 71.4287L308.829 98.6018L295.243 103.016" fill="black" />
        <path d="M327.173 91.1709H298.602V105.457" fill="black" />
        <path d="M327.173 91.1709L304.058 107.965L295.662 96.4076" fill="black" />
        <path d="M316.794 123.115L307.965 95.9424L294.378 100.356" fill="black" />
        <path d="M316.794 123.115L293.679 106.321L302.076 94.7637" fill="black" />
        <path d="M283.206 123.115L306.321 106.321L297.924 94.7637" fill="black" />
        <path d="M283.206 123.115L292.035 95.9424L305.622 100.356" fill="black" />
        <path d="M272.827 91.1711L295.942 107.965L304.339 96.4076" fill="black" />
        <path d="M272.827 91.1711H301.399V105.457" fill="black" />
    </g>
</svg>