<svg xmlns="http://www.w3.org/2000/svg" viewBox="0 0 400 200"><path d="M125 21.429L128.185 43.2147L140.506 24.9707L133.899 45.9826L152.917 34.8814L137.857 50.9528L159.822 49.1969L139.286 57.1433L159.822 65.0897L137.857 63.3338L152.917 79.4052L133.899 68.304L140.506 89.3159L128.185 71.0719L125 92.8576L121.816 71.0719L109.494 89.3159L116.101 68.304L97.0834 79.4052L112.143 63.3338L90.1787 65.0897L110.714 57.1433L90.1787 49.1969L112.143 50.9528L97.0834 34.8814L116.101 45.9826L109.494 24.9707L121.816 43.2147L125 21.429ZM107.143 22.3219C101.343 19.7485 94.9924 18.6645 88.6674 19.1684C82.3423 19.6722 76.2433 21.748 70.9241 25.2071C65.6048 28.6663 61.2338 33.3993 58.208 38.9765C55.1822 44.5536 53.5973 50.7982 53.5973 57.1433C53.5973 63.4884 55.1822 69.733 58.208 75.3101C61.2338 80.8872 65.6048 85.6203 70.9241 89.0794C76.2433 92.5386 82.3423 94.6144 88.6674 95.1182C94.9924 95.6221 101.343 94.5381 107.143 91.9647C100.739 96.5597 93.1913 99.2995 85.3307 99.8829C77.4702 100.466 69.601 98.8705 62.5886 95.2712C55.5763 91.6719 49.6923 86.2085 45.5839 79.4817C41.4755 72.7549 39.3018 65.0255 39.3018 57.1433C39.3018 49.2611 41.4755 41.5316 45.5839 34.8049C49.6923 28.0781 55.5763 22.6147 62.5886 19.0154C69.601 15.416 77.4702 13.8203 85.3307 14.4037C93.1913 14.987 100.739 17.7269 107.143 22.3219Z" fill="#FFCC00" />
</svg>