<svg xmlns="http://www.w3.org/2000/svg" viewBox="0 0 400 200"><path d="M92.1003 147.665C87.7763 148.859 85.2971 152.213 85.3603 155.378L106.645 155.293C106.836 151.892 104.038 148.746 99.7783 147.508C120.617 147.077 138.721 139.272 142.01 134.263C138.755 132.85 134.991 135.124 132.308 134.6C138.679 131.656 157.766 119.301 154.663 106.056C152.251 113.413 144.943 119.5 141.831 121.134C148.961 110.307 158.697 99.0351 150.25 90.3063C150.677 95.3655 147.036 100.933 145.427 101.352C149.563 89.9115 153.51 75.5487 144.548 66.0799C145.725 69.5023 145.25 79.1563 143.63 79.5903C143.13 71.8111 141.803 55.4491 133.611 55.6823C136.213 57.9983 137.351 64.3203 137.409 70.7063C135.542 66.3315 133.42 63.0379 128.882 59.8075C125.211 52.7667 118.679 46.9331 112.146 42.7539C112.879 47.8787 113.486 51.9219 120.642 57.2375C116.911 57.0055 113.181 49.9327 109.194 49.7367C106.022 49.5839 103.534 52.6107 98.3507 50.8687C98.9243 52.5795 101.343 53.3371 101.853 54.6027C100.743 55.3695 98.1071 54.4831 95.9167 53.3423C98.9303 57.4475 103.6 59.8611 107.565 59.0463C112.279 58.1399 117.334 58.6191 122.156 61.3627C120.924 61.9951 116.132 61.9911 113.056 61.6063C115.852 64.4367 117.726 66.3127 122.588 66.2819C126.93 66.2535 129.206 63.9659 130.321 65.3827C133.044 68.6095 134.877 71.8347 137.155 75.6339C132.123 76.1899 133.64 69.9427 128.036 66.7475C124.887 73.2647 131.658 80.9907 136.266 84.2023C136.328 89.1011 137.044 93.1999 139.122 96.9295C140.523 99.5591 142.334 102.251 141.651 108.185C138.892 106.176 136.196 99.3991 137.188 94.0191C133.734 94.9611 132.384 101.033 134.012 104.09C135.228 106.417 136.04 110.87 134.637 112.861C133.27 114.716 133.127 114.508 133.145 118.489C133.194 120.871 131.863 123.688 129.696 125.652C130.148 123.974 130.664 121.086 130.163 119.281C128.45 122.187 124.152 125.194 122.798 128.319C121.47 131.451 121.132 136.875 114.7 138.126C106.426 139.768 103.57 141.202 98.2455 143.381C97.6547 139.337 99.4235 130.904 102.805 131.385C106.107 131.972 116.117 127.936 112.536 119.502C111.829 122.16 109.47 124.754 106.919 124.869C109.675 121.294 114.593 117.592 112.198 111.6C110.866 114.147 108.772 117.203 105.597 118.923C109.001 112.399 105.992 110.447 101.95 115.82C100.423 117.893 99.5007 122.047 98.5307 127.323C96.9427 123.032 97.0475 117.384 95.1659 112.797C93.2003 107.838 97.7743 106.528 99.9271 106.926C105.198 108.334 114.006 108.333 113.352 99.6251C111.076 102.571 107.084 103.48 102.772 102.42C107.614 98.8847 111.437 92.2343 106.042 88.7627C105.862 92.4443 103.012 96.5723 99.2083 98.4735C98.3179 95.3671 98.3179 92.0699 99.0815 88.4555C96.9575 90.6915 95.4059 95.3435 94.1723 100.632C94.0795 95.4043 95.0683 91.6379 95.8015 88.8259C96.9135 84.7183 99.6763 87.3911 103.906 87.6939C107.98 87.9251 113.588 85.6739 112.516 80.1499C111.125 82.3355 108.27 83.1859 105.353 82.9547C108.865 80.8275 114.984 77.0467 111.628 71.2319C110.218 73.4343 109.762 75.3183 105.682 75.9939C106.751 73.5359 106.928 70.0607 110.095 68.6835C104.446 67.5587 101.212 71.2659 99.5675 77.0723C98.9007 73.0467 98.1075 71.5643 97.9495 68.6203C101.003 65.2287 101.323 58.5939 94.7119 57.1103C94.3199 60.5327 94.4359 61.3483 95.1879 64.1347C92.0847 62.2915 87.7111 61.2743 84.7991 63.8811C86.7719 66.0099 89.8255 67.8843 94.5319 65.5623C93.4199 69.1995 90.5287 68.5771 86.5551 67.1903C88.9839 71.7519 92.0487 72.5623 95.4311 72.0367C97.2023 76.7059 97.2803 80.2535 92.1051 87.0535C92.3443 82.8279 92.0439 79.6799 88.6867 76.2631C85.8099 73.4455 83.4715 76.3835 87.9675 82.6479C85.2399 80.6395 82.1531 76.5627 81.2235 72.4867C80.3243 77.5223 81.1339 83.4571 83.9215 86.7839C82.6031 88.1927 81.1039 86.6343 78.8863 83.1875C79.7251 94.2179 84.4311 96.3463 90.7555 93.8875C90.9355 99.9419 90.9355 105.548 91.2955 112.861C87.6075 107.556 82.9327 103.6 80.3243 102.61C79.5155 105.578 82.5731 109.444 84.2815 111.602C81.6735 111.062 76.0083 106.746 76.0083 106.746C75.4387 111.662 81.7943 116.218 85.9003 118.256C81.0747 118.046 78.9455 116.218 75.8283 113.221C75.8887 126.859 90.6051 124.49 93.3631 122.393C93.7231 129.107 94.2359 136.869 94.5951 143.583C90.4351 142.857 90.7623 141.606 87.2023 141.277C77.3223 140.891 69.4843 129.416 66.8891 120.975C66.1443 122.364 66.7351 123.818 66.0539 125.524C64.4499 121.381 62.4003 116.03 59.6519 113.539C60.3519 115.955 60.4259 118.409 60.1827 122.924C59.2395 119.999 58.3619 119.102 58.2987 115.668C58.3587 113.032 60.8419 111.087 60.7043 107.379C60.6027 104.672 58.1335 98.8047 57.7703 94.2627C56.5747 98.9375 55.8243 103.865 53.9931 106.759C54.9031 101.767 54.6115 98.3223 56.1507 94.9627C57.9291 91.4255 59.4411 88.2675 58.2571 84.6979C57.1219 86.0767 57.5123 87.3291 54.6599 90.6791C54.0399 87.0363 58.3479 81.2059 62.5291 78.8619C65.4779 77.3083 69.1947 71.7511 66.7731 67.9419C64.0007 69.9339 62.7555 72.6243 58.8383 77.2219C61.6323 66.2999 68.8919 63.4419 77.5831 63.4047C79.5063 63.3959 83.3835 62.7015 84.4719 60.1567C82.0219 61.1023 79.1255 61.2227 76.5479 60.7067C78.4239 57.9527 82.3743 58.3107 86.0559 58.2947C88.9431 58.2807 93.4511 57.8891 95.2735 53.7767C91.7511 55.3027 86.2575 55.6203 82.7983 54.5395C88.2995 51.6891 96.9159 51.3823 101.335 47.6419C96.2979 43.8827 83.6935 48.5179 75.7323 53.9779C77.9575 51.9431 81.4743 48.3339 83.4147 45.4199C79.0603 43.3323 68.0487 55.5315 64.2551 62.7799C60.6523 64.8143 59.2111 68.0039 57.8119 70.2299C59.7319 63.7427 59.9351 59.0351 61.5371 53.6931C49.1863 57.9447 54.3199 80.7647 51.6331 86.2239C51.9495 80.1967 51.6935 72.4535 49.2119 68.4607C45.4079 71.3627 45.1007 88.4443 48.6723 102.665C47.3827 98.8595 44.9483 95.3067 44.1675 90.6751C38.5371 100.944 47.4679 113.058 54.9355 122.628C49.3135 119.7 43.7551 113.401 40.1035 108.12C41.1115 126.499 60.3039 130.318 63.2835 134.835C59.2395 132.952 51.5079 129.227 48.2275 133.131C53.5679 134.364 57.8283 135.789 61.2611 138.039C66.2419 144.258 75.6739 146.977 92.1003 147.665Z" fill="#FFC726" />
</svg>